ISO-10303-21;
HEADER;
/* Generated by software containing ST-Developer
 * from STEP Tools, Inc. (www.steptools.com) 
 */
/* OPTION: using custom renumber hook */

FILE_DESCRIPTION(
/* description */ ('STEP AP203'),
/* implementation_level */ '2;1');

FILE_NAME(
/* name */ 'ALSBF10-40-M4-N4',
/* time_stamp */ '2025-05-25T12:07:23+02:00',
/* author */ ('License CC BY-ND 4.0'),
/* organization */ ('CADENAS'),
/* preprocessor_version */ 'ST-DEVELOPER v19.3',
/* originating_system */ 'PARTsolutions',
/* authorisation */ '  ');

FILE_SCHEMA (('CONFIG_CONTROL_DESIGN'));
ENDSEC;

DATA;
#10=PROPERTY_DEFINITION_REPRESENTATION(#14,#12);
#11=PROPERTY_DEFINITION_REPRESENTATION(#15,#13);
#12=REPRESENTATION('',(#16),#703);
#13=REPRESENTATION('',(#17),#703);
#14=PROPERTY_DEFINITION('pmi validation property','',#708);
#15=PROPERTY_DEFINITION('pmi validation property','',#708);
#16=VALUE_REPRESENTATION_ITEM('number of annotations',COUNT_MEASURE(0.));
#17=VALUE_REPRESENTATION_ITEM('number of views',COUNT_MEASURE(0.));
#18=SHAPE_REPRESENTATION_RELATIONSHIP('','',#381,#19);
#19=ADVANCED_BREP_SHAPE_REPRESENTATION('',(#379),#703);
#20=VERTEX_LOOP('',#234);
#21=VERTEX_LOOP('',#236);
#22=CYLINDRICAL_SURFACE('',#419,1.621);
#23=CYLINDRICAL_SURFACE('',#424,1.621);
#24=LINE('',#600,#30);
#25=LINE('',#612,#31);
#26=LINE('',#624,#32);
#27=LINE('',#636,#33);
#28=LINE('',#648,#34);
#29=LINE('',#660,#35);
#30=VECTOR('',#459,1000.);
#31=VECTOR('',#460,1000.);
#32=VECTOR('',#463,1000.);
#33=VECTOR('',#466,1000.);
#34=VECTOR('',#469,1000.);
#35=VECTOR('',#472,1000.);
#36=PLANE('',#393);
#37=PLANE('',#397);
#38=PLANE('',#398);
#39=PLANE('',#399);
#40=PLANE('',#400);
#41=PLANE('',#401);
#42=PLANE('',#402);
#43=PLANE('',#413);
#44=CIRCLE('',#384,5.);
#45=CIRCLE('',#386,5.);
#46=CIRCLE('',#388,5.);
#47=CIRCLE('',#390,5.);
#48=CIRCLE('',#392,5.);
#49=CIRCLE('',#394,5.);
#50=CIRCLE('',#395,2.);
#51=CIRCLE('',#404,5.);
#52=CIRCLE('',#406,5.);
#53=CIRCLE('',#408,5.);
#54=CIRCLE('',#410,5.);
#55=CIRCLE('',#412,5.);
#56=CIRCLE('',#414,2.);
#57=CIRCLE('',#415,5.);
#58=CIRCLE('',#418,1.621);
#59=CIRCLE('',#420,1.621);
#60=CIRCLE('',#423,1.621);
#61=CIRCLE('',#425,1.621);
#62=ORIENTED_EDGE('',*,*,#158,.T.);
#63=ORIENTED_EDGE('',*,*,#159,.T.);
#64=ORIENTED_EDGE('',*,*,#160,.T.);
#65=ORIENTED_EDGE('',*,*,#161,.T.);
#66=ORIENTED_EDGE('',*,*,#162,.T.);
#67=ORIENTED_EDGE('',*,*,#163,.T.);
#68=ORIENTED_EDGE('',*,*,#164,.T.);
#69=ORIENTED_EDGE('',*,*,#165,.T.);
#70=ORIENTED_EDGE('',*,*,#166,.T.);
#71=ORIENTED_EDGE('',*,*,#167,.T.);
#72=ORIENTED_EDGE('',*,*,#168,.T.);
#73=ORIENTED_EDGE('',*,*,#169,.T.);
#74=ORIENTED_EDGE('',*,*,#170,.T.);
#75=ORIENTED_EDGE('',*,*,#171,.T.);
#76=ORIENTED_EDGE('',*,*,#172,.T.);
#77=ORIENTED_EDGE('',*,*,#165,.F.);
#78=ORIENTED_EDGE('',*,*,#167,.F.);
#79=ORIENTED_EDGE('',*,*,#170,.F.);
#80=ORIENTED_EDGE('',*,*,#173,.F.);
#81=ORIENTED_EDGE('',*,*,#160,.F.);
#82=ORIENTED_EDGE('',*,*,#161,.F.);
#83=ORIENTED_EDGE('',*,*,#174,.T.);
#84=ORIENTED_EDGE('',*,*,#173,.T.);
#85=ORIENTED_EDGE('',*,*,#175,.T.);
#86=ORIENTED_EDGE('',*,*,#176,.T.);
#87=ORIENTED_EDGE('',*,*,#177,.F.);
#88=ORIENTED_EDGE('',*,*,#178,.F.);
#89=ORIENTED_EDGE('',*,*,#179,.F.);
#90=ORIENTED_EDGE('',*,*,#180,.T.);
#91=ORIENTED_EDGE('',*,*,#162,.F.);
#92=ORIENTED_EDGE('',*,*,#159,.F.);
#93=ORIENTED_EDGE('',*,*,#180,.F.);
#94=ORIENTED_EDGE('',*,*,#181,.F.);
#95=ORIENTED_EDGE('',*,*,#182,.F.);
#96=ORIENTED_EDGE('',*,*,#183,.T.);
#97=ORIENTED_EDGE('',*,*,#166,.F.);
#98=ORIENTED_EDGE('',*,*,#163,.F.);
#99=ORIENTED_EDGE('',*,*,#183,.F.);
#100=ORIENTED_EDGE('',*,*,#184,.F.);
#101=ORIENTED_EDGE('',*,*,#185,.F.);
#102=ORIENTED_EDGE('',*,*,#186,.T.);
#103=ORIENTED_EDGE('',*,*,#168,.F.);
#104=ORIENTED_EDGE('',*,*,#164,.F.);
#105=ORIENTED_EDGE('',*,*,#186,.F.);
#106=ORIENTED_EDGE('',*,*,#187,.F.);
#107=ORIENTED_EDGE('',*,*,#188,.F.);
#108=ORIENTED_EDGE('',*,*,#189,.T.);
#109=ORIENTED_EDGE('',*,*,#171,.F.);
#110=ORIENTED_EDGE('',*,*,#169,.F.);
#111=ORIENTED_EDGE('',*,*,#189,.F.);
#112=ORIENTED_EDGE('',*,*,#190,.F.);
#113=ORIENTED_EDGE('',*,*,#191,.F.);
#114=ORIENTED_EDGE('',*,*,#192,.T.);
#115=ORIENTED_EDGE('',*,*,#175,.F.);
#116=ORIENTED_EDGE('',*,*,#172,.F.);
#117=ORIENTED_EDGE('',*,*,#192,.F.);
#118=ORIENTED_EDGE('',*,*,#193,.F.);
#119=ORIENTED_EDGE('',*,*,#194,.F.);
#120=ORIENTED_EDGE('',*,*,#177,.T.);
#121=ORIENTED_EDGE('',*,*,#158,.F.);
#122=ORIENTED_EDGE('',*,*,#176,.F.);
#123=ORIENTED_EDGE('',*,*,#187,.T.);
#124=ORIENTED_EDGE('',*,*,#185,.T.);
#125=ORIENTED_EDGE('',*,*,#195,.F.);
#126=ORIENTED_EDGE('',*,*,#190,.T.);
#127=ORIENTED_EDGE('',*,*,#188,.T.);
#128=ORIENTED_EDGE('',*,*,#196,.F.);
#129=ORIENTED_EDGE('',*,*,#197,.F.);
#130=ORIENTED_EDGE('',*,*,#178,.T.);
#131=ORIENTED_EDGE('',*,*,#194,.T.);
#132=ORIENTED_EDGE('',*,*,#198,.F.);
#133=ORIENTED_EDGE('',*,*,#181,.T.);
#134=ORIENTED_EDGE('',*,*,#179,.T.);
#135=ORIENTED_EDGE('',*,*,#199,.F.);
#136=ORIENTED_EDGE('',*,*,#184,.T.);
#137=ORIENTED_EDGE('',*,*,#182,.T.);
#138=ORIENTED_EDGE('',*,*,#200,.F.);
#139=ORIENTED_EDGE('',*,*,#195,.T.);
#140=ORIENTED_EDGE('',*,*,#199,.T.);
#141=ORIENTED_EDGE('',*,*,#198,.T.);
#142=ORIENTED_EDGE('',*,*,#197,.T.);
#143=ORIENTED_EDGE('',*,*,#201,.T.);
#144=ORIENTED_EDGE('',*,*,#196,.T.);
#145=ORIENTED_EDGE('',*,*,#193,.T.);
#146=ORIENTED_EDGE('',*,*,#191,.T.);
#147=ORIENTED_EDGE('',*,*,#201,.F.);
#148=ORIENTED_EDGE('',*,*,#202,.T.);
#149=ORIENTED_EDGE('',*,*,#174,.F.);
#150=ORIENTED_EDGE('',*,*,#203,.T.);
#151=ORIENTED_EDGE('',*,*,#202,.F.);
#152=ORIENTED_EDGE('',*,*,#203,.F.);
#153=ORIENTED_EDGE('',*,*,#204,.T.);
#154=ORIENTED_EDGE('',*,*,#205,.T.);
#155=ORIENTED_EDGE('',*,*,#204,.F.);
#156=ORIENTED_EDGE('',*,*,#200,.T.);
#157=ORIENTED_EDGE('',*,*,#205,.F.);
#158=EDGE_CURVE('',#206,#207,#238,.T.);
#159=EDGE_CURVE('',#207,#208,#239,.T.);
#160=EDGE_CURVE('',#208,#206,#44,.T.);
#161=EDGE_CURVE('',#209,#208,#45,.T.);
#162=EDGE_CURVE('',#208,#210,#240,.T.);
#163=EDGE_CURVE('',#210,#209,#241,.T.);
#164=EDGE_CURVE('',#211,#212,#242,.T.);
#165=EDGE_CURVE('',#212,#209,#46,.T.);
#166=EDGE_CURVE('',#209,#211,#243,.T.);
#167=EDGE_CURVE('',#213,#212,#47,.T.);
#168=EDGE_CURVE('',#212,#214,#244,.T.);
#169=EDGE_CURVE('',#214,#213,#245,.T.);
#170=EDGE_CURVE('',#215,#213,#48,.T.);
#171=EDGE_CURVE('',#213,#216,#246,.T.);
#172=EDGE_CURVE('',#216,#215,#247,.T.);
#173=EDGE_CURVE('',#206,#215,#49,.T.);
#174=EDGE_CURVE('',#217,#217,#50,.T.);
#175=EDGE_CURVE('',#215,#218,#248,.T.);
#176=EDGE_CURVE('',#218,#206,#249,.T.);
#177=EDGE_CURVE('',#219,#207,#24,.T.);
#178=EDGE_CURVE('',#220,#219,#250,.T.);
#179=EDGE_CURVE('',#221,#220,#251,.T.);
#180=EDGE_CURVE('',#221,#210,#25,.T.);
#181=EDGE_CURVE('',#222,#221,#252,.T.);
#182=EDGE_CURVE('',#223,#222,#253,.T.);
#183=EDGE_CURVE('',#223,#211,#26,.T.);
#184=EDGE_CURVE('',#224,#223,#254,.T.);
#185=EDGE_CURVE('',#225,#224,#255,.T.);
#186=EDGE_CURVE('',#225,#214,#27,.T.);
#187=EDGE_CURVE('',#226,#225,#256,.T.);
#188=EDGE_CURVE('',#227,#226,#257,.T.);
#189=EDGE_CURVE('',#227,#216,#28,.T.);
#190=EDGE_CURVE('',#228,#227,#258,.T.);
#191=EDGE_CURVE('',#229,#228,#259,.T.);
#192=EDGE_CURVE('',#229,#218,#29,.T.);
#193=EDGE_CURVE('',#230,#229,#260,.T.);
#194=EDGE_CURVE('',#219,#230,#261,.T.);
#195=EDGE_CURVE('',#226,#224,#51,.T.);
#196=EDGE_CURVE('',#228,#226,#52,.T.);
#197=EDGE_CURVE('',#220,#230,#53,.T.);
#198=EDGE_CURVE('',#222,#220,#54,.T.);
#199=EDGE_CURVE('',#224,#222,#55,.T.);
#200=EDGE_CURVE('',#231,#231,#56,.T.);
#201=EDGE_CURVE('',#230,#228,#57,.T.);
#202=EDGE_CURVE('',#232,#232,#58,.T.);
#203=EDGE_CURVE('',#233,#233,#59,.T.);
#204=EDGE_CURVE('',#235,#235,#60,.T.);
#205=EDGE_CURVE('',#237,#237,#61,.T.);
#206=VERTEX_POINT('',#529);
#207=VERTEX_POINT('',#530);
#208=VERTEX_POINT('',#535);
#209=VERTEX_POINT('',#539);
#210=VERTEX_POINT('',#544);
#211=VERTEX_POINT('',#554);
#212=VERTEX_POINT('',#555);
#213=VERTEX_POINT('',#563);
#214=VERTEX_POINT('',#568);
#215=VERTEX_POINT('',#575);
#216=VERTEX_POINT('',#580);
#217=VERTEX_POINT('',#588);
#218=VERTEX_POINT('',#594);
#219=VERTEX_POINT('',#601);
#220=VERTEX_POINT('',#606);
#221=VERTEX_POINT('',#611);
#222=VERTEX_POINT('',#618);
#223=VERTEX_POINT('',#623);
#224=VERTEX_POINT('',#630);
#225=VERTEX_POINT('',#635);
#226=VERTEX_POINT('',#642);
#227=VERTEX_POINT('',#647);
#228=VERTEX_POINT('',#654);
#229=VERTEX_POINT('',#659);
#230=VERTEX_POINT('',#666);
#231=VERTEX_POINT('',#683);
#232=VERTEX_POINT('',#688);
#233=VERTEX_POINT('',#691);
#234=VERTEX_POINT('',#693);
#235=VERTEX_POINT('',#696);
#236=VERTEX_POINT('',#697);
#237=VERTEX_POINT('',#700);
#238=B_SPLINE_CURVE_WITH_KNOTS('',3,(#525,#526,#527,#528),.UNSPECIFIED.,
 .F.,.F.,(4,4),(0.00292115801198671,0.00583116036165213),.UNSPECIFIED.);
#239=B_SPLINE_CURVE_WITH_KNOTS('',3,(#531,#532,#533,#534),.UNSPECIFIED.,
 .F.,.F.,(4,4),(0.00632051634589469,0.00925728644978587),.UNSPECIFIED.);
#240=B_SPLINE_CURVE_WITH_KNOTS('',3,(#540,#541,#542,#543),.UNSPECIFIED.,
 .F.,.F.,(4,4),(0.00925728644978587,0.0121928736909132),.UNSPECIFIED.);
#241=B_SPLINE_CURVE_WITH_KNOTS('',3,(#545,#546,#547,#548),.UNSPECIFIED.,
 .F.,.F.,(4,4),(2.38073520082904E-7,0.00292115801198671),.UNSPECIFIED.);
#242=B_SPLINE_CURVE_WITH_KNOTS('',3,(#550,#551,#552,#553),.UNSPECIFIED.,
 .F.,.F.,(4,4),(2.38073520082317E-7,0.00292115801198671),.UNSPECIFIED.);
#243=B_SPLINE_CURVE_WITH_KNOTS('',3,(#557,#558,#559,#560),.UNSPECIFIED.,
 .F.,.F.,(4,4),(0.00292115801198671,0.00583116036165213),.UNSPECIFIED.);
#244=B_SPLINE_CURVE_WITH_KNOTS('',3,(#564,#565,#566,#567),.UNSPECIFIED.,
 .F.,.F.,(4,4),(0.00292115801198671,0.00583116036165213),.UNSPECIFIED.);
#245=B_SPLINE_CURVE_WITH_KNOTS('',3,(#569,#570,#571,#572),.UNSPECIFIED.,
 .F.,.F.,(4,4),(0.00632051634589469,0.00925728644978587),.UNSPECIFIED.);
#246=B_SPLINE_CURVE_WITH_KNOTS('',3,(#576,#577,#578,#579),.UNSPECIFIED.,
 .F.,.F.,(4,4),(0.00925728644978587,0.0121928736909132),.UNSPECIFIED.);
#247=B_SPLINE_CURVE_WITH_KNOTS('',3,(#581,#582,#583,#584),.UNSPECIFIED.,
 .F.,.F.,(4,4),(2.38073520082904E-7,0.00292115801198671),.UNSPECIFIED.);
#248=B_SPLINE_CURVE_WITH_KNOTS('',3,(#590,#591,#592,#593),.UNSPECIFIED.,
 .F.,.F.,(4,4),(0.00292115801198671,0.00583116036165213),.UNSPECIFIED.);
#249=B_SPLINE_CURVE_WITH_KNOTS('',3,(#595,#596,#597,#598),.UNSPECIFIED.,
 .F.,.F.,(4,4),(2.38073520082317E-7,0.00292115801198671),.UNSPECIFIED.);
#250=B_SPLINE_CURVE_WITH_KNOTS('',3,(#602,#603,#604,#605),.UNSPECIFIED.,
 .F.,.F.,(4,4),(0.00925728644978588,0.0121928736909132),.UNSPECIFIED.);
#251=B_SPLINE_CURVE_WITH_KNOTS('',3,(#607,#608,#609,#610),.UNSPECIFIED.,
 .F.,.F.,(4,4),(0.00632051634589471,0.00925728644978588),.UNSPECIFIED.);
#252=B_SPLINE_CURVE_WITH_KNOTS('',3,(#614,#615,#616,#617),.UNSPECIFIED.,
 .F.,.F.,(4,4),(0.00292115801198671,0.00583116036165213),.UNSPECIFIED.);
#253=B_SPLINE_CURVE_WITH_KNOTS('',3,(#619,#620,#621,#622),.UNSPECIFIED.,
 .F.,.F.,(4,4),(2.38073520081731E-7,0.00292115801198671),.UNSPECIFIED.);
#254=B_SPLINE_CURVE_WITH_KNOTS('',3,(#626,#627,#628,#629),.UNSPECIFIED.,
 .F.,.F.,(4,4),(0.00292115801198671,0.00583116036165213),.UNSPECIFIED.);
#255=B_SPLINE_CURVE_WITH_KNOTS('',3,(#631,#632,#633,#634),.UNSPECIFIED.,
 .F.,.F.,(4,4),(2.38073520080494E-7,0.00292115801198671),.UNSPECIFIED.);
#256=B_SPLINE_CURVE_WITH_KNOTS('',3,(#638,#639,#640,#641),.UNSPECIFIED.,
 .F.,.F.,(4,4),(0.00925728644978588,0.0121928736909132),.UNSPECIFIED.);
#257=B_SPLINE_CURVE_WITH_KNOTS('',3,(#643,#644,#645,#646),.UNSPECIFIED.,
 .F.,.F.,(4,4),(0.00632051634589471,0.00925728644978588),.UNSPECIFIED.);
#258=B_SPLINE_CURVE_WITH_KNOTS('',3,(#650,#651,#652,#653),.UNSPECIFIED.,
 .F.,.F.,(4,4),(0.00292115801198671,0.00583116036165213),.UNSPECIFIED.);
#259=B_SPLINE_CURVE_WITH_KNOTS('',3,(#655,#656,#657,#658),.UNSPECIFIED.,
 .F.,.F.,(4,4),(2.38073520083563E-7,0.00292115801198671),.UNSPECIFIED.);
#260=B_SPLINE_CURVE_WITH_KNOTS('',3,(#662,#663,#664,#665),.UNSPECIFIED.,
 .F.,.F.,(4,4),(0.00292115801198671,0.00583116036165213),.UNSPECIFIED.);
#261=B_SPLINE_CURVE_WITH_KNOTS('',3,(#667,#668,#669,#670),.UNSPECIFIED.,
 .F.,.F.,(4,4),(2.38073520080494E-7,0.00292115801198671),.UNSPECIFIED.);
#262=EDGE_LOOP('',(#62,#63,#64));
#263=EDGE_LOOP('',(#65,#66,#67));
#264=EDGE_LOOP('',(#68,#69,#70));
#265=EDGE_LOOP('',(#71,#72,#73));
#266=EDGE_LOOP('',(#74,#75,#76));
#267=EDGE_LOOP('',(#77,#78,#79,#80,#81,#82));
#268=EDGE_LOOP('',(#83));
#269=EDGE_LOOP('',(#84,#85,#86));
#270=EDGE_LOOP('',(#87,#88,#89,#90,#91,#92));
#271=EDGE_LOOP('',(#93,#94,#95,#96,#97,#98));
#272=EDGE_LOOP('',(#99,#100,#101,#102,#103,#104));
#273=EDGE_LOOP('',(#105,#106,#107,#108,#109,#110));
#274=EDGE_LOOP('',(#111,#112,#113,#114,#115,#116));
#275=EDGE_LOOP('',(#117,#118,#119,#120,#121,#122));
#276=EDGE_LOOP('',(#123,#124,#125));
#277=EDGE_LOOP('',(#126,#127,#128));
#278=EDGE_LOOP('',(#129,#130,#131));
#279=EDGE_LOOP('',(#132,#133,#134));
#280=EDGE_LOOP('',(#135,#136,#137));
#281=EDGE_LOOP('',(#138));
#282=EDGE_LOOP('',(#139,#140,#141,#142,#143,#144));
#283=EDGE_LOOP('',(#145,#146,#147));
#284=EDGE_LOOP('',(#148));
#285=EDGE_LOOP('',(#149));
#286=EDGE_LOOP('',(#150));
#287=EDGE_LOOP('',(#151));
#288=EDGE_LOOP('',(#152));
#289=EDGE_LOOP('',(#153));
#290=EDGE_LOOP('',(#154));
#291=EDGE_LOOP('',(#155));
#292=EDGE_LOOP('',(#156));
#293=EDGE_LOOP('',(#157));
#294=FACE_BOUND('',#262,.T.);
#295=FACE_BOUND('',#263,.T.);
#296=FACE_BOUND('',#264,.T.);
#297=FACE_BOUND('',#265,.T.);
#298=FACE_BOUND('',#266,.T.);
#299=FACE_BOUND('',#267,.T.);
#300=FACE_BOUND('',#268,.T.);
#301=FACE_BOUND('',#269,.T.);
#302=FACE_BOUND('',#270,.T.);
#303=FACE_BOUND('',#271,.T.);
#304=FACE_BOUND('',#272,.T.);
#305=FACE_BOUND('',#273,.T.);
#306=FACE_BOUND('',#274,.T.);
#307=FACE_BOUND('',#275,.T.);
#308=FACE_BOUND('',#276,.T.);
#309=FACE_BOUND('',#277,.T.);
#310=FACE_BOUND('',#278,.T.);
#311=FACE_BOUND('',#279,.T.);
#312=FACE_BOUND('',#280,.T.);
#313=FACE_BOUND('',#281,.T.);
#314=FACE_BOUND('',#282,.T.);
#315=FACE_BOUND('',#283,.T.);
#316=FACE_BOUND('',#284,.T.);
#317=FACE_BOUND('',#285,.T.);
#318=FACE_BOUND('',#286,.T.);
#319=FACE_BOUND('',#287,.T.);
#320=FACE_BOUND('',#20,.T.);
#321=FACE_BOUND('',#288,.T.);
#322=FACE_BOUND('',#289,.T.);
#323=FACE_BOUND('',#21,.T.);
#324=FACE_BOUND('',#290,.T.);
#325=FACE_BOUND('',#291,.T.);
#326=FACE_BOUND('',#292,.T.);
#327=FACE_BOUND('',#293,.T.);
#328=CONICAL_SURFACE('',#383,5.,1.0471975511966);
#329=CONICAL_SURFACE('',#385,5.,1.0471975511966);
#330=CONICAL_SURFACE('',#387,5.,1.0471975511966);
#331=CONICAL_SURFACE('',#389,5.,1.0471975511966);
#332=CONICAL_SURFACE('',#391,5.,1.0471975511966);
#333=CONICAL_SURFACE('',#396,5.,1.0471975511966);
#334=CONICAL_SURFACE('',#403,6.25,1.04719755119659);
#335=CONICAL_SURFACE('',#405,6.25,1.04719755119659);
#336=CONICAL_SURFACE('',#407,6.25,1.04719755119659);
#337=CONICAL_SURFACE('',#409,6.25,1.04719755119659);
#338=CONICAL_SURFACE('',#411,6.25,1.04719755119659);
#339=CONICAL_SURFACE('',#416,6.25,1.04719755119659);
#340=CONICAL_SURFACE('',#417,2.,0.785398163397447);
#341=CONICAL_SURFACE('',#421,1.621,1.0471975511966);
#342=CONICAL_SURFACE('',#422,0.,1.0471975511966);
#343=CONICAL_SURFACE('',#426,1.621,0.785398163397452);
#344=ADVANCED_FACE('',(#294),#328,.T.);
#345=ADVANCED_FACE('',(#295),#329,.T.);
#346=ADVANCED_FACE('',(#296),#330,.T.);
#347=ADVANCED_FACE('',(#297),#331,.T.);
#348=ADVANCED_FACE('',(#298),#332,.T.);
#349=ADVANCED_FACE('',(#299,#300),#36,.F.);
#350=ADVANCED_FACE('',(#301),#333,.T.);
#351=ADVANCED_FACE('',(#302),#37,.F.);
#352=ADVANCED_FACE('',(#303),#38,.F.);
#353=ADVANCED_FACE('',(#304),#39,.F.);
#354=ADVANCED_FACE('',(#305),#40,.F.);
#355=ADVANCED_FACE('',(#306),#41,.F.);
#356=ADVANCED_FACE('',(#307),#42,.F.);
#357=ADVANCED_FACE('',(#308),#334,.T.);
#358=ADVANCED_FACE('',(#309),#335,.T.);
#359=ADVANCED_FACE('',(#310),#336,.T.);
#360=ADVANCED_FACE('',(#311),#337,.T.);
#361=ADVANCED_FACE('',(#312),#338,.T.);
#362=ADVANCED_FACE('',(#313,#314),#43,.F.);
#363=ADVANCED_FACE('',(#315),#339,.T.);
#364=ADVANCED_FACE('',(#316,#317),#340,.F.);
#365=ADVANCED_FACE('',(#318,#319),#22,.F.);
#366=ADVANCED_FACE('',(#320,#321),#341,.F.);
#367=ADVANCED_FACE('',(#322,#323),#342,.F.);
#368=ADVANCED_FACE('',(#324,#325),#23,.F.);
#369=ADVANCED_FACE('',(#326,#327),#343,.F.);
#370=CLOSED_SHELL('',(#344,#345,#346,#347,#348,#349,#350,#351,#352,#353,
#354,#355,#356,#357,#358,#359,#360,#361,#362,#363,#364,#365,#366,#367,#368,
#369));
#371=STYLED_ITEM('',(#372),#379);
#372=PRESENTATION_STYLE_ASSIGNMENT((#373));
#373=SURFACE_STYLE_USAGE(.BOTH.,#374);
#374=SURFACE_SIDE_STYLE('',(#375));
#375=SURFACE_STYLE_FILL_AREA(#376);
#376=FILL_AREA_STYLE('',(#377));
#377=FILL_AREA_STYLE_COLOUR('',#378);
#378=COLOUR_RGB('',0.689999997615814,0.689999997615814,0.689999997615814);
#379=MANIFOLD_SOLID_BREP('ALSBF10-40-M4-N4',#370);
#380=SHAPE_DEFINITION_REPRESENTATION(#708,#381);
#381=SHAPE_REPRESENTATION('ALSBF10-40-M4-N4',(#382),#703);
#382=AXIS2_PLACEMENT_3D('',#523,#427,#428);
#383=AXIS2_PLACEMENT_3D('',#524,#429,#430);
#384=AXIS2_PLACEMENT_3D('',#536,#431,#432);
#385=AXIS2_PLACEMENT_3D('',#537,#433,#434);
#386=AXIS2_PLACEMENT_3D('',#538,#435,#436);
#387=AXIS2_PLACEMENT_3D('',#549,#437,#438);
#388=AXIS2_PLACEMENT_3D('',#556,#439,#440);
#389=AXIS2_PLACEMENT_3D('',#561,#441,#442);
#390=AXIS2_PLACEMENT_3D('',#562,#443,#444);
#391=AXIS2_PLACEMENT_3D('',#573,#445,#446);
#392=AXIS2_PLACEMENT_3D('',#574,#447,#448);
#393=AXIS2_PLACEMENT_3D('',#585,#449,#450);
#394=AXIS2_PLACEMENT_3D('',#586,#451,#452);
#395=AXIS2_PLACEMENT_3D('',#587,#453,#454);
#396=AXIS2_PLACEMENT_3D('',#589,#455,#456);
#397=AXIS2_PLACEMENT_3D('',#599,#457,#458);
#398=AXIS2_PLACEMENT_3D('',#613,#461,#462);
#399=AXIS2_PLACEMENT_3D('',#625,#464,#465);
#400=AXIS2_PLACEMENT_3D('',#637,#467,#468);
#401=AXIS2_PLACEMENT_3D('',#649,#470,#471);
#402=AXIS2_PLACEMENT_3D('',#661,#473,#474);
#403=AXIS2_PLACEMENT_3D('',#671,#475,#476);
#404=AXIS2_PLACEMENT_3D('',#672,#477,#478);
#405=AXIS2_PLACEMENT_3D('',#673,#479,#480);
#406=AXIS2_PLACEMENT_3D('',#674,#481,#482);
#407=AXIS2_PLACEMENT_3D('',#675,#483,#484);
#408=AXIS2_PLACEMENT_3D('',#676,#485,#486);
#409=AXIS2_PLACEMENT_3D('',#677,#487,#488);
#410=AXIS2_PLACEMENT_3D('',#678,#489,#490);
#411=AXIS2_PLACEMENT_3D('',#679,#491,#492);
#412=AXIS2_PLACEMENT_3D('',#680,#493,#494);
#413=AXIS2_PLACEMENT_3D('',#681,#495,#496);
#414=AXIS2_PLACEMENT_3D('',#682,#497,#498);
#415=AXIS2_PLACEMENT_3D('',#684,#499,#500);
#416=AXIS2_PLACEMENT_3D('',#685,#501,#502);
#417=AXIS2_PLACEMENT_3D('',#686,#503,#504);
#418=AXIS2_PLACEMENT_3D('',#687,#505,#506);
#419=AXIS2_PLACEMENT_3D('',#689,#507,#508);
#420=AXIS2_PLACEMENT_3D('',#690,#509,#510);
#421=AXIS2_PLACEMENT_3D('',#692,#511,#512);
#422=AXIS2_PLACEMENT_3D('',#694,#513,#514);
#423=AXIS2_PLACEMENT_3D('',#695,#515,#516);
#424=AXIS2_PLACEMENT_3D('',#698,#517,#518);
#425=AXIS2_PLACEMENT_3D('',#699,#519,#520);
#426=AXIS2_PLACEMENT_3D('',#701,#521,#522);
#427=DIRECTION('',(0.,0.,1.));
#428=DIRECTION('',(1.,0.,0.));
#429=DIRECTION('',(1.,0.,0.));
#430=DIRECTION('',(0.,0.,-1.));
#431=DIRECTION('',(1.,0.,0.));
#432=DIRECTION('',(0.,0.,-1.));
#433=DIRECTION('',(1.,0.,0.));
#434=DIRECTION('',(0.,0.,-1.));
#435=DIRECTION('',(1.,0.,0.));
#436=DIRECTION('',(0.,0.,-1.));
#437=DIRECTION('',(1.,0.,0.));
#438=DIRECTION('',(0.,0.,-1.));
#439=DIRECTION('',(1.,0.,0.));
#440=DIRECTION('',(0.,0.,-1.));
#441=DIRECTION('',(1.,0.,0.));
#442=DIRECTION('',(0.,0.,-1.));
#443=DIRECTION('',(1.,0.,0.));
#444=DIRECTION('',(0.,0.,-1.));
#445=DIRECTION('',(1.,0.,0.));
#446=DIRECTION('',(0.,0.,-1.));
#447=DIRECTION('',(1.,0.,0.));
#448=DIRECTION('',(0.,0.,-1.));
#449=DIRECTION('',(1.,0.,0.));
#450=DIRECTION('',(0.,0.,-1.));
#451=DIRECTION('',(1.,0.,0.));
#452=DIRECTION('',(0.,0.,-1.));
#453=DIRECTION('',(1.,0.,0.));
#454=DIRECTION('',(0.,0.,-1.));
#455=DIRECTION('',(1.,0.,0.));
#456=DIRECTION('',(0.,0.,-1.));
#457=DIRECTION('',(0.,0.,-1.));
#458=DIRECTION('',(-1.,0.,0.));
#459=DIRECTION('',(-1.,0.,0.));
#460=DIRECTION('',(-1.,0.,0.));
#461=DIRECTION('',(0.,-0.866025403784439,-0.5));
#462=DIRECTION('',(0.,0.5,-0.866025403784439));
#463=DIRECTION('',(-1.,0.,0.));
#464=DIRECTION('',(0.,-0.866025403784439,0.5));
#465=DIRECTION('',(0.,-0.5,-0.866025403784439));
#466=DIRECTION('',(-1.,0.,0.));
#467=DIRECTION('',(0.,0.,1.));
#468=DIRECTION('',(1.,0.,0.));
#469=DIRECTION('',(-1.,0.,0.));
#470=DIRECTION('',(0.,0.866025403784439,0.5));
#471=DIRECTION('',(0.,-0.5,0.866025403784439));
#472=DIRECTION('',(-1.,0.,0.));
#473=DIRECTION('',(0.,0.866025403784439,-0.5));
#474=DIRECTION('',(0.,0.5,0.866025403784439));
#475=DIRECTION('',(-1.,0.,0.));
#476=DIRECTION('',(0.,0.,1.));
#477=DIRECTION('',(1.,0.,0.));
#478=DIRECTION('',(0.,0.,-1.));
#479=DIRECTION('',(-1.,0.,0.));
#480=DIRECTION('',(0.,0.,1.));
#481=DIRECTION('',(1.,0.,0.));
#482=DIRECTION('',(0.,0.,-1.));
#483=DIRECTION('',(-1.,0.,0.));
#484=DIRECTION('',(0.,0.,1.));
#485=DIRECTION('',(1.,0.,0.));
#486=DIRECTION('',(0.,0.,-1.));
#487=DIRECTION('',(-1.,0.,0.));
#488=DIRECTION('',(0.,0.,1.));
#489=DIRECTION('',(1.,0.,0.));
#490=DIRECTION('',(0.,0.,-1.));
#491=DIRECTION('',(-1.,0.,0.));
#492=DIRECTION('',(0.,0.,1.));
#493=DIRECTION('',(1.,0.,0.));
#494=DIRECTION('',(0.,0.,-1.));
#495=DIRECTION('',(-1.,0.,0.));
#496=DIRECTION('',(0.,0.,1.));
#497=DIRECTION('',(1.,0.,0.));
#498=DIRECTION('',(0.,0.,-1.));
#499=DIRECTION('',(1.,0.,0.));
#500=DIRECTION('',(0.,0.,-1.));
#501=DIRECTION('',(-1.,0.,0.));
#502=DIRECTION('',(0.,0.,1.));
#503=DIRECTION('',(-1.,0.,0.));
#504=DIRECTION('',(0.,0.,1.));
#505=DIRECTION('',(1.,0.,0.));
#506=DIRECTION('',(0.,0.,-1.));
#507=DIRECTION('',(1.,0.,0.));
#508=DIRECTION('',(0.,0.,-1.));
#509=DIRECTION('',(1.,0.,0.));
#510=DIRECTION('',(0.,0.,-1.));
#511=DIRECTION('',(-1.,0.,0.));
#512=DIRECTION('',(0.,0.,1.));
#513=DIRECTION('',(1.,0.,0.));
#514=DIRECTION('',(0.,0.,-1.));
#515=DIRECTION('',(1.,0.,0.));
#516=DIRECTION('',(0.,0.,-1.));
#517=DIRECTION('',(1.,0.,0.));
#518=DIRECTION('',(0.,0.,-1.));
#519=DIRECTION('',(1.,0.,0.));
#520=DIRECTION('',(0.,0.,-1.));
#521=DIRECTION('',(1.,0.,0.));
#522=DIRECTION('',(0.,0.,-1.));
#523=CARTESIAN_POINT('',(0.,0.,0.));
#524=CARTESIAN_POINT('',(0.,0.,0.));
#525=CARTESIAN_POINT('',(-3.19842287861184E-15,-4.33012701892219,2.5));
#526=CARTESIAN_POINT('',(-3.26123703067319E-15,-3.84014752655242,3.34866937545126));
#527=CARTESIAN_POINT('',(0.174618132813007,-3.3578065598888,4.18410843628453));
#528=CARTESIAN_POINT('',(0.44658198738485,-2.8867513459481,5.00000000000005));
#529=CARTESIAN_POINT('',(0.,-4.33012701892219,2.5));
#530=CARTESIAN_POINT('',(0.446581987385204,-2.88675134594813,5.));
#531=CARTESIAN_POINT('',(0.446581987385204,-2.88675134594813,5.));
#532=CARTESIAN_POINT('',(0.175120823759361,-1.94638229058467,5.));
#533=CARTESIAN_POINT('',(-2.12773435047422E-16,-0.988818681806654,5.));
#534=CARTESIAN_POINT('',(-2.7426336431932E-17,1.62330363363968E-15,5.));
#535=CARTESIAN_POINT('',(0.,0.,5.));
#536=CARTESIAN_POINT('',(0.,0.,0.));
#537=CARTESIAN_POINT('',(0.,0.,0.));
#538=CARTESIAN_POINT('',(0.,0.,0.));
#539=CARTESIAN_POINT('',(0.,4.33012701892219,2.5));
#540=CARTESIAN_POINT('',(-2.74263493566291E-17,-1.6947565256966E-16,5.));
#541=CARTESIAN_POINT('',(-4.67691068590519E-17,0.988420408616211,5.));
#542=CARTESIAN_POINT('',(0.17538484158351,1.94729687515573,5.));
#543=CARTESIAN_POINT('',(0.446581987385204,2.88675134594813,5.));
#544=CARTESIAN_POINT('',(0.446581987385204,2.88675134594813,5.));
#545=CARTESIAN_POINT('',(0.446581987384509,2.88675134594808,5.00000000000009));
#546=CARTESIAN_POINT('',(0.173937598033374,3.35898528070282,4.1820668319467));
#547=CARTESIAN_POINT('',(-3.13537327062077E-15,3.83830924809902,3.351853367131));
#548=CARTESIAN_POINT('',(-3.19842308540699E-15,4.33012701892219,2.5));
#549=CARTESIAN_POINT('',(0.,0.,0.));
#550=CARTESIAN_POINT('',(0.446581987384508,5.77350269189631,8.68121073247115E-14));
#551=CARTESIAN_POINT('',(0.173937598033374,5.30126875714156,-0.817933168053298));
#552=CARTESIAN_POINT('',(-3.04079834164629E-15,4.82194478974537,-1.64814663286899));
#553=CARTESIAN_POINT('',(-3.19842287861184E-15,4.3301270189222,-2.5));
#554=CARTESIAN_POINT('',(0.446581987385203,5.77350269189626,0.));
#555=CARTESIAN_POINT('',(0.,4.33012701892219,-2.5));
#556=CARTESIAN_POINT('',(0.,0.,0.));
#557=CARTESIAN_POINT('',(-3.32361583714113E-15,4.33012701892219,2.5));
#558=CARTESIAN_POINT('',(-3.38642998920248E-15,4.82010651129197,1.65133062454874));
#559=CARTESIAN_POINT('',(0.174618132813008,5.30244747795559,0.815891563715466));
#560=CARTESIAN_POINT('',(0.446581987384851,5.77350269189629,-5.16658168653479E-14));
#561=CARTESIAN_POINT('',(0.,0.,0.));
#562=CARTESIAN_POINT('',(0.,0.,0.));
#563=CARTESIAN_POINT('',(0.,0.,-5.));
#564=CARTESIAN_POINT('',(-3.19842287861184E-15,4.33012701892219,-2.5));
#565=CARTESIAN_POINT('',(-3.26123703067319E-15,3.84014752655242,-3.34866937545126));
#566=CARTESIAN_POINT('',(0.174618132813007,3.3578065598888,-4.18410843628453));
#567=CARTESIAN_POINT('',(0.44658198738485,2.8867513459481,-5.00000000000005));
#568=CARTESIAN_POINT('',(0.446581987385204,2.88675134594813,-5.));
#569=CARTESIAN_POINT('',(0.446581987385204,2.88675134594813,-5.));
#570=CARTESIAN_POINT('',(0.175120823759361,1.94638229058467,-5.));
#571=CARTESIAN_POINT('',(-2.12773435047422E-16,0.988818681806654,-5.));
#572=CARTESIAN_POINT('',(-2.7426336431932E-17,-1.62330363363968E-15,-5.));
#573=CARTESIAN_POINT('',(0.,0.,0.));
#574=CARTESIAN_POINT('',(0.,0.,0.));
#575=CARTESIAN_POINT('',(0.,-4.33012701892219,-2.5));
#576=CARTESIAN_POINT('',(-2.74263493566291E-17,1.6947565256966E-16,-5.));
#577=CARTESIAN_POINT('',(-4.67691068590519E-17,-0.988420408616211,-5.));
#578=CARTESIAN_POINT('',(0.17538484158351,-1.94729687515573,-5.));
#579=CARTESIAN_POINT('',(0.446581987385204,-2.88675134594813,-5.));
#580=CARTESIAN_POINT('',(0.446581987385204,-2.88675134594813,-5.));
#581=CARTESIAN_POINT('',(0.446581987384509,-2.88675134594808,-5.00000000000009));
#582=CARTESIAN_POINT('',(0.173937598033374,-3.35898528070282,-4.1820668319467));
#583=CARTESIAN_POINT('',(-3.13537327062077E-15,-3.83830924809902,-3.351853367131));
#584=CARTESIAN_POINT('',(-3.19842308540699E-15,-4.33012701892219,-2.5));
#585=CARTESIAN_POINT('',(0.,0.,0.));
#586=CARTESIAN_POINT('',(0.,0.,0.));
#587=CARTESIAN_POINT('',(0.,0.,0.));
#588=CARTESIAN_POINT('',(0.,0.,-2.));
#589=CARTESIAN_POINT('',(0.,0.,0.));
#590=CARTESIAN_POINT('',(-3.32361583714113E-15,-4.33012701892219,-2.5));
#591=CARTESIAN_POINT('',(-3.38642998920248E-15,-4.82010651129197,-1.65133062454874));
#592=CARTESIAN_POINT('',(0.174618132813008,-5.30244747795559,-0.815891563715466));
#593=CARTESIAN_POINT('',(0.446581987384851,-5.77350269189629,5.16658168653479E-14));
#594=CARTESIAN_POINT('',(0.446581987385203,-5.77350269189626,0.));
#595=CARTESIAN_POINT('',(0.446581987384508,-5.77350269189631,-8.68121073247115E-14));
#596=CARTESIAN_POINT('',(0.173937598033374,-5.30126875714156,0.817933168053298));
#597=CARTESIAN_POINT('',(-3.04079834164629E-15,-4.82194478974537,1.64814663286899));
#598=CARTESIAN_POINT('',(-3.19842287861184E-15,-4.3301270189222,2.5));
#599=CARTESIAN_POINT('',(40.,2.88675134594813,5.));
#600=CARTESIAN_POINT('',(40.,-2.88675134594813,5.));
#601=CARTESIAN_POINT('',(39.5534180126148,-2.88675134594813,5.));
#602=CARTESIAN_POINT('',(40.,1.71220663419496E-15,5.));
#603=CARTESIAN_POINT('',(40.,-0.988420408616213,5.));
#604=CARTESIAN_POINT('',(39.8246151584165,-1.94729687515573,5.));
#605=CARTESIAN_POINT('',(39.5534180126148,-2.88675134594812,5.));
#606=CARTESIAN_POINT('',(40.,0.,5.));
#607=CARTESIAN_POINT('',(39.5534180126148,2.88675134594813,5.));
#608=CARTESIAN_POINT('',(39.8248791762406,1.94638229058467,5.));
#609=CARTESIAN_POINT('',(40.,0.988818681806655,5.));
#610=CARTESIAN_POINT('',(40.,-1.32355944876445E-15,5.));
#611=CARTESIAN_POINT('',(39.5534180126148,2.88675134594813,5.));
#612=CARTESIAN_POINT('',(40.,2.88675134594813,5.));
#613=CARTESIAN_POINT('',(40.,5.77350269189626,0.));
#614=CARTESIAN_POINT('',(40.,4.33012701892219,2.5));
#615=CARTESIAN_POINT('',(40.,3.84014752655241,3.34866937545126));
#616=CARTESIAN_POINT('',(39.825381867187,3.3578065598888,4.18410843628453));
#617=CARTESIAN_POINT('',(39.5534180126151,2.8867513459481,5.00000000000005));
#618=CARTESIAN_POINT('',(40.,4.33012701892219,2.5));
#619=CARTESIAN_POINT('',(39.5534180126155,5.77350269189631,-8.76011656643738E-14));
#620=CARTESIAN_POINT('',(39.8260624019666,5.30126875714156,0.817933168053297));
#621=CARTESIAN_POINT('',(40.,4.82194478974537,1.64814663286899));
#622=CARTESIAN_POINT('',(40.,4.33012701892219,2.5));
#623=CARTESIAN_POINT('',(39.5534180126148,5.77350269189626,0.));
#624=CARTESIAN_POINT('',(40.,5.77350269189626,0.));
#625=CARTESIAN_POINT('',(40.,2.88675134594813,-5.));
#626=CARTESIAN_POINT('',(40.,4.33012701892219,-2.5));
#627=CARTESIAN_POINT('',(40.,4.82010651129197,-1.65133062454874));
#628=CARTESIAN_POINT('',(39.825381867187,5.30244747795559,-0.815891563715468));
#629=CARTESIAN_POINT('',(39.5534180126151,5.77350269189629,5.01888606526258E-14));
#630=CARTESIAN_POINT('',(40.,4.33012701892219,-2.5));
#631=CARTESIAN_POINT('',(39.5534180126155,2.88675134594808,-5.00000000000009));
#632=CARTESIAN_POINT('',(39.8260624019666,3.35898528070282,-4.1820668319467));
#633=CARTESIAN_POINT('',(40.,3.83830924809902,-3.351853367131));
#634=CARTESIAN_POINT('',(40.,4.33012701892219,-2.5));
#635=CARTESIAN_POINT('',(39.5534180126148,2.88675134594813,-5.));
#636=CARTESIAN_POINT('',(40.,2.88675134594813,-5.));
#637=CARTESIAN_POINT('',(40.,-2.88675134594813,-5.));
#638=CARTESIAN_POINT('',(40.,-1.71220663419496E-15,-5.));
#639=CARTESIAN_POINT('',(40.,0.988420408616213,-5.));
#640=CARTESIAN_POINT('',(39.8246151584165,1.94729687515573,-5.));
#641=CARTESIAN_POINT('',(39.5534180126148,2.88675134594812,-5.));
#642=CARTESIAN_POINT('',(40.,0.,-5.));
#643=CARTESIAN_POINT('',(39.5534180126148,-2.88675134594813,-5.));
#644=CARTESIAN_POINT('',(39.8248791762406,-1.94638229058467,-5.));
#645=CARTESIAN_POINT('',(40.,-0.988818681806655,-5.));
#646=CARTESIAN_POINT('',(40.,1.32355944876445E-15,-5.));
#647=CARTESIAN_POINT('',(39.5534180126148,-2.88675134594813,-5.));
#648=CARTESIAN_POINT('',(40.,-2.88675134594813,-5.));
#649=CARTESIAN_POINT('',(40.,-5.77350269189626,0.));
#650=CARTESIAN_POINT('',(40.,-4.33012701892219,-2.5));
#651=CARTESIAN_POINT('',(40.,-3.84014752655241,-3.34866937545126));
#652=CARTESIAN_POINT('',(39.825381867187,-3.3578065598888,-4.18410843628453));
#653=CARTESIAN_POINT('',(39.5534180126151,-2.8867513459481,-5.00000000000005));
#654=CARTESIAN_POINT('',(40.,-4.33012701892219,-2.5));
#655=CARTESIAN_POINT('',(39.5534180126155,-5.77350269189631,8.52810605309636E-14));
#656=CARTESIAN_POINT('',(39.8260624019666,-5.30126875714156,-0.817933168053299));
#657=CARTESIAN_POINT('',(40.,-4.82194478974537,-1.648146632869));
#658=CARTESIAN_POINT('',(40.,-4.3301270189222,-2.5));
#659=CARTESIAN_POINT('',(39.5534180126148,-5.77350269189626,-6.59520832968862E-16));
#660=CARTESIAN_POINT('',(40.,-5.77350269189626,0.));
#661=CARTESIAN_POINT('',(40.,-2.88675134594813,5.));
#662=CARTESIAN_POINT('',(40.,-4.33012701892219,2.5));
#663=CARTESIAN_POINT('',(40.,-4.82010651129197,1.65133062454873));
#664=CARTESIAN_POINT('',(39.825381867187,-5.30244747795559,0.815891563715466));
#665=CARTESIAN_POINT('',(39.5534180126151,-5.77350269189629,-5.23115235640838E-14));
#666=CARTESIAN_POINT('',(40.,-4.33012701892219,2.5));
#667=CARTESIAN_POINT('',(39.5534180126155,-2.88675134594808,5.00000000000009));
#668=CARTESIAN_POINT('',(39.8260624019666,-3.35898528070282,4.1820668319467));
#669=CARTESIAN_POINT('',(40.,-3.83830924809902,3.351853367131));
#670=CARTESIAN_POINT('',(40.,-4.33012701892219,2.5));
#671=CARTESIAN_POINT('',(39.278312163513,0.,0.));
#672=CARTESIAN_POINT('',(40.,0.,0.));
#673=CARTESIAN_POINT('',(39.278312163513,0.,0.));
#674=CARTESIAN_POINT('',(40.,0.,0.));
#675=CARTESIAN_POINT('',(39.278312163513,0.,0.));
#676=CARTESIAN_POINT('',(40.,0.,0.));
#677=CARTESIAN_POINT('',(39.278312163513,0.,0.));
#678=CARTESIAN_POINT('',(40.,0.,0.));
#679=CARTESIAN_POINT('',(39.278312163513,0.,0.));
#680=CARTESIAN_POINT('',(40.,0.,0.));
#681=CARTESIAN_POINT('',(40.,5.,0.));
#682=CARTESIAN_POINT('',(40.,0.,0.));
#683=CARTESIAN_POINT('',(40.,0.,-2.));
#684=CARTESIAN_POINT('',(40.,0.,0.));
#685=CARTESIAN_POINT('',(39.278312163513,0.,0.));
#686=CARTESIAN_POINT('',(0.,0.,0.));
#687=CARTESIAN_POINT('',(0.379000000000001,0.,0.));
#688=CARTESIAN_POINT('',(0.379000000000001,0.,-1.621));
#689=CARTESIAN_POINT('',(12.,0.,0.));
#690=CARTESIAN_POINT('',(11.0641152136436,0.,0.));
#691=CARTESIAN_POINT('',(11.0641152136436,0.,-1.621));
#692=CARTESIAN_POINT('',(11.0641152136436,0.,0.));
#693=CARTESIAN_POINT('',(12.,0.,0.));
#694=CARTESIAN_POINT('',(28.,0.,0.));
#695=CARTESIAN_POINT('',(28.9358847863564,0.,0.));
#696=CARTESIAN_POINT('',(28.9358847863564,0.,-1.621));
#697=CARTESIAN_POINT('',(28.,0.,0.));
#698=CARTESIAN_POINT('',(40.,0.,0.));
#699=CARTESIAN_POINT('',(39.621,0.,0.));
#700=CARTESIAN_POINT('',(39.621,0.,-1.621));
#701=CARTESIAN_POINT('',(39.621,0.,0.));
#702=MECHANICAL_DESIGN_GEOMETRIC_PRESENTATION_REPRESENTATION('',(#371),
#703);
#703=(
GEOMETRIC_REPRESENTATION_CONTEXT(3)
GLOBAL_UNCERTAINTY_ASSIGNED_CONTEXT((#704))
GLOBAL_UNIT_ASSIGNED_CONTEXT((#707,#706,#705))
REPRESENTATION_CONTEXT('ALSBF10-40-M4-N4','TOP_LEVEL_ASSEMBLY_PART')
);
#704=UNCERTAINTY_MEASURE_WITH_UNIT(LENGTH_MEASURE(0.005),#707,
'DISTANCE_ACCURACY_VALUE','Maximum Tolerance applied to model');
#705=(
NAMED_UNIT(*)
SI_UNIT($,.STERADIAN.)
SOLID_ANGLE_UNIT()
);
#706=(
NAMED_UNIT(*)
PLANE_ANGLE_UNIT()
SI_UNIT($,.RADIAN.)
);
#707=(
LENGTH_UNIT()
NAMED_UNIT(*)
SI_UNIT(.MILLI.,.METRE.)
);
#708=PRODUCT_DEFINITION_SHAPE('','',#709);
#709=PRODUCT_DEFINITION('','',#711,#710);
#710=DESIGN_CONTEXT('',#717,'design');
#711=PRODUCT_DEFINITION_FORMATION_WITH_SPECIFIED_SOURCE('','',#713,
 .NOT_KNOWN.);
#712=PRODUCT_RELATED_PRODUCT_CATEGORY('','',(#713));
#713=PRODUCT('ALSBF10-40-M4-N4','ALSBF10-40-M4-N4','ALSBF10-40-M4-N4',(#715));
#714=PRODUCT_CATEGORY('','');
#715=MECHANICAL_CONTEXT('',#717,'mechanical');
#716=APPLICATION_PROTOCOL_DEFINITION('international standard',
'config_control_design',2010,#717);
#717=APPLICATION_CONTEXT(
'configuration controlled 3D designs of mechanical parts and assemblie
s');
ENDSEC;
END-ISO-10303-21;
