ISO-10303-21;
HEADER;
/* Generated by software containing ST-Developer
 * from STEP Tools, Inc. (www.steptools.com) 
 */
/* OPTION: using custom renumber hook */

FILE_DESCRIPTION(
/* description */ ('STEP AP203'),
/* implementation_level */ '2;1');

FILE_NAME(
/* name */ 'HBL135TD5',
/* time_stamp */ '2025-08-13T13:24:15+02:00',
/* author */ ('License CC BY-ND 4.0'),
/* organization */ ('CADENAS'),
/* preprocessor_version */ 'ST-DEVELOPER v19.3',
/* originating_system */ 'PARTsolutions',
/* authorisation */ '  ');

FILE_SCHEMA (('CONFIG_CONTROL_DESIGN'));
ENDSEC;

DATA;
#10=PROPERTY_DEFINITION_REPRESENTATION(#14,#12);
#11=PROPERTY_DEFINITION_REPRESENTATION(#15,#13);
#12=REPRESENTATION('',(#16),#1331);
#13=REPRESENTATION('',(#17),#1331);
#14=PROPERTY_DEFINITION('pmi validation property','',#1338);
#15=PROPERTY_DEFINITION('pmi validation property','',#1338);
#16=VALUE_REPRESENTATION_ITEM('number of annotations',COUNT_MEASURE(0.));
#17=VALUE_REPRESENTATION_ITEM('number of views',COUNT_MEASURE(0.));
#18=CONTEXT_DEPENDENT_SHAPE_REPRESENTATION(#20,#1340);
#19=NEXT_ASSEMBLY_USAGE_OCCURRENCE('NAUO1','HBL135TD5_b','HBL135TD5_b',
#1341,#1342,'');
#20=(
REPRESENTATION_RELATIONSHIP(' ',' ',#791,#790)
REPRESENTATION_RELATIONSHIP_WITH_TRANSFORMATION(#21)
SHAPE_REPRESENTATION_RELATIONSHIP()
);
#21=ITEM_DEFINED_TRANSFORMATION(' ',' ',#792,#876);
#22=SHAPE_REPRESENTATION_RELATIONSHIP('','',#791,#23);
#23=ADVANCED_BREP_SHAPE_REPRESENTATION('',(#787),#1332);
#24=CIRCLE('',#795,1.00000000000001);
#25=CIRCLE('',#796,1.00000000000001);
#26=CIRCLE('',#798,2.75);
#27=CIRCLE('',#799,2.75);
#28=CIRCLE('',#801,5.);
#29=CIRCLE('',#802,5.);
#30=CIRCLE('',#804,2.75);
#31=CIRCLE('',#805,2.75);
#32=CIRCLE('',#807,0.999999999999987);
#33=CIRCLE('',#808,0.999999999999987);
#34=CIRCLE('',#811,1.00000000000001);
#35=CIRCLE('',#812,1.00000000000001);
#36=CIRCLE('',#814,2.75);
#37=CIRCLE('',#815,2.75);
#38=CIRCLE('',#818,2.75);
#39=CIRCLE('',#819,2.75);
#40=CIRCLE('',#822,2.);
#41=CIRCLE('',#823,2.);
#42=CIRCLE('',#826,1.5);
#43=CIRCLE('',#827,1.5);
#44=CIRCLE('',#830,1.5);
#45=CIRCLE('',#831,1.5);
#46=CIRCLE('',#833,5.10000000000048);
#47=CIRCLE('',#834,5.10000000000048);
#48=CIRCLE('',#836,1.50000000000001);
#49=CIRCLE('',#837,1.50000000000001);
#50=CIRCLE('',#841,1.5);
#51=CIRCLE('',#842,1.5);
#52=CIRCLE('',#845,1.5);
#53=CIRCLE('',#846,1.5);
#54=CIRCLE('',#848,5.1);
#55=CIRCLE('',#849,5.1);
#56=CIRCLE('',#851,1.5);
#57=CIRCLE('',#852,1.5);
#58=CIRCLE('',#855,1.5);
#59=CIRCLE('',#856,1.5);
#60=CIRCLE('',#859,1.5);
#61=CIRCLE('',#860,1.5);
#62=CIRCLE('',#862,2.1);
#63=CIRCLE('',#863,2.1);
#64=CIRCLE('',#865,2.);
#65=CIRCLE('',#866,2.);
#66=CIRCLE('',#868,0.99999999999999);
#67=CIRCLE('',#869,0.99999999999999);
#68=CYLINDRICAL_SURFACE('',#794,1.00000000000001);
#69=CYLINDRICAL_SURFACE('',#800,5.);
#70=CYLINDRICAL_SURFACE('',#806,0.999999999999987);
#71=CYLINDRICAL_SURFACE('',#810,1.00000000000001);
#72=CYLINDRICAL_SURFACE('',#821,2.);
#73=CYLINDRICAL_SURFACE('',#825,1.5);
#74=CYLINDRICAL_SURFACE('',#829,1.5);
#75=CYLINDRICAL_SURFACE('',#832,5.10000000000048);
#76=CYLINDRICAL_SURFACE('',#835,1.50000000000001);
#77=CYLINDRICAL_SURFACE('',#840,1.5);
#78=CYLINDRICAL_SURFACE('',#844,1.5);
#79=CYLINDRICAL_SURFACE('',#847,5.1);
#80=CYLINDRICAL_SURFACE('',#850,1.5);
#81=CYLINDRICAL_SURFACE('',#854,1.5);
#82=CYLINDRICAL_SURFACE('',#858,1.5);
#83=CYLINDRICAL_SURFACE('',#861,2.1);
#84=CYLINDRICAL_SURFACE('',#864,2.);
#85=CYLINDRICAL_SURFACE('',#867,0.99999999999999);
#86=CYLINDRICAL_SURFACE('',#872,2.75);
#87=CYLINDRICAL_SURFACE('',#873,2.75);
#88=CYLINDRICAL_SURFACE('',#874,2.75);
#89=CYLINDRICAL_SURFACE('',#875,2.75);
#90=ORIENTED_EDGE('',*,*,#302,.T.);
#91=ORIENTED_EDGE('',*,*,#303,.F.);
#92=ORIENTED_EDGE('',*,*,#304,.F.);
#93=ORIENTED_EDGE('',*,*,#305,.T.);
#94=ORIENTED_EDGE('',*,*,#306,.T.);
#95=ORIENTED_EDGE('',*,*,#307,.F.);
#96=ORIENTED_EDGE('',*,*,#308,.F.);
#97=ORIENTED_EDGE('',*,*,#303,.T.);
#98=ORIENTED_EDGE('',*,*,#309,.T.);
#99=ORIENTED_EDGE('',*,*,#310,.T.);
#100=ORIENTED_EDGE('',*,*,#311,.T.);
#101=ORIENTED_EDGE('',*,*,#312,.F.);
#102=ORIENTED_EDGE('',*,*,#313,.F.);
#103=ORIENTED_EDGE('',*,*,#307,.T.);
#104=ORIENTED_EDGE('',*,*,#314,.T.);
#105=ORIENTED_EDGE('',*,*,#315,.F.);
#106=ORIENTED_EDGE('',*,*,#316,.F.);
#107=ORIENTED_EDGE('',*,*,#312,.T.);
#108=ORIENTED_EDGE('',*,*,#317,.F.);
#109=ORIENTED_EDGE('',*,*,#318,.F.);
#110=ORIENTED_EDGE('',*,*,#319,.T.);
#111=ORIENTED_EDGE('',*,*,#320,.F.);
#112=ORIENTED_EDGE('',*,*,#321,.F.);
#113=ORIENTED_EDGE('',*,*,#315,.T.);
#114=ORIENTED_EDGE('',*,*,#322,.T.);
#115=ORIENTED_EDGE('',*,*,#323,.F.);
#116=ORIENTED_EDGE('',*,*,#324,.F.);
#117=ORIENTED_EDGE('',*,*,#320,.T.);
#118=ORIENTED_EDGE('',*,*,#325,.T.);
#119=ORIENTED_EDGE('',*,*,#326,.F.);
#120=ORIENTED_EDGE('',*,*,#327,.F.);
#121=ORIENTED_EDGE('',*,*,#323,.T.);
#122=ORIENTED_EDGE('',*,*,#328,.T.);
#123=ORIENTED_EDGE('',*,*,#329,.F.);
#124=ORIENTED_EDGE('',*,*,#330,.F.);
#125=ORIENTED_EDGE('',*,*,#326,.T.);
#126=ORIENTED_EDGE('',*,*,#331,.T.);
#127=ORIENTED_EDGE('',*,*,#332,.T.);
#128=ORIENTED_EDGE('',*,*,#333,.T.);
#129=ORIENTED_EDGE('',*,*,#334,.F.);
#130=ORIENTED_EDGE('',*,*,#335,.F.);
#131=ORIENTED_EDGE('',*,*,#329,.T.);
#132=ORIENTED_EDGE('',*,*,#336,.T.);
#133=ORIENTED_EDGE('',*,*,#337,.F.);
#134=ORIENTED_EDGE('',*,*,#338,.F.);
#135=ORIENTED_EDGE('',*,*,#334,.T.);
#136=ORIENTED_EDGE('',*,*,#339,.F.);
#137=ORIENTED_EDGE('',*,*,#340,.F.);
#138=ORIENTED_EDGE('',*,*,#341,.T.);
#139=ORIENTED_EDGE('',*,*,#342,.F.);
#140=ORIENTED_EDGE('',*,*,#343,.F.);
#141=ORIENTED_EDGE('',*,*,#337,.T.);
#142=ORIENTED_EDGE('',*,*,#344,.F.);
#143=ORIENTED_EDGE('',*,*,#345,.F.);
#144=ORIENTED_EDGE('',*,*,#346,.T.);
#145=ORIENTED_EDGE('',*,*,#347,.T.);
#146=ORIENTED_EDGE('',*,*,#348,.F.);
#147=ORIENTED_EDGE('',*,*,#349,.F.);
#148=ORIENTED_EDGE('',*,*,#350,.T.);
#149=ORIENTED_EDGE('',*,*,#345,.T.);
#150=ORIENTED_EDGE('',*,*,#351,.F.);
#151=ORIENTED_EDGE('',*,*,#352,.F.);
#152=ORIENTED_EDGE('',*,*,#353,.T.);
#153=ORIENTED_EDGE('',*,*,#349,.T.);
#154=ORIENTED_EDGE('',*,*,#354,.F.);
#155=ORIENTED_EDGE('',*,*,#355,.F.);
#156=ORIENTED_EDGE('',*,*,#356,.T.);
#157=ORIENTED_EDGE('',*,*,#352,.T.);
#158=ORIENTED_EDGE('',*,*,#357,.F.);
#159=ORIENTED_EDGE('',*,*,#358,.F.);
#160=ORIENTED_EDGE('',*,*,#359,.T.);
#161=ORIENTED_EDGE('',*,*,#355,.T.);
#162=ORIENTED_EDGE('',*,*,#360,.F.);
#163=ORIENTED_EDGE('',*,*,#361,.F.);
#164=ORIENTED_EDGE('',*,*,#362,.T.);
#165=ORIENTED_EDGE('',*,*,#358,.T.);
#166=ORIENTED_EDGE('',*,*,#363,.T.);
#167=ORIENTED_EDGE('',*,*,#364,.F.);
#168=ORIENTED_EDGE('',*,*,#365,.F.);
#169=ORIENTED_EDGE('',*,*,#361,.T.);
#170=ORIENTED_EDGE('',*,*,#366,.F.);
#171=ORIENTED_EDGE('',*,*,#367,.F.);
#172=ORIENTED_EDGE('',*,*,#368,.T.);
#173=ORIENTED_EDGE('',*,*,#364,.T.);
#174=ORIENTED_EDGE('',*,*,#369,.F.);
#175=ORIENTED_EDGE('',*,*,#370,.F.);
#176=ORIENTED_EDGE('',*,*,#371,.T.);
#177=ORIENTED_EDGE('',*,*,#367,.T.);
#178=ORIENTED_EDGE('',*,*,#372,.F.);
#179=ORIENTED_EDGE('',*,*,#373,.F.);
#180=ORIENTED_EDGE('',*,*,#374,.T.);
#181=ORIENTED_EDGE('',*,*,#375,.T.);
#182=ORIENTED_EDGE('',*,*,#376,.F.);
#183=ORIENTED_EDGE('',*,*,#377,.F.);
#184=ORIENTED_EDGE('',*,*,#378,.T.);
#185=ORIENTED_EDGE('',*,*,#373,.T.);
#186=ORIENTED_EDGE('',*,*,#379,.F.);
#187=ORIENTED_EDGE('',*,*,#380,.F.);
#188=ORIENTED_EDGE('',*,*,#381,.T.);
#189=ORIENTED_EDGE('',*,*,#377,.T.);
#190=ORIENTED_EDGE('',*,*,#382,.F.);
#191=ORIENTED_EDGE('',*,*,#383,.F.);
#192=ORIENTED_EDGE('',*,*,#384,.T.);
#193=ORIENTED_EDGE('',*,*,#380,.T.);
#194=ORIENTED_EDGE('',*,*,#385,.T.);
#195=ORIENTED_EDGE('',*,*,#386,.F.);
#196=ORIENTED_EDGE('',*,*,#387,.F.);
#197=ORIENTED_EDGE('',*,*,#383,.T.);
#198=ORIENTED_EDGE('',*,*,#388,.F.);
#199=ORIENTED_EDGE('',*,*,#389,.F.);
#200=ORIENTED_EDGE('',*,*,#390,.T.);
#201=ORIENTED_EDGE('',*,*,#386,.T.);
#202=ORIENTED_EDGE('',*,*,#391,.F.);
#203=ORIENTED_EDGE('',*,*,#392,.F.);
#204=ORIENTED_EDGE('',*,*,#393,.T.);
#205=ORIENTED_EDGE('',*,*,#389,.T.);
#206=ORIENTED_EDGE('',*,*,#394,.F.);
#207=ORIENTED_EDGE('',*,*,#395,.F.);
#208=ORIENTED_EDGE('',*,*,#396,.T.);
#209=ORIENTED_EDGE('',*,*,#392,.T.);
#210=ORIENTED_EDGE('',*,*,#397,.F.);
#211=ORIENTED_EDGE('',*,*,#398,.F.);
#212=ORIENTED_EDGE('',*,*,#399,.T.);
#213=ORIENTED_EDGE('',*,*,#395,.T.);
#214=ORIENTED_EDGE('',*,*,#400,.F.);
#215=ORIENTED_EDGE('',*,*,#347,.F.);
#216=ORIENTED_EDGE('',*,*,#401,.T.);
#217=ORIENTED_EDGE('',*,*,#370,.T.);
#218=ORIENTED_EDGE('',*,*,#402,.T.);
#219=ORIENTED_EDGE('',*,*,#403,.F.);
#220=ORIENTED_EDGE('',*,*,#404,.F.);
#221=ORIENTED_EDGE('',*,*,#375,.F.);
#222=ORIENTED_EDGE('',*,*,#405,.T.);
#223=ORIENTED_EDGE('',*,*,#398,.T.);
#224=ORIENTED_EDGE('',*,*,#406,.T.);
#225=ORIENTED_EDGE('',*,*,#305,.F.);
#226=ORIENTED_EDGE('',*,*,#407,.F.);
#227=ORIENTED_EDGE('',*,*,#342,.T.);
#228=ORIENTED_EDGE('',*,*,#374,.F.);
#229=ORIENTED_EDGE('',*,*,#378,.F.);
#230=ORIENTED_EDGE('',*,*,#381,.F.);
#231=ORIENTED_EDGE('',*,*,#384,.F.);
#232=ORIENTED_EDGE('',*,*,#387,.T.);
#233=ORIENTED_EDGE('',*,*,#390,.F.);
#234=ORIENTED_EDGE('',*,*,#393,.F.);
#235=ORIENTED_EDGE('',*,*,#396,.F.);
#236=ORIENTED_EDGE('',*,*,#399,.F.);
#237=ORIENTED_EDGE('',*,*,#405,.F.);
#238=ORIENTED_EDGE('',*,*,#402,.F.);
#239=ORIENTED_EDGE('',*,*,#346,.F.);
#240=ORIENTED_EDGE('',*,*,#350,.F.);
#241=ORIENTED_EDGE('',*,*,#353,.F.);
#242=ORIENTED_EDGE('',*,*,#356,.F.);
#243=ORIENTED_EDGE('',*,*,#359,.F.);
#244=ORIENTED_EDGE('',*,*,#362,.F.);
#245=ORIENTED_EDGE('',*,*,#365,.T.);
#246=ORIENTED_EDGE('',*,*,#368,.F.);
#247=ORIENTED_EDGE('',*,*,#371,.F.);
#248=ORIENTED_EDGE('',*,*,#401,.F.);
#249=ORIENTED_EDGE('',*,*,#304,.T.);
#250=ORIENTED_EDGE('',*,*,#308,.T.);
#251=ORIENTED_EDGE('',*,*,#313,.T.);
#252=ORIENTED_EDGE('',*,*,#316,.T.);
#253=ORIENTED_EDGE('',*,*,#321,.T.);
#254=ORIENTED_EDGE('',*,*,#324,.T.);
#255=ORIENTED_EDGE('',*,*,#327,.T.);
#256=ORIENTED_EDGE('',*,*,#330,.T.);
#257=ORIENTED_EDGE('',*,*,#335,.T.);
#258=ORIENTED_EDGE('',*,*,#338,.T.);
#259=ORIENTED_EDGE('',*,*,#343,.T.);
#260=ORIENTED_EDGE('',*,*,#407,.T.);
#261=ORIENTED_EDGE('',*,*,#372,.T.);
#262=ORIENTED_EDGE('',*,*,#404,.T.);
#263=ORIENTED_EDGE('',*,*,#397,.T.);
#264=ORIENTED_EDGE('',*,*,#394,.T.);
#265=ORIENTED_EDGE('',*,*,#391,.T.);
#266=ORIENTED_EDGE('',*,*,#388,.T.);
#267=ORIENTED_EDGE('',*,*,#385,.F.);
#268=ORIENTED_EDGE('',*,*,#382,.T.);
#269=ORIENTED_EDGE('',*,*,#379,.T.);
#270=ORIENTED_EDGE('',*,*,#376,.T.);
#271=ORIENTED_EDGE('',*,*,#403,.T.);
#272=ORIENTED_EDGE('',*,*,#344,.T.);
#273=ORIENTED_EDGE('',*,*,#400,.T.);
#274=ORIENTED_EDGE('',*,*,#369,.T.);
#275=ORIENTED_EDGE('',*,*,#366,.T.);
#276=ORIENTED_EDGE('',*,*,#363,.F.);
#277=ORIENTED_EDGE('',*,*,#360,.T.);
#278=ORIENTED_EDGE('',*,*,#357,.T.);
#279=ORIENTED_EDGE('',*,*,#354,.T.);
#280=ORIENTED_EDGE('',*,*,#351,.T.);
#281=ORIENTED_EDGE('',*,*,#348,.T.);
#282=ORIENTED_EDGE('',*,*,#302,.F.);
#283=ORIENTED_EDGE('',*,*,#406,.F.);
#284=ORIENTED_EDGE('',*,*,#341,.F.);
#285=ORIENTED_EDGE('',*,*,#336,.F.);
#286=ORIENTED_EDGE('',*,*,#333,.F.);
#287=ORIENTED_EDGE('',*,*,#328,.F.);
#288=ORIENTED_EDGE('',*,*,#325,.F.);
#289=ORIENTED_EDGE('',*,*,#322,.F.);
#290=ORIENTED_EDGE('',*,*,#319,.F.);
#291=ORIENTED_EDGE('',*,*,#314,.F.);
#292=ORIENTED_EDGE('',*,*,#311,.F.);
#293=ORIENTED_EDGE('',*,*,#306,.F.);
#294=ORIENTED_EDGE('',*,*,#340,.T.);
#295=ORIENTED_EDGE('',*,*,#310,.F.);
#296=ORIENTED_EDGE('',*,*,#339,.T.);
#297=ORIENTED_EDGE('',*,*,#309,.F.);
#298=ORIENTED_EDGE('',*,*,#318,.T.);
#299=ORIENTED_EDGE('',*,*,#332,.F.);
#300=ORIENTED_EDGE('',*,*,#317,.T.);
#301=ORIENTED_EDGE('',*,*,#331,.F.);
#302=EDGE_CURVE('',#408,#409,#482,.T.);
#303=EDGE_CURVE('',#410,#409,#483,.T.);
#304=EDGE_CURVE('',#411,#410,#484,.T.);
#305=EDGE_CURVE('',#411,#408,#485,.T.);
#306=EDGE_CURVE('',#409,#412,#24,.T.);
#307=EDGE_CURVE('',#413,#412,#486,.T.);
#308=EDGE_CURVE('',#410,#413,#25,.T.);
#309=EDGE_CURVE('',#414,#414,#26,.T.);
#310=EDGE_CURVE('',#415,#415,#27,.T.);
#311=EDGE_CURVE('',#412,#416,#487,.T.);
#312=EDGE_CURVE('',#417,#416,#488,.T.);
#313=EDGE_CURVE('',#413,#417,#489,.T.);
#314=EDGE_CURVE('',#416,#418,#28,.T.);
#315=EDGE_CURVE('',#419,#418,#490,.T.);
#316=EDGE_CURVE('',#417,#419,#29,.T.);
#317=EDGE_CURVE('',#420,#420,#30,.T.);
#318=EDGE_CURVE('',#421,#421,#31,.T.);
#319=EDGE_CURVE('',#418,#422,#491,.T.);
#320=EDGE_CURVE('',#423,#422,#492,.T.);
#321=EDGE_CURVE('',#419,#423,#493,.T.);
#322=EDGE_CURVE('',#422,#424,#32,.T.);
#323=EDGE_CURVE('',#425,#424,#494,.T.);
#324=EDGE_CURVE('',#423,#425,#33,.T.);
#325=EDGE_CURVE('',#424,#426,#495,.T.);
#326=EDGE_CURVE('',#427,#426,#496,.T.);
#327=EDGE_CURVE('',#425,#427,#497,.T.);
#328=EDGE_CURVE('',#426,#428,#34,.T.);
#329=EDGE_CURVE('',#429,#428,#498,.T.);
#330=EDGE_CURVE('',#427,#429,#35,.T.);
#331=EDGE_CURVE('',#430,#430,#36,.T.);
#332=EDGE_CURVE('',#431,#431,#37,.T.);
#333=EDGE_CURVE('',#428,#432,#499,.T.);
#334=EDGE_CURVE('',#433,#432,#500,.T.);
#335=EDGE_CURVE('',#429,#433,#501,.T.);
#336=EDGE_CURVE('',#432,#434,#502,.T.);
#337=EDGE_CURVE('',#435,#434,#503,.T.);
#338=EDGE_CURVE('',#433,#435,#504,.T.);
#339=EDGE_CURVE('',#436,#436,#38,.T.);
#340=EDGE_CURVE('',#437,#437,#39,.T.);
#341=EDGE_CURVE('',#434,#438,#505,.T.);
#342=EDGE_CURVE('',#439,#438,#506,.T.);
#343=EDGE_CURVE('',#435,#439,#507,.T.);
#344=EDGE_CURVE('',#440,#441,#508,.T.);
#345=EDGE_CURVE('',#442,#440,#509,.T.);
#346=EDGE_CURVE('',#442,#443,#510,.T.);
#347=EDGE_CURVE('',#443,#441,#511,.T.);
#348=EDGE_CURVE('',#444,#440,#40,.T.);
#349=EDGE_CURVE('',#445,#444,#512,.T.);
#350=EDGE_CURVE('',#445,#442,#41,.T.);
#351=EDGE_CURVE('',#446,#444,#513,.T.);
#352=EDGE_CURVE('',#447,#446,#514,.T.);
#353=EDGE_CURVE('',#447,#445,#515,.T.);
#354=EDGE_CURVE('',#448,#446,#42,.T.);
#355=EDGE_CURVE('',#449,#448,#516,.T.);
#356=EDGE_CURVE('',#449,#447,#43,.T.);
#357=EDGE_CURVE('',#450,#448,#517,.T.);
#358=EDGE_CURVE('',#451,#450,#518,.T.);
#359=EDGE_CURVE('',#451,#449,#519,.T.);
#360=EDGE_CURVE('',#452,#450,#44,.T.);
#361=EDGE_CURVE('',#453,#452,#520,.T.);
#362=EDGE_CURVE('',#453,#451,#45,.T.);
#363=EDGE_CURVE('',#452,#454,#46,.T.);
#364=EDGE_CURVE('',#455,#454,#521,.T.);
#365=EDGE_CURVE('',#453,#455,#47,.T.);
#366=EDGE_CURVE('',#456,#454,#48,.T.);
#367=EDGE_CURVE('',#457,#456,#522,.T.);
#368=EDGE_CURVE('',#457,#455,#49,.T.);
#369=EDGE_CURVE('',#458,#456,#523,.T.);
#370=EDGE_CURVE('',#459,#458,#524,.T.);
#371=EDGE_CURVE('',#459,#457,#525,.T.);
#372=EDGE_CURVE('',#460,#461,#526,.T.);
#373=EDGE_CURVE('',#462,#460,#527,.T.);
#374=EDGE_CURVE('',#462,#463,#528,.T.);
#375=EDGE_CURVE('',#463,#461,#529,.T.);
#376=EDGE_CURVE('',#464,#460,#50,.T.);
#377=EDGE_CURVE('',#465,#464,#530,.T.);
#378=EDGE_CURVE('',#465,#462,#51,.T.);
#379=EDGE_CURVE('',#466,#464,#531,.T.);
#380=EDGE_CURVE('',#467,#466,#532,.T.);
#381=EDGE_CURVE('',#467,#465,#533,.T.);
#382=EDGE_CURVE('',#468,#466,#52,.T.);
#383=EDGE_CURVE('',#469,#468,#534,.T.);
#384=EDGE_CURVE('',#469,#467,#53,.T.);
#385=EDGE_CURVE('',#468,#470,#54,.T.);
#386=EDGE_CURVE('',#471,#470,#535,.T.);
#387=EDGE_CURVE('',#469,#471,#55,.T.);
#388=EDGE_CURVE('',#472,#470,#56,.T.);
#389=EDGE_CURVE('',#473,#472,#536,.T.);
#390=EDGE_CURVE('',#473,#471,#57,.T.);
#391=EDGE_CURVE('',#474,#472,#537,.T.);
#392=EDGE_CURVE('',#475,#474,#538,.T.);
#393=EDGE_CURVE('',#475,#473,#539,.T.);
#394=EDGE_CURVE('',#476,#474,#58,.T.);
#395=EDGE_CURVE('',#477,#476,#540,.T.);
#396=EDGE_CURVE('',#477,#475,#59,.T.);
#397=EDGE_CURVE('',#478,#476,#541,.T.);
#398=EDGE_CURVE('',#479,#478,#542,.T.);
#399=EDGE_CURVE('',#479,#477,#543,.T.);
#400=EDGE_CURVE('',#441,#458,#60,.T.);
#401=EDGE_CURVE('',#443,#459,#61,.T.);
#402=EDGE_CURVE('',#480,#480,#62,.T.);
#403=EDGE_CURVE('',#481,#481,#63,.T.);
#404=EDGE_CURVE('',#461,#478,#64,.T.);
#405=EDGE_CURVE('',#463,#479,#65,.T.);
#406=EDGE_CURVE('',#438,#408,#66,.T.);
#407=EDGE_CURVE('',#439,#411,#67,.T.);
#408=VERTEX_POINT('',#1112);
#409=VERTEX_POINT('',#1113);
#410=VERTEX_POINT('',#1115);
#411=VERTEX_POINT('',#1117);
#412=VERTEX_POINT('',#1121);
#413=VERTEX_POINT('',#1123);
#414=VERTEX_POINT('',#1127);
#415=VERTEX_POINT('',#1129);
#416=VERTEX_POINT('',#1131);
#417=VERTEX_POINT('',#1133);
#418=VERTEX_POINT('',#1137);
#419=VERTEX_POINT('',#1139);
#420=VERTEX_POINT('',#1143);
#421=VERTEX_POINT('',#1145);
#422=VERTEX_POINT('',#1147);
#423=VERTEX_POINT('',#1149);
#424=VERTEX_POINT('',#1153);
#425=VERTEX_POINT('',#1155);
#426=VERTEX_POINT('',#1159);
#427=VERTEX_POINT('',#1161);
#428=VERTEX_POINT('',#1165);
#429=VERTEX_POINT('',#1167);
#430=VERTEX_POINT('',#1171);
#431=VERTEX_POINT('',#1173);
#432=VERTEX_POINT('',#1175);
#433=VERTEX_POINT('',#1177);
#434=VERTEX_POINT('',#1181);
#435=VERTEX_POINT('',#1183);
#436=VERTEX_POINT('',#1187);
#437=VERTEX_POINT('',#1189);
#438=VERTEX_POINT('',#1191);
#439=VERTEX_POINT('',#1193);
#440=VERTEX_POINT('',#1197);
#441=VERTEX_POINT('',#1198);
#442=VERTEX_POINT('',#1200);
#443=VERTEX_POINT('',#1202);
#444=VERTEX_POINT('',#1206);
#445=VERTEX_POINT('',#1208);
#446=VERTEX_POINT('',#1212);
#447=VERTEX_POINT('',#1214);
#448=VERTEX_POINT('',#1218);
#449=VERTEX_POINT('',#1220);
#450=VERTEX_POINT('',#1224);
#451=VERTEX_POINT('',#1226);
#452=VERTEX_POINT('',#1230);
#453=VERTEX_POINT('',#1232);
#454=VERTEX_POINT('',#1236);
#455=VERTEX_POINT('',#1238);
#456=VERTEX_POINT('',#1242);
#457=VERTEX_POINT('',#1244);
#458=VERTEX_POINT('',#1248);
#459=VERTEX_POINT('',#1250);
#460=VERTEX_POINT('',#1254);
#461=VERTEX_POINT('',#1255);
#462=VERTEX_POINT('',#1257);
#463=VERTEX_POINT('',#1259);
#464=VERTEX_POINT('',#1263);
#465=VERTEX_POINT('',#1265);
#466=VERTEX_POINT('',#1269);
#467=VERTEX_POINT('',#1271);
#468=VERTEX_POINT('',#1275);
#469=VERTEX_POINT('',#1277);
#470=VERTEX_POINT('',#1281);
#471=VERTEX_POINT('',#1283);
#472=VERTEX_POINT('',#1287);
#473=VERTEX_POINT('',#1289);
#474=VERTEX_POINT('',#1293);
#475=VERTEX_POINT('',#1295);
#476=VERTEX_POINT('',#1299);
#477=VERTEX_POINT('',#1301);
#478=VERTEX_POINT('',#1305);
#479=VERTEX_POINT('',#1307);
#480=VERTEX_POINT('',#1314);
#481=VERTEX_POINT('',#1316);
#482=LINE('',#1111,#544);
#483=LINE('',#1114,#545);
#484=LINE('',#1116,#546);
#485=LINE('',#1118,#547);
#486=LINE('',#1122,#548);
#487=LINE('',#1130,#549);
#488=LINE('',#1132,#550);
#489=LINE('',#1134,#551);
#490=LINE('',#1138,#552);
#491=LINE('',#1146,#553);
#492=LINE('',#1148,#554);
#493=LINE('',#1150,#555);
#494=LINE('',#1154,#556);
#495=LINE('',#1158,#557);
#496=LINE('',#1160,#558);
#497=LINE('',#1162,#559);
#498=LINE('',#1166,#560);
#499=LINE('',#1174,#561);
#500=LINE('',#1176,#562);
#501=LINE('',#1178,#563);
#502=LINE('',#1180,#564);
#503=LINE('',#1182,#565);
#504=LINE('',#1184,#566);
#505=LINE('',#1190,#567);
#506=LINE('',#1192,#568);
#507=LINE('',#1194,#569);
#508=LINE('',#1196,#570);
#509=LINE('',#1199,#571);
#510=LINE('',#1201,#572);
#511=LINE('',#1203,#573);
#512=LINE('',#1207,#574);
#513=LINE('',#1211,#575);
#514=LINE('',#1213,#576);
#515=LINE('',#1215,#577);
#516=LINE('',#1219,#578);
#517=LINE('',#1223,#579);
#518=LINE('',#1225,#580);
#519=LINE('',#1227,#581);
#520=LINE('',#1231,#582);
#521=LINE('',#1237,#583);
#522=LINE('',#1243,#584);
#523=LINE('',#1247,#585);
#524=LINE('',#1249,#586);
#525=LINE('',#1251,#587);
#526=LINE('',#1253,#588);
#527=LINE('',#1256,#589);
#528=LINE('',#1258,#590);
#529=LINE('',#1260,#591);
#530=LINE('',#1264,#592);
#531=LINE('',#1268,#593);
#532=LINE('',#1270,#594);
#533=LINE('',#1272,#595);
#534=LINE('',#1276,#596);
#535=LINE('',#1282,#597);
#536=LINE('',#1288,#598);
#537=LINE('',#1292,#599);
#538=LINE('',#1294,#600);
#539=LINE('',#1296,#601);
#540=LINE('',#1300,#602);
#541=LINE('',#1304,#603);
#542=LINE('',#1306,#604);
#543=LINE('',#1308,#605);
#544=VECTOR('',#881,1000.);
#545=VECTOR('',#882,1000.);
#546=VECTOR('',#883,1000.);
#547=VECTOR('',#884,1000.);
#548=VECTOR('',#889,1000.);
#549=VECTOR('',#898,1000.);
#550=VECTOR('',#899,1000.);
#551=VECTOR('',#900,1000.);
#552=VECTOR('',#905,1000.);
#553=VECTOR('',#914,1000.);
#554=VECTOR('',#915,1000.);
#555=VECTOR('',#916,1000.);
#556=VECTOR('',#921,1000.);
#557=VECTOR('',#926,1000.);
#558=VECTOR('',#927,1000.);
#559=VECTOR('',#928,1000.);
#560=VECTOR('',#933,1000.);
#561=VECTOR('',#942,1000.);
#562=VECTOR('',#943,1000.);
#563=VECTOR('',#944,1000.);
#564=VECTOR('',#947,1000.);
#565=VECTOR('',#948,1000.);
#566=VECTOR('',#949,1000.);
#567=VECTOR('',#956,1000.);
#568=VECTOR('',#957,1000.);
#569=VECTOR('',#958,1000.);
#570=VECTOR('',#961,1000.);
#571=VECTOR('',#962,1000.);
#572=VECTOR('',#963,1000.);
#573=VECTOR('',#964,1000.);
#574=VECTOR('',#969,1000.);
#575=VECTOR('',#974,1000.);
#576=VECTOR('',#975,1000.);
#577=VECTOR('',#976,1000.);
#578=VECTOR('',#981,1000.);
#579=VECTOR('',#986,1000.);
#580=VECTOR('',#987,1000.);
#581=VECTOR('',#988,1000.);
#582=VECTOR('',#993,1000.);
#583=VECTOR('',#1000,1000.);
#584=VECTOR('',#1007,1000.);
#585=VECTOR('',#1012,1000.);
#586=VECTOR('',#1013,1000.);
#587=VECTOR('',#1014,1000.);
#588=VECTOR('',#1017,1000.);
#589=VECTOR('',#1018,1000.);
#590=VECTOR('',#1019,1000.);
#591=VECTOR('',#1020,1000.);
#592=VECTOR('',#1025,1000.);
#593=VECTOR('',#1030,1000.);
#594=VECTOR('',#1031,1000.);
#595=VECTOR('',#1032,1000.);
#596=VECTOR('',#1037,1000.);
#597=VECTOR('',#1044,1000.);
#598=VECTOR('',#1051,1000.);
#599=VECTOR('',#1056,1000.);
#600=VECTOR('',#1057,1000.);
#601=VECTOR('',#1058,1000.);
#602=VECTOR('',#1063,1000.);
#603=VECTOR('',#1068,1000.);
#604=VECTOR('',#1069,1000.);
#605=VECTOR('',#1070,1000.);
#606=EDGE_LOOP('',(#90,#91,#92,#93));
#607=EDGE_LOOP('',(#94,#95,#96,#97));
#608=EDGE_LOOP('',(#98));
#609=EDGE_LOOP('',(#99));
#610=EDGE_LOOP('',(#100,#101,#102,#103));
#611=EDGE_LOOP('',(#104,#105,#106,#107));
#612=EDGE_LOOP('',(#108));
#613=EDGE_LOOP('',(#109));
#614=EDGE_LOOP('',(#110,#111,#112,#113));
#615=EDGE_LOOP('',(#114,#115,#116,#117));
#616=EDGE_LOOP('',(#118,#119,#120,#121));
#617=EDGE_LOOP('',(#122,#123,#124,#125));
#618=EDGE_LOOP('',(#126));
#619=EDGE_LOOP('',(#127));
#620=EDGE_LOOP('',(#128,#129,#130,#131));
#621=EDGE_LOOP('',(#132,#133,#134,#135));
#622=EDGE_LOOP('',(#136));
#623=EDGE_LOOP('',(#137));
#624=EDGE_LOOP('',(#138,#139,#140,#141));
#625=EDGE_LOOP('',(#142,#143,#144,#145));
#626=EDGE_LOOP('',(#146,#147,#148,#149));
#627=EDGE_LOOP('',(#150,#151,#152,#153));
#628=EDGE_LOOP('',(#154,#155,#156,#157));
#629=EDGE_LOOP('',(#158,#159,#160,#161));
#630=EDGE_LOOP('',(#162,#163,#164,#165));
#631=EDGE_LOOP('',(#166,#167,#168,#169));
#632=EDGE_LOOP('',(#170,#171,#172,#173));
#633=EDGE_LOOP('',(#174,#175,#176,#177));
#634=EDGE_LOOP('',(#178,#179,#180,#181));
#635=EDGE_LOOP('',(#182,#183,#184,#185));
#636=EDGE_LOOP('',(#186,#187,#188,#189));
#637=EDGE_LOOP('',(#190,#191,#192,#193));
#638=EDGE_LOOP('',(#194,#195,#196,#197));
#639=EDGE_LOOP('',(#198,#199,#200,#201));
#640=EDGE_LOOP('',(#202,#203,#204,#205));
#641=EDGE_LOOP('',(#206,#207,#208,#209));
#642=EDGE_LOOP('',(#210,#211,#212,#213));
#643=EDGE_LOOP('',(#214,#215,#216,#217));
#644=EDGE_LOOP('',(#218));
#645=EDGE_LOOP('',(#219));
#646=EDGE_LOOP('',(#220,#221,#222,#223));
#647=EDGE_LOOP('',(#224,#225,#226,#227));
#648=EDGE_LOOP('',(#228,#229,#230,#231,#232,#233,#234,#235,#236,#237));
#649=EDGE_LOOP('',(#238));
#650=EDGE_LOOP('',(#239,#240,#241,#242,#243,#244,#245,#246,#247,#248));
#651=EDGE_LOOP('',(#249,#250,#251,#252,#253,#254,#255,#256,#257,#258,#259,
#260));
#652=EDGE_LOOP('',(#261,#262,#263,#264,#265,#266,#267,#268,#269,#270));
#653=EDGE_LOOP('',(#271));
#654=EDGE_LOOP('',(#272,#273,#274,#275,#276,#277,#278,#279,#280,#281));
#655=EDGE_LOOP('',(#282,#283,#284,#285,#286,#287,#288,#289,#290,#291,#292,
#293));
#656=EDGE_LOOP('',(#294));
#657=EDGE_LOOP('',(#295));
#658=EDGE_LOOP('',(#296));
#659=EDGE_LOOP('',(#297));
#660=EDGE_LOOP('',(#298));
#661=EDGE_LOOP('',(#299));
#662=EDGE_LOOP('',(#300));
#663=EDGE_LOOP('',(#301));
#664=FACE_BOUND('',#606,.T.);
#665=FACE_BOUND('',#607,.T.);
#666=FACE_BOUND('',#608,.T.);
#667=FACE_BOUND('',#609,.T.);
#668=FACE_BOUND('',#610,.T.);
#669=FACE_BOUND('',#611,.T.);
#670=FACE_BOUND('',#612,.T.);
#671=FACE_BOUND('',#613,.T.);
#672=FACE_BOUND('',#614,.T.);
#673=FACE_BOUND('',#615,.T.);
#674=FACE_BOUND('',#616,.T.);
#675=FACE_BOUND('',#617,.T.);
#676=FACE_BOUND('',#618,.T.);
#677=FACE_BOUND('',#619,.T.);
#678=FACE_BOUND('',#620,.T.);
#679=FACE_BOUND('',#621,.T.);
#680=FACE_BOUND('',#622,.T.);
#681=FACE_BOUND('',#623,.T.);
#682=FACE_BOUND('',#624,.T.);
#683=FACE_BOUND('',#625,.T.);
#684=FACE_BOUND('',#626,.T.);
#685=FACE_BOUND('',#627,.T.);
#686=FACE_BOUND('',#628,.T.);
#687=FACE_BOUND('',#629,.T.);
#688=FACE_BOUND('',#630,.T.);
#689=FACE_BOUND('',#631,.T.);
#690=FACE_BOUND('',#632,.T.);
#691=FACE_BOUND('',#633,.T.);
#692=FACE_BOUND('',#634,.T.);
#693=FACE_BOUND('',#635,.T.);
#694=FACE_BOUND('',#636,.T.);
#695=FACE_BOUND('',#637,.T.);
#696=FACE_BOUND('',#638,.T.);
#697=FACE_BOUND('',#639,.T.);
#698=FACE_BOUND('',#640,.T.);
#699=FACE_BOUND('',#641,.T.);
#700=FACE_BOUND('',#642,.T.);
#701=FACE_BOUND('',#643,.T.);
#702=FACE_BOUND('',#644,.T.);
#703=FACE_BOUND('',#645,.T.);
#704=FACE_BOUND('',#646,.T.);
#705=FACE_BOUND('',#647,.T.);
#706=FACE_BOUND('',#648,.T.);
#707=FACE_BOUND('',#649,.T.);
#708=FACE_BOUND('',#650,.T.);
#709=FACE_BOUND('',#651,.T.);
#710=FACE_BOUND('',#652,.T.);
#711=FACE_BOUND('',#653,.T.);
#712=FACE_BOUND('',#654,.T.);
#713=FACE_BOUND('',#655,.T.);
#714=FACE_BOUND('',#656,.T.);
#715=FACE_BOUND('',#657,.T.);
#716=FACE_BOUND('',#658,.T.);
#717=FACE_BOUND('',#659,.T.);
#718=FACE_BOUND('',#660,.T.);
#719=FACE_BOUND('',#661,.T.);
#720=FACE_BOUND('',#662,.T.);
#721=FACE_BOUND('',#663,.T.);
#722=PLANE('',#793);
#723=PLANE('',#797);
#724=PLANE('',#803);
#725=PLANE('',#809);
#726=PLANE('',#813);
#727=PLANE('',#816);
#728=PLANE('',#817);
#729=PLANE('',#820);
#730=PLANE('',#824);
#731=PLANE('',#828);
#732=PLANE('',#838);
#733=PLANE('',#839);
#734=PLANE('',#843);
#735=PLANE('',#853);
#736=PLANE('',#857);
#737=PLANE('',#870);
#738=PLANE('',#871);
#739=ADVANCED_FACE('',(#664),#722,.F.);
#740=ADVANCED_FACE('',(#665),#68,.T.);
#741=ADVANCED_FACE('',(#666,#667,#668),#723,.F.);
#742=ADVANCED_FACE('',(#669),#69,.T.);
#743=ADVANCED_FACE('',(#670,#671,#672),#724,.F.);
#744=ADVANCED_FACE('',(#673),#70,.T.);
#745=ADVANCED_FACE('',(#674),#725,.F.);
#746=ADVANCED_FACE('',(#675),#71,.T.);
#747=ADVANCED_FACE('',(#676,#677,#678),#726,.F.);
#748=ADVANCED_FACE('',(#679),#727,.F.);
#749=ADVANCED_FACE('',(#680,#681,#682),#728,.F.);
#750=ADVANCED_FACE('',(#683),#729,.T.);
#751=ADVANCED_FACE('',(#684),#72,.F.);
#752=ADVANCED_FACE('',(#685),#730,.T.);
#753=ADVANCED_FACE('',(#686),#73,.F.);
#754=ADVANCED_FACE('',(#687),#731,.T.);
#755=ADVANCED_FACE('',(#688),#74,.F.);
#756=ADVANCED_FACE('',(#689),#75,.T.);
#757=ADVANCED_FACE('',(#690),#76,.F.);
#758=ADVANCED_FACE('',(#691),#732,.T.);
#759=ADVANCED_FACE('',(#692),#733,.T.);
#760=ADVANCED_FACE('',(#693),#77,.F.);
#761=ADVANCED_FACE('',(#694),#734,.T.);
#762=ADVANCED_FACE('',(#695),#78,.F.);
#763=ADVANCED_FACE('',(#696),#79,.T.);
#764=ADVANCED_FACE('',(#697),#80,.F.);
#765=ADVANCED_FACE('',(#698),#735,.T.);
#766=ADVANCED_FACE('',(#699),#81,.F.);
#767=ADVANCED_FACE('',(#700),#736,.T.);
#768=ADVANCED_FACE('',(#701),#82,.F.);
#769=ADVANCED_FACE('',(#702,#703),#83,.F.);
#770=ADVANCED_FACE('',(#704),#84,.F.);
#771=ADVANCED_FACE('',(#705),#85,.T.);
#772=ADVANCED_FACE('',(#706,#707,#708,#709),#737,.T.);
#773=ADVANCED_FACE('',(#710,#711,#712,#713),#738,.F.);
#774=ADVANCED_FACE('',(#714,#715),#86,.F.);
#775=ADVANCED_FACE('',(#716,#717),#87,.F.);
#776=ADVANCED_FACE('',(#718,#719),#88,.F.);
#777=ADVANCED_FACE('',(#720,#721),#89,.F.);
#778=CLOSED_SHELL('',(#739,#740,#741,#742,#743,#744,#745,#746,#747,#748,
#749,#750,#751,#752,#753,#754,#755,#756,#757,#758,#759,#760,#761,#762,#763,
#764,#765,#766,#767,#768,#769,#770,#771,#772,#773,#774,#775,#776,#777));
#779=STYLED_ITEM('',(#780),#787);
#780=PRESENTATION_STYLE_ASSIGNMENT((#781));
#781=SURFACE_STYLE_USAGE(.BOTH.,#782);
#782=SURFACE_SIDE_STYLE('',(#783));
#783=SURFACE_STYLE_FILL_AREA(#784);
#784=FILL_AREA_STYLE('',(#785));
#785=FILL_AREA_STYLE_COLOUR('',#786);
#786=COLOUR_RGB('',0.689999997615814,0.689999997615814,0.689999997615814);
#787=MANIFOLD_SOLID_BREP('HBL135TD5_b',#778);
#788=SHAPE_DEFINITION_REPRESENTATION(#1338,#790);
#789=SHAPE_DEFINITION_REPRESENTATION(#1339,#791);
#790=SHAPE_REPRESENTATION('HBL135TD5',(#792,#876),#1331);
#791=SHAPE_REPRESENTATION('HBL135TD5_b',(#792),#1332);
#792=AXIS2_PLACEMENT_3D('',#1109,#877,#878);
#793=AXIS2_PLACEMENT_3D('',#1110,#879,#880);
#794=AXIS2_PLACEMENT_3D('',#1119,#885,#886);
#795=AXIS2_PLACEMENT_3D('',#1120,#887,#888);
#796=AXIS2_PLACEMENT_3D('',#1124,#890,#891);
#797=AXIS2_PLACEMENT_3D('',#1125,#892,#893);
#798=AXIS2_PLACEMENT_3D('',#1126,#894,#895);
#799=AXIS2_PLACEMENT_3D('',#1128,#896,#897);
#800=AXIS2_PLACEMENT_3D('',#1135,#901,#902);
#801=AXIS2_PLACEMENT_3D('',#1136,#903,#904);
#802=AXIS2_PLACEMENT_3D('',#1140,#906,#907);
#803=AXIS2_PLACEMENT_3D('',#1141,#908,#909);
#804=AXIS2_PLACEMENT_3D('',#1142,#910,#911);
#805=AXIS2_PLACEMENT_3D('',#1144,#912,#913);
#806=AXIS2_PLACEMENT_3D('',#1151,#917,#918);
#807=AXIS2_PLACEMENT_3D('',#1152,#919,#920);
#808=AXIS2_PLACEMENT_3D('',#1156,#922,#923);
#809=AXIS2_PLACEMENT_3D('',#1157,#924,#925);
#810=AXIS2_PLACEMENT_3D('',#1163,#929,#930);
#811=AXIS2_PLACEMENT_3D('',#1164,#931,#932);
#812=AXIS2_PLACEMENT_3D('',#1168,#934,#935);
#813=AXIS2_PLACEMENT_3D('',#1169,#936,#937);
#814=AXIS2_PLACEMENT_3D('',#1170,#938,#939);
#815=AXIS2_PLACEMENT_3D('',#1172,#940,#941);
#816=AXIS2_PLACEMENT_3D('',#1179,#945,#946);
#817=AXIS2_PLACEMENT_3D('',#1185,#950,#951);
#818=AXIS2_PLACEMENT_3D('',#1186,#952,#953);
#819=AXIS2_PLACEMENT_3D('',#1188,#954,#955);
#820=AXIS2_PLACEMENT_3D('',#1195,#959,#960);
#821=AXIS2_PLACEMENT_3D('',#1204,#965,#966);
#822=AXIS2_PLACEMENT_3D('',#1205,#967,#968);
#823=AXIS2_PLACEMENT_3D('',#1209,#970,#971);
#824=AXIS2_PLACEMENT_3D('',#1210,#972,#973);
#825=AXIS2_PLACEMENT_3D('',#1216,#977,#978);
#826=AXIS2_PLACEMENT_3D('',#1217,#979,#980);
#827=AXIS2_PLACEMENT_3D('',#1221,#982,#983);
#828=AXIS2_PLACEMENT_3D('',#1222,#984,#985);
#829=AXIS2_PLACEMENT_3D('',#1228,#989,#990);
#830=AXIS2_PLACEMENT_3D('',#1229,#991,#992);
#831=AXIS2_PLACEMENT_3D('',#1233,#994,#995);
#832=AXIS2_PLACEMENT_3D('',#1234,#996,#997);
#833=AXIS2_PLACEMENT_3D('',#1235,#998,#999);
#834=AXIS2_PLACEMENT_3D('',#1239,#1001,#1002);
#835=AXIS2_PLACEMENT_3D('',#1240,#1003,#1004);
#836=AXIS2_PLACEMENT_3D('',#1241,#1005,#1006);
#837=AXIS2_PLACEMENT_3D('',#1245,#1008,#1009);
#838=AXIS2_PLACEMENT_3D('',#1246,#1010,#1011);
#839=AXIS2_PLACEMENT_3D('',#1252,#1015,#1016);
#840=AXIS2_PLACEMENT_3D('',#1261,#1021,#1022);
#841=AXIS2_PLACEMENT_3D('',#1262,#1023,#1024);
#842=AXIS2_PLACEMENT_3D('',#1266,#1026,#1027);
#843=AXIS2_PLACEMENT_3D('',#1267,#1028,#1029);
#844=AXIS2_PLACEMENT_3D('',#1273,#1033,#1034);
#845=AXIS2_PLACEMENT_3D('',#1274,#1035,#1036);
#846=AXIS2_PLACEMENT_3D('',#1278,#1038,#1039);
#847=AXIS2_PLACEMENT_3D('',#1279,#1040,#1041);
#848=AXIS2_PLACEMENT_3D('',#1280,#1042,#1043);
#849=AXIS2_PLACEMENT_3D('',#1284,#1045,#1046);
#850=AXIS2_PLACEMENT_3D('',#1285,#1047,#1048);
#851=AXIS2_PLACEMENT_3D('',#1286,#1049,#1050);
#852=AXIS2_PLACEMENT_3D('',#1290,#1052,#1053);
#853=AXIS2_PLACEMENT_3D('',#1291,#1054,#1055);
#854=AXIS2_PLACEMENT_3D('',#1297,#1059,#1060);
#855=AXIS2_PLACEMENT_3D('',#1298,#1061,#1062);
#856=AXIS2_PLACEMENT_3D('',#1302,#1064,#1065);
#857=AXIS2_PLACEMENT_3D('',#1303,#1066,#1067);
#858=AXIS2_PLACEMENT_3D('',#1309,#1071,#1072);
#859=AXIS2_PLACEMENT_3D('',#1310,#1073,#1074);
#860=AXIS2_PLACEMENT_3D('',#1311,#1075,#1076);
#861=AXIS2_PLACEMENT_3D('',#1312,#1077,#1078);
#862=AXIS2_PLACEMENT_3D('',#1313,#1079,#1080);
#863=AXIS2_PLACEMENT_3D('',#1315,#1081,#1082);
#864=AXIS2_PLACEMENT_3D('',#1317,#1083,#1084);
#865=AXIS2_PLACEMENT_3D('',#1318,#1085,#1086);
#866=AXIS2_PLACEMENT_3D('',#1319,#1087,#1088);
#867=AXIS2_PLACEMENT_3D('',#1320,#1089,#1090);
#868=AXIS2_PLACEMENT_3D('',#1321,#1091,#1092);
#869=AXIS2_PLACEMENT_3D('',#1322,#1093,#1094);
#870=AXIS2_PLACEMENT_3D('',#1323,#1095,#1096);
#871=AXIS2_PLACEMENT_3D('',#1324,#1097,#1098);
#872=AXIS2_PLACEMENT_3D('',#1325,#1099,#1100);
#873=AXIS2_PLACEMENT_3D('',#1326,#1101,#1102);
#874=AXIS2_PLACEMENT_3D('',#1327,#1103,#1104);
#875=AXIS2_PLACEMENT_3D('',#1328,#1105,#1106);
#876=AXIS2_PLACEMENT_3D('',#1329,#1107,#1108);
#877=DIRECTION('',(0.,0.,1.));
#878=DIRECTION('',(1.,0.,0.));
#879=DIRECTION('',(0.,-1.78428700386186E-14,-1.));
#880=DIRECTION('',(0.,1.,-1.78428700386186E-14));
#881=DIRECTION('',(0.,-1.,1.78428700386186E-14));
#882=DIRECTION('',(-1.,0.,0.));
#883=DIRECTION('',(0.,-1.,1.78428700386186E-14));
#884=DIRECTION('',(-1.,0.,0.));
#885=DIRECTION('',(-1.,0.,0.));
#886=DIRECTION('',(0.,0.,1.));
#887=DIRECTION('',(1.,0.,0.));
#888=DIRECTION('',(0.,0.,-1.));
#889=DIRECTION('',(-1.,0.,0.));
#890=DIRECTION('',(1.,0.,0.));
#891=DIRECTION('',(0.,0.,-1.));
#892=DIRECTION('',(0.,1.,-1.01506105108586E-15));
#893=DIRECTION('',(0.,1.01506105108586E-15,1.));
#894=DIRECTION('',(0.,1.,0.));
#895=DIRECTION('',(1.,0.,0.));
#896=DIRECTION('',(0.,1.,0.));
#897=DIRECTION('',(1.,0.,0.));
#898=DIRECTION('',(0.,-1.01506105108586E-15,-1.));
#899=DIRECTION('',(-1.,0.,0.));
#900=DIRECTION('',(0.,-1.01506105108586E-15,-1.));
#901=DIRECTION('',(-1.,0.,0.));
#902=DIRECTION('',(0.,0.,1.));
#903=DIRECTION('',(1.,0.,0.));
#904=DIRECTION('',(0.,0.,-1.));
#905=DIRECTION('',(-1.,0.,0.));
#906=DIRECTION('',(1.,0.,0.));
#907=DIRECTION('',(0.,0.,-1.));
#908=DIRECTION('',(0.,0.707106781186548,0.707106781186548));
#909=DIRECTION('',(0.,-0.707106781186548,0.707106781186548));
#910=DIRECTION('',(0.,-0.707106781186548,-0.707106781186547));
#911=DIRECTION('',(0.,0.707106781186547,-0.707106781186548));
#912=DIRECTION('',(0.,-0.707106781186548,-0.707106781186547));
#913=DIRECTION('',(0.,0.707106781186547,-0.707106781186548));
#914=DIRECTION('',(0.,0.707106781186547,-0.707106781186547));
#915=DIRECTION('',(-1.,0.,0.));
#916=DIRECTION('',(0.,0.707106781186547,-0.707106781186547));
#917=DIRECTION('',(-1.,0.,0.));
#918=DIRECTION('',(0.,0.,1.));
#919=DIRECTION('',(1.,0.,0.));
#920=DIRECTION('',(0.,0.,-1.));
#921=DIRECTION('',(-1.,0.,0.));
#922=DIRECTION('',(1.,0.,0.));
#923=DIRECTION('',(0.,0.,-1.));
#924=DIRECTION('',(0.,-0.707106781186547,0.707106781186548));
#925=DIRECTION('',(0.,-0.707106781186548,-0.707106781186547));
#926=DIRECTION('',(0.,0.707106781186548,0.707106781186547));
#927=DIRECTION('',(-1.,0.,0.));
#928=DIRECTION('',(0.,0.707106781186548,0.707106781186547));
#929=DIRECTION('',(-1.,0.,0.));
#930=DIRECTION('',(0.,0.,1.));
#931=DIRECTION('',(1.,0.,0.));
#932=DIRECTION('',(0.,0.,-1.));
#933=DIRECTION('',(-1.,0.,0.));
#934=DIRECTION('',(1.,0.,0.));
#935=DIRECTION('',(0.,0.,-1.));
#936=DIRECTION('',(0.,-0.707106781186548,-0.707106781186548));
#937=DIRECTION('',(0.,0.707106781186548,-0.707106781186548));
#938=DIRECTION('',(0.,-0.707106781186548,-0.707106781186547));
#939=DIRECTION('',(0.,0.707106781186547,-0.707106781186548));
#940=DIRECTION('',(0.,-0.707106781186548,-0.707106781186547));
#941=DIRECTION('',(0.,0.707106781186547,-0.707106781186548));
#942=DIRECTION('',(0.,-0.707106781186547,0.707106781186547));
#943=DIRECTION('',(-1.,0.,0.));
#944=DIRECTION('',(0.,-0.707106781186547,0.707106781186547));
#945=DIRECTION('',(0.,-0.923879494878038,-0.382683523219776));
#946=DIRECTION('',(0.,0.382683523219776,-0.923879494878038));
#947=DIRECTION('',(0.,-0.382683523219776,0.923879494878038));
#948=DIRECTION('',(-1.,0.,0.));
#949=DIRECTION('',(0.,-0.382683523219776,0.923879494878038));
#950=DIRECTION('',(0.,-1.,7.30409039986731E-16));
#951=DIRECTION('',(0.,-7.30409039986731E-16,-1.));
#952=DIRECTION('',(0.,1.,0.));
#953=DIRECTION('',(1.,0.,0.));
#954=DIRECTION('',(0.,1.,0.));
#955=DIRECTION('',(1.,0.,0.));
#956=DIRECTION('',(0.,7.30409039986731E-16,1.));
#957=DIRECTION('',(-1.,0.,0.));
#958=DIRECTION('',(0.,7.30409039986731E-16,1.));
#959=DIRECTION('',(0.,-0.923879494878038,-0.382683523219776));
#960=DIRECTION('',(0.,0.382683523219776,-0.923879494878038));
#961=DIRECTION('',(0.,-0.382683523219776,0.923879494878038));
#962=DIRECTION('',(-1.,0.,0.));
#963=DIRECTION('',(0.,-0.382683523219776,0.923879494878038));
#964=DIRECTION('',(-1.,0.,0.));
#965=DIRECTION('',(-1.,0.,0.));
#966=DIRECTION('',(0.,0.,1.));
#967=DIRECTION('',(1.,0.,0.));
#968=DIRECTION('',(0.,0.,-1.));
#969=DIRECTION('',(-1.,0.,0.));
#970=DIRECTION('',(1.,0.,0.));
#971=DIRECTION('',(0.,0.,-1.));
#972=DIRECTION('',(0.,0.707106781186548,0.707106781186547));
#973=DIRECTION('',(0.,-0.707106781186547,0.707106781186548));
#974=DIRECTION('',(0.,0.707106781186547,-0.707106781186547));
#975=DIRECTION('',(-1.,0.,0.));
#976=DIRECTION('',(0.,0.707106781186547,-0.707106781186547));
#977=DIRECTION('',(-1.,0.,0.));
#978=DIRECTION('',(0.,0.,1.));
#979=DIRECTION('',(1.,0.,0.));
#980=DIRECTION('',(0.,0.,-1.));
#981=DIRECTION('',(-1.,0.,0.));
#982=DIRECTION('',(1.,0.,0.));
#983=DIRECTION('',(0.,0.,-1.));
#984=DIRECTION('',(0.,1.,-6.08485097629712E-16));
#985=DIRECTION('',(0.,6.08485097629712E-16,1.));
#986=DIRECTION('',(0.,-6.08485097629712E-16,-1.));
#987=DIRECTION('',(-1.,0.,0.));
#988=DIRECTION('',(0.,-6.08485097629712E-16,-1.));
#989=DIRECTION('',(-1.,0.,0.));
#990=DIRECTION('',(0.,0.,1.));
#991=DIRECTION('',(1.,0.,0.));
#992=DIRECTION('',(0.,0.,-1.));
#993=DIRECTION('',(-1.,0.,0.));
#994=DIRECTION('',(1.,0.,0.));
#995=DIRECTION('',(0.,0.,-1.));
#996=DIRECTION('',(-1.,0.,0.));
#997=DIRECTION('',(0.,0.,1.));
#998=DIRECTION('',(1.,0.,0.));
#999=DIRECTION('',(0.,0.,-1.));
#1000=DIRECTION('',(-1.,0.,0.));
#1001=DIRECTION('',(1.,0.,0.));
#1002=DIRECTION('',(0.,0.,-1.));
#1003=DIRECTION('',(-1.,0.,0.));
#1004=DIRECTION('',(0.,0.,1.));
#1005=DIRECTION('',(1.,0.,0.));
#1006=DIRECTION('',(0.,0.,-1.));
#1007=DIRECTION('',(-1.,0.,0.));
#1008=DIRECTION('',(1.,0.,0.));
#1009=DIRECTION('',(0.,0.,-1.));
#1010=DIRECTION('',(0.,0.382683432365089,-0.923879532511287));
#1011=DIRECTION('',(0.,0.923879532511287,0.382683432365089));
#1012=DIRECTION('',(0.,-0.923879532511287,-0.382683432365089));
#1013=DIRECTION('',(-1.,0.,0.));
#1014=DIRECTION('',(0.,-0.923879532511287,-0.382683432365089));
#1015=DIRECTION('',(0.,-0.923879494878038,-0.382683523219776));
#1016=DIRECTION('',(0.,0.382683523219776,-0.923879494878038));
#1017=DIRECTION('',(0.,-0.382683523219776,0.923879494878038));
#1018=DIRECTION('',(-1.,0.,0.));
#1019=DIRECTION('',(0.,-0.382683523219776,0.923879494878038));
#1020=DIRECTION('',(-1.,0.,0.));
#1021=DIRECTION('',(-1.,0.,0.));
#1022=DIRECTION('',(0.,0.,1.));
#1023=DIRECTION('',(1.,0.,0.));
#1024=DIRECTION('',(0.,0.,-1.));
#1025=DIRECTION('',(-1.,0.,0.));
#1026=DIRECTION('',(1.,0.,0.));
#1027=DIRECTION('',(0.,0.,-1.));
#1028=DIRECTION('',(0.,-0.382683432365107,0.92387953251128));
#1029=DIRECTION('',(0.,-0.92387953251128,-0.382683432365107));
#1030=DIRECTION('',(0.,0.92387953251128,0.382683432365107));
#1031=DIRECTION('',(-1.,0.,0.));
#1032=DIRECTION('',(0.,0.92387953251128,0.382683432365107));
#1033=DIRECTION('',(-1.,0.,0.));
#1034=DIRECTION('',(0.,0.,1.));
#1035=DIRECTION('',(1.,0.,0.));
#1036=DIRECTION('',(0.,0.,-1.));
#1037=DIRECTION('',(-1.,0.,0.));
#1038=DIRECTION('',(1.,0.,0.));
#1039=DIRECTION('',(0.,0.,-1.));
#1040=DIRECTION('',(-1.,0.,0.));
#1041=DIRECTION('',(0.,0.,1.));
#1042=DIRECTION('',(1.,0.,0.));
#1043=DIRECTION('',(0.,0.,-1.));
#1044=DIRECTION('',(-1.,0.,0.));
#1045=DIRECTION('',(1.,0.,0.));
#1046=DIRECTION('',(0.,0.,-1.));
#1047=DIRECTION('',(-1.,0.,0.));
#1048=DIRECTION('',(0.,0.,1.));
#1049=DIRECTION('',(1.,0.,0.));
#1050=DIRECTION('',(0.,0.,-1.));
#1051=DIRECTION('',(-1.,0.,0.));
#1052=DIRECTION('',(1.,0.,0.));
#1053=DIRECTION('',(0.,0.,-1.));
#1054=DIRECTION('',(0.,0.707106781186547,0.707106781186548));
#1055=DIRECTION('',(0.,-0.707106781186548,0.707106781186547));
#1056=DIRECTION('',(0.,0.707106781186548,-0.707106781186547));
#1057=DIRECTION('',(-1.,0.,0.));
#1058=DIRECTION('',(0.,0.707106781186548,-0.707106781186547));
#1059=DIRECTION('',(-1.,0.,0.));
#1060=DIRECTION('',(0.,0.,1.));
#1061=DIRECTION('',(1.,0.,0.));
#1062=DIRECTION('',(0.,0.,-1.));
#1063=DIRECTION('',(-1.,0.,0.));
#1064=DIRECTION('',(1.,0.,0.));
#1065=DIRECTION('',(0.,0.,-1.));
#1066=DIRECTION('',(0.,1.,-1.14308024093113E-15));
#1067=DIRECTION('',(0.,1.14308024093113E-15,1.));
#1068=DIRECTION('',(0.,-1.14308024093113E-15,-1.));
#1069=DIRECTION('',(-1.,0.,0.));
#1070=DIRECTION('',(0.,-1.14308024093113E-15,-1.));
#1071=DIRECTION('',(-1.,0.,0.));
#1072=DIRECTION('',(0.,0.,1.));
#1073=DIRECTION('',(1.,0.,0.));
#1074=DIRECTION('',(0.,0.,-1.));
#1075=DIRECTION('',(1.,0.,0.));
#1076=DIRECTION('',(0.,0.,-1.));
#1077=DIRECTION('',(-1.,0.,0.));
#1078=DIRECTION('',(0.,0.,1.));
#1079=DIRECTION('',(1.,0.,0.));
#1080=DIRECTION('',(0.,0.,-1.));
#1081=DIRECTION('',(1.,0.,0.));
#1082=DIRECTION('',(0.,0.,-1.));
#1083=DIRECTION('',(-1.,0.,0.));
#1084=DIRECTION('',(0.,0.,1.));
#1085=DIRECTION('',(1.,0.,0.));
#1086=DIRECTION('',(0.,0.,-1.));
#1087=DIRECTION('',(1.,0.,0.));
#1088=DIRECTION('',(0.,0.,-1.));
#1089=DIRECTION('',(-1.,0.,0.));
#1090=DIRECTION('',(0.,0.,1.));
#1091=DIRECTION('',(1.,0.,0.));
#1092=DIRECTION('',(0.,0.,-1.));
#1093=DIRECTION('',(1.,0.,0.));
#1094=DIRECTION('',(0.,0.,-1.));
#1095=DIRECTION('',(1.,0.,0.));
#1096=DIRECTION('',(0.,0.,-1.));
#1097=DIRECTION('',(1.,0.,0.));
#1098=DIRECTION('',(0.,0.,-1.));
#1099=DIRECTION('',(0.,-1.,0.));
#1100=DIRECTION('',(0.,0.,-1.));
#1101=DIRECTION('',(0.,-1.,0.));
#1102=DIRECTION('',(0.,0.,-1.));
#1103=DIRECTION('',(0.,-0.707106781186548,-0.707106781186547));
#1104=DIRECTION('',(0.,0.707106781186547,-0.707106781186548));
#1105=DIRECTION('',(0.,-0.707106781186548,-0.707106781186547));
#1106=DIRECTION('',(0.,0.707106781186547,-0.707106781186548));
#1107=DIRECTION('',(0.,0.,1.));
#1108=DIRECTION('',(1.,0.,0.));
#1109=CARTESIAN_POINT('',(0.,0.,0.));
#1110=CARTESIAN_POINT('',(17.,8.00000000000009,69.9999999999999));
#1111=CARTESIAN_POINT('',(-17.,8.00000000000009,69.9999999999999));
#1112=CARTESIAN_POINT('',(-17.,8.00000000000009,69.9999999999999));
#1113=CARTESIAN_POINT('',(-17.,1.00000000000009,70.));
#1114=CARTESIAN_POINT('',(17.,1.00000000000009,70.));
#1115=CARTESIAN_POINT('',(17.,1.00000000000009,70.));
#1116=CARTESIAN_POINT('',(17.,8.00000000000009,69.9999999999999));
#1117=CARTESIAN_POINT('',(17.,8.00000000000009,69.9999999999999));
#1118=CARTESIAN_POINT('',(17.,8.00000000000009,69.9999999999999));
#1119=CARTESIAN_POINT('',(17.,1.00000000000008,69.));
#1120=CARTESIAN_POINT('',(-17.,1.00000000000008,69.));
#1121=CARTESIAN_POINT('',(-17.,6.59194920871187E-14,69.));
#1122=CARTESIAN_POINT('',(17.,6.59194920871187E-14,69.));
#1123=CARTESIAN_POINT('',(17.,6.59194920871187E-14,69.));
#1124=CARTESIAN_POINT('',(17.,1.00000000000008,69.));
#1125=CARTESIAN_POINT('',(17.,7.00392125249242E-14,69.));
#1126=CARTESIAN_POINT('',(10.,0.,60.));
#1127=CARTESIAN_POINT('',(12.75,0.,60.));
#1128=CARTESIAN_POINT('',(-10.,0.,60.));
#1129=CARTESIAN_POINT('',(-7.25,0.,60.));
#1130=CARTESIAN_POINT('',(-17.,7.00392125249242E-14,69.));
#1131=CARTESIAN_POINT('',(-17.,2.10226026998225E-15,2.07106781186547));
#1132=CARTESIAN_POINT('',(17.,2.10226026998225E-15,2.07106781186547));
#1133=CARTESIAN_POINT('',(17.,2.10226026998225E-15,2.07106781186547));
#1134=CARTESIAN_POINT('',(17.,7.00392125249242E-14,69.));
#1135=CARTESIAN_POINT('',(17.,5.,2.07106781186547));
#1136=CARTESIAN_POINT('',(-17.,5.,2.07106781186547));
#1137=CARTESIAN_POINT('',(-17.,1.46446609406726,-1.46446609406726));
#1138=CARTESIAN_POINT('',(17.,1.46446609406726,-1.46446609406726));
#1139=CARTESIAN_POINT('',(17.,1.46446609406726,-1.46446609406726));
#1140=CARTESIAN_POINT('',(17.,5.,2.07106781186547));
#1141=CARTESIAN_POINT('',(17.,1.46446609406727,-1.46446609406727));
#1142=CARTESIAN_POINT('',(-10.,42.4264068711929,-42.4264068711929));
#1143=CARTESIAN_POINT('',(-10.,44.3709505194559,-44.3709505194559));
#1144=CARTESIAN_POINT('',(10.,42.4264068711929,-42.4264068711929));
#1145=CARTESIAN_POINT('',(10.,44.3709505194559,-44.3709505194559));
#1146=CARTESIAN_POINT('',(-17.,1.46446609406727,-1.46446609406727));
#1147=CARTESIAN_POINT('',(-17.,48.7903679018716,-48.7903679018716));
#1148=CARTESIAN_POINT('',(17.,48.7903679018716,-48.7903679018716));
#1149=CARTESIAN_POINT('',(17.,48.7903679018716,-48.7903679018716));
#1150=CARTESIAN_POINT('',(17.,1.46446609406727,-1.46446609406727));
#1151=CARTESIAN_POINT('',(17.,49.4974746830582,-48.0832611206851));
#1152=CARTESIAN_POINT('',(-17.,49.4974746830582,-48.0832611206851));
#1153=CARTESIAN_POINT('',(-17.,50.2045814642447,-48.7903679018716));
#1154=CARTESIAN_POINT('',(17.,50.2045814642447,-48.7903679018716));
#1155=CARTESIAN_POINT('',(17.,50.2045814642447,-48.7903679018716));
#1156=CARTESIAN_POINT('',(17.,49.4974746830582,-48.0832611206851));
#1157=CARTESIAN_POINT('',(17.,50.2045814642447,-48.7903679018716));
#1158=CARTESIAN_POINT('',(-17.,50.2045814642447,-48.7903679018716));
#1159=CARTESIAN_POINT('',(-17.,55.1543289325506,-43.8406204335658));
#1160=CARTESIAN_POINT('',(17.,55.1543289325506,-43.8406204335658));
#1161=CARTESIAN_POINT('',(17.,55.1543289325506,-43.8406204335658));
#1162=CARTESIAN_POINT('',(17.,50.2045814642447,-48.7903679018716));
#1163=CARTESIAN_POINT('',(17.,54.447222151364,-43.1335136523793));
#1164=CARTESIAN_POINT('',(-17.,54.447222151364,-43.1335136523793));
#1165=CARTESIAN_POINT('',(-17.,55.1543289325506,-42.4264068711927));
#1166=CARTESIAN_POINT('',(17.,55.1543289325506,-42.4264068711927));
#1167=CARTESIAN_POINT('',(17.,55.1543289325506,-42.4264068711927));
#1168=CARTESIAN_POINT('',(17.,54.447222151364,-43.1335136523793));
#1169=CARTESIAN_POINT('',(17.,55.1543289325506,-42.4264068711927));
#1170=CARTESIAN_POINT('',(-10.,48.7903679018718,-36.0624458405139));
#1171=CARTESIAN_POINT('',(-10.,50.7349115501348,-38.0069894887769));
#1172=CARTESIAN_POINT('',(10.,48.7903679018718,-36.0624458405139));
#1173=CARTESIAN_POINT('',(10.,50.7349115501348,-38.0069894887769));
#1174=CARTESIAN_POINT('',(-17.,55.1543289325506,-42.4264068711927));
#1175=CARTESIAN_POINT('',(-17.,41.7193000900063,-28.9913780286484));
#1176=CARTESIAN_POINT('',(17.,41.7193000900063,-28.9913780286484));
#1177=CARTESIAN_POINT('',(17.,41.7193000900063,-28.9913780286484));
#1178=CARTESIAN_POINT('',(17.,55.1543289325506,-42.4264068711927));
#1179=CARTESIAN_POINT('',(17.,41.7193000900063,-28.9913780286484));
#1180=CARTESIAN_POINT('',(-17.,41.7193000900063,-28.9913780286484));
#1181=CARTESIAN_POINT('',(-17.,9.00000000000006,49.9999780286583));
#1182=CARTESIAN_POINT('',(17.,9.00000000000006,49.9999780286583));
#1183=CARTESIAN_POINT('',(17.,9.00000000000006,49.9999780286583));
#1184=CARTESIAN_POINT('',(17.,41.7193000900063,-28.9913780286484));
#1185=CARTESIAN_POINT('',(17.,9.00000000000006,49.9999780286583));
#1186=CARTESIAN_POINT('',(10.,9.,60.));
#1187=CARTESIAN_POINT('',(12.75,9.,60.));
#1188=CARTESIAN_POINT('',(-10.,9.,60.));
#1189=CARTESIAN_POINT('',(-7.25,9.,60.));
#1190=CARTESIAN_POINT('',(-17.,9.00000000000006,49.9999780286583));
#1191=CARTESIAN_POINT('',(-17.,9.00000000000007,68.9999999999999));
#1192=CARTESIAN_POINT('',(17.,9.00000000000007,68.9999999999999));
#1193=CARTESIAN_POINT('',(17.,9.00000000000007,68.9999999999999));
#1194=CARTESIAN_POINT('',(17.,9.00000000000006,49.9999780286583));
#1195=CARTESIAN_POINT('',(17.,34.4805030071741,-21.967882034367));
#1196=CARTESIAN_POINT('',(-17.,34.4805030071741,-21.967882034367));
#1197=CARTESIAN_POINT('',(-17.,34.4805030071741,-21.967882034367));
#1198=CARTESIAN_POINT('',(-17.,23.0035203057553,5.73999755160963));
#1199=CARTESIAN_POINT('',(17.,34.4805030071741,-21.967882034367));
#1200=CARTESIAN_POINT('',(17.,34.4805030071741,-21.967882034367));
#1201=CARTESIAN_POINT('',(17.,34.4805030071741,-21.967882034367));
#1202=CARTESIAN_POINT('',(17.,23.0035203057553,5.73999755160963));
#1203=CARTESIAN_POINT('',(17.,23.0035203057553,5.73999755160963));
#1204=CARTESIAN_POINT('',(17.,32.632744017418,-22.7332490808065));
#1205=CARTESIAN_POINT('',(-17.,32.632744017418,-22.7332490808065));
#1206=CARTESIAN_POINT('',(-17.,31.2185304550449,-24.1474626431796));
#1207=CARTESIAN_POINT('',(17.,31.2185304550449,-24.1474626431796));
#1208=CARTESIAN_POINT('',(17.,31.2185304550449,-24.1474626431796));
#1209=CARTESIAN_POINT('',(17.,32.632744017418,-22.7332490808065));
#1210=CARTESIAN_POINT('',(17.,12.4393398282202,-5.36827201635486));
#1211=CARTESIAN_POINT('',(-17.,12.4393398282202,-5.36827201635486));
#1212=CARTESIAN_POINT('',(-17.,12.4393398282202,-5.36827201635485));
#1213=CARTESIAN_POINT('',(17.,12.4393398282202,-5.36827201635485));
#1214=CARTESIAN_POINT('',(17.,12.4393398282202,-5.36827201635485));
#1215=CARTESIAN_POINT('',(17.,12.4393398282202,-5.36827201635486));
#1216=CARTESIAN_POINT('',(17.,13.5,-4.30761184457504));
#1217=CARTESIAN_POINT('',(-17.,13.5,-4.30761184457504));
#1218=CARTESIAN_POINT('',(-17.,12.,-4.30761184457503));
#1219=CARTESIAN_POINT('',(17.,12.,-4.30761184457503));
#1220=CARTESIAN_POINT('',(17.,12.,-4.30761184457503));
#1221=CARTESIAN_POINT('',(17.,13.5,-4.30761184457504));
#1222=CARTESIAN_POINT('',(17.,12.,-1.45672283721194));
#1223=CARTESIAN_POINT('',(-17.,12.,-1.45672283721194));
#1224=CARTESIAN_POINT('',(-17.,12.,-1.45672283721193));
#1225=CARTESIAN_POINT('',(17.,12.,-1.45672283721193));
#1226=CARTESIAN_POINT('',(17.,12.,-1.45672283721193));
#1227=CARTESIAN_POINT('',(17.,12.,-1.45672283721194));
#1228=CARTESIAN_POINT('',(17.,13.5,-1.45672283721193));
#1229=CARTESIAN_POINT('',(-17.,13.5,-1.45672283721193));
#1230=CARTESIAN_POINT('',(-17.,13.1590909090909,0.00402388680819862));
#1231=CARTESIAN_POINT('',(17.,13.1590909090909,0.00402388680819862));
#1232=CARTESIAN_POINT('',(17.,13.1590909090909,0.00402388680819862));
#1233=CARTESIAN_POINT('',(17.,13.5,-1.45672283721193));
#1234=CARTESIAN_POINT('',(17.,12.0000000000009,4.97056274847734));
#1235=CARTESIAN_POINT('',(-17.,12.0000000000009,4.97056274847734));
#1236=CARTESIAN_POINT('',(-17.,17.029675086054,4.12654347811551));
#1237=CARTESIAN_POINT('',(17.,17.029675086054,4.12654347811551));
#1238=CARTESIAN_POINT('',(17.,17.029675086054,4.12654347811551));
#1239=CARTESIAN_POINT('',(17.,12.0000000000009,4.97056274847734));
#1240=CARTESIAN_POINT('',(17.,18.5089912878339,3.87830251624283));
#1241=CARTESIAN_POINT('',(-17.,18.5089912878339,3.87830251624283));
#1242=CARTESIAN_POINT('',(-17.,17.9349661392894,5.26412181501106));
#1243=CARTESIAN_POINT('',(17.,17.9349661392894,5.26412181501106));
#1244=CARTESIAN_POINT('',(17.,17.9349661392894,5.26412181501106));
#1245=CARTESIAN_POINT('',(17.,18.5089912878339,3.87830251624283));
#1246=CARTESIAN_POINT('',(17.,21.0436759148906,6.5517915655469));
#1247=CARTESIAN_POINT('',(-17.,21.0436759148906,6.5517915655469));
#1248=CARTESIAN_POINT('',(-17.,21.0436759148906,6.5517915655469));
#1249=CARTESIAN_POINT('',(17.,21.0436759148906,6.5517915655469));
#1250=CARTESIAN_POINT('',(17.,21.0436759148906,6.5517915655469));
#1251=CARTESIAN_POINT('',(17.,21.0436759148906,6.5517915655469));
#1252=CARTESIAN_POINT('',(17.,20.3247356432167,12.2071540157562));
#1253=CARTESIAN_POINT('',(-17.,20.3247356432167,12.2071540157562));
#1254=CARTESIAN_POINT('',(-17.,20.3247356432167,12.2071540157562));
#1255=CARTESIAN_POINT('',(-17.,8.84775898975611,39.915019000674));
#1256=CARTESIAN_POINT('',(17.,20.3247356432167,12.2071540157562));
#1257=CARTESIAN_POINT('',(17.,20.3247356432167,12.2071540157562));
#1258=CARTESIAN_POINT('',(17.,20.3247356432167,12.2071540157562));
#1259=CARTESIAN_POINT('',(17.,8.84775898975611,39.915019000674));
#1260=CARTESIAN_POINT('',(17.,8.84775898975611,39.915019000674));
#1261=CARTESIAN_POINT('',(17.,18.9389164008996,11.6331287309265));
#1262=CARTESIAN_POINT('',(-17.,18.9389164008996,11.6331287309265));
#1263=CARTESIAN_POINT('',(-17.,19.5129415494473,10.2473094321596));
#1264=CARTESIAN_POINT('',(17.,19.5129415494473,10.2473094321596));
#1265=CARTESIAN_POINT('',(17.,19.5129415494473,10.2473094321596));
#1266=CARTESIAN_POINT('',(17.,18.9389164008996,11.6331287309265));
#1267=CARTESIAN_POINT('',(17.,16.4042324098289,8.9596399450564));
#1268=CARTESIAN_POINT('',(-17.,16.4042324098289,8.9596399450564));
#1269=CARTESIAN_POINT('',(-17.,16.4042324098289,8.9596399450564));
#1270=CARTESIAN_POINT('',(17.,16.4042324098289,8.9596399450564));
#1271=CARTESIAN_POINT('',(17.,16.4042324098289,8.9596399450564));
#1272=CARTESIAN_POINT('',(17.,16.4042324098289,8.9596399450564));
#1273=CARTESIAN_POINT('',(17.,15.8302072612777,10.3454592438218));
#1274=CARTESIAN_POINT('',(-17.,15.8302072612777,10.3454592438218));
#1275=CARTESIAN_POINT('',(-17.,14.9597056109888,9.12389185851544));
#1276=CARTESIAN_POINT('',(17.,14.9597056109888,9.12389185851544));
#1277=CARTESIAN_POINT('',(17.,14.9597056109888,9.12389185851544));
#1278=CARTESIAN_POINT('',(17.,15.8302072612777,10.3454592438218));
#1279=CARTESIAN_POINT('',(17.,12.0000000000009,4.97056274847768));
#1280=CARTESIAN_POINT('',(-17.,12.0000000000009,4.97056274847768));
#1281=CARTESIAN_POINT('',(-17.,9.30772781573583,9.30203714939852));
#1282=CARTESIAN_POINT('',(17.,9.30772781573583,9.30203714939852));
#1283=CARTESIAN_POINT('',(17.,9.30772781573583,9.30203714939852));
#1284=CARTESIAN_POINT('',(17.,12.0000000000009,4.97056274847768));
#1285=CARTESIAN_POINT('',(17.,8.51588294951691,10.5760001425199));
#1286=CARTESIAN_POINT('',(-17.,8.51588294951691,10.5760001425199));
#1287=CARTESIAN_POINT('',(-17.,7.45522277773708,9.51533997074006));
#1288=CARTESIAN_POINT('',(17.,7.45522277773708,9.51533997074006));
#1289=CARTESIAN_POINT('',(17.,7.45522277773708,9.51533997074006));
#1290=CARTESIAN_POINT('',(17.,8.51588294951691,10.5760001425199));
#1291=CARTESIAN_POINT('',(17.,5.43933982822019,11.5312229202569));
#1292=CARTESIAN_POINT('',(-17.,5.43933982822019,11.5312229202569));
#1293=CARTESIAN_POINT('',(-17.,5.43933982822019,11.5312229202569));
#1294=CARTESIAN_POINT('',(17.,5.43933982822019,11.5312229202569));
#1295=CARTESIAN_POINT('',(17.,5.43933982822019,11.5312229202569));
#1296=CARTESIAN_POINT('',(17.,5.43933982822019,11.5312229202569));
#1297=CARTESIAN_POINT('',(17.,6.50000000000002,12.5918830920368));
#1298=CARTESIAN_POINT('',(-17.,6.50000000000002,12.5918830920368));
#1299=CARTESIAN_POINT('',(-17.,5.00000000000001,12.5918830920368));
#1300=CARTESIAN_POINT('',(17.,5.00000000000001,12.5918830920368));
#1301=CARTESIAN_POINT('',(17.,5.00000000000001,12.5918830920368));
#1302=CARTESIAN_POINT('',(17.,6.50000000000002,12.5918830920368));
#1303=CARTESIAN_POINT('',(17.,5.00000000000004,39.1496519542345));
#1304=CARTESIAN_POINT('',(-17.,5.00000000000004,39.1496519542345));
#1305=CARTESIAN_POINT('',(-17.,5.00000000000004,39.1496519542345));
#1306=CARTESIAN_POINT('',(17.,5.00000000000004,39.1496519542345));
#1307=CARTESIAN_POINT('',(17.,5.00000000000004,39.1496519542345));
#1308=CARTESIAN_POINT('',(17.,5.00000000000004,39.1496519542345));
#1309=CARTESIAN_POINT('',(17.,21.6177010634382,5.16597226677997));
#1310=CARTESIAN_POINT('',(-17.,21.6177010634382,5.16597226677997));
#1311=CARTESIAN_POINT('',(17.,21.6177010634382,5.16597226677997));
#1312=CARTESIAN_POINT('',(17.,12.,4.97056274847713));
#1313=CARTESIAN_POINT('',(17.,12.,4.97056274847713));
#1314=CARTESIAN_POINT('',(17.,12.,2.87056274847713));
#1315=CARTESIAN_POINT('',(-17.,12.,4.97056274847713));
#1316=CARTESIAN_POINT('',(-17.,12.,2.87056274847713));
#1317=CARTESIAN_POINT('',(17.,7.00000000000004,39.1496519542344));
#1318=CARTESIAN_POINT('',(-17.,7.00000000000004,39.1496519542344));
#1319=CARTESIAN_POINT('',(17.,7.00000000000004,39.1496519542344));
#1320=CARTESIAN_POINT('',(17.,8.00000000000008,68.9999999999999));
#1321=CARTESIAN_POINT('',(-17.,8.00000000000008,68.9999999999999));
#1322=CARTESIAN_POINT('',(17.,8.00000000000008,68.9999999999999));
#1323=CARTESIAN_POINT('',(17.,1.00000000000008,69.));
#1324=CARTESIAN_POINT('',(-17.,1.00000000000008,69.));
#1325=CARTESIAN_POINT('',(-10.,9.,60.));
#1326=CARTESIAN_POINT('',(10.,9.,60.));
#1327=CARTESIAN_POINT('',(10.,42.4264068711929,-42.4264068711929));
#1328=CARTESIAN_POINT('',(-10.,42.4264068711929,-42.4264068711929));
#1329=CARTESIAN_POINT('',(0.,0.,0.));
#1330=MECHANICAL_DESIGN_GEOMETRIC_PRESENTATION_REPRESENTATION('',(#779),
#1331);
#1331=(
GEOMETRIC_REPRESENTATION_CONTEXT(3)
GLOBAL_UNCERTAINTY_ASSIGNED_CONTEXT((#1333))
GLOBAL_UNIT_ASSIGNED_CONTEXT((#1337,#1336,#1335))
REPRESENTATION_CONTEXT('HBL135TD5','TOP_LEVEL_ASSEMBLY_PART')
);
#1332=(
GEOMETRIC_REPRESENTATION_CONTEXT(3)
GLOBAL_UNCERTAINTY_ASSIGNED_CONTEXT((#1334))
GLOBAL_UNIT_ASSIGNED_CONTEXT((#1337,#1336,#1335))
REPRESENTATION_CONTEXT('HBL135TD5_b','COMPONENT_PART')
);
#1333=UNCERTAINTY_MEASURE_WITH_UNIT(LENGTH_MEASURE(0.005),#1337,
'DISTANCE_ACCURACY_VALUE','Maximum Tolerance applied to model');
#1334=UNCERTAINTY_MEASURE_WITH_UNIT(LENGTH_MEASURE(0.005),#1337,
'DISTANCE_ACCURACY_VALUE','Maximum Tolerance applied to model');
#1335=(
NAMED_UNIT(*)
SI_UNIT($,.STERADIAN.)
SOLID_ANGLE_UNIT()
);
#1336=(
NAMED_UNIT(*)
PLANE_ANGLE_UNIT()
SI_UNIT($,.RADIAN.)
);
#1337=(
LENGTH_UNIT()
NAMED_UNIT(*)
SI_UNIT(.MILLI.,.METRE.)
);
#1338=PRODUCT_DEFINITION_SHAPE('','',#1341);
#1339=PRODUCT_DEFINITION_SHAPE('','',#1342);
#1340=PRODUCT_DEFINITION_SHAPE(' ','NAUO PRDDFN',#19);
#1341=PRODUCT_DEFINITION('','',#1345,#1343);
#1342=PRODUCT_DEFINITION('','',#1346,#1344);
#1343=DESIGN_CONTEXT('',#1356,'design');
#1344=DESIGN_CONTEXT('',#1356,'design');
#1345=PRODUCT_DEFINITION_FORMATION_WITH_SPECIFIED_SOURCE('','',#1349,
 .NOT_KNOWN.);
#1346=PRODUCT_DEFINITION_FORMATION_WITH_SPECIFIED_SOURCE('','',#1350,
 .NOT_KNOWN.);
#1347=PRODUCT_RELATED_PRODUCT_CATEGORY('','',(#1349));
#1348=PRODUCT_RELATED_PRODUCT_CATEGORY('','',(#1350));
#1349=PRODUCT('HBL135TD5','HBL135TD5','HBL135TD5',(#1353));
#1350=PRODUCT('HBL135TD5_b','HBL135TD5_b','HBL135TD5_b',(#1354));
#1351=PRODUCT_CATEGORY('','');
#1352=PRODUCT_CATEGORY('','');
#1353=MECHANICAL_CONTEXT('',#1356,'mechanical');
#1354=MECHANICAL_CONTEXT('',#1356,'mechanical');
#1355=APPLICATION_PROTOCOL_DEFINITION('international standard',
'config_control_design',2010,#1356);
#1356=APPLICATION_CONTEXT(
'configuration controlled 3D designs of mechanical parts and assemblie
s');
ENDSEC;
END-ISO-10303-21;
