ISO-10303-21;
HEADER;
/* Generated by software containing ST-Developer
 * from STEP Tools, Inc. (www.steptools.com) 
 */
/* OPTION: using custom renumber hook */

FILE_DESCRIPTION(
/* description */ ('STEP AP203'),
/* implementation_level */ '2;1');

FILE_NAME(
/* name */ 'HBLFSNB5',
/* time_stamp */ '2025-08-13T13:48:55+02:00',
/* author */ ('License CC BY-ND 4.0'),
/* organization */ ('CADENAS'),
/* preprocessor_version */ 'ST-DEVELOPER v19.3',
/* originating_system */ 'PARTsolutions',
/* authorisation */ '  ');

FILE_SCHEMA (('CONFIG_CONTROL_DESIGN'));
ENDSEC;

DATA;
#10=PROPERTY_DEFINITION_REPRESENTATION(#14,#12);
#11=PROPERTY_DEFINITION_REPRESENTATION(#15,#13);
#12=REPRESENTATION('',(#16),#2108);
#13=REPRESENTATION('',(#17),#2108);
#14=PROPERTY_DEFINITION('pmi validation property','',#2115);
#15=PROPERTY_DEFINITION('pmi validation property','',#2115);
#16=VALUE_REPRESENTATION_ITEM('number of annotations',COUNT_MEASURE(0.));
#17=VALUE_REPRESENTATION_ITEM('number of views',COUNT_MEASURE(0.));
#18=CONTEXT_DEPENDENT_SHAPE_REPRESENTATION(#20,#2117);
#19=NEXT_ASSEMBLY_USAGE_OCCURRENCE('NAUO1','HBLFSNB5h5','HBLFSNB5h5',#2118,
#2119,'');
#20=(
REPRESENTATION_RELATIONSHIP(' ',' ',#1273,#1272)
REPRESENTATION_RELATIONSHIP_WITH_TRANSFORMATION(#21)
SHAPE_REPRESENTATION_RELATIONSHIP()
);
#21=ITEM_DEFINED_TRANSFORMATION(' ',' ',#1274,#1387);
#22=SHAPE_REPRESENTATION_RELATIONSHIP('','',#1273,#23);
#23=ADVANCED_BREP_SHAPE_REPRESENTATION('',(#1269),#2109);
#24=ELLIPSE('',#1293,4.50617555699064,4.5);
#25=PLANE('',#1278);
#26=PLANE('',#1282);
#27=PLANE('',#1283);
#28=PLANE('',#1289);
#29=PLANE('',#1290);
#30=PLANE('',#1291);
#31=PLANE('',#1292);
#32=PLANE('',#1294);
#33=PLANE('',#1297);
#34=PLANE('',#1298);
#35=PLANE('',#1299);
#36=PLANE('',#1300);
#37=PLANE('',#1303);
#38=PLANE('',#1304);
#39=PLANE('',#1322);
#40=PLANE('',#1326);
#41=PLANE('',#1330);
#42=PLANE('',#1337);
#43=PLANE('',#1341);
#44=PLANE('',#1345);
#45=PLANE('',#1349);
#46=PLANE('',#1350);
#47=PLANE('',#1351);
#48=PLANE('',#1352);
#49=PLANE('',#1353);
#50=PLANE('',#1354);
#51=PLANE('',#1355);
#52=PLANE('',#1356);
#53=PLANE('',#1360);
#54=PLANE('',#1361);
#55=PLANE('',#1365);
#56=PLANE('',#1366);
#57=PLANE('',#1370);
#58=PLANE('',#1371);
#59=PLANE('',#1372);
#60=PLANE('',#1373);
#61=PLANE('',#1374);
#62=PLANE('',#1375);
#63=PLANE('',#1379);
#64=PLANE('',#1380);
#65=PLANE('',#1381);
#66=PLANE('',#1382);
#67=PLANE('',#1383);
#68=PLANE('',#1384);
#69=PLANE('',#1385);
#70=PLANE('',#1386);
#71=LINE('',#1750,#200);
#72=LINE('',#1754,#201);
#73=LINE('',#1756,#202);
#74=LINE('',#1758,#203);
#75=LINE('',#1760,#204);
#76=LINE('',#1762,#205);
#77=LINE('',#1767,#206);
#78=LINE('',#1771,#207);
#79=LINE('',#1773,#208);
#80=LINE('',#1775,#209);
#81=LINE('',#1776,#210);
#82=LINE('',#1778,#211);
#83=LINE('',#1780,#212);
#84=LINE('',#1782,#213);
#85=LINE('',#1785,#214);
#86=LINE('',#1787,#215);
#87=LINE('',#1789,#216);
#88=LINE('',#1791,#217);
#89=LINE('',#1796,#218);
#90=LINE('',#1802,#219);
#91=LINE('',#1803,#220);
#92=LINE('',#1805,#221);
#93=LINE('',#1807,#222);
#94=LINE('',#1809,#223);
#95=LINE('',#1811,#224);
#96=LINE('',#1813,#225);
#97=LINE('',#1816,#226);
#98=LINE('',#1820,#227);
#99=LINE('',#1821,#228);
#100=LINE('',#1823,#229);
#101=LINE('',#1825,#230);
#102=LINE('',#1831,#231);
#103=LINE('',#1832,#232);
#104=LINE('',#1836,#233);
#105=LINE('',#1838,#234);
#106=LINE('',#1840,#235);
#107=LINE('',#1842,#236);
#108=LINE('',#1844,#237);
#109=LINE('',#1846,#238);
#110=LINE('',#1850,#239);
#111=LINE('',#1861,#240);
#112=LINE('',#1865,#241);
#113=LINE('',#1869,#242);
#114=LINE('',#1873,#243);
#115=LINE('',#1877,#244);
#116=LINE('',#1881,#245);
#117=LINE('',#1885,#246);
#118=LINE('',#1889,#247);
#119=LINE('',#1897,#248);
#120=LINE('',#1901,#249);
#121=LINE('',#1903,#250);
#122=LINE('',#1905,#251);
#123=LINE('',#1907,#252);
#124=LINE('',#1911,#253);
#125=LINE('',#1915,#254);
#126=LINE('',#1917,#255);
#127=LINE('',#1919,#256);
#128=LINE('',#1923,#257);
#129=LINE('',#1927,#258);
#130=LINE('',#1929,#259);
#131=LINE('',#1931,#260);
#132=LINE('',#1935,#261);
#133=LINE('',#1942,#262);
#134=LINE('',#1946,#263);
#135=LINE('',#1948,#264);
#136=LINE('',#1950,#265);
#137=LINE('',#1952,#266);
#138=LINE('',#1956,#267);
#139=LINE('',#1960,#268);
#140=LINE('',#1962,#269);
#141=LINE('',#1964,#270);
#142=LINE('',#1968,#271);
#143=LINE('',#1972,#272);
#144=LINE('',#1974,#273);
#145=LINE('',#1976,#274);
#146=LINE('',#1980,#275);
#147=LINE('',#1984,#276);
#148=LINE('',#1985,#277);
#149=LINE('',#1987,#278);
#150=LINE('',#1988,#279);
#151=LINE('',#1990,#280);
#152=LINE('',#1994,#281);
#153=LINE('',#1996,#282);
#154=LINE('',#1998,#283);
#155=LINE('',#2000,#284);
#156=LINE('',#2002,#285);
#157=LINE('',#2004,#286);
#158=LINE('',#2006,#287);
#159=LINE('',#2008,#288);
#160=LINE('',#2010,#289);
#161=LINE('',#2014,#290);
#162=LINE('',#2018,#291);
#163=LINE('',#2020,#292);
#164=LINE('',#2022,#293);
#165=LINE('',#2024,#294);
#166=LINE('',#2026,#295);
#167=LINE('',#2028,#296);
#168=LINE('',#2032,#297);
#169=LINE('',#2036,#298);
#170=LINE('',#2038,#299);
#171=LINE('',#2040,#300);
#172=LINE('',#2042,#301);
#173=LINE('',#2043,#302);
#174=LINE('',#2048,#303);
#175=LINE('',#2052,#304);
#176=LINE('',#2054,#305);
#177=LINE('',#2056,#306);
#178=LINE('',#2058,#307);
#179=LINE('',#2060,#308);
#180=LINE('',#2061,#309);
#181=LINE('',#2063,#310);
#182=LINE('',#2065,#311);
#183=LINE('',#2067,#312);
#184=LINE('',#2069,#313);
#185=LINE('',#2071,#314);
#186=LINE('',#2073,#315);
#187=LINE('',#2075,#316);
#188=LINE('',#2077,#317);
#189=LINE('',#2079,#318);
#190=LINE('',#2081,#319);
#191=LINE('',#2083,#320);
#192=LINE('',#2085,#321);
#193=LINE('',#2089,#322);
#194=LINE('',#2093,#323);
#195=LINE('',#2094,#324);
#196=LINE('',#2096,#325);
#197=LINE('',#2097,#326);
#198=LINE('',#2099,#327);
#199=LINE('',#2100,#328);
#200=VECTOR('',#1394,1000.);
#201=VECTOR('',#1397,1000.);
#202=VECTOR('',#1400,1000.);
#203=VECTOR('',#1401,1000.);
#204=VECTOR('',#1402,1000.);
#205=VECTOR('',#1405,1000.);
#206=VECTOR('',#1408,1000.);
#207=VECTOR('',#1413,1000.);
#208=VECTOR('',#1414,1000.);
#209=VECTOR('',#1415,1000.);
#210=VECTOR('',#1416,1000.);
#211=VECTOR('',#1417,1000.);
#212=VECTOR('',#1418,1000.);
#213=VECTOR('',#1421,1000.);
#214=VECTOR('',#1422,1000.);
#215=VECTOR('',#1423,1000.);
#216=VECTOR('',#1424,1000.);
#217=VECTOR('',#1427,1000.);
#218=VECTOR('',#1430,1000.);
#219=VECTOR('',#1439,1000.);
#220=VECTOR('',#1440,1000.);
#221=VECTOR('',#1443,1000.);
#222=VECTOR('',#1444,1000.);
#223=VECTOR('',#1447,1000.);
#224=VECTOR('',#1448,1000.);
#225=VECTOR('',#1451,1000.);
#226=VECTOR('',#1452,1000.);
#227=VECTOR('',#1455,1000.);
#228=VECTOR('',#1456,1000.);
#229=VECTOR('',#1457,1000.);
#230=VECTOR('',#1458,1000.);
#231=VECTOR('',#1465,1000.);
#232=VECTOR('',#1466,1000.);
#233=VECTOR('',#1473,1000.);
#234=VECTOR('',#1474,1000.);
#235=VECTOR('',#1475,1000.);
#236=VECTOR('',#1478,1000.);
#237=VECTOR('',#1479,1000.);
#238=VECTOR('',#1482,1000.);
#239=VECTOR('',#1487,1000.);
#240=VECTOR('',#1500,1000.);
#241=VECTOR('',#1503,1000.);
#242=VECTOR('',#1506,1000.);
#243=VECTOR('',#1509,1000.);
#244=VECTOR('',#1512,1000.);
#245=VECTOR('',#1515,1000.);
#246=VECTOR('',#1518,1000.);
#247=VECTOR('',#1521,1000.);
#248=VECTOR('',#1530,1000.);
#249=VECTOR('',#1533,1000.);
#250=VECTOR('',#1536,1000.);
#251=VECTOR('',#1537,1000.);
#252=VECTOR('',#1538,1000.);
#253=VECTOR('',#1543,1000.);
#254=VECTOR('',#1548,1000.);
#255=VECTOR('',#1549,1000.);
#256=VECTOR('',#1550,1000.);
#257=VECTOR('',#1555,1000.);
#258=VECTOR('',#1560,1000.);
#259=VECTOR('',#1561,1000.);
#260=VECTOR('',#1562,1000.);
#261=VECTOR('',#1567,1000.);
#262=VECTOR('',#1574,1000.);
#263=VECTOR('',#1577,1000.);
#264=VECTOR('',#1580,1000.);
#265=VECTOR('',#1581,1000.);
#266=VECTOR('',#1582,1000.);
#267=VECTOR('',#1587,1000.);
#268=VECTOR('',#1592,1000.);
#269=VECTOR('',#1593,1000.);
#270=VECTOR('',#1594,1000.);
#271=VECTOR('',#1599,1000.);
#272=VECTOR('',#1604,1000.);
#273=VECTOR('',#1605,1000.);
#274=VECTOR('',#1606,1000.);
#275=VECTOR('',#1611,1000.);
#276=VECTOR('',#1616,1000.);
#277=VECTOR('',#1617,1000.);
#278=VECTOR('',#1620,1000.);
#279=VECTOR('',#1621,1000.);
#280=VECTOR('',#1624,1000.);
#281=VECTOR('',#1631,1000.);
#282=VECTOR('',#1632,1000.);
#283=VECTOR('',#1633,1000.);
#284=VECTOR('',#1636,1000.);
#285=VECTOR('',#1637,1000.);
#286=VECTOR('',#1638,1000.);
#287=VECTOR('',#1641,1000.);
#288=VECTOR('',#1642,1000.);
#289=VECTOR('',#1643,1000.);
#290=VECTOR('',#1648,1000.);
#291=VECTOR('',#1653,1000.);
#292=VECTOR('',#1654,1000.);
#293=VECTOR('',#1655,1000.);
#294=VECTOR('',#1658,1000.);
#295=VECTOR('',#1659,1000.);
#296=VECTOR('',#1660,1000.);
#297=VECTOR('',#1665,1000.);
#298=VECTOR('',#1670,1000.);
#299=VECTOR('',#1671,1000.);
#300=VECTOR('',#1672,1000.);
#301=VECTOR('',#1675,1000.);
#302=VECTOR('',#1676,1000.);
#303=VECTOR('',#1681,1000.);
#304=VECTOR('',#1684,1000.);
#305=VECTOR('',#1687,1000.);
#306=VECTOR('',#1688,1000.);
#307=VECTOR('',#1689,1000.);
#308=VECTOR('',#1692,1000.);
#309=VECTOR('',#1693,1000.);
#310=VECTOR('',#1696,1000.);
#311=VECTOR('',#1697,1000.);
#312=VECTOR('',#1698,1000.);
#313=VECTOR('',#1701,1000.);
#314=VECTOR('',#1702,1000.);
#315=VECTOR('',#1703,1000.);
#316=VECTOR('',#1706,1000.);
#317=VECTOR('',#1707,1000.);
#318=VECTOR('',#1708,1000.);
#319=VECTOR('',#1711,1000.);
#320=VECTOR('',#1712,1000.);
#321=VECTOR('',#1713,1000.);
#322=VECTOR('',#1718,1000.);
#323=VECTOR('',#1723,1000.);
#324=VECTOR('',#1724,1000.);
#325=VECTOR('',#1727,1000.);
#326=VECTOR('',#1728,1000.);
#327=VECTOR('',#1731,1000.);
#328=VECTOR('',#1732,1000.);
#329=ORIENTED_EDGE('',*,*,#681,.F.);
#330=ORIENTED_EDGE('',*,*,#682,.T.);
#331=ORIENTED_EDGE('',*,*,#683,.T.);
#332=ORIENTED_EDGE('',*,*,#684,.F.);
#333=ORIENTED_EDGE('',*,*,#685,.F.);
#334=ORIENTED_EDGE('',*,*,#686,.T.);
#335=ORIENTED_EDGE('',*,*,#687,.T.);
#336=ORIENTED_EDGE('',*,*,#682,.F.);
#337=ORIENTED_EDGE('',*,*,#688,.T.);
#338=ORIENTED_EDGE('',*,*,#689,.T.);
#339=ORIENTED_EDGE('',*,*,#690,.F.);
#340=ORIENTED_EDGE('',*,*,#691,.F.);
#341=ORIENTED_EDGE('',*,*,#692,.T.);
#342=ORIENTED_EDGE('',*,*,#693,.T.);
#343=ORIENTED_EDGE('',*,*,#694,.F.);
#344=ORIENTED_EDGE('',*,*,#690,.T.);
#345=ORIENTED_EDGE('',*,*,#695,.T.);
#346=ORIENTED_EDGE('',*,*,#696,.F.);
#347=ORIENTED_EDGE('',*,*,#697,.F.);
#348=ORIENTED_EDGE('',*,*,#684,.T.);
#349=ORIENTED_EDGE('',*,*,#698,.F.);
#350=ORIENTED_EDGE('',*,*,#699,.T.);
#351=ORIENTED_EDGE('',*,*,#700,.T.);
#352=ORIENTED_EDGE('',*,*,#701,.F.);
#353=ORIENTED_EDGE('',*,*,#702,.F.);
#354=ORIENTED_EDGE('',*,*,#703,.T.);
#355=ORIENTED_EDGE('',*,*,#704,.F.);
#356=ORIENTED_EDGE('',*,*,#705,.F.);
#357=ORIENTED_EDGE('',*,*,#701,.T.);
#358=ORIENTED_EDGE('',*,*,#706,.T.);
#359=ORIENTED_EDGE('',*,*,#686,.F.);
#360=ORIENTED_EDGE('',*,*,#707,.F.);
#361=ORIENTED_EDGE('',*,*,#704,.T.);
#362=ORIENTED_EDGE('',*,*,#708,.T.);
#363=ORIENTED_EDGE('',*,*,#688,.F.);
#364=ORIENTED_EDGE('',*,*,#709,.F.);
#365=ORIENTED_EDGE('',*,*,#710,.T.);
#366=ORIENTED_EDGE('',*,*,#698,.T.);
#367=ORIENTED_EDGE('',*,*,#705,.T.);
#368=ORIENTED_EDGE('',*,*,#709,.T.);
#369=ORIENTED_EDGE('',*,*,#691,.T.);
#370=ORIENTED_EDGE('',*,*,#694,.T.);
#371=ORIENTED_EDGE('',*,*,#711,.T.);
#372=ORIENTED_EDGE('',*,*,#700,.F.);
#373=ORIENTED_EDGE('',*,*,#712,.T.);
#374=ORIENTED_EDGE('',*,*,#713,.T.);
#375=ORIENTED_EDGE('',*,*,#692,.F.);
#376=ORIENTED_EDGE('',*,*,#683,.F.);
#377=ORIENTED_EDGE('',*,*,#687,.F.);
#378=ORIENTED_EDGE('',*,*,#706,.F.);
#379=ORIENTED_EDGE('',*,*,#714,.F.);
#380=ORIENTED_EDGE('',*,*,#715,.F.);
#381=ORIENTED_EDGE('',*,*,#716,.F.);
#382=ORIENTED_EDGE('',*,*,#717,.F.);
#383=ORIENTED_EDGE('',*,*,#696,.T.);
#384=ORIENTED_EDGE('',*,*,#718,.T.);
#385=ORIENTED_EDGE('',*,*,#719,.T.);
#386=ORIENTED_EDGE('',*,*,#720,.F.);
#387=ORIENTED_EDGE('',*,*,#721,.F.);
#388=ORIENTED_EDGE('',*,*,#722,.F.);
#389=ORIENTED_EDGE('',*,*,#702,.T.);
#390=ORIENTED_EDGE('',*,*,#723,.F.);
#391=ORIENTED_EDGE('',*,*,#719,.F.);
#392=ORIENTED_EDGE('',*,*,#724,.T.);
#393=ORIENTED_EDGE('',*,*,#689,.F.);
#394=ORIENTED_EDGE('',*,*,#708,.F.);
#395=ORIENTED_EDGE('',*,*,#703,.F.);
#396=ORIENTED_EDGE('',*,*,#724,.F.);
#397=ORIENTED_EDGE('',*,*,#718,.F.);
#398=ORIENTED_EDGE('',*,*,#695,.F.);
#399=ORIENTED_EDGE('',*,*,#697,.T.);
#400=ORIENTED_EDGE('',*,*,#720,.T.);
#401=ORIENTED_EDGE('',*,*,#723,.T.);
#402=ORIENTED_EDGE('',*,*,#707,.T.);
#403=ORIENTED_EDGE('',*,*,#685,.T.);
#404=ORIENTED_EDGE('',*,*,#681,.T.);
#405=ORIENTED_EDGE('',*,*,#725,.F.);
#406=ORIENTED_EDGE('',*,*,#714,.T.);
#407=ORIENTED_EDGE('',*,*,#726,.T.);
#408=ORIENTED_EDGE('',*,*,#727,.F.);
#409=ORIENTED_EDGE('',*,*,#726,.F.);
#410=ORIENTED_EDGE('',*,*,#717,.T.);
#411=ORIENTED_EDGE('',*,*,#728,.T.);
#412=ORIENTED_EDGE('',*,*,#729,.F.);
#413=ORIENTED_EDGE('',*,*,#728,.F.);
#414=ORIENTED_EDGE('',*,*,#716,.T.);
#415=ORIENTED_EDGE('',*,*,#730,.T.);
#416=ORIENTED_EDGE('',*,*,#731,.F.);
#417=ORIENTED_EDGE('',*,*,#730,.F.);
#418=ORIENTED_EDGE('',*,*,#715,.T.);
#419=ORIENTED_EDGE('',*,*,#725,.T.);
#420=ORIENTED_EDGE('',*,*,#732,.F.);
#421=ORIENTED_EDGE('',*,*,#733,.F.);
#422=ORIENTED_EDGE('',*,*,#727,.T.);
#423=ORIENTED_EDGE('',*,*,#729,.T.);
#424=ORIENTED_EDGE('',*,*,#731,.T.);
#425=ORIENTED_EDGE('',*,*,#732,.T.);
#426=ORIENTED_EDGE('',*,*,#722,.T.);
#427=ORIENTED_EDGE('',*,*,#734,.F.);
#428=ORIENTED_EDGE('',*,*,#721,.T.);
#429=ORIENTED_EDGE('',*,*,#735,.F.);
#430=ORIENTED_EDGE('',*,*,#736,.F.);
#431=ORIENTED_EDGE('',*,*,#737,.F.);
#432=ORIENTED_EDGE('',*,*,#738,.T.);
#433=ORIENTED_EDGE('',*,*,#739,.F.);
#434=ORIENTED_EDGE('',*,*,#740,.F.);
#435=ORIENTED_EDGE('',*,*,#741,.F.);
#436=ORIENTED_EDGE('',*,*,#742,.T.);
#437=ORIENTED_EDGE('',*,*,#743,.F.);
#438=ORIENTED_EDGE('',*,*,#744,.F.);
#439=ORIENTED_EDGE('',*,*,#745,.F.);
#440=ORIENTED_EDGE('',*,*,#746,.T.);
#441=ORIENTED_EDGE('',*,*,#747,.F.);
#442=ORIENTED_EDGE('',*,*,#748,.F.);
#443=ORIENTED_EDGE('',*,*,#749,.F.);
#444=ORIENTED_EDGE('',*,*,#750,.T.);
#445=ORIENTED_EDGE('',*,*,#733,.T.);
#446=ORIENTED_EDGE('',*,*,#751,.F.);
#447=ORIENTED_EDGE('',*,*,#752,.F.);
#448=ORIENTED_EDGE('',*,*,#753,.F.);
#449=ORIENTED_EDGE('',*,*,#754,.T.);
#450=ORIENTED_EDGE('',*,*,#755,.T.);
#451=ORIENTED_EDGE('',*,*,#756,.F.);
#452=ORIENTED_EDGE('',*,*,#757,.F.);
#453=ORIENTED_EDGE('',*,*,#758,.T.);
#454=ORIENTED_EDGE('',*,*,#753,.T.);
#455=ORIENTED_EDGE('',*,*,#759,.F.);
#456=ORIENTED_EDGE('',*,*,#760,.F.);
#457=ORIENTED_EDGE('',*,*,#761,.T.);
#458=ORIENTED_EDGE('',*,*,#757,.T.);
#459=ORIENTED_EDGE('',*,*,#762,.F.);
#460=ORIENTED_EDGE('',*,*,#763,.F.);
#461=ORIENTED_EDGE('',*,*,#764,.T.);
#462=ORIENTED_EDGE('',*,*,#760,.T.);
#463=ORIENTED_EDGE('',*,*,#765,.F.);
#464=ORIENTED_EDGE('',*,*,#766,.F.);
#465=ORIENTED_EDGE('',*,*,#767,.T.);
#466=ORIENTED_EDGE('',*,*,#763,.T.);
#467=ORIENTED_EDGE('',*,*,#768,.F.);
#468=ORIENTED_EDGE('',*,*,#769,.F.);
#469=ORIENTED_EDGE('',*,*,#770,.T.);
#470=ORIENTED_EDGE('',*,*,#766,.T.);
#471=ORIENTED_EDGE('',*,*,#771,.F.);
#472=ORIENTED_EDGE('',*,*,#772,.F.);
#473=ORIENTED_EDGE('',*,*,#773,.T.);
#474=ORIENTED_EDGE('',*,*,#769,.T.);
#475=ORIENTED_EDGE('',*,*,#774,.F.);
#476=ORIENTED_EDGE('',*,*,#775,.F.);
#477=ORIENTED_EDGE('',*,*,#776,.T.);
#478=ORIENTED_EDGE('',*,*,#777,.T.);
#479=ORIENTED_EDGE('',*,*,#778,.F.);
#480=ORIENTED_EDGE('',*,*,#779,.F.);
#481=ORIENTED_EDGE('',*,*,#780,.T.);
#482=ORIENTED_EDGE('',*,*,#775,.T.);
#483=ORIENTED_EDGE('',*,*,#781,.F.);
#484=ORIENTED_EDGE('',*,*,#782,.F.);
#485=ORIENTED_EDGE('',*,*,#783,.T.);
#486=ORIENTED_EDGE('',*,*,#779,.T.);
#487=ORIENTED_EDGE('',*,*,#784,.F.);
#488=ORIENTED_EDGE('',*,*,#785,.F.);
#489=ORIENTED_EDGE('',*,*,#786,.T.);
#490=ORIENTED_EDGE('',*,*,#782,.T.);
#491=ORIENTED_EDGE('',*,*,#787,.F.);
#492=ORIENTED_EDGE('',*,*,#788,.F.);
#493=ORIENTED_EDGE('',*,*,#789,.T.);
#494=ORIENTED_EDGE('',*,*,#785,.T.);
#495=ORIENTED_EDGE('',*,*,#790,.F.);
#496=ORIENTED_EDGE('',*,*,#791,.F.);
#497=ORIENTED_EDGE('',*,*,#792,.T.);
#498=ORIENTED_EDGE('',*,*,#788,.T.);
#499=ORIENTED_EDGE('',*,*,#793,.F.);
#500=ORIENTED_EDGE('',*,*,#794,.F.);
#501=ORIENTED_EDGE('',*,*,#795,.T.);
#502=ORIENTED_EDGE('',*,*,#791,.T.);
#503=ORIENTED_EDGE('',*,*,#796,.F.);
#504=ORIENTED_EDGE('',*,*,#755,.F.);
#505=ORIENTED_EDGE('',*,*,#797,.T.);
#506=ORIENTED_EDGE('',*,*,#772,.T.);
#507=ORIENTED_EDGE('',*,*,#798,.F.);
#508=ORIENTED_EDGE('',*,*,#777,.F.);
#509=ORIENTED_EDGE('',*,*,#799,.T.);
#510=ORIENTED_EDGE('',*,*,#794,.T.);
#511=ORIENTED_EDGE('',*,*,#751,.T.);
#512=ORIENTED_EDGE('',*,*,#774,.T.);
#513=ORIENTED_EDGE('',*,*,#798,.T.);
#514=ORIENTED_EDGE('',*,*,#793,.T.);
#515=ORIENTED_EDGE('',*,*,#790,.T.);
#516=ORIENTED_EDGE('',*,*,#787,.T.);
#517=ORIENTED_EDGE('',*,*,#784,.T.);
#518=ORIENTED_EDGE('',*,*,#781,.T.);
#519=ORIENTED_EDGE('',*,*,#778,.T.);
#520=ORIENTED_EDGE('',*,*,#752,.T.);
#521=ORIENTED_EDGE('',*,*,#796,.T.);
#522=ORIENTED_EDGE('',*,*,#771,.T.);
#523=ORIENTED_EDGE('',*,*,#768,.T.);
#524=ORIENTED_EDGE('',*,*,#765,.T.);
#525=ORIENTED_EDGE('',*,*,#762,.T.);
#526=ORIENTED_EDGE('',*,*,#759,.T.);
#527=ORIENTED_EDGE('',*,*,#756,.T.);
#528=ORIENTED_EDGE('',*,*,#713,.F.);
#529=ORIENTED_EDGE('',*,*,#800,.T.);
#530=ORIENTED_EDGE('',*,*,#711,.F.);
#531=ORIENTED_EDGE('',*,*,#693,.F.);
#532=ORIENTED_EDGE('',*,*,#754,.F.);
#533=ORIENTED_EDGE('',*,*,#758,.F.);
#534=ORIENTED_EDGE('',*,*,#761,.F.);
#535=ORIENTED_EDGE('',*,*,#764,.F.);
#536=ORIENTED_EDGE('',*,*,#767,.F.);
#537=ORIENTED_EDGE('',*,*,#770,.F.);
#538=ORIENTED_EDGE('',*,*,#773,.F.);
#539=ORIENTED_EDGE('',*,*,#797,.F.);
#540=ORIENTED_EDGE('',*,*,#776,.F.);
#541=ORIENTED_EDGE('',*,*,#780,.F.);
#542=ORIENTED_EDGE('',*,*,#783,.F.);
#543=ORIENTED_EDGE('',*,*,#786,.F.);
#544=ORIENTED_EDGE('',*,*,#789,.F.);
#545=ORIENTED_EDGE('',*,*,#792,.F.);
#546=ORIENTED_EDGE('',*,*,#795,.F.);
#547=ORIENTED_EDGE('',*,*,#799,.F.);
#548=ORIENTED_EDGE('',*,*,#801,.F.);
#549=ORIENTED_EDGE('',*,*,#742,.F.);
#550=ORIENTED_EDGE('',*,*,#802,.T.);
#551=ORIENTED_EDGE('',*,*,#803,.T.);
#552=ORIENTED_EDGE('',*,*,#804,.F.);
#553=ORIENTED_EDGE('',*,*,#805,.F.);
#554=ORIENTED_EDGE('',*,*,#806,.T.);
#555=ORIENTED_EDGE('',*,*,#740,.T.);
#556=ORIENTED_EDGE('',*,*,#807,.F.);
#557=ORIENTED_EDGE('',*,*,#808,.F.);
#558=ORIENTED_EDGE('',*,*,#809,.T.);
#559=ORIENTED_EDGE('',*,*,#805,.T.);
#560=ORIENTED_EDGE('',*,*,#810,.F.);
#561=ORIENTED_EDGE('',*,*,#811,.F.);
#562=ORIENTED_EDGE('',*,*,#812,.T.);
#563=ORIENTED_EDGE('',*,*,#808,.T.);
#564=ORIENTED_EDGE('',*,*,#813,.F.);
#565=ORIENTED_EDGE('',*,*,#814,.F.);
#566=ORIENTED_EDGE('',*,*,#815,.T.);
#567=ORIENTED_EDGE('',*,*,#736,.T.);
#568=ORIENTED_EDGE('',*,*,#816,.F.);
#569=ORIENTED_EDGE('',*,*,#817,.F.);
#570=ORIENTED_EDGE('',*,*,#818,.T.);
#571=ORIENTED_EDGE('',*,*,#814,.T.);
#572=ORIENTED_EDGE('',*,*,#819,.F.);
#573=ORIENTED_EDGE('',*,*,#820,.F.);
#574=ORIENTED_EDGE('',*,*,#821,.T.);
#575=ORIENTED_EDGE('',*,*,#817,.T.);
#576=ORIENTED_EDGE('',*,*,#822,.F.);
#577=ORIENTED_EDGE('',*,*,#823,.F.);
#578=ORIENTED_EDGE('',*,*,#824,.T.);
#579=ORIENTED_EDGE('',*,*,#820,.T.);
#580=ORIENTED_EDGE('',*,*,#825,.F.);
#581=ORIENTED_EDGE('',*,*,#738,.F.);
#582=ORIENTED_EDGE('',*,*,#826,.T.);
#583=ORIENTED_EDGE('',*,*,#823,.T.);
#584=ORIENTED_EDGE('',*,*,#827,.F.);
#585=ORIENTED_EDGE('',*,*,#828,.F.);
#586=ORIENTED_EDGE('',*,*,#829,.T.);
#587=ORIENTED_EDGE('',*,*,#830,.T.);
#588=ORIENTED_EDGE('',*,*,#831,.F.);
#589=ORIENTED_EDGE('',*,*,#832,.F.);
#590=ORIENTED_EDGE('',*,*,#833,.T.);
#591=ORIENTED_EDGE('',*,*,#828,.T.);
#592=ORIENTED_EDGE('',*,*,#834,.F.);
#593=ORIENTED_EDGE('',*,*,#750,.F.);
#594=ORIENTED_EDGE('',*,*,#835,.T.);
#595=ORIENTED_EDGE('',*,*,#832,.T.);
#596=ORIENTED_EDGE('',*,*,#836,.F.);
#597=ORIENTED_EDGE('',*,*,#837,.F.);
#598=ORIENTED_EDGE('',*,*,#838,.T.);
#599=ORIENTED_EDGE('',*,*,#748,.T.);
#600=ORIENTED_EDGE('',*,*,#839,.F.);
#601=ORIENTED_EDGE('',*,*,#746,.F.);
#602=ORIENTED_EDGE('',*,*,#840,.T.);
#603=ORIENTED_EDGE('',*,*,#841,.T.);
#604=ORIENTED_EDGE('',*,*,#842,.F.);
#605=ORIENTED_EDGE('',*,*,#843,.F.);
#606=ORIENTED_EDGE('',*,*,#844,.T.);
#607=ORIENTED_EDGE('',*,*,#744,.T.);
#608=ORIENTED_EDGE('',*,*,#845,.F.);
#609=ORIENTED_EDGE('',*,*,#846,.F.);
#610=ORIENTED_EDGE('',*,*,#847,.T.);
#611=ORIENTED_EDGE('',*,*,#843,.T.);
#612=ORIENTED_EDGE('',*,*,#848,.F.);
#613=ORIENTED_EDGE('',*,*,#849,.F.);
#614=ORIENTED_EDGE('',*,*,#850,.T.);
#615=ORIENTED_EDGE('',*,*,#846,.T.);
#616=ORIENTED_EDGE('',*,*,#851,.F.);
#617=ORIENTED_EDGE('',*,*,#830,.F.);
#618=ORIENTED_EDGE('',*,*,#852,.T.);
#619=ORIENTED_EDGE('',*,*,#837,.T.);
#620=ORIENTED_EDGE('',*,*,#853,.F.);
#621=ORIENTED_EDGE('',*,*,#841,.F.);
#622=ORIENTED_EDGE('',*,*,#854,.T.);
#623=ORIENTED_EDGE('',*,*,#849,.T.);
#624=ORIENTED_EDGE('',*,*,#855,.F.);
#625=ORIENTED_EDGE('',*,*,#803,.F.);
#626=ORIENTED_EDGE('',*,*,#856,.T.);
#627=ORIENTED_EDGE('',*,*,#811,.T.);
#628=ORIENTED_EDGE('',*,*,#734,.T.);
#629=ORIENTED_EDGE('',*,*,#735,.T.);
#630=ORIENTED_EDGE('',*,*,#834,.T.);
#631=ORIENTED_EDGE('',*,*,#831,.T.);
#632=ORIENTED_EDGE('',*,*,#827,.T.);
#633=ORIENTED_EDGE('',*,*,#851,.T.);
#634=ORIENTED_EDGE('',*,*,#836,.T.);
#635=ORIENTED_EDGE('',*,*,#747,.T.);
#636=ORIENTED_EDGE('',*,*,#839,.T.);
#637=ORIENTED_EDGE('',*,*,#853,.T.);
#638=ORIENTED_EDGE('',*,*,#848,.T.);
#639=ORIENTED_EDGE('',*,*,#845,.T.);
#640=ORIENTED_EDGE('',*,*,#842,.T.);
#641=ORIENTED_EDGE('',*,*,#743,.T.);
#642=ORIENTED_EDGE('',*,*,#801,.T.);
#643=ORIENTED_EDGE('',*,*,#855,.T.);
#644=ORIENTED_EDGE('',*,*,#810,.T.);
#645=ORIENTED_EDGE('',*,*,#807,.T.);
#646=ORIENTED_EDGE('',*,*,#804,.T.);
#647=ORIENTED_EDGE('',*,*,#739,.T.);
#648=ORIENTED_EDGE('',*,*,#825,.T.);
#649=ORIENTED_EDGE('',*,*,#822,.T.);
#650=ORIENTED_EDGE('',*,*,#819,.T.);
#651=ORIENTED_EDGE('',*,*,#816,.T.);
#652=ORIENTED_EDGE('',*,*,#813,.T.);
#653=ORIENTED_EDGE('',*,*,#699,.F.);
#654=ORIENTED_EDGE('',*,*,#710,.F.);
#655=ORIENTED_EDGE('',*,*,#800,.F.);
#656=ORIENTED_EDGE('',*,*,#712,.F.);
#657=ORIENTED_EDGE('',*,*,#840,.F.);
#658=ORIENTED_EDGE('',*,*,#745,.T.);
#659=ORIENTED_EDGE('',*,*,#844,.F.);
#660=ORIENTED_EDGE('',*,*,#847,.F.);
#661=ORIENTED_EDGE('',*,*,#850,.F.);
#662=ORIENTED_EDGE('',*,*,#854,.F.);
#663=ORIENTED_EDGE('',*,*,#829,.F.);
#664=ORIENTED_EDGE('',*,*,#833,.F.);
#665=ORIENTED_EDGE('',*,*,#835,.F.);
#666=ORIENTED_EDGE('',*,*,#749,.T.);
#667=ORIENTED_EDGE('',*,*,#838,.F.);
#668=ORIENTED_EDGE('',*,*,#852,.F.);
#669=ORIENTED_EDGE('',*,*,#815,.F.);
#670=ORIENTED_EDGE('',*,*,#818,.F.);
#671=ORIENTED_EDGE('',*,*,#821,.F.);
#672=ORIENTED_EDGE('',*,*,#824,.F.);
#673=ORIENTED_EDGE('',*,*,#826,.F.);
#674=ORIENTED_EDGE('',*,*,#737,.T.);
#675=ORIENTED_EDGE('',*,*,#802,.F.);
#676=ORIENTED_EDGE('',*,*,#741,.T.);
#677=ORIENTED_EDGE('',*,*,#806,.F.);
#678=ORIENTED_EDGE('',*,*,#809,.F.);
#679=ORIENTED_EDGE('',*,*,#812,.F.);
#680=ORIENTED_EDGE('',*,*,#856,.F.);
#681=EDGE_CURVE('',#857,#858,#976,.T.);
#682=EDGE_CURVE('',#857,#859,#71,.T.);
#683=EDGE_CURVE('',#859,#860,#977,.T.);
#684=EDGE_CURVE('',#858,#860,#72,.T.);
#685=EDGE_CURVE('',#861,#857,#73,.T.);
#686=EDGE_CURVE('',#861,#862,#74,.T.);
#687=EDGE_CURVE('',#862,#859,#75,.T.);
#688=EDGE_CURVE('',#863,#864,#76,.T.);
#689=EDGE_CURVE('',#864,#865,#978,.T.);
#690=EDGE_CURVE('',#866,#865,#77,.T.);
#691=EDGE_CURVE('',#863,#866,#979,.T.);
#692=EDGE_CURVE('',#860,#867,#78,.T.);
#693=EDGE_CURVE('',#867,#868,#79,.T.);
#694=EDGE_CURVE('',#866,#868,#80,.T.);
#695=EDGE_CURVE('',#865,#869,#81,.T.);
#696=EDGE_CURVE('',#870,#869,#82,.T.);
#697=EDGE_CURVE('',#858,#870,#83,.T.);
#698=EDGE_CURVE('',#871,#872,#84,.T.);
#699=EDGE_CURVE('',#871,#873,#85,.T.);
#700=EDGE_CURVE('',#873,#874,#86,.T.);
#701=EDGE_CURVE('',#872,#874,#87,.T.);
#702=EDGE_CURVE('',#875,#876,#88,.T.);
#703=EDGE_CURVE('',#875,#877,#980,.T.);
#704=EDGE_CURVE('',#878,#877,#89,.T.);
#705=EDGE_CURVE('',#872,#878,#981,.T.);
#706=EDGE_CURVE('',#874,#862,#982,.T.);
#707=EDGE_CURVE('',#876,#861,#983,.T.);
#708=EDGE_CURVE('',#877,#864,#90,.T.);
#709=EDGE_CURVE('',#878,#863,#91,.T.);
#710=EDGE_CURVE('',#879,#871,#92,.T.);
#711=EDGE_CURVE('',#868,#879,#93,.T.);
#712=EDGE_CURVE('',#873,#880,#94,.T.);
#713=EDGE_CURVE('',#880,#867,#95,.T.);
#714=EDGE_CURVE('',#881,#882,#96,.T.);
#715=EDGE_CURVE('',#883,#881,#97,.T.);
#716=EDGE_CURVE('',#884,#883,#24,.T.);
#717=EDGE_CURVE('',#882,#884,#98,.T.);
#718=EDGE_CURVE('',#869,#885,#99,.T.);
#719=EDGE_CURVE('',#885,#886,#100,.T.);
#720=EDGE_CURVE('',#870,#886,#101,.T.);
#721=EDGE_CURVE('',#887,#887,#984,.T.);
#722=EDGE_CURVE('',#888,#888,#985,.T.);
#723=EDGE_CURVE('',#886,#876,#102,.T.);
#724=EDGE_CURVE('',#885,#875,#103,.T.);
#725=EDGE_CURVE('',#881,#889,#104,.T.);
#726=EDGE_CURVE('',#882,#890,#105,.T.);
#727=EDGE_CURVE('',#889,#890,#106,.T.);
#728=EDGE_CURVE('',#884,#891,#107,.T.);
#729=EDGE_CURVE('',#890,#891,#108,.T.);
#730=EDGE_CURVE('',#883,#892,#109,.T.);
#731=EDGE_CURVE('',#891,#892,#986,.T.);
#732=EDGE_CURVE('',#892,#889,#110,.T.);
#733=EDGE_CURVE('',#893,#893,#987,.T.);
#734=EDGE_CURVE('',#894,#894,#988,.T.);
#735=EDGE_CURVE('',#895,#896,#989,.T.);
#736=EDGE_CURVE('',#897,#895,#111,.T.);
#737=EDGE_CURVE('',#898,#897,#990,.T.);
#738=EDGE_CURVE('',#898,#899,#112,.T.);
#739=EDGE_CURVE('',#900,#899,#991,.T.);
#740=EDGE_CURVE('',#901,#900,#113,.T.);
#741=EDGE_CURVE('',#902,#901,#992,.T.);
#742=EDGE_CURVE('',#902,#903,#114,.T.);
#743=EDGE_CURVE('',#904,#903,#993,.T.);
#744=EDGE_CURVE('',#905,#904,#115,.T.);
#745=EDGE_CURVE('',#906,#905,#994,.T.);
#746=EDGE_CURVE('',#906,#907,#116,.T.);
#747=EDGE_CURVE('',#908,#907,#995,.T.);
#748=EDGE_CURVE('',#909,#908,#117,.T.);
#749=EDGE_CURVE('',#910,#909,#996,.T.);
#750=EDGE_CURVE('',#910,#896,#118,.T.);
#751=EDGE_CURVE('',#911,#911,#997,.T.);
#752=EDGE_CURVE('',#912,#913,#998,.T.);
#753=EDGE_CURVE('',#914,#912,#119,.T.);
#754=EDGE_CURVE('',#914,#915,#999,.T.);
#755=EDGE_CURVE('',#915,#913,#120,.T.);
#756=EDGE_CURVE('',#916,#912,#121,.T.);
#757=EDGE_CURVE('',#917,#916,#122,.T.);
#758=EDGE_CURVE('',#917,#914,#123,.T.);
#759=EDGE_CURVE('',#918,#916,#1000,.T.);
#760=EDGE_CURVE('',#919,#918,#124,.T.);
#761=EDGE_CURVE('',#919,#917,#1001,.T.);
#762=EDGE_CURVE('',#920,#918,#125,.T.);
#763=EDGE_CURVE('',#921,#920,#126,.T.);
#764=EDGE_CURVE('',#921,#919,#127,.T.);
#765=EDGE_CURVE('',#922,#920,#1002,.T.);
#766=EDGE_CURVE('',#923,#922,#128,.T.);
#767=EDGE_CURVE('',#923,#921,#1003,.T.);
#768=EDGE_CURVE('',#924,#922,#129,.T.);
#769=EDGE_CURVE('',#925,#924,#130,.T.);
#770=EDGE_CURVE('',#925,#923,#131,.T.);
#771=EDGE_CURVE('',#926,#924,#1004,.T.);
#772=EDGE_CURVE('',#927,#926,#132,.T.);
#773=EDGE_CURVE('',#927,#925,#1005,.T.);
#774=EDGE_CURVE('',#928,#929,#1006,.T.);
#775=EDGE_CURVE('',#930,#928,#133,.T.);
#776=EDGE_CURVE('',#930,#931,#1007,.T.);
#777=EDGE_CURVE('',#931,#929,#134,.T.);
#778=EDGE_CURVE('',#932,#928,#135,.T.);
#779=EDGE_CURVE('',#933,#932,#136,.T.);
#780=EDGE_CURVE('',#933,#930,#137,.T.);
#781=EDGE_CURVE('',#934,#932,#1008,.T.);
#782=EDGE_CURVE('',#935,#934,#138,.T.);
#783=EDGE_CURVE('',#935,#933,#1009,.T.);
#784=EDGE_CURVE('',#936,#934,#139,.T.);
#785=EDGE_CURVE('',#937,#936,#140,.T.);
#786=EDGE_CURVE('',#937,#935,#141,.T.);
#787=EDGE_CURVE('',#938,#936,#1010,.T.);
#788=EDGE_CURVE('',#939,#938,#142,.T.);
#789=EDGE_CURVE('',#939,#937,#1011,.T.);
#790=EDGE_CURVE('',#940,#938,#143,.T.);
#791=EDGE_CURVE('',#941,#940,#144,.T.);
#792=EDGE_CURVE('',#941,#939,#145,.T.);
#793=EDGE_CURVE('',#942,#940,#1012,.T.);
#794=EDGE_CURVE('',#943,#942,#146,.T.);
#795=EDGE_CURVE('',#943,#941,#1013,.T.);
#796=EDGE_CURVE('',#913,#926,#147,.T.);
#797=EDGE_CURVE('',#915,#927,#148,.T.);
#798=EDGE_CURVE('',#929,#942,#149,.T.);
#799=EDGE_CURVE('',#931,#943,#150,.T.);
#800=EDGE_CURVE('',#880,#879,#151,.T.);
#801=EDGE_CURVE('',#903,#944,#152,.T.);
#802=EDGE_CURVE('',#902,#945,#153,.T.);
#803=EDGE_CURVE('',#945,#944,#154,.T.);
#804=EDGE_CURVE('',#946,#900,#155,.T.);
#805=EDGE_CURVE('',#947,#946,#156,.T.);
#806=EDGE_CURVE('',#947,#901,#157,.T.);
#807=EDGE_CURVE('',#948,#946,#158,.T.);
#808=EDGE_CURVE('',#949,#948,#159,.T.);
#809=EDGE_CURVE('',#949,#947,#160,.T.);
#810=EDGE_CURVE('',#950,#948,#1014,.T.);
#811=EDGE_CURVE('',#951,#950,#161,.T.);
#812=EDGE_CURVE('',#951,#949,#1015,.T.);
#813=EDGE_CURVE('',#952,#895,#162,.T.);
#814=EDGE_CURVE('',#953,#952,#163,.T.);
#815=EDGE_CURVE('',#953,#897,#164,.T.);
#816=EDGE_CURVE('',#954,#952,#165,.T.);
#817=EDGE_CURVE('',#955,#954,#166,.T.);
#818=EDGE_CURVE('',#955,#953,#167,.T.);
#819=EDGE_CURVE('',#956,#954,#1016,.T.);
#820=EDGE_CURVE('',#957,#956,#168,.T.);
#821=EDGE_CURVE('',#957,#955,#1017,.T.);
#822=EDGE_CURVE('',#958,#956,#169,.T.);
#823=EDGE_CURVE('',#959,#958,#170,.T.);
#824=EDGE_CURVE('',#959,#957,#171,.T.);
#825=EDGE_CURVE('',#899,#958,#172,.T.);
#826=EDGE_CURVE('',#898,#959,#173,.T.);
#827=EDGE_CURVE('',#960,#961,#1018,.T.);
#828=EDGE_CURVE('',#962,#960,#174,.T.);
#829=EDGE_CURVE('',#962,#963,#1019,.T.);
#830=EDGE_CURVE('',#963,#961,#175,.T.);
#831=EDGE_CURVE('',#964,#960,#176,.T.);
#832=EDGE_CURVE('',#965,#964,#177,.T.);
#833=EDGE_CURVE('',#965,#962,#178,.T.);
#834=EDGE_CURVE('',#896,#964,#179,.T.);
#835=EDGE_CURVE('',#910,#965,#180,.T.);
#836=EDGE_CURVE('',#966,#908,#181,.T.);
#837=EDGE_CURVE('',#967,#966,#182,.T.);
#838=EDGE_CURVE('',#967,#909,#183,.T.);
#839=EDGE_CURVE('',#907,#968,#184,.T.);
#840=EDGE_CURVE('',#906,#969,#185,.T.);
#841=EDGE_CURVE('',#969,#968,#186,.T.);
#842=EDGE_CURVE('',#970,#904,#187,.T.);
#843=EDGE_CURVE('',#971,#970,#188,.T.);
#844=EDGE_CURVE('',#971,#905,#189,.T.);
#845=EDGE_CURVE('',#972,#970,#190,.T.);
#846=EDGE_CURVE('',#973,#972,#191,.T.);
#847=EDGE_CURVE('',#973,#971,#192,.T.);
#848=EDGE_CURVE('',#974,#972,#1020,.T.);
#849=EDGE_CURVE('',#975,#974,#193,.T.);
#850=EDGE_CURVE('',#975,#973,#1021,.T.);
#851=EDGE_CURVE('',#961,#966,#194,.T.);
#852=EDGE_CURVE('',#963,#967,#195,.T.);
#853=EDGE_CURVE('',#968,#974,#196,.T.);
#854=EDGE_CURVE('',#969,#975,#197,.T.);
#855=EDGE_CURVE('',#944,#950,#198,.T.);
#856=EDGE_CURVE('',#945,#951,#199,.T.);
#857=VERTEX_POINT('',#1748);
#858=VERTEX_POINT('',#1749);
#859=VERTEX_POINT('',#1751);
#860=VERTEX_POINT('',#1753);
#861=VERTEX_POINT('',#1757);
#862=VERTEX_POINT('',#1759);
#863=VERTEX_POINT('',#1763);
#864=VERTEX_POINT('',#1764);
#865=VERTEX_POINT('',#1766);
#866=VERTEX_POINT('',#1768);
#867=VERTEX_POINT('',#1772);
#868=VERTEX_POINT('',#1774);
#869=VERTEX_POINT('',#1777);
#870=VERTEX_POINT('',#1779);
#871=VERTEX_POINT('',#1783);
#872=VERTEX_POINT('',#1784);
#873=VERTEX_POINT('',#1786);
#874=VERTEX_POINT('',#1788);
#875=VERTEX_POINT('',#1792);
#876=VERTEX_POINT('',#1793);
#877=VERTEX_POINT('',#1795);
#878=VERTEX_POINT('',#1797);
#879=VERTEX_POINT('',#1806);
#880=VERTEX_POINT('',#1810);
#881=VERTEX_POINT('',#1814);
#882=VERTEX_POINT('',#1815);
#883=VERTEX_POINT('',#1817);
#884=VERTEX_POINT('',#1819);
#885=VERTEX_POINT('',#1822);
#886=VERTEX_POINT('',#1824);
#887=VERTEX_POINT('',#1828);
#888=VERTEX_POINT('',#1830);
#889=VERTEX_POINT('',#1837);
#890=VERTEX_POINT('',#1839);
#891=VERTEX_POINT('',#1843);
#892=VERTEX_POINT('',#1847);
#893=VERTEX_POINT('',#1853);
#894=VERTEX_POINT('',#1856);
#895=VERTEX_POINT('',#1859);
#896=VERTEX_POINT('',#1860);
#897=VERTEX_POINT('',#1862);
#898=VERTEX_POINT('',#1864);
#899=VERTEX_POINT('',#1866);
#900=VERTEX_POINT('',#1868);
#901=VERTEX_POINT('',#1870);
#902=VERTEX_POINT('',#1872);
#903=VERTEX_POINT('',#1874);
#904=VERTEX_POINT('',#1876);
#905=VERTEX_POINT('',#1878);
#906=VERTEX_POINT('',#1880);
#907=VERTEX_POINT('',#1882);
#908=VERTEX_POINT('',#1884);
#909=VERTEX_POINT('',#1886);
#910=VERTEX_POINT('',#1888);
#911=VERTEX_POINT('',#1892);
#912=VERTEX_POINT('',#1895);
#913=VERTEX_POINT('',#1896);
#914=VERTEX_POINT('',#1898);
#915=VERTEX_POINT('',#1900);
#916=VERTEX_POINT('',#1904);
#917=VERTEX_POINT('',#1906);
#918=VERTEX_POINT('',#1910);
#919=VERTEX_POINT('',#1912);
#920=VERTEX_POINT('',#1916);
#921=VERTEX_POINT('',#1918);
#922=VERTEX_POINT('',#1922);
#923=VERTEX_POINT('',#1924);
#924=VERTEX_POINT('',#1928);
#925=VERTEX_POINT('',#1930);
#926=VERTEX_POINT('',#1934);
#927=VERTEX_POINT('',#1936);
#928=VERTEX_POINT('',#1940);
#929=VERTEX_POINT('',#1941);
#930=VERTEX_POINT('',#1943);
#931=VERTEX_POINT('',#1945);
#932=VERTEX_POINT('',#1949);
#933=VERTEX_POINT('',#1951);
#934=VERTEX_POINT('',#1955);
#935=VERTEX_POINT('',#1957);
#936=VERTEX_POINT('',#1961);
#937=VERTEX_POINT('',#1963);
#938=VERTEX_POINT('',#1967);
#939=VERTEX_POINT('',#1969);
#940=VERTEX_POINT('',#1973);
#941=VERTEX_POINT('',#1975);
#942=VERTEX_POINT('',#1979);
#943=VERTEX_POINT('',#1981);
#944=VERTEX_POINT('',#1995);
#945=VERTEX_POINT('',#1997);
#946=VERTEX_POINT('',#2001);
#947=VERTEX_POINT('',#2003);
#948=VERTEX_POINT('',#2007);
#949=VERTEX_POINT('',#2009);
#950=VERTEX_POINT('',#2013);
#951=VERTEX_POINT('',#2015);
#952=VERTEX_POINT('',#2019);
#953=VERTEX_POINT('',#2021);
#954=VERTEX_POINT('',#2025);
#955=VERTEX_POINT('',#2027);
#956=VERTEX_POINT('',#2031);
#957=VERTEX_POINT('',#2033);
#958=VERTEX_POINT('',#2037);
#959=VERTEX_POINT('',#2039);
#960=VERTEX_POINT('',#2046);
#961=VERTEX_POINT('',#2047);
#962=VERTEX_POINT('',#2049);
#963=VERTEX_POINT('',#2051);
#964=VERTEX_POINT('',#2055);
#965=VERTEX_POINT('',#2057);
#966=VERTEX_POINT('',#2064);
#967=VERTEX_POINT('',#2066);
#968=VERTEX_POINT('',#2070);
#969=VERTEX_POINT('',#2072);
#970=VERTEX_POINT('',#2076);
#971=VERTEX_POINT('',#2078);
#972=VERTEX_POINT('',#2082);
#973=VERTEX_POINT('',#2084);
#974=VERTEX_POINT('',#2088);
#975=VERTEX_POINT('',#2090);
#976=CIRCLE('',#1276,0.99999999999999);
#977=CIRCLE('',#1277,0.99999999999999);
#978=CIRCLE('',#1280,0.99999999999999);
#979=CIRCLE('',#1281,0.99999999999999);
#980=CIRCLE('',#1285,0.999999999999984);
#981=CIRCLE('',#1286,0.999999999999984);
#982=CIRCLE('',#1287,0.999999999999984);
#983=CIRCLE('',#1288,0.999999999999984);
#984=CIRCLE('',#1295,2.65);
#985=CIRCLE('',#1296,2.65);
#986=CIRCLE('',#1302,4.5);
#987=CIRCLE('',#1305,2.65);
#988=CIRCLE('',#1307,2.65);
#989=CIRCLE('',#1309,2.65);
#990=CIRCLE('',#1310,2.65);
#991=CIRCLE('',#1311,2.65);
#992=CIRCLE('',#1312,2.65);
#993=CIRCLE('',#1313,2.65);
#994=CIRCLE('',#1314,2.65);
#995=CIRCLE('',#1315,2.65);
#996=CIRCLE('',#1316,2.65);
#997=CIRCLE('',#1318,2.65);
#998=CIRCLE('',#1320,0.300000000000002);
#999=CIRCLE('',#1321,0.300000000000002);
#1000=CIRCLE('',#1324,0.299999999999993);
#1001=CIRCLE('',#1325,0.299999999999993);
#1002=CIRCLE('',#1328,0.299999999999998);
#1003=CIRCLE('',#1329,0.299999999999998);
#1004=CIRCLE('',#1332,0.299999999999999);
#1005=CIRCLE('',#1333,0.299999999999999);
#1006=CIRCLE('',#1335,0.3);
#1007=CIRCLE('',#1336,0.3);
#1008=CIRCLE('',#1339,0.3);
#1009=CIRCLE('',#1340,0.3);
#1010=CIRCLE('',#1343,0.3);
#1011=CIRCLE('',#1344,0.3);
#1012=CIRCLE('',#1347,0.299999999999999);
#1013=CIRCLE('',#1348,0.299999999999999);
#1014=CIRCLE('',#1358,0.999999999999997);
#1015=CIRCLE('',#1359,0.999999999999997);
#1016=CIRCLE('',#1363,0.999999999999999);
#1017=CIRCLE('',#1364,0.999999999999999);
#1018=CIRCLE('',#1368,0.999999999999999);
#1019=CIRCLE('',#1369,0.999999999999999);
#1020=CIRCLE('',#1377,1.);
#1021=CIRCLE('',#1378,1.);
#1022=EDGE_LOOP('',(#329,#330,#331,#332));
#1023=EDGE_LOOP('',(#333,#334,#335,#336));
#1024=EDGE_LOOP('',(#337,#338,#339,#340));
#1025=EDGE_LOOP('',(#341,#342,#343,#344,#345,#346,#347,#348));
#1026=EDGE_LOOP('',(#349,#350,#351,#352));
#1027=EDGE_LOOP('',(#353,#354,#355,#356,#357,#358,#359,#360));
#1028=EDGE_LOOP('',(#361,#362,#363,#364));
#1029=EDGE_LOOP('',(#365,#366,#367,#368,#369,#370,#371));
#1030=EDGE_LOOP('',(#372,#373,#374,#375,#376,#377,#378));
#1031=EDGE_LOOP('',(#379,#380,#381,#382));
#1032=EDGE_LOOP('',(#383,#384,#385,#386));
#1033=EDGE_LOOP('',(#387));
#1034=EDGE_LOOP('',(#388));
#1035=EDGE_LOOP('',(#389,#390,#391,#392));
#1036=EDGE_LOOP('',(#393,#394,#395,#396,#397,#398));
#1037=EDGE_LOOP('',(#399,#400,#401,#402,#403,#404));
#1038=EDGE_LOOP('',(#405,#406,#407,#408));
#1039=EDGE_LOOP('',(#409,#410,#411,#412));
#1040=EDGE_LOOP('',(#413,#414,#415,#416));
#1041=EDGE_LOOP('',(#417,#418,#419,#420));
#1042=EDGE_LOOP('',(#421));
#1043=EDGE_LOOP('',(#422,#423,#424,#425));
#1044=EDGE_LOOP('',(#426));
#1045=EDGE_LOOP('',(#427));
#1046=EDGE_LOOP('',(#428));
#1047=EDGE_LOOP('',(#429,#430,#431,#432,#433,#434,#435,#436,#437,#438,#439,
#440,#441,#442,#443,#444));
#1048=EDGE_LOOP('',(#445));
#1049=EDGE_LOOP('',(#446));
#1050=EDGE_LOOP('',(#447,#448,#449,#450));
#1051=EDGE_LOOP('',(#451,#452,#453,#454));
#1052=EDGE_LOOP('',(#455,#456,#457,#458));
#1053=EDGE_LOOP('',(#459,#460,#461,#462));
#1054=EDGE_LOOP('',(#463,#464,#465,#466));
#1055=EDGE_LOOP('',(#467,#468,#469,#470));
#1056=EDGE_LOOP('',(#471,#472,#473,#474));
#1057=EDGE_LOOP('',(#475,#476,#477,#478));
#1058=EDGE_LOOP('',(#479,#480,#481,#482));
#1059=EDGE_LOOP('',(#483,#484,#485,#486));
#1060=EDGE_LOOP('',(#487,#488,#489,#490));
#1061=EDGE_LOOP('',(#491,#492,#493,#494));
#1062=EDGE_LOOP('',(#495,#496,#497,#498));
#1063=EDGE_LOOP('',(#499,#500,#501,#502));
#1064=EDGE_LOOP('',(#503,#504,#505,#506));
#1065=EDGE_LOOP('',(#507,#508,#509,#510));
#1066=EDGE_LOOP('',(#511));
#1067=EDGE_LOOP('',(#512,#513,#514,#515,#516,#517,#518,#519));
#1068=EDGE_LOOP('',(#520,#521,#522,#523,#524,#525,#526,#527));
#1069=EDGE_LOOP('',(#528,#529,#530,#531));
#1070=EDGE_LOOP('',(#532,#533,#534,#535,#536,#537,#538,#539));
#1071=EDGE_LOOP('',(#540,#541,#542,#543,#544,#545,#546,#547));
#1072=EDGE_LOOP('',(#548,#549,#550,#551));
#1073=EDGE_LOOP('',(#552,#553,#554,#555));
#1074=EDGE_LOOP('',(#556,#557,#558,#559));
#1075=EDGE_LOOP('',(#560,#561,#562,#563));
#1076=EDGE_LOOP('',(#564,#565,#566,#567));
#1077=EDGE_LOOP('',(#568,#569,#570,#571));
#1078=EDGE_LOOP('',(#572,#573,#574,#575));
#1079=EDGE_LOOP('',(#576,#577,#578,#579));
#1080=EDGE_LOOP('',(#580,#581,#582,#583));
#1081=EDGE_LOOP('',(#584,#585,#586,#587));
#1082=EDGE_LOOP('',(#588,#589,#590,#591));
#1083=EDGE_LOOP('',(#592,#593,#594,#595));
#1084=EDGE_LOOP('',(#596,#597,#598,#599));
#1085=EDGE_LOOP('',(#600,#601,#602,#603));
#1086=EDGE_LOOP('',(#604,#605,#606,#607));
#1087=EDGE_LOOP('',(#608,#609,#610,#611));
#1088=EDGE_LOOP('',(#612,#613,#614,#615));
#1089=EDGE_LOOP('',(#616,#617,#618,#619));
#1090=EDGE_LOOP('',(#620,#621,#622,#623));
#1091=EDGE_LOOP('',(#624,#625,#626,#627));
#1092=EDGE_LOOP('',(#628));
#1093=EDGE_LOOP('',(#629,#630,#631,#632,#633,#634,#635,#636,#637,#638,#639,
#640,#641,#642,#643,#644,#645,#646,#647,#648,#649,#650,#651,#652));
#1094=EDGE_LOOP('',(#653,#654,#655,#656));
#1095=EDGE_LOOP('',(#657,#658,#659,#660,#661,#662));
#1096=EDGE_LOOP('',(#663,#664,#665,#666,#667,#668));
#1097=EDGE_LOOP('',(#669,#670,#671,#672,#673,#674));
#1098=EDGE_LOOP('',(#675,#676,#677,#678,#679,#680));
#1099=FACE_BOUND('',#1022,.T.);
#1100=FACE_BOUND('',#1023,.T.);
#1101=FACE_BOUND('',#1024,.T.);
#1102=FACE_BOUND('',#1025,.T.);
#1103=FACE_BOUND('',#1026,.T.);
#1104=FACE_BOUND('',#1027,.T.);
#1105=FACE_BOUND('',#1028,.T.);
#1106=FACE_BOUND('',#1029,.T.);
#1107=FACE_BOUND('',#1030,.T.);
#1108=FACE_BOUND('',#1031,.T.);
#1109=FACE_BOUND('',#1032,.T.);
#1110=FACE_BOUND('',#1033,.T.);
#1111=FACE_BOUND('',#1034,.T.);
#1112=FACE_BOUND('',#1035,.T.);
#1113=FACE_BOUND('',#1036,.T.);
#1114=FACE_BOUND('',#1037,.T.);
#1115=FACE_BOUND('',#1038,.T.);
#1116=FACE_BOUND('',#1039,.T.);
#1117=FACE_BOUND('',#1040,.T.);
#1118=FACE_BOUND('',#1041,.T.);
#1119=FACE_BOUND('',#1042,.T.);
#1120=FACE_BOUND('',#1043,.T.);
#1121=FACE_BOUND('',#1044,.T.);
#1122=FACE_BOUND('',#1045,.T.);
#1123=FACE_BOUND('',#1046,.T.);
#1124=FACE_BOUND('',#1047,.T.);
#1125=FACE_BOUND('',#1048,.T.);
#1126=FACE_BOUND('',#1049,.T.);
#1127=FACE_BOUND('',#1050,.T.);
#1128=FACE_BOUND('',#1051,.T.);
#1129=FACE_BOUND('',#1052,.T.);
#1130=FACE_BOUND('',#1053,.T.);
#1131=FACE_BOUND('',#1054,.T.);
#1132=FACE_BOUND('',#1055,.T.);
#1133=FACE_BOUND('',#1056,.T.);
#1134=FACE_BOUND('',#1057,.T.);
#1135=FACE_BOUND('',#1058,.T.);
#1136=FACE_BOUND('',#1059,.T.);
#1137=FACE_BOUND('',#1060,.T.);
#1138=FACE_BOUND('',#1061,.T.);
#1139=FACE_BOUND('',#1062,.T.);
#1140=FACE_BOUND('',#1063,.T.);
#1141=FACE_BOUND('',#1064,.T.);
#1142=FACE_BOUND('',#1065,.T.);
#1143=FACE_BOUND('',#1066,.T.);
#1144=FACE_BOUND('',#1067,.T.);
#1145=FACE_BOUND('',#1068,.T.);
#1146=FACE_BOUND('',#1069,.T.);
#1147=FACE_BOUND('',#1070,.T.);
#1148=FACE_BOUND('',#1071,.T.);
#1149=FACE_BOUND('',#1072,.T.);
#1150=FACE_BOUND('',#1073,.T.);
#1151=FACE_BOUND('',#1074,.T.);
#1152=FACE_BOUND('',#1075,.T.);
#1153=FACE_BOUND('',#1076,.T.);
#1154=FACE_BOUND('',#1077,.T.);
#1155=FACE_BOUND('',#1078,.T.);
#1156=FACE_BOUND('',#1079,.T.);
#1157=FACE_BOUND('',#1080,.T.);
#1158=FACE_BOUND('',#1081,.T.);
#1159=FACE_BOUND('',#1082,.T.);
#1160=FACE_BOUND('',#1083,.T.);
#1161=FACE_BOUND('',#1084,.T.);
#1162=FACE_BOUND('',#1085,.T.);
#1163=FACE_BOUND('',#1086,.T.);
#1164=FACE_BOUND('',#1087,.T.);
#1165=FACE_BOUND('',#1088,.T.);
#1166=FACE_BOUND('',#1089,.T.);
#1167=FACE_BOUND('',#1090,.T.);
#1168=FACE_BOUND('',#1091,.T.);
#1169=FACE_BOUND('',#1092,.T.);
#1170=FACE_BOUND('',#1093,.T.);
#1171=FACE_BOUND('',#1094,.T.);
#1172=FACE_BOUND('',#1095,.T.);
#1173=FACE_BOUND('',#1096,.T.);
#1174=FACE_BOUND('',#1097,.T.);
#1175=FACE_BOUND('',#1098,.T.);
#1176=CYLINDRICAL_SURFACE('',#1275,0.99999999999999);
#1177=CYLINDRICAL_SURFACE('',#1279,0.99999999999999);
#1178=CYLINDRICAL_SURFACE('',#1284,0.999999999999984);
#1179=CYLINDRICAL_SURFACE('',#1301,4.5);
#1180=CYLINDRICAL_SURFACE('',#1306,2.65);
#1181=CYLINDRICAL_SURFACE('',#1308,2.65);
#1182=CYLINDRICAL_SURFACE('',#1317,2.65);
#1183=CYLINDRICAL_SURFACE('',#1319,0.300000000000002);
#1184=CYLINDRICAL_SURFACE('',#1323,0.299999999999993);
#1185=CYLINDRICAL_SURFACE('',#1327,0.299999999999998);
#1186=CYLINDRICAL_SURFACE('',#1331,0.299999999999999);
#1187=CYLINDRICAL_SURFACE('',#1334,0.3);
#1188=CYLINDRICAL_SURFACE('',#1338,0.3);
#1189=CYLINDRICAL_SURFACE('',#1342,0.3);
#1190=CYLINDRICAL_SURFACE('',#1346,0.299999999999999);
#1191=CYLINDRICAL_SURFACE('',#1357,0.999999999999997);
#1192=CYLINDRICAL_SURFACE('',#1362,0.999999999999999);
#1193=CYLINDRICAL_SURFACE('',#1367,0.999999999999999);
#1194=CYLINDRICAL_SURFACE('',#1376,1.);
#1195=ADVANCED_FACE('',(#1099),#1176,.T.);
#1196=ADVANCED_FACE('',(#1100),#25,.F.);
#1197=ADVANCED_FACE('',(#1101),#1177,.T.);
#1198=ADVANCED_FACE('',(#1102),#26,.F.);
#1199=ADVANCED_FACE('',(#1103),#27,.F.);
#1200=ADVANCED_FACE('',(#1104),#1178,.T.);
#1201=ADVANCED_FACE('',(#1105),#28,.F.);
#1202=ADVANCED_FACE('',(#1106),#29,.T.);
#1203=ADVANCED_FACE('',(#1107),#30,.F.);
#1204=ADVANCED_FACE('',(#1108,#1109),#31,.T.);
#1205=ADVANCED_FACE('',(#1110,#1111,#1112),#32,.T.);
#1206=ADVANCED_FACE('',(#1113),#33,.F.);
#1207=ADVANCED_FACE('',(#1114),#34,.T.);
#1208=ADVANCED_FACE('',(#1115),#35,.T.);
#1209=ADVANCED_FACE('',(#1116),#36,.T.);
#1210=ADVANCED_FACE('',(#1117),#1179,.T.);
#1211=ADVANCED_FACE('',(#1118),#37,.T.);
#1212=ADVANCED_FACE('',(#1119,#1120),#38,.T.);
#1213=ADVANCED_FACE('',(#1121,#1122),#1180,.F.);
#1214=ADVANCED_FACE('',(#1123,#1124),#1181,.F.);
#1215=ADVANCED_FACE('',(#1125,#1126),#1182,.F.);
#1216=ADVANCED_FACE('',(#1127),#1183,.T.);
#1217=ADVANCED_FACE('',(#1128),#39,.T.);
#1218=ADVANCED_FACE('',(#1129),#1184,.T.);
#1219=ADVANCED_FACE('',(#1130),#40,.T.);
#1220=ADVANCED_FACE('',(#1131),#1185,.T.);
#1221=ADVANCED_FACE('',(#1132),#41,.T.);
#1222=ADVANCED_FACE('',(#1133),#1186,.T.);
#1223=ADVANCED_FACE('',(#1134),#1187,.T.);
#1224=ADVANCED_FACE('',(#1135),#42,.T.);
#1225=ADVANCED_FACE('',(#1136),#1188,.T.);
#1226=ADVANCED_FACE('',(#1137),#43,.T.);
#1227=ADVANCED_FACE('',(#1138),#1189,.T.);
#1228=ADVANCED_FACE('',(#1139),#44,.T.);
#1229=ADVANCED_FACE('',(#1140),#1190,.T.);
#1230=ADVANCED_FACE('',(#1141),#45,.T.);
#1231=ADVANCED_FACE('',(#1142),#46,.T.);
#1232=ADVANCED_FACE('',(#1143,#1144,#1145,#1146),#47,.F.);
#1233=ADVANCED_FACE('',(#1147),#48,.F.);
#1234=ADVANCED_FACE('',(#1148),#49,.F.);
#1235=ADVANCED_FACE('',(#1149),#50,.T.);
#1236=ADVANCED_FACE('',(#1150),#51,.T.);
#1237=ADVANCED_FACE('',(#1151),#52,.T.);
#1238=ADVANCED_FACE('',(#1152),#1191,.T.);
#1239=ADVANCED_FACE('',(#1153),#53,.T.);
#1240=ADVANCED_FACE('',(#1154),#54,.T.);
#1241=ADVANCED_FACE('',(#1155),#1192,.T.);
#1242=ADVANCED_FACE('',(#1156),#55,.T.);
#1243=ADVANCED_FACE('',(#1157),#56,.T.);
#1244=ADVANCED_FACE('',(#1158),#1193,.T.);
#1245=ADVANCED_FACE('',(#1159),#57,.T.);
#1246=ADVANCED_FACE('',(#1160),#58,.T.);
#1247=ADVANCED_FACE('',(#1161),#59,.T.);
#1248=ADVANCED_FACE('',(#1162),#60,.T.);
#1249=ADVANCED_FACE('',(#1163),#61,.T.);
#1250=ADVANCED_FACE('',(#1164),#62,.T.);
#1251=ADVANCED_FACE('',(#1165),#1194,.T.);
#1252=ADVANCED_FACE('',(#1166),#63,.T.);
#1253=ADVANCED_FACE('',(#1167),#64,.T.);
#1254=ADVANCED_FACE('',(#1168),#65,.T.);
#1255=ADVANCED_FACE('',(#1169,#1170,#1171),#66,.F.);
#1256=ADVANCED_FACE('',(#1172),#67,.F.);
#1257=ADVANCED_FACE('',(#1173),#68,.F.);
#1258=ADVANCED_FACE('',(#1174),#69,.F.);
#1259=ADVANCED_FACE('',(#1175),#70,.F.);
#1260=CLOSED_SHELL('',(#1195,#1196,#1197,#1198,#1199,#1200,#1201,#1202,
#1203,#1204,#1205,#1206,#1207,#1208,#1209,#1210,#1211,#1212,#1213,#1214,
#1215,#1216,#1217,#1218,#1219,#1220,#1221,#1222,#1223,#1224,#1225,#1226,
#1227,#1228,#1229,#1230,#1231,#1232,#1233,#1234,#1235,#1236,#1237,#1238,
#1239,#1240,#1241,#1242,#1243,#1244,#1245,#1246,#1247,#1248,#1249,#1250,
#1251,#1252,#1253,#1254,#1255,#1256,#1257,#1258,#1259));
#1261=STYLED_ITEM('',(#1262),#1269);
#1262=PRESENTATION_STYLE_ASSIGNMENT((#1263));
#1263=SURFACE_STYLE_USAGE(.BOTH.,#1264);
#1264=SURFACE_SIDE_STYLE('',(#1265));
#1265=SURFACE_STYLE_FILL_AREA(#1266);
#1266=FILL_AREA_STYLE('',(#1267));
#1267=FILL_AREA_STYLE_COLOUR('',#1268);
#1268=COLOUR_RGB('',0.689999997615814,0.689999997615814,0.689999997615814);
#1269=MANIFOLD_SOLID_BREP('HBLFSNB5h5',#1260);
#1270=SHAPE_DEFINITION_REPRESENTATION(#2115,#1272);
#1271=SHAPE_DEFINITION_REPRESENTATION(#2116,#1273);
#1272=SHAPE_REPRESENTATION('HBLFSNB5',(#1274,#1387),#2108);
#1273=SHAPE_REPRESENTATION('HBLFSNB5h5',(#1274),#2109);
#1274=AXIS2_PLACEMENT_3D('',#1745,#1388,#1389);
#1275=AXIS2_PLACEMENT_3D('',#1746,#1390,#1391);
#1276=AXIS2_PLACEMENT_3D('',#1747,#1392,#1393);
#1277=AXIS2_PLACEMENT_3D('',#1752,#1395,#1396);
#1278=AXIS2_PLACEMENT_3D('',#1755,#1398,#1399);
#1279=AXIS2_PLACEMENT_3D('',#1761,#1403,#1404);
#1280=AXIS2_PLACEMENT_3D('',#1765,#1406,#1407);
#1281=AXIS2_PLACEMENT_3D('',#1769,#1409,#1410);
#1282=AXIS2_PLACEMENT_3D('',#1770,#1411,#1412);
#1283=AXIS2_PLACEMENT_3D('',#1781,#1419,#1420);
#1284=AXIS2_PLACEMENT_3D('',#1790,#1425,#1426);
#1285=AXIS2_PLACEMENT_3D('',#1794,#1428,#1429);
#1286=AXIS2_PLACEMENT_3D('',#1798,#1431,#1432);
#1287=AXIS2_PLACEMENT_3D('',#1799,#1433,#1434);
#1288=AXIS2_PLACEMENT_3D('',#1800,#1435,#1436);
#1289=AXIS2_PLACEMENT_3D('',#1801,#1437,#1438);
#1290=AXIS2_PLACEMENT_3D('',#1804,#1441,#1442);
#1291=AXIS2_PLACEMENT_3D('',#1808,#1445,#1446);
#1292=AXIS2_PLACEMENT_3D('',#1812,#1449,#1450);
#1293=AXIS2_PLACEMENT_3D('',#1818,#1453,#1454);
#1294=AXIS2_PLACEMENT_3D('',#1826,#1459,#1460);
#1295=AXIS2_PLACEMENT_3D('',#1827,#1461,#1462);
#1296=AXIS2_PLACEMENT_3D('',#1829,#1463,#1464);
#1297=AXIS2_PLACEMENT_3D('',#1833,#1467,#1468);
#1298=AXIS2_PLACEMENT_3D('',#1834,#1469,#1470);
#1299=AXIS2_PLACEMENT_3D('',#1835,#1471,#1472);
#1300=AXIS2_PLACEMENT_3D('',#1841,#1476,#1477);
#1301=AXIS2_PLACEMENT_3D('',#1845,#1480,#1481);
#1302=AXIS2_PLACEMENT_3D('',#1848,#1483,#1484);
#1303=AXIS2_PLACEMENT_3D('',#1849,#1485,#1486);
#1304=AXIS2_PLACEMENT_3D('',#1851,#1488,#1489);
#1305=AXIS2_PLACEMENT_3D('',#1852,#1490,#1491);
#1306=AXIS2_PLACEMENT_3D('',#1854,#1492,#1493);
#1307=AXIS2_PLACEMENT_3D('',#1855,#1494,#1495);
#1308=AXIS2_PLACEMENT_3D('',#1857,#1496,#1497);
#1309=AXIS2_PLACEMENT_3D('',#1858,#1498,#1499);
#1310=AXIS2_PLACEMENT_3D('',#1863,#1501,#1502);
#1311=AXIS2_PLACEMENT_3D('',#1867,#1504,#1505);
#1312=AXIS2_PLACEMENT_3D('',#1871,#1507,#1508);
#1313=AXIS2_PLACEMENT_3D('',#1875,#1510,#1511);
#1314=AXIS2_PLACEMENT_3D('',#1879,#1513,#1514);
#1315=AXIS2_PLACEMENT_3D('',#1883,#1516,#1517);
#1316=AXIS2_PLACEMENT_3D('',#1887,#1519,#1520);
#1317=AXIS2_PLACEMENT_3D('',#1890,#1522,#1523);
#1318=AXIS2_PLACEMENT_3D('',#1891,#1524,#1525);
#1319=AXIS2_PLACEMENT_3D('',#1893,#1526,#1527);
#1320=AXIS2_PLACEMENT_3D('',#1894,#1528,#1529);
#1321=AXIS2_PLACEMENT_3D('',#1899,#1531,#1532);
#1322=AXIS2_PLACEMENT_3D('',#1902,#1534,#1535);
#1323=AXIS2_PLACEMENT_3D('',#1908,#1539,#1540);
#1324=AXIS2_PLACEMENT_3D('',#1909,#1541,#1542);
#1325=AXIS2_PLACEMENT_3D('',#1913,#1544,#1545);
#1326=AXIS2_PLACEMENT_3D('',#1914,#1546,#1547);
#1327=AXIS2_PLACEMENT_3D('',#1920,#1551,#1552);
#1328=AXIS2_PLACEMENT_3D('',#1921,#1553,#1554);
#1329=AXIS2_PLACEMENT_3D('',#1925,#1556,#1557);
#1330=AXIS2_PLACEMENT_3D('',#1926,#1558,#1559);
#1331=AXIS2_PLACEMENT_3D('',#1932,#1563,#1564);
#1332=AXIS2_PLACEMENT_3D('',#1933,#1565,#1566);
#1333=AXIS2_PLACEMENT_3D('',#1937,#1568,#1569);
#1334=AXIS2_PLACEMENT_3D('',#1938,#1570,#1571);
#1335=AXIS2_PLACEMENT_3D('',#1939,#1572,#1573);
#1336=AXIS2_PLACEMENT_3D('',#1944,#1575,#1576);
#1337=AXIS2_PLACEMENT_3D('',#1947,#1578,#1579);
#1338=AXIS2_PLACEMENT_3D('',#1953,#1583,#1584);
#1339=AXIS2_PLACEMENT_3D('',#1954,#1585,#1586);
#1340=AXIS2_PLACEMENT_3D('',#1958,#1588,#1589);
#1341=AXIS2_PLACEMENT_3D('',#1959,#1590,#1591);
#1342=AXIS2_PLACEMENT_3D('',#1965,#1595,#1596);
#1343=AXIS2_PLACEMENT_3D('',#1966,#1597,#1598);
#1344=AXIS2_PLACEMENT_3D('',#1970,#1600,#1601);
#1345=AXIS2_PLACEMENT_3D('',#1971,#1602,#1603);
#1346=AXIS2_PLACEMENT_3D('',#1977,#1607,#1608);
#1347=AXIS2_PLACEMENT_3D('',#1978,#1609,#1610);
#1348=AXIS2_PLACEMENT_3D('',#1982,#1612,#1613);
#1349=AXIS2_PLACEMENT_3D('',#1983,#1614,#1615);
#1350=AXIS2_PLACEMENT_3D('',#1986,#1618,#1619);
#1351=AXIS2_PLACEMENT_3D('',#1989,#1622,#1623);
#1352=AXIS2_PLACEMENT_3D('',#1991,#1625,#1626);
#1353=AXIS2_PLACEMENT_3D('',#1992,#1627,#1628);
#1354=AXIS2_PLACEMENT_3D('',#1993,#1629,#1630);
#1355=AXIS2_PLACEMENT_3D('',#1999,#1634,#1635);
#1356=AXIS2_PLACEMENT_3D('',#2005,#1639,#1640);
#1357=AXIS2_PLACEMENT_3D('',#2011,#1644,#1645);
#1358=AXIS2_PLACEMENT_3D('',#2012,#1646,#1647);
#1359=AXIS2_PLACEMENT_3D('',#2016,#1649,#1650);
#1360=AXIS2_PLACEMENT_3D('',#2017,#1651,#1652);
#1361=AXIS2_PLACEMENT_3D('',#2023,#1656,#1657);
#1362=AXIS2_PLACEMENT_3D('',#2029,#1661,#1662);
#1363=AXIS2_PLACEMENT_3D('',#2030,#1663,#1664);
#1364=AXIS2_PLACEMENT_3D('',#2034,#1666,#1667);
#1365=AXIS2_PLACEMENT_3D('',#2035,#1668,#1669);
#1366=AXIS2_PLACEMENT_3D('',#2041,#1673,#1674);
#1367=AXIS2_PLACEMENT_3D('',#2044,#1677,#1678);
#1368=AXIS2_PLACEMENT_3D('',#2045,#1679,#1680);
#1369=AXIS2_PLACEMENT_3D('',#2050,#1682,#1683);
#1370=AXIS2_PLACEMENT_3D('',#2053,#1685,#1686);
#1371=AXIS2_PLACEMENT_3D('',#2059,#1690,#1691);
#1372=AXIS2_PLACEMENT_3D('',#2062,#1694,#1695);
#1373=AXIS2_PLACEMENT_3D('',#2068,#1699,#1700);
#1374=AXIS2_PLACEMENT_3D('',#2074,#1704,#1705);
#1375=AXIS2_PLACEMENT_3D('',#2080,#1709,#1710);
#1376=AXIS2_PLACEMENT_3D('',#2086,#1714,#1715);
#1377=AXIS2_PLACEMENT_3D('',#2087,#1716,#1717);
#1378=AXIS2_PLACEMENT_3D('',#2091,#1719,#1720);
#1379=AXIS2_PLACEMENT_3D('',#2092,#1721,#1722);
#1380=AXIS2_PLACEMENT_3D('',#2095,#1725,#1726);
#1381=AXIS2_PLACEMENT_3D('',#2098,#1729,#1730);
#1382=AXIS2_PLACEMENT_3D('',#2101,#1733,#1734);
#1383=AXIS2_PLACEMENT_3D('',#2102,#1735,#1736);
#1384=AXIS2_PLACEMENT_3D('',#2103,#1737,#1738);
#1385=AXIS2_PLACEMENT_3D('',#2104,#1739,#1740);
#1386=AXIS2_PLACEMENT_3D('',#2105,#1741,#1742);
#1387=AXIS2_PLACEMENT_3D('',#2106,#1743,#1744);
#1388=DIRECTION('',(0.,0.,1.));
#1389=DIRECTION('',(1.,0.,0.));
#1390=DIRECTION('',(-1.,0.,0.));
#1391=DIRECTION('',(0.,0.,1.));
#1392=DIRECTION('',(1.,0.,0.));
#1393=DIRECTION('',(0.,0.,-1.));
#1394=DIRECTION('',(-1.,0.,0.));
#1395=DIRECTION('',(1.,0.,0.));
#1396=DIRECTION('',(0.,0.,-1.));
#1397=DIRECTION('',(-1.,0.,0.));
#1398=DIRECTION('',(0.,-0.707106781186547,-0.707106781186548));
#1399=DIRECTION('',(0.,0.707106781186548,-0.707106781186547));
#1400=DIRECTION('',(0.,-0.707106781186548,0.707106781186547));
#1401=DIRECTION('',(-1.,0.,0.));
#1402=DIRECTION('',(0.,-0.707106781186548,0.707106781186547));
#1403=DIRECTION('',(-1.,0.,0.));
#1404=DIRECTION('',(0.,0.,1.));
#1405=DIRECTION('',(-1.,0.,0.));
#1406=DIRECTION('',(1.,0.,0.));
#1407=DIRECTION('',(0.,0.,-1.));
#1408=DIRECTION('',(-1.,0.,0.));
#1409=DIRECTION('',(1.,0.,0.));
#1410=DIRECTION('',(0.,0.,-1.));
#1411=DIRECTION('',(0.,0.,-1.));
#1412=DIRECTION('',(-1.,0.,0.));
#1413=DIRECTION('',(0.,-1.,0.));
#1414=DIRECTION('',(1.,0.,0.));
#1415=DIRECTION('',(0.,-1.,0.));
#1416=DIRECTION('',(0.,-1.,0.));
#1417=DIRECTION('',(1.,0.,0.));
#1418=DIRECTION('',(0.,-1.,0.));
#1419=DIRECTION('',(0.,-1.,0.));
#1420=DIRECTION('',(0.,0.,-1.));
#1421=DIRECTION('',(0.,0.,1.));
#1422=DIRECTION('',(-1.,0.,0.));
#1423=DIRECTION('',(0.,0.,1.));
#1424=DIRECTION('',(-1.,0.,0.));
#1425=DIRECTION('',(-1.,0.,0.));
#1426=DIRECTION('',(0.,0.,1.));
#1427=DIRECTION('',(-1.,0.,0.));
#1428=DIRECTION('',(1.,0.,0.));
#1429=DIRECTION('',(0.,0.,-1.));
#1430=DIRECTION('',(-1.,0.,0.));
#1431=DIRECTION('',(1.,0.,0.));
#1432=DIRECTION('',(0.,0.,-1.));
#1433=DIRECTION('',(1.,0.,0.));
#1434=DIRECTION('',(0.,0.,-1.));
#1435=DIRECTION('',(1.,0.,0.));
#1436=DIRECTION('',(0.,0.,-1.));
#1437=DIRECTION('',(0.,-0.707106781186547,-0.707106781186548));
#1438=DIRECTION('',(0.,0.707106781186548,-0.707106781186547));
#1439=DIRECTION('',(0.,-0.707106781186548,0.707106781186547));
#1440=DIRECTION('',(0.,-0.707106781186548,0.707106781186547));
#1441=DIRECTION('',(1.,0.,0.));
#1442=DIRECTION('',(0.,0.,-1.));
#1443=DIRECTION('',(0.,1.,0.));
#1444=DIRECTION('',(0.,0.,-1.));
#1445=DIRECTION('',(1.,0.,0.));
#1446=DIRECTION('',(0.,0.,-1.));
#1447=DIRECTION('',(0.,-1.,0.));
#1448=DIRECTION('',(0.,0.,1.));
#1449=DIRECTION('',(0.,0.998629534754574,0.0523359562429436));
#1450=DIRECTION('',(0.,-0.0523359562429436,0.998629534754574));
#1451=DIRECTION('',(-1.,0.,0.));
#1452=DIRECTION('',(0.117596696492601,0.0519728198954029,-0.991700480470866));
#1453=DIRECTION('',(0.,0.998629534754574,0.0523359562429436));
#1454=DIRECTION('',(0.,0.0523359562429436,-0.998629534754574));
#1455=DIRECTION('',(0.117596696492601,-0.0519728198954029,0.991700480470866));
#1456=DIRECTION('',(0.,0.0523359562429436,-0.998629534754574));
#1457=DIRECTION('',(-1.,0.,0.));
#1458=DIRECTION('',(0.,0.0523359562429436,-0.998629534754574));
#1459=DIRECTION('',(0.,0.,1.));
#1460=DIRECTION('',(1.,0.,0.));
#1461=DIRECTION('',(0.,0.,1.));
#1462=DIRECTION('',(1.,0.,0.));
#1463=DIRECTION('',(0.,0.,1.));
#1464=DIRECTION('',(1.,0.,0.));
#1465=DIRECTION('',(0.,1.,0.));
#1466=DIRECTION('',(0.,1.,0.));
#1467=DIRECTION('',(1.,0.,0.));
#1468=DIRECTION('',(0.,0.,-1.));
#1469=DIRECTION('',(1.,0.,0.));
#1470=DIRECTION('',(0.,0.,-1.));
#1471=DIRECTION('',(0.,0.,-1.));
#1472=DIRECTION('',(-1.,0.,0.));
#1473=DIRECTION('',(0.,1.,0.));
#1474=DIRECTION('',(0.,1.,0.));
#1475=DIRECTION('',(-1.,0.,0.));
#1476=DIRECTION('',(-0.993042577793247,0.,0.11775584354818));
#1477=DIRECTION('',(0.11775584354818,0.,0.993042577793247));
#1478=DIRECTION('',(0.,1.,0.));
#1479=DIRECTION('',(0.11775584354818,0.,0.993042577793247));
#1480=DIRECTION('',(0.,1.,0.));
#1481=DIRECTION('',(0.,0.,1.));
#1482=DIRECTION('',(0.,1.,0.));
#1483=DIRECTION('',(0.,1.,0.));
#1484=DIRECTION('',(1.,0.,0.));
#1485=DIRECTION('',(0.993042577793247,0.,0.11775584354818));
#1486=DIRECTION('',(0.11775584354818,0.,-0.993042577793247));
#1487=DIRECTION('',(0.11775584354818,0.,-0.993042577793247));
#1488=DIRECTION('',(0.,1.,0.));
#1489=DIRECTION('',(0.,0.,1.));
#1490=DIRECTION('',(0.,1.,0.));
#1491=DIRECTION('',(1.,0.,0.));
#1492=DIRECTION('',(0.,0.,-1.));
#1493=DIRECTION('',(-1.,0.,0.));
#1494=DIRECTION('',(0.,0.,1.));
#1495=DIRECTION('',(1.,0.,0.));
#1496=DIRECTION('',(0.,0.,-1.));
#1497=DIRECTION('',(-1.,0.,0.));
#1498=DIRECTION('',(0.,0.,1.));
#1499=DIRECTION('',(1.,0.,0.));
#1500=DIRECTION('',(0.,0.,1.));
#1501=DIRECTION('',(0.,0.,1.));
#1502=DIRECTION('',(1.,0.,0.));
#1503=DIRECTION('',(0.,0.,1.));
#1504=DIRECTION('',(0.,0.,1.));
#1505=DIRECTION('',(1.,0.,0.));
#1506=DIRECTION('',(0.,0.,1.));
#1507=DIRECTION('',(0.,0.,1.));
#1508=DIRECTION('',(1.,0.,0.));
#1509=DIRECTION('',(0.,0.,1.));
#1510=DIRECTION('',(0.,0.,1.));
#1511=DIRECTION('',(1.,0.,0.));
#1512=DIRECTION('',(0.,0.,1.));
#1513=DIRECTION('',(0.,0.,1.));
#1514=DIRECTION('',(1.,0.,0.));
#1515=DIRECTION('',(0.,0.,1.));
#1516=DIRECTION('',(0.,0.,1.));
#1517=DIRECTION('',(1.,0.,0.));
#1518=DIRECTION('',(0.,0.,1.));
#1519=DIRECTION('',(0.,0.,1.));
#1520=DIRECTION('',(1.,0.,0.));
#1521=DIRECTION('',(0.,0.,1.));
#1522=DIRECTION('',(0.,-1.,0.));
#1523=DIRECTION('',(0.,0.,-1.));
#1524=DIRECTION('',(0.,1.,0.));
#1525=DIRECTION('',(1.,0.,0.));
#1526=DIRECTION('',(0.,1.,0.));
#1527=DIRECTION('',(0.,0.,1.));
#1528=DIRECTION('',(0.,1.,0.));
#1529=DIRECTION('',(1.,0.,0.));
#1530=DIRECTION('',(0.,1.,0.));
#1531=DIRECTION('',(0.,1.,0.));
#1532=DIRECTION('',(1.,0.,0.));
#1533=DIRECTION('',(0.,1.,0.));
#1534=DIRECTION('',(0.,0.,-1.));
#1535=DIRECTION('',(-1.,0.,0.));
#1536=DIRECTION('',(-1.,0.,0.));
#1537=DIRECTION('',(0.,1.,0.));
#1538=DIRECTION('',(-1.,0.,0.));
#1539=DIRECTION('',(0.,1.,0.));
#1540=DIRECTION('',(0.,0.,1.));
#1541=DIRECTION('',(0.,1.,0.));
#1542=DIRECTION('',(1.,0.,0.));
#1543=DIRECTION('',(0.,1.,0.));
#1544=DIRECTION('',(0.,1.,0.));
#1545=DIRECTION('',(1.,0.,0.));
#1546=DIRECTION('',(1.,0.,0.));
#1547=DIRECTION('',(0.,0.,-1.));
#1548=DIRECTION('',(0.,0.,-1.));
#1549=DIRECTION('',(0.,1.,0.));
#1550=DIRECTION('',(0.,0.,-1.));
#1551=DIRECTION('',(0.,1.,0.));
#1552=DIRECTION('',(0.,0.,1.));
#1553=DIRECTION('',(0.,1.,0.));
#1554=DIRECTION('',(1.,0.,0.));
#1555=DIRECTION('',(0.,1.,0.));
#1556=DIRECTION('',(0.,1.,0.));
#1557=DIRECTION('',(1.,0.,0.));
#1558=DIRECTION('',(0.,0.,1.));
#1559=DIRECTION('',(1.,0.,0.));
#1560=DIRECTION('',(1.,0.,0.));
#1561=DIRECTION('',(0.,1.,0.));
#1562=DIRECTION('',(1.,0.,0.));
#1563=DIRECTION('',(0.,1.,0.));
#1564=DIRECTION('',(0.,0.,1.));
#1565=DIRECTION('',(0.,1.,0.));
#1566=DIRECTION('',(1.,0.,0.));
#1567=DIRECTION('',(0.,1.,0.));
#1568=DIRECTION('',(0.,1.,0.));
#1569=DIRECTION('',(1.,0.,0.));
#1570=DIRECTION('',(0.,1.,0.));
#1571=DIRECTION('',(0.,0.,1.));
#1572=DIRECTION('',(0.,1.,0.));
#1573=DIRECTION('',(1.,0.,0.));
#1574=DIRECTION('',(0.,1.,0.));
#1575=DIRECTION('',(0.,1.,0.));
#1576=DIRECTION('',(1.,0.,0.));
#1577=DIRECTION('',(0.,1.,0.));
#1578=DIRECTION('',(0.,0.,-1.));
#1579=DIRECTION('',(-1.,0.,0.));
#1580=DIRECTION('',(-1.,0.,0.));
#1581=DIRECTION('',(0.,1.,0.));
#1582=DIRECTION('',(-1.,0.,0.));
#1583=DIRECTION('',(0.,1.,0.));
#1584=DIRECTION('',(0.,0.,1.));
#1585=DIRECTION('',(0.,1.,0.));
#1586=DIRECTION('',(1.,0.,0.));
#1587=DIRECTION('',(0.,1.,0.));
#1588=DIRECTION('',(0.,1.,0.));
#1589=DIRECTION('',(1.,0.,0.));
#1590=DIRECTION('',(1.,0.,0.));
#1591=DIRECTION('',(0.,0.,-1.));
#1592=DIRECTION('',(0.,0.,-1.));
#1593=DIRECTION('',(0.,1.,0.));
#1594=DIRECTION('',(0.,0.,-1.));
#1595=DIRECTION('',(0.,1.,0.));
#1596=DIRECTION('',(0.,0.,1.));
#1597=DIRECTION('',(0.,1.,0.));
#1598=DIRECTION('',(1.,0.,0.));
#1599=DIRECTION('',(0.,1.,0.));
#1600=DIRECTION('',(0.,1.,0.));
#1601=DIRECTION('',(1.,0.,0.));
#1602=DIRECTION('',(0.,0.,1.));
#1603=DIRECTION('',(1.,0.,0.));
#1604=DIRECTION('',(1.,0.,0.));
#1605=DIRECTION('',(0.,1.,0.));
#1606=DIRECTION('',(1.,0.,0.));
#1607=DIRECTION('',(0.,1.,0.));
#1608=DIRECTION('',(0.,0.,1.));
#1609=DIRECTION('',(0.,1.,0.));
#1610=DIRECTION('',(1.,0.,0.));
#1611=DIRECTION('',(0.,1.,0.));
#1612=DIRECTION('',(0.,1.,0.));
#1613=DIRECTION('',(1.,0.,0.));
#1614=DIRECTION('',(-1.,0.,0.));
#1615=DIRECTION('',(0.,0.,1.));
#1616=DIRECTION('',(0.,0.,1.));
#1617=DIRECTION('',(0.,0.,1.));
#1618=DIRECTION('',(-1.,0.,0.));
#1619=DIRECTION('',(0.,0.,1.));
#1620=DIRECTION('',(0.,0.,1.));
#1621=DIRECTION('',(0.,0.,1.));
#1622=DIRECTION('',(0.,1.,0.));
#1623=DIRECTION('',(0.,0.,1.));
#1624=DIRECTION('',(1.,0.,0.));
#1625=DIRECTION('',(0.,1.,0.));
#1626=DIRECTION('',(0.,0.,1.));
#1627=DIRECTION('',(0.,1.,0.));
#1628=DIRECTION('',(0.,0.,1.));
#1629=DIRECTION('',(-1.,0.,0.));
#1630=DIRECTION('',(0.,0.,1.));
#1631=DIRECTION('',(0.,-1.,0.));
#1632=DIRECTION('',(0.,-1.,0.));
#1633=DIRECTION('',(0.,0.,1.));
#1634=DIRECTION('',(0.,1.,0.));
#1635=DIRECTION('',(0.,0.,1.));
#1636=DIRECTION('',(-1.,0.,0.));
#1637=DIRECTION('',(0.,0.,1.));
#1638=DIRECTION('',(-1.,0.,0.));
#1639=DIRECTION('',(1.,0.,0.));
#1640=DIRECTION('',(0.,0.,-1.));
#1641=DIRECTION('',(0.,1.,0.));
#1642=DIRECTION('',(0.,0.,1.));
#1643=DIRECTION('',(0.,1.,0.));
#1644=DIRECTION('',(0.,0.,1.));
#1645=DIRECTION('',(1.,0.,0.));
#1646=DIRECTION('',(0.,0.,1.));
#1647=DIRECTION('',(1.,0.,0.));
#1648=DIRECTION('',(0.,0.,1.));
#1649=DIRECTION('',(0.,0.,1.));
#1650=DIRECTION('',(1.,0.,0.));
#1651=DIRECTION('',(-1.,0.,0.));
#1652=DIRECTION('',(0.,0.,1.));
#1653=DIRECTION('',(0.,-1.,0.));
#1654=DIRECTION('',(0.,0.,1.));
#1655=DIRECTION('',(0.,-1.,0.));
#1656=DIRECTION('',(0.,1.,0.));
#1657=DIRECTION('',(0.,0.,1.));
#1658=DIRECTION('',(-1.,0.,0.));
#1659=DIRECTION('',(0.,0.,1.));
#1660=DIRECTION('',(-1.,0.,0.));
#1661=DIRECTION('',(0.,0.,1.));
#1662=DIRECTION('',(1.,0.,0.));
#1663=DIRECTION('',(0.,0.,1.));
#1664=DIRECTION('',(1.,0.,0.));
#1665=DIRECTION('',(0.,0.,1.));
#1666=DIRECTION('',(0.,0.,1.));
#1667=DIRECTION('',(1.,0.,0.));
#1668=DIRECTION('',(1.,0.,0.));
#1669=DIRECTION('',(0.,0.,-1.));
#1670=DIRECTION('',(0.,1.,0.));
#1671=DIRECTION('',(0.,0.,1.));
#1672=DIRECTION('',(0.,1.,0.));
#1673=DIRECTION('',(0.,-1.,0.));
#1674=DIRECTION('',(0.,0.,-1.));
#1675=DIRECTION('',(1.,0.,0.));
#1676=DIRECTION('',(1.,0.,0.));
#1677=DIRECTION('',(0.,0.,1.));
#1678=DIRECTION('',(1.,0.,0.));
#1679=DIRECTION('',(0.,0.,1.));
#1680=DIRECTION('',(1.,0.,0.));
#1681=DIRECTION('',(0.,0.,1.));
#1682=DIRECTION('',(0.,0.,1.));
#1683=DIRECTION('',(1.,0.,0.));
#1684=DIRECTION('',(0.,0.,1.));
#1685=DIRECTION('',(0.,1.,0.));
#1686=DIRECTION('',(0.,0.,1.));
#1687=DIRECTION('',(-1.,0.,0.));
#1688=DIRECTION('',(0.,0.,1.));
#1689=DIRECTION('',(-1.,0.,0.));
#1690=DIRECTION('',(1.,0.,0.));
#1691=DIRECTION('',(0.,0.,-1.));
#1692=DIRECTION('',(0.,1.,0.));
#1693=DIRECTION('',(0.,1.,0.));
#1694=DIRECTION('',(0.,-1.,0.));
#1695=DIRECTION('',(0.,0.,-1.));
#1696=DIRECTION('',(1.,0.,0.));
#1697=DIRECTION('',(0.,0.,1.));
#1698=DIRECTION('',(1.,0.,0.));
#1699=DIRECTION('',(0.,1.,0.));
#1700=DIRECTION('',(0.,0.,1.));
#1701=DIRECTION('',(-1.,0.,0.));
#1702=DIRECTION('',(-1.,0.,0.));
#1703=DIRECTION('',(0.,0.,1.));
#1704=DIRECTION('',(1.,0.,0.));
#1705=DIRECTION('',(0.,0.,-1.));
#1706=DIRECTION('',(0.,1.,0.));
#1707=DIRECTION('',(0.,0.,1.));
#1708=DIRECTION('',(0.,1.,0.));
#1709=DIRECTION('',(0.,-1.,0.));
#1710=DIRECTION('',(0.,0.,-1.));
#1711=DIRECTION('',(1.,0.,0.));
#1712=DIRECTION('',(0.,0.,1.));
#1713=DIRECTION('',(1.,0.,0.));
#1714=DIRECTION('',(0.,0.,1.));
#1715=DIRECTION('',(1.,0.,0.));
#1716=DIRECTION('',(0.,0.,1.));
#1717=DIRECTION('',(1.,0.,0.));
#1718=DIRECTION('',(0.,0.,1.));
#1719=DIRECTION('',(0.,0.,1.));
#1720=DIRECTION('',(1.,0.,0.));
#1721=DIRECTION('',(-1.,0.,0.));
#1722=DIRECTION('',(0.,0.,1.));
#1723=DIRECTION('',(0.,-1.,0.));
#1724=DIRECTION('',(0.,-1.,0.));
#1725=DIRECTION('',(-1.,-5.78241158658935E-16,0.));
#1726=DIRECTION('',(5.78241158658935E-16,-1.,0.));
#1727=DIRECTION('',(5.78241158658935E-16,-1.,0.));
#1728=DIRECTION('',(5.78241158658935E-16,-1.,0.));
#1729=DIRECTION('',(5.78241158658935E-16,-1.,0.));
#1730=DIRECTION('',(1.,5.78241158658935E-16,0.));
#1731=DIRECTION('',(1.,5.78241158658935E-16,0.));
#1732=DIRECTION('',(1.,5.78241158658935E-16,0.));
#1733=DIRECTION('',(0.,0.,1.));
#1734=DIRECTION('',(1.,0.,0.));
#1735=DIRECTION('',(0.,0.,1.));
#1736=DIRECTION('',(1.,0.,0.));
#1737=DIRECTION('',(0.,0.,1.));
#1738=DIRECTION('',(1.,0.,0.));
#1739=DIRECTION('',(0.,0.,1.));
#1740=DIRECTION('',(1.,0.,0.));
#1741=DIRECTION('',(0.,0.,1.));
#1742=DIRECTION('',(1.,0.,0.));
#1743=DIRECTION('',(0.,0.,1.));
#1744=DIRECTION('',(1.,0.,0.));
#1745=CARTESIAN_POINT('',(0.,0.,0.));
#1746=CARTESIAN_POINT('',(10.,4.08578643762691,29.));
#1747=CARTESIAN_POINT('',(-7.5,4.08578643762691,29.));
#1748=CARTESIAN_POINT('',(-7.5,4.79289321881346,29.7071067811865));
#1749=CARTESIAN_POINT('',(-7.5,4.08578643762692,30.));
#1750=CARTESIAN_POINT('',(10.,4.79289321881346,29.7071067811865));
#1751=CARTESIAN_POINT('',(-10.,4.79289321881346,29.7071067811865));
#1752=CARTESIAN_POINT('',(-10.,4.08578643762691,29.));
#1753=CARTESIAN_POINT('',(-10.,4.08578643762692,30.));
#1754=CARTESIAN_POINT('',(10.,4.08578643762692,30.));
#1755=CARTESIAN_POINT('',(10.,29.7071067811866,4.79289321881346));
#1756=CARTESIAN_POINT('',(-7.5,29.7071067811866,4.79289321881346));
#1757=CARTESIAN_POINT('',(-7.5,29.7071067811866,4.79289321881346));
#1758=CARTESIAN_POINT('',(10.,29.7071067811866,4.79289321881346));
#1759=CARTESIAN_POINT('',(-10.,29.7071067811866,4.79289321881346));
#1760=CARTESIAN_POINT('',(-10.,29.7071067811866,4.79289321881346));
#1761=CARTESIAN_POINT('',(10.,4.08578643762691,29.));
#1762=CARTESIAN_POINT('',(10.,4.79289321881346,29.7071067811865));
#1763=CARTESIAN_POINT('',(10.,4.79289321881346,29.7071067811865));
#1764=CARTESIAN_POINT('',(7.5,4.79289321881346,29.7071067811865));
#1765=CARTESIAN_POINT('',(7.5,4.08578643762691,29.));
#1766=CARTESIAN_POINT('',(7.5,4.08578643762692,30.));
#1767=CARTESIAN_POINT('',(10.,4.08578643762692,30.));
#1768=CARTESIAN_POINT('',(10.,4.08578643762692,30.));
#1769=CARTESIAN_POINT('',(10.,4.08578643762691,29.));
#1770=CARTESIAN_POINT('',(10.,4.08578643762692,30.));
#1771=CARTESIAN_POINT('',(-10.,4.08578643762692,30.));
#1772=CARTESIAN_POINT('',(-10.,0.,30.));
#1773=CARTESIAN_POINT('',(-10.,0.,30.));
#1774=CARTESIAN_POINT('',(10.,0.,30.));
#1775=CARTESIAN_POINT('',(10.,4.08578643762692,30.));
#1776=CARTESIAN_POINT('',(7.5,4.08578643762692,30.));
#1777=CARTESIAN_POINT('',(7.5,3.16360162828245,30.));
#1778=CARTESIAN_POINT('',(10.,3.16360162828245,30.));
#1779=CARTESIAN_POINT('',(-7.5,3.16360162828245,30.));
#1780=CARTESIAN_POINT('',(-7.5,4.08578643762692,30.));
#1781=CARTESIAN_POINT('',(10.,30.,0.));
#1782=CARTESIAN_POINT('',(10.,30.,0.));
#1783=CARTESIAN_POINT('',(10.,30.,0.));
#1784=CARTESIAN_POINT('',(10.,30.,4.08578643762691));
#1785=CARTESIAN_POINT('',(10.,30.,0.));
#1786=CARTESIAN_POINT('',(-10.,30.,0.));
#1787=CARTESIAN_POINT('',(-10.,30.,0.));
#1788=CARTESIAN_POINT('',(-10.,30.,4.08578643762691));
#1789=CARTESIAN_POINT('',(10.,30.,4.08578643762691));
#1790=CARTESIAN_POINT('',(10.,29.,4.08578643762693));
#1791=CARTESIAN_POINT('',(10.,29.9101797211245,4.5));
#1792=CARTESIAN_POINT('',(7.5,29.9101797211245,4.5));
#1793=CARTESIAN_POINT('',(-7.5,29.9101797211245,4.5));
#1794=CARTESIAN_POINT('',(7.5,29.,4.08578643762693));
#1795=CARTESIAN_POINT('',(7.5,29.7071067811866,4.79289321881346));
#1796=CARTESIAN_POINT('',(10.,29.7071067811866,4.79289321881346));
#1797=CARTESIAN_POINT('',(10.,29.7071067811866,4.79289321881346));
#1798=CARTESIAN_POINT('',(10.,29.,4.08578643762693));
#1799=CARTESIAN_POINT('',(-10.,29.,4.08578643762693));
#1800=CARTESIAN_POINT('',(-7.5,29.,4.08578643762693));
#1801=CARTESIAN_POINT('',(10.,29.7071067811866,4.79289321881346));
#1802=CARTESIAN_POINT('',(7.5,29.7071067811866,4.79289321881346));
#1803=CARTESIAN_POINT('',(10.,29.7071067811866,4.79289321881346));
#1804=CARTESIAN_POINT('',(10.,4.08578643762691,29.));
#1805=CARTESIAN_POINT('',(10.,0.,0.));
#1806=CARTESIAN_POINT('',(10.,0.,0.));
#1807=CARTESIAN_POINT('',(10.,0.,30.));
#1808=CARTESIAN_POINT('',(-10.,4.08578643762691,29.));
#1809=CARTESIAN_POINT('',(-10.,30.,0.));
#1810=CARTESIAN_POINT('',(-10.,0.,0.));
#1811=CARTESIAN_POINT('',(-10.,0.,0.));
#1812=CARTESIAN_POINT('',(7.5,2.92776662150877,34.5));
#1813=CARTESIAN_POINT('',(7.5,4.18555332430175,10.5));
#1814=CARTESIAN_POINT('',(5.42088420677178,4.18555332430175,10.5));
#1815=CARTESIAN_POINT('',(-5.42088420677178,4.18555332430175,10.5));
#1816=CARTESIAN_POINT('',(2.64305207293378,2.95786773875719,33.9256364673296));
#1817=CARTESIAN_POINT('',(4.46869160006961,3.76472402951812,18.5299012959668));
#1818=CARTESIAN_POINT('',(4.33680868994202E-16,3.79249497967895,18.));
#1819=CARTESIAN_POINT('',(-4.46869160006961,3.76472402951812,18.5299012959668));
#1820=CARTESIAN_POINT('',(-2.43561732754418,2.86619025985062,35.6749469735321));
#1821=CARTESIAN_POINT('',(7.5,2.92776662150877,34.5));
#1822=CARTESIAN_POINT('',(7.5,4.5,4.5));
#1823=CARTESIAN_POINT('',(7.5,4.5,4.5));
#1824=CARTESIAN_POINT('',(-7.5,4.5,4.5));
#1825=CARTESIAN_POINT('',(-7.5,2.92776662150877,34.5));
#1826=CARTESIAN_POINT('',(7.5,4.5,4.5));
#1827=CARTESIAN_POINT('',(0.,10.,4.5));
#1828=CARTESIAN_POINT('',(2.65,10.,4.5));
#1829=CARTESIAN_POINT('',(0.,18.,4.5));
#1830=CARTESIAN_POINT('',(2.65,18.,4.5));
#1831=CARTESIAN_POINT('',(-7.5,4.5,4.5));
#1832=CARTESIAN_POINT('',(7.5,4.5,4.5));
#1833=CARTESIAN_POINT('',(7.5,0.,0.));
#1834=CARTESIAN_POINT('',(-7.5,0.,0.));
#1835=CARTESIAN_POINT('',(5.42088420677179,2.25,10.5));
#1836=CARTESIAN_POINT('',(5.42088420677179,2.25,10.5));
#1837=CARTESIAN_POINT('',(5.42088420677179,4.5,10.5));
#1838=CARTESIAN_POINT('',(-5.42088420677178,2.25,10.5));
#1839=CARTESIAN_POINT('',(-5.42088420677178,4.5,10.5));
#1840=CARTESIAN_POINT('',(5.42088420677179,4.5,10.5));
#1841=CARTESIAN_POINT('',(-5.42088420677178,2.25,10.5));
#1842=CARTESIAN_POINT('',(-4.46869160006961,2.25,18.5299012959668));
#1843=CARTESIAN_POINT('',(-4.46869160006961,4.5,18.5299012959668));
#1844=CARTESIAN_POINT('',(-5.42088420677178,4.5,10.5));
#1845=CARTESIAN_POINT('',(4.33680868994202E-16,2.25,18.));
#1846=CARTESIAN_POINT('',(4.46869160006961,2.25,18.5299012959668));
#1847=CARTESIAN_POINT('',(4.46869160006961,4.5,18.5299012959668));
#1848=CARTESIAN_POINT('',(4.33680868994202E-16,4.5,18.));
#1849=CARTESIAN_POINT('',(4.46869160006961,2.25,18.5299012959668));
#1850=CARTESIAN_POINT('',(4.46869160006961,4.5,18.5299012959668));
#1851=CARTESIAN_POINT('',(4.33680868994202E-16,4.5,18.));
#1852=CARTESIAN_POINT('',(0.,4.5,18.));
#1853=CARTESIAN_POINT('',(2.65,4.5,18.));
#1854=CARTESIAN_POINT('',(0.,18.,4.5));
#1855=CARTESIAN_POINT('',(0.,18.,0.));
#1856=CARTESIAN_POINT('',(2.65,18.,0.));
#1857=CARTESIAN_POINT('',(0.,10.,4.5));
#1858=CARTESIAN_POINT('',(0.,10.,0.));
#1859=CARTESIAN_POINT('',(0.5,12.6024027359346,0.));
#1860=CARTESIAN_POINT('',(-0.500000000000001,12.6024027359346,0.));
#1861=CARTESIAN_POINT('',(0.5,12.6024027359346,-1.));
#1862=CARTESIAN_POINT('',(0.5,12.6024027359346,-1.));
#1863=CARTESIAN_POINT('',(-8.67361737988404E-16,10.,-1.));
#1864=CARTESIAN_POINT('',(2.60240273593462,10.5,-1.));
#1865=CARTESIAN_POINT('',(2.60240273593462,10.5,-1.));
#1866=CARTESIAN_POINT('',(2.60240273593462,10.5,0.));
#1867=CARTESIAN_POINT('',(0.,10.,0.));
#1868=CARTESIAN_POINT('',(2.60240273593462,9.5,0.));
#1869=CARTESIAN_POINT('',(2.60240273593462,9.5,-1.));
#1870=CARTESIAN_POINT('',(2.60240273593462,9.5,-1.));
#1871=CARTESIAN_POINT('',(-3.90312782094782E-15,10.,-1.));
#1872=CARTESIAN_POINT('',(0.5,7.39759726406538,-1.));
#1873=CARTESIAN_POINT('',(0.5,7.39759726406538,-1.));
#1874=CARTESIAN_POINT('',(0.5,7.39759726406538,0.));
#1875=CARTESIAN_POINT('',(0.,10.,0.));
#1876=CARTESIAN_POINT('',(-0.5,7.39759726406538,0.));
#1877=CARTESIAN_POINT('',(-0.5,7.39759726406538,-1.));
#1878=CARTESIAN_POINT('',(-0.5,7.39759726406538,-1.));
#1879=CARTESIAN_POINT('',(1.73472347597681E-15,10.,-1.));
#1880=CARTESIAN_POINT('',(-2.60240273593462,9.5,-1.));
#1881=CARTESIAN_POINT('',(-2.60240273593462,9.5,-1.));
#1882=CARTESIAN_POINT('',(-2.60240273593462,9.5,0.));
#1883=CARTESIAN_POINT('',(0.,10.,0.));
#1884=CARTESIAN_POINT('',(-2.60240273593462,10.5,0.));
#1885=CARTESIAN_POINT('',(-2.60240273593462,10.5,-1.));
#1886=CARTESIAN_POINT('',(-2.60240273593462,10.5,-1.));
#1887=CARTESIAN_POINT('',(8.67361737988404E-16,10.,-1.));
#1888=CARTESIAN_POINT('',(-0.500000000000001,12.6024027359346,-1.));
#1889=CARTESIAN_POINT('',(-0.500000000000001,12.6024027359346,-1.));
#1890=CARTESIAN_POINT('',(0.,4.5,18.));
#1891=CARTESIAN_POINT('',(0.,0.,18.));
#1892=CARTESIAN_POINT('',(2.65,0.,18.));
#1893=CARTESIAN_POINT('',(-2.7,-1.,24.3));
#1894=CARTESIAN_POINT('',(-2.7,0.,24.3));
#1895=CARTESIAN_POINT('',(-2.7,0.,24.));
#1896=CARTESIAN_POINT('',(-3.,0.,24.3));
#1897=CARTESIAN_POINT('',(-2.7,-1.,24.));
#1898=CARTESIAN_POINT('',(-2.7,-1.,24.));
#1899=CARTESIAN_POINT('',(-2.7,-1.,24.3));
#1900=CARTESIAN_POINT('',(-3.,-1.,24.3));
#1901=CARTESIAN_POINT('',(-3.,-1.,24.3));
#1902=CARTESIAN_POINT('',(2.7,-1.,24.));
#1903=CARTESIAN_POINT('',(2.7,0.,24.));
#1904=CARTESIAN_POINT('',(2.7,0.,24.));
#1905=CARTESIAN_POINT('',(2.7,-1.,24.));
#1906=CARTESIAN_POINT('',(2.7,-1.,24.));
#1907=CARTESIAN_POINT('',(2.7,-1.,24.));
#1908=CARTESIAN_POINT('',(2.70000000000001,-1.,24.3));
#1909=CARTESIAN_POINT('',(2.70000000000001,0.,24.3));
#1910=CARTESIAN_POINT('',(3.,0.,24.3));
#1911=CARTESIAN_POINT('',(3.,-1.,24.3));
#1912=CARTESIAN_POINT('',(3.,-1.,24.3));
#1913=CARTESIAN_POINT('',(2.70000000000001,-1.,24.3));
#1914=CARTESIAN_POINT('',(3.,-1.,26.7));
#1915=CARTESIAN_POINT('',(3.,0.,26.7));
#1916=CARTESIAN_POINT('',(3.,0.,26.7));
#1917=CARTESIAN_POINT('',(3.,-1.,26.7));
#1918=CARTESIAN_POINT('',(3.,-1.,26.7));
#1919=CARTESIAN_POINT('',(3.,-1.,26.7));
#1920=CARTESIAN_POINT('',(2.7,-1.,26.7));
#1921=CARTESIAN_POINT('',(2.7,0.,26.7));
#1922=CARTESIAN_POINT('',(2.7,0.,27.));
#1923=CARTESIAN_POINT('',(2.7,-1.,27.));
#1924=CARTESIAN_POINT('',(2.7,-1.,27.));
#1925=CARTESIAN_POINT('',(2.7,-1.,26.7));
#1926=CARTESIAN_POINT('',(-2.7,-1.,27.));
#1927=CARTESIAN_POINT('',(-2.7,0.,27.));
#1928=CARTESIAN_POINT('',(-2.7,0.,27.));
#1929=CARTESIAN_POINT('',(-2.7,-1.,27.));
#1930=CARTESIAN_POINT('',(-2.7,-1.,27.));
#1931=CARTESIAN_POINT('',(-2.7,-1.,27.));
#1932=CARTESIAN_POINT('',(-2.7,-1.,26.7));
#1933=CARTESIAN_POINT('',(-2.7,0.,26.7));
#1934=CARTESIAN_POINT('',(-3.,0.,26.7));
#1935=CARTESIAN_POINT('',(-3.,-1.,26.7));
#1936=CARTESIAN_POINT('',(-3.,-1.,26.7));
#1937=CARTESIAN_POINT('',(-2.7,-1.,26.7));
#1938=CARTESIAN_POINT('',(-2.7,-1.,5.3));
#1939=CARTESIAN_POINT('',(-2.7,0.,5.3));
#1940=CARTESIAN_POINT('',(-2.7,0.,5.));
#1941=CARTESIAN_POINT('',(-3.,0.,5.3));
#1942=CARTESIAN_POINT('',(-2.7,-1.,5.));
#1943=CARTESIAN_POINT('',(-2.7,-1.,5.));
#1944=CARTESIAN_POINT('',(-2.7,-1.,5.3));
#1945=CARTESIAN_POINT('',(-3.,-1.,5.3));
#1946=CARTESIAN_POINT('',(-3.,-1.,5.3));
#1947=CARTESIAN_POINT('',(2.7,-1.,5.));
#1948=CARTESIAN_POINT('',(2.7,0.,5.));
#1949=CARTESIAN_POINT('',(2.7,0.,5.));
#1950=CARTESIAN_POINT('',(2.7,-1.,5.));
#1951=CARTESIAN_POINT('',(2.7,-1.,5.));
#1952=CARTESIAN_POINT('',(2.7,-1.,5.));
#1953=CARTESIAN_POINT('',(2.7,-1.,5.3));
#1954=CARTESIAN_POINT('',(2.7,0.,5.3));
#1955=CARTESIAN_POINT('',(3.,0.,5.3));
#1956=CARTESIAN_POINT('',(3.,-1.,5.3));
#1957=CARTESIAN_POINT('',(3.,-1.,5.3));
#1958=CARTESIAN_POINT('',(2.7,-1.,5.3));
#1959=CARTESIAN_POINT('',(3.,-1.,10.7));
#1960=CARTESIAN_POINT('',(3.,0.,10.7));
#1961=CARTESIAN_POINT('',(3.,0.,10.7));
#1962=CARTESIAN_POINT('',(3.,-1.,10.7));
#1963=CARTESIAN_POINT('',(3.,-1.,10.7));
#1964=CARTESIAN_POINT('',(3.,-1.,10.7));
#1965=CARTESIAN_POINT('',(2.7,-1.,10.7));
#1966=CARTESIAN_POINT('',(2.7,0.,10.7));
#1967=CARTESIAN_POINT('',(2.7,0.,11.));
#1968=CARTESIAN_POINT('',(2.7,-1.,11.));
#1969=CARTESIAN_POINT('',(2.7,-1.,11.));
#1970=CARTESIAN_POINT('',(2.7,-1.,10.7));
#1971=CARTESIAN_POINT('',(-2.7,-1.,11.));
#1972=CARTESIAN_POINT('',(-2.7,0.,11.));
#1973=CARTESIAN_POINT('',(-2.7,0.,11.));
#1974=CARTESIAN_POINT('',(-2.7,-1.,11.));
#1975=CARTESIAN_POINT('',(-2.7,-1.,11.));
#1976=CARTESIAN_POINT('',(-2.7,-1.,11.));
#1977=CARTESIAN_POINT('',(-2.7,-1.,10.7));
#1978=CARTESIAN_POINT('',(-2.7,0.,10.7));
#1979=CARTESIAN_POINT('',(-3.,0.,10.7));
#1980=CARTESIAN_POINT('',(-3.,-1.,10.7));
#1981=CARTESIAN_POINT('',(-3.,-1.,10.7));
#1982=CARTESIAN_POINT('',(-2.7,-1.,10.7));
#1983=CARTESIAN_POINT('',(-3.,-1.,24.3));
#1984=CARTESIAN_POINT('',(-3.,0.,24.3));
#1985=CARTESIAN_POINT('',(-3.,-1.,24.3));
#1986=CARTESIAN_POINT('',(-3.,-1.,5.3));
#1987=CARTESIAN_POINT('',(-3.,0.,5.3));
#1988=CARTESIAN_POINT('',(-3.,-1.,5.3));
#1989=CARTESIAN_POINT('',(0.,0.,0.));
#1990=CARTESIAN_POINT('',(-10.,0.,0.));
#1991=CARTESIAN_POINT('',(0.,-1.,0.));
#1992=CARTESIAN_POINT('',(0.,-1.,0.));
#1993=CARTESIAN_POINT('',(0.5,7.39759726406538,-1.));
#1994=CARTESIAN_POINT('',(0.5,7.39759726406538,0.));
#1995=CARTESIAN_POINT('',(0.5,7.,0.));
#1996=CARTESIAN_POINT('',(0.5,7.39759726406538,-1.));
#1997=CARTESIAN_POINT('',(0.5,7.,-1.));
#1998=CARTESIAN_POINT('',(0.5,7.,-1.));
#1999=CARTESIAN_POINT('',(3.,9.5,-1.));
#2000=CARTESIAN_POINT('',(3.,9.5,0.));
#2001=CARTESIAN_POINT('',(3.,9.5,0.));
#2002=CARTESIAN_POINT('',(3.,9.5,-1.));
#2003=CARTESIAN_POINT('',(3.,9.5,-1.));
#2004=CARTESIAN_POINT('',(3.,9.5,-1.));
#2005=CARTESIAN_POINT('',(3.,8.,-1.));
#2006=CARTESIAN_POINT('',(3.,8.,0.));
#2007=CARTESIAN_POINT('',(3.,8.,0.));
#2008=CARTESIAN_POINT('',(3.,8.,-1.));
#2009=CARTESIAN_POINT('',(3.,8.,-1.));
#2010=CARTESIAN_POINT('',(3.,8.,-1.));
#2011=CARTESIAN_POINT('',(2.,8.,-1.));
#2012=CARTESIAN_POINT('',(2.,8.,0.));
#2013=CARTESIAN_POINT('',(2.,7.,0.));
#2014=CARTESIAN_POINT('',(2.,7.,-1.));
#2015=CARTESIAN_POINT('',(2.,7.,-1.));
#2016=CARTESIAN_POINT('',(2.,8.,-1.));
#2017=CARTESIAN_POINT('',(0.5,13.,-1.));
#2018=CARTESIAN_POINT('',(0.5,13.,0.));
#2019=CARTESIAN_POINT('',(0.5,13.,0.));
#2020=CARTESIAN_POINT('',(0.5,13.,-1.));
#2021=CARTESIAN_POINT('',(0.5,13.,-1.));
#2022=CARTESIAN_POINT('',(0.5,13.,-1.));
#2023=CARTESIAN_POINT('',(2.,13.,-1.));
#2024=CARTESIAN_POINT('',(2.,13.,0.));
#2025=CARTESIAN_POINT('',(2.,13.,0.));
#2026=CARTESIAN_POINT('',(2.,13.,-1.));
#2027=CARTESIAN_POINT('',(2.,13.,-1.));
#2028=CARTESIAN_POINT('',(2.,13.,-1.));
#2029=CARTESIAN_POINT('',(2.,12.,-1.));
#2030=CARTESIAN_POINT('',(2.,12.,0.));
#2031=CARTESIAN_POINT('',(3.,12.,0.));
#2032=CARTESIAN_POINT('',(3.,12.,-1.));
#2033=CARTESIAN_POINT('',(3.,12.,-1.));
#2034=CARTESIAN_POINT('',(2.,12.,-1.));
#2035=CARTESIAN_POINT('',(3.,10.5,-1.));
#2036=CARTESIAN_POINT('',(3.,10.5,0.));
#2037=CARTESIAN_POINT('',(3.,10.5,0.));
#2038=CARTESIAN_POINT('',(3.,10.5,-1.));
#2039=CARTESIAN_POINT('',(3.,10.5,-1.));
#2040=CARTESIAN_POINT('',(3.,10.5,-1.));
#2041=CARTESIAN_POINT('',(2.60240273593462,10.5,-1.));
#2042=CARTESIAN_POINT('',(2.60240273593462,10.5,0.));
#2043=CARTESIAN_POINT('',(2.60240273593462,10.5,-1.));
#2044=CARTESIAN_POINT('',(-2.,12.,-1.));
#2045=CARTESIAN_POINT('',(-2.,12.,0.));
#2046=CARTESIAN_POINT('',(-2.,13.,0.));
#2047=CARTESIAN_POINT('',(-3.,12.,0.));
#2048=CARTESIAN_POINT('',(-2.,13.,-1.));
#2049=CARTESIAN_POINT('',(-2.,13.,-1.));
#2050=CARTESIAN_POINT('',(-2.,12.,-1.));
#2051=CARTESIAN_POINT('',(-3.,12.,-1.));
#2052=CARTESIAN_POINT('',(-3.,12.,-1.));
#2053=CARTESIAN_POINT('',(-0.5,13.,-1.));
#2054=CARTESIAN_POINT('',(-0.5,13.,0.));
#2055=CARTESIAN_POINT('',(-0.5,13.,0.));
#2056=CARTESIAN_POINT('',(-0.5,13.,-1.));
#2057=CARTESIAN_POINT('',(-0.5,13.,-1.));
#2058=CARTESIAN_POINT('',(-0.5,13.,-1.));
#2059=CARTESIAN_POINT('',(-0.5,12.6024027359346,-1.));
#2060=CARTESIAN_POINT('',(-0.5,12.6024027359346,0.));
#2061=CARTESIAN_POINT('',(-0.5,12.6024027359346,-1.));
#2062=CARTESIAN_POINT('',(-3.,10.5,-1.));
#2063=CARTESIAN_POINT('',(-3.,10.5,0.));
#2064=CARTESIAN_POINT('',(-3.,10.5,0.));
#2065=CARTESIAN_POINT('',(-3.,10.5,-1.));
#2066=CARTESIAN_POINT('',(-3.,10.5,-1.));
#2067=CARTESIAN_POINT('',(-3.,10.5,-1.));
#2068=CARTESIAN_POINT('',(-2.60240273593462,9.5,-1.));
#2069=CARTESIAN_POINT('',(-2.60240273593462,9.5,0.));
#2070=CARTESIAN_POINT('',(-3.,9.5,0.));
#2071=CARTESIAN_POINT('',(-2.60240273593462,9.5,-1.));
#2072=CARTESIAN_POINT('',(-3.,9.5,-1.));
#2073=CARTESIAN_POINT('',(-3.,9.5,-1.));
#2074=CARTESIAN_POINT('',(-0.5,7.,-1.));
#2075=CARTESIAN_POINT('',(-0.5,7.,0.));
#2076=CARTESIAN_POINT('',(-0.5,7.,0.));
#2077=CARTESIAN_POINT('',(-0.5,7.,-1.));
#2078=CARTESIAN_POINT('',(-0.5,7.,-1.));
#2079=CARTESIAN_POINT('',(-0.5,7.,-1.));
#2080=CARTESIAN_POINT('',(-2.,7.,-1.));
#2081=CARTESIAN_POINT('',(-2.,7.,0.));
#2082=CARTESIAN_POINT('',(-2.,7.,0.));
#2083=CARTESIAN_POINT('',(-2.,7.,-1.));
#2084=CARTESIAN_POINT('',(-2.,7.,-1.));
#2085=CARTESIAN_POINT('',(-2.,7.,-1.));
#2086=CARTESIAN_POINT('',(-2.,8.,-1.));
#2087=CARTESIAN_POINT('',(-2.,8.,0.));
#2088=CARTESIAN_POINT('',(-3.,8.,0.));
#2089=CARTESIAN_POINT('',(-3.,8.,-1.));
#2090=CARTESIAN_POINT('',(-3.,8.,-1.));
#2091=CARTESIAN_POINT('',(-2.,8.,-1.));
#2092=CARTESIAN_POINT('',(-3.,12.,-1.));
#2093=CARTESIAN_POINT('',(-3.,12.,0.));
#2094=CARTESIAN_POINT('',(-3.,12.,-1.));
#2095=CARTESIAN_POINT('',(-3.,9.5,-1.));
#2096=CARTESIAN_POINT('',(-3.,9.5,0.));
#2097=CARTESIAN_POINT('',(-3.,9.5,-1.));
#2098=CARTESIAN_POINT('',(0.5,7.,-1.));
#2099=CARTESIAN_POINT('',(0.5,7.,0.));
#2100=CARTESIAN_POINT('',(0.5,7.,-1.));
#2101=CARTESIAN_POINT('',(0.,0.,0.));
#2102=CARTESIAN_POINT('',(0.,0.,-1.));
#2103=CARTESIAN_POINT('',(0.,0.,-1.));
#2104=CARTESIAN_POINT('',(0.,0.,-1.));
#2105=CARTESIAN_POINT('',(0.,0.,-1.));
#2106=CARTESIAN_POINT('',(0.,0.,0.));
#2107=MECHANICAL_DESIGN_GEOMETRIC_PRESENTATION_REPRESENTATION('',(#1261),
#2108);
#2108=(
GEOMETRIC_REPRESENTATION_CONTEXT(3)
GLOBAL_UNCERTAINTY_ASSIGNED_CONTEXT((#2110))
GLOBAL_UNIT_ASSIGNED_CONTEXT((#2114,#2113,#2112))
REPRESENTATION_CONTEXT('HBLFSNB5','TOP_LEVEL_ASSEMBLY_PART')
);
#2109=(
GEOMETRIC_REPRESENTATION_CONTEXT(3)
GLOBAL_UNCERTAINTY_ASSIGNED_CONTEXT((#2111))
GLOBAL_UNIT_ASSIGNED_CONTEXT((#2114,#2113,#2112))
REPRESENTATION_CONTEXT('HBLFSNB5h5','COMPONENT_PART')
);
#2110=UNCERTAINTY_MEASURE_WITH_UNIT(LENGTH_MEASURE(0.005),#2114,
'DISTANCE_ACCURACY_VALUE','Maximum Tolerance applied to model');
#2111=UNCERTAINTY_MEASURE_WITH_UNIT(LENGTH_MEASURE(0.005),#2114,
'DISTANCE_ACCURACY_VALUE','Maximum Tolerance applied to model');
#2112=(
NAMED_UNIT(*)
SI_UNIT($,.STERADIAN.)
SOLID_ANGLE_UNIT()
);
#2113=(
NAMED_UNIT(*)
PLANE_ANGLE_UNIT()
SI_UNIT($,.RADIAN.)
);
#2114=(
LENGTH_UNIT()
NAMED_UNIT(*)
SI_UNIT(.MILLI.,.METRE.)
);
#2115=PRODUCT_DEFINITION_SHAPE('','',#2118);
#2116=PRODUCT_DEFINITION_SHAPE('','',#2119);
#2117=PRODUCT_DEFINITION_SHAPE(' ','NAUO PRDDFN',#19);
#2118=PRODUCT_DEFINITION('','',#2122,#2120);
#2119=PRODUCT_DEFINITION('','',#2123,#2121);
#2120=DESIGN_CONTEXT('',#2133,'design');
#2121=DESIGN_CONTEXT('',#2133,'design');
#2122=PRODUCT_DEFINITION_FORMATION_WITH_SPECIFIED_SOURCE('','',#2126,
 .NOT_KNOWN.);
#2123=PRODUCT_DEFINITION_FORMATION_WITH_SPECIFIED_SOURCE('','',#2127,
 .NOT_KNOWN.);
#2124=PRODUCT_RELATED_PRODUCT_CATEGORY('','',(#2126));
#2125=PRODUCT_RELATED_PRODUCT_CATEGORY('','',(#2127));
#2126=PRODUCT('HBLFSNB5','HBLFSNB5','HBLFSNB5',(#2130));
#2127=PRODUCT('HBLFSNB5h5','HBLFSNB5h5','HBLFSNB5h5',(#2131));
#2128=PRODUCT_CATEGORY('','');
#2129=PRODUCT_CATEGORY('','');
#2130=MECHANICAL_CONTEXT('',#2133,'mechanical');
#2131=MECHANICAL_CONTEXT('',#2133,'mechanical');
#2132=APPLICATION_PROTOCOL_DEFINITION('international standard',
'config_control_design',2010,#2133);
#2133=APPLICATION_CONTEXT(
'configuration controlled 3D designs of mechanical parts and assemblie
s');
ENDSEC;
END-ISO-10303-21;
