ISO-10303-21;
HEADER;
/* Generated by software containing ST-Developer
 * from STEP Tools, Inc. (www.steptools.com) 
 */

FILE_DESCRIPTION(
/* description */ (''),
/* implementation_level */ '2;1');

FILE_NAME(
/* name */ 'basepart2_forR2.stp',
/* time_stamp */ '2026-05-04T17:25:06+09:00',
/* author */ ('kshau'),
/* organization */ (''),
/* preprocessor_version */ 'ST-DEVELOPER v20',
/* originating_system */ 'Autodesk Inventor 2024',
/* authorisation */ '');

FILE_SCHEMA (('AUTOMOTIVE_DESIGN { 1 0 10303 214 3 1 1 }'));
ENDSEC;

DATA;
#10=MECHANICAL_DESIGN_GEOMETRIC_PRESENTATION_REPRESENTATION('',(#13),#1441);
#11=SHAPE_REPRESENTATION_RELATIONSHIP('SRR','None',#1448,#12);
#12=ADVANCED_BREP_SHAPE_REPRESENTATION('',(#14),#1440);
#13=STYLED_ITEM('',(#1457),#14);
#14=MANIFOLD_SOLID_BREP('\X2\30BD30EA30C330C9\X0\1',#713);
#15=FACE_BOUND('',#244,.T.);
#16=FACE_BOUND('',#245,.T.);
#17=FACE_BOUND('',#252,.T.);
#18=FACE_BOUND('',#253,.T.);
#19=PLANE('',#785);
#20=PLANE('',#787);
#21=PLANE('',#789);
#22=PLANE('',#791);
#23=PLANE('',#792);
#24=PLANE('',#793);
#25=PLANE('',#794);
#26=PLANE('',#795);
#27=PLANE('',#796);
#28=PLANE('',#797);
#29=PLANE('',#798);
#30=PLANE('',#799);
#31=PLANE('',#800);
#32=PLANE('',#801);
#33=PLANE('',#802);
#34=PLANE('',#803);
#35=PLANE('',#804);
#36=SPHERICAL_SURFACE('',#751,2.);
#37=SPHERICAL_SURFACE('',#757,2.);
#38=SPHERICAL_SURFACE('',#764,2.);
#39=LINE('',#1135,#96);
#40=LINE('',#1138,#97);
#41=LINE('',#1141,#98);
#42=LINE('',#1154,#99);
#43=LINE('',#1155,#100);
#44=LINE('',#1174,#101);
#45=LINE('',#1175,#102);
#46=LINE('',#1334,#103);
#47=LINE('',#1335,#104);
#48=LINE('',#1337,#105);
#49=LINE('',#1338,#106);
#50=LINE('',#1340,#107);
#51=LINE('',#1341,#108);
#52=LINE('',#1346,#109);
#53=LINE('',#1347,#110);
#54=LINE('',#1352,#111);
#55=LINE('',#1354,#112);
#56=LINE('',#1357,#113);
#57=LINE('',#1359,#114);
#58=LINE('',#1361,#115);
#59=LINE('',#1363,#116);
#60=LINE('',#1365,#117);
#61=LINE('',#1366,#118);
#62=LINE('',#1369,#119);
#63=LINE('',#1371,#120);
#64=LINE('',#1373,#121);
#65=LINE('',#1375,#122);
#66=LINE('',#1377,#123);
#67=LINE('',#1378,#124);
#68=LINE('',#1380,#125);
#69=LINE('',#1384,#126);
#70=LINE('',#1385,#127);
#71=LINE('',#1387,#128);
#72=LINE('',#1391,#129);
#73=LINE('',#1393,#130);
#74=LINE('',#1395,#131);
#75=LINE('',#1397,#132);
#76=LINE('',#1399,#133);
#77=LINE('',#1400,#134);
#78=LINE('',#1403,#135);
#79=LINE('',#1405,#136);
#80=LINE('',#1407,#137);
#81=LINE('',#1409,#138);
#82=LINE('',#1411,#139);
#83=LINE('',#1412,#140);
#84=LINE('',#1414,#141);
#85=LINE('',#1415,#142);
#86=LINE('',#1417,#143);
#87=LINE('',#1419,#144);
#88=LINE('',#1421,#145);
#89=LINE('',#1423,#146);
#90=LINE('',#1426,#147);
#91=LINE('',#1427,#148);
#92=LINE('',#1429,#149);
#93=LINE('',#1431,#150);
#94=LINE('',#1433,#151);
#95=LINE('',#1435,#152);
#96=VECTOR('',#832,10.);
#97=VECTOR('',#835,10.);
#98=VECTOR('',#838,10.);
#99=VECTOR('',#853,10.);
#100=VECTOR('',#854,10.);
#101=VECTOR('',#879,10.);
#102=VECTOR('',#880,10.);
#103=VECTOR('',#901,10.);
#104=VECTOR('',#902,10.);
#105=VECTOR('',#905,10.);
#106=VECTOR('',#906,10.);
#107=VECTOR('',#909,10.);
#108=VECTOR('',#910,10.);
#109=VECTOR('',#915,10.);
#110=VECTOR('',#916,10.);
#111=VECTOR('',#923,10.);
#112=VECTOR('',#926,10.);
#113=VECTOR('',#927,10.);
#114=VECTOR('',#928,10.);
#115=VECTOR('',#929,10.);
#116=VECTOR('',#930,10.);
#117=VECTOR('',#931,10.);
#118=VECTOR('',#932,10.);
#119=VECTOR('',#933,10.);
#120=VECTOR('',#934,10.);
#121=VECTOR('',#935,10.);
#122=VECTOR('',#936,10.);
#123=VECTOR('',#937,10.);
#124=VECTOR('',#938,10.);
#125=VECTOR('',#941,10.);
#126=VECTOR('',#948,10.);
#127=VECTOR('',#949,10.);
#128=VECTOR('',#952,10.);
#129=VECTOR('',#955,10.);
#130=VECTOR('',#956,10.);
#131=VECTOR('',#957,10.);
#132=VECTOR('',#958,10.);
#133=VECTOR('',#959,10.);
#134=VECTOR('',#960,10.);
#135=VECTOR('',#961,10.);
#136=VECTOR('',#962,10.);
#137=VECTOR('',#963,10.);
#138=VECTOR('',#964,10.);
#139=VECTOR('',#965,10.);
#140=VECTOR('',#966,10.);
#141=VECTOR('',#969,10.);
#142=VECTOR('',#970,10.);
#143=VECTOR('',#973,10.);
#144=VECTOR('',#976,10.);
#145=VECTOR('',#979,10.);
#146=VECTOR('',#982,10.);
#147=VECTOR('',#987,10.);
#148=VECTOR('',#988,10.);
#149=VECTOR('',#991,10.);
#150=VECTOR('',#994,10.);
#151=VECTOR('',#997,10.);
#152=VECTOR('',#1000,10.);
#153=CYLINDRICAL_SURFACE('',#747,57.5);
#154=CYLINDRICAL_SURFACE('',#749,2.);
#155=CYLINDRICAL_SURFACE('',#755,2.);
#156=CYLINDRICAL_SURFACE('',#768,2.);
#157=CYLINDRICAL_SURFACE('',#778,2.);
#158=CYLINDRICAL_SURFACE('',#779,2.);
#159=CYLINDRICAL_SURFACE('',#780,2.);
#160=CYLINDRICAL_SURFACE('',#781,2.);
#161=CYLINDRICAL_SURFACE('',#783,86.2565);
#162=CYLINDRICAL_SURFACE('',#788,2.);
#163=CYLINDRICAL_SURFACE('',#790,2.);
#164=CYLINDRICAL_SURFACE('',#805,77.947);
#165=TOROIDAL_SURFACE('',#740,58.5,1.);
#166=TOROIDAL_SURFACE('',#761,84.2565,2.);
#167=TOROIDAL_SURFACE('',#769,79.947,2.);
#168=TOROIDAL_SURFACE('',#774,75.947,2.);
#169=B_SPLINE_CURVE_WITH_KNOTS('',3,(#1060,#1061,#1062,#1063),
 .UNSPECIFIED.,.F.,.F.,(4,4),(-0.0302239039991704,-2.39791471945619E-15),
 .UNSPECIFIED.);
#170=B_SPLINE_CURVE_WITH_KNOTS('',3,(#1064,#1065,#1066,#1067),
 .UNSPECIFIED.,.F.,.F.,(4,4),(2.39791471945619E-15,0.0302239039991704),
 .UNSPECIFIED.);
#171=B_SPLINE_CURVE_WITH_KNOTS('',3,(#1097,#1098,#1099,#1100),
 .UNSPECIFIED.,.F.,.F.,(4,4),(-0.0302239039991711,-2.5925237036647E-16),
 .UNSPECIFIED.);
#172=B_SPLINE_CURVE_WITH_KNOTS('',3,(#1101,#1102,#1103,#1104),
 .UNSPECIFIED.,.F.,.F.,(4,4),(2.5925237036647E-16,0.0302239039991711),
 .UNSPECIFIED.);
#173=B_SPLINE_CURVE_WITH_KNOTS('',3,(#1181,#1182,#1183,#1184,#1185,#1186,
#1187,#1188,#1189,#1190,#1191,#1192,#1193,#1194),.UNSPECIFIED.,.F.,.F.,
(4,2,2,2,2,2,4),(-0.000812086577019496,0.,0.0738187681786236,0.145509394904441,
0.231664760549827,0.300236399011505,0.361786270346187),.UNSPECIFIED.);
#174=B_SPLINE_CURVE_WITH_KNOTS('',3,(#1229,#1230,#1231,#1232,#1233,#1234),
 .UNSPECIFIED.,.F.,.F.,(4,1,1,4),(1.79424977488554E-17,0.272629388959265,
0.454382314932109,0.636135240904952),.UNSPECIFIED.);
#175=B_SPLINE_CURVE_WITH_KNOTS('',3,(#1237,#1238,#1239,#1240,#1241,#1242),
 .UNSPECIFIED.,.F.,.F.,(4,1,1,4),(-0.636135240904952,-0.454382314932109,
-0.272629388959265,-1.79424977488554E-17),.UNSPECIFIED.);
#176=B_SPLINE_CURVE_WITH_KNOTS('',3,(#1281,#1282,#1283,#1284,#1285,#1286,
#1287,#1288,#1289,#1290),.UNSPECIFIED.,.F.,.F.,(4,2,2,2,4),(0.,0.117576103889915,
0.24221271608296,0.369652015015189,0.370510455260844),.UNSPECIFIED.);
#177=B_SPLINE_CURVE_WITH_KNOTS('',3,(#1291,#1292,#1293,#1294,#1295,#1296,
#1297,#1298,#1299,#1300,#1301,#1302,#1303,#1304,#1305,#1306,#1307,#1308,
#1309,#1310,#1311,#1312,#1313,#1314,#1315,#1316,#1317,#1318,#1319,#1320,
#1321,#1322,#1323,#1324,#1325,#1326,#1327),.UNSPECIFIED.,.F.,.F.,(4,3,3,
3,3,3,3,3,3,3,3,3,4),(-3.18152191960901,-3.10825089793839,-3.03497987626777,
-2.90937510805827,-2.89690398482291,-2.81961804285576,-2.76939425113441,
-2.72793156594871,-2.65922334959435,-2.57871137519039,-2.55948226738582,
-2.55188742531937,-2.5465904495793),.UNSPECIFIED.);
#178=B_SPLINE_CURVE_WITH_KNOTS('',3,(#1328,#1329,#1330,#1331,#1332),
 .UNSPECIFIED.,.F.,.F.,(4,1,4),(2.54659044957929,2.72799944101635,2.80714918582462),
 .UNSPECIFIED.);
#179=FACE_OUTER_BOUND('',#221,.T.);
#180=FACE_OUTER_BOUND('',#222,.T.);
#181=FACE_OUTER_BOUND('',#223,.T.);
#182=FACE_OUTER_BOUND('',#224,.T.);
#183=FACE_OUTER_BOUND('',#225,.T.);
#184=FACE_OUTER_BOUND('',#226,.T.);
#185=FACE_OUTER_BOUND('',#227,.T.);
#186=FACE_OUTER_BOUND('',#228,.T.);
#187=FACE_OUTER_BOUND('',#229,.T.);
#188=FACE_OUTER_BOUND('',#230,.T.);
#189=FACE_OUTER_BOUND('',#231,.T.);
#190=FACE_OUTER_BOUND('',#232,.T.);
#191=FACE_OUTER_BOUND('',#233,.T.);
#192=FACE_OUTER_BOUND('',#234,.T.);
#193=FACE_OUTER_BOUND('',#235,.T.);
#194=FACE_OUTER_BOUND('',#236,.T.);
#195=FACE_OUTER_BOUND('',#237,.T.);
#196=FACE_OUTER_BOUND('',#238,.T.);
#197=FACE_OUTER_BOUND('',#239,.T.);
#198=FACE_OUTER_BOUND('',#240,.T.);
#199=FACE_OUTER_BOUND('',#241,.T.);
#200=FACE_OUTER_BOUND('',#242,.T.);
#201=FACE_OUTER_BOUND('',#243,.T.);
#202=FACE_OUTER_BOUND('',#246,.T.);
#203=FACE_OUTER_BOUND('',#247,.T.);
#204=FACE_OUTER_BOUND('',#248,.T.);
#205=FACE_OUTER_BOUND('',#249,.T.);
#206=FACE_OUTER_BOUND('',#250,.T.);
#207=FACE_OUTER_BOUND('',#251,.T.);
#208=FACE_OUTER_BOUND('',#254,.T.);
#209=FACE_OUTER_BOUND('',#255,.T.);
#210=FACE_OUTER_BOUND('',#256,.T.);
#211=FACE_OUTER_BOUND('',#257,.T.);
#212=FACE_OUTER_BOUND('',#258,.T.);
#213=FACE_OUTER_BOUND('',#259,.T.);
#214=FACE_OUTER_BOUND('',#260,.T.);
#215=FACE_OUTER_BOUND('',#261,.T.);
#216=FACE_OUTER_BOUND('',#262,.T.);
#217=FACE_OUTER_BOUND('',#263,.T.);
#218=FACE_OUTER_BOUND('',#264,.T.);
#219=FACE_OUTER_BOUND('',#265,.T.);
#220=FACE_OUTER_BOUND('',#266,.T.);
#221=EDGE_LOOP('',(#463,#464,#465));
#222=EDGE_LOOP('',(#466,#467,#468,#469));
#223=EDGE_LOOP('',(#470,#471,#472,#473));
#224=EDGE_LOOP('',(#474,#475,#476,#477));
#225=EDGE_LOOP('',(#478,#479,#480));
#226=EDGE_LOOP('',(#481,#482,#483,#484,#485,#486));
#227=EDGE_LOOP('',(#487,#488,#489,#490));
#228=EDGE_LOOP('',(#491,#492,#493));
#229=EDGE_LOOP('',(#494,#495,#496,#497));
#230=EDGE_LOOP('',(#498,#499,#500));
#231=EDGE_LOOP('',(#501,#502,#503,#504));
#232=EDGE_LOOP('',(#505,#506,#507));
#233=EDGE_LOOP('',(#508,#509,#510,#511));
#234=EDGE_LOOP('',(#512,#513,#514,#515));
#235=EDGE_LOOP('',(#516,#517,#518,#519));
#236=EDGE_LOOP('',(#520,#521,#522,#523));
#237=EDGE_LOOP('',(#524,#525,#526,#527));
#238=EDGE_LOOP('',(#528,#529,#530,#531,#532));
#239=EDGE_LOOP('',(#533,#534,#535,#536));
#240=EDGE_LOOP('',(#537,#538,#539,#540));
#241=EDGE_LOOP('',(#541,#542,#543,#544));
#242=EDGE_LOOP('',(#545,#546,#547,#548));
#243=EDGE_LOOP('',(#549,#550,#551,#552,#553,#554,#555,#556));
#244=EDGE_LOOP('',(#557,#558,#559,#560,#561,#562));
#245=EDGE_LOOP('',(#563,#564,#565,#566,#567,#568));
#246=EDGE_LOOP('',(#569,#570,#571,#572,#573,#574,#575));
#247=EDGE_LOOP('',(#576,#577,#578,#579));
#248=EDGE_LOOP('',(#580,#581,#582,#583));
#249=EDGE_LOOP('',(#584,#585,#586,#587,#588));
#250=EDGE_LOOP('',(#589,#590,#591,#592,#593,#594,#595));
#251=EDGE_LOOP('',(#596,#597,#598,#599));
#252=EDGE_LOOP('',(#600,#601,#602,#603,#604,#605));
#253=EDGE_LOOP('',(#606,#607,#608,#609,#610,#611));
#254=EDGE_LOOP('',(#612,#613,#614,#615));
#255=EDGE_LOOP('',(#616,#617,#618,#619));
#256=EDGE_LOOP('',(#620,#621,#622,#623));
#257=EDGE_LOOP('',(#624,#625,#626,#627));
#258=EDGE_LOOP('',(#628,#629,#630,#631));
#259=EDGE_LOOP('',(#632,#633,#634,#635));
#260=EDGE_LOOP('',(#636,#637,#638,#639));
#261=EDGE_LOOP('',(#640,#641,#642,#643));
#262=EDGE_LOOP('',(#644,#645,#646,#647));
#263=EDGE_LOOP('',(#648,#649,#650,#651));
#264=EDGE_LOOP('',(#652,#653,#654,#655));
#265=EDGE_LOOP('',(#656,#657,#658,#659));
#266=EDGE_LOOP('',(#660,#661,#662,#663,#664));
#267=ELLIPSE('',#737,2.23606797749979,1.99999999999999);
#268=ELLIPSE('',#738,2.23606797749979,2.00000000000001);
#269=ELLIPSE('',#745,2.23606797749979,1.99999999999999);
#270=ELLIPSE('',#746,2.23606797749979,2.);
#271=CIRCLE('',#736,1.00000000000001);
#272=CIRCLE('',#739,0.999999999999999);
#273=CIRCLE('',#741,0.999999999999999);
#274=CIRCLE('',#742,58.5);
#275=CIRCLE('',#743,57.5);
#276=CIRCLE('',#744,1.);
#277=CIRCLE('',#748,57.5);
#278=CIRCLE('',#750,2.);
#279=CIRCLE('',#752,2.);
#280=CIRCLE('',#753,2.);
#281=CIRCLE('',#754,2.);
#282=CIRCLE('',#756,2.);
#283=CIRCLE('',#758,2.);
#284=CIRCLE('',#759,2.);
#285=CIRCLE('',#760,2.);
#286=CIRCLE('',#762,84.2565);
#287=CIRCLE('',#763,86.2565);
#288=CIRCLE('',#765,1.99999999999998);
#289=CIRCLE('',#766,2.);
#290=CIRCLE('',#767,2.00000000000001);
#291=CIRCLE('',#770,77.947);
#292=CIRCLE('',#771,79.947);
#293=CIRCLE('',#772,1.99999999999999);
#294=CIRCLE('',#773,1.99999999999999);
#295=CIRCLE('',#775,2.);
#296=CIRCLE('',#776,75.947);
#297=CIRCLE('',#777,77.947);
#298=CIRCLE('',#782,2.);
#299=CIRCLE('',#784,86.2565);
#300=CIRCLE('',#786,2.);
#301=VERTEX_POINT('',#1031);
#302=VERTEX_POINT('',#1032);
#303=VERTEX_POINT('',#1034);
#304=VERTEX_POINT('',#1057);
#305=VERTEX_POINT('',#1058);
#306=VERTEX_POINT('',#1069);
#307=VERTEX_POINT('',#1070);
#308=VERTEX_POINT('',#1094);
#309=VERTEX_POINT('',#1095);
#310=VERTEX_POINT('',#1130);
#311=VERTEX_POINT('',#1134);
#312=VERTEX_POINT('',#1136);
#313=VERTEX_POINT('',#1140);
#314=VERTEX_POINT('',#1144);
#315=VERTEX_POINT('',#1145);
#316=VERTEX_POINT('',#1147);
#317=VERTEX_POINT('',#1151);
#318=VERTEX_POINT('',#1152);
#319=VERTEX_POINT('',#1157);
#320=VERTEX_POINT('',#1158);
#321=VERTEX_POINT('',#1160);
#322=VERTEX_POINT('',#1167);
#323=VERTEX_POINT('',#1168);
#324=VERTEX_POINT('',#1170);
#325=VERTEX_POINT('',#1177);
#326=VERTEX_POINT('',#1179);
#327=VERTEX_POINT('',#1225);
#328=VERTEX_POINT('',#1226);
#329=VERTEX_POINT('',#1228);
#330=VERTEX_POINT('',#1235);
#331=VERTEX_POINT('',#1244);
#332=VERTEX_POINT('',#1245);
#333=VERTEX_POINT('',#1279);
#334=VERTEX_POINT('',#1280);
#335=VERTEX_POINT('',#1343);
#336=VERTEX_POINT('',#1344);
#337=VERTEX_POINT('',#1351);
#338=VERTEX_POINT('',#1355);
#339=VERTEX_POINT('',#1356);
#340=VERTEX_POINT('',#1358);
#341=VERTEX_POINT('',#1360);
#342=VERTEX_POINT('',#1362);
#343=VERTEX_POINT('',#1364);
#344=VERTEX_POINT('',#1367);
#345=VERTEX_POINT('',#1368);
#346=VERTEX_POINT('',#1370);
#347=VERTEX_POINT('',#1372);
#348=VERTEX_POINT('',#1374);
#349=VERTEX_POINT('',#1376);
#350=VERTEX_POINT('',#1389);
#351=VERTEX_POINT('',#1390);
#352=VERTEX_POINT('',#1392);
#353=VERTEX_POINT('',#1394);
#354=VERTEX_POINT('',#1396);
#355=VERTEX_POINT('',#1398);
#356=VERTEX_POINT('',#1401);
#357=VERTEX_POINT('',#1402);
#358=VERTEX_POINT('',#1404);
#359=VERTEX_POINT('',#1406);
#360=VERTEX_POINT('',#1408);
#361=VERTEX_POINT('',#1410);
#362=EDGE_CURVE('',#301,#302,#271,.T.);
#363=EDGE_CURVE('',#302,#303,#267,.T.);
#364=EDGE_CURVE('',#303,#301,#268,.T.);
#365=EDGE_CURVE('',#304,#305,#272,.T.);
#366=EDGE_CURVE('',#305,#302,#169,.T.);
#367=EDGE_CURVE('',#301,#304,#170,.T.);
#368=EDGE_CURVE('',#306,#307,#273,.T.);
#369=EDGE_CURVE('',#307,#305,#274,.T.);
#370=EDGE_CURVE('',#304,#306,#275,.T.);
#371=EDGE_CURVE('',#308,#309,#276,.T.);
#372=EDGE_CURVE('',#309,#307,#171,.T.);
#373=EDGE_CURVE('',#306,#308,#172,.T.);
#374=EDGE_CURVE('',#308,#310,#269,.T.);
#375=EDGE_CURVE('',#310,#309,#270,.T.);
#376=EDGE_CURVE('',#311,#301,#39,.T.);
#377=EDGE_CURVE('',#312,#311,#277,.T.);
#378=EDGE_CURVE('',#308,#312,#40,.T.);
#379=EDGE_CURVE('',#303,#313,#41,.T.);
#380=EDGE_CURVE('',#313,#311,#278,.T.);
#381=EDGE_CURVE('',#314,#315,#279,.F.);
#382=EDGE_CURVE('',#316,#314,#280,.F.);
#383=EDGE_CURVE('',#315,#316,#281,.F.);
#384=EDGE_CURVE('',#317,#318,#282,.T.);
#385=EDGE_CURVE('',#318,#316,#42,.T.);
#386=EDGE_CURVE('',#314,#317,#43,.T.);
#387=EDGE_CURVE('',#319,#320,#283,.F.);
#388=EDGE_CURVE('',#321,#319,#284,.F.);
#389=EDGE_CURVE('',#320,#321,#285,.F.);
#390=EDGE_CURVE('',#315,#321,#286,.T.);
#391=EDGE_CURVE('',#319,#314,#287,.T.);
#392=EDGE_CURVE('',#322,#323,#288,.F.);
#393=EDGE_CURVE('',#324,#322,#289,.F.);
#394=EDGE_CURVE('',#323,#324,#290,.F.);
#395=EDGE_CURVE('',#321,#324,#44,.T.);
#396=EDGE_CURVE('',#322,#320,#45,.T.);
#397=EDGE_CURVE('',#325,#323,#291,.T.);
#398=EDGE_CURVE('',#324,#326,#292,.T.);
#399=EDGE_CURVE('',#326,#325,#173,.T.);
#400=EDGE_CURVE('',#327,#328,#293,.T.);
#401=EDGE_CURVE('',#329,#327,#174,.F.);
#402=EDGE_CURVE('',#330,#329,#294,.T.);
#403=EDGE_CURVE('',#330,#328,#175,.T.);
#404=EDGE_CURVE('',#331,#332,#295,.T.);
#405=EDGE_CURVE('',#332,#329,#296,.T.);
#406=EDGE_CURVE('',#327,#331,#297,.T.);
#407=EDGE_CURVE('',#333,#334,#176,.T.);
#408=EDGE_CURVE('',#334,#332,#177,.T.);
#409=EDGE_CURVE('',#331,#333,#178,.T.);
#410=EDGE_CURVE('',#310,#330,#46,.T.);
#411=EDGE_CURVE('',#329,#307,#47,.T.);
#412=EDGE_CURVE('',#323,#327,#48,.T.);
#413=EDGE_CURVE('',#328,#322,#49,.T.);
#414=EDGE_CURVE('',#326,#315,#50,.T.);
#415=EDGE_CURVE('',#316,#325,#51,.T.);
#416=EDGE_CURVE('',#335,#336,#298,.T.);
#417=EDGE_CURVE('',#336,#319,#52,.T.);
#418=EDGE_CURVE('',#320,#335,#53,.T.);
#419=EDGE_CURVE('',#317,#336,#299,.T.);
#420=EDGE_CURVE('',#335,#337,#54,.T.);
#421=EDGE_CURVE('',#312,#337,#300,.T.);
#422=EDGE_CURVE('',#313,#318,#55,.T.);
#423=EDGE_CURVE('',#338,#339,#56,.T.);
#424=EDGE_CURVE('',#339,#340,#57,.T.);
#425=EDGE_CURVE('',#340,#341,#58,.T.);
#426=EDGE_CURVE('',#341,#342,#59,.T.);
#427=EDGE_CURVE('',#342,#343,#60,.T.);
#428=EDGE_CURVE('',#343,#338,#61,.T.);
#429=EDGE_CURVE('',#344,#345,#62,.T.);
#430=EDGE_CURVE('',#345,#346,#63,.T.);
#431=EDGE_CURVE('',#346,#347,#64,.T.);
#432=EDGE_CURVE('',#347,#348,#65,.T.);
#433=EDGE_CURVE('',#348,#349,#66,.T.);
#434=EDGE_CURVE('',#349,#344,#67,.T.);
#435=EDGE_CURVE('',#337,#310,#68,.T.);
#436=EDGE_CURVE('',#305,#332,#69,.T.);
#437=EDGE_CURVE('',#334,#303,#70,.T.);
#438=EDGE_CURVE('',#325,#333,#71,.T.);
#439=EDGE_CURVE('',#350,#351,#72,.T.);
#440=EDGE_CURVE('',#351,#352,#73,.T.);
#441=EDGE_CURVE('',#352,#353,#74,.T.);
#442=EDGE_CURVE('',#353,#354,#75,.T.);
#443=EDGE_CURVE('',#354,#355,#76,.T.);
#444=EDGE_CURVE('',#355,#350,#77,.T.);
#445=EDGE_CURVE('',#356,#357,#78,.T.);
#446=EDGE_CURVE('',#357,#358,#79,.T.);
#447=EDGE_CURVE('',#358,#359,#80,.T.);
#448=EDGE_CURVE('',#359,#360,#81,.T.);
#449=EDGE_CURVE('',#360,#361,#82,.T.);
#450=EDGE_CURVE('',#361,#356,#83,.T.);
#451=EDGE_CURVE('',#348,#359,#84,.T.);
#452=EDGE_CURVE('',#347,#360,#85,.T.);
#453=EDGE_CURVE('',#346,#361,#86,.T.);
#454=EDGE_CURVE('',#345,#356,#87,.T.);
#455=EDGE_CURVE('',#344,#357,#88,.T.);
#456=EDGE_CURVE('',#349,#358,#89,.T.);
#457=EDGE_CURVE('',#342,#353,#90,.T.);
#458=EDGE_CURVE('',#341,#354,#91,.T.);
#459=EDGE_CURVE('',#340,#355,#92,.T.);
#460=EDGE_CURVE('',#339,#350,#93,.T.);
#461=EDGE_CURVE('',#338,#351,#94,.T.);
#462=EDGE_CURVE('',#343,#352,#95,.T.);
#463=ORIENTED_EDGE('',*,*,#362,.T.);
#464=ORIENTED_EDGE('',*,*,#363,.T.);
#465=ORIENTED_EDGE('',*,*,#364,.T.);
#466=ORIENTED_EDGE('',*,*,#365,.T.);
#467=ORIENTED_EDGE('',*,*,#366,.T.);
#468=ORIENTED_EDGE('',*,*,#362,.F.);
#469=ORIENTED_EDGE('',*,*,#367,.T.);
#470=ORIENTED_EDGE('',*,*,#368,.T.);
#471=ORIENTED_EDGE('',*,*,#369,.T.);
#472=ORIENTED_EDGE('',*,*,#365,.F.);
#473=ORIENTED_EDGE('',*,*,#370,.T.);
#474=ORIENTED_EDGE('',*,*,#371,.T.);
#475=ORIENTED_EDGE('',*,*,#372,.T.);
#476=ORIENTED_EDGE('',*,*,#368,.F.);
#477=ORIENTED_EDGE('',*,*,#373,.T.);
#478=ORIENTED_EDGE('',*,*,#374,.T.);
#479=ORIENTED_EDGE('',*,*,#375,.T.);
#480=ORIENTED_EDGE('',*,*,#371,.F.);
#481=ORIENTED_EDGE('',*,*,#373,.F.);
#482=ORIENTED_EDGE('',*,*,#370,.F.);
#483=ORIENTED_EDGE('',*,*,#367,.F.);
#484=ORIENTED_EDGE('',*,*,#376,.F.);
#485=ORIENTED_EDGE('',*,*,#377,.F.);
#486=ORIENTED_EDGE('',*,*,#378,.F.);
#487=ORIENTED_EDGE('',*,*,#364,.F.);
#488=ORIENTED_EDGE('',*,*,#379,.T.);
#489=ORIENTED_EDGE('',*,*,#380,.T.);
#490=ORIENTED_EDGE('',*,*,#376,.T.);
#491=ORIENTED_EDGE('',*,*,#381,.F.);
#492=ORIENTED_EDGE('',*,*,#382,.F.);
#493=ORIENTED_EDGE('',*,*,#383,.F.);
#494=ORIENTED_EDGE('',*,*,#384,.T.);
#495=ORIENTED_EDGE('',*,*,#385,.T.);
#496=ORIENTED_EDGE('',*,*,#382,.T.);
#497=ORIENTED_EDGE('',*,*,#386,.T.);
#498=ORIENTED_EDGE('',*,*,#387,.F.);
#499=ORIENTED_EDGE('',*,*,#388,.F.);
#500=ORIENTED_EDGE('',*,*,#389,.F.);
#501=ORIENTED_EDGE('',*,*,#381,.T.);
#502=ORIENTED_EDGE('',*,*,#390,.T.);
#503=ORIENTED_EDGE('',*,*,#388,.T.);
#504=ORIENTED_EDGE('',*,*,#391,.T.);
#505=ORIENTED_EDGE('',*,*,#392,.F.);
#506=ORIENTED_EDGE('',*,*,#393,.F.);
#507=ORIENTED_EDGE('',*,*,#394,.F.);
#508=ORIENTED_EDGE('',*,*,#389,.T.);
#509=ORIENTED_EDGE('',*,*,#395,.T.);
#510=ORIENTED_EDGE('',*,*,#393,.T.);
#511=ORIENTED_EDGE('',*,*,#396,.T.);
#512=ORIENTED_EDGE('',*,*,#397,.T.);
#513=ORIENTED_EDGE('',*,*,#394,.T.);
#514=ORIENTED_EDGE('',*,*,#398,.T.);
#515=ORIENTED_EDGE('',*,*,#399,.T.);
#516=ORIENTED_EDGE('',*,*,#400,.F.);
#517=ORIENTED_EDGE('',*,*,#401,.F.);
#518=ORIENTED_EDGE('',*,*,#402,.F.);
#519=ORIENTED_EDGE('',*,*,#403,.T.);
#520=ORIENTED_EDGE('',*,*,#404,.T.);
#521=ORIENTED_EDGE('',*,*,#405,.T.);
#522=ORIENTED_EDGE('',*,*,#401,.T.);
#523=ORIENTED_EDGE('',*,*,#406,.T.);
#524=ORIENTED_EDGE('',*,*,#407,.T.);
#525=ORIENTED_EDGE('',*,*,#408,.T.);
#526=ORIENTED_EDGE('',*,*,#404,.F.);
#527=ORIENTED_EDGE('',*,*,#409,.T.);
#528=ORIENTED_EDGE('',*,*,#375,.F.);
#529=ORIENTED_EDGE('',*,*,#410,.T.);
#530=ORIENTED_EDGE('',*,*,#402,.T.);
#531=ORIENTED_EDGE('',*,*,#411,.T.);
#532=ORIENTED_EDGE('',*,*,#372,.F.);
#533=ORIENTED_EDGE('',*,*,#392,.T.);
#534=ORIENTED_EDGE('',*,*,#412,.T.);
#535=ORIENTED_EDGE('',*,*,#400,.T.);
#536=ORIENTED_EDGE('',*,*,#413,.T.);
#537=ORIENTED_EDGE('',*,*,#414,.T.);
#538=ORIENTED_EDGE('',*,*,#383,.T.);
#539=ORIENTED_EDGE('',*,*,#415,.T.);
#540=ORIENTED_EDGE('',*,*,#399,.F.);
#541=ORIENTED_EDGE('',*,*,#416,.T.);
#542=ORIENTED_EDGE('',*,*,#417,.T.);
#543=ORIENTED_EDGE('',*,*,#387,.T.);
#544=ORIENTED_EDGE('',*,*,#418,.T.);
#545=ORIENTED_EDGE('',*,*,#386,.F.);
#546=ORIENTED_EDGE('',*,*,#391,.F.);
#547=ORIENTED_EDGE('',*,*,#417,.F.);
#548=ORIENTED_EDGE('',*,*,#419,.F.);
#549=ORIENTED_EDGE('',*,*,#384,.F.);
#550=ORIENTED_EDGE('',*,*,#419,.T.);
#551=ORIENTED_EDGE('',*,*,#416,.F.);
#552=ORIENTED_EDGE('',*,*,#420,.T.);
#553=ORIENTED_EDGE('',*,*,#421,.F.);
#554=ORIENTED_EDGE('',*,*,#377,.T.);
#555=ORIENTED_EDGE('',*,*,#380,.F.);
#556=ORIENTED_EDGE('',*,*,#422,.T.);
#557=ORIENTED_EDGE('',*,*,#423,.T.);
#558=ORIENTED_EDGE('',*,*,#424,.T.);
#559=ORIENTED_EDGE('',*,*,#425,.T.);
#560=ORIENTED_EDGE('',*,*,#426,.T.);
#561=ORIENTED_EDGE('',*,*,#427,.T.);
#562=ORIENTED_EDGE('',*,*,#428,.T.);
#563=ORIENTED_EDGE('',*,*,#429,.T.);
#564=ORIENTED_EDGE('',*,*,#430,.T.);
#565=ORIENTED_EDGE('',*,*,#431,.T.);
#566=ORIENTED_EDGE('',*,*,#432,.T.);
#567=ORIENTED_EDGE('',*,*,#433,.T.);
#568=ORIENTED_EDGE('',*,*,#434,.T.);
#569=ORIENTED_EDGE('',*,*,#418,.F.);
#570=ORIENTED_EDGE('',*,*,#396,.F.);
#571=ORIENTED_EDGE('',*,*,#413,.F.);
#572=ORIENTED_EDGE('',*,*,#403,.F.);
#573=ORIENTED_EDGE('',*,*,#410,.F.);
#574=ORIENTED_EDGE('',*,*,#435,.F.);
#575=ORIENTED_EDGE('',*,*,#420,.F.);
#576=ORIENTED_EDGE('',*,*,#374,.F.);
#577=ORIENTED_EDGE('',*,*,#378,.T.);
#578=ORIENTED_EDGE('',*,*,#421,.T.);
#579=ORIENTED_EDGE('',*,*,#435,.T.);
#580=ORIENTED_EDGE('',*,*,#390,.F.);
#581=ORIENTED_EDGE('',*,*,#414,.F.);
#582=ORIENTED_EDGE('',*,*,#398,.F.);
#583=ORIENTED_EDGE('',*,*,#395,.F.);
#584=ORIENTED_EDGE('',*,*,#366,.F.);
#585=ORIENTED_EDGE('',*,*,#436,.T.);
#586=ORIENTED_EDGE('',*,*,#408,.F.);
#587=ORIENTED_EDGE('',*,*,#437,.T.);
#588=ORIENTED_EDGE('',*,*,#363,.F.);
#589=ORIENTED_EDGE('',*,*,#385,.F.);
#590=ORIENTED_EDGE('',*,*,#422,.F.);
#591=ORIENTED_EDGE('',*,*,#379,.F.);
#592=ORIENTED_EDGE('',*,*,#437,.F.);
#593=ORIENTED_EDGE('',*,*,#407,.F.);
#594=ORIENTED_EDGE('',*,*,#438,.F.);
#595=ORIENTED_EDGE('',*,*,#415,.F.);
#596=ORIENTED_EDGE('',*,*,#369,.F.);
#597=ORIENTED_EDGE('',*,*,#411,.F.);
#598=ORIENTED_EDGE('',*,*,#405,.F.);
#599=ORIENTED_EDGE('',*,*,#436,.F.);
#600=ORIENTED_EDGE('',*,*,#439,.T.);
#601=ORIENTED_EDGE('',*,*,#440,.T.);
#602=ORIENTED_EDGE('',*,*,#441,.T.);
#603=ORIENTED_EDGE('',*,*,#442,.T.);
#604=ORIENTED_EDGE('',*,*,#443,.T.);
#605=ORIENTED_EDGE('',*,*,#444,.T.);
#606=ORIENTED_EDGE('',*,*,#445,.T.);
#607=ORIENTED_EDGE('',*,*,#446,.T.);
#608=ORIENTED_EDGE('',*,*,#447,.T.);
#609=ORIENTED_EDGE('',*,*,#448,.T.);
#610=ORIENTED_EDGE('',*,*,#449,.T.);
#611=ORIENTED_EDGE('',*,*,#450,.T.);
#612=ORIENTED_EDGE('',*,*,#448,.F.);
#613=ORIENTED_EDGE('',*,*,#451,.F.);
#614=ORIENTED_EDGE('',*,*,#432,.F.);
#615=ORIENTED_EDGE('',*,*,#452,.T.);
#616=ORIENTED_EDGE('',*,*,#449,.F.);
#617=ORIENTED_EDGE('',*,*,#452,.F.);
#618=ORIENTED_EDGE('',*,*,#431,.F.);
#619=ORIENTED_EDGE('',*,*,#453,.T.);
#620=ORIENTED_EDGE('',*,*,#450,.F.);
#621=ORIENTED_EDGE('',*,*,#453,.F.);
#622=ORIENTED_EDGE('',*,*,#430,.F.);
#623=ORIENTED_EDGE('',*,*,#454,.T.);
#624=ORIENTED_EDGE('',*,*,#445,.F.);
#625=ORIENTED_EDGE('',*,*,#454,.F.);
#626=ORIENTED_EDGE('',*,*,#429,.F.);
#627=ORIENTED_EDGE('',*,*,#455,.T.);
#628=ORIENTED_EDGE('',*,*,#446,.F.);
#629=ORIENTED_EDGE('',*,*,#455,.F.);
#630=ORIENTED_EDGE('',*,*,#434,.F.);
#631=ORIENTED_EDGE('',*,*,#456,.T.);
#632=ORIENTED_EDGE('',*,*,#447,.F.);
#633=ORIENTED_EDGE('',*,*,#456,.F.);
#634=ORIENTED_EDGE('',*,*,#433,.F.);
#635=ORIENTED_EDGE('',*,*,#451,.T.);
#636=ORIENTED_EDGE('',*,*,#442,.F.);
#637=ORIENTED_EDGE('',*,*,#457,.F.);
#638=ORIENTED_EDGE('',*,*,#426,.F.);
#639=ORIENTED_EDGE('',*,*,#458,.T.);
#640=ORIENTED_EDGE('',*,*,#443,.F.);
#641=ORIENTED_EDGE('',*,*,#458,.F.);
#642=ORIENTED_EDGE('',*,*,#425,.F.);
#643=ORIENTED_EDGE('',*,*,#459,.T.);
#644=ORIENTED_EDGE('',*,*,#444,.F.);
#645=ORIENTED_EDGE('',*,*,#459,.F.);
#646=ORIENTED_EDGE('',*,*,#424,.F.);
#647=ORIENTED_EDGE('',*,*,#460,.T.);
#648=ORIENTED_EDGE('',*,*,#439,.F.);
#649=ORIENTED_EDGE('',*,*,#460,.F.);
#650=ORIENTED_EDGE('',*,*,#423,.F.);
#651=ORIENTED_EDGE('',*,*,#461,.T.);
#652=ORIENTED_EDGE('',*,*,#440,.F.);
#653=ORIENTED_EDGE('',*,*,#461,.F.);
#654=ORIENTED_EDGE('',*,*,#428,.F.);
#655=ORIENTED_EDGE('',*,*,#462,.T.);
#656=ORIENTED_EDGE('',*,*,#441,.F.);
#657=ORIENTED_EDGE('',*,*,#462,.F.);
#658=ORIENTED_EDGE('',*,*,#427,.F.);
#659=ORIENTED_EDGE('',*,*,#457,.T.);
#660=ORIENTED_EDGE('',*,*,#397,.F.);
#661=ORIENTED_EDGE('',*,*,#438,.T.);
#662=ORIENTED_EDGE('',*,*,#409,.F.);
#663=ORIENTED_EDGE('',*,*,#406,.F.);
#664=ORIENTED_EDGE('',*,*,#412,.F.);
#665=B_SPLINE_SURFACE_WITH_KNOTS('',3,3,((#1006,#1007,#1008,#1009,#1010),
(#1011,#1012,#1013,#1014,#1015),(#1016,#1017,#1018,#1019,#1020),(#1021,
#1022,#1023,#1024,#1025),(#1026,#1027,#1028,#1029,#1030)),.UNSPECIFIED.,
 .F.,.F.,.F.,(4,1,4),(4,1,4),(0.,0.571428571428571,1.),(-1.5707963267949,
-1.0217772016411,-0.289751701436039),.UNSPECIFIED.);
#666=B_SPLINE_SURFACE_WITH_KNOTS('',3,3,((#1037,#1038,#1039,#1040),(#1041,
#1042,#1043,#1044),(#1045,#1046,#1047,#1048),(#1049,#1050,#1051,#1052),
(#1053,#1054,#1055,#1056)),.UNSPECIFIED.,.F.,.F.,.F.,(4,1,4),(4,4),(0.,
0.571428571428571,1.),(2.39791471945619E-15,0.0302239039991704),
 .UNSPECIFIED.);
#667=B_SPLINE_SURFACE_WITH_KNOTS('',3,3,((#1074,#1075,#1076,#1077),(#1078,
#1079,#1080,#1081),(#1082,#1083,#1084,#1085),(#1086,#1087,#1088,#1089),
(#1090,#1091,#1092,#1093)),.UNSPECIFIED.,.F.,.F.,.F.,(4,1,4),(4,4),(0.,
0.571428571428571,1.),(2.5925237036647E-16,0.0302239039991711),
 .UNSPECIFIED.);
#668=B_SPLINE_SURFACE_WITH_KNOTS('',3,3,((#1105,#1106,#1107,#1108,#1109),
(#1110,#1111,#1112,#1113,#1114),(#1115,#1116,#1117,#1118,#1119),(#1120,
#1121,#1122,#1123,#1124),(#1125,#1126,#1127,#1128,#1129)),.UNSPECIFIED.,
 .F.,.F.,.F.,(4,1,4),(4,1,4),(0.,0.571428571428571,1.),(0.289751701436036,
0.838770826589833,1.5707963267949),.UNSPECIFIED.);
#669=B_SPLINE_SURFACE_WITH_KNOTS('',3,3,((#1195,#1196,#1197,#1198,#1199,
#1200),(#1201,#1202,#1203,#1204,#1205,#1206),(#1207,#1208,#1209,#1210,#1211,
#1212),(#1213,#1214,#1215,#1216,#1217,#1218),(#1219,#1220,#1221,#1222,#1223,
#1224)),.UNSPECIFIED.,.F.,.F.,.F.,(4,1,4),(4,1,1,4),(0.,0.571428571428571,
1.),(1.79424977488554E-17,0.272629388959265,0.454382314932109,0.636135240904952),
 .UNSPECIFIED.);
#670=B_SPLINE_SURFACE_WITH_KNOTS('',3,3,((#1249,#1250,#1251,#1252,#1253,
#1254),(#1255,#1256,#1257,#1258,#1259,#1260),(#1261,#1262,#1263,#1264,#1265,
#1266),(#1267,#1268,#1269,#1270,#1271,#1272),(#1273,#1274,#1275,#1276,#1277,
#1278)),.UNSPECIFIED.,.F.,.F.,.F.,(4,1,4),(4,1,1,4),(0.,0.571428571428571,
1.),(2.54659044957929,2.72799944101635,2.90940843245342,3.18152191960902),
 .UNSPECIFIED.);
#671=ADVANCED_FACE('',(#179),#665,.F.);
#672=ADVANCED_FACE('',(#180),#666,.F.);
#673=ADVANCED_FACE('',(#181),#165,.T.);
#674=ADVANCED_FACE('',(#182),#667,.F.);
#675=ADVANCED_FACE('',(#183),#668,.F.);
#676=ADVANCED_FACE('',(#184),#153,.F.);
#677=ADVANCED_FACE('',(#185),#154,.T.);
#678=ADVANCED_FACE('',(#186),#36,.T.);
#679=ADVANCED_FACE('',(#187),#155,.T.);
#680=ADVANCED_FACE('',(#188),#37,.T.);
#681=ADVANCED_FACE('',(#189),#166,.T.);
#682=ADVANCED_FACE('',(#190),#38,.T.);
#683=ADVANCED_FACE('',(#191),#156,.T.);
#684=ADVANCED_FACE('',(#192),#167,.T.);
#685=ADVANCED_FACE('',(#193),#669,.F.);
#686=ADVANCED_FACE('',(#194),#168,.F.);
#687=ADVANCED_FACE('',(#195),#670,.T.);
#688=ADVANCED_FACE('',(#196),#157,.T.);
#689=ADVANCED_FACE('',(#197),#158,.T.);
#690=ADVANCED_FACE('',(#198),#159,.T.);
#691=ADVANCED_FACE('',(#199),#160,.T.);
#692=ADVANCED_FACE('',(#200),#161,.T.);
#693=ADVANCED_FACE('',(#201,#15,#16),#19,.F.);
#694=ADVANCED_FACE('',(#202),#20,.F.);
#695=ADVANCED_FACE('',(#203),#162,.T.);
#696=ADVANCED_FACE('',(#204),#21,.T.);
#697=ADVANCED_FACE('',(#205),#163,.T.);
#698=ADVANCED_FACE('',(#206),#22,.F.);
#699=ADVANCED_FACE('',(#207,#17,#18),#23,.T.);
#700=ADVANCED_FACE('',(#208),#24,.F.);
#701=ADVANCED_FACE('',(#209),#25,.F.);
#702=ADVANCED_FACE('',(#210),#26,.F.);
#703=ADVANCED_FACE('',(#211),#27,.F.);
#704=ADVANCED_FACE('',(#212),#28,.F.);
#705=ADVANCED_FACE('',(#213),#29,.F.);
#706=ADVANCED_FACE('',(#214),#30,.F.);
#707=ADVANCED_FACE('',(#215),#31,.F.);
#708=ADVANCED_FACE('',(#216),#32,.F.);
#709=ADVANCED_FACE('',(#217),#33,.F.);
#710=ADVANCED_FACE('',(#218),#34,.F.);
#711=ADVANCED_FACE('',(#219),#35,.F.);
#712=ADVANCED_FACE('',(#220),#164,.F.);
#713=CLOSED_SHELL('',(#671,#672,#673,#674,#675,#676,#677,#678,#679,#680,
#681,#682,#683,#684,#685,#686,#687,#688,#689,#690,#691,#692,#693,#694,#695,
#696,#697,#698,#699,#700,#701,#702,#703,#704,#705,#706,#707,#708,#709,#710,
#711,#712));
#714=DERIVED_UNIT_ELEMENT(#717,1.);
#715=DERIVED_UNIT_ELEMENT(#1443,-3.);
#716=DIMENSIONAL_EXPONENTS(0.,1.,0.,0.,0.,0.,0.);
#717=(
CONVERSION_BASED_UNIT('gram',#719)
MASS_UNIT()
NAMED_UNIT(#716)
);
#718=(
MASS_UNIT()
NAMED_UNIT(*)
SI_UNIT(.KILO.,.GRAM.)
);
#719=MASS_MEASURE_WITH_UNIT(MASS_MEASURE(0.001),#718);
#720=DERIVED_UNIT((#714,#715));
#721=MEASURE_REPRESENTATION_ITEM('density measure',
POSITIVE_RATIO_MEASURE(1.),#720);
#722=PROPERTY_DEFINITION_REPRESENTATION(#727,#724);
#723=PROPERTY_DEFINITION_REPRESENTATION(#728,#725);
#724=REPRESENTATION('material name',(#726),#1440);
#725=REPRESENTATION('density',(#721),#1440);
#726=DESCRIPTIVE_REPRESENTATION_ITEM('\X2\4E00822C\X0\','\X2\4E00822C\X0\');
#727=PROPERTY_DEFINITION('material property','material name',#1450);
#728=PROPERTY_DEFINITION('material property','density of part',#1450);
#729=DATE_TIME_ROLE('creation_date');
#730=APPLIED_DATE_AND_TIME_ASSIGNMENT(#731,#729,(#1450));
#731=DATE_AND_TIME(#732,#733);
#732=CALENDAR_DATE(2025,25,5);
#733=LOCAL_TIME(0,0,0.,#734);
#734=COORDINATED_UNIVERSAL_TIME_OFFSET(0,0,.BEHIND.);
#735=AXIS2_PLACEMENT_3D('',#1005,#806,#807);
#736=AXIS2_PLACEMENT_3D('',#1033,#808,#809);
#737=AXIS2_PLACEMENT_3D('',#1035,#810,#811);
#738=AXIS2_PLACEMENT_3D('',#1036,#812,#813);
#739=AXIS2_PLACEMENT_3D('',#1059,#814,#815);
#740=AXIS2_PLACEMENT_3D('',#1068,#816,#817);
#741=AXIS2_PLACEMENT_3D('',#1071,#818,#819);
#742=AXIS2_PLACEMENT_3D('',#1072,#820,#821);
#743=AXIS2_PLACEMENT_3D('',#1073,#822,#823);
#744=AXIS2_PLACEMENT_3D('',#1096,#824,#825);
#745=AXIS2_PLACEMENT_3D('',#1131,#826,#827);
#746=AXIS2_PLACEMENT_3D('',#1132,#828,#829);
#747=AXIS2_PLACEMENT_3D('',#1133,#830,#831);
#748=AXIS2_PLACEMENT_3D('',#1137,#833,#834);
#749=AXIS2_PLACEMENT_3D('',#1139,#836,#837);
#750=AXIS2_PLACEMENT_3D('',#1142,#839,#840);
#751=AXIS2_PLACEMENT_3D('',#1143,#841,#842);
#752=AXIS2_PLACEMENT_3D('',#1146,#843,#844);
#753=AXIS2_PLACEMENT_3D('',#1148,#845,#846);
#754=AXIS2_PLACEMENT_3D('',#1149,#847,#848);
#755=AXIS2_PLACEMENT_3D('',#1150,#849,#850);
#756=AXIS2_PLACEMENT_3D('',#1153,#851,#852);
#757=AXIS2_PLACEMENT_3D('',#1156,#855,#856);
#758=AXIS2_PLACEMENT_3D('',#1159,#857,#858);
#759=AXIS2_PLACEMENT_3D('',#1161,#859,#860);
#760=AXIS2_PLACEMENT_3D('',#1162,#861,#862);
#761=AXIS2_PLACEMENT_3D('',#1163,#863,#864);
#762=AXIS2_PLACEMENT_3D('',#1164,#865,#866);
#763=AXIS2_PLACEMENT_3D('',#1165,#867,#868);
#764=AXIS2_PLACEMENT_3D('',#1166,#869,#870);
#765=AXIS2_PLACEMENT_3D('',#1169,#871,#872);
#766=AXIS2_PLACEMENT_3D('',#1171,#873,#874);
#767=AXIS2_PLACEMENT_3D('',#1172,#875,#876);
#768=AXIS2_PLACEMENT_3D('',#1173,#877,#878);
#769=AXIS2_PLACEMENT_3D('',#1176,#881,#882);
#770=AXIS2_PLACEMENT_3D('',#1178,#883,#884);
#771=AXIS2_PLACEMENT_3D('',#1180,#885,#886);
#772=AXIS2_PLACEMENT_3D('',#1227,#887,#888);
#773=AXIS2_PLACEMENT_3D('',#1236,#889,#890);
#774=AXIS2_PLACEMENT_3D('',#1243,#891,#892);
#775=AXIS2_PLACEMENT_3D('',#1246,#893,#894);
#776=AXIS2_PLACEMENT_3D('',#1247,#895,#896);
#777=AXIS2_PLACEMENT_3D('',#1248,#897,#898);
#778=AXIS2_PLACEMENT_3D('',#1333,#899,#900);
#779=AXIS2_PLACEMENT_3D('',#1336,#903,#904);
#780=AXIS2_PLACEMENT_3D('',#1339,#907,#908);
#781=AXIS2_PLACEMENT_3D('',#1342,#911,#912);
#782=AXIS2_PLACEMENT_3D('',#1345,#913,#914);
#783=AXIS2_PLACEMENT_3D('',#1348,#917,#918);
#784=AXIS2_PLACEMENT_3D('',#1349,#919,#920);
#785=AXIS2_PLACEMENT_3D('',#1350,#921,#922);
#786=AXIS2_PLACEMENT_3D('',#1353,#924,#925);
#787=AXIS2_PLACEMENT_3D('',#1379,#939,#940);
#788=AXIS2_PLACEMENT_3D('',#1381,#942,#943);
#789=AXIS2_PLACEMENT_3D('',#1382,#944,#945);
#790=AXIS2_PLACEMENT_3D('',#1383,#946,#947);
#791=AXIS2_PLACEMENT_3D('',#1386,#950,#951);
#792=AXIS2_PLACEMENT_3D('',#1388,#953,#954);
#793=AXIS2_PLACEMENT_3D('',#1413,#967,#968);
#794=AXIS2_PLACEMENT_3D('',#1416,#971,#972);
#795=AXIS2_PLACEMENT_3D('',#1418,#974,#975);
#796=AXIS2_PLACEMENT_3D('',#1420,#977,#978);
#797=AXIS2_PLACEMENT_3D('',#1422,#980,#981);
#798=AXIS2_PLACEMENT_3D('',#1424,#983,#984);
#799=AXIS2_PLACEMENT_3D('',#1425,#985,#986);
#800=AXIS2_PLACEMENT_3D('',#1428,#989,#990);
#801=AXIS2_PLACEMENT_3D('',#1430,#992,#993);
#802=AXIS2_PLACEMENT_3D('',#1432,#995,#996);
#803=AXIS2_PLACEMENT_3D('',#1434,#998,#999);
#804=AXIS2_PLACEMENT_3D('',#1436,#1001,#1002);
#805=AXIS2_PLACEMENT_3D('',#1437,#1003,#1004);
#806=DIRECTION('axis',(0.,0.,1.));
#807=DIRECTION('refdir',(1.,0.,0.));
#808=DIRECTION('center_axis',(-0.457301191673156,-0.274721127897369,-0.845815536616057));
#809=DIRECTION('ref_axis',(-0.879661436089378,-5.82867087928201E-15,0.475600418268502));
#810=DIRECTION('center_axis',(-0.632455532033675,-0.447213595499955,0.632455532033679));
#811=DIRECTION('ref_axis',(-0.316227766016834,0.894427190999917,0.316227766016838));
#812=DIRECTION('center_axis',(0.316227766016836,0.894427190999916,-0.316227766016839));
#813=DIRECTION('ref_axis',(-0.632455532033674,0.447213595499958,0.632455532033678));
#814=DIRECTION('center_axis',(-0.471107669427436,-3.52548275850217E-14,
-0.882075713193969));
#815=DIRECTION('ref_axis',(-0.882075713193969,2.7755575615629E-16,0.471107669427436));
#816=DIRECTION('center_axis',(0.,-1.,0.));
#817=DIRECTION('ref_axis',(0.707106781186547,0.,0.707106781186548));
#818=DIRECTION('center_axis',(0.882075713193969,-3.65012947659812E-15,0.471107669427436));
#819=DIRECTION('ref_axis',(0.471107669427436,0.,-0.882075713193969));
#820=DIRECTION('center_axis',(0.,1.,0.));
#821=DIRECTION('ref_axis',(0.707106781186547,0.,0.707106781186548));
#822=DIRECTION('center_axis',(0.,-1.,0.));
#823=DIRECTION('ref_axis',(0.707106781186547,0.,0.707106781186548));
#824=DIRECTION('center_axis',(0.845815536616063,0.274721127897364,0.457301191673149));
#825=DIRECTION('ref_axis',(0.475600418268491,2.77555756156288E-16,-0.879661436089383));
#826=DIRECTION('center_axis',(-0.31622776601684,0.894427190999916,0.316227766016835));
#827=DIRECTION('ref_axis',(0.632455532033675,0.447213595499957,-0.632455532033677));
#828=DIRECTION('center_axis',(0.632455532033676,-0.447213595499957,-0.632455532033676));
#829=DIRECTION('ref_axis',(0.316227766016837,0.894427190999916,-0.316227766016837));
#830=DIRECTION('center_axis',(0.,-1.,0.));
#831=DIRECTION('ref_axis',(1.,0.,0.));
#832=DIRECTION('',(0.,1.,0.));
#833=DIRECTION('center_axis',(0.,1.,0.));
#834=DIRECTION('ref_axis',(1.,0.,0.));
#835=DIRECTION('',(0.,-1.,0.));
#836=DIRECTION('center_axis',(0.,-1.,0.));
#837=DIRECTION('ref_axis',(-0.989523836878099,0.,-0.144369582149584));
#838=DIRECTION('',(0.,-1.,0.));
#839=DIRECTION('center_axis',(0.,1.,0.));
#840=DIRECTION('ref_axis',(-0.989523836878099,0.,-0.144369582149584));
#841=DIRECTION('center_axis',(0.0629315338508648,-0.784131214079925,-0.617396032666812));
#842=DIRECTION('ref_axis',(0.0795149406486291,0.620595068547554,-0.780089184073271));
#843=DIRECTION('center_axis',(-0.549895124901752,9.86039048831406E-15,-0.835233710771594));
#844=DIRECTION('ref_axis',(0.835233710771594,0.,-0.549895124901752));
#845=DIRECTION('center_axis',(8.01530511842566E-16,1.,-8.01530511842566E-16));
#846=DIRECTION('ref_axis',(-0.707106781186548,0.,-0.707106781186548));
#847=DIRECTION('center_axis',(0.707106781186539,0.,-0.707106781186556));
#848=DIRECTION('ref_axis',(0.,1.,0.));
#849=DIRECTION('center_axis',(0.,1.,0.));
#850=DIRECTION('ref_axis',(0.101405146512274,0.,-0.994845212211842));
#851=DIRECTION('center_axis',(0.,1.,0.));
#852=DIRECTION('ref_axis',(0.101405146512274,0.,-0.994845212211842));
#853=DIRECTION('',(0.,1.,0.));
#854=DIRECTION('',(0.,-1.,0.));
#855=DIRECTION('center_axis',(0.,0.,1.));
#856=DIRECTION('ref_axis',(1.,0.,0.));
#857=DIRECTION('center_axis',(9.46766912034906E-16,1.,6.23325546648882E-16));
#858=DIRECTION('ref_axis',(-0.54989512490175,0.,0.835233710771595));
#859=DIRECTION('center_axis',(-0.835233710771588,0.,-0.549895124901761));
#860=DIRECTION('ref_axis',(0.,1.,0.));
#861=DIRECTION('center_axis',(-0.707106781186548,9.42055475210266E-15,0.707106781186548));
#862=DIRECTION('ref_axis',(-0.707106781186548,0.,-0.707106781186548));
#863=DIRECTION('center_axis',(0.,1.,0.));
#864=DIRECTION('ref_axis',(0.,0.,1.));
#865=DIRECTION('center_axis',(0.,-1.,0.));
#866=DIRECTION('ref_axis',(0.707106781186547,0.,0.707106781186548));
#867=DIRECTION('center_axis',(0.,1.,0.));
#868=DIRECTION('ref_axis',(0.707106781186547,0.,0.707106781186548));
#869=DIRECTION('center_axis',(-0.0577784573952194,-0.841458979012664,-0.537222892754948));
#870=DIRECTION('ref_axis',(-0.0899802181834914,0.540321003329469,-0.836634193478062));
#871=DIRECTION('center_axis',(8.03420109493528E-16,1.,-8.03420109493528E-16));
#872=DIRECTION('ref_axis',(-0.707106781186548,0.,-0.707106781186548));
#873=DIRECTION('center_axis',(0.707106781186545,0.,-0.70710678118655));
#874=DIRECTION('ref_axis',(0.,1.,0.));
#875=DIRECTION('center_axis',(-0.841295350736344,0.,-0.54057574199127));
#876=DIRECTION('ref_axis',(0.54057574199127,0.,-0.841295350736344));
#877=DIRECTION('center_axis',(-0.707106781186548,0.,0.707106781186547));
#878=DIRECTION('ref_axis',(-0.499999999999999,0.707106781186548,-0.5));
#879=DIRECTION('',(0.707106781186548,0.,-0.707106781186547));
#880=DIRECTION('',(-0.707106781186548,0.,0.707106781186547));
#881=DIRECTION('center_axis',(0.,-1.,0.));
#882=DIRECTION('ref_axis',(0.714362984881394,0.,0.69977533954216));
#883=DIRECTION('center_axis',(0.,-1.,0.));
#884=DIRECTION('ref_axis',(0.707106781186547,0.,0.707106781186548));
#885=DIRECTION('center_axis',(0.,1.,0.));
#886=DIRECTION('ref_axis',(0.707106781186547,0.,0.707106781186548));
#887=DIRECTION('center_axis',(0.,1.,0.));
#888=DIRECTION('ref_axis',(0.540575741991269,0.,-0.841295350736345));
#889=DIRECTION('center_axis',(0.70710678118655,-3.14018491736756E-15,-0.707106781186545));
#890=DIRECTION('ref_axis',(-0.707106781186545,0.,-0.70710678118655));
#891=DIRECTION('center_axis',(0.,1.,0.));
#892=DIRECTION('ref_axis',(0.,0.,1.));
#893=DIRECTION('center_axis',(-0.530885535259871,0.,-0.847443537028775));
#894=DIRECTION('ref_axis',(0.847443537028775,0.,-0.530885535259871));
#895=DIRECTION('center_axis',(0.,-1.,0.));
#896=DIRECTION('ref_axis',(0.697776981159901,0.,0.716315073527966));
#897=DIRECTION('center_axis',(0.,1.,0.));
#898=DIRECTION('ref_axis',(0.697776981159901,0.,0.716315073527966));
#899=DIRECTION('center_axis',(-0.707106781186548,0.,0.707106781186547));
#900=DIRECTION('ref_axis',(-0.499999999999998,0.707106781186549,-0.5));
#901=DIRECTION('',(-0.707106781186548,0.,0.707106781186547));
#902=DIRECTION('',(0.707106781186548,0.,-0.707106781186547));
#903=DIRECTION('center_axis',(0.,1.,0.));
#904=DIRECTION('ref_axis',(-0.106933576594633,0.,-0.994266166676047));
#905=DIRECTION('',(0.,-1.,0.));
#906=DIRECTION('',(0.,1.,0.));
#907=DIRECTION('center_axis',(-0.707106781186548,0.,0.707106781186547));
#908=DIRECTION('ref_axis',(-0.499999999999999,0.707106781186548,-0.5));
#909=DIRECTION('',(0.707106781186548,0.,-0.707106781186547));
#910=DIRECTION('',(-0.707106781186548,0.,0.707106781186547));
#911=DIRECTION('center_axis',(0.,-1.,0.));
#912=DIRECTION('ref_axis',(-0.994845212211841,0.,0.101405146512281));
#913=DIRECTION('center_axis',(0.,1.,0.));
#914=DIRECTION('ref_axis',(-0.994845212211841,0.,0.101405146512281));
#915=DIRECTION('',(0.,1.,0.));
#916=DIRECTION('',(0.,-1.,0.));
#917=DIRECTION('center_axis',(0.,-1.,0.));
#918=DIRECTION('ref_axis',(0.707106781186548,0.,0.707106781186547));
#919=DIRECTION('center_axis',(0.,-1.,0.));
#920=DIRECTION('ref_axis',(-1.,0.,0.));
#921=DIRECTION('center_axis',(0.,1.,0.));
#922=DIRECTION('ref_axis',(0.,0.,1.));
#923=DIRECTION('',(0.707106781186548,0.,-0.707106781186547));
#924=DIRECTION('center_axis',(0.,1.,0.));
#925=DIRECTION('ref_axis',(-0.144369582149584,0.,-0.989523836878099));
#926=DIRECTION('',(0.707106781186548,0.,-0.707106781186547));
#927=DIRECTION('',(-0.500000000000001,0.,0.866025403784438));
#928=DIRECTION('',(0.499999999999999,0.,0.866025403784439));
#929=DIRECTION('',(1.,0.,0.));
#930=DIRECTION('',(0.499999999999998,0.,-0.86602540378444));
#931=DIRECTION('',(-0.5,0.,-0.866025403784438));
#932=DIRECTION('',(-1.,0.,0.));
#933=DIRECTION('',(0.866025403784438,0.,0.500000000000001));
#934=DIRECTION('',(0.866025403784439,0.,-0.499999999999999));
#935=DIRECTION('',(0.,0.,-1.));
#936=DIRECTION('',(-0.86602540378444,0.,-0.499999999999998));
#937=DIRECTION('',(-0.866025403784439,0.,0.5));
#938=DIRECTION('',(0.,0.,1.));
#939=DIRECTION('center_axis',(0.707106781186547,0.,0.707106781186548));
#940=DIRECTION('ref_axis',(0.707106781186548,0.,-0.707106781186547));
#941=DIRECTION('',(0.,1.,0.));
#942=DIRECTION('center_axis',(0.,1.,0.));
#943=DIRECTION('ref_axis',(-0.144369582149584,0.,-0.989523836878099));
#944=DIRECTION('center_axis',(0.,1.,0.));
#945=DIRECTION('ref_axis',(0.,0.,1.));
#946=DIRECTION('center_axis',(-0.707106781186548,0.,0.707106781186547));
#947=DIRECTION('ref_axis',(-0.499999999999998,0.707106781186549,-0.5));
#948=DIRECTION('',(0.707106781186548,0.,-0.707106781186547));
#949=DIRECTION('',(-0.707106781186548,0.,0.707106781186547));
#950=DIRECTION('center_axis',(0.707106781186547,0.,0.707106781186548));
#951=DIRECTION('ref_axis',(0.707106781186548,0.,-0.707106781186547));
#952=DIRECTION('',(0.,-1.,0.));
#953=DIRECTION('center_axis',(0.,1.,0.));
#954=DIRECTION('ref_axis',(0.,0.,1.));
#955=DIRECTION('',(0.500000000000001,0.,-0.866025403784438));
#956=DIRECTION('',(1.,0.,0.));
#957=DIRECTION('',(0.5,0.,0.866025403784438));
#958=DIRECTION('',(-0.499999999999998,0.,0.86602540378444));
#959=DIRECTION('',(-1.,0.,0.));
#960=DIRECTION('',(-0.499999999999999,0.,-0.866025403784439));
#961=DIRECTION('',(-0.866025403784438,0.,-0.500000000000001));
#962=DIRECTION('',(0.,0.,-1.));
#963=DIRECTION('',(0.866025403784439,0.,-0.5));
#964=DIRECTION('',(0.86602540378444,0.,0.499999999999998));
#965=DIRECTION('',(0.,0.,1.));
#966=DIRECTION('',(-0.866025403784439,0.,0.499999999999999));
#967=DIRECTION('center_axis',(0.499999999999998,0.,-0.86602540378444));
#968=DIRECTION('ref_axis',(-0.86602540378444,0.,-0.499999999999998));
#969=DIRECTION('',(0.,1.,0.));
#970=DIRECTION('',(0.,1.,0.));
#971=DIRECTION('center_axis',(1.,0.,0.));
#972=DIRECTION('ref_axis',(0.,0.,-1.));
#973=DIRECTION('',(0.,1.,0.));
#974=DIRECTION('center_axis',(0.499999999999999,0.,0.866025403784439));
#975=DIRECTION('ref_axis',(0.866025403784439,0.,-0.499999999999999));
#976=DIRECTION('',(0.,1.,0.));
#977=DIRECTION('center_axis',(-0.500000000000001,0.,0.866025403784438));
#978=DIRECTION('ref_axis',(0.866025403784438,0.,0.500000000000001));
#979=DIRECTION('',(0.,1.,0.));
#980=DIRECTION('center_axis',(-1.,0.,0.));
#981=DIRECTION('ref_axis',(0.,0.,1.));
#982=DIRECTION('',(0.,1.,0.));
#983=DIRECTION('center_axis',(-0.5,0.,-0.866025403784439));
#984=DIRECTION('ref_axis',(-0.866025403784439,0.,0.5));
#985=DIRECTION('center_axis',(0.86602540378444,0.,0.499999999999998));
#986=DIRECTION('ref_axis',(0.499999999999998,0.,-0.86602540378444));
#987=DIRECTION('',(0.,1.,0.));
#988=DIRECTION('',(0.,1.,0.));
#989=DIRECTION('center_axis',(0.,0.,1.));
#990=DIRECTION('ref_axis',(1.,0.,0.));
#991=DIRECTION('',(0.,1.,0.));
#992=DIRECTION('center_axis',(-0.866025403784439,0.,0.5));
#993=DIRECTION('ref_axis',(0.499999999999999,0.,0.866025403784439));
#994=DIRECTION('',(0.,1.,0.));
#995=DIRECTION('center_axis',(-0.866025403784438,0.,-0.500000000000001));
#996=DIRECTION('ref_axis',(-0.500000000000001,0.,0.866025403784438));
#997=DIRECTION('',(0.,1.,0.));
#998=DIRECTION('center_axis',(0.,0.,-1.));
#999=DIRECTION('ref_axis',(-1.,0.,0.));
#1000=DIRECTION('',(0.,1.,0.));
#1001=DIRECTION('center_axis',(0.866025403784438,0.,-0.5));
#1002=DIRECTION('ref_axis',(-0.5,0.,-0.866025403784438));
#1003=DIRECTION('center_axis',(0.,1.,0.));
#1004=DIRECTION('ref_axis',(0.714362984881394,0.,0.69977533954216));
#1005=CARTESIAN_POINT('',(0.,0.,0.));
#1006=CARTESIAN_POINT('Ctrl Pts',(50.9256418849451,-2.,-29.7124384493486));
#1007=CARTESIAN_POINT('Ctrl Pts',(50.6668317873468,-1.81699362494874,-29.4536283517504));
#1008=CARTESIAN_POINT('Ctrl Pts',(50.2320271832375,-1.38960187831672,-28.6795865467931));
#1009=CARTESIAN_POINT('Ctrl Pts',(50.3484314857522,-1.11140186680533,-27.7763137856148));
#1010=CARTESIAN_POINT('Ctrl Pts',(50.5805325751394,-1.04168515250009,-27.3470240504385));
#1011=CARTESIAN_POINT('Ctrl Pts',(50.9256418849451,-1.99999999999999,-29.7124384493486));
#1012=CARTESIAN_POINT('Ctrl Pts',(50.6914803680705,-1.78213526779611,-29.4782769324741));
#1013=CARTESIAN_POINT('Ctrl Pts',(50.278287795912,-1.27704771635425,-28.8041424768585));
#1014=CARTESIAN_POINT('Ctrl Pts',(50.303908325339,-0.880570521125771,-27.9006865605082));
#1015=CARTESIAN_POINT('Ctrl Pts',(50.5434738139706,-0.768965324870385,-27.4155672262165));
#1016=CARTESIAN_POINT('Ctrl Pts',(50.9256418849451,-1.99999999999998,-29.7124384493487));
#1017=CARTESIAN_POINT('Ctrl Pts',(50.7346153843369,-1.721133142779,-29.5214119487404));
#1018=CARTESIAN_POINT('Ctrl Pts',(50.3963388328104,-1.07841195061496,-28.9792221475528));
#1019=CARTESIAN_POINT('Ctrl Pts',(50.4108467230063,-0.477189496049574,-28.1517859431721));
#1020=CARTESIAN_POINT('Ctrl Pts',(50.6765759301697,-0.295929963871764,-27.6411726401633));
#1021=CARTESIAN_POINT('Ctrl Pts',(50.9256418849451,-1.99999999999996,-29.7124384493487));
#1022=CARTESIAN_POINT('Ctrl Pts',(50.7777504006032,-1.6601310177619,-29.5645469650068));
#1023=CARTESIAN_POINT('Ctrl Pts',(50.5740723324592,-0.869370351638378,-29.0808564442082));
#1024=CARTESIAN_POINT('Ctrl Pts',(50.7908315526647,-0.264572925821435,-28.3450050201341));
#1025=CARTESIAN_POINT('Ctrl Pts',(51.0739312463526,-0.100067437304021,-27.9196241743618));
#1026=CARTESIAN_POINT('Ctrl Pts',(50.9256418849451,-1.99999999999995,-29.7124384493487));
#1027=CARTESIAN_POINT('Ctrl Pts',(50.796236836146,-1.63398724989743,-29.5830334005496));
#1028=CARTESIAN_POINT('Ctrl Pts',(50.6636438343033,-0.77920375663343,-29.1112031978589));
#1029=CARTESIAN_POINT('Ctrl Pts',(50.9767652514839,-0.222803733610652,-28.4046475513465));
#1030=CARTESIAN_POINT('Ctrl Pts',(51.2581635023183,-0.0833703050001616,
-28.0246549776175));
#1031=CARTESIAN_POINT('',(50.5805325751394,-1.0416851525001,-27.3470240504385));
#1032=CARTESIAN_POINT('',(51.2581635023183,-0.0833703050001784,-28.0246549776175));
#1033=CARTESIAN_POINT('Origin',(51.4601940112288,-1.04168515250009,-27.8226244687071));
#1034=CARTESIAN_POINT('',(50.9256418849451,-2.,-29.7124384493486));
#1035=CARTESIAN_POINT('Origin',(52.3398554473182,-2.,-28.2982248869756));
#1036=CARTESIAN_POINT('Origin',(52.3398554473181,-2.,-28.2982248869755));
#1037=CARTESIAN_POINT('Ctrl Pts',(50.5805325751394,-1.04168515250009,-27.3470240504385));
#1038=CARTESIAN_POINT('Ctrl Pts',(50.6258164538095,-1.01400800251305,-27.2632678546646));
#1039=CARTESIAN_POINT('Ctrl Pts',(50.6727024547498,-1.,-27.1760378223534));
#1040=CARTESIAN_POINT('Ctrl Pts',(50.7193535086534,-0.999999999999998,-27.0886909920773));
#1041=CARTESIAN_POINT('Ctrl Pts',(50.5434738139706,-0.768965324870391,-27.4155672262165));
#1042=CARTESIAN_POINT('Ctrl Pts',(50.6002325317875,-0.729096006992972,-27.3104876414188));
#1043=CARTESIAN_POINT('Ctrl Pts',(50.6598411670509,-0.706252212651445,-27.2005853062967));
#1044=CARTESIAN_POINT('Ctrl Pts',(50.7193535086533,-0.700800699658112,-27.0886909920774));
#1045=CARTESIAN_POINT('Ctrl Pts',(50.6765723659425,-0.295926299785123,-27.6411719032139));
#1046=CARTESIAN_POINT('Ctrl Pts',(50.7611451171941,-0.235537926746963,-27.5030775588951));
#1047=CARTESIAN_POINT('Ctrl Pts',(50.8501905359769,-0.19706001802228,-27.3567224553936));
#1048=CARTESIAN_POINT('Ctrl Pts',(50.9409644330001,-0.182930620464875,-27.2070511334202));
#1049=CARTESIAN_POINT('Ctrl Pts',(51.0739312463526,-0.100067437304041,-27.9196241743618));
#1050=CARTESIAN_POINT('Ctrl Pts',(51.1804247897051,-0.0400575192794504,
-27.7697069735366));
#1051=CARTESIAN_POINT('Ctrl Pts',(51.2914910565829,-0.00634554132609352,
-27.6126966014818));
#1052=CARTESIAN_POINT('Ctrl Pts',(51.4034918946701,1.94897507976805E-15,
-27.4540823476961));
#1053=CARTESIAN_POINT('Ctrl Pts',(51.2581635023183,-0.0833703050001856,
-28.0246549776175));
#1054=CARTESIAN_POINT('Ctrl Pts',(51.3698770515303,-0.0280160050261093,
-27.873800027526));
#1055=CARTESIAN_POINT('Ctrl Pts',(51.4858027041846,-1.08927174344927E-14,
-27.7168287081725));
#1056=CARTESIAN_POINT('Ctrl Pts',(51.6014292218473,5.55111512312578E-16,
-27.5597986615048));
#1057=CARTESIAN_POINT('',(50.7193535086534,-0.999999999999998,-27.0886909920773));
#1058=CARTESIAN_POINT('',(51.6014292218473,-1.25333771139342E-15,-27.5597986615048));
#1059=CARTESIAN_POINT('Origin',(51.6014292218473,-0.999999999999998,-27.5597986615048));
#1060=CARTESIAN_POINT('Ctrl Pts',(51.6014292218473,5.55111512312578E-16,
-27.5597986615048));
#1061=CARTESIAN_POINT('Ctrl Pts',(51.4858027041846,-1.08927174344927E-14,
-27.7168287081725));
#1062=CARTESIAN_POINT('Ctrl Pts',(51.3698770515303,-0.0280160050261093,
-27.873800027526));
#1063=CARTESIAN_POINT('Ctrl Pts',(51.2581635023183,-0.0833703050001856,
-28.0246549776175));
#1064=CARTESIAN_POINT('Ctrl Pts',(50.5805325751394,-1.04168515250009,-27.3470240504385));
#1065=CARTESIAN_POINT('Ctrl Pts',(50.6258164538095,-1.01400800251305,-27.2632678546646));
#1066=CARTESIAN_POINT('Ctrl Pts',(50.6727024547498,-1.,-27.1760378223534));
#1067=CARTESIAN_POINT('Ctrl Pts',(50.7193535086534,-0.999999999999998,-27.0886909920773));
#1068=CARTESIAN_POINT('Origin',(0.,-1.,0.));
#1069=CARTESIAN_POINT('',(-27.0886909920773,-1.,50.7193535086534));
#1070=CARTESIAN_POINT('',(-27.5597986615048,0.,51.6014292218473));
#1071=CARTESIAN_POINT('Origin',(-27.5597986615048,-1.,51.6014292218473));
#1072=CARTESIAN_POINT('Origin',(0.,0.,0.));
#1073=CARTESIAN_POINT('Origin',(0.,-1.,0.));
#1074=CARTESIAN_POINT('Ctrl Pts',(-27.0886909920773,-1.,50.7193535086534));
#1075=CARTESIAN_POINT('Ctrl Pts',(-27.1760378223534,-1.,50.6727024547498));
#1076=CARTESIAN_POINT('Ctrl Pts',(-27.2632678546646,-1.01400800251304,50.6258164538095));
#1077=CARTESIAN_POINT('Ctrl Pts',(-27.3470240504386,-1.04168515250009,50.5805325751394));
#1078=CARTESIAN_POINT('Ctrl Pts',(-27.0886909920773,-0.700800699658116,
50.7193535086534));
#1079=CARTESIAN_POINT('Ctrl Pts',(-27.2005853062968,-0.706252212651441,
50.6598411670508));
#1080=CARTESIAN_POINT('Ctrl Pts',(-27.3104876414188,-0.729096006992959,
50.6002325317876));
#1081=CARTESIAN_POINT('Ctrl Pts',(-27.4155672262165,-0.768965324870385,
50.5434738139706));
#1082=CARTESIAN_POINT('Ctrl Pts',(-27.2070511334201,-0.182930620464877,
50.9409644330001));
#1083=CARTESIAN_POINT('Ctrl Pts',(-27.3567224553939,-0.197060018022272,
50.8501905359768));
#1084=CARTESIAN_POINT('Ctrl Pts',(-27.503077558895,-0.235537926746932,50.7611451171941));
#1085=CARTESIAN_POINT('Ctrl Pts',(-27.6411719032138,-0.295926299785116,
50.6765723659425));
#1086=CARTESIAN_POINT('Ctrl Pts',(-27.454082347696,2.13117595045877E-15,
51.4034918946702));
#1087=CARTESIAN_POINT('Ctrl Pts',(-27.6126966014821,-0.00634554132608174,
51.2914910565827));
#1088=CARTESIAN_POINT('Ctrl Pts',(-27.7697069735365,-0.0400575192794057,
51.1804247897051));
#1089=CARTESIAN_POINT('Ctrl Pts',(-27.9196241743618,-0.100067437304029,
51.0739312463526));
#1090=CARTESIAN_POINT('Ctrl Pts',(-27.5597986615048,1.66533453693773E-15,
51.6014292218473));
#1091=CARTESIAN_POINT('Ctrl Pts',(-27.7168287081728,2.11487944320555E-15,
51.4858027041844));
#1092=CARTESIAN_POINT('Ctrl Pts',(-27.8738000275259,-0.028016005026061,
51.3698770515304));
#1093=CARTESIAN_POINT('Ctrl Pts',(-28.0246549776175,-0.0833703050001705,
51.2581635023183));
#1094=CARTESIAN_POINT('',(-27.3470240504386,-1.04168515250009,50.5805325751394));
#1095=CARTESIAN_POINT('',(-28.0246549776175,-0.0833703050001735,51.2581635023183));
#1096=CARTESIAN_POINT('Origin',(-27.8226244687071,-1.04168515250009,51.4601940112288));
#1097=CARTESIAN_POINT('Ctrl Pts',(-28.0246549776175,-0.0833703050001705,
51.2581635023183));
#1098=CARTESIAN_POINT('Ctrl Pts',(-27.8738000275259,-0.028016005026061,
51.3698770515304));
#1099=CARTESIAN_POINT('Ctrl Pts',(-27.7168287081728,2.11487944320555E-15,
51.4858027041844));
#1100=CARTESIAN_POINT('Ctrl Pts',(-27.5597986615048,1.66533453693773E-15,
51.6014292218473));
#1101=CARTESIAN_POINT('Ctrl Pts',(-27.0886909920773,-1.,50.7193535086534));
#1102=CARTESIAN_POINT('Ctrl Pts',(-27.1760378223534,-1.,50.6727024547498));
#1103=CARTESIAN_POINT('Ctrl Pts',(-27.2632678546646,-1.01400800251304,50.6258164538095));
#1104=CARTESIAN_POINT('Ctrl Pts',(-27.3470240504386,-1.04168515250009,50.5805325751394));
#1105=CARTESIAN_POINT('Ctrl Pts',(-27.3470240504386,-1.04168515250009,50.5805325751394));
#1106=CARTESIAN_POINT('Ctrl Pts',(-27.6689913518208,-1.09397268822902,50.406456758099));
#1107=CARTESIAN_POINT('Ctrl Pts',(-28.5349969929854,-1.33102342531029,50.2109318516361));
#1108=CARTESIAN_POINT('Ctrl Pts',(-29.3673583192177,-1.75599149993165,50.580561754814));
#1109=CARTESIAN_POINT('Ctrl Pts',(-29.7124384493486,-2.00000000000001,50.925641884945));
#1110=CARTESIAN_POINT('Ctrl Pts',(-27.4155672262165,-0.76896532487039,50.5434738139706));
#1111=CARTESIAN_POINT('Ctrl Pts',(-27.7794067269353,-0.852669222061927,
50.3637996974969));
#1112=CARTESIAN_POINT('Ctrl Pts',(-28.6764720135268,-1.2022952587836,50.2419387090335));
#1113=CARTESIAN_POINT('Ctrl Pts',(-29.4002230935159,-1.70951369039482,50.6134265291122));
#1114=CARTESIAN_POINT('Ctrl Pts',(-29.7124384493486,-2.00000000000001,50.925641884945));
#1115=CARTESIAN_POINT('Ctrl Pts',(-27.6411726401633,-0.295929963871779,
50.6765759301696));
#1116=CARTESIAN_POINT('Ctrl Pts',(-28.0241326174199,-0.43187461300513,50.4772790247971));
#1117=CARTESIAN_POINT('Ctrl Pts',(-28.8766345454108,-0.974574858321354,
50.3577981214652));
#1118=CARTESIAN_POINT('Ctrl Pts',(-29.4577364485377,-1.62817752370537,50.6709398841341));
#1119=CARTESIAN_POINT('Ctrl Pts',(-29.7124384493486,-2.00000000000001,50.925641884945));
#1120=CARTESIAN_POINT('Ctrl Pts',(-27.9196241743618,-0.10006743730404,51.0739312463525));
#1121=CARTESIAN_POINT('Ctrl Pts',(-28.238659808691,-0.223446553692096,50.8616064760867));
#1122=CARTESIAN_POINT('Ctrl Pts',(-28.9810125211449,-0.752799407645681,
50.573538509733));
#1123=CARTESIAN_POINT('Ctrl Pts',(-29.5152498035595,-1.54684135701593,50.7284532391559));
#1124=CARTESIAN_POINT('Ctrl Pts',(-29.7124384493486,-2.00000000000001,50.925641884945));
#1125=CARTESIAN_POINT('Ctrl Pts',(-28.0246549776175,-0.0833703050001802,
51.2581635023183));
#1126=CARTESIAN_POINT('Ctrl Pts',(-28.3096494079142,-0.187945376458046,
51.0471148141925));
#1127=CARTESIAN_POINT('Ctrl Pts',(-29.0080348654034,-0.662046850620594,
50.6839697240542));
#1128=CARTESIAN_POINT('Ctrl Pts',(-29.5398983842832,-1.5119829998633,50.7531018198795));
#1129=CARTESIAN_POINT('Ctrl Pts',(-29.7124384493486,-2.00000000000001,50.925641884945));
#1130=CARTESIAN_POINT('',(-29.7124384493486,-2.,50.925641884945));
#1131=CARTESIAN_POINT('Origin',(-28.2982248869756,-2.,52.3398554473181));
#1132=CARTESIAN_POINT('Origin',(-28.2982248869756,-2.,52.3398554473181));
#1133=CARTESIAN_POINT('Origin',(0.,0.,0.));
#1134=CARTESIAN_POINT('',(50.5805325751394,-40.,-27.3470240504385));
#1135=CARTESIAN_POINT('',(50.5805325751394,0.,-27.3470240504385));
#1136=CARTESIAN_POINT('',(-27.3470240504386,-40.,50.5805325751394));
#1137=CARTESIAN_POINT('Origin',(0.,-40.,0.));
#1138=CARTESIAN_POINT('',(-27.3470240504386,0.,50.5805325751394));
#1139=CARTESIAN_POINT('Origin',(52.3398554473181,0.,-28.2982248869755));
#1140=CARTESIAN_POINT('',(50.9256418849451,-40.,-29.7124384493486));
#1141=CARTESIAN_POINT('',(50.9256418849451,0.,-29.7124384493486));
#1142=CARTESIAN_POINT('Origin',(52.3398554473181,-40.,-28.2982248869755));
#1143=CARTESIAN_POINT('Origin',(70.3738691516269,6.2,-46.3322385912843));
#1144=CARTESIAN_POINT('',(72.0443365731701,6.2,-47.4320288410878));
#1145=CARTESIAN_POINT('',(70.3738691516269,8.2,-46.3322385912843));
#1146=CARTESIAN_POINT('Origin',(70.3738691516269,6.2,-46.3322385912843));
#1147=CARTESIAN_POINT('',(68.9596555892538,6.2,-47.7464521536574));
#1148=CARTESIAN_POINT('Origin',(70.3738691516269,6.2,-46.3322385912843));
#1149=CARTESIAN_POINT('Origin',(70.3738691516269,6.2,-46.3322385912843));
#1150=CARTESIAN_POINT('Origin',(70.3738691516269,0.,-46.3322385912843));
#1151=CARTESIAN_POINT('',(72.0443365731701,-40.,-47.4320288410878));
#1152=CARTESIAN_POINT('',(68.9596555892538,-40.,-47.7464521536574));
#1153=CARTESIAN_POINT('Origin',(70.3738691516269,-40.,-46.3322385912843));
#1154=CARTESIAN_POINT('',(68.9596555892538,0.,-47.7464521536574));
#1155=CARTESIAN_POINT('',(72.0443365731701,0.,-47.4320288410878));
#1156=CARTESIAN_POINT('Origin',(-46.3322385912843,6.2,70.3738691516269));
#1157=CARTESIAN_POINT('',(-47.4320288410878,6.2,72.0443365731701));
#1158=CARTESIAN_POINT('',(-47.7464521536574,6.2,68.9596555892538));
#1159=CARTESIAN_POINT('Origin',(-46.3322385912843,6.2,70.3738691516269));
#1160=CARTESIAN_POINT('',(-46.3322385912843,8.2,70.3738691516269));
#1161=CARTESIAN_POINT('Origin',(-46.3322385912843,6.2,70.3738691516269));
#1162=CARTESIAN_POINT('Origin',(-46.3322385912844,6.2,70.3738691516269));
#1163=CARTESIAN_POINT('Origin',(0.,6.2,0.));
#1164=CARTESIAN_POINT('Origin',(0.,8.2,0.));
#1165=CARTESIAN_POINT('Origin',(0.,6.2,0.));
#1166=CARTESIAN_POINT('Origin',(-43.217408844976,6.2,67.2590394053185));
#1167=CARTESIAN_POINT('',(-44.6316224073491,6.2,65.8448258429455));
#1168=CARTESIAN_POINT('',(-42.1362573609934,6.2,65.5764487038459));
#1169=CARTESIAN_POINT('Origin',(-43.217408844976,6.2,67.2590394053185));
#1170=CARTESIAN_POINT('',(-43.217408844976,8.2,67.2590394053185));
#1171=CARTESIAN_POINT('Origin',(-43.217408844976,6.2,67.2590394053185));
#1172=CARTESIAN_POINT('Origin',(-43.217408844976,6.2,67.2590394053185));
#1173=CARTESIAN_POINT('Origin',(-18.0108009605716,6.2,42.0524315209141));
#1174=CARTESIAN_POINT('',(-18.0108009605716,8.2,42.0524315209141));
#1175=CARTESIAN_POINT('',(-19.4250145229447,6.2,40.638217958541));
#1176=CARTESIAN_POINT('Origin',(0.,6.2,0.));
#1177=CARTESIAN_POINT('',(64.6932673989067,6.2,-43.4800639633103));
#1178=CARTESIAN_POINT('Origin',(0.,6.2,0.));
#1179=CARTESIAN_POINT('',(67.2590394053186,8.2,-43.217408844976));
#1180=CARTESIAN_POINT('Origin',(0.,8.2,0.));
#1181=CARTESIAN_POINT('Ctrl Pts',(67.2590394053186,8.2,-43.2174088449759));
#1182=CARTESIAN_POINT('Ctrl Pts',(67.2563479712921,8.2,-43.2176983093832));
#1183=CARTESIAN_POINT('Ctrl Pts',(67.2536565317014,8.19999666784172,-43.2179877310096));
#1184=CARTESIAN_POINT('Ctrl Pts',(67.0063133206714,8.19938423927139,-43.2445815819143));
#1185=CARTESIAN_POINT('Ctrl Pts',(66.7609680068891,8.17124576281151,-43.2705945312126));
#1186=CARTESIAN_POINT('Ctrl Pts',(66.2913844185476,8.06096813784442,-43.3197111309653));
#1187=CARTESIAN_POINT('Ctrl Pts',(66.0654061373554,7.98008223192919,-43.3430160088514));
#1188=CARTESIAN_POINT('Ctrl Pts',(65.599566096165,7.74177156719867,-43.3904789001438));
#1189=CARTESIAN_POINT('Ctrl Pts',(65.3648500177195,7.57148780056138,-43.4139821243085));
#1190=CARTESIAN_POINT('Ctrl Pts',(65.0185071506446,7.19409533681515,-43.4483045185647));
#1191=CARTESIAN_POINT('Ctrl Pts',(64.893105854552,7.00308550086379,-43.4605864229692));
#1192=CARTESIAN_POINT('Ctrl Pts',(64.7333386774427,6.60320601370902,-43.4761804352223));
#1193=CARTESIAN_POINT('Ctrl Pts',(64.6932673989067,6.40368030198623,-43.4800639633103));
#1194=CARTESIAN_POINT('Ctrl Pts',(64.6932673989067,6.2,-43.4800639633103));
#1195=CARTESIAN_POINT('Ctrl Pts',(-42.1362573609934,2.,65.5764487038459));
#1196=CARTESIAN_POINT('Ctrl Pts',(-42.1362573609934,1.54561768506789,65.5764487038459));
#1197=CARTESIAN_POINT('Ctrl Pts',(-41.8937568090577,0.793033291174646,65.4104991788983));
#1198=CARTESIAN_POINT('Ctrl Pts',(-41.130274930571,0.132840137263153,64.8962462052687));
#1199=CARTESIAN_POINT('Ctrl Pts',(-40.5908234243989,3.87177430905431E-15,
64.5389949319083));
#1200=CARTESIAN_POINT('Ctrl Pts',(-40.3191637463817,0.,64.3607943067242));
#1201=CARTESIAN_POINT('Ctrl Pts',(-42.571012990279,2.,65.2970957433425));
#1202=CARTESIAN_POINT('Ctrl Pts',(-42.571012990279,1.52084207155275,65.2970957433425));
#1203=CARTESIAN_POINT('Ctrl Pts',(-42.3157959510838,0.72536700074283,65.0994551297169));
#1204=CARTESIAN_POINT('Ctrl Pts',(-41.5374783847168,0.0779211162276976,
64.512566211109));
#1205=CARTESIAN_POINT('Ctrl Pts',(-41.0043462544095,-0.0203876987813734,
64.124148791817));
#1206=CARTESIAN_POINT('Ctrl Pts',(-40.7422954547777,-8.85099865909473E-31,
63.9376625983282));
#1207=CARTESIAN_POINT('Ctrl Pts',(-43.5265891765466,2.,65.1212446350871));
#1208=CARTESIAN_POINT('Ctrl Pts',(-43.5265891765466,1.39166533172505,65.1212446350871));
#1209=CARTESIAN_POINT('Ctrl Pts',(-43.23551798707,0.3873070417412,64.8458171669536));
#1210=CARTESIAN_POINT('Ctrl Pts',(-42.3540859331141,-0.423101886141438,
64.0190412214025));
#1211=CARTESIAN_POINT('Ctrl Pts',(-41.7624586264573,-0.533507272366564,
63.4698707938167));
#1212=CARTESIAN_POINT('Ctrl Pts',(-41.4748941509744,-0.502058310420002,
63.2050639021315));
#1213=CARTESIAN_POINT('Ctrl Pts',(-44.3575640876183,2.,65.5707675232147));
#1214=CARTESIAN_POINT('Ctrl Pts',(-44.3575640876183,1.1812143128611,65.5707675232147));
#1215=CARTESIAN_POINT('Ctrl Pts',(-43.9981175347667,-0.173649454423744,
65.2118096568708));
#1216=CARTESIAN_POINT('Ctrl Pts',(-42.8861250817013,-1.34140654955398,64.0995273457697));
#1217=CARTESIAN_POINT('Ctrl Pts',(-42.1161107072939,-1.56054089289217,63.329550895193));
#1218=CARTESIAN_POINT('Ctrl Pts',(-41.7333773087548,-1.55120104948717,62.9465807443512));
#1219=CARTESIAN_POINT('Ctrl Pts',(-44.6316224073491,2.,65.8448258429455));
#1220=CARTESIAN_POINT('Ctrl Pts',(-44.6316224073491,1.09123537013581,65.8448258429455));
#1221=CARTESIAN_POINT('Ctrl Pts',(-44.239735110017,-0.413933417650713,65.4529385456134));
#1222=CARTESIAN_POINT('Ctrl Pts',(-43.0171779091936,-1.73431972547368,64.23038134479));
#1223=CARTESIAN_POINT('Ctrl Pts',(-42.1617730636078,-1.99999999999999,63.3749764992042));
#1224=CARTESIAN_POINT('Ctrl Pts',(-41.7333773087548,-1.99999999999999,62.9465807443512));
#1225=CARTESIAN_POINT('',(-42.1362573609935,2.,65.5764487038458));
#1226=CARTESIAN_POINT('',(-44.6316224073491,2.,65.8448258429455));
#1227=CARTESIAN_POINT('Origin',(-43.217408844976,2.,67.2590394053185));
#1228=CARTESIAN_POINT('',(-40.3191637463817,0.,64.3607943067242));
#1229=CARTESIAN_POINT('Ctrl Pts',(-42.1362573609934,2.,65.5764487038459));
#1230=CARTESIAN_POINT('Ctrl Pts',(-42.1362573609934,1.54561768506789,65.5764487038459));
#1231=CARTESIAN_POINT('Ctrl Pts',(-41.8937568090577,0.793033291174646,65.4104991788983));
#1232=CARTESIAN_POINT('Ctrl Pts',(-41.130274930571,0.132840137263153,64.8962462052687));
#1233=CARTESIAN_POINT('Ctrl Pts',(-40.5908234243989,3.87177430905431E-15,
64.5389949319083));
#1234=CARTESIAN_POINT('Ctrl Pts',(-40.3191637463817,0.,64.3607943067242));
#1235=CARTESIAN_POINT('',(-41.7333773087548,-2.,62.9465807443511));
#1236=CARTESIAN_POINT('Origin',(-40.3191637463817,-2.,64.3607943067242));
#1237=CARTESIAN_POINT('Ctrl Pts',(-41.7333773087548,-1.99999999999999,62.9465807443512));
#1238=CARTESIAN_POINT('Ctrl Pts',(-42.1617730636078,-1.99999999999999,63.3749764992042));
#1239=CARTESIAN_POINT('Ctrl Pts',(-43.0171779091936,-1.73431972547368,64.23038134479));
#1240=CARTESIAN_POINT('Ctrl Pts',(-44.239735110017,-0.413933417650713,65.4529385456134));
#1241=CARTESIAN_POINT('Ctrl Pts',(-44.6316224073491,1.09123537013581,65.8448258429455));
#1242=CARTESIAN_POINT('Ctrl Pts',(-44.6316224073491,2.,65.8448258429455));
#1243=CARTESIAN_POINT('Origin',(0.,2.,0.));
#1244=CARTESIAN_POINT('',(66.0556813807818,2.,-41.3809348169014));
#1245=CARTESIAN_POINT('',(64.3607943067242,0.,-40.3191637463816));
#1246=CARTESIAN_POINT('Origin',(64.3607943067242,2.,-40.3191637463816));
#1247=CARTESIAN_POINT('Origin',(0.,0.,0.));
#1248=CARTESIAN_POINT('Origin',(0.,2.,0.));
#1249=CARTESIAN_POINT('Ctrl Pts',(64.3607943067242,-1.38777878078145E-15,
-40.3191637463817));
#1250=CARTESIAN_POINT('Ctrl Pts',(64.2481373473846,-1.23066308307927E-14,
-40.6232422651616));
#1251=CARTESIAN_POINT('Ctrl Pts',(64.0115226821167,-0.132381923186567,-41.2215065791654));
#1252=CARTESIAN_POINT('Ctrl Pts',(63.6431952979046,-0.794444877920467,-42.0488872313527));
#1253=CARTESIAN_POINT('Ctrl Pts',(63.5166518453496,-1.54647756685255,-42.3034484097532));
#1254=CARTESIAN_POINT('Ctrl Pts',(63.5166518453496,-2.00000000000002,-42.3034484097532));
#1255=CARTESIAN_POINT('Ctrl Pts',(64.8679033334407,-3.04401647349921E-15,
-40.6368449078045));
#1256=CARTESIAN_POINT('Ctrl Pts',(64.7424988464564,0.0203491187492275,-40.9374828908927));
#1257=CARTESIAN_POINT('Ctrl Pts',(64.4709732064227,-0.0810143282884854,
-41.5450823456242));
#1258=CARTESIAN_POINT('Ctrl Pts',(64.0415676639779,-0.737654850989099,-42.4083411282803));
#1259=CARTESIAN_POINT('Ctrl Pts',(63.893446077437,-1.52636709481867,-42.6802426418406));
#1260=CARTESIAN_POINT('Ctrl Pts',(63.893446077437,-2.00000000000002,-42.6802426418406));
#1261=CARTESIAN_POINT('Ctrl Pts',(65.7459007862001,0.502054459189486,-41.186871106953));
#1262=CARTESIAN_POINT('Ctrl Pts',(65.5456437653517,0.533443909664168,-41.5367923164659));
#1263=CARTESIAN_POINT('Ctrl Pts',(65.1246340613597,0.418213443202692,-42.2514267398288));
#1264=CARTESIAN_POINT('Ctrl Pts',(64.4833872622505,-0.405221742138064,-43.2856413244491));
#1265=CARTESIAN_POINT('Ctrl Pts',(64.2704526160046,-1.39961269258446,-43.6131785580831));
#1266=CARTESIAN_POINT('Ctrl Pts',(64.2704526160046,-2.00000000000005,-43.6131785580832));
#1267=CARTESIAN_POINT('Ctrl Pts',(66.0556813807818,1.55120104948717,-41.3809348169014));
#1268=CARTESIAN_POINT('Ctrl Pts',(65.7601837293945,1.56052321892794,-41.8523179416753));
#1269=CARTESIAN_POINT('Ctrl Pts',(65.1561487329795,1.34059788141854,-42.7934312857161));
#1270=CARTESIAN_POINT('Ctrl Pts',(64.2610862941383,0.166342965793049,-44.1246112599099));
#1271=CARTESIAN_POINT('Ctrl Pts',(63.9679058844727,-1.18478345517713,-44.5421322613236));
#1272=CARTESIAN_POINT('Ctrl Pts',(63.9679058844727,-2.00000000000011,-44.5421322613236));
#1273=CARTESIAN_POINT('Ctrl Pts',(66.0556813807818,2.,-41.3809348169013));
#1274=CARTESIAN_POINT('Ctrl Pts',(65.726202768511,1.99999999999997,-41.9068759134532));
#1275=CARTESIAN_POINT('Ctrl Pts',(65.0549246507145,1.73523615362686,-42.9493274175588));
#1276=CARTESIAN_POINT('Ctrl Pts',(64.0632996783812,0.411110244159014,-44.4120944373576));
#1277=CARTESIAN_POINT('Ctrl Pts',(63.7378534615346,-1.09295513370509,-44.8689296185673));
#1278=CARTESIAN_POINT('Ctrl Pts',(63.7378534615346,-2.00000000000014,-44.8689296185673));
#1279=CARTESIAN_POINT('',(64.6932673993836,1.21128668336755,-43.4800639626007));
#1280=CARTESIAN_POINT('',(63.5166518453496,-2.,-42.3034484097532));
#1281=CARTESIAN_POINT('Ctrl Pts',(64.6932673989067,1.21128668215338,-43.4800639633103));
#1282=CARTESIAN_POINT('Ctrl Pts',(64.6932673989067,0.819366335853667,-43.4800639633103));
#1283=CARTESIAN_POINT('Ctrl Pts',(64.638883565515,0.432858632602627,-43.4256801299186));
#1284=CARTESIAN_POINT('Ctrl Pts',(64.4403791370256,-0.328063575041133,-43.2271757014292));
#1285=CARTESIAN_POINT('Ctrl Pts',(64.2942151742239,-0.68979547586903,-43.0810117386275));
#1286=CARTESIAN_POINT('Ctrl Pts',(63.9402707838819,-1.37559178869444,-42.7270673482855));
#1287=CARTESIAN_POINT('Ctrl Pts',(63.7369953181653,-1.68805386367439,-42.5237918825689));
#1288=CARTESIAN_POINT('Ctrl Pts',(63.5195627171478,-1.9958823012488,-42.3063592815514));
#1289=CARTESIAN_POINT('Ctrl Pts',(63.5181074733264,-1.99794143117348,-42.30490403773));
#1290=CARTESIAN_POINT('Ctrl Pts',(63.5166518453496,-2.00000000000002,-42.3034484097532));
#1291=CARTESIAN_POINT('Ctrl Pts',(63.5166518453496,-1.99999999999986,-42.3034484097532));
#1292=CARTESIAN_POINT('Ctrl Pts',(63.5166518453496,-1.87788164278569,-42.3034484097532));
#1293=CARTESIAN_POINT('Ctrl Pts',(63.5221926440597,-1.75588137451488,-42.2924034144241));
#1294=CARTESIAN_POINT('Ctrl Pts',(63.5327159742075,-1.63599166478382,-42.2708963187727));
#1295=CARTESIAN_POINT('Ctrl Pts',(63.5432393043553,-1.51610195505276,-42.2493892231214));
#1296=CARTESIAN_POINT('Ctrl Pts',(63.5587450461141,-1.39832446720309,-42.2174203156555));
#1297=CARTESIAN_POINT('Ctrl Pts',(63.5786493897915,-1.28464226004353,-42.1756244965699));
#1298=CARTESIAN_POINT('Ctrl Pts',(63.612770389021,-1.08976266161223,-42.1039760597298));
#1299=CARTESIAN_POINT('Ctrl Pts',(63.6599207347955,-0.906481226547768,-42.0033353493468));
#1300=CARTESIAN_POINT('Ctrl Pts',(63.7176859451824,-0.744522351674324,-41.8768833527662));
#1301=CARTESIAN_POINT('Ctrl Pts',(63.7234213728076,-0.728441679607492,-41.8643281094009));
#1302=CARTESIAN_POINT('Ctrl Pts',(63.7292614547092,-0.712571229333793,-41.8515184357618));
#1303=CARTESIAN_POINT('Ctrl Pts',(63.7352014368391,-0.696916543340584,-41.8384617179635));
#1304=CARTESIAN_POINT('Ctrl Pts',(63.7720126450613,-0.599901452530288,-41.7575467342053));
#1305=CARTESIAN_POINT('Ctrl Pts',(63.8125663984822,-0.511280788630952,-41.6671891331639));
#1306=CARTESIAN_POINT('Ctrl Pts',(63.855683786366,-0.432285673472971,-41.569102195525));
#1307=CARTESIAN_POINT('Ctrl Pts',(63.8837033543951,-0.380951186117115,-41.505361005327));
#1308=CARTESIAN_POINT('Ctrl Pts',(63.9128060025107,-0.33368200734853,-41.4383547077489));
#1309=CARTESIAN_POINT('Ctrl Pts',(63.9426713167912,-0.290823352368438,-41.3685449714136));
#1310=CARTESIAN_POINT('Ctrl Pts',(63.9673268850298,-0.255441019453761,-41.3109129404306));
#1311=CARTESIAN_POINT('Ctrl Pts',(63.9925209929442,-0.223050957094819,-41.2513547382434));
#1312=CARTESIAN_POINT('Ctrl Pts',(64.0180674954575,-0.193865961666593,-41.1901443746667));
#1313=CARTESIAN_POINT('Ctrl Pts',(64.060400851677,-0.145503223672112,-41.0887120895909));
#1314=CARTESIAN_POINT('Ctrl Pts',(64.1037019927917,-0.105943534751768,-40.9827421261684));
#1315=CARTESIAN_POINT('Ctrl Pts',(64.1472882460048,-0.0754729013512163,
-40.8737148451633));
#1316=CARTESIAN_POINT('Ctrl Pts',(64.1983624186329,-0.0397675521719374,
-40.74595717478));
#1317=CARTESIAN_POINT('Ctrl Pts',(64.2497813015495,-0.016542812375827,-40.613973337509));
#1318=CARTESIAN_POINT('Ctrl Pts',(64.3004935067729,-0.00620119961967338,
-40.4801123870251));
#1319=CARTESIAN_POINT('Ctrl Pts',(64.3126053754541,-0.00373125663251679,
-40.4481416563763));
#1320=CARTESIAN_POINT('Ctrl Pts',(64.3246775309248,-0.001996158725247,-40.4160644451495));
#1321=CARTESIAN_POINT('Ctrl Pts',(64.3366964781669,-0.00100128191131872,
-40.3839144908504));
#1322=CARTESIAN_POINT('Ctrl Pts',(64.3414435526041,-0.000608339484964505,
-40.3712163548877));
#1323=CARTESIAN_POINT('Ctrl Pts',(64.3461823260773,-0.000330868762413996,
-40.3585068809581));
#1324=CARTESIAN_POINT('Ctrl Pts',(64.350911961707,-0.000169193253152364,
-40.3457881891376));
#1325=CARTESIAN_POINT('Ctrl Pts',(64.3542106168957,-5.6433666734215E-5,
-40.336917616));
#1326=CARTESIAN_POINT('Ctrl Pts',(64.3575048271022,-2.03808840996307E-15,
-40.3280425595228));
#1327=CARTESIAN_POINT('Ctrl Pts',(64.3607943067242,-1.38777878078574E-15,
-40.3191637463818));
#1328=CARTESIAN_POINT('Ctrl Pts',(66.0556813807818,2.,-41.3809348169013));
#1329=CARTESIAN_POINT('Ctrl Pts',(65.726202768511,1.99999999999997,-41.9068759134532));
#1330=CARTESIAN_POINT('Ctrl Pts',(65.2441225346245,1.80985911263837,-42.6555153396335));
#1331=CARTESIAN_POINT('Ctrl Pts',(64.8160072527822,1.36603460947949,-43.2976101058033));
#1332=CARTESIAN_POINT('Ctrl Pts',(64.6938537683562,1.21060017921767,-43.4793029178126));
#1333=CARTESIAN_POINT('Origin',(-18.0108009605716,-2.,42.0524315209141));
#1334=CARTESIAN_POINT('',(-19.4250145229447,-2.,40.638217958541));
#1335=CARTESIAN_POINT('',(-18.0108009605716,0.,42.0524315209141));
#1336=CARTESIAN_POINT('Origin',(-43.217408844976,0.,67.2590394053185));
#1337=CARTESIAN_POINT('',(-42.1362573609934,0.,65.5764487038459));
#1338=CARTESIAN_POINT('',(-44.6316224073491,0.,65.8448258429455));
#1339=CARTESIAN_POINT('Origin',(-18.0108009605716,6.2,42.0524315209141));
#1340=CARTESIAN_POINT('',(-18.0108009605716,8.2,42.0524315209141));
#1341=CARTESIAN_POINT('',(-19.4250145229447,6.2,40.638217958541));
#1342=CARTESIAN_POINT('Origin',(-46.3322385912843,0.,70.3738691516269));
#1343=CARTESIAN_POINT('',(-47.7464521536574,-40.,68.9596555892538));
#1344=CARTESIAN_POINT('',(-47.4320288410878,-40.,72.0443365731701));
#1345=CARTESIAN_POINT('Origin',(-46.3322385912843,-40.,70.3738691516269));
#1346=CARTESIAN_POINT('',(-47.4320288410878,0.,72.0443365731701));
#1347=CARTESIAN_POINT('',(-47.7464521536574,0.,68.9596555892538));
#1348=CARTESIAN_POINT('Origin',(0.,0.,0.));
#1349=CARTESIAN_POINT('Origin',(0.,-40.,0.));
#1350=CARTESIAN_POINT('Origin',(0.,-40.,0.));
#1351=CARTESIAN_POINT('',(-29.7124384493486,-40.,50.925641884945));
#1352=CARTESIAN_POINT('',(-19.4250145229447,-40.,40.6382179585411));
#1353=CARTESIAN_POINT('Origin',(-28.2982248869756,-40.,52.3398554473181));
#1354=CARTESIAN_POINT('',(-19.4250145229447,-40.,40.6382179585411));
#1355=CARTESIAN_POINT('',(-2.97335388632658,-40.,58.85));
#1356=CARTESIAN_POINT('',(-5.94670777265316,-40.,64.));
#1357=CARTESIAN_POINT('',(10.1397141026428,-40.,36.1375));
#1358=CARTESIAN_POINT('',(-2.97335388632659,-40.,69.15));
#1359=CARTESIAN_POINT('',(-19.0597757616225,-40.,41.2875));
#1360=CARTESIAN_POINT('',(2.97335388632658,-40.,69.15));
#1361=CARTESIAN_POINT('',(-1.4866769431633,-40.,69.15));
#1362=CARTESIAN_POINT('',(5.94670777265316,-40.,64.));
#1363=CARTESIAN_POINT('',(17.5730988184592,-40.,43.8624999999999));
#1364=CARTESIAN_POINT('',(2.97335388632658,-40.,58.85));
#1365=CARTESIAN_POINT('',(-8.65303715947952,-40.,38.7125));
#1366=CARTESIAN_POINT('',(1.48667694316329,-40.,58.85));
#1367=CARTESIAN_POINT('',(58.85,-40.,2.97335388632658));
#1368=CARTESIAN_POINT('',(64.,-40.,5.94670777265317));
#1369=CARTESIAN_POINT('',(36.1375,-40.,-10.1397141026428));
#1370=CARTESIAN_POINT('',(69.15,-40.,2.9733538863266));
#1371=CARTESIAN_POINT('',(41.2875,-40.,19.0597757616225));
#1372=CARTESIAN_POINT('',(69.15,-40.,-2.97335388632657));
#1373=CARTESIAN_POINT('',(69.15,-40.,1.4866769431633));
#1374=CARTESIAN_POINT('',(64.,-40.,-5.94670777265316));
#1375=CARTESIAN_POINT('',(43.8624999999999,-40.,-17.5730988184592));
#1376=CARTESIAN_POINT('',(58.85,-40.,-2.97335388632657));
#1377=CARTESIAN_POINT('',(38.7125,-40.,8.65303715947952));
#1378=CARTESIAN_POINT('',(58.85,-40.,-1.48667694316329));
#1379=CARTESIAN_POINT('Origin',(-49.4566307636875,-40.,70.6698341992839));
#1380=CARTESIAN_POINT('',(-29.7124384493486,0.,50.925641884945));
#1381=CARTESIAN_POINT('Origin',(-28.2982248869756,0.,52.3398554473181));
#1382=CARTESIAN_POINT('Origin',(0.,8.2,0.));
#1383=CARTESIAN_POINT('Origin',(-18.0108009605716,-2.,42.0524315209141));
#1384=CARTESIAN_POINT('',(-18.0108009605716,0.,42.0524315209141));
#1385=CARTESIAN_POINT('',(-19.4250145229447,-2.,40.638217958541));
#1386=CARTESIAN_POINT('Origin',(-49.4566307636875,-40.,70.6698341992839));
#1387=CARTESIAN_POINT('',(64.6932673989067,0.,-43.4800639633103));
#1388=CARTESIAN_POINT('Origin',(0.,0.,0.));
#1389=CARTESIAN_POINT('',(-5.94670777265316,0.,64.));
#1390=CARTESIAN_POINT('',(-2.97335388632658,0.,58.85));
#1391=CARTESIAN_POINT('',(10.1397141026428,0.,36.1375));
#1392=CARTESIAN_POINT('',(2.97335388632658,0.,58.85));
#1393=CARTESIAN_POINT('',(1.48667694316329,0.,58.85));
#1394=CARTESIAN_POINT('',(5.94670777265316,0.,64.));
#1395=CARTESIAN_POINT('',(-8.65303715947952,0.,38.7125));
#1396=CARTESIAN_POINT('',(2.97335388632658,0.,69.15));
#1397=CARTESIAN_POINT('',(17.5730988184592,0.,43.8624999999999));
#1398=CARTESIAN_POINT('',(-2.97335388632659,0.,69.15));
#1399=CARTESIAN_POINT('',(-1.4866769431633,0.,69.15));
#1400=CARTESIAN_POINT('',(-19.0597757616225,0.,41.2875));
#1401=CARTESIAN_POINT('',(64.,0.,5.94670777265317));
#1402=CARTESIAN_POINT('',(58.85,0.,2.97335388632658));
#1403=CARTESIAN_POINT('',(36.1375,0.,-10.1397141026428));
#1404=CARTESIAN_POINT('',(58.85,0.,-2.97335388632657));
#1405=CARTESIAN_POINT('',(58.85,0.,-1.48667694316329));
#1406=CARTESIAN_POINT('',(64.,0.,-5.94670777265316));
#1407=CARTESIAN_POINT('',(38.7125,0.,8.65303715947952));
#1408=CARTESIAN_POINT('',(69.15,0.,-2.97335388632657));
#1409=CARTESIAN_POINT('',(43.8624999999999,0.,-17.5730988184592));
#1410=CARTESIAN_POINT('',(69.15,0.,2.9733538863266));
#1411=CARTESIAN_POINT('',(69.15,0.,1.4866769431633));
#1412=CARTESIAN_POINT('',(41.2875,0.,19.0597757616225));
#1413=CARTESIAN_POINT('Origin',(69.15,-40.,-2.97335388632658));
#1414=CARTESIAN_POINT('',(64.,-40.,-5.94670777265316));
#1415=CARTESIAN_POINT('',(69.15,-40.,-2.97335388632657));
#1416=CARTESIAN_POINT('Origin',(69.15,-40.,2.9733538863266));
#1417=CARTESIAN_POINT('',(69.15,-40.,2.9733538863266));
#1418=CARTESIAN_POINT('Origin',(64.,-40.,5.94670777265316));
#1419=CARTESIAN_POINT('',(64.,-40.,5.94670777265317));
#1420=CARTESIAN_POINT('Origin',(58.85,-40.,2.97335388632657));
#1421=CARTESIAN_POINT('',(58.85,-40.,2.97335388632658));
#1422=CARTESIAN_POINT('Origin',(58.85,-40.,-2.97335388632657));
#1423=CARTESIAN_POINT('',(58.85,-40.,-2.97335388632657));
#1424=CARTESIAN_POINT('Origin',(64.,-40.,-5.94670777265315));
#1425=CARTESIAN_POINT('Origin',(2.97335388632657,-40.,69.15));
#1426=CARTESIAN_POINT('',(5.94670777265316,-40.,64.));
#1427=CARTESIAN_POINT('',(2.97335388632658,-40.,69.15));
#1428=CARTESIAN_POINT('Origin',(-2.97335388632659,-40.,69.15));
#1429=CARTESIAN_POINT('',(-2.97335388632659,-40.,69.15));
#1430=CARTESIAN_POINT('Origin',(-5.94670777265315,-40.,64.));
#1431=CARTESIAN_POINT('',(-5.94670777265316,-40.,64.));
#1432=CARTESIAN_POINT('Origin',(-2.97335388632657,-40.,58.85));
#1433=CARTESIAN_POINT('',(-2.97335388632658,-40.,58.85));
#1434=CARTESIAN_POINT('Origin',(2.97335388632658,-40.,58.85));
#1435=CARTESIAN_POINT('',(2.97335388632658,-40.,58.85));
#1436=CARTESIAN_POINT('Origin',(5.94670777265315,-40.,64.));
#1437=CARTESIAN_POINT('Origin',(0.,0.,0.));
#1438=UNCERTAINTY_MEASURE_WITH_UNIT(LENGTH_MEASURE(0.01),#1442,
'DISTANCE_ACCURACY_VALUE',
'Maximum model space distance between geometric entities at asserted c
onnectivities');
#1439=UNCERTAINTY_MEASURE_WITH_UNIT(LENGTH_MEASURE(0.01),#1442,
'DISTANCE_ACCURACY_VALUE',
'Maximum model space distance between geometric entities at asserted c
onnectivities');
#1440=(
GEOMETRIC_REPRESENTATION_CONTEXT(3)
GLOBAL_UNCERTAINTY_ASSIGNED_CONTEXT((#1438))
GLOBAL_UNIT_ASSIGNED_CONTEXT((#1442,#1444,#1445))
REPRESENTATION_CONTEXT('','3D')
);
#1441=(
GEOMETRIC_REPRESENTATION_CONTEXT(3)
GLOBAL_UNCERTAINTY_ASSIGNED_CONTEXT((#1439))
GLOBAL_UNIT_ASSIGNED_CONTEXT((#1442,#1444,#1445))
REPRESENTATION_CONTEXT('','3D')
);
#1442=(
LENGTH_UNIT()
NAMED_UNIT(*)
SI_UNIT(.MILLI.,.METRE.)
);
#1443=(
LENGTH_UNIT()
NAMED_UNIT(*)
SI_UNIT(.CENTI.,.METRE.)
);
#1444=(
NAMED_UNIT(*)
PLANE_ANGLE_UNIT()
SI_UNIT($,.RADIAN.)
);
#1445=(
NAMED_UNIT(*)
SI_UNIT($,.STERADIAN.)
SOLID_ANGLE_UNIT()
);
#1446=SHAPE_DEFINITION_REPRESENTATION(#1447,#1448);
#1447=PRODUCT_DEFINITION_SHAPE('',$,#1450);
#1448=SHAPE_REPRESENTATION('',(#735),#1440);
#1449=PRODUCT_DEFINITION_CONTEXT('part definition',#1454,'design');
#1450=PRODUCT_DEFINITION('basepart2_forR2','basepart2_forR2',#1451,#1449);
#1451=PRODUCT_DEFINITION_FORMATION('',$,#1456);
#1452=PRODUCT_RELATED_PRODUCT_CATEGORY('basepart2_forR2',
'basepart2_forR2',(#1456));
#1453=APPLICATION_PROTOCOL_DEFINITION('international standard',
'automotive_design',2009,#1454);
#1454=APPLICATION_CONTEXT(
'Core Data for Automotive Mechanical Design Process');
#1455=PRODUCT_CONTEXT('part definition',#1454,'mechanical');
#1456=PRODUCT('basepart2_forR2','basepart2_forR2',$,(#1455));
#1457=PRESENTATION_STYLE_ASSIGNMENT((#1458));
#1458=SURFACE_STYLE_USAGE(.BOTH.,#1461);
#1459=SURFACE_STYLE_RENDERING_WITH_PROPERTIES($,#1465,(#1460));
#1460=SURFACE_STYLE_TRANSPARENT(0.);
#1461=SURFACE_SIDE_STYLE('',(#1462,#1459));
#1462=SURFACE_STYLE_FILL_AREA(#1463);
#1463=FILL_AREA_STYLE('',(#1464));
#1464=FILL_AREA_STYLE_COLOUR('',#1465);
#1465=COLOUR_RGB('',0.0196078431372549,0.0196078431372549,0.0196078431372549);
ENDSEC;
END-ISO-10303-21;
