ISO-10303-21;
HEADER;
/* Generated by software containing ST-Developer
 * from STEP Tools, Inc. (www.steptools.com) 
 */

FILE_DESCRIPTION(
/* description */ (''),
/* implementation_level */ '2;1');

FILE_NAME(
/* name */ 'connectpart3.stp',
/* time_stamp */ '2026-05-04T17:28:41+09:00',
/* author */ ('kshau'),
/* organization */ (''),
/* preprocessor_version */ 'ST-DEVELOPER v20',
/* originating_system */ 'Autodesk Inventor 2024',
/* authorisation */ '');

FILE_SCHEMA (('AUTOMOTIVE_DESIGN { 1 0 10303 214 3 1 1 }'));
ENDSEC;

DATA;
#10=MECHANICAL_DESIGN_GEOMETRIC_PRESENTATION_REPRESENTATION('',(#13),#1236);
#11=SHAPE_REPRESENTATION_RELATIONSHIP('SRR','None',#1243,#12);
#12=ADVANCED_BREP_SHAPE_REPRESENTATION('',(#14),#1235);
#13=STYLED_ITEM('',(#1252),#14);
#14=MANIFOLD_SOLID_BREP('\X2\30BD30EA30C330C9\X0\1',#682);
#15=FACE_BOUND('',#197,.T.);
#16=FACE_BOUND('',#200,.T.);
#17=FACE_BOUND('',#203,.T.);
#18=FACE_BOUND('',#206,.T.);
#19=FACE_BOUND('',#217,.T.);
#20=FACE_BOUND('',#218,.T.);
#21=FACE_BOUND('',#219,.T.);
#22=FACE_BOUND('',#220,.T.);
#23=FACE_BOUND('',#222,.T.);
#24=FACE_BOUND('',#223,.T.);
#25=FACE_BOUND('',#224,.T.);
#26=FACE_BOUND('',#225,.T.);
#27=FACE_BOUND('',#226,.T.);
#28=FACE_BOUND('',#230,.T.);
#29=FACE_BOUND('',#231,.T.);
#30=FACE_BOUND('',#232,.T.);
#31=FACE_BOUND('',#233,.T.);
#32=FACE_BOUND('',#234,.T.);
#33=FACE_BOUND('',#235,.T.);
#34=FACE_BOUND('',#236,.T.);
#35=FACE_BOUND('',#237,.T.);
#36=FACE_BOUND('',#238,.T.);
#37=PLANE('',#716);
#38=PLANE('',#719);
#39=PLANE('',#725);
#40=PLANE('',#730);
#41=PLANE('',#735);
#42=PLANE('',#740);
#43=PLANE('',#765);
#44=PLANE('',#768);
#45=PLANE('',#776);
#46=PLANE('',#777);
#47=PLANE('',#786);
#48=LINE('',#1044,#86);
#49=LINE('',#1045,#87);
#50=LINE('',#1061,#88);
#51=LINE('',#1063,#89);
#52=LINE('',#1076,#90);
#53=LINE('',#1078,#91);
#54=LINE('',#1079,#92);
#55=LINE('',#1082,#93);
#56=LINE('',#1086,#94);
#57=LINE('',#1087,#95);
#58=LINE('',#1090,#96);
#59=LINE('',#1096,#97);
#60=LINE('',#1105,#98);
#61=LINE('',#1114,#99);
#62=LINE('',#1123,#100);
#63=LINE('',#1130,#101);
#64=LINE('',#1134,#102);
#65=LINE('',#1138,#103);
#66=LINE('',#1142,#104);
#67=LINE('',#1148,#105);
#68=LINE('',#1154,#106);
#69=LINE('',#1160,#107);
#70=LINE('',#1166,#108);
#71=LINE('',#1172,#109);
#72=LINE('',#1176,#110);
#73=LINE('',#1180,#111);
#74=LINE('',#1194,#112);
#75=LINE('',#1197,#113);
#76=LINE('',#1200,#114);
#77=LINE('',#1201,#115);
#78=LINE('',#1216,#116);
#79=LINE('',#1219,#117);
#80=LINE('',#1221,#118);
#81=LINE('',#1223,#119);
#82=LINE('',#1225,#120);
#83=LINE('',#1227,#121);
#84=LINE('',#1229,#122);
#85=LINE('',#1231,#123);
#86=VECTOR('',#807,10.);
#87=VECTOR('',#808,10.);
#88=VECTOR('',#819,10.);
#89=VECTOR('',#820,10.);
#90=VECTOR('',#823,10.);
#91=VECTOR('',#824,10.);
#92=VECTOR('',#825,10.);
#93=VECTOR('',#828,10.);
#94=VECTOR('',#833,3.);
#95=VECTOR('',#834,10.);
#96=VECTOR('',#837,3.);
#97=VECTOR('',#844,2.45);
#98=VECTOR('',#855,2.45);
#99=VECTOR('',#866,2.45);
#100=VECTOR('',#877,2.45);
#101=VECTOR('',#886,1.35);
#102=VECTOR('',#891,1.35);
#103=VECTOR('',#896,1.35);
#104=VECTOR('',#901,1.35);
#105=VECTOR('',#908,1.1);
#106=VECTOR('',#915,1.1);
#107=VECTOR('',#922,1.1);
#108=VECTOR('',#929,1.1);
#109=VECTOR('',#936,1.1);
#110=VECTOR('',#941,10.);
#111=VECTOR('',#944,10.);
#112=VECTOR('',#961,10.);
#113=VECTOR('',#964,10.);
#114=VECTOR('',#967,10.);
#115=VECTOR('',#968,10.);
#116=VECTOR('',#983,10.);
#117=VECTOR('',#988,10.);
#118=VECTOR('',#991,10.);
#119=VECTOR('',#994,10.);
#120=VECTOR('',#997,10.);
#121=VECTOR('',#1000,10.);
#122=VECTOR('',#1003,10.);
#123=VECTOR('',#1006,10.);
#124=CYLINDRICAL_SURFACE('',#709,2.);
#125=CYLINDRICAL_SURFACE('',#715,2.);
#126=CYLINDRICAL_SURFACE('',#717,3.);
#127=CYLINDRICAL_SURFACE('',#720,3.);
#128=CYLINDRICAL_SURFACE('',#722,2.45);
#129=CYLINDRICAL_SURFACE('',#727,2.45);
#130=CYLINDRICAL_SURFACE('',#732,2.45);
#131=CYLINDRICAL_SURFACE('',#737,2.45);
#132=CYLINDRICAL_SURFACE('',#742,1.35);
#133=CYLINDRICAL_SURFACE('',#744,1.35);
#134=CYLINDRICAL_SURFACE('',#746,1.35);
#135=CYLINDRICAL_SURFACE('',#748,1.35);
#136=CYLINDRICAL_SURFACE('',#750,1.1);
#137=CYLINDRICAL_SURFACE('',#753,1.1);
#138=CYLINDRICAL_SURFACE('',#756,1.1);
#139=CYLINDRICAL_SURFACE('',#759,1.1);
#140=CYLINDRICAL_SURFACE('',#762,1.1);
#141=CYLINDRICAL_SURFACE('',#774,3.);
#142=CYLINDRICAL_SURFACE('',#785,3.);
#143=CYLINDRICAL_SURFACE('',#787,3.);
#144=CYLINDRICAL_SURFACE('',#788,126.872);
#145=CYLINDRICAL_SURFACE('',#789,4.5);
#146=CYLINDRICAL_SURFACE('',#790,5.);
#147=CYLINDRICAL_SURFACE('',#791,4.5);
#148=CYLINDRICAL_SURFACE('',#792,45.2805);
#149=FACE_OUTER_BOUND('',#187,.T.);
#150=FACE_OUTER_BOUND('',#188,.T.);
#151=FACE_OUTER_BOUND('',#189,.T.);
#152=FACE_OUTER_BOUND('',#190,.T.);
#153=FACE_OUTER_BOUND('',#191,.T.);
#154=FACE_OUTER_BOUND('',#192,.T.);
#155=FACE_OUTER_BOUND('',#193,.T.);
#156=FACE_OUTER_BOUND('',#194,.T.);
#157=FACE_OUTER_BOUND('',#195,.T.);
#158=FACE_OUTER_BOUND('',#196,.T.);
#159=FACE_OUTER_BOUND('',#198,.T.);
#160=FACE_OUTER_BOUND('',#199,.T.);
#161=FACE_OUTER_BOUND('',#201,.T.);
#162=FACE_OUTER_BOUND('',#202,.T.);
#163=FACE_OUTER_BOUND('',#204,.T.);
#164=FACE_OUTER_BOUND('',#205,.T.);
#165=FACE_OUTER_BOUND('',#207,.T.);
#166=FACE_OUTER_BOUND('',#208,.T.);
#167=FACE_OUTER_BOUND('',#209,.T.);
#168=FACE_OUTER_BOUND('',#210,.T.);
#169=FACE_OUTER_BOUND('',#211,.T.);
#170=FACE_OUTER_BOUND('',#212,.T.);
#171=FACE_OUTER_BOUND('',#213,.T.);
#172=FACE_OUTER_BOUND('',#214,.T.);
#173=FACE_OUTER_BOUND('',#215,.T.);
#174=FACE_OUTER_BOUND('',#216,.T.);
#175=FACE_OUTER_BOUND('',#221,.T.);
#176=FACE_OUTER_BOUND('',#227,.T.);
#177=FACE_OUTER_BOUND('',#228,.T.);
#178=FACE_OUTER_BOUND('',#229,.T.);
#179=FACE_OUTER_BOUND('',#239,.T.);
#180=FACE_OUTER_BOUND('',#240,.T.);
#181=FACE_OUTER_BOUND('',#241,.T.);
#182=FACE_OUTER_BOUND('',#242,.T.);
#183=FACE_OUTER_BOUND('',#243,.T.);
#184=FACE_OUTER_BOUND('',#244,.T.);
#185=FACE_OUTER_BOUND('',#245,.T.);
#186=FACE_OUTER_BOUND('',#246,.T.);
#187=EDGE_LOOP('',(#456,#457,#458,#459,#460,#461));
#188=EDGE_LOOP('',(#462,#463,#464,#465));
#189=EDGE_LOOP('',(#466,#467,#468,#469));
#190=EDGE_LOOP('',(#470,#471,#472,#473,#474));
#191=EDGE_LOOP('',(#475,#476,#477,#478));
#192=EDGE_LOOP('',(#479,#480,#481,#482));
#193=EDGE_LOOP('',(#483,#484,#485,#486));
#194=EDGE_LOOP('',(#487,#488,#489,#490));
#195=EDGE_LOOP('',(#491,#492,#493,#494));
#196=EDGE_LOOP('',(#495));
#197=EDGE_LOOP('',(#496));
#198=EDGE_LOOP('',(#497,#498,#499,#500));
#199=EDGE_LOOP('',(#501));
#200=EDGE_LOOP('',(#502));
#201=EDGE_LOOP('',(#503,#504,#505,#506));
#202=EDGE_LOOP('',(#507));
#203=EDGE_LOOP('',(#508));
#204=EDGE_LOOP('',(#509,#510,#511,#512));
#205=EDGE_LOOP('',(#513));
#206=EDGE_LOOP('',(#514));
#207=EDGE_LOOP('',(#515,#516,#517,#518));
#208=EDGE_LOOP('',(#519,#520,#521,#522));
#209=EDGE_LOOP('',(#523,#524,#525,#526));
#210=EDGE_LOOP('',(#527,#528,#529,#530));
#211=EDGE_LOOP('',(#531,#532,#533,#534));
#212=EDGE_LOOP('',(#535,#536,#537,#538));
#213=EDGE_LOOP('',(#539,#540,#541,#542));
#214=EDGE_LOOP('',(#543,#544,#545,#546));
#215=EDGE_LOOP('',(#547,#548,#549,#550));
#216=EDGE_LOOP('',(#551,#552,#553,#554,#555,#556,#557,#558));
#217=EDGE_LOOP('',(#559));
#218=EDGE_LOOP('',(#560));
#219=EDGE_LOOP('',(#561));
#220=EDGE_LOOP('',(#562));
#221=EDGE_LOOP('',(#563,#564,#565,#566,#567,#568,#569,#570,#571));
#222=EDGE_LOOP('',(#572));
#223=EDGE_LOOP('',(#573));
#224=EDGE_LOOP('',(#574));
#225=EDGE_LOOP('',(#575));
#226=EDGE_LOOP('',(#576));
#227=EDGE_LOOP('',(#577,#578,#579,#580));
#228=EDGE_LOOP('',(#581,#582,#583,#584,#585,#586));
#229=EDGE_LOOP('',(#587,#588,#589,#590,#591,#592,#593,#594,#595,#596));
#230=EDGE_LOOP('',(#597));
#231=EDGE_LOOP('',(#598));
#232=EDGE_LOOP('',(#599));
#233=EDGE_LOOP('',(#600));
#234=EDGE_LOOP('',(#601));
#235=EDGE_LOOP('',(#602));
#236=EDGE_LOOP('',(#603));
#237=EDGE_LOOP('',(#604));
#238=EDGE_LOOP('',(#605));
#239=EDGE_LOOP('',(#606,#607,#608,#609));
#240=EDGE_LOOP('',(#610,#611,#612,#613));
#241=EDGE_LOOP('',(#614,#615,#616,#617,#618,#619));
#242=EDGE_LOOP('',(#620,#621,#622,#623,#624));
#243=EDGE_LOOP('',(#625,#626,#627,#628));
#244=EDGE_LOOP('',(#629,#630,#631,#632));
#245=EDGE_LOOP('',(#633,#634,#635,#636));
#246=EDGE_LOOP('',(#637,#638,#639,#640,#641));
#247=CIRCLE('',#706,3.);
#248=CIRCLE('',#707,1.99999999999999);
#249=CIRCLE('',#708,5.);
#250=CIRCLE('',#710,2.);
#251=CIRCLE('',#712,2.);
#252=CIRCLE('',#713,5.);
#253=CIRCLE('',#714,3.);
#254=CIRCLE('',#718,3.);
#255=CIRCLE('',#721,3.);
#256=CIRCLE('',#723,2.45);
#257=CIRCLE('',#724,2.45);
#258=CIRCLE('',#726,1.35);
#259=CIRCLE('',#728,2.45);
#260=CIRCLE('',#729,2.45);
#261=CIRCLE('',#731,1.35);
#262=CIRCLE('',#733,2.45);
#263=CIRCLE('',#734,2.45);
#264=CIRCLE('',#736,1.35);
#265=CIRCLE('',#738,2.45);
#266=CIRCLE('',#739,2.45);
#267=CIRCLE('',#741,1.35);
#268=CIRCLE('',#743,1.35);
#269=CIRCLE('',#745,1.35);
#270=CIRCLE('',#747,1.35);
#271=CIRCLE('',#749,1.35);
#272=CIRCLE('',#751,1.1);
#273=CIRCLE('',#752,1.1);
#274=CIRCLE('',#754,1.1);
#275=CIRCLE('',#755,1.1);
#276=CIRCLE('',#757,1.1);
#277=CIRCLE('',#758,1.1);
#278=CIRCLE('',#760,1.1);
#279=CIRCLE('',#761,1.1);
#280=CIRCLE('',#763,1.1);
#281=CIRCLE('',#764,1.1);
#282=CIRCLE('',#766,3.);
#283=CIRCLE('',#767,3.);
#284=CIRCLE('',#769,126.872);
#285=CIRCLE('',#770,4.5);
#286=CIRCLE('',#771,5.);
#287=CIRCLE('',#772,4.5);
#288=CIRCLE('',#773,45.2805);
#289=CIRCLE('',#775,3.);
#290=CIRCLE('',#778,45.2805);
#291=CIRCLE('',#779,4.5);
#292=CIRCLE('',#780,5.);
#293=CIRCLE('',#781,4.5);
#294=CIRCLE('',#782,126.872);
#295=CIRCLE('',#783,3.);
#296=CIRCLE('',#784,3.);
#297=B_SPLINE_CURVE_WITH_KNOTS('',3,(#1013,#1014,#1015,#1016,#1017,#1018),
 .UNSPECIFIED.,.F.,.F.,(4,2,4),(0.365508548295311,0.472985262049156,0.545566884111603),
 .UNSPECIFIED.);
#298=B_SPLINE_CURVE_WITH_KNOTS('',3,(#1020,#1021,#1022,#1023,#1024,#1025,
#1026,#1027),.UNSPECIFIED.,.F.,.F.,(4,2,2,4),(1.65147336978025,1.74383040537269,
1.85434895779599,1.95164815595344),.UNSPECIFIED.);
#299=B_SPLINE_CURVE_WITH_KNOTS('',3,(#1029,#1030,#1031,#1032,#1033,#1034),
 .UNSPECIFIED.,.F.,.F.,(4,2,4),(1.32277754006926,1.37173013274391,1.50414386475044),
 .UNSPECIFIED.);
#300=B_SPLINE_CURVE_WITH_KNOTS('',3,(#1055,#1056,#1057,#1058,#1059,#1060),
 .UNSPECIFIED.,.F.,.F.,(4,2,4),(0.255745685225538,0.324517988491449,0.499311051950204),
 .UNSPECIFIED.);
#301=B_SPLINE_CURVE_WITH_KNOTS('',3,(#1064,#1065,#1066,#1067,#1068,#1069,
#1070,#1071,#1072,#1073),.UNSPECIFIED.,.F.,.F.,(4,2,2,2,4),(1.06612552794245,
1.11956605643342,1.1730065849244,1.24199123679621,1.28317410891963),
 .UNSPECIFIED.);
#302=VERTEX_POINT('',#1011);
#303=VERTEX_POINT('',#1012);
#304=VERTEX_POINT('',#1019);
#305=VERTEX_POINT('',#1028);
#306=VERTEX_POINT('',#1035);
#307=VERTEX_POINT('',#1037);
#308=VERTEX_POINT('',#1041);
#309=VERTEX_POINT('',#1042);
#310=VERTEX_POINT('',#1047);
#311=VERTEX_POINT('',#1048);
#312=VERTEX_POINT('',#1053);
#313=VERTEX_POINT('',#1054);
#314=VERTEX_POINT('',#1062);
#315=VERTEX_POINT('',#1075);
#316=VERTEX_POINT('',#1077);
#317=VERTEX_POINT('',#1081);
#318=VERTEX_POINT('',#1085);
#319=VERTEX_POINT('',#1089);
#320=VERTEX_POINT('',#1093);
#321=VERTEX_POINT('',#1095);
#322=VERTEX_POINT('',#1099);
#323=VERTEX_POINT('',#1102);
#324=VERTEX_POINT('',#1104);
#325=VERTEX_POINT('',#1108);
#326=VERTEX_POINT('',#1111);
#327=VERTEX_POINT('',#1113);
#328=VERTEX_POINT('',#1117);
#329=VERTEX_POINT('',#1120);
#330=VERTEX_POINT('',#1122);
#331=VERTEX_POINT('',#1126);
#332=VERTEX_POINT('',#1129);
#333=VERTEX_POINT('',#1133);
#334=VERTEX_POINT('',#1137);
#335=VERTEX_POINT('',#1141);
#336=VERTEX_POINT('',#1145);
#337=VERTEX_POINT('',#1147);
#338=VERTEX_POINT('',#1151);
#339=VERTEX_POINT('',#1153);
#340=VERTEX_POINT('',#1157);
#341=VERTEX_POINT('',#1159);
#342=VERTEX_POINT('',#1163);
#343=VERTEX_POINT('',#1165);
#344=VERTEX_POINT('',#1169);
#345=VERTEX_POINT('',#1171);
#346=VERTEX_POINT('',#1175);
#347=VERTEX_POINT('',#1177);
#348=VERTEX_POINT('',#1179);
#349=VERTEX_POINT('',#1183);
#350=VERTEX_POINT('',#1185);
#351=VERTEX_POINT('',#1187);
#352=VERTEX_POINT('',#1189);
#353=VERTEX_POINT('',#1193);
#354=VERTEX_POINT('',#1195);
#355=VERTEX_POINT('',#1199);
#356=VERTEX_POINT('',#1203);
#357=VERTEX_POINT('',#1205);
#358=VERTEX_POINT('',#1207);
#359=VERTEX_POINT('',#1209);
#360=VERTEX_POINT('',#1211);
#361=VERTEX_POINT('',#1213);
#362=VERTEX_POINT('',#1215);
#363=EDGE_CURVE('',#302,#303,#297,.T.);
#364=EDGE_CURVE('',#304,#303,#298,.F.);
#365=EDGE_CURVE('',#305,#304,#299,.F.);
#366=EDGE_CURVE('',#305,#306,#247,.T.);
#367=EDGE_CURVE('',#306,#307,#248,.T.);
#368=EDGE_CURVE('',#307,#302,#249,.T.);
#369=EDGE_CURVE('',#308,#309,#250,.T.);
#370=EDGE_CURVE('',#309,#307,#48,.T.);
#371=EDGE_CURVE('',#306,#308,#49,.T.);
#372=EDGE_CURVE('',#310,#311,#251,.T.);
#373=EDGE_CURVE('',#311,#309,#252,.T.);
#374=EDGE_CURVE('',#308,#310,#253,.T.);
#375=EDGE_CURVE('',#312,#313,#300,.F.);
#376=EDGE_CURVE('',#312,#311,#50,.T.);
#377=EDGE_CURVE('',#310,#314,#51,.T.);
#378=EDGE_CURVE('',#313,#314,#301,.F.);
#379=EDGE_CURVE('',#315,#310,#52,.T.);
#380=EDGE_CURVE('',#316,#315,#53,.T.);
#381=EDGE_CURVE('',#314,#316,#54,.T.);
#382=EDGE_CURVE('',#308,#317,#55,.T.);
#383=EDGE_CURVE('',#317,#315,#254,.T.);
#384=EDGE_CURVE('',#318,#306,#56,.T.);
#385=EDGE_CURVE('',#317,#318,#57,.T.);
#386=EDGE_CURVE('',#305,#319,#58,.T.);
#387=EDGE_CURVE('',#319,#318,#255,.T.);
#388=EDGE_CURVE('',#320,#320,#256,.T.);
#389=EDGE_CURVE('',#320,#321,#59,.T.);
#390=EDGE_CURVE('',#321,#321,#257,.T.);
#391=EDGE_CURVE('',#322,#322,#258,.T.);
#392=EDGE_CURVE('',#323,#323,#259,.T.);
#393=EDGE_CURVE('',#323,#324,#60,.T.);
#394=EDGE_CURVE('',#324,#324,#260,.T.);
#395=EDGE_CURVE('',#325,#325,#261,.T.);
#396=EDGE_CURVE('',#326,#326,#262,.T.);
#397=EDGE_CURVE('',#326,#327,#61,.T.);
#398=EDGE_CURVE('',#327,#327,#263,.T.);
#399=EDGE_CURVE('',#328,#328,#264,.T.);
#400=EDGE_CURVE('',#329,#329,#265,.T.);
#401=EDGE_CURVE('',#329,#330,#62,.T.);
#402=EDGE_CURVE('',#330,#330,#266,.T.);
#403=EDGE_CURVE('',#331,#331,#267,.T.);
#404=EDGE_CURVE('',#331,#332,#63,.T.);
#405=EDGE_CURVE('',#332,#332,#268,.T.);
#406=EDGE_CURVE('',#325,#333,#64,.T.);
#407=EDGE_CURVE('',#333,#333,#269,.T.);
#408=EDGE_CURVE('',#328,#334,#65,.T.);
#409=EDGE_CURVE('',#334,#334,#270,.T.);
#410=EDGE_CURVE('',#322,#335,#66,.T.);
#411=EDGE_CURVE('',#335,#335,#271,.T.);
#412=EDGE_CURVE('',#336,#336,#272,.T.);
#413=EDGE_CURVE('',#336,#337,#67,.T.);
#414=EDGE_CURVE('',#337,#337,#273,.T.);
#415=EDGE_CURVE('',#338,#338,#274,.T.);
#416=EDGE_CURVE('',#338,#339,#68,.T.);
#417=EDGE_CURVE('',#339,#339,#275,.T.);
#418=EDGE_CURVE('',#340,#340,#276,.T.);
#419=EDGE_CURVE('',#340,#341,#69,.T.);
#420=EDGE_CURVE('',#341,#341,#277,.T.);
#421=EDGE_CURVE('',#342,#342,#278,.T.);
#422=EDGE_CURVE('',#342,#343,#70,.T.);
#423=EDGE_CURVE('',#343,#343,#279,.T.);
#424=EDGE_CURVE('',#344,#344,#280,.T.);
#425=EDGE_CURVE('',#344,#345,#71,.T.);
#426=EDGE_CURVE('',#345,#345,#281,.T.);
#427=EDGE_CURVE('',#319,#346,#72,.T.);
#428=EDGE_CURVE('',#346,#347,#282,.T.);
#429=EDGE_CURVE('',#347,#348,#73,.T.);
#430=EDGE_CURVE('',#348,#316,#283,.T.);
#431=EDGE_CURVE('',#349,#312,#284,.T.);
#432=EDGE_CURVE('',#350,#349,#285,.T.);
#433=EDGE_CURVE('',#351,#350,#286,.T.);
#434=EDGE_CURVE('',#352,#351,#287,.T.);
#435=EDGE_CURVE('',#302,#352,#288,.T.);
#436=EDGE_CURVE('',#303,#353,#74,.T.);
#437=EDGE_CURVE('',#353,#354,#289,.T.);
#438=EDGE_CURVE('',#354,#304,#75,.T.);
#439=EDGE_CURVE('',#355,#354,#76,.T.);
#440=EDGE_CURVE('',#355,#346,#77,.T.);
#441=EDGE_CURVE('',#353,#356,#290,.T.);
#442=EDGE_CURVE('',#356,#357,#291,.T.);
#443=EDGE_CURVE('',#357,#358,#292,.T.);
#444=EDGE_CURVE('',#358,#359,#293,.T.);
#445=EDGE_CURVE('',#359,#360,#294,.T.);
#446=EDGE_CURVE('',#361,#360,#295,.T.);
#447=EDGE_CURVE('',#361,#362,#78,.T.);
#448=EDGE_CURVE('',#355,#362,#296,.T.);
#449=EDGE_CURVE('',#362,#347,#79,.T.);
#450=EDGE_CURVE('',#361,#348,#80,.T.);
#451=EDGE_CURVE('',#313,#360,#81,.T.);
#452=EDGE_CURVE('',#349,#359,#82,.T.);
#453=EDGE_CURVE('',#350,#358,#83,.T.);
#454=EDGE_CURVE('',#351,#357,#84,.T.);
#455=EDGE_CURVE('',#352,#356,#85,.T.);
#456=ORIENTED_EDGE('',*,*,#363,.T.);
#457=ORIENTED_EDGE('',*,*,#364,.F.);
#458=ORIENTED_EDGE('',*,*,#365,.F.);
#459=ORIENTED_EDGE('',*,*,#366,.T.);
#460=ORIENTED_EDGE('',*,*,#367,.T.);
#461=ORIENTED_EDGE('',*,*,#368,.T.);
#462=ORIENTED_EDGE('',*,*,#369,.T.);
#463=ORIENTED_EDGE('',*,*,#370,.T.);
#464=ORIENTED_EDGE('',*,*,#367,.F.);
#465=ORIENTED_EDGE('',*,*,#371,.T.);
#466=ORIENTED_EDGE('',*,*,#372,.T.);
#467=ORIENTED_EDGE('',*,*,#373,.T.);
#468=ORIENTED_EDGE('',*,*,#369,.F.);
#469=ORIENTED_EDGE('',*,*,#374,.T.);
#470=ORIENTED_EDGE('',*,*,#375,.F.);
#471=ORIENTED_EDGE('',*,*,#376,.T.);
#472=ORIENTED_EDGE('',*,*,#372,.F.);
#473=ORIENTED_EDGE('',*,*,#377,.T.);
#474=ORIENTED_EDGE('',*,*,#378,.F.);
#475=ORIENTED_EDGE('',*,*,#377,.F.);
#476=ORIENTED_EDGE('',*,*,#379,.F.);
#477=ORIENTED_EDGE('',*,*,#380,.F.);
#478=ORIENTED_EDGE('',*,*,#381,.F.);
#479=ORIENTED_EDGE('',*,*,#374,.F.);
#480=ORIENTED_EDGE('',*,*,#382,.T.);
#481=ORIENTED_EDGE('',*,*,#383,.T.);
#482=ORIENTED_EDGE('',*,*,#379,.T.);
#483=ORIENTED_EDGE('',*,*,#371,.F.);
#484=ORIENTED_EDGE('',*,*,#384,.F.);
#485=ORIENTED_EDGE('',*,*,#385,.F.);
#486=ORIENTED_EDGE('',*,*,#382,.F.);
#487=ORIENTED_EDGE('',*,*,#366,.F.);
#488=ORIENTED_EDGE('',*,*,#386,.T.);
#489=ORIENTED_EDGE('',*,*,#387,.T.);
#490=ORIENTED_EDGE('',*,*,#384,.T.);
#491=ORIENTED_EDGE('',*,*,#388,.F.);
#492=ORIENTED_EDGE('',*,*,#389,.T.);
#493=ORIENTED_EDGE('',*,*,#390,.T.);
#494=ORIENTED_EDGE('',*,*,#389,.F.);
#495=ORIENTED_EDGE('',*,*,#390,.F.);
#496=ORIENTED_EDGE('',*,*,#391,.F.);
#497=ORIENTED_EDGE('',*,*,#392,.F.);
#498=ORIENTED_EDGE('',*,*,#393,.T.);
#499=ORIENTED_EDGE('',*,*,#394,.T.);
#500=ORIENTED_EDGE('',*,*,#393,.F.);
#501=ORIENTED_EDGE('',*,*,#394,.F.);
#502=ORIENTED_EDGE('',*,*,#395,.F.);
#503=ORIENTED_EDGE('',*,*,#396,.F.);
#504=ORIENTED_EDGE('',*,*,#397,.T.);
#505=ORIENTED_EDGE('',*,*,#398,.T.);
#506=ORIENTED_EDGE('',*,*,#397,.F.);
#507=ORIENTED_EDGE('',*,*,#398,.F.);
#508=ORIENTED_EDGE('',*,*,#399,.F.);
#509=ORIENTED_EDGE('',*,*,#400,.F.);
#510=ORIENTED_EDGE('',*,*,#401,.T.);
#511=ORIENTED_EDGE('',*,*,#402,.T.);
#512=ORIENTED_EDGE('',*,*,#401,.F.);
#513=ORIENTED_EDGE('',*,*,#402,.F.);
#514=ORIENTED_EDGE('',*,*,#403,.F.);
#515=ORIENTED_EDGE('',*,*,#403,.T.);
#516=ORIENTED_EDGE('',*,*,#404,.T.);
#517=ORIENTED_EDGE('',*,*,#405,.F.);
#518=ORIENTED_EDGE('',*,*,#404,.F.);
#519=ORIENTED_EDGE('',*,*,#395,.T.);
#520=ORIENTED_EDGE('',*,*,#406,.T.);
#521=ORIENTED_EDGE('',*,*,#407,.F.);
#522=ORIENTED_EDGE('',*,*,#406,.F.);
#523=ORIENTED_EDGE('',*,*,#399,.T.);
#524=ORIENTED_EDGE('',*,*,#408,.T.);
#525=ORIENTED_EDGE('',*,*,#409,.F.);
#526=ORIENTED_EDGE('',*,*,#408,.F.);
#527=ORIENTED_EDGE('',*,*,#391,.T.);
#528=ORIENTED_EDGE('',*,*,#410,.T.);
#529=ORIENTED_EDGE('',*,*,#411,.F.);
#530=ORIENTED_EDGE('',*,*,#410,.F.);
#531=ORIENTED_EDGE('',*,*,#412,.F.);
#532=ORIENTED_EDGE('',*,*,#413,.T.);
#533=ORIENTED_EDGE('',*,*,#414,.F.);
#534=ORIENTED_EDGE('',*,*,#413,.F.);
#535=ORIENTED_EDGE('',*,*,#415,.F.);
#536=ORIENTED_EDGE('',*,*,#416,.T.);
#537=ORIENTED_EDGE('',*,*,#417,.F.);
#538=ORIENTED_EDGE('',*,*,#416,.F.);
#539=ORIENTED_EDGE('',*,*,#418,.F.);
#540=ORIENTED_EDGE('',*,*,#419,.T.);
#541=ORIENTED_EDGE('',*,*,#420,.F.);
#542=ORIENTED_EDGE('',*,*,#419,.F.);
#543=ORIENTED_EDGE('',*,*,#421,.F.);
#544=ORIENTED_EDGE('',*,*,#422,.T.);
#545=ORIENTED_EDGE('',*,*,#423,.F.);
#546=ORIENTED_EDGE('',*,*,#422,.F.);
#547=ORIENTED_EDGE('',*,*,#424,.F.);
#548=ORIENTED_EDGE('',*,*,#425,.T.);
#549=ORIENTED_EDGE('',*,*,#426,.F.);
#550=ORIENTED_EDGE('',*,*,#425,.F.);
#551=ORIENTED_EDGE('',*,*,#387,.F.);
#552=ORIENTED_EDGE('',*,*,#427,.T.);
#553=ORIENTED_EDGE('',*,*,#428,.T.);
#554=ORIENTED_EDGE('',*,*,#429,.T.);
#555=ORIENTED_EDGE('',*,*,#430,.T.);
#556=ORIENTED_EDGE('',*,*,#380,.T.);
#557=ORIENTED_EDGE('',*,*,#383,.F.);
#558=ORIENTED_EDGE('',*,*,#385,.T.);
#559=ORIENTED_EDGE('',*,*,#405,.T.);
#560=ORIENTED_EDGE('',*,*,#407,.T.);
#561=ORIENTED_EDGE('',*,*,#409,.T.);
#562=ORIENTED_EDGE('',*,*,#411,.T.);
#563=ORIENTED_EDGE('',*,*,#376,.F.);
#564=ORIENTED_EDGE('',*,*,#431,.F.);
#565=ORIENTED_EDGE('',*,*,#432,.F.);
#566=ORIENTED_EDGE('',*,*,#433,.F.);
#567=ORIENTED_EDGE('',*,*,#434,.F.);
#568=ORIENTED_EDGE('',*,*,#435,.F.);
#569=ORIENTED_EDGE('',*,*,#368,.F.);
#570=ORIENTED_EDGE('',*,*,#370,.F.);
#571=ORIENTED_EDGE('',*,*,#373,.F.);
#572=ORIENTED_EDGE('',*,*,#414,.T.);
#573=ORIENTED_EDGE('',*,*,#417,.T.);
#574=ORIENTED_EDGE('',*,*,#420,.T.);
#575=ORIENTED_EDGE('',*,*,#423,.T.);
#576=ORIENTED_EDGE('',*,*,#426,.T.);
#577=ORIENTED_EDGE('',*,*,#436,.T.);
#578=ORIENTED_EDGE('',*,*,#437,.T.);
#579=ORIENTED_EDGE('',*,*,#438,.T.);
#580=ORIENTED_EDGE('',*,*,#364,.T.);
#581=ORIENTED_EDGE('',*,*,#438,.F.);
#582=ORIENTED_EDGE('',*,*,#439,.F.);
#583=ORIENTED_EDGE('',*,*,#440,.T.);
#584=ORIENTED_EDGE('',*,*,#427,.F.);
#585=ORIENTED_EDGE('',*,*,#386,.F.);
#586=ORIENTED_EDGE('',*,*,#365,.T.);
#587=ORIENTED_EDGE('',*,*,#437,.F.);
#588=ORIENTED_EDGE('',*,*,#441,.T.);
#589=ORIENTED_EDGE('',*,*,#442,.T.);
#590=ORIENTED_EDGE('',*,*,#443,.T.);
#591=ORIENTED_EDGE('',*,*,#444,.T.);
#592=ORIENTED_EDGE('',*,*,#445,.T.);
#593=ORIENTED_EDGE('',*,*,#446,.F.);
#594=ORIENTED_EDGE('',*,*,#447,.T.);
#595=ORIENTED_EDGE('',*,*,#448,.F.);
#596=ORIENTED_EDGE('',*,*,#439,.T.);
#597=ORIENTED_EDGE('',*,*,#388,.T.);
#598=ORIENTED_EDGE('',*,*,#392,.T.);
#599=ORIENTED_EDGE('',*,*,#396,.T.);
#600=ORIENTED_EDGE('',*,*,#400,.T.);
#601=ORIENTED_EDGE('',*,*,#412,.T.);
#602=ORIENTED_EDGE('',*,*,#415,.T.);
#603=ORIENTED_EDGE('',*,*,#418,.T.);
#604=ORIENTED_EDGE('',*,*,#421,.T.);
#605=ORIENTED_EDGE('',*,*,#424,.T.);
#606=ORIENTED_EDGE('',*,*,#448,.T.);
#607=ORIENTED_EDGE('',*,*,#449,.T.);
#608=ORIENTED_EDGE('',*,*,#428,.F.);
#609=ORIENTED_EDGE('',*,*,#440,.F.);
#610=ORIENTED_EDGE('',*,*,#449,.F.);
#611=ORIENTED_EDGE('',*,*,#447,.F.);
#612=ORIENTED_EDGE('',*,*,#450,.T.);
#613=ORIENTED_EDGE('',*,*,#429,.F.);
#614=ORIENTED_EDGE('',*,*,#446,.T.);
#615=ORIENTED_EDGE('',*,*,#451,.F.);
#616=ORIENTED_EDGE('',*,*,#378,.T.);
#617=ORIENTED_EDGE('',*,*,#381,.T.);
#618=ORIENTED_EDGE('',*,*,#430,.F.);
#619=ORIENTED_EDGE('',*,*,#450,.F.);
#620=ORIENTED_EDGE('',*,*,#451,.T.);
#621=ORIENTED_EDGE('',*,*,#445,.F.);
#622=ORIENTED_EDGE('',*,*,#452,.F.);
#623=ORIENTED_EDGE('',*,*,#431,.T.);
#624=ORIENTED_EDGE('',*,*,#375,.T.);
#625=ORIENTED_EDGE('',*,*,#432,.T.);
#626=ORIENTED_EDGE('',*,*,#452,.T.);
#627=ORIENTED_EDGE('',*,*,#444,.F.);
#628=ORIENTED_EDGE('',*,*,#453,.F.);
#629=ORIENTED_EDGE('',*,*,#433,.T.);
#630=ORIENTED_EDGE('',*,*,#453,.T.);
#631=ORIENTED_EDGE('',*,*,#443,.F.);
#632=ORIENTED_EDGE('',*,*,#454,.F.);
#633=ORIENTED_EDGE('',*,*,#434,.T.);
#634=ORIENTED_EDGE('',*,*,#454,.T.);
#635=ORIENTED_EDGE('',*,*,#442,.F.);
#636=ORIENTED_EDGE('',*,*,#455,.F.);
#637=ORIENTED_EDGE('',*,*,#436,.F.);
#638=ORIENTED_EDGE('',*,*,#363,.F.);
#639=ORIENTED_EDGE('',*,*,#435,.T.);
#640=ORIENTED_EDGE('',*,*,#455,.T.);
#641=ORIENTED_EDGE('',*,*,#441,.F.);
#642=TOROIDAL_SURFACE('',#705,5.,2.);
#643=TOROIDAL_SURFACE('',#711,5.,2.);
#644=ADVANCED_FACE('',(#149),#642,.F.);
#645=ADVANCED_FACE('',(#150),#124,.F.);
#646=ADVANCED_FACE('',(#151),#643,.F.);
#647=ADVANCED_FACE('',(#152),#125,.F.);
#648=ADVANCED_FACE('',(#153),#37,.T.);
#649=ADVANCED_FACE('',(#154),#126,.T.);
#650=ADVANCED_FACE('',(#155),#38,.T.);
#651=ADVANCED_FACE('',(#156),#127,.T.);
#652=ADVANCED_FACE('',(#157),#128,.F.);
#653=ADVANCED_FACE('',(#158,#15),#39,.T.);
#654=ADVANCED_FACE('',(#159),#129,.F.);
#655=ADVANCED_FACE('',(#160,#16),#40,.T.);
#656=ADVANCED_FACE('',(#161),#130,.F.);
#657=ADVANCED_FACE('',(#162,#17),#41,.T.);
#658=ADVANCED_FACE('',(#163),#131,.F.);
#659=ADVANCED_FACE('',(#164,#18),#42,.T.);
#660=ADVANCED_FACE('',(#165),#132,.F.);
#661=ADVANCED_FACE('',(#166),#133,.F.);
#662=ADVANCED_FACE('',(#167),#134,.F.);
#663=ADVANCED_FACE('',(#168),#135,.F.);
#664=ADVANCED_FACE('',(#169),#136,.F.);
#665=ADVANCED_FACE('',(#170),#137,.F.);
#666=ADVANCED_FACE('',(#171),#138,.F.);
#667=ADVANCED_FACE('',(#172),#139,.F.);
#668=ADVANCED_FACE('',(#173),#140,.F.);
#669=ADVANCED_FACE('',(#174,#19,#20,#21,#22),#43,.T.);
#670=ADVANCED_FACE('',(#175,#23,#24,#25,#26,#27),#44,.F.);
#671=ADVANCED_FACE('',(#176),#141,.T.);
#672=ADVANCED_FACE('',(#177),#45,.T.);
#673=ADVANCED_FACE('',(#178,#28,#29,#30,#31,#32,#33,#34,#35,#36),#46,.T.);
#674=ADVANCED_FACE('',(#179),#142,.T.);
#675=ADVANCED_FACE('',(#180),#47,.T.);
#676=ADVANCED_FACE('',(#181),#143,.T.);
#677=ADVANCED_FACE('',(#182),#144,.T.);
#678=ADVANCED_FACE('',(#183),#145,.T.);
#679=ADVANCED_FACE('',(#184),#146,.F.);
#680=ADVANCED_FACE('',(#185),#147,.T.);
#681=ADVANCED_FACE('',(#186),#148,.F.);
#682=CLOSED_SHELL('',(#644,#645,#646,#647,#648,#649,#650,#651,#652,#653,
#654,#655,#656,#657,#658,#659,#660,#661,#662,#663,#664,#665,#666,#667,#668,
#669,#670,#671,#672,#673,#674,#675,#676,#677,#678,#679,#680,#681));
#683=DERIVED_UNIT_ELEMENT(#686,1.);
#684=DERIVED_UNIT_ELEMENT(#1238,-3.);
#685=DIMENSIONAL_EXPONENTS(0.,1.,0.,0.,0.,0.,0.);
#686=(
CONVERSION_BASED_UNIT('gram',#688)
MASS_UNIT()
NAMED_UNIT(#685)
);
#687=(
MASS_UNIT()
NAMED_UNIT(*)
SI_UNIT(.KILO.,.GRAM.)
);
#688=MASS_MEASURE_WITH_UNIT(MASS_MEASURE(0.001),#687);
#689=DERIVED_UNIT((#683,#684));
#690=MEASURE_REPRESENTATION_ITEM('density measure',
POSITIVE_RATIO_MEASURE(1.),#689);
#691=PROPERTY_DEFINITION_REPRESENTATION(#696,#693);
#692=PROPERTY_DEFINITION_REPRESENTATION(#697,#694);
#693=REPRESENTATION('material name',(#695),#1235);
#694=REPRESENTATION('density',(#690),#1235);
#695=DESCRIPTIVE_REPRESENTATION_ITEM('\X2\4E00822C\X0\','\X2\4E00822C\X0\');
#696=PROPERTY_DEFINITION('material property','material name',#1245);
#697=PROPERTY_DEFINITION('material property','density of part',#1245);
#698=DATE_TIME_ROLE('creation_date');
#699=APPLIED_DATE_AND_TIME_ASSIGNMENT(#700,#698,(#1245));
#700=DATE_AND_TIME(#701,#702);
#701=CALENDAR_DATE(2025,28,6);
#702=LOCAL_TIME(0,0,0.,#703);
#703=COORDINATED_UNIVERSAL_TIME_OFFSET(0,0,.BEHIND.);
#704=AXIS2_PLACEMENT_3D('',#1009,#793,#794);
#705=AXIS2_PLACEMENT_3D('',#1010,#795,#796);
#706=AXIS2_PLACEMENT_3D('',#1036,#797,#798);
#707=AXIS2_PLACEMENT_3D('',#1038,#799,#800);
#708=AXIS2_PLACEMENT_3D('',#1039,#801,#802);
#709=AXIS2_PLACEMENT_3D('',#1040,#803,#804);
#710=AXIS2_PLACEMENT_3D('',#1043,#805,#806);
#711=AXIS2_PLACEMENT_3D('',#1046,#809,#810);
#712=AXIS2_PLACEMENT_3D('',#1049,#811,#812);
#713=AXIS2_PLACEMENT_3D('',#1050,#813,#814);
#714=AXIS2_PLACEMENT_3D('',#1051,#815,#816);
#715=AXIS2_PLACEMENT_3D('',#1052,#817,#818);
#716=AXIS2_PLACEMENT_3D('',#1074,#821,#822);
#717=AXIS2_PLACEMENT_3D('',#1080,#826,#827);
#718=AXIS2_PLACEMENT_3D('',#1083,#829,#830);
#719=AXIS2_PLACEMENT_3D('',#1084,#831,#832);
#720=AXIS2_PLACEMENT_3D('',#1088,#835,#836);
#721=AXIS2_PLACEMENT_3D('',#1091,#838,#839);
#722=AXIS2_PLACEMENT_3D('',#1092,#840,#841);
#723=AXIS2_PLACEMENT_3D('',#1094,#842,#843);
#724=AXIS2_PLACEMENT_3D('',#1097,#845,#846);
#725=AXIS2_PLACEMENT_3D('',#1098,#847,#848);
#726=AXIS2_PLACEMENT_3D('',#1100,#849,#850);
#727=AXIS2_PLACEMENT_3D('',#1101,#851,#852);
#728=AXIS2_PLACEMENT_3D('',#1103,#853,#854);
#729=AXIS2_PLACEMENT_3D('',#1106,#856,#857);
#730=AXIS2_PLACEMENT_3D('',#1107,#858,#859);
#731=AXIS2_PLACEMENT_3D('',#1109,#860,#861);
#732=AXIS2_PLACEMENT_3D('',#1110,#862,#863);
#733=AXIS2_PLACEMENT_3D('',#1112,#864,#865);
#734=AXIS2_PLACEMENT_3D('',#1115,#867,#868);
#735=AXIS2_PLACEMENT_3D('',#1116,#869,#870);
#736=AXIS2_PLACEMENT_3D('',#1118,#871,#872);
#737=AXIS2_PLACEMENT_3D('',#1119,#873,#874);
#738=AXIS2_PLACEMENT_3D('',#1121,#875,#876);
#739=AXIS2_PLACEMENT_3D('',#1124,#878,#879);
#740=AXIS2_PLACEMENT_3D('',#1125,#880,#881);
#741=AXIS2_PLACEMENT_3D('',#1127,#882,#883);
#742=AXIS2_PLACEMENT_3D('',#1128,#884,#885);
#743=AXIS2_PLACEMENT_3D('',#1131,#887,#888);
#744=AXIS2_PLACEMENT_3D('',#1132,#889,#890);
#745=AXIS2_PLACEMENT_3D('',#1135,#892,#893);
#746=AXIS2_PLACEMENT_3D('',#1136,#894,#895);
#747=AXIS2_PLACEMENT_3D('',#1139,#897,#898);
#748=AXIS2_PLACEMENT_3D('',#1140,#899,#900);
#749=AXIS2_PLACEMENT_3D('',#1143,#902,#903);
#750=AXIS2_PLACEMENT_3D('',#1144,#904,#905);
#751=AXIS2_PLACEMENT_3D('',#1146,#906,#907);
#752=AXIS2_PLACEMENT_3D('',#1149,#909,#910);
#753=AXIS2_PLACEMENT_3D('',#1150,#911,#912);
#754=AXIS2_PLACEMENT_3D('',#1152,#913,#914);
#755=AXIS2_PLACEMENT_3D('',#1155,#916,#917);
#756=AXIS2_PLACEMENT_3D('',#1156,#918,#919);
#757=AXIS2_PLACEMENT_3D('',#1158,#920,#921);
#758=AXIS2_PLACEMENT_3D('',#1161,#923,#924);
#759=AXIS2_PLACEMENT_3D('',#1162,#925,#926);
#760=AXIS2_PLACEMENT_3D('',#1164,#927,#928);
#761=AXIS2_PLACEMENT_3D('',#1167,#930,#931);
#762=AXIS2_PLACEMENT_3D('',#1168,#932,#933);
#763=AXIS2_PLACEMENT_3D('',#1170,#934,#935);
#764=AXIS2_PLACEMENT_3D('',#1173,#937,#938);
#765=AXIS2_PLACEMENT_3D('',#1174,#939,#940);
#766=AXIS2_PLACEMENT_3D('',#1178,#942,#943);
#767=AXIS2_PLACEMENT_3D('',#1181,#945,#946);
#768=AXIS2_PLACEMENT_3D('',#1182,#947,#948);
#769=AXIS2_PLACEMENT_3D('',#1184,#949,#950);
#770=AXIS2_PLACEMENT_3D('',#1186,#951,#952);
#771=AXIS2_PLACEMENT_3D('',#1188,#953,#954);
#772=AXIS2_PLACEMENT_3D('',#1190,#955,#956);
#773=AXIS2_PLACEMENT_3D('',#1191,#957,#958);
#774=AXIS2_PLACEMENT_3D('',#1192,#959,#960);
#775=AXIS2_PLACEMENT_3D('',#1196,#962,#963);
#776=AXIS2_PLACEMENT_3D('',#1198,#965,#966);
#777=AXIS2_PLACEMENT_3D('',#1202,#969,#970);
#778=AXIS2_PLACEMENT_3D('',#1204,#971,#972);
#779=AXIS2_PLACEMENT_3D('',#1206,#973,#974);
#780=AXIS2_PLACEMENT_3D('',#1208,#975,#976);
#781=AXIS2_PLACEMENT_3D('',#1210,#977,#978);
#782=AXIS2_PLACEMENT_3D('',#1212,#979,#980);
#783=AXIS2_PLACEMENT_3D('',#1214,#981,#982);
#784=AXIS2_PLACEMENT_3D('',#1217,#984,#985);
#785=AXIS2_PLACEMENT_3D('',#1218,#986,#987);
#786=AXIS2_PLACEMENT_3D('',#1220,#989,#990);
#787=AXIS2_PLACEMENT_3D('',#1222,#992,#993);
#788=AXIS2_PLACEMENT_3D('',#1224,#995,#996);
#789=AXIS2_PLACEMENT_3D('',#1226,#998,#999);
#790=AXIS2_PLACEMENT_3D('',#1228,#1001,#1002);
#791=AXIS2_PLACEMENT_3D('',#1230,#1004,#1005);
#792=AXIS2_PLACEMENT_3D('',#1232,#1007,#1008);
#793=DIRECTION('axis',(0.,0.,1.));
#794=DIRECTION('refdir',(1.,0.,0.));
#795=DIRECTION('center_axis',(0.,1.,0.));
#796=DIRECTION('ref_axis',(0.,0.,1.));
#797=DIRECTION('center_axis',(0.,1.,0.));
#798=DIRECTION('ref_axis',(0.707106781186547,0.,0.707106781186548));
#799=DIRECTION('center_axis',(0.,0.,-1.));
#800=DIRECTION('ref_axis',(-1.,0.,0.));
#801=DIRECTION('center_axis',(0.,-1.,0.));
#802=DIRECTION('ref_axis',(0.707106781186547,0.,0.707106781186548));
#803=DIRECTION('center_axis',(0.,0.,-1.));
#804=DIRECTION('ref_axis',(-0.707106781186549,0.707106781186546,0.));
#805=DIRECTION('center_axis',(0.,0.,-1.));
#806=DIRECTION('ref_axis',(-1.,0.,0.));
#807=DIRECTION('',(0.,0.,1.));
#808=DIRECTION('',(0.,0.,-1.));
#809=DIRECTION('center_axis',(0.,-1.,0.));
#810=DIRECTION('ref_axis',(0.,0.,-1.));
#811=DIRECTION('center_axis',(-1.,0.,0.));
#812=DIRECTION('ref_axis',(0.,0.,1.));
#813=DIRECTION('center_axis',(0.,-1.,0.));
#814=DIRECTION('ref_axis',(0.707106781186547,0.,-0.707106781186548));
#815=DIRECTION('center_axis',(0.,1.,0.));
#816=DIRECTION('ref_axis',(0.707106781186547,0.,-0.707106781186548));
#817=DIRECTION('center_axis',(-1.,0.,0.));
#818=DIRECTION('ref_axis',(0.,0.707106781186548,0.707106781186548));
#819=DIRECTION('',(1.,0.,0.));
#820=DIRECTION('',(-1.,0.,0.));
#821=DIRECTION('center_axis',(0.,0.,-1.));
#822=DIRECTION('ref_axis',(1.,0.,0.));
#823=DIRECTION('',(0.,1.,0.));
#824=DIRECTION('',(1.,0.,0.));
#825=DIRECTION('',(0.,-1.,0.));
#826=DIRECTION('center_axis',(0.,-1.,0.));
#827=DIRECTION('ref_axis',(0.707106781186546,0.,-0.707106781186549));
#828=DIRECTION('',(0.,-1.,0.));
#829=DIRECTION('center_axis',(0.,1.,0.));
#830=DIRECTION('ref_axis',(0.707106781186546,0.,-0.707106781186549));
#831=DIRECTION('center_axis',(1.,0.,0.));
#832=DIRECTION('ref_axis',(0.,0.,1.));
#833=DIRECTION('',(0.,1.,0.));
#834=DIRECTION('',(0.,0.,1.));
#835=DIRECTION('center_axis',(0.,-1.,0.));
#836=DIRECTION('ref_axis',(1.,0.,0.));
#837=DIRECTION('',(0.,-1.,0.));
#838=DIRECTION('center_axis',(0.,1.,0.));
#839=DIRECTION('ref_axis',(1.,0.,0.));
#840=DIRECTION('center_axis',(0.,-1.,0.));
#841=DIRECTION('ref_axis',(1.,0.,0.));
#842=DIRECTION('center_axis',(0.,-1.,0.));
#843=DIRECTION('ref_axis',(1.,0.,0.));
#844=DIRECTION('',(0.,-1.,0.));
#845=DIRECTION('center_axis',(0.,-1.,0.));
#846=DIRECTION('ref_axis',(1.,0.,0.));
#847=DIRECTION('center_axis',(0.,1.,0.));
#848=DIRECTION('ref_axis',(0.,0.,1.));
#849=DIRECTION('center_axis',(0.,1.,0.));
#850=DIRECTION('ref_axis',(1.,0.,0.));
#851=DIRECTION('center_axis',(0.,-1.,0.));
#852=DIRECTION('ref_axis',(1.,0.,0.));
#853=DIRECTION('center_axis',(0.,-1.,0.));
#854=DIRECTION('ref_axis',(1.,0.,0.));
#855=DIRECTION('',(0.,-1.,0.));
#856=DIRECTION('center_axis',(0.,-1.,0.));
#857=DIRECTION('ref_axis',(1.,0.,0.));
#858=DIRECTION('center_axis',(0.,1.,0.));
#859=DIRECTION('ref_axis',(0.,0.,1.));
#860=DIRECTION('center_axis',(0.,1.,0.));
#861=DIRECTION('ref_axis',(1.,0.,0.));
#862=DIRECTION('center_axis',(0.,-1.,0.));
#863=DIRECTION('ref_axis',(1.,0.,0.));
#864=DIRECTION('center_axis',(0.,-1.,0.));
#865=DIRECTION('ref_axis',(1.,0.,0.));
#866=DIRECTION('',(0.,-1.,0.));
#867=DIRECTION('center_axis',(0.,-1.,0.));
#868=DIRECTION('ref_axis',(1.,0.,0.));
#869=DIRECTION('center_axis',(0.,1.,0.));
#870=DIRECTION('ref_axis',(0.,0.,1.));
#871=DIRECTION('center_axis',(0.,1.,0.));
#872=DIRECTION('ref_axis',(1.,0.,0.));
#873=DIRECTION('center_axis',(0.,-1.,0.));
#874=DIRECTION('ref_axis',(1.,0.,0.));
#875=DIRECTION('center_axis',(0.,-1.,0.));
#876=DIRECTION('ref_axis',(1.,0.,0.));
#877=DIRECTION('',(0.,-1.,0.));
#878=DIRECTION('center_axis',(0.,-1.,0.));
#879=DIRECTION('ref_axis',(1.,0.,0.));
#880=DIRECTION('center_axis',(0.,1.,0.));
#881=DIRECTION('ref_axis',(0.,0.,1.));
#882=DIRECTION('center_axis',(0.,1.,0.));
#883=DIRECTION('ref_axis',(1.,0.,0.));
#884=DIRECTION('center_axis',(0.,1.,0.));
#885=DIRECTION('ref_axis',(1.,0.,0.));
#886=DIRECTION('',(0.,-1.,0.));
#887=DIRECTION('center_axis',(0.,1.,0.));
#888=DIRECTION('ref_axis',(1.,0.,0.));
#889=DIRECTION('center_axis',(0.,1.,0.));
#890=DIRECTION('ref_axis',(1.,0.,0.));
#891=DIRECTION('',(0.,-1.,0.));
#892=DIRECTION('center_axis',(0.,1.,0.));
#893=DIRECTION('ref_axis',(1.,0.,0.));
#894=DIRECTION('center_axis',(0.,1.,0.));
#895=DIRECTION('ref_axis',(1.,0.,0.));
#896=DIRECTION('',(0.,-1.,0.));
#897=DIRECTION('center_axis',(0.,1.,0.));
#898=DIRECTION('ref_axis',(1.,0.,0.));
#899=DIRECTION('center_axis',(0.,1.,0.));
#900=DIRECTION('ref_axis',(1.,0.,0.));
#901=DIRECTION('',(0.,-1.,0.));
#902=DIRECTION('center_axis',(0.,1.,0.));
#903=DIRECTION('ref_axis',(1.,0.,0.));
#904=DIRECTION('center_axis',(0.,1.,0.));
#905=DIRECTION('ref_axis',(1.,0.,0.));
#906=DIRECTION('center_axis',(0.,-1.,0.));
#907=DIRECTION('ref_axis',(1.,0.,0.));
#908=DIRECTION('',(0.,-1.,0.));
#909=DIRECTION('center_axis',(0.,1.,0.));
#910=DIRECTION('ref_axis',(1.,0.,0.));
#911=DIRECTION('center_axis',(0.,1.,0.));
#912=DIRECTION('ref_axis',(1.,0.,0.));
#913=DIRECTION('center_axis',(0.,-1.,0.));
#914=DIRECTION('ref_axis',(1.,0.,0.));
#915=DIRECTION('',(0.,-1.,0.));
#916=DIRECTION('center_axis',(0.,1.,0.));
#917=DIRECTION('ref_axis',(1.,0.,0.));
#918=DIRECTION('center_axis',(0.,1.,0.));
#919=DIRECTION('ref_axis',(1.,0.,0.));
#920=DIRECTION('center_axis',(0.,-1.,0.));
#921=DIRECTION('ref_axis',(1.,0.,0.));
#922=DIRECTION('',(0.,-1.,0.));
#923=DIRECTION('center_axis',(0.,1.,0.));
#924=DIRECTION('ref_axis',(1.,0.,0.));
#925=DIRECTION('center_axis',(0.,1.,0.));
#926=DIRECTION('ref_axis',(1.,0.,0.));
#927=DIRECTION('center_axis',(0.,-1.,0.));
#928=DIRECTION('ref_axis',(1.,0.,0.));
#929=DIRECTION('',(0.,-1.,0.));
#930=DIRECTION('center_axis',(0.,1.,0.));
#931=DIRECTION('ref_axis',(1.,0.,0.));
#932=DIRECTION('center_axis',(0.,1.,0.));
#933=DIRECTION('ref_axis',(1.,0.,0.));
#934=DIRECTION('center_axis',(0.,-1.,0.));
#935=DIRECTION('ref_axis',(1.,0.,0.));
#936=DIRECTION('',(0.,-1.,0.));
#937=DIRECTION('center_axis',(0.,1.,0.));
#938=DIRECTION('ref_axis',(1.,0.,0.));
#939=DIRECTION('center_axis',(0.,-1.,0.));
#940=DIRECTION('ref_axis',(0.,0.,-1.));
#941=DIRECTION('',(-1.,0.,0.));
#942=DIRECTION('center_axis',(0.,-1.,0.));
#943=DIRECTION('ref_axis',(0.,0.,1.));
#944=DIRECTION('',(5.9211894646675E-16,0.,-1.));
#945=DIRECTION('center_axis',(0.,-1.,0.));
#946=DIRECTION('ref_axis',(-1.,0.,0.));
#947=DIRECTION('center_axis',(0.,1.,0.));
#948=DIRECTION('ref_axis',(0.,0.,1.));
#949=DIRECTION('center_axis',(0.,1.,0.));
#950=DIRECTION('ref_axis',(-1.,0.,0.));
#951=DIRECTION('center_axis',(0.,1.,0.));
#952=DIRECTION('ref_axis',(-1.,0.,0.));
#953=DIRECTION('center_axis',(0.,-1.,0.));
#954=DIRECTION('ref_axis',(1.,0.,0.));
#955=DIRECTION('center_axis',(0.,1.,0.));
#956=DIRECTION('ref_axis',(-1.,0.,0.));
#957=DIRECTION('center_axis',(0.,-1.,0.));
#958=DIRECTION('ref_axis',(1.,0.,0.));
#959=DIRECTION('center_axis',(0.,1.,0.));
#960=DIRECTION('ref_axis',(0.428175589663041,0.,0.903695559586693));
#961=DIRECTION('',(0.,1.,0.));
#962=DIRECTION('center_axis',(0.,-1.,0.));
#963=DIRECTION('ref_axis',(0.428175589663041,0.,0.903695559586693));
#964=DIRECTION('',(0.,-1.,0.));
#965=DIRECTION('center_axis',(0.,0.,1.));
#966=DIRECTION('ref_axis',(1.,0.,0.));
#967=DIRECTION('',(1.,0.,0.));
#968=DIRECTION('',(0.,-1.,0.));
#969=DIRECTION('center_axis',(0.,1.,0.));
#970=DIRECTION('ref_axis',(0.,0.,1.));
#971=DIRECTION('center_axis',(0.,-1.,0.));
#972=DIRECTION('ref_axis',(1.,0.,0.));
#973=DIRECTION('center_axis',(0.,1.,0.));
#974=DIRECTION('ref_axis',(-1.,0.,0.));
#975=DIRECTION('center_axis',(0.,-1.,0.));
#976=DIRECTION('ref_axis',(1.,0.,0.));
#977=DIRECTION('center_axis',(0.,1.,0.));
#978=DIRECTION('ref_axis',(-1.,0.,0.));
#979=DIRECTION('center_axis',(0.,1.,0.));
#980=DIRECTION('ref_axis',(-1.,0.,0.));
#981=DIRECTION('center_axis',(0.,-1.,0.));
#982=DIRECTION('ref_axis',(-0.854174438627955,0.,-0.519986565590514));
#983=DIRECTION('',(0.,0.,1.));
#984=DIRECTION('center_axis',(0.,-1.,0.));
#985=DIRECTION('ref_axis',(-0.707106781186549,0.,0.707106781186546));
#986=DIRECTION('center_axis',(0.,1.,0.));
#987=DIRECTION('ref_axis',(-0.707106781186549,0.,0.707106781186546));
#988=DIRECTION('',(0.,-1.,0.));
#989=DIRECTION('center_axis',(-1.,0.,0.));
#990=DIRECTION('ref_axis',(0.,0.,1.));
#991=DIRECTION('',(0.,-1.,0.));
#992=DIRECTION('center_axis',(0.,1.,0.));
#993=DIRECTION('ref_axis',(-0.854174438627955,0.,-0.519986565590514));
#994=DIRECTION('',(0.,1.,0.));
#995=DIRECTION('center_axis',(0.,1.,0.));
#996=DIRECTION('ref_axis',(-1.,0.,0.));
#997=DIRECTION('',(0.,1.,0.));
#998=DIRECTION('center_axis',(0.,1.,0.));
#999=DIRECTION('ref_axis',(0.99995332533937,0.,0.00966163250882113));
#1000=DIRECTION('',(0.,1.,0.));
#1001=DIRECTION('center_axis',(0.,1.,0.));
#1002=DIRECTION('ref_axis',(-1.,0.,-1.22464679914735E-16));
#1003=DIRECTION('',(0.,1.,0.));
#1004=DIRECTION('center_axis',(0.,1.,0.));
#1005=DIRECTION('ref_axis',(0.996463515028973,0.,0.0840265625627021));
#1006=DIRECTION('',(0.,1.,0.));
#1007=DIRECTION('center_axis',(0.,1.,0.));
#1008=DIRECTION('ref_axis',(1.,0.,0.));
#1009=CARTESIAN_POINT('',(0.,0.,0.));
#1010=CARTESIAN_POINT('Origin',(-47.25,-2.,28.));
#1011=CARTESIAN_POINT('',(-42.2883395369296,0.,28.6180011724944));
#1012=CARTESIAN_POINT('',(-43.3778908528489,-0.121642186288026,29.8999939872388));
#1013=CARTESIAN_POINT('Ctrl Pts',(-42.2883395369295,1.47451495458029E-16,
28.6180011724943));
#1014=CARTESIAN_POINT('Ctrl Pts',(-42.5065057559037,7.7567864353987E-15,
28.8652416374435));
#1015=CARTESIAN_POINT('Ctrl Pts',(-42.7240964394619,-0.0262459910201639,
29.1173531068172));
#1016=CARTESIAN_POINT('Ctrl Pts',(-43.0797215883496,-0.0779005090123287,
29.5386206369297));
#1017=CARTESIAN_POINT('Ctrl Pts',(-43.2261613108282,-0.10169753462014,29.7145924956653));
#1018=CARTESIAN_POINT('Ctrl Pts',(-43.3778908528489,-0.121642186288026,
29.8999939872388));
#1019=CARTESIAN_POINT('',(-45.6995331090158,-0.831332464831548,31.));
#1020=CARTESIAN_POINT('Ctrl Pts',(-43.3778908528489,-0.121642186288026,
29.8999939872388));
#1021=CARTESIAN_POINT('Ctrl Pts',(-43.5620255550516,-0.145846454292126,
30.1249920196625));
#1022=CARTESIAN_POINT('Ctrl Pts',(-43.7773797141928,-0.178373996670141,
30.3213014542388));
#1023=CARTESIAN_POINT('Ctrl Pts',(-44.3015446180732,-0.282019287566884,
30.6766852978056));
#1024=CARTESIAN_POINT('Ctrl Pts',(-44.6133977362521,-0.357506738687379,
30.8157796552385));
#1025=CARTESIAN_POINT('Ctrl Pts',(-45.2116069763678,-0.567549460160515,
30.9742013285081));
#1026=CARTESIAN_POINT('Ctrl Pts',(-45.4725230306138,-0.686583738205278,
30.9999999986504));
#1027=CARTESIAN_POINT('Ctrl Pts',(-45.6995331090207,-0.831332464834695,
31.));
#1028=CARTESIAN_POINT('',(-47.25,-2.,31.));
#1029=CARTESIAN_POINT('Ctrl Pts',(-45.6995331090158,-0.831332464831545,
31.));
#1030=CARTESIAN_POINT('Ctrl Pts',(-45.8479875337257,-0.925991650614053,
31.));
#1031=CARTESIAN_POINT('Ctrl Pts',(-45.995265641574,-1.02669264211023,31.));
#1032=CARTESIAN_POINT('Ctrl Pts',(-46.5324168347745,-1.41296867749447,31.));
#1033=CARTESIAN_POINT('Ctrl Pts',(-46.9081092140863,-1.72084734225081,31.));
#1034=CARTESIAN_POINT('Ctrl Pts',(-47.25,-2.,31.));
#1035=CARTESIAN_POINT('',(-44.25,-2.,28.));
#1036=CARTESIAN_POINT('Origin',(-47.25,-2.,28.));
#1037=CARTESIAN_POINT('',(-42.25,0.,28.));
#1038=CARTESIAN_POINT('Origin',(-42.25,-2.,28.));
#1039=CARTESIAN_POINT('Origin',(-47.25,0.,28.));
#1040=CARTESIAN_POINT('Origin',(-42.25,-2.,4.7442884617246));
#1041=CARTESIAN_POINT('',(-44.25,-2.,4.00000000000001));
#1042=CARTESIAN_POINT('',(-42.25,0.,4.00000000000001));
#1043=CARTESIAN_POINT('Origin',(-42.25,-2.,4.00000000000001));
#1044=CARTESIAN_POINT('',(-42.25,0.,4.7442884617246));
#1045=CARTESIAN_POINT('',(-44.25,-2.,4.7442884617246));
#1046=CARTESIAN_POINT('Origin',(-47.25,-2.,4.00000000000001));
#1047=CARTESIAN_POINT('',(-47.25,-2.,1.00000000000001));
#1048=CARTESIAN_POINT('',(-47.25,0.,-0.999999999999985));
#1049=CARTESIAN_POINT('Origin',(-47.25,-2.,-0.999999999999985));
#1050=CARTESIAN_POINT('Origin',(-47.25,0.,4.00000000000001));
#1051=CARTESIAN_POINT('Origin',(-47.25,-2.,4.00000000000001));
#1052=CARTESIAN_POINT('Origin',(-45.2582155552679,-2.,-0.999999999999986));
#1053=CARTESIAN_POINT('',(-58.3544666770954,0.,-0.999999999999979));
#1054=CARTESIAN_POINT('',(-60.6276838296322,-0.361178438731231,0.146413490116286));
#1055=CARTESIAN_POINT('Ctrl Pts',(-60.6276838296322,-0.361178438731225,
0.146413490116287));
#1056=CARTESIAN_POINT('Ctrl Pts',(-60.4228078605268,-0.287088325936527,
0.0405001566012807));
#1057=CARTESIAN_POINT('Ctrl Pts',(-60.2105737875122,-0.226064393022522,
-0.0685001442180211));
#1058=CARTESIAN_POINT('Ctrl Pts',(-59.4469537374416,-0.0506409340842735,
-0.457854305943612));
#1059=CARTESIAN_POINT('Ctrl Pts',(-58.8773044551469,-9.27771072220215E-16,
-0.742873264299296));
#1060=CARTESIAN_POINT('Ctrl Pts',(-58.3544666770954,0.,-0.999999999999979));
#1061=CARTESIAN_POINT('',(-45.2582155552679,0.,-0.999999999999986));
#1062=CARTESIAN_POINT('',(-61.6414311105358,-2.,1.00000000000001));
#1063=CARTESIAN_POINT('',(-45.2582155552679,-2.,1.00000000000001));
#1064=CARTESIAN_POINT('Ctrl Pts',(-61.6414311105358,-2.,1.00000000000001));
#1065=CARTESIAN_POINT('Ctrl Pts',(-61.6414311105358,-1.82186490503008,1.00000000000001));
#1066=CARTESIAN_POINT('Ctrl Pts',(-61.6227071146616,-1.63061242762808,0.974370412869435));
#1067=CARTESIAN_POINT('Ctrl Pts',(-61.5401438405609,-1.2729174098433,0.872414372206586));
#1068=CARTESIAN_POINT('Ctrl Pts',(-61.4755470009669,-1.10655891965784,0.796408187033839));
#1069=CARTESIAN_POINT('Ctrl Pts',(-61.2920947854123,-0.794075517607022,
0.608706546970127));
#1070=CARTESIAN_POINT('Ctrl Pts',(-61.1277995906358,-0.627113959167946,
0.462853737333337));
#1071=CARTESIAN_POINT('Ctrl Pts',(-60.8600038884023,-0.457940748227208,
0.277057758004968));
#1072=CARTESIAN_POINT('Ctrl Pts',(-60.7483641850521,-0.404820556370503,
0.208800791018881));
#1073=CARTESIAN_POINT('Ctrl Pts',(-60.6276838296322,-0.361178438731234,
0.1464134901163));
#1074=CARTESIAN_POINT('Origin',(-61.6414311105358,0.,1.00000000000001));
#1075=CARTESIAN_POINT('',(-47.25,-10.25,1.00000000000001));
#1076=CARTESIAN_POINT('',(-47.25,0.,1.00000000000001));
#1077=CARTESIAN_POINT('',(-61.6414311105358,-10.25,1.00000000000001));
#1078=CARTESIAN_POINT('',(-62.25,-10.25,1.00000000000001));
#1079=CARTESIAN_POINT('',(-61.6414311105358,0.,1.00000000000001));
#1080=CARTESIAN_POINT('Origin',(-47.25,0.,4.00000000000001));
#1081=CARTESIAN_POINT('',(-44.25,-10.25,4.00000000000001));
#1082=CARTESIAN_POINT('',(-44.25,0.,4.00000000000001));
#1083=CARTESIAN_POINT('Origin',(-47.25,-10.25,4.00000000000001));
#1084=CARTESIAN_POINT('Origin',(-44.25,0.,1.00000000000001));
#1085=CARTESIAN_POINT('',(-44.25,-10.25,28.));
#1086=CARTESIAN_POINT('',(-44.25,0.,28.));
#1087=CARTESIAN_POINT('',(-44.25,-10.25,1.00000000000001));
#1088=CARTESIAN_POINT('Origin',(-47.25,0.,28.));
#1089=CARTESIAN_POINT('',(-47.25,-10.25,31.));
#1090=CARTESIAN_POINT('',(-47.25,0.,31.));
#1091=CARTESIAN_POINT('Origin',(-47.25,-10.25,28.));
#1092=CARTESIAN_POINT('Origin',(-59.25,3.,28.));
#1093=CARTESIAN_POINT('',(-61.7,3.,28.));
#1094=CARTESIAN_POINT('Origin',(-59.25,3.,28.));
#1095=CARTESIAN_POINT('',(-61.7,0.500000000000001,28.));
#1096=CARTESIAN_POINT('',(-61.7,3.,28.));
#1097=CARTESIAN_POINT('Origin',(-59.25,0.5,28.));
#1098=CARTESIAN_POINT('Origin',(-59.25,0.5,28.));
#1099=CARTESIAN_POINT('',(-60.6,0.499999999999998,28.));
#1100=CARTESIAN_POINT('Origin',(-59.25,0.499999999999998,28.));
#1101=CARTESIAN_POINT('Origin',(-47.25,3.,4.00000000000001));
#1102=CARTESIAN_POINT('',(-49.7,3.,4.00000000000001));
#1103=CARTESIAN_POINT('Origin',(-47.25,3.,4.00000000000001));
#1104=CARTESIAN_POINT('',(-49.7,0.500000000000001,4.00000000000001));
#1105=CARTESIAN_POINT('',(-49.7,3.,4.00000000000001));
#1106=CARTESIAN_POINT('Origin',(-47.25,0.5,4.00000000000001));
#1107=CARTESIAN_POINT('Origin',(-47.25,0.5,4.00000000000001));
#1108=CARTESIAN_POINT('',(-48.6,0.499999999999998,4.00000000000001));
#1109=CARTESIAN_POINT('Origin',(-47.25,0.499999999999998,4.00000000000001));
#1110=CARTESIAN_POINT('Origin',(-47.25,3.,28.));
#1111=CARTESIAN_POINT('',(-49.7,3.,28.));
#1112=CARTESIAN_POINT('Origin',(-47.25,3.,28.));
#1113=CARTESIAN_POINT('',(-49.7,0.500000000000001,28.));
#1114=CARTESIAN_POINT('',(-49.7,3.,28.));
#1115=CARTESIAN_POINT('Origin',(-47.25,0.5,28.));
#1116=CARTESIAN_POINT('Origin',(-47.25,0.5,28.));
#1117=CARTESIAN_POINT('',(-48.6,0.499999999999998,28.));
#1118=CARTESIAN_POINT('Origin',(-47.25,0.499999999999998,28.));
#1119=CARTESIAN_POINT('Origin',(-59.25,3.,4.00000000000001));
#1120=CARTESIAN_POINT('',(-61.7,3.,4.00000000000001));
#1121=CARTESIAN_POINT('Origin',(-59.25,3.,4.00000000000001));
#1122=CARTESIAN_POINT('',(-61.7,0.500000000000001,4.00000000000001));
#1123=CARTESIAN_POINT('',(-61.7,3.,4.00000000000001));
#1124=CARTESIAN_POINT('Origin',(-59.25,0.5,4.00000000000001));
#1125=CARTESIAN_POINT('Origin',(-59.25,0.5,4.00000000000001));
#1126=CARTESIAN_POINT('',(-60.6,0.499999999999998,4.00000000000001));
#1127=CARTESIAN_POINT('Origin',(-59.25,0.499999999999998,4.00000000000001));
#1128=CARTESIAN_POINT('Origin',(-59.25,-78.5976818036264,4.00000000000001));
#1129=CARTESIAN_POINT('',(-60.6,-10.25,4.00000000000001));
#1130=CARTESIAN_POINT('',(-60.6,-78.5976818036264,4.00000000000001));
#1131=CARTESIAN_POINT('Origin',(-59.25,-10.25,4.00000000000001));
#1132=CARTESIAN_POINT('Origin',(-47.25,-78.5976818036264,4.00000000000001));
#1133=CARTESIAN_POINT('',(-48.6,-10.25,4.00000000000001));
#1134=CARTESIAN_POINT('',(-48.6,-78.5976818036264,4.00000000000001));
#1135=CARTESIAN_POINT('Origin',(-47.25,-10.25,4.00000000000001));
#1136=CARTESIAN_POINT('Origin',(-47.25,-78.5976818036264,28.));
#1137=CARTESIAN_POINT('',(-48.6,-10.25,28.));
#1138=CARTESIAN_POINT('',(-48.6,-78.5976818036264,28.));
#1139=CARTESIAN_POINT('Origin',(-47.25,-10.25,28.));
#1140=CARTESIAN_POINT('Origin',(-59.25,-78.5976818036264,28.));
#1141=CARTESIAN_POINT('',(-60.6,-10.25,28.));
#1142=CARTESIAN_POINT('',(-60.6,-78.5976818036264,28.));
#1143=CARTESIAN_POINT('Origin',(-59.25,-10.25,28.));
#1144=CARTESIAN_POINT('Origin',(-7.77817459305202,-78.5976818036264,-7.77817459305202));
#1145=CARTESIAN_POINT('',(-8.87817459305202,3.,-7.77817459305202));
#1146=CARTESIAN_POINT('Origin',(-7.77817459305202,3.,-7.77817459305202));
#1147=CARTESIAN_POINT('',(-8.87817459305202,0.,-7.77817459305202));
#1148=CARTESIAN_POINT('',(-8.87817459305202,-78.5976818036264,-7.77817459305202));
#1149=CARTESIAN_POINT('Origin',(-7.77817459305202,0.,-7.77817459305202));
#1150=CARTESIAN_POINT('Origin',(-11.,-78.5976818036264,6.73555739531044E-16));
#1151=CARTESIAN_POINT('',(-12.1,3.,8.08266887437253E-16));
#1152=CARTESIAN_POINT('Origin',(-11.,3.,6.73555739531044E-16));
#1153=CARTESIAN_POINT('',(-12.1,0.,8.08266887437253E-16));
#1154=CARTESIAN_POINT('',(-12.1,-78.5976818036264,8.08266887437253E-16));
#1155=CARTESIAN_POINT('Origin',(-11.,0.,6.73555739531044E-16));
#1156=CARTESIAN_POINT('Origin',(-7.77817459305202,-78.5976818036264,7.77817459305202));
#1157=CARTESIAN_POINT('',(-8.87817459305202,3.,7.77817459305202));
#1158=CARTESIAN_POINT('Origin',(-7.77817459305202,3.,7.77817459305202));
#1159=CARTESIAN_POINT('',(-8.87817459305202,0.,7.77817459305202));
#1160=CARTESIAN_POINT('',(-8.87817459305202,-78.5976818036264,7.77817459305202));
#1161=CARTESIAN_POINT('Origin',(-7.77817459305202,0.,7.77817459305202));
#1162=CARTESIAN_POINT('Origin',(0.,-78.5976818036264,11.));
#1163=CARTESIAN_POINT('',(-1.1,3.,11.));
#1164=CARTESIAN_POINT('Origin',(0.,3.,11.));
#1165=CARTESIAN_POINT('',(-1.1,0.,11.));
#1166=CARTESIAN_POINT('',(-1.1,-78.5976818036264,11.));
#1167=CARTESIAN_POINT('Origin',(0.,0.,11.));
#1168=CARTESIAN_POINT('Origin',(0.,-78.5976818036264,-11.));
#1169=CARTESIAN_POINT('',(-1.1,3.,-11.));
#1170=CARTESIAN_POINT('Origin',(0.,3.,-11.));
#1171=CARTESIAN_POINT('',(-1.1,0.,-11.));
#1172=CARTESIAN_POINT('',(-1.1,-78.5976818036264,-11.));
#1173=CARTESIAN_POINT('Origin',(0.,0.,-11.));
#1174=CARTESIAN_POINT('Origin',(-53.25,-10.25,16.));
#1175=CARTESIAN_POINT('',(-59.25,-10.25,31.));
#1176=CARTESIAN_POINT('',(-44.25,-10.25,31.));
#1177=CARTESIAN_POINT('',(-62.25,-10.25,28.));
#1178=CARTESIAN_POINT('Origin',(-59.25,-10.25,28.));
#1179=CARTESIAN_POINT('',(-62.25,-10.25,2.81136888666046));
#1180=CARTESIAN_POINT('',(-62.25,-10.25,31.));
#1181=CARTESIAN_POINT('Origin',(-59.25,-10.25,2.81136888666046));
#1182=CARTESIAN_POINT('Origin',(-28.875,0.,8.48857692344918));
#1183=CARTESIAN_POINT('',(0.0869506339986215,0.,-13.9991598757154));
#1184=CARTESIAN_POINT('Origin',(-2.36451621859544,0.,112.849153846898));
#1185=CARTESIAN_POINT('',(9.18485099360515E-16,0.,-5.));
#1186=CARTESIAN_POINT('Origin',(-1.16341445918999E-15,0.,-9.5));
#1187=CARTESIAN_POINT('',(-3.06161699786838E-16,0.,5.));
#1188=CARTESIAN_POINT('Origin',(0.,0.,0.));
#1189=CARTESIAN_POINT('',(-0.753564634983285,0.,13.9364558310551));
#1190=CARTESIAN_POINT('Origin',(1.72981360379564E-15,0.,9.5));
#1191=CARTESIAN_POINT('Origin',(-8.33618318039677,0.,58.5775532217415));
#1192=CARTESIAN_POINT('Origin',(-45.6995331268559,0.,28.));
#1193=CARTESIAN_POINT('',(-43.3778908522444,3.,29.8999939865002));
#1194=CARTESIAN_POINT('',(-43.3778908522444,0.,29.8999939865002));
#1195=CARTESIAN_POINT('',(-45.6995331268559,3.,31.));
#1196=CARTESIAN_POINT('Origin',(-45.6995331268559,3.,28.));
#1197=CARTESIAN_POINT('',(-45.6995331268559,0.,31.));
#1198=CARTESIAN_POINT('Origin',(-62.25,0.,31.));
#1199=CARTESIAN_POINT('',(-59.25,3.,31.));
#1200=CARTESIAN_POINT('',(-62.25,3.,31.));
#1201=CARTESIAN_POINT('',(-59.25,0.,31.));
#1202=CARTESIAN_POINT('Origin',(-28.875,3.,8.48857692344918));
#1203=CARTESIAN_POINT('',(-0.753564634983288,3.,13.9364558310551));
#1204=CARTESIAN_POINT('Origin',(-8.33618318039677,3.,58.5775532217415));
#1205=CARTESIAN_POINT('',(0.,3.,5.));
#1206=CARTESIAN_POINT('Origin',(1.72981360379564E-15,3.,9.5));
#1207=CARTESIAN_POINT('',(0.,3.,-5.));
#1208=CARTESIAN_POINT('Origin',(0.,3.,0.));
#1209=CARTESIAN_POINT('',(0.0869506339986259,3.,-13.9991598757154));
#1210=CARTESIAN_POINT('Origin',(-1.16341445918999E-15,3.,-9.5));
#1211=CARTESIAN_POINT('',(-60.6276838296323,3.,0.146413490116331));
#1212=CARTESIAN_POINT('Origin',(-2.36451621859544,3.,112.849153846898));
#1213=CARTESIAN_POINT('',(-62.25,3.,2.81136888666046));
#1214=CARTESIAN_POINT('Origin',(-59.25,3.,2.81136888666046));
#1215=CARTESIAN_POINT('',(-62.25,3.,28.));
#1216=CARTESIAN_POINT('',(-62.25,3.,1.00000000000001));
#1217=CARTESIAN_POINT('Origin',(-59.25,3.,28.));
#1218=CARTESIAN_POINT('Origin',(-59.25,0.,28.));
#1219=CARTESIAN_POINT('',(-62.25,0.,28.));
#1220=CARTESIAN_POINT('Origin',(-62.25,0.,1.00000000000001));
#1221=CARTESIAN_POINT('',(-62.25,0.,2.81136888666046));
#1222=CARTESIAN_POINT('Origin',(-59.25,0.,2.81136888666046));
#1223=CARTESIAN_POINT('',(-60.6276838296323,0.,0.146413490116333));
#1224=CARTESIAN_POINT('Origin',(-2.36451621859544,0.,112.849153846898));
#1225=CARTESIAN_POINT('',(0.0869506339986215,0.,-13.9991598757154));
#1226=CARTESIAN_POINT('Origin',(-1.16341445918999E-15,0.,-9.5));
#1227=CARTESIAN_POINT('',(9.18485099360515E-16,0.,-5.));
#1228=CARTESIAN_POINT('Origin',(0.,0.,0.));
#1229=CARTESIAN_POINT('',(-3.06161699786838E-16,0.,5.));
#1230=CARTESIAN_POINT('Origin',(1.72981360379564E-15,0.,9.5));
#1231=CARTESIAN_POINT('',(-0.753564634983285,0.,13.9364558310551));
#1232=CARTESIAN_POINT('Origin',(-8.33618318039677,0.,58.5775532217415));
#1233=UNCERTAINTY_MEASURE_WITH_UNIT(LENGTH_MEASURE(0.01),#1237,
'DISTANCE_ACCURACY_VALUE',
'Maximum model space distance between geometric entities at asserted c
onnectivities');
#1234=UNCERTAINTY_MEASURE_WITH_UNIT(LENGTH_MEASURE(0.01),#1237,
'DISTANCE_ACCURACY_VALUE',
'Maximum model space distance between geometric entities at asserted c
onnectivities');
#1235=(
GEOMETRIC_REPRESENTATION_CONTEXT(3)
GLOBAL_UNCERTAINTY_ASSIGNED_CONTEXT((#1233))
GLOBAL_UNIT_ASSIGNED_CONTEXT((#1237,#1239,#1240))
REPRESENTATION_CONTEXT('','3D')
);
#1236=(
GEOMETRIC_REPRESENTATION_CONTEXT(3)
GLOBAL_UNCERTAINTY_ASSIGNED_CONTEXT((#1234))
GLOBAL_UNIT_ASSIGNED_CONTEXT((#1237,#1239,#1240))
REPRESENTATION_CONTEXT('','3D')
);
#1237=(
LENGTH_UNIT()
NAMED_UNIT(*)
SI_UNIT(.MILLI.,.METRE.)
);
#1238=(
LENGTH_UNIT()
NAMED_UNIT(*)
SI_UNIT(.CENTI.,.METRE.)
);
#1239=(
NAMED_UNIT(*)
PLANE_ANGLE_UNIT()
SI_UNIT($,.RADIAN.)
);
#1240=(
NAMED_UNIT(*)
SI_UNIT($,.STERADIAN.)
SOLID_ANGLE_UNIT()
);
#1241=SHAPE_DEFINITION_REPRESENTATION(#1242,#1243);
#1242=PRODUCT_DEFINITION_SHAPE('',$,#1245);
#1243=SHAPE_REPRESENTATION('',(#704),#1235);
#1244=PRODUCT_DEFINITION_CONTEXT('part definition',#1249,'design');
#1245=PRODUCT_DEFINITION('connectpart3','connectpart3',#1246,#1244);
#1246=PRODUCT_DEFINITION_FORMATION('',$,#1251);
#1247=PRODUCT_RELATED_PRODUCT_CATEGORY('connectpart3','connectpart3',(#1251));
#1248=APPLICATION_PROTOCOL_DEFINITION('international standard',
'automotive_design',2009,#1249);
#1249=APPLICATION_CONTEXT(
'Core Data for Automotive Mechanical Design Process');
#1250=PRODUCT_CONTEXT('part definition',#1249,'mechanical');
#1251=PRODUCT('connectpart3','connectpart3',$,(#1250));
#1252=PRESENTATION_STYLE_ASSIGNMENT((#1253));
#1253=SURFACE_STYLE_USAGE(.BOTH.,#1256);
#1254=SURFACE_STYLE_RENDERING_WITH_PROPERTIES($,#1260,(#1255));
#1255=SURFACE_STYLE_TRANSPARENT(0.);
#1256=SURFACE_SIDE_STYLE('',(#1257,#1254));
#1257=SURFACE_STYLE_FILL_AREA(#1258);
#1258=FILL_AREA_STYLE('',(#1259));
#1259=FILL_AREA_STYLE_COLOUR('',#1260);
#1260=COLOUR_RGB('',0.749019607843137,0.749019607843137,0.749019607843137);
ENDSEC;
END-ISO-10303-21;
