ISO-10303-21;
HEADER;
/* Generated by software containing ST-Developer
 * from STEP Tools, Inc. (www.steptools.com) 
 */

FILE_DESCRIPTION(
/* description */ (''),
/* implementation_level */ '2;1');

FILE_NAME(
/* name */ 'connectpart2.stp',
/* time_stamp */ '2026-05-04T17:28:25+09:00',
/* author */ ('kshau'),
/* organization */ (''),
/* preprocessor_version */ 'ST-DEVELOPER v20',
/* originating_system */ 'Autodesk Inventor 2024',
/* authorisation */ '');

FILE_SCHEMA (('AUTOMOTIVE_DESIGN { 1 0 10303 214 3 1 1 }'));
ENDSEC;

DATA;
#10=MECHANICAL_DESIGN_GEOMETRIC_PRESENTATION_REPRESENTATION('',(#13),#687);
#11=SHAPE_REPRESENTATION_RELATIONSHIP('SRR','None',#694,#12);
#12=ADVANCED_BREP_SHAPE_REPRESENTATION('',(#14),#686);
#13=STYLED_ITEM('',(#703),#14);
#14=MANIFOLD_SOLID_BREP('\X2\30BD30EA30C330C9\X0\1',#366);
#15=FACE_BOUND('',#77,.T.);
#16=FACE_BOUND('',#82,.T.);
#17=CIRCLE('',#396,13.1);
#18=CIRCLE('',#397,13.1);
#19=CIRCLE('',#404,23.);
#20=CIRCLE('',#405,23.);
#21=CIRCLE('',#406,23.);
#22=CIRCLE('',#407,23.);
#23=CIRCLE('',#409,23.);
#24=CIRCLE('',#411,23.);
#25=CIRCLE('',#413,23.);
#26=CIRCLE('',#414,23.);
#27=CIRCLE('',#416,23.);
#28=CIRCLE('',#418,23.);
#29=PLANE('',#390);
#30=PLANE('',#392);
#31=PLANE('',#394);
#32=PLANE('',#398);
#33=PLANE('',#399);
#34=PLANE('',#400);
#35=PLANE('',#401);
#36=PLANE('',#402);
#37=PLANE('',#403);
#38=PLANE('',#408);
#39=PLANE('',#410);
#40=PLANE('',#412);
#41=PLANE('',#415);
#42=PLANE('',#419);
#43=FACE_OUTER_BOUND('',#62,.T.);
#44=FACE_OUTER_BOUND('',#63,.T.);
#45=FACE_OUTER_BOUND('',#64,.T.);
#46=FACE_OUTER_BOUND('',#65,.T.);
#47=FACE_OUTER_BOUND('',#66,.T.);
#48=FACE_OUTER_BOUND('',#67,.T.);
#49=FACE_OUTER_BOUND('',#68,.T.);
#50=FACE_OUTER_BOUND('',#69,.T.);
#51=FACE_OUTER_BOUND('',#70,.T.);
#52=FACE_OUTER_BOUND('',#71,.T.);
#53=FACE_OUTER_BOUND('',#72,.T.);
#54=FACE_OUTER_BOUND('',#73,.T.);
#55=FACE_OUTER_BOUND('',#74,.T.);
#56=FACE_OUTER_BOUND('',#75,.T.);
#57=FACE_OUTER_BOUND('',#76,.T.);
#58=FACE_OUTER_BOUND('',#78,.T.);
#59=FACE_OUTER_BOUND('',#79,.T.);
#60=FACE_OUTER_BOUND('',#80,.T.);
#61=FACE_OUTER_BOUND('',#81,.T.);
#62=EDGE_LOOP('',(#240,#241,#242,#243));
#63=EDGE_LOOP('',(#244,#245,#246,#247));
#64=EDGE_LOOP('',(#248,#249,#250,#251));
#65=EDGE_LOOP('',(#252,#253,#254,#255));
#66=EDGE_LOOP('',(#256,#257,#258,#259));
#67=EDGE_LOOP('',(#260,#261,#262,#263));
#68=EDGE_LOOP('',(#264,#265,#266,#267));
#69=EDGE_LOOP('',(#268,#269,#270,#271));
#70=EDGE_LOOP('',(#272,#273,#274,#275));
#71=EDGE_LOOP('',(#276,#277,#278,#279));
#72=EDGE_LOOP('',(#280,#281,#282,#283));
#73=EDGE_LOOP('',(#284,#285,#286,#287));
#74=EDGE_LOOP('',(#288,#289,#290,#291,#292,#293,#294,#295,#296,#297,#298,
#299));
#75=EDGE_LOOP('',(#300,#301));
#76=EDGE_LOOP('',(#302,#303,#304,#305,#306,#307));
#77=EDGE_LOOP('',(#308));
#78=EDGE_LOOP('',(#309,#310,#311));
#79=EDGE_LOOP('',(#312,#313));
#80=EDGE_LOOP('',(#314,#315,#316,#317,#318,#319,#320,#321,#322,#323,#324,
#325,#326,#327,#328,#329,#330,#331,#332,#333,#334,#335,#336,#337,#338,#339));
#81=EDGE_LOOP('',(#340));
#82=EDGE_LOOP('',(#341));
#83=LINE('',#534,#116);
#84=LINE('',#548,#117);
#85=LINE('',#551,#118);
#86=LINE('',#553,#119);
#87=LINE('',#554,#120);
#88=LINE('',#571,#121);
#89=LINE('',#585,#122);
#90=LINE('',#588,#123);
#91=LINE('',#590,#124);
#92=LINE('',#591,#125);
#93=LINE('',#606,#126);
#94=LINE('',#618,#127);
#95=LINE('',#621,#128);
#96=LINE('',#623,#129);
#97=LINE('',#624,#130);
#98=LINE('',#629,#131);
#99=LINE('',#634,#132);
#100=LINE('',#636,#133);
#101=LINE('',#638,#134);
#102=LINE('',#639,#135);
#103=LINE('',#642,#136);
#104=LINE('',#644,#137);
#105=LINE('',#645,#138);
#106=LINE('',#648,#139);
#107=LINE('',#650,#140);
#108=LINE('',#651,#141);
#109=LINE('',#655,#142);
#110=LINE('',#657,#143);
#111=LINE('',#659,#144);
#112=LINE('',#660,#145);
#113=LINE('',#662,#146);
#114=LINE('',#663,#147);
#115=LINE('',#681,#148);
#116=VECTOR('',#424,10.);
#117=VECTOR('',#425,10.);
#118=VECTOR('',#428,10.);
#119=VECTOR('',#429,10.);
#120=VECTOR('',#430,10.);
#121=VECTOR('',#433,10.);
#122=VECTOR('',#434,10.);
#123=VECTOR('',#437,10.);
#124=VECTOR('',#438,10.);
#125=VECTOR('',#439,10.);
#126=VECTOR('',#442,10.);
#127=VECTOR('',#443,10.);
#128=VECTOR('',#446,10.);
#129=VECTOR('',#447,10.);
#130=VECTOR('',#448,10.);
#131=VECTOR('',#453,13.1);
#132=VECTOR('',#458,10.);
#133=VECTOR('',#459,10.);
#134=VECTOR('',#460,10.);
#135=VECTOR('',#461,10.);
#136=VECTOR('',#464,10.);
#137=VECTOR('',#465,10.);
#138=VECTOR('',#466,10.);
#139=VECTOR('',#469,10.);
#140=VECTOR('',#470,10.);
#141=VECTOR('',#471,10.);
#142=VECTOR('',#474,10.);
#143=VECTOR('',#475,10.);
#144=VECTOR('',#476,10.);
#145=VECTOR('',#477,10.);
#146=VECTOR('',#480,10.);
#147=VECTOR('',#481,10.);
#148=VECTOR('',#512,23.);
#149=B_SPLINE_CURVE_WITH_KNOTS('',3,(#521,#522,#523,#524,#525,#526,#527,
#528,#529,#530,#531,#532),.UNSPECIFIED.,.F.,.F.,(4,2,2,2,2,4),(0.297287472896625,
0.386035083938657,0.474782694980689,0.511524048459488,0.529894725198888,
0.548265401938287),.UNSPECIFIED.);
#150=B_SPLINE_CURVE_WITH_KNOTS('',3,(#536,#537,#538,#539,#540,#541,#542,
#543,#544,#545,#546,#547),.UNSPECIFIED.,.F.,.F.,(4,2,2,2,2,4),(0.548265401938287,
0.566636078677686,0.585006755417086,0.621748108895885,0.710495719937916,
0.799243330979948),.UNSPECIFIED.);
#151=B_SPLINE_CURVE_WITH_KNOTS('',3,(#558,#559,#560,#561,#562,#563,#564,
#565,#566,#567,#568,#569),.UNSPECIFIED.,.F.,.F.,(4,2,2,2,2,4),(0.297287472896627,
0.386035083938659,0.47478269498069,0.511524048459489,0.529894725198889,
0.548265401938289),.UNSPECIFIED.);
#152=B_SPLINE_CURVE_WITH_KNOTS('',3,(#573,#574,#575,#576,#577,#578,#579,
#580,#581,#582,#583,#584),.UNSPECIFIED.,.F.,.F.,(4,2,2,2,2,4),(0.548265401938289,
0.566636078677689,0.585006755417088,0.621748108895888,0.710495719937919,
0.79924333097995),.UNSPECIFIED.);
#153=B_SPLINE_CURVE_WITH_KNOTS('',3,(#595,#596,#597,#598,#599,#600,#601,
#602,#603,#604),.UNSPECIFIED.,.F.,.F.,(4,2,2,2,4),(0.203193280458342,0.26272496969128,
0.322256658924218,0.359165683234715,0.396074707545212),.UNSPECIFIED.);
#154=B_SPLINE_CURVE_WITH_KNOTS('',3,(#608,#609,#610,#611,#612,#613,#614,
#615,#616,#617),.UNSPECIFIED.,.F.,.F.,(4,2,2,2,4),(0.396074707545212,0.432983731855709,
0.469892756166206,0.529424445399144,0.588956134632083),.UNSPECIFIED.);
#155=VERTEX_POINT('',#519);
#156=VERTEX_POINT('',#520);
#157=VERTEX_POINT('',#533);
#158=VERTEX_POINT('',#535);
#159=VERTEX_POINT('',#550);
#160=VERTEX_POINT('',#552);
#161=VERTEX_POINT('',#556);
#162=VERTEX_POINT('',#557);
#163=VERTEX_POINT('',#570);
#164=VERTEX_POINT('',#572);
#165=VERTEX_POINT('',#587);
#166=VERTEX_POINT('',#589);
#167=VERTEX_POINT('',#593);
#168=VERTEX_POINT('',#594);
#169=VERTEX_POINT('',#605);
#170=VERTEX_POINT('',#607);
#171=VERTEX_POINT('',#620);
#172=VERTEX_POINT('',#622);
#173=VERTEX_POINT('',#626);
#174=VERTEX_POINT('',#628);
#175=VERTEX_POINT('',#632);
#176=VERTEX_POINT('',#633);
#177=VERTEX_POINT('',#635);
#178=VERTEX_POINT('',#637);
#179=VERTEX_POINT('',#641);
#180=VERTEX_POINT('',#643);
#181=VERTEX_POINT('',#647);
#182=VERTEX_POINT('',#649);
#183=VERTEX_POINT('',#653);
#184=VERTEX_POINT('',#654);
#185=VERTEX_POINT('',#656);
#186=VERTEX_POINT('',#658);
#187=VERTEX_POINT('',#674);
#188=VERTEX_POINT('',#680);
#189=EDGE_CURVE('',#155,#156,#149,.T.);
#190=EDGE_CURVE('',#156,#157,#83,.T.);
#191=EDGE_CURVE('',#157,#158,#150,.T.);
#192=EDGE_CURVE('',#158,#155,#84,.T.);
#193=EDGE_CURVE('',#156,#159,#85,.T.);
#194=EDGE_CURVE('',#160,#159,#86,.T.);
#195=EDGE_CURVE('',#157,#160,#87,.T.);
#196=EDGE_CURVE('',#161,#162,#151,.T.);
#197=EDGE_CURVE('',#162,#163,#88,.T.);
#198=EDGE_CURVE('',#163,#164,#152,.T.);
#199=EDGE_CURVE('',#164,#161,#89,.T.);
#200=EDGE_CURVE('',#162,#165,#90,.T.);
#201=EDGE_CURVE('',#166,#165,#91,.T.);
#202=EDGE_CURVE('',#163,#166,#92,.T.);
#203=EDGE_CURVE('',#167,#168,#153,.T.);
#204=EDGE_CURVE('',#168,#169,#93,.T.);
#205=EDGE_CURVE('',#169,#170,#154,.T.);
#206=EDGE_CURVE('',#170,#167,#94,.T.);
#207=EDGE_CURVE('',#168,#171,#95,.T.);
#208=EDGE_CURVE('',#172,#171,#96,.T.);
#209=EDGE_CURVE('',#169,#172,#97,.T.);
#210=EDGE_CURVE('',#173,#173,#17,.T.);
#211=EDGE_CURVE('',#173,#174,#98,.T.);
#212=EDGE_CURVE('',#174,#174,#18,.T.);
#213=EDGE_CURVE('',#175,#176,#99,.T.);
#214=EDGE_CURVE('',#175,#177,#100,.T.);
#215=EDGE_CURVE('',#178,#177,#101,.T.);
#216=EDGE_CURVE('',#176,#178,#102,.T.);
#217=EDGE_CURVE('',#176,#179,#103,.T.);
#218=EDGE_CURVE('',#180,#178,#104,.T.);
#219=EDGE_CURVE('',#179,#180,#105,.T.);
#220=EDGE_CURVE('',#179,#181,#106,.T.);
#221=EDGE_CURVE('',#182,#180,#107,.T.);
#222=EDGE_CURVE('',#181,#182,#108,.T.);
#223=EDGE_CURVE('',#183,#184,#109,.T.);
#224=EDGE_CURVE('',#183,#185,#110,.T.);
#225=EDGE_CURVE('',#186,#185,#111,.T.);
#226=EDGE_CURVE('',#184,#186,#112,.T.);
#227=EDGE_CURVE('',#184,#175,#113,.T.);
#228=EDGE_CURVE('',#177,#186,#114,.T.);
#229=EDGE_CURVE('',#185,#166,#19,.T.);
#230=EDGE_CURVE('',#165,#172,#20,.T.);
#231=EDGE_CURVE('',#171,#160,#21,.T.);
#232=EDGE_CURVE('',#159,#182,#22,.T.);
#233=EDGE_CURVE('',#164,#161,#23,.T.);
#234=EDGE_CURVE('',#181,#183,#24,.T.);
#235=EDGE_CURVE('',#158,#187,#25,.T.);
#236=EDGE_CURVE('',#187,#155,#26,.T.);
#237=EDGE_CURVE('',#170,#167,#27,.T.);
#238=EDGE_CURVE('',#187,#188,#115,.T.);
#239=EDGE_CURVE('',#188,#188,#28,.T.);
#240=ORIENTED_EDGE('',*,*,#189,.T.);
#241=ORIENTED_EDGE('',*,*,#190,.T.);
#242=ORIENTED_EDGE('',*,*,#191,.T.);
#243=ORIENTED_EDGE('',*,*,#192,.T.);
#244=ORIENTED_EDGE('',*,*,#190,.F.);
#245=ORIENTED_EDGE('',*,*,#193,.T.);
#246=ORIENTED_EDGE('',*,*,#194,.F.);
#247=ORIENTED_EDGE('',*,*,#195,.F.);
#248=ORIENTED_EDGE('',*,*,#196,.T.);
#249=ORIENTED_EDGE('',*,*,#197,.T.);
#250=ORIENTED_EDGE('',*,*,#198,.T.);
#251=ORIENTED_EDGE('',*,*,#199,.T.);
#252=ORIENTED_EDGE('',*,*,#197,.F.);
#253=ORIENTED_EDGE('',*,*,#200,.T.);
#254=ORIENTED_EDGE('',*,*,#201,.F.);
#255=ORIENTED_EDGE('',*,*,#202,.F.);
#256=ORIENTED_EDGE('',*,*,#203,.T.);
#257=ORIENTED_EDGE('',*,*,#204,.T.);
#258=ORIENTED_EDGE('',*,*,#205,.T.);
#259=ORIENTED_EDGE('',*,*,#206,.T.);
#260=ORIENTED_EDGE('',*,*,#204,.F.);
#261=ORIENTED_EDGE('',*,*,#207,.T.);
#262=ORIENTED_EDGE('',*,*,#208,.F.);
#263=ORIENTED_EDGE('',*,*,#209,.F.);
#264=ORIENTED_EDGE('',*,*,#210,.F.);
#265=ORIENTED_EDGE('',*,*,#211,.T.);
#266=ORIENTED_EDGE('',*,*,#212,.F.);
#267=ORIENTED_EDGE('',*,*,#211,.F.);
#268=ORIENTED_EDGE('',*,*,#213,.F.);
#269=ORIENTED_EDGE('',*,*,#214,.T.);
#270=ORIENTED_EDGE('',*,*,#215,.F.);
#271=ORIENTED_EDGE('',*,*,#216,.F.);
#272=ORIENTED_EDGE('',*,*,#217,.F.);
#273=ORIENTED_EDGE('',*,*,#216,.T.);
#274=ORIENTED_EDGE('',*,*,#218,.F.);
#275=ORIENTED_EDGE('',*,*,#219,.F.);
#276=ORIENTED_EDGE('',*,*,#220,.F.);
#277=ORIENTED_EDGE('',*,*,#219,.T.);
#278=ORIENTED_EDGE('',*,*,#221,.F.);
#279=ORIENTED_EDGE('',*,*,#222,.F.);
#280=ORIENTED_EDGE('',*,*,#223,.F.);
#281=ORIENTED_EDGE('',*,*,#224,.T.);
#282=ORIENTED_EDGE('',*,*,#225,.F.);
#283=ORIENTED_EDGE('',*,*,#226,.F.);
#284=ORIENTED_EDGE('',*,*,#227,.F.);
#285=ORIENTED_EDGE('',*,*,#226,.T.);
#286=ORIENTED_EDGE('',*,*,#228,.F.);
#287=ORIENTED_EDGE('',*,*,#214,.F.);
#288=ORIENTED_EDGE('',*,*,#228,.T.);
#289=ORIENTED_EDGE('',*,*,#225,.T.);
#290=ORIENTED_EDGE('',*,*,#229,.T.);
#291=ORIENTED_EDGE('',*,*,#201,.T.);
#292=ORIENTED_EDGE('',*,*,#230,.T.);
#293=ORIENTED_EDGE('',*,*,#208,.T.);
#294=ORIENTED_EDGE('',*,*,#231,.T.);
#295=ORIENTED_EDGE('',*,*,#194,.T.);
#296=ORIENTED_EDGE('',*,*,#232,.T.);
#297=ORIENTED_EDGE('',*,*,#221,.T.);
#298=ORIENTED_EDGE('',*,*,#218,.T.);
#299=ORIENTED_EDGE('',*,*,#215,.T.);
#300=ORIENTED_EDGE('',*,*,#199,.F.);
#301=ORIENTED_EDGE('',*,*,#233,.T.);
#302=ORIENTED_EDGE('',*,*,#220,.T.);
#303=ORIENTED_EDGE('',*,*,#234,.T.);
#304=ORIENTED_EDGE('',*,*,#223,.T.);
#305=ORIENTED_EDGE('',*,*,#227,.T.);
#306=ORIENTED_EDGE('',*,*,#213,.T.);
#307=ORIENTED_EDGE('',*,*,#217,.T.);
#308=ORIENTED_EDGE('',*,*,#210,.T.);
#309=ORIENTED_EDGE('',*,*,#192,.F.);
#310=ORIENTED_EDGE('',*,*,#235,.T.);
#311=ORIENTED_EDGE('',*,*,#236,.T.);
#312=ORIENTED_EDGE('',*,*,#206,.F.);
#313=ORIENTED_EDGE('',*,*,#237,.T.);
#314=ORIENTED_EDGE('',*,*,#198,.F.);
#315=ORIENTED_EDGE('',*,*,#202,.T.);
#316=ORIENTED_EDGE('',*,*,#229,.F.);
#317=ORIENTED_EDGE('',*,*,#224,.F.);
#318=ORIENTED_EDGE('',*,*,#234,.F.);
#319=ORIENTED_EDGE('',*,*,#222,.T.);
#320=ORIENTED_EDGE('',*,*,#232,.F.);
#321=ORIENTED_EDGE('',*,*,#193,.F.);
#322=ORIENTED_EDGE('',*,*,#189,.F.);
#323=ORIENTED_EDGE('',*,*,#236,.F.);
#324=ORIENTED_EDGE('',*,*,#238,.T.);
#325=ORIENTED_EDGE('',*,*,#239,.T.);
#326=ORIENTED_EDGE('',*,*,#238,.F.);
#327=ORIENTED_EDGE('',*,*,#235,.F.);
#328=ORIENTED_EDGE('',*,*,#191,.F.);
#329=ORIENTED_EDGE('',*,*,#195,.T.);
#330=ORIENTED_EDGE('',*,*,#231,.F.);
#331=ORIENTED_EDGE('',*,*,#207,.F.);
#332=ORIENTED_EDGE('',*,*,#203,.F.);
#333=ORIENTED_EDGE('',*,*,#237,.F.);
#334=ORIENTED_EDGE('',*,*,#205,.F.);
#335=ORIENTED_EDGE('',*,*,#209,.T.);
#336=ORIENTED_EDGE('',*,*,#230,.F.);
#337=ORIENTED_EDGE('',*,*,#200,.F.);
#338=ORIENTED_EDGE('',*,*,#196,.F.);
#339=ORIENTED_EDGE('',*,*,#233,.F.);
#340=ORIENTED_EDGE('',*,*,#239,.F.);
#341=ORIENTED_EDGE('',*,*,#212,.T.);
#342=CYLINDRICAL_SURFACE('',#389,1.);
#343=CYLINDRICAL_SURFACE('',#391,1.);
#344=CYLINDRICAL_SURFACE('',#393,1.);
#345=CYLINDRICAL_SURFACE('',#395,13.1);
#346=CYLINDRICAL_SURFACE('',#417,23.);
#347=ADVANCED_FACE('',(#43),#342,.F.);
#348=ADVANCED_FACE('',(#44),#29,.T.);
#349=ADVANCED_FACE('',(#45),#343,.F.);
#350=ADVANCED_FACE('',(#46),#30,.T.);
#351=ADVANCED_FACE('',(#47),#344,.F.);
#352=ADVANCED_FACE('',(#48),#31,.T.);
#353=ADVANCED_FACE('',(#49),#345,.F.);
#354=ADVANCED_FACE('',(#50),#32,.T.);
#355=ADVANCED_FACE('',(#51),#33,.T.);
#356=ADVANCED_FACE('',(#52),#34,.T.);
#357=ADVANCED_FACE('',(#53),#35,.T.);
#358=ADVANCED_FACE('',(#54),#36,.T.);
#359=ADVANCED_FACE('',(#55),#37,.T.);
#360=ADVANCED_FACE('',(#56),#38,.T.);
#361=ADVANCED_FACE('',(#57,#15),#39,.T.);
#362=ADVANCED_FACE('',(#58),#40,.T.);
#363=ADVANCED_FACE('',(#59),#41,.T.);
#364=ADVANCED_FACE('',(#60),#346,.T.);
#365=ADVANCED_FACE('',(#61,#16),#42,.F.);
#366=CLOSED_SHELL('',(#347,#348,#349,#350,#351,#352,#353,#354,#355,#356,
#357,#358,#359,#360,#361,#362,#363,#364,#365));
#367=DERIVED_UNIT_ELEMENT(#370,1.);
#368=DERIVED_UNIT_ELEMENT(#689,-3.);
#369=DIMENSIONAL_EXPONENTS(0.,1.,0.,0.,0.,0.,0.);
#370=(
CONVERSION_BASED_UNIT('gram',#372)
MASS_UNIT()
NAMED_UNIT(#369)
);
#371=(
MASS_UNIT()
NAMED_UNIT(*)
SI_UNIT(.KILO.,.GRAM.)
);
#372=MASS_MEASURE_WITH_UNIT(MASS_MEASURE(0.001),#371);
#373=DERIVED_UNIT((#367,#368));
#374=MEASURE_REPRESENTATION_ITEM('density measure',
POSITIVE_RATIO_MEASURE(1.),#373);
#375=PROPERTY_DEFINITION_REPRESENTATION(#380,#377);
#376=PROPERTY_DEFINITION_REPRESENTATION(#381,#378);
#377=REPRESENTATION('material name',(#379),#686);
#378=REPRESENTATION('density',(#374),#686);
#379=DESCRIPTIVE_REPRESENTATION_ITEM('\X2\4E00822C\X0\','\X2\4E00822C\X0\');
#380=PROPERTY_DEFINITION('material property','material name',#696);
#381=PROPERTY_DEFINITION('material property','density of part',#696);
#382=DATE_TIME_ROLE('creation_date');
#383=APPLIED_DATE_AND_TIME_ASSIGNMENT(#384,#382,(#696));
#384=DATE_AND_TIME(#385,#386);
#385=CALENDAR_DATE(2025,26,6);
#386=LOCAL_TIME(0,0,0.,#387);
#387=COORDINATED_UNIVERSAL_TIME_OFFSET(0,0,.BEHIND.);
#388=AXIS2_PLACEMENT_3D('',#517,#420,#421);
#389=AXIS2_PLACEMENT_3D('',#518,#422,#423);
#390=AXIS2_PLACEMENT_3D('',#549,#426,#427);
#391=AXIS2_PLACEMENT_3D('',#555,#431,#432);
#392=AXIS2_PLACEMENT_3D('',#586,#435,#436);
#393=AXIS2_PLACEMENT_3D('',#592,#440,#441);
#394=AXIS2_PLACEMENT_3D('',#619,#444,#445);
#395=AXIS2_PLACEMENT_3D('',#625,#449,#450);
#396=AXIS2_PLACEMENT_3D('',#627,#451,#452);
#397=AXIS2_PLACEMENT_3D('',#630,#454,#455);
#398=AXIS2_PLACEMENT_3D('',#631,#456,#457);
#399=AXIS2_PLACEMENT_3D('',#640,#462,#463);
#400=AXIS2_PLACEMENT_3D('',#646,#467,#468);
#401=AXIS2_PLACEMENT_3D('',#652,#472,#473);
#402=AXIS2_PLACEMENT_3D('',#661,#478,#479);
#403=AXIS2_PLACEMENT_3D('',#664,#482,#483);
#404=AXIS2_PLACEMENT_3D('',#665,#484,#485);
#405=AXIS2_PLACEMENT_3D('',#666,#486,#487);
#406=AXIS2_PLACEMENT_3D('',#667,#488,#489);
#407=AXIS2_PLACEMENT_3D('',#668,#490,#491);
#408=AXIS2_PLACEMENT_3D('',#669,#492,#493);
#409=AXIS2_PLACEMENT_3D('',#670,#494,#495);
#410=AXIS2_PLACEMENT_3D('',#671,#496,#497);
#411=AXIS2_PLACEMENT_3D('',#672,#498,#499);
#412=AXIS2_PLACEMENT_3D('',#673,#500,#501);
#413=AXIS2_PLACEMENT_3D('',#675,#502,#503);
#414=AXIS2_PLACEMENT_3D('',#676,#504,#505);
#415=AXIS2_PLACEMENT_3D('',#677,#506,#507);
#416=AXIS2_PLACEMENT_3D('',#678,#508,#509);
#417=AXIS2_PLACEMENT_3D('',#679,#510,#511);
#418=AXIS2_PLACEMENT_3D('',#682,#513,#514);
#419=AXIS2_PLACEMENT_3D('',#683,#515,#516);
#420=DIRECTION('axis',(0.,0.,1.));
#421=DIRECTION('refdir',(1.,0.,0.));
#422=DIRECTION('center_axis',(-4.33963397247618E-16,1.,0.));
#423=DIRECTION('ref_axis',(0.707106781186546,0.,-0.707106781186549));
#424=DIRECTION('',(-4.33963397247618E-16,1.,0.));
#425=DIRECTION('',(4.33963397247618E-16,-1.,0.));
#426=DIRECTION('center_axis',(-1.,-4.33963397247618E-16,0.));
#427=DIRECTION('ref_axis',(4.33963397247618E-16,-1.,0.));
#428=DIRECTION('',(0.,0.,1.));
#429=DIRECTION('',(4.33963397247618E-16,-1.,0.));
#430=DIRECTION('',(0.,0.,1.));
#431=DIRECTION('center_axis',(2.16981698623809E-16,-1.,0.));
#432=DIRECTION('ref_axis',(-0.707106781186549,0.,-0.707106781186546));
#433=DIRECTION('',(2.16981698623809E-16,-1.,0.));
#434=DIRECTION('',(-2.16981698623809E-16,1.,0.));
#435=DIRECTION('center_axis',(1.,2.16981698623809E-16,0.));
#436=DIRECTION('ref_axis',(-2.16981698623809E-16,1.,0.));
#437=DIRECTION('',(0.,0.,1.));
#438=DIRECTION('',(-2.16981698623809E-16,1.,0.));
#439=DIRECTION('',(0.,0.,1.));
#440=DIRECTION('center_axis',(1.,1.11300553847133E-16,0.));
#441=DIRECTION('ref_axis',(0.,-0.707106781186546,-0.707106781186549));
#442=DIRECTION('',(1.,1.11300553847133E-16,0.));
#443=DIRECTION('',(-1.,-1.11300553847133E-16,0.));
#444=DIRECTION('center_axis',(-1.11300553847133E-16,1.,0.));
#445=DIRECTION('ref_axis',(-1.,-1.11300553847133E-16,0.));
#446=DIRECTION('',(0.,0.,1.));
#447=DIRECTION('',(-1.,-1.11300553847133E-16,0.));
#448=DIRECTION('',(0.,0.,1.));
#449=DIRECTION('center_axis',(0.,0.,-1.));
#450=DIRECTION('ref_axis',(1.,0.,0.));
#451=DIRECTION('center_axis',(0.,0.,-1.));
#452=DIRECTION('ref_axis',(1.,0.,0.));
#453=DIRECTION('',(0.,0.,-1.));
#454=DIRECTION('center_axis',(0.,0.,1.));
#455=DIRECTION('ref_axis',(1.,0.,0.));
#456=DIRECTION('center_axis',(2.6355442721072E-16,-1.,0.));
#457=DIRECTION('ref_axis',(1.,2.6355442721072E-16,0.));
#458=DIRECTION('',(-1.,-2.6355442721072E-16,0.));
#459=DIRECTION('',(0.,0.,1.));
#460=DIRECTION('',(1.,2.6355442721072E-16,0.));
#461=DIRECTION('',(0.,0.,1.));
#462=DIRECTION('center_axis',(1.,1.60321014386304E-16,0.));
#463=DIRECTION('ref_axis',(-1.60321014386304E-16,1.,0.));
#464=DIRECTION('',(1.60321014386304E-16,-1.,0.));
#465=DIRECTION('',(-1.60321014386304E-16,1.,0.));
#466=DIRECTION('',(0.,0.,1.));
#467=DIRECTION('center_axis',(0.,-1.,0.));
#468=DIRECTION('ref_axis',(1.,0.,0.));
#469=DIRECTION('',(-1.,0.,0.));
#470=DIRECTION('',(1.,0.,0.));
#471=DIRECTION('',(0.,0.,1.));
#472=DIRECTION('center_axis',(0.,-1.,0.));
#473=DIRECTION('ref_axis',(1.,0.,0.));
#474=DIRECTION('',(-1.,0.,0.));
#475=DIRECTION('',(0.,0.,1.));
#476=DIRECTION('',(1.,0.,0.));
#477=DIRECTION('',(0.,0.,1.));
#478=DIRECTION('center_axis',(-1.,6.41284057545217E-16,0.));
#479=DIRECTION('ref_axis',(-6.41284057545217E-16,-1.,0.));
#480=DIRECTION('',(6.41284057545217E-16,1.,0.));
#481=DIRECTION('',(-6.41284057545217E-16,-1.,0.));
#482=DIRECTION('center_axis',(0.,0.,1.));
#483=DIRECTION('ref_axis',(1.,0.,0.));
#484=DIRECTION('center_axis',(0.,0.,1.));
#485=DIRECTION('ref_axis',(1.,0.,0.));
#486=DIRECTION('center_axis',(0.,0.,1.));
#487=DIRECTION('ref_axis',(1.,0.,0.));
#488=DIRECTION('center_axis',(0.,0.,1.));
#489=DIRECTION('ref_axis',(1.,0.,0.));
#490=DIRECTION('center_axis',(0.,0.,1.));
#491=DIRECTION('ref_axis',(1.,0.,0.));
#492=DIRECTION('center_axis',(0.,0.,1.));
#493=DIRECTION('ref_axis',(1.,0.,0.));
#494=DIRECTION('center_axis',(0.,0.,1.));
#495=DIRECTION('ref_axis',(1.,0.,0.));
#496=DIRECTION('center_axis',(0.,0.,1.));
#497=DIRECTION('ref_axis',(1.,0.,0.));
#498=DIRECTION('center_axis',(0.,0.,1.));
#499=DIRECTION('ref_axis',(1.,0.,0.));
#500=DIRECTION('center_axis',(0.,0.,1.));
#501=DIRECTION('ref_axis',(1.,0.,0.));
#502=DIRECTION('center_axis',(0.,0.,1.));
#503=DIRECTION('ref_axis',(1.,0.,0.));
#504=DIRECTION('center_axis',(0.,0.,1.));
#505=DIRECTION('ref_axis',(1.,0.,0.));
#506=DIRECTION('center_axis',(0.,0.,1.));
#507=DIRECTION('ref_axis',(1.,0.,0.));
#508=DIRECTION('center_axis',(0.,0.,1.));
#509=DIRECTION('ref_axis',(1.,0.,0.));
#510=DIRECTION('center_axis',(0.,0.,1.));
#511=DIRECTION('ref_axis',(1.,0.,0.));
#512=DIRECTION('',(0.,0.,-1.));
#513=DIRECTION('center_axis',(0.,0.,1.));
#514=DIRECTION('ref_axis',(1.,0.,0.));
#515=DIRECTION('center_axis',(0.,0.,1.));
#516=DIRECTION('ref_axis',(1.,0.,0.));
#517=CARTESIAN_POINT('',(0.,0.,0.));
#518=CARTESIAN_POINT('Origin',(-20.95,5.72270696436572,7.3));
#519=CARTESIAN_POINT('',(-20.95,-9.4919702907247,6.3));
#520=CARTESIAN_POINT('',(-19.95,-11.4454139287315,7.3));
#521=CARTESIAN_POINT('Ctrl Pts',(-20.95,-9.4919702907247,6.3));
#522=CARTESIAN_POINT('Ctrl Pts',(-20.8279145380603,-9.76142861700449,6.3));
#523=CARTESIAN_POINT('Ctrl Pts',(-20.6886671540087,-10.0536770203524,6.32269111168125));
#524=CARTESIAN_POINT('Ctrl Pts',(-20.408305270345,-10.6112415023981,6.44560293136181));
#525=CARTESIAN_POINT('Ctrl Pts',(-20.2669476209018,-10.8771500303006,6.54255897682138));
#526=CARTESIAN_POINT('Ctrl Pts',(-20.0977194022979,-11.1844635831331,6.77035755600764));
#527=CARTESIAN_POINT('Ctrl Pts',(-20.0472733073228,-11.2744165135608,6.85637745130516));
#528=CARTESIAN_POINT('Ctrl Pts',(-19.9917601728888,-11.3723759046483,7.00895759794273));
#529=CARTESIAN_POINT('Ctrl Pts',(-19.9765576123696,-11.3990165201359,7.06372141874452));
#530=CARTESIAN_POINT('Ctrl Pts',(-19.9556806392268,-11.4355263584039,7.17862830613277));
#531=CARTESIAN_POINT('Ctrl Pts',(-19.95,-11.4454139287315,7.23876441086867));
#532=CARTESIAN_POINT('Ctrl Pts',(-19.95,-11.4454139287315,7.3));
#533=CARTESIAN_POINT('',(-19.95,11.4454139287315,7.3));
#534=CARTESIAN_POINT('',(-19.95,5.72270696436572,7.3));
#535=CARTESIAN_POINT('',(-20.95,9.49197029072468,6.3));
#536=CARTESIAN_POINT('Ctrl Pts',(-19.95,11.4454139287315,7.3));
#537=CARTESIAN_POINT('Ctrl Pts',(-19.95,11.4454139287315,7.23876441086867));
#538=CARTESIAN_POINT('Ctrl Pts',(-19.9556806392268,11.4355263584039,7.17862830613277));
#539=CARTESIAN_POINT('Ctrl Pts',(-19.9765576123696,11.3990165201359,7.06372141874452));
#540=CARTESIAN_POINT('Ctrl Pts',(-19.9917601728888,11.3723759046483,7.00895759794273));
#541=CARTESIAN_POINT('Ctrl Pts',(-20.0472733073228,11.2744165135608,6.85637745130516));
#542=CARTESIAN_POINT('Ctrl Pts',(-20.0977194022979,11.184463583133,6.77035755600764));
#543=CARTESIAN_POINT('Ctrl Pts',(-20.2669476209018,10.8771500303005,6.54255897682138));
#544=CARTESIAN_POINT('Ctrl Pts',(-20.408305270345,10.6112415023981,6.44560293136181));
#545=CARTESIAN_POINT('Ctrl Pts',(-20.6886671540087,10.0536770203524,6.32269111168125));
#546=CARTESIAN_POINT('Ctrl Pts',(-20.8279145380603,9.76142861700447,6.3));
#547=CARTESIAN_POINT('Ctrl Pts',(-20.95,9.49197029072468,6.3));
#548=CARTESIAN_POINT('',(-20.95,5.72270696436572,6.3));
#549=CARTESIAN_POINT('Origin',(-19.95,11.4454139287315,6.3));
#550=CARTESIAN_POINT('',(-19.95,-11.4454139287315,11.9));
#551=CARTESIAN_POINT('',(-19.95,-11.4454139287315,6.3));
#552=CARTESIAN_POINT('',(-19.95,11.4454139287315,11.9));
#553=CARTESIAN_POINT('',(-19.95,16.85,11.9));
#554=CARTESIAN_POINT('',(-19.95,11.4454139287315,6.3));
#555=CARTESIAN_POINT('Origin',(20.95,-5.72270696436572,7.3));
#556=CARTESIAN_POINT('',(20.95,9.49197029072468,6.3));
#557=CARTESIAN_POINT('',(19.95,11.4454139287315,7.3));
#558=CARTESIAN_POINT('Ctrl Pts',(20.95,9.49197029072467,6.3));
#559=CARTESIAN_POINT('Ctrl Pts',(20.8279145380603,9.76142861700447,6.3));
#560=CARTESIAN_POINT('Ctrl Pts',(20.6886671540087,10.0536770203524,6.32269111168125));
#561=CARTESIAN_POINT('Ctrl Pts',(20.408305270345,10.6112415023981,6.44560293136181));
#562=CARTESIAN_POINT('Ctrl Pts',(20.2669476209018,10.8771500303005,6.54255897682138));
#563=CARTESIAN_POINT('Ctrl Pts',(20.0977194022979,11.184463583133,6.77035755600764));
#564=CARTESIAN_POINT('Ctrl Pts',(20.0472733073228,11.2744165135608,6.85637745130515));
#565=CARTESIAN_POINT('Ctrl Pts',(19.9917601728888,11.3723759046483,7.00895759794273));
#566=CARTESIAN_POINT('Ctrl Pts',(19.9765576123696,11.3990165201359,7.06372141874451));
#567=CARTESIAN_POINT('Ctrl Pts',(19.9556806392268,11.4355263584039,7.17862830613277));
#568=CARTESIAN_POINT('Ctrl Pts',(19.95,11.4454139287315,7.23876441086867));
#569=CARTESIAN_POINT('Ctrl Pts',(19.95,11.4454139287315,7.3));
#570=CARTESIAN_POINT('',(19.95,-11.4454139287315,7.3));
#571=CARTESIAN_POINT('',(19.95,-5.72270696436572,7.3));
#572=CARTESIAN_POINT('',(20.95,-9.49197029072467,6.3));
#573=CARTESIAN_POINT('Ctrl Pts',(19.95,-11.4454139287314,7.3));
#574=CARTESIAN_POINT('Ctrl Pts',(19.95,-11.4454139287314,7.23876441086867));
#575=CARTESIAN_POINT('Ctrl Pts',(19.9556806392268,-11.4355263584039,7.17862830613277));
#576=CARTESIAN_POINT('Ctrl Pts',(19.9765576123696,-11.3990165201359,7.06372141874451));
#577=CARTESIAN_POINT('Ctrl Pts',(19.9917601728888,-11.3723759046483,7.00895759794272));
#578=CARTESIAN_POINT('Ctrl Pts',(20.0472733073229,-11.2744165135607,6.85637745130515));
#579=CARTESIAN_POINT('Ctrl Pts',(20.0977194022979,-11.184463583133,6.77035755600764));
#580=CARTESIAN_POINT('Ctrl Pts',(20.2669476209018,-10.8771500303005,6.54255897682138));
#581=CARTESIAN_POINT('Ctrl Pts',(20.408305270345,-10.6112415023981,6.44560293136181));
#582=CARTESIAN_POINT('Ctrl Pts',(20.6886671540087,-10.0536770203524,6.32269111168125));
#583=CARTESIAN_POINT('Ctrl Pts',(20.8279145380603,-9.76142861700446,6.3));
#584=CARTESIAN_POINT('Ctrl Pts',(20.95,-9.49197029072467,6.3));
#585=CARTESIAN_POINT('',(20.95,-5.72270696436572,6.3));
#586=CARTESIAN_POINT('Origin',(19.95,-11.4454139287315,6.3));
#587=CARTESIAN_POINT('',(19.95,11.4454139287315,11.9));
#588=CARTESIAN_POINT('',(19.95,11.4454139287315,6.3));
#589=CARTESIAN_POINT('',(19.95,-11.4454139287314,11.9));
#590=CARTESIAN_POINT('',(19.95,-13.85,11.9));
#591=CARTESIAN_POINT('',(19.95,-11.4454139287315,6.3));
#592=CARTESIAN_POINT('Origin',(7.82747564672034,17.85,7.3));
#593=CARTESIAN_POINT('',(-14.5043958853859,17.85,6.3));
#594=CARTESIAN_POINT('',(-15.6549512934407,16.85,7.3));
#595=CARTESIAN_POINT('Ctrl Pts',(-14.5043958853859,17.85,6.3));
#596=CARTESIAN_POINT('Ctrl Pts',(-14.6584017770972,17.7248592480637,6.3));
#597=CARTESIAN_POINT('Ctrl Pts',(-14.8241386748489,17.586550149357,6.32447381087536));
#598=CARTESIAN_POINT('Ctrl Pts',(-15.1345539962213,17.3201359356951,6.43959235797766));
#599=CARTESIAN_POINT('Ctrl Pts',(-15.279350171631,17.1920255891625,6.52990720465205));
#600=CARTESIAN_POINT('Ctrl Pts',(-15.4669109880531,17.0230431923492,6.72892538647623));
#601=CARTESIAN_POINT('Ctrl Pts',(-15.53490776684,16.9608589646397,6.82688265704463));
#602=CARTESIAN_POINT('Ctrl Pts',(-15.6290572081679,16.8741419521105,7.05077502834409));
#603=CARTESIAN_POINT('Ctrl Pts',(-15.6549512934407,16.85,7.17696991896501));
#604=CARTESIAN_POINT('Ctrl Pts',(-15.6549512934407,16.85,7.3));
#605=CARTESIAN_POINT('',(15.6549512934407,16.85,7.3));
#606=CARTESIAN_POINT('',(7.82747564672034,16.85,7.3));
#607=CARTESIAN_POINT('',(14.5043958853859,17.85,6.3));
#608=CARTESIAN_POINT('Ctrl Pts',(15.6549512934407,16.85,7.3));
#609=CARTESIAN_POINT('Ctrl Pts',(15.6549512934407,16.85,7.17696991896501));
#610=CARTESIAN_POINT('Ctrl Pts',(15.6290572081679,16.8741419521105,7.05077502834409));
#611=CARTESIAN_POINT('Ctrl Pts',(15.53490776684,16.9608589646397,6.82688265704463));
#612=CARTESIAN_POINT('Ctrl Pts',(15.4669109880531,17.0230431923492,6.72892538647623));
#613=CARTESIAN_POINT('Ctrl Pts',(15.279350171631,17.1920255891625,6.52990720465205));
#614=CARTESIAN_POINT('Ctrl Pts',(15.1345539962213,17.3201359356951,6.43959235797766));
#615=CARTESIAN_POINT('Ctrl Pts',(14.8241386748489,17.586550149357,6.32447381087536));
#616=CARTESIAN_POINT('Ctrl Pts',(14.6584017770972,17.7248592480637,6.3));
#617=CARTESIAN_POINT('Ctrl Pts',(14.5043958853859,17.85,6.3));
#618=CARTESIAN_POINT('',(7.82747564672034,17.85,6.3));
#619=CARTESIAN_POINT('Origin',(15.6549512934407,16.85,6.3));
#620=CARTESIAN_POINT('',(-15.6549512934407,16.85,11.9));
#621=CARTESIAN_POINT('',(-15.6549512934407,16.85,6.3));
#622=CARTESIAN_POINT('',(15.6549512934407,16.85,11.9));
#623=CARTESIAN_POINT('',(19.95,16.85,11.9));
#624=CARTESIAN_POINT('',(15.6549512934407,16.85,6.3));
#625=CARTESIAN_POINT('Origin',(0.,0.,6.3));
#626=CARTESIAN_POINT('',(-13.1,1.60428730688303E-15,6.3));
#627=CARTESIAN_POINT('Origin',(0.,0.,6.3));
#628=CARTESIAN_POINT('',(-13.1,-1.60428730688303E-15,0.));
#629=CARTESIAN_POINT('',(-13.1,1.60428730688303E-15,6.3));
#630=CARTESIAN_POINT('Origin',(0.,0.,0.));
#631=CARTESIAN_POINT('Origin',(-16.85,13.85,6.3));
#632=CARTESIAN_POINT('',(16.85,13.85,6.3));
#633=CARTESIAN_POINT('',(-16.85,13.85,6.3));
#634=CARTESIAN_POINT('',(-8.425,13.85,6.3));
#635=CARTESIAN_POINT('',(16.85,13.85,11.9));
#636=CARTESIAN_POINT('',(16.85,13.85,6.3));
#637=CARTESIAN_POINT('',(-16.85,13.85,11.9));
#638=CARTESIAN_POINT('',(-16.85,13.85,11.9));
#639=CARTESIAN_POINT('',(-16.85,13.85,6.3));
#640=CARTESIAN_POINT('Origin',(-16.85,-13.85,6.3));
#641=CARTESIAN_POINT('',(-16.85,-13.85,6.3));
#642=CARTESIAN_POINT('',(-16.85,-6.925,6.3));
#643=CARTESIAN_POINT('',(-16.85,-13.85,11.9));
#644=CARTESIAN_POINT('',(-16.85,-13.85,11.9));
#645=CARTESIAN_POINT('',(-16.85,-13.85,6.3));
#646=CARTESIAN_POINT('Origin',(-18.3623936348179,-13.85,6.3));
#647=CARTESIAN_POINT('',(-18.3623936348179,-13.85,6.3));
#648=CARTESIAN_POINT('',(-9.18119681740894,-13.85,6.3));
#649=CARTESIAN_POINT('',(-18.3623936348179,-13.85,11.9));
#650=CARTESIAN_POINT('',(-19.95,-13.85,11.9));
#651=CARTESIAN_POINT('',(-18.3623936348179,-13.85,6.3));
#652=CARTESIAN_POINT('Origin',(16.85,-13.85,6.3));
#653=CARTESIAN_POINT('',(18.3623936348179,-13.85,6.3));
#654=CARTESIAN_POINT('',(16.85,-13.85,6.3));
#655=CARTESIAN_POINT('',(8.425,-13.85,6.3));
#656=CARTESIAN_POINT('',(18.3623936348179,-13.85,11.9));
#657=CARTESIAN_POINT('',(18.3623936348179,-13.85,6.3));
#658=CARTESIAN_POINT('',(16.85,-13.85,11.9));
#659=CARTESIAN_POINT('',(-19.95,-13.85,11.9));
#660=CARTESIAN_POINT('',(16.85,-13.85,6.3));
#661=CARTESIAN_POINT('Origin',(16.85,13.85,6.3));
#662=CARTESIAN_POINT('',(16.85,6.92499999999999,6.3));
#663=CARTESIAN_POINT('',(16.85,13.85,11.9));
#664=CARTESIAN_POINT('Origin',(1.11022302462516E-15,1.5,11.9));
#665=CARTESIAN_POINT('Origin',(0.,0.,11.9));
#666=CARTESIAN_POINT('Origin',(0.,0.,11.9));
#667=CARTESIAN_POINT('Origin',(0.,0.,11.9));
#668=CARTESIAN_POINT('Origin',(0.,0.,11.9));
#669=CARTESIAN_POINT('Origin',(0.,0.,6.3));
#670=CARTESIAN_POINT('Origin',(0.,0.,6.3));
#671=CARTESIAN_POINT('Origin',(0.,0.,6.3));
#672=CARTESIAN_POINT('Origin',(0.,0.,6.3));
#673=CARTESIAN_POINT('Origin',(0.,0.,6.3));
#674=CARTESIAN_POINT('',(-23.,-2.81668763803891E-15,6.3));
#675=CARTESIAN_POINT('Origin',(0.,0.,6.3));
#676=CARTESIAN_POINT('Origin',(0.,0.,6.3));
#677=CARTESIAN_POINT('Origin',(0.,0.,6.3));
#678=CARTESIAN_POINT('Origin',(0.,0.,6.3));
#679=CARTESIAN_POINT('Origin',(0.,0.,0.));
#680=CARTESIAN_POINT('',(-23.,-2.81668763803891E-15,0.));
#681=CARTESIAN_POINT('',(-23.,-2.81668763803891E-15,0.));
#682=CARTESIAN_POINT('Origin',(0.,0.,0.));
#683=CARTESIAN_POINT('Origin',(0.,0.,0.));
#684=UNCERTAINTY_MEASURE_WITH_UNIT(LENGTH_MEASURE(0.01),#688,
'DISTANCE_ACCURACY_VALUE',
'Maximum model space distance between geometric entities at asserted c
onnectivities');
#685=UNCERTAINTY_MEASURE_WITH_UNIT(LENGTH_MEASURE(0.01),#688,
'DISTANCE_ACCURACY_VALUE',
'Maximum model space distance between geometric entities at asserted c
onnectivities');
#686=(
GEOMETRIC_REPRESENTATION_CONTEXT(3)
GLOBAL_UNCERTAINTY_ASSIGNED_CONTEXT((#684))
GLOBAL_UNIT_ASSIGNED_CONTEXT((#688,#690,#691))
REPRESENTATION_CONTEXT('','3D')
);
#687=(
GEOMETRIC_REPRESENTATION_CONTEXT(3)
GLOBAL_UNCERTAINTY_ASSIGNED_CONTEXT((#685))
GLOBAL_UNIT_ASSIGNED_CONTEXT((#688,#690,#691))
REPRESENTATION_CONTEXT('','3D')
);
#688=(
LENGTH_UNIT()
NAMED_UNIT(*)
SI_UNIT(.MILLI.,.METRE.)
);
#689=(
LENGTH_UNIT()
NAMED_UNIT(*)
SI_UNIT(.CENTI.,.METRE.)
);
#690=(
NAMED_UNIT(*)
PLANE_ANGLE_UNIT()
SI_UNIT($,.RADIAN.)
);
#691=(
NAMED_UNIT(*)
SI_UNIT($,.STERADIAN.)
SOLID_ANGLE_UNIT()
);
#692=SHAPE_DEFINITION_REPRESENTATION(#693,#694);
#693=PRODUCT_DEFINITION_SHAPE('',$,#696);
#694=SHAPE_REPRESENTATION('',(#388),#686);
#695=PRODUCT_DEFINITION_CONTEXT('part definition',#700,'design');
#696=PRODUCT_DEFINITION('connectpart2','connectpart2',#697,#695);
#697=PRODUCT_DEFINITION_FORMATION('',$,#702);
#698=PRODUCT_RELATED_PRODUCT_CATEGORY('connectpart2','connectpart2',(#702));
#699=APPLICATION_PROTOCOL_DEFINITION('international standard',
'automotive_design',2009,#700);
#700=APPLICATION_CONTEXT(
'Core Data for Automotive Mechanical Design Process');
#701=PRODUCT_CONTEXT('part definition',#700,'mechanical');
#702=PRODUCT('connectpart2','connectpart2',$,(#701));
#703=PRESENTATION_STYLE_ASSIGNMENT((#704));
#704=SURFACE_STYLE_USAGE(.BOTH.,#707);
#705=SURFACE_STYLE_RENDERING_WITH_PROPERTIES($,#711,(#706));
#706=SURFACE_STYLE_TRANSPARENT(0.);
#707=SURFACE_SIDE_STYLE('',(#708,#705));
#708=SURFACE_STYLE_FILL_AREA(#709);
#709=FILL_AREA_STYLE('',(#710));
#710=FILL_AREA_STYLE_COLOUR('',#711);
#711=COLOUR_RGB('',0.0196078431372549,0.0196078431372549,0.0196078431372549);
ENDSEC;
END-ISO-10303-21;
