ISO-10303-21;
HEADER;
/* Generated by software containing ST-Developer
 * from STEP Tools, Inc. (www.steptools.com) 
 */

FILE_DESCRIPTION(
/* description */ (''),
/* implementation_level */ '2;1');

FILE_NAME(
/* name */ 'connectpart1.stp',
/* time_stamp */ '2026-05-04T17:28:15+09:00',
/* author */ ('kshau'),
/* organization */ (''),
/* preprocessor_version */ 'ST-DEVELOPER v20',
/* originating_system */ 'Autodesk Inventor 2024',
/* authorisation */ '');

FILE_SCHEMA (('AUTOMOTIVE_DESIGN { 1 0 10303 214 3 1 1 }'));
ENDSEC;

DATA;
#10=MECHANICAL_DESIGN_GEOMETRIC_PRESENTATION_REPRESENTATION('',(#13),#1522);
#11=SHAPE_REPRESENTATION_RELATIONSHIP('SRR','None',#1529,#12);
#12=ADVANCED_BREP_SHAPE_REPRESENTATION('',(#14),#1521);
#13=STYLED_ITEM('',(#1538),#14);
#14=MANIFOLD_SOLID_BREP('\X2\30BD30EA30C330C9\X0\1',#885);
#15=FACE_BOUND('',#164,.T.);
#16=FACE_BOUND('',#165,.T.);
#17=FACE_BOUND('',#167,.T.);
#18=FACE_BOUND('',#175,.T.);
#19=FACE_BOUND('',#178,.T.);
#20=FACE_BOUND('',#182,.T.);
#21=FACE_BOUND('',#186,.T.);
#22=FACE_BOUND('',#190,.T.);
#23=FACE_BOUND('',#193,.T.);
#24=FACE_BOUND('',#202,.T.);
#25=FACE_BOUND('',#203,.T.);
#26=FACE_BOUND('',#205,.T.);
#27=FACE_BOUND('',#206,.T.);
#28=FACE_BOUND('',#209,.T.);
#29=FACE_BOUND('',#210,.T.);
#30=FACE_BOUND('',#220,.T.);
#31=FACE_BOUND('',#221,.T.);
#32=FACE_BOUND('',#224,.T.);
#33=FACE_BOUND('',#225,.T.);
#34=FACE_BOUND('',#226,.T.);
#35=FACE_BOUND('',#227,.T.);
#36=FACE_BOUND('',#228,.T.);
#37=FACE_BOUND('',#229,.T.);
#38=CIRCLE('',#918,1.65);
#39=CIRCLE('',#919,1.65);
#40=CIRCLE('',#921,15.3335);
#41=CIRCLE('',#922,15.3335);
#42=CIRCLE('',#924,1.65);
#43=CIRCLE('',#925,1.65);
#44=CIRCLE('',#927,1.65);
#45=CIRCLE('',#929,1.65);
#46=CIRCLE('',#930,1.65);
#47=CIRCLE('',#932,1.65);
#48=CIRCLE('',#934,2.45);
#49=CIRCLE('',#935,2.45);
#50=CIRCLE('',#937,2.45);
#51=CIRCLE('',#938,2.45);
#52=CIRCLE('',#940,1.35);
#53=CIRCLE('',#942,2.45);
#54=CIRCLE('',#943,2.45);
#55=CIRCLE('',#945,1.35);
#56=CIRCLE('',#947,2.45);
#57=CIRCLE('',#949,2.45);
#58=CIRCLE('',#950,2.45);
#59=CIRCLE('',#951,2.45);
#60=CIRCLE('',#953,1.35);
#61=CIRCLE('',#955,2.45);
#62=CIRCLE('',#957,2.45);
#63=CIRCLE('',#958,2.45);
#64=CIRCLE('',#959,2.45);
#65=CIRCLE('',#961,1.35);
#66=CIRCLE('',#963,2.45);
#67=CIRCLE('',#964,2.45);
#68=CIRCLE('',#966,2.45);
#69=CIRCLE('',#967,2.45);
#70=CIRCLE('',#969,1.35);
#71=CIRCLE('',#971,2.45);
#72=CIRCLE('',#972,2.45);
#73=CIRCLE('',#974,1.35);
#74=CIRCLE('',#976,1.35);
#75=CIRCLE('',#978,1.35);
#76=CIRCLE('',#980,1.35);
#77=CIRCLE('',#982,1.35);
#78=CIRCLE('',#984,1.35);
#79=CIRCLE('',#986,1.35);
#80=CIRCLE('',#1000,15.3335);
#81=CIRCLE('',#1003,15.3335);
#82=PLANE('',#916);
#83=PLANE('',#917);
#84=PLANE('',#920);
#85=PLANE('',#933);
#86=PLANE('',#939);
#87=PLANE('',#944);
#88=PLANE('',#946);
#89=PLANE('',#952);
#90=PLANE('',#954);
#91=PLANE('',#960);
#92=PLANE('',#962);
#93=PLANE('',#968);
#94=PLANE('',#973);
#95=PLANE('',#987);
#96=PLANE('',#988);
#97=PLANE('',#989);
#98=PLANE('',#990);
#99=PLANE('',#991);
#100=PLANE('',#992);
#101=PLANE('',#993);
#102=PLANE('',#994);
#103=PLANE('',#995);
#104=PLANE('',#996);
#105=PLANE('',#997);
#106=PLANE('',#998);
#107=PLANE('',#1001);
#108=PLANE('',#1004);
#109=FACE_OUTER_BOUND('',#158,.T.);
#110=FACE_OUTER_BOUND('',#159,.T.);
#111=FACE_OUTER_BOUND('',#160,.T.);
#112=FACE_OUTER_BOUND('',#161,.T.);
#113=FACE_OUTER_BOUND('',#162,.T.);
#114=FACE_OUTER_BOUND('',#163,.T.);
#115=FACE_OUTER_BOUND('',#166,.T.);
#116=FACE_OUTER_BOUND('',#168,.T.);
#117=FACE_OUTER_BOUND('',#169,.T.);
#118=FACE_OUTER_BOUND('',#170,.T.);
#119=FACE_OUTER_BOUND('',#171,.T.);
#120=FACE_OUTER_BOUND('',#172,.T.);
#121=FACE_OUTER_BOUND('',#173,.T.);
#122=FACE_OUTER_BOUND('',#174,.T.);
#123=FACE_OUTER_BOUND('',#176,.T.);
#124=FACE_OUTER_BOUND('',#177,.T.);
#125=FACE_OUTER_BOUND('',#179,.T.);
#126=FACE_OUTER_BOUND('',#180,.T.);
#127=FACE_OUTER_BOUND('',#181,.T.);
#128=FACE_OUTER_BOUND('',#183,.T.);
#129=FACE_OUTER_BOUND('',#184,.T.);
#130=FACE_OUTER_BOUND('',#185,.T.);
#131=FACE_OUTER_BOUND('',#187,.T.);
#132=FACE_OUTER_BOUND('',#188,.T.);
#133=FACE_OUTER_BOUND('',#189,.T.);
#134=FACE_OUTER_BOUND('',#191,.T.);
#135=FACE_OUTER_BOUND('',#192,.T.);
#136=FACE_OUTER_BOUND('',#194,.T.);
#137=FACE_OUTER_BOUND('',#195,.T.);
#138=FACE_OUTER_BOUND('',#196,.T.);
#139=FACE_OUTER_BOUND('',#197,.T.);
#140=FACE_OUTER_BOUND('',#198,.T.);
#141=FACE_OUTER_BOUND('',#199,.T.);
#142=FACE_OUTER_BOUND('',#200,.T.);
#143=FACE_OUTER_BOUND('',#201,.T.);
#144=FACE_OUTER_BOUND('',#204,.T.);
#145=FACE_OUTER_BOUND('',#207,.T.);
#146=FACE_OUTER_BOUND('',#208,.T.);
#147=FACE_OUTER_BOUND('',#211,.T.);
#148=FACE_OUTER_BOUND('',#212,.T.);
#149=FACE_OUTER_BOUND('',#213,.T.);
#150=FACE_OUTER_BOUND('',#214,.T.);
#151=FACE_OUTER_BOUND('',#215,.T.);
#152=FACE_OUTER_BOUND('',#216,.T.);
#153=FACE_OUTER_BOUND('',#217,.T.);
#154=FACE_OUTER_BOUND('',#218,.T.);
#155=FACE_OUTER_BOUND('',#219,.T.);
#156=FACE_OUTER_BOUND('',#222,.T.);
#157=FACE_OUTER_BOUND('',#223,.T.);
#158=EDGE_LOOP('',(#574,#575,#576,#577));
#159=EDGE_LOOP('',(#578,#579,#580,#581));
#160=EDGE_LOOP('',(#582,#583,#584,#585));
#161=EDGE_LOOP('',(#586,#587,#588,#589));
#162=EDGE_LOOP('',(#590,#591,#592,#593,#594,#595,#596,#597));
#163=EDGE_LOOP('',(#598,#599,#600,#601));
#164=EDGE_LOOP('',(#602));
#165=EDGE_LOOP('',(#603));
#166=EDGE_LOOP('',(#604,#605,#606,#607,#608,#609,#610,#611,#612,#613,#614,
#615));
#167=EDGE_LOOP('',(#616,#617,#618,#619));
#168=EDGE_LOOP('',(#620,#621,#622,#623));
#169=EDGE_LOOP('',(#624,#625,#626,#627));
#170=EDGE_LOOP('',(#628,#629,#630,#631));
#171=EDGE_LOOP('',(#632,#633,#634,#635));
#172=EDGE_LOOP('',(#636,#637,#638));
#173=EDGE_LOOP('',(#639,#640,#641,#642,#643,#644));
#174=EDGE_LOOP('',(#645));
#175=EDGE_LOOP('',(#646));
#176=EDGE_LOOP('',(#647,#648,#649,#650));
#177=EDGE_LOOP('',(#651));
#178=EDGE_LOOP('',(#652));
#179=EDGE_LOOP('',(#653,#654));
#180=EDGE_LOOP('',(#655,#656,#657,#658,#659,#660));
#181=EDGE_LOOP('',(#661));
#182=EDGE_LOOP('',(#662));
#183=EDGE_LOOP('',(#663,#664));
#184=EDGE_LOOP('',(#665,#666,#667,#668,#669,#670));
#185=EDGE_LOOP('',(#671));
#186=EDGE_LOOP('',(#672));
#187=EDGE_LOOP('',(#673,#674,#675));
#188=EDGE_LOOP('',(#676,#677,#678,#679,#680,#681));
#189=EDGE_LOOP('',(#682));
#190=EDGE_LOOP('',(#683));
#191=EDGE_LOOP('',(#684,#685,#686,#687));
#192=EDGE_LOOP('',(#688));
#193=EDGE_LOOP('',(#689));
#194=EDGE_LOOP('',(#690,#691,#692,#693));
#195=EDGE_LOOP('',(#694,#695,#696,#697));
#196=EDGE_LOOP('',(#698,#699,#700,#701));
#197=EDGE_LOOP('',(#702,#703,#704,#705));
#198=EDGE_LOOP('',(#706,#707,#708,#709));
#199=EDGE_LOOP('',(#710,#711,#712,#713));
#200=EDGE_LOOP('',(#714,#715,#716,#717,#718,#719,#720,#721));
#201=EDGE_LOOP('',(#722,#723,#724,#725));
#202=EDGE_LOOP('',(#726));
#203=EDGE_LOOP('',(#727));
#204=EDGE_LOOP('',(#728,#729,#730,#731,#732,#733,#734,#735,#736,#737,#738,
#739,#740,#741));
#205=EDGE_LOOP('',(#742));
#206=EDGE_LOOP('',(#743));
#207=EDGE_LOOP('',(#744,#745,#746,#747));
#208=EDGE_LOOP('',(#748,#749,#750,#751));
#209=EDGE_LOOP('',(#752));
#210=EDGE_LOOP('',(#753));
#211=EDGE_LOOP('',(#754,#755,#756,#757));
#212=EDGE_LOOP('',(#758,#759,#760,#761));
#213=EDGE_LOOP('',(#762,#763,#764,#765));
#214=EDGE_LOOP('',(#766,#767,#768,#769));
#215=EDGE_LOOP('',(#770,#771,#772,#773));
#216=EDGE_LOOP('',(#774,#775,#776,#777));
#217=EDGE_LOOP('',(#778,#779,#780,#781));
#218=EDGE_LOOP('',(#782,#783,#784,#785));
#219=EDGE_LOOP('',(#786,#787,#788,#789));
#220=EDGE_LOOP('',(#790));
#221=EDGE_LOOP('',(#791));
#222=EDGE_LOOP('',(#792,#793,#794,#795));
#223=EDGE_LOOP('',(#796,#797,#798,#799,#800,#801,#802,#803,#804,#805,#806,
#807));
#224=EDGE_LOOP('',(#808));
#225=EDGE_LOOP('',(#809));
#226=EDGE_LOOP('',(#810));
#227=EDGE_LOOP('',(#811));
#228=EDGE_LOOP('',(#812));
#229=EDGE_LOOP('',(#813));
#230=ELLIPSE('',#909,0.707106781186545,0.5);
#231=ELLIPSE('',#910,0.707106781186542,0.5);
#232=ELLIPSE('',#912,0.707106781186548,0.5);
#233=ELLIPSE('',#914,0.707106781186542,0.5);
#234=LINE('',#1277,#306);
#235=LINE('',#1281,#307);
#236=LINE('',#1285,#308);
#237=LINE('',#1288,#309);
#238=LINE('',#1291,#310);
#239=LINE('',#1294,#311);
#240=LINE('',#1296,#312);
#241=LINE('',#1297,#313);
#242=LINE('',#1300,#314);
#243=LINE('',#1302,#315);
#244=LINE('',#1304,#316);
#245=LINE('',#1306,#317);
#246=LINE('',#1308,#318);
#247=LINE('',#1310,#319);
#248=LINE('',#1311,#320);
#249=LINE('',#1314,#321);
#250=LINE('',#1315,#322);
#251=LINE('',#1323,#323);
#252=LINE('',#1325,#324);
#253=LINE('',#1329,#325);
#254=LINE('',#1331,#326);
#255=LINE('',#1333,#327);
#256=LINE('',#1335,#328);
#257=LINE('',#1337,#329);
#258=LINE('',#1341,#330);
#259=LINE('',#1343,#331);
#260=LINE('',#1344,#332);
#261=LINE('',#1349,#333);
#262=LINE('',#1354,#334);
#263=LINE('',#1359,#335);
#264=LINE('',#1364,#336);
#265=LINE('',#1372,#337);
#266=LINE('',#1381,#338);
#267=LINE('',#1389,#339);
#268=LINE('',#1395,#340);
#269=LINE('',#1404,#341);
#270=LINE('',#1410,#342);
#271=LINE('',#1423,#343);
#272=LINE('',#1432,#344);
#273=LINE('',#1440,#345);
#274=LINE('',#1444,#346);
#275=LINE('',#1448,#347);
#276=LINE('',#1452,#348);
#277=LINE('',#1456,#349);
#278=LINE('',#1460,#350);
#279=LINE('',#1463,#351);
#280=LINE('',#1464,#352);
#281=LINE('',#1465,#353);
#282=LINE('',#1466,#354);
#283=LINE('',#1468,#355);
#284=LINE('',#1473,#356);
#285=LINE('',#1474,#357);
#286=LINE('',#1475,#358);
#287=LINE('',#1478,#359);
#288=LINE('',#1479,#360);
#289=LINE('',#1482,#361);
#290=LINE('',#1483,#362);
#291=LINE('',#1486,#363);
#292=LINE('',#1487,#364);
#293=LINE('',#1491,#365);
#294=LINE('',#1492,#366);
#295=LINE('',#1493,#367);
#296=LINE('',#1496,#368);
#297=LINE('',#1497,#369);
#298=LINE('',#1501,#370);
#299=LINE('',#1502,#371);
#300=LINE('',#1503,#372);
#301=LINE('',#1506,#373);
#302=LINE('',#1507,#374);
#303=LINE('',#1510,#375);
#304=LINE('',#1511,#376);
#305=LINE('',#1515,#377);
#306=VECTOR('',#1009,10.);
#307=VECTOR('',#1012,10.);
#308=VECTOR('',#1017,10.);
#309=VECTOR('',#1020,10.);
#310=VECTOR('',#1023,10.);
#311=VECTOR('',#1026,10.);
#312=VECTOR('',#1029,10.);
#313=VECTOR('',#1030,10.);
#314=VECTOR('',#1033,10.);
#315=VECTOR('',#1034,10.);
#316=VECTOR('',#1035,10.);
#317=VECTOR('',#1036,10.);
#318=VECTOR('',#1037,10.);
#319=VECTOR('',#1038,10.);
#320=VECTOR('',#1039,10.);
#321=VECTOR('',#1042,10.);
#322=VECTOR('',#1043,10.);
#323=VECTOR('',#1050,10.);
#324=VECTOR('',#1051,10.);
#325=VECTOR('',#1054,10.);
#326=VECTOR('',#1055,10.);
#327=VECTOR('',#1056,10.);
#328=VECTOR('',#1057,10.);
#329=VECTOR('',#1058,10.);
#330=VECTOR('',#1061,10.);
#331=VECTOR('',#1062,10.);
#332=VECTOR('',#1063,10.);
#333=VECTOR('',#1068,1.65);
#334=VECTOR('',#1075,1.65);
#335=VECTOR('',#1080,1.65);
#336=VECTOR('',#1087,1.65);
#337=VECTOR('',#1098,2.45);
#338=VECTOR('',#1109,2.45);
#339=VECTOR('',#1118,10.);
#340=VECTOR('',#1125,2.45);
#341=VECTOR('',#1136,10.);
#342=VECTOR('',#1143,2.45);
#343=VECTOR('',#1162,2.45);
#344=VECTOR('',#1173,2.45);
#345=VECTOR('',#1184,1.35);
#346=VECTOR('',#1189,1.35);
#347=VECTOR('',#1194,1.35);
#348=VECTOR('',#1199,1.35);
#349=VECTOR('',#1204,1.35);
#350=VECTOR('',#1209,1.35);
#351=VECTOR('',#1212,10.);
#352=VECTOR('',#1213,10.);
#353=VECTOR('',#1214,10.);
#354=VECTOR('',#1215,10.);
#355=VECTOR('',#1218,10.);
#356=VECTOR('',#1223,10.);
#357=VECTOR('',#1224,10.);
#358=VECTOR('',#1225,10.);
#359=VECTOR('',#1228,10.);
#360=VECTOR('',#1229,10.);
#361=VECTOR('',#1232,10.);
#362=VECTOR('',#1233,10.);
#363=VECTOR('',#1236,10.);
#364=VECTOR('',#1237,10.);
#365=VECTOR('',#1240,10.);
#366=VECTOR('',#1241,10.);
#367=VECTOR('',#1242,10.);
#368=VECTOR('',#1245,10.);
#369=VECTOR('',#1246,10.);
#370=VECTOR('',#1249,10.);
#371=VECTOR('',#1250,10.);
#372=VECTOR('',#1251,10.);
#373=VECTOR('',#1254,10.);
#374=VECTOR('',#1255,10.);
#375=VECTOR('',#1258,10.);
#376=VECTOR('',#1259,10.);
#377=VECTOR('',#1266,10.);
#378=VERTEX_POINT('',#1275);
#379=VERTEX_POINT('',#1276);
#380=VERTEX_POINT('',#1278);
#381=VERTEX_POINT('',#1280);
#382=VERTEX_POINT('',#1284);
#383=VERTEX_POINT('',#1286);
#384=VERTEX_POINT('',#1290);
#385=VERTEX_POINT('',#1292);
#386=VERTEX_POINT('',#1299);
#387=VERTEX_POINT('',#1301);
#388=VERTEX_POINT('',#1303);
#389=VERTEX_POINT('',#1305);
#390=VERTEX_POINT('',#1307);
#391=VERTEX_POINT('',#1309);
#392=VERTEX_POINT('',#1313);
#393=VERTEX_POINT('',#1316);
#394=VERTEX_POINT('',#1318);
#395=VERTEX_POINT('',#1321);
#396=VERTEX_POINT('',#1322);
#397=VERTEX_POINT('',#1324);
#398=VERTEX_POINT('',#1326);
#399=VERTEX_POINT('',#1328);
#400=VERTEX_POINT('',#1330);
#401=VERTEX_POINT('',#1332);
#402=VERTEX_POINT('',#1334);
#403=VERTEX_POINT('',#1336);
#404=VERTEX_POINT('',#1338);
#405=VERTEX_POINT('',#1340);
#406=VERTEX_POINT('',#1342);
#407=VERTEX_POINT('',#1346);
#408=VERTEX_POINT('',#1348);
#409=VERTEX_POINT('',#1352);
#410=VERTEX_POINT('',#1356);
#411=VERTEX_POINT('',#1358);
#412=VERTEX_POINT('',#1362);
#413=VERTEX_POINT('',#1366);
#414=VERTEX_POINT('',#1371);
#415=VERTEX_POINT('',#1375);
#416=VERTEX_POINT('',#1378);
#417=VERTEX_POINT('',#1380);
#418=VERTEX_POINT('',#1384);
#419=VERTEX_POINT('',#1387);
#420=VERTEX_POINT('',#1388);
#421=VERTEX_POINT('',#1392);
#422=VERTEX_POINT('',#1394);
#423=VERTEX_POINT('',#1399);
#424=VERTEX_POINT('',#1402);
#425=VERTEX_POINT('',#1403);
#426=VERTEX_POINT('',#1407);
#427=VERTEX_POINT('',#1409);
#428=VERTEX_POINT('',#1414);
#429=VERTEX_POINT('',#1417);
#430=VERTEX_POINT('',#1422);
#431=VERTEX_POINT('',#1426);
#432=VERTEX_POINT('',#1429);
#433=VERTEX_POINT('',#1431);
#434=VERTEX_POINT('',#1435);
#435=VERTEX_POINT('',#1438);
#436=VERTEX_POINT('',#1442);
#437=VERTEX_POINT('',#1446);
#438=VERTEX_POINT('',#1450);
#439=VERTEX_POINT('',#1454);
#440=VERTEX_POINT('',#1458);
#441=VERTEX_POINT('',#1462);
#442=VERTEX_POINT('',#1471);
#443=VERTEX_POINT('',#1472);
#444=VERTEX_POINT('',#1477);
#445=VERTEX_POINT('',#1481);
#446=VERTEX_POINT('',#1485);
#447=VERTEX_POINT('',#1489);
#448=VERTEX_POINT('',#1490);
#449=VERTEX_POINT('',#1495);
#450=VERTEX_POINT('',#1499);
#451=VERTEX_POINT('',#1500);
#452=VERTEX_POINT('',#1505);
#453=VERTEX_POINT('',#1509);
#454=EDGE_CURVE('',#378,#379,#234,.T.);
#455=EDGE_CURVE('',#379,#380,#230,.T.);
#456=EDGE_CURVE('',#380,#381,#235,.T.);
#457=EDGE_CURVE('',#381,#378,#231,.T.);
#458=EDGE_CURVE('',#379,#382,#236,.T.);
#459=EDGE_CURVE('',#382,#383,#232,.T.);
#460=EDGE_CURVE('',#383,#380,#237,.T.);
#461=EDGE_CURVE('',#382,#384,#238,.T.);
#462=EDGE_CURVE('',#384,#385,#233,.T.);
#463=EDGE_CURVE('',#385,#383,#239,.T.);
#464=EDGE_CURVE('',#381,#385,#240,.T.);
#465=EDGE_CURVE('',#384,#378,#241,.T.);
#466=EDGE_CURVE('',#381,#386,#242,.T.);
#467=EDGE_CURVE('',#386,#387,#243,.T.);
#468=EDGE_CURVE('',#387,#388,#244,.T.);
#469=EDGE_CURVE('',#388,#389,#245,.T.);
#470=EDGE_CURVE('',#389,#390,#246,.T.);
#471=EDGE_CURVE('',#390,#391,#247,.T.);
#472=EDGE_CURVE('',#385,#391,#248,.T.);
#473=EDGE_CURVE('',#380,#392,#249,.T.);
#474=EDGE_CURVE('',#392,#386,#250,.T.);
#475=EDGE_CURVE('',#393,#393,#38,.T.);
#476=EDGE_CURVE('',#394,#394,#39,.T.);
#477=EDGE_CURVE('',#395,#396,#251,.T.);
#478=EDGE_CURVE('',#395,#397,#252,.T.);
#479=EDGE_CURVE('',#397,#398,#40,.T.);
#480=EDGE_CURVE('',#398,#399,#253,.T.);
#481=EDGE_CURVE('',#400,#399,#254,.T.);
#482=EDGE_CURVE('',#400,#401,#255,.T.);
#483=EDGE_CURVE('',#402,#401,#256,.T.);
#484=EDGE_CURVE('',#402,#403,#257,.T.);
#485=EDGE_CURVE('',#403,#404,#41,.T.);
#486=EDGE_CURVE('',#404,#405,#258,.T.);
#487=EDGE_CURVE('',#406,#405,#259,.T.);
#488=EDGE_CURVE('',#406,#396,#260,.T.);
#489=EDGE_CURVE('',#407,#407,#42,.T.);
#490=EDGE_CURVE('',#407,#408,#261,.T.);
#491=EDGE_CURVE('',#408,#408,#43,.T.);
#492=EDGE_CURVE('',#409,#409,#44,.T.);
#493=EDGE_CURVE('',#409,#394,#262,.T.);
#494=EDGE_CURVE('',#410,#410,#45,.T.);
#495=EDGE_CURVE('',#410,#411,#263,.T.);
#496=EDGE_CURVE('',#411,#411,#46,.T.);
#497=EDGE_CURVE('',#412,#412,#47,.T.);
#498=EDGE_CURVE('',#412,#393,#264,.T.);
#499=EDGE_CURVE('',#387,#413,#48,.T.);
#500=EDGE_CURVE('',#413,#388,#49,.T.);
#501=EDGE_CURVE('',#388,#387,#50,.T.);
#502=EDGE_CURVE('',#413,#414,#265,.T.);
#503=EDGE_CURVE('',#414,#414,#51,.T.);
#504=EDGE_CURVE('',#415,#415,#52,.T.);
#505=EDGE_CURVE('',#416,#416,#53,.T.);
#506=EDGE_CURVE('',#416,#417,#266,.T.);
#507=EDGE_CURVE('',#417,#417,#54,.T.);
#508=EDGE_CURVE('',#418,#418,#55,.T.);
#509=EDGE_CURVE('',#419,#420,#267,.T.);
#510=EDGE_CURVE('',#419,#420,#56,.T.);
#511=EDGE_CURVE('',#421,#419,#57,.T.);
#512=EDGE_CURVE('',#421,#422,#268,.T.);
#513=EDGE_CURVE('',#422,#422,#58,.T.);
#514=EDGE_CURVE('',#420,#421,#59,.T.);
#515=EDGE_CURVE('',#423,#423,#60,.T.);
#516=EDGE_CURVE('',#424,#425,#269,.T.);
#517=EDGE_CURVE('',#424,#425,#61,.T.);
#518=EDGE_CURVE('',#426,#424,#62,.T.);
#519=EDGE_CURVE('',#426,#427,#270,.T.);
#520=EDGE_CURVE('',#427,#427,#63,.T.);
#521=EDGE_CURVE('',#425,#426,#64,.T.);
#522=EDGE_CURVE('',#428,#428,#65,.T.);
#523=EDGE_CURVE('',#389,#429,#66,.T.);
#524=EDGE_CURVE('',#429,#390,#67,.T.);
#525=EDGE_CURVE('',#390,#389,#68,.T.);
#526=EDGE_CURVE('',#429,#430,#271,.T.);
#527=EDGE_CURVE('',#430,#430,#69,.T.);
#528=EDGE_CURVE('',#431,#431,#70,.T.);
#529=EDGE_CURVE('',#432,#432,#71,.T.);
#530=EDGE_CURVE('',#432,#433,#272,.T.);
#531=EDGE_CURVE('',#433,#433,#72,.T.);
#532=EDGE_CURVE('',#434,#434,#73,.T.);
#533=EDGE_CURVE('',#435,#435,#74,.T.);
#534=EDGE_CURVE('',#435,#423,#273,.T.);
#535=EDGE_CURVE('',#436,#436,#75,.T.);
#536=EDGE_CURVE('',#436,#418,#274,.T.);
#537=EDGE_CURVE('',#437,#437,#76,.T.);
#538=EDGE_CURVE('',#437,#415,#275,.T.);
#539=EDGE_CURVE('',#438,#438,#77,.T.);
#540=EDGE_CURVE('',#438,#431,#276,.T.);
#541=EDGE_CURVE('',#439,#439,#78,.T.);
#542=EDGE_CURVE('',#439,#434,#277,.T.);
#543=EDGE_CURVE('',#440,#440,#79,.T.);
#544=EDGE_CURVE('',#440,#428,#278,.T.);
#545=EDGE_CURVE('',#383,#441,#279,.T.);
#546=EDGE_CURVE('',#441,#424,#280,.T.);
#547=EDGE_CURVE('',#425,#419,#281,.T.);
#548=EDGE_CURVE('',#420,#392,#282,.T.);
#549=EDGE_CURVE('',#391,#441,#283,.T.);
#550=EDGE_CURVE('',#442,#443,#284,.T.);
#551=EDGE_CURVE('',#443,#395,#285,.T.);
#552=EDGE_CURVE('',#396,#442,#286,.T.);
#553=EDGE_CURVE('',#444,#406,#287,.T.);
#554=EDGE_CURVE('',#442,#444,#288,.T.);
#555=EDGE_CURVE('',#445,#444,#289,.T.);
#556=EDGE_CURVE('',#405,#445,#290,.T.);
#557=EDGE_CURVE('',#404,#446,#291,.T.);
#558=EDGE_CURVE('',#445,#446,#292,.T.);
#559=EDGE_CURVE('',#447,#448,#293,.T.);
#560=EDGE_CURVE('',#448,#400,#294,.T.);
#561=EDGE_CURVE('',#399,#447,#295,.T.);
#562=EDGE_CURVE('',#398,#449,#296,.T.);
#563=EDGE_CURVE('',#447,#449,#297,.T.);
#564=EDGE_CURVE('',#450,#451,#298,.T.);
#565=EDGE_CURVE('',#451,#402,#299,.T.);
#566=EDGE_CURVE('',#401,#450,#300,.T.);
#567=EDGE_CURVE('',#452,#451,#301,.T.);
#568=EDGE_CURVE('',#403,#452,#302,.T.);
#569=EDGE_CURVE('',#453,#443,#303,.T.);
#570=EDGE_CURVE('',#397,#453,#304,.T.);
#571=EDGE_CURVE('',#449,#453,#80,.T.);
#572=EDGE_CURVE('',#450,#448,#305,.T.);
#573=EDGE_CURVE('',#446,#452,#81,.T.);
#574=ORIENTED_EDGE('',*,*,#454,.T.);
#575=ORIENTED_EDGE('',*,*,#455,.T.);
#576=ORIENTED_EDGE('',*,*,#456,.T.);
#577=ORIENTED_EDGE('',*,*,#457,.T.);
#578=ORIENTED_EDGE('',*,*,#458,.T.);
#579=ORIENTED_EDGE('',*,*,#459,.T.);
#580=ORIENTED_EDGE('',*,*,#460,.T.);
#581=ORIENTED_EDGE('',*,*,#455,.F.);
#582=ORIENTED_EDGE('',*,*,#461,.T.);
#583=ORIENTED_EDGE('',*,*,#462,.T.);
#584=ORIENTED_EDGE('',*,*,#463,.T.);
#585=ORIENTED_EDGE('',*,*,#459,.F.);
#586=ORIENTED_EDGE('',*,*,#464,.T.);
#587=ORIENTED_EDGE('',*,*,#462,.F.);
#588=ORIENTED_EDGE('',*,*,#465,.T.);
#589=ORIENTED_EDGE('',*,*,#457,.F.);
#590=ORIENTED_EDGE('',*,*,#464,.F.);
#591=ORIENTED_EDGE('',*,*,#466,.T.);
#592=ORIENTED_EDGE('',*,*,#467,.T.);
#593=ORIENTED_EDGE('',*,*,#468,.T.);
#594=ORIENTED_EDGE('',*,*,#469,.T.);
#595=ORIENTED_EDGE('',*,*,#470,.T.);
#596=ORIENTED_EDGE('',*,*,#471,.T.);
#597=ORIENTED_EDGE('',*,*,#472,.F.);
#598=ORIENTED_EDGE('',*,*,#456,.F.);
#599=ORIENTED_EDGE('',*,*,#473,.T.);
#600=ORIENTED_EDGE('',*,*,#474,.T.);
#601=ORIENTED_EDGE('',*,*,#466,.F.);
#602=ORIENTED_EDGE('',*,*,#475,.T.);
#603=ORIENTED_EDGE('',*,*,#476,.T.);
#604=ORIENTED_EDGE('',*,*,#477,.F.);
#605=ORIENTED_EDGE('',*,*,#478,.T.);
#606=ORIENTED_EDGE('',*,*,#479,.T.);
#607=ORIENTED_EDGE('',*,*,#480,.T.);
#608=ORIENTED_EDGE('',*,*,#481,.F.);
#609=ORIENTED_EDGE('',*,*,#482,.T.);
#610=ORIENTED_EDGE('',*,*,#483,.F.);
#611=ORIENTED_EDGE('',*,*,#484,.T.);
#612=ORIENTED_EDGE('',*,*,#485,.T.);
#613=ORIENTED_EDGE('',*,*,#486,.T.);
#614=ORIENTED_EDGE('',*,*,#487,.F.);
#615=ORIENTED_EDGE('',*,*,#488,.T.);
#616=ORIENTED_EDGE('',*,*,#454,.F.);
#617=ORIENTED_EDGE('',*,*,#465,.F.);
#618=ORIENTED_EDGE('',*,*,#461,.F.);
#619=ORIENTED_EDGE('',*,*,#458,.F.);
#620=ORIENTED_EDGE('',*,*,#489,.F.);
#621=ORIENTED_EDGE('',*,*,#490,.T.);
#622=ORIENTED_EDGE('',*,*,#491,.F.);
#623=ORIENTED_EDGE('',*,*,#490,.F.);
#624=ORIENTED_EDGE('',*,*,#492,.F.);
#625=ORIENTED_EDGE('',*,*,#493,.T.);
#626=ORIENTED_EDGE('',*,*,#476,.F.);
#627=ORIENTED_EDGE('',*,*,#493,.F.);
#628=ORIENTED_EDGE('',*,*,#494,.F.);
#629=ORIENTED_EDGE('',*,*,#495,.T.);
#630=ORIENTED_EDGE('',*,*,#496,.F.);
#631=ORIENTED_EDGE('',*,*,#495,.F.);
#632=ORIENTED_EDGE('',*,*,#497,.F.);
#633=ORIENTED_EDGE('',*,*,#498,.T.);
#634=ORIENTED_EDGE('',*,*,#475,.F.);
#635=ORIENTED_EDGE('',*,*,#498,.F.);
#636=ORIENTED_EDGE('',*,*,#468,.F.);
#637=ORIENTED_EDGE('',*,*,#499,.T.);
#638=ORIENTED_EDGE('',*,*,#500,.T.);
#639=ORIENTED_EDGE('',*,*,#501,.F.);
#640=ORIENTED_EDGE('',*,*,#500,.F.);
#641=ORIENTED_EDGE('',*,*,#502,.T.);
#642=ORIENTED_EDGE('',*,*,#503,.F.);
#643=ORIENTED_EDGE('',*,*,#502,.F.);
#644=ORIENTED_EDGE('',*,*,#499,.F.);
#645=ORIENTED_EDGE('',*,*,#503,.T.);
#646=ORIENTED_EDGE('',*,*,#504,.F.);
#647=ORIENTED_EDGE('',*,*,#505,.F.);
#648=ORIENTED_EDGE('',*,*,#506,.T.);
#649=ORIENTED_EDGE('',*,*,#507,.F.);
#650=ORIENTED_EDGE('',*,*,#506,.F.);
#651=ORIENTED_EDGE('',*,*,#507,.T.);
#652=ORIENTED_EDGE('',*,*,#508,.F.);
#653=ORIENTED_EDGE('',*,*,#509,.F.);
#654=ORIENTED_EDGE('',*,*,#510,.T.);
#655=ORIENTED_EDGE('',*,*,#510,.F.);
#656=ORIENTED_EDGE('',*,*,#511,.F.);
#657=ORIENTED_EDGE('',*,*,#512,.T.);
#658=ORIENTED_EDGE('',*,*,#513,.F.);
#659=ORIENTED_EDGE('',*,*,#512,.F.);
#660=ORIENTED_EDGE('',*,*,#514,.F.);
#661=ORIENTED_EDGE('',*,*,#513,.T.);
#662=ORIENTED_EDGE('',*,*,#515,.F.);
#663=ORIENTED_EDGE('',*,*,#516,.F.);
#664=ORIENTED_EDGE('',*,*,#517,.T.);
#665=ORIENTED_EDGE('',*,*,#517,.F.);
#666=ORIENTED_EDGE('',*,*,#518,.F.);
#667=ORIENTED_EDGE('',*,*,#519,.T.);
#668=ORIENTED_EDGE('',*,*,#520,.F.);
#669=ORIENTED_EDGE('',*,*,#519,.F.);
#670=ORIENTED_EDGE('',*,*,#521,.F.);
#671=ORIENTED_EDGE('',*,*,#520,.T.);
#672=ORIENTED_EDGE('',*,*,#522,.F.);
#673=ORIENTED_EDGE('',*,*,#470,.F.);
#674=ORIENTED_EDGE('',*,*,#523,.T.);
#675=ORIENTED_EDGE('',*,*,#524,.T.);
#676=ORIENTED_EDGE('',*,*,#525,.F.);
#677=ORIENTED_EDGE('',*,*,#524,.F.);
#678=ORIENTED_EDGE('',*,*,#526,.T.);
#679=ORIENTED_EDGE('',*,*,#527,.F.);
#680=ORIENTED_EDGE('',*,*,#526,.F.);
#681=ORIENTED_EDGE('',*,*,#523,.F.);
#682=ORIENTED_EDGE('',*,*,#527,.T.);
#683=ORIENTED_EDGE('',*,*,#528,.F.);
#684=ORIENTED_EDGE('',*,*,#529,.F.);
#685=ORIENTED_EDGE('',*,*,#530,.T.);
#686=ORIENTED_EDGE('',*,*,#531,.F.);
#687=ORIENTED_EDGE('',*,*,#530,.F.);
#688=ORIENTED_EDGE('',*,*,#531,.T.);
#689=ORIENTED_EDGE('',*,*,#532,.F.);
#690=ORIENTED_EDGE('',*,*,#533,.F.);
#691=ORIENTED_EDGE('',*,*,#534,.T.);
#692=ORIENTED_EDGE('',*,*,#515,.T.);
#693=ORIENTED_EDGE('',*,*,#534,.F.);
#694=ORIENTED_EDGE('',*,*,#535,.F.);
#695=ORIENTED_EDGE('',*,*,#536,.T.);
#696=ORIENTED_EDGE('',*,*,#508,.T.);
#697=ORIENTED_EDGE('',*,*,#536,.F.);
#698=ORIENTED_EDGE('',*,*,#537,.F.);
#699=ORIENTED_EDGE('',*,*,#538,.T.);
#700=ORIENTED_EDGE('',*,*,#504,.T.);
#701=ORIENTED_EDGE('',*,*,#538,.F.);
#702=ORIENTED_EDGE('',*,*,#539,.F.);
#703=ORIENTED_EDGE('',*,*,#540,.T.);
#704=ORIENTED_EDGE('',*,*,#528,.T.);
#705=ORIENTED_EDGE('',*,*,#540,.F.);
#706=ORIENTED_EDGE('',*,*,#541,.F.);
#707=ORIENTED_EDGE('',*,*,#542,.T.);
#708=ORIENTED_EDGE('',*,*,#532,.T.);
#709=ORIENTED_EDGE('',*,*,#542,.F.);
#710=ORIENTED_EDGE('',*,*,#543,.F.);
#711=ORIENTED_EDGE('',*,*,#544,.T.);
#712=ORIENTED_EDGE('',*,*,#522,.T.);
#713=ORIENTED_EDGE('',*,*,#544,.F.);
#714=ORIENTED_EDGE('',*,*,#460,.F.);
#715=ORIENTED_EDGE('',*,*,#545,.T.);
#716=ORIENTED_EDGE('',*,*,#546,.T.);
#717=ORIENTED_EDGE('',*,*,#516,.T.);
#718=ORIENTED_EDGE('',*,*,#547,.T.);
#719=ORIENTED_EDGE('',*,*,#509,.T.);
#720=ORIENTED_EDGE('',*,*,#548,.T.);
#721=ORIENTED_EDGE('',*,*,#473,.F.);
#722=ORIENTED_EDGE('',*,*,#463,.F.);
#723=ORIENTED_EDGE('',*,*,#472,.T.);
#724=ORIENTED_EDGE('',*,*,#549,.T.);
#725=ORIENTED_EDGE('',*,*,#545,.F.);
#726=ORIENTED_EDGE('',*,*,#489,.T.);
#727=ORIENTED_EDGE('',*,*,#494,.T.);
#728=ORIENTED_EDGE('',*,*,#501,.T.);
#729=ORIENTED_EDGE('',*,*,#467,.F.);
#730=ORIENTED_EDGE('',*,*,#474,.F.);
#731=ORIENTED_EDGE('',*,*,#548,.F.);
#732=ORIENTED_EDGE('',*,*,#514,.T.);
#733=ORIENTED_EDGE('',*,*,#511,.T.);
#734=ORIENTED_EDGE('',*,*,#547,.F.);
#735=ORIENTED_EDGE('',*,*,#521,.T.);
#736=ORIENTED_EDGE('',*,*,#518,.T.);
#737=ORIENTED_EDGE('',*,*,#546,.F.);
#738=ORIENTED_EDGE('',*,*,#549,.F.);
#739=ORIENTED_EDGE('',*,*,#471,.F.);
#740=ORIENTED_EDGE('',*,*,#525,.T.);
#741=ORIENTED_EDGE('',*,*,#469,.F.);
#742=ORIENTED_EDGE('',*,*,#505,.T.);
#743=ORIENTED_EDGE('',*,*,#529,.T.);
#744=ORIENTED_EDGE('',*,*,#550,.T.);
#745=ORIENTED_EDGE('',*,*,#551,.T.);
#746=ORIENTED_EDGE('',*,*,#477,.T.);
#747=ORIENTED_EDGE('',*,*,#552,.T.);
#748=ORIENTED_EDGE('',*,*,#552,.F.);
#749=ORIENTED_EDGE('',*,*,#488,.F.);
#750=ORIENTED_EDGE('',*,*,#553,.F.);
#751=ORIENTED_EDGE('',*,*,#554,.F.);
#752=ORIENTED_EDGE('',*,*,#492,.T.);
#753=ORIENTED_EDGE('',*,*,#497,.T.);
#754=ORIENTED_EDGE('',*,*,#555,.T.);
#755=ORIENTED_EDGE('',*,*,#553,.T.);
#756=ORIENTED_EDGE('',*,*,#487,.T.);
#757=ORIENTED_EDGE('',*,*,#556,.T.);
#758=ORIENTED_EDGE('',*,*,#556,.F.);
#759=ORIENTED_EDGE('',*,*,#486,.F.);
#760=ORIENTED_EDGE('',*,*,#557,.T.);
#761=ORIENTED_EDGE('',*,*,#558,.F.);
#762=ORIENTED_EDGE('',*,*,#559,.T.);
#763=ORIENTED_EDGE('',*,*,#560,.T.);
#764=ORIENTED_EDGE('',*,*,#481,.T.);
#765=ORIENTED_EDGE('',*,*,#561,.T.);
#766=ORIENTED_EDGE('',*,*,#561,.F.);
#767=ORIENTED_EDGE('',*,*,#480,.F.);
#768=ORIENTED_EDGE('',*,*,#562,.T.);
#769=ORIENTED_EDGE('',*,*,#563,.F.);
#770=ORIENTED_EDGE('',*,*,#564,.T.);
#771=ORIENTED_EDGE('',*,*,#565,.T.);
#772=ORIENTED_EDGE('',*,*,#483,.T.);
#773=ORIENTED_EDGE('',*,*,#566,.T.);
#774=ORIENTED_EDGE('',*,*,#565,.F.);
#775=ORIENTED_EDGE('',*,*,#567,.F.);
#776=ORIENTED_EDGE('',*,*,#568,.F.);
#777=ORIENTED_EDGE('',*,*,#484,.F.);
#778=ORIENTED_EDGE('',*,*,#551,.F.);
#779=ORIENTED_EDGE('',*,*,#569,.F.);
#780=ORIENTED_EDGE('',*,*,#570,.F.);
#781=ORIENTED_EDGE('',*,*,#478,.F.);
#782=ORIENTED_EDGE('',*,*,#479,.F.);
#783=ORIENTED_EDGE('',*,*,#570,.T.);
#784=ORIENTED_EDGE('',*,*,#571,.F.);
#785=ORIENTED_EDGE('',*,*,#562,.F.);
#786=ORIENTED_EDGE('',*,*,#560,.F.);
#787=ORIENTED_EDGE('',*,*,#572,.F.);
#788=ORIENTED_EDGE('',*,*,#566,.F.);
#789=ORIENTED_EDGE('',*,*,#482,.F.);
#790=ORIENTED_EDGE('',*,*,#491,.T.);
#791=ORIENTED_EDGE('',*,*,#496,.T.);
#792=ORIENTED_EDGE('',*,*,#485,.F.);
#793=ORIENTED_EDGE('',*,*,#568,.T.);
#794=ORIENTED_EDGE('',*,*,#573,.F.);
#795=ORIENTED_EDGE('',*,*,#557,.F.);
#796=ORIENTED_EDGE('',*,*,#550,.F.);
#797=ORIENTED_EDGE('',*,*,#554,.T.);
#798=ORIENTED_EDGE('',*,*,#555,.F.);
#799=ORIENTED_EDGE('',*,*,#558,.T.);
#800=ORIENTED_EDGE('',*,*,#573,.T.);
#801=ORIENTED_EDGE('',*,*,#567,.T.);
#802=ORIENTED_EDGE('',*,*,#564,.F.);
#803=ORIENTED_EDGE('',*,*,#572,.T.);
#804=ORIENTED_EDGE('',*,*,#559,.F.);
#805=ORIENTED_EDGE('',*,*,#563,.T.);
#806=ORIENTED_EDGE('',*,*,#571,.T.);
#807=ORIENTED_EDGE('',*,*,#569,.T.);
#808=ORIENTED_EDGE('',*,*,#533,.T.);
#809=ORIENTED_EDGE('',*,*,#535,.T.);
#810=ORIENTED_EDGE('',*,*,#537,.T.);
#811=ORIENTED_EDGE('',*,*,#539,.T.);
#812=ORIENTED_EDGE('',*,*,#541,.T.);
#813=ORIENTED_EDGE('',*,*,#543,.T.);
#814=CYLINDRICAL_SURFACE('',#908,0.5);
#815=CYLINDRICAL_SURFACE('',#911,0.5);
#816=CYLINDRICAL_SURFACE('',#913,0.5);
#817=CYLINDRICAL_SURFACE('',#915,0.5);
#818=CYLINDRICAL_SURFACE('',#923,1.65);
#819=CYLINDRICAL_SURFACE('',#926,1.65);
#820=CYLINDRICAL_SURFACE('',#928,1.65);
#821=CYLINDRICAL_SURFACE('',#931,1.65);
#822=CYLINDRICAL_SURFACE('',#936,2.45);
#823=CYLINDRICAL_SURFACE('',#941,2.45);
#824=CYLINDRICAL_SURFACE('',#948,2.45);
#825=CYLINDRICAL_SURFACE('',#956,2.45);
#826=CYLINDRICAL_SURFACE('',#965,2.45);
#827=CYLINDRICAL_SURFACE('',#970,2.45);
#828=CYLINDRICAL_SURFACE('',#975,1.35);
#829=CYLINDRICAL_SURFACE('',#977,1.35);
#830=CYLINDRICAL_SURFACE('',#979,1.35);
#831=CYLINDRICAL_SURFACE('',#981,1.35);
#832=CYLINDRICAL_SURFACE('',#983,1.35);
#833=CYLINDRICAL_SURFACE('',#985,1.35);
#834=CYLINDRICAL_SURFACE('',#999,15.3335);
#835=CYLINDRICAL_SURFACE('',#1002,15.3335);
#836=ADVANCED_FACE('',(#109),#814,.T.);
#837=ADVANCED_FACE('',(#110),#815,.T.);
#838=ADVANCED_FACE('',(#111),#816,.T.);
#839=ADVANCED_FACE('',(#112),#817,.T.);
#840=ADVANCED_FACE('',(#113),#82,.F.);
#841=ADVANCED_FACE('',(#114,#15,#16),#83,.F.);
#842=ADVANCED_FACE('',(#115,#17),#84,.T.);
#843=ADVANCED_FACE('',(#116),#818,.F.);
#844=ADVANCED_FACE('',(#117),#819,.F.);
#845=ADVANCED_FACE('',(#118),#820,.F.);
#846=ADVANCED_FACE('',(#119),#821,.F.);
#847=ADVANCED_FACE('',(#120),#85,.T.);
#848=ADVANCED_FACE('',(#121),#822,.F.);
#849=ADVANCED_FACE('',(#122,#18),#86,.T.);
#850=ADVANCED_FACE('',(#123),#823,.F.);
#851=ADVANCED_FACE('',(#124,#19),#87,.T.);
#852=ADVANCED_FACE('',(#125),#88,.T.);
#853=ADVANCED_FACE('',(#126),#824,.F.);
#854=ADVANCED_FACE('',(#127,#20),#89,.T.);
#855=ADVANCED_FACE('',(#128),#90,.T.);
#856=ADVANCED_FACE('',(#129),#825,.F.);
#857=ADVANCED_FACE('',(#130,#21),#91,.T.);
#858=ADVANCED_FACE('',(#131),#92,.T.);
#859=ADVANCED_FACE('',(#132),#826,.F.);
#860=ADVANCED_FACE('',(#133,#22),#93,.T.);
#861=ADVANCED_FACE('',(#134),#827,.F.);
#862=ADVANCED_FACE('',(#135,#23),#94,.T.);
#863=ADVANCED_FACE('',(#136),#828,.F.);
#864=ADVANCED_FACE('',(#137),#829,.F.);
#865=ADVANCED_FACE('',(#138),#830,.F.);
#866=ADVANCED_FACE('',(#139),#831,.F.);
#867=ADVANCED_FACE('',(#140),#832,.F.);
#868=ADVANCED_FACE('',(#141),#833,.F.);
#869=ADVANCED_FACE('',(#142),#95,.F.);
#870=ADVANCED_FACE('',(#143,#24,#25),#96,.F.);
#871=ADVANCED_FACE('',(#144,#26,#27),#97,.F.);
#872=ADVANCED_FACE('',(#145),#98,.T.);
#873=ADVANCED_FACE('',(#146,#28,#29),#99,.T.);
#874=ADVANCED_FACE('',(#147),#100,.T.);
#875=ADVANCED_FACE('',(#148),#101,.T.);
#876=ADVANCED_FACE('',(#149),#102,.T.);
#877=ADVANCED_FACE('',(#150),#103,.T.);
#878=ADVANCED_FACE('',(#151),#104,.T.);
#879=ADVANCED_FACE('',(#152),#105,.T.);
#880=ADVANCED_FACE('',(#153),#106,.T.);
#881=ADVANCED_FACE('',(#154),#834,.T.);
#882=ADVANCED_FACE('',(#155,#30,#31),#107,.T.);
#883=ADVANCED_FACE('',(#156),#835,.T.);
#884=ADVANCED_FACE('',(#157,#32,#33,#34,#35,#36,#37),#108,.F.);
#885=CLOSED_SHELL('',(#836,#837,#838,#839,#840,#841,#842,#843,#844,#845,
#846,#847,#848,#849,#850,#851,#852,#853,#854,#855,#856,#857,#858,#859,#860,
#861,#862,#863,#864,#865,#866,#867,#868,#869,#870,#871,#872,#873,#874,#875,
#876,#877,#878,#879,#880,#881,#882,#883,#884));
#886=DERIVED_UNIT_ELEMENT(#889,1.);
#887=DERIVED_UNIT_ELEMENT(#1524,-3.);
#888=DIMENSIONAL_EXPONENTS(0.,1.,0.,0.,0.,0.,0.);
#889=(
CONVERSION_BASED_UNIT('gram',#891)
MASS_UNIT()
NAMED_UNIT(#888)
);
#890=(
MASS_UNIT()
NAMED_UNIT(*)
SI_UNIT(.KILO.,.GRAM.)
);
#891=MASS_MEASURE_WITH_UNIT(MASS_MEASURE(0.001),#890);
#892=DERIVED_UNIT((#886,#887));
#893=MEASURE_REPRESENTATION_ITEM('density measure',
POSITIVE_RATIO_MEASURE(1.),#892);
#894=PROPERTY_DEFINITION_REPRESENTATION(#899,#896);
#895=PROPERTY_DEFINITION_REPRESENTATION(#900,#897);
#896=REPRESENTATION('material name',(#898),#1521);
#897=REPRESENTATION('density',(#893),#1521);
#898=DESCRIPTIVE_REPRESENTATION_ITEM('\X2\4E00822C\X0\','\X2\4E00822C\X0\');
#899=PROPERTY_DEFINITION('material property','material name',#1531);
#900=PROPERTY_DEFINITION('material property','density of part',#1531);
#901=DATE_TIME_ROLE('creation_date');
#902=APPLIED_DATE_AND_TIME_ASSIGNMENT(#903,#901,(#1531));
#903=DATE_AND_TIME(#904,#905);
#904=CALENDAR_DATE(2025,26,6);
#905=LOCAL_TIME(0,0,0.,#906);
#906=COORDINATED_UNIVERSAL_TIME_OFFSET(0,0,.BEHIND.);
#907=AXIS2_PLACEMENT_3D('',#1273,#1005,#1006);
#908=AXIS2_PLACEMENT_3D('',#1274,#1007,#1008);
#909=AXIS2_PLACEMENT_3D('',#1279,#1010,#1011);
#910=AXIS2_PLACEMENT_3D('',#1282,#1013,#1014);
#911=AXIS2_PLACEMENT_3D('',#1283,#1015,#1016);
#912=AXIS2_PLACEMENT_3D('',#1287,#1018,#1019);
#913=AXIS2_PLACEMENT_3D('',#1289,#1021,#1022);
#914=AXIS2_PLACEMENT_3D('',#1293,#1024,#1025);
#915=AXIS2_PLACEMENT_3D('',#1295,#1027,#1028);
#916=AXIS2_PLACEMENT_3D('',#1298,#1031,#1032);
#917=AXIS2_PLACEMENT_3D('',#1312,#1040,#1041);
#918=AXIS2_PLACEMENT_3D('',#1317,#1044,#1045);
#919=AXIS2_PLACEMENT_3D('',#1319,#1046,#1047);
#920=AXIS2_PLACEMENT_3D('',#1320,#1048,#1049);
#921=AXIS2_PLACEMENT_3D('',#1327,#1052,#1053);
#922=AXIS2_PLACEMENT_3D('',#1339,#1059,#1060);
#923=AXIS2_PLACEMENT_3D('',#1345,#1064,#1065);
#924=AXIS2_PLACEMENT_3D('',#1347,#1066,#1067);
#925=AXIS2_PLACEMENT_3D('',#1350,#1069,#1070);
#926=AXIS2_PLACEMENT_3D('',#1351,#1071,#1072);
#927=AXIS2_PLACEMENT_3D('',#1353,#1073,#1074);
#928=AXIS2_PLACEMENT_3D('',#1355,#1076,#1077);
#929=AXIS2_PLACEMENT_3D('',#1357,#1078,#1079);
#930=AXIS2_PLACEMENT_3D('',#1360,#1081,#1082);
#931=AXIS2_PLACEMENT_3D('',#1361,#1083,#1084);
#932=AXIS2_PLACEMENT_3D('',#1363,#1085,#1086);
#933=AXIS2_PLACEMENT_3D('',#1365,#1088,#1089);
#934=AXIS2_PLACEMENT_3D('',#1367,#1090,#1091);
#935=AXIS2_PLACEMENT_3D('',#1368,#1092,#1093);
#936=AXIS2_PLACEMENT_3D('',#1369,#1094,#1095);
#937=AXIS2_PLACEMENT_3D('',#1370,#1096,#1097);
#938=AXIS2_PLACEMENT_3D('',#1373,#1099,#1100);
#939=AXIS2_PLACEMENT_3D('',#1374,#1101,#1102);
#940=AXIS2_PLACEMENT_3D('',#1376,#1103,#1104);
#941=AXIS2_PLACEMENT_3D('',#1377,#1105,#1106);
#942=AXIS2_PLACEMENT_3D('',#1379,#1107,#1108);
#943=AXIS2_PLACEMENT_3D('',#1382,#1110,#1111);
#944=AXIS2_PLACEMENT_3D('',#1383,#1112,#1113);
#945=AXIS2_PLACEMENT_3D('',#1385,#1114,#1115);
#946=AXIS2_PLACEMENT_3D('',#1386,#1116,#1117);
#947=AXIS2_PLACEMENT_3D('',#1390,#1119,#1120);
#948=AXIS2_PLACEMENT_3D('',#1391,#1121,#1122);
#949=AXIS2_PLACEMENT_3D('',#1393,#1123,#1124);
#950=AXIS2_PLACEMENT_3D('',#1396,#1126,#1127);
#951=AXIS2_PLACEMENT_3D('',#1397,#1128,#1129);
#952=AXIS2_PLACEMENT_3D('',#1398,#1130,#1131);
#953=AXIS2_PLACEMENT_3D('',#1400,#1132,#1133);
#954=AXIS2_PLACEMENT_3D('',#1401,#1134,#1135);
#955=AXIS2_PLACEMENT_3D('',#1405,#1137,#1138);
#956=AXIS2_PLACEMENT_3D('',#1406,#1139,#1140);
#957=AXIS2_PLACEMENT_3D('',#1408,#1141,#1142);
#958=AXIS2_PLACEMENT_3D('',#1411,#1144,#1145);
#959=AXIS2_PLACEMENT_3D('',#1412,#1146,#1147);
#960=AXIS2_PLACEMENT_3D('',#1413,#1148,#1149);
#961=AXIS2_PLACEMENT_3D('',#1415,#1150,#1151);
#962=AXIS2_PLACEMENT_3D('',#1416,#1152,#1153);
#963=AXIS2_PLACEMENT_3D('',#1418,#1154,#1155);
#964=AXIS2_PLACEMENT_3D('',#1419,#1156,#1157);
#965=AXIS2_PLACEMENT_3D('',#1420,#1158,#1159);
#966=AXIS2_PLACEMENT_3D('',#1421,#1160,#1161);
#967=AXIS2_PLACEMENT_3D('',#1424,#1163,#1164);
#968=AXIS2_PLACEMENT_3D('',#1425,#1165,#1166);
#969=AXIS2_PLACEMENT_3D('',#1427,#1167,#1168);
#970=AXIS2_PLACEMENT_3D('',#1428,#1169,#1170);
#971=AXIS2_PLACEMENT_3D('',#1430,#1171,#1172);
#972=AXIS2_PLACEMENT_3D('',#1433,#1174,#1175);
#973=AXIS2_PLACEMENT_3D('',#1434,#1176,#1177);
#974=AXIS2_PLACEMENT_3D('',#1436,#1178,#1179);
#975=AXIS2_PLACEMENT_3D('',#1437,#1180,#1181);
#976=AXIS2_PLACEMENT_3D('',#1439,#1182,#1183);
#977=AXIS2_PLACEMENT_3D('',#1441,#1185,#1186);
#978=AXIS2_PLACEMENT_3D('',#1443,#1187,#1188);
#979=AXIS2_PLACEMENT_3D('',#1445,#1190,#1191);
#980=AXIS2_PLACEMENT_3D('',#1447,#1192,#1193);
#981=AXIS2_PLACEMENT_3D('',#1449,#1195,#1196);
#982=AXIS2_PLACEMENT_3D('',#1451,#1197,#1198);
#983=AXIS2_PLACEMENT_3D('',#1453,#1200,#1201);
#984=AXIS2_PLACEMENT_3D('',#1455,#1202,#1203);
#985=AXIS2_PLACEMENT_3D('',#1457,#1205,#1206);
#986=AXIS2_PLACEMENT_3D('',#1459,#1207,#1208);
#987=AXIS2_PLACEMENT_3D('',#1461,#1210,#1211);
#988=AXIS2_PLACEMENT_3D('',#1467,#1216,#1217);
#989=AXIS2_PLACEMENT_3D('',#1469,#1219,#1220);
#990=AXIS2_PLACEMENT_3D('',#1470,#1221,#1222);
#991=AXIS2_PLACEMENT_3D('',#1476,#1226,#1227);
#992=AXIS2_PLACEMENT_3D('',#1480,#1230,#1231);
#993=AXIS2_PLACEMENT_3D('',#1484,#1234,#1235);
#994=AXIS2_PLACEMENT_3D('',#1488,#1238,#1239);
#995=AXIS2_PLACEMENT_3D('',#1494,#1243,#1244);
#996=AXIS2_PLACEMENT_3D('',#1498,#1247,#1248);
#997=AXIS2_PLACEMENT_3D('',#1504,#1252,#1253);
#998=AXIS2_PLACEMENT_3D('',#1508,#1256,#1257);
#999=AXIS2_PLACEMENT_3D('',#1512,#1260,#1261);
#1000=AXIS2_PLACEMENT_3D('',#1513,#1262,#1263);
#1001=AXIS2_PLACEMENT_3D('',#1514,#1264,#1265);
#1002=AXIS2_PLACEMENT_3D('',#1516,#1267,#1268);
#1003=AXIS2_PLACEMENT_3D('',#1517,#1269,#1270);
#1004=AXIS2_PLACEMENT_3D('',#1518,#1271,#1272);
#1005=DIRECTION('axis',(0.,0.,1.));
#1006=DIRECTION('refdir',(1.,0.,0.));
#1007=DIRECTION('center_axis',(0.,3.29769215235195E-16,1.));
#1008=DIRECTION('ref_axis',(0.707106781186549,0.707106781186546,0.));
#1009=DIRECTION('',(0.,-3.29769215235195E-16,-1.));
#1010=DIRECTION('center_axis',(-7.85046229341885E-16,-0.707106781186545,
0.70710678118655));
#1011=DIRECTION('ref_axis',(-7.8504622934189E-16,-0.70710678118655,-0.707106781186545));
#1012=DIRECTION('',(0.,3.29769215235195E-16,1.));
#1013=DIRECTION('center_axis',(-2.35513868802567E-15,-0.707106781186542,
-0.707106781186553));
#1014=DIRECTION('ref_axis',(2.3551386880257E-15,0.707106781186553,-0.707106781186542));
#1015=DIRECTION('center_axis',(0.,-1.,0.));
#1016=DIRECTION('ref_axis',(0.707106781186549,0.,0.707106781186546));
#1017=DIRECTION('',(0.,1.,0.));
#1018=DIRECTION('center_axis',(0.,-0.707106781186548,-0.707106781186548));
#1019=DIRECTION('ref_axis',(0.,0.707106781186547,-0.707106781186547));
#1020=DIRECTION('',(0.,-1.,0.));
#1021=DIRECTION('center_axis',(0.,0.,-1.));
#1022=DIRECTION('ref_axis',(0.707106781186555,-0.70710678118654,0.));
#1023=DIRECTION('',(0.,0.,1.));
#1024=DIRECTION('center_axis',(0.,0.707106781186542,-0.707106781186553));
#1025=DIRECTION('ref_axis',(0.,0.707106781186553,0.707106781186542));
#1026=DIRECTION('',(0.,0.,-1.));
#1027=DIRECTION('center_axis',(0.,1.,2.20939905398041E-16));
#1028=DIRECTION('ref_axis',(0.707106781186548,0.,-0.707106781186547));
#1029=DIRECTION('',(0.,1.,2.20939905398041E-16));
#1030=DIRECTION('',(0.,-1.,-2.20939905398041E-16));
#1031=DIRECTION('center_axis',(0.,-2.20939905398041E-16,1.));
#1032=DIRECTION('ref_axis',(0.,1.,2.20939905398041E-16));
#1033=DIRECTION('',(-1.,0.,0.));
#1034=DIRECTION('',(0.,1.,2.20939905398041E-16));
#1035=DIRECTION('',(0.,1.,2.20939905398041E-16));
#1036=DIRECTION('',(0.,1.,2.20939905398041E-16));
#1037=DIRECTION('',(0.,1.,2.20939905398041E-16));
#1038=DIRECTION('',(0.,1.,2.20939905398041E-16));
#1039=DIRECTION('',(-1.,0.,0.));
#1040=DIRECTION('center_axis',(0.,-1.,3.29769215235195E-16));
#1041=DIRECTION('ref_axis',(0.,3.29769215235195E-16,1.));
#1042=DIRECTION('',(-1.,0.,0.));
#1043=DIRECTION('',(0.,3.29769215235195E-16,1.));
#1044=DIRECTION('center_axis',(0.,-1.,3.29769215235195E-16));
#1045=DIRECTION('ref_axis',(1.,0.,0.));
#1046=DIRECTION('center_axis',(0.,-1.,3.29769215235195E-16));
#1047=DIRECTION('ref_axis',(1.,0.,0.));
#1048=DIRECTION('center_axis',(1.,0.,0.));
#1049=DIRECTION('ref_axis',(0.,0.,-1.));
#1050=DIRECTION('',(0.,-0.707106781186547,0.707106781186548));
#1051=DIRECTION('',(0.,1.,0.));
#1052=DIRECTION('center_axis',(1.,0.,0.));
#1053=DIRECTION('ref_axis',(0.,1.,0.));
#1054=DIRECTION('',(0.,1.,0.));
#1055=DIRECTION('',(0.,-0.707106781186548,-0.707106781186548));
#1056=DIRECTION('',(0.,0.,1.));
#1057=DIRECTION('',(0.,0.707106781186548,-0.707106781186548));
#1058=DIRECTION('',(0.,-1.,-1.76117209537682E-32));
#1059=DIRECTION('center_axis',(1.,0.,0.));
#1060=DIRECTION('ref_axis',(0.,1.,0.));
#1061=DIRECTION('',(0.,-1.,-1.76117209537682E-32));
#1062=DIRECTION('',(0.,0.707106781186547,0.707106781186548));
#1063=DIRECTION('',(0.,1.30281574377378E-17,-1.));
#1064=DIRECTION('center_axis',(0.,-1.,-1.30281574377378E-17));
#1065=DIRECTION('ref_axis',(1.,0.,0.));
#1066=DIRECTION('center_axis',(0.,1.,0.));
#1067=DIRECTION('ref_axis',(1.,0.,0.));
#1068=DIRECTION('',(0.,1.,1.30281574377378E-17));
#1069=DIRECTION('center_axis',(0.,-1.,0.));
#1070=DIRECTION('ref_axis',(1.,0.,0.));
#1071=DIRECTION('center_axis',(0.,-1.,-1.30281574377378E-17));
#1072=DIRECTION('ref_axis',(1.,0.,0.));
#1073=DIRECTION('center_axis',(0.,1.,1.30281574377378E-17));
#1074=DIRECTION('ref_axis',(1.,0.,0.));
#1075=DIRECTION('',(0.,1.,1.30281574377378E-17));
#1076=DIRECTION('center_axis',(0.,-1.,-1.30281574377378E-17));
#1077=DIRECTION('ref_axis',(1.,0.,0.));
#1078=DIRECTION('center_axis',(0.,1.,0.));
#1079=DIRECTION('ref_axis',(1.,0.,0.));
#1080=DIRECTION('',(0.,1.,1.30281574377378E-17));
#1081=DIRECTION('center_axis',(0.,-1.,0.));
#1082=DIRECTION('ref_axis',(1.,0.,0.));
#1083=DIRECTION('center_axis',(0.,-1.,-1.30281574377378E-17));
#1084=DIRECTION('ref_axis',(1.,0.,0.));
#1085=DIRECTION('center_axis',(0.,1.,1.30281574377378E-17));
#1086=DIRECTION('ref_axis',(1.,0.,0.));
#1087=DIRECTION('',(0.,1.,1.30281574377378E-17));
#1088=DIRECTION('center_axis',(-1.,0.,0.));
#1089=DIRECTION('ref_axis',(0.,0.,1.));
#1090=DIRECTION('center_axis',(-1.,0.,0.));
#1091=DIRECTION('ref_axis',(0.,0.,-1.));
#1092=DIRECTION('center_axis',(-1.,0.,0.));
#1093=DIRECTION('ref_axis',(0.,0.,-1.));
#1094=DIRECTION('center_axis',(1.,0.,0.));
#1095=DIRECTION('ref_axis',(0.,0.,-1.));
#1096=DIRECTION('center_axis',(-1.,0.,0.));
#1097=DIRECTION('ref_axis',(0.,0.,-1.));
#1098=DIRECTION('',(-1.,0.,0.));
#1099=DIRECTION('center_axis',(1.,0.,0.));
#1100=DIRECTION('ref_axis',(0.,0.,-1.));
#1101=DIRECTION('center_axis',(1.,0.,0.));
#1102=DIRECTION('ref_axis',(0.,0.,-1.));
#1103=DIRECTION('center_axis',(1.,0.,0.));
#1104=DIRECTION('ref_axis',(0.,0.,1.));
#1105=DIRECTION('center_axis',(1.,0.,0.));
#1106=DIRECTION('ref_axis',(0.,0.,-1.));
#1107=DIRECTION('center_axis',(-1.,0.,0.));
#1108=DIRECTION('ref_axis',(0.,0.,-1.));
#1109=DIRECTION('',(-1.,0.,0.));
#1110=DIRECTION('center_axis',(1.,0.,0.));
#1111=DIRECTION('ref_axis',(0.,0.,-1.));
#1112=DIRECTION('center_axis',(1.,0.,0.));
#1113=DIRECTION('ref_axis',(0.,0.,-1.));
#1114=DIRECTION('center_axis',(1.,0.,0.));
#1115=DIRECTION('ref_axis',(0.,0.,1.));
#1116=DIRECTION('center_axis',(-1.,0.,0.));
#1117=DIRECTION('ref_axis',(0.,0.,1.));
#1118=DIRECTION('',(0.,-1.,0.));
#1119=DIRECTION('center_axis',(-1.,0.,0.));
#1120=DIRECTION('ref_axis',(0.,0.,-1.));
#1121=DIRECTION('center_axis',(1.,0.,0.));
#1122=DIRECTION('ref_axis',(0.,0.,-1.));
#1123=DIRECTION('center_axis',(-1.,0.,0.));
#1124=DIRECTION('ref_axis',(0.,0.,-1.));
#1125=DIRECTION('',(-1.,0.,0.));
#1126=DIRECTION('center_axis',(1.,0.,0.));
#1127=DIRECTION('ref_axis',(0.,0.,-1.));
#1128=DIRECTION('center_axis',(-1.,0.,0.));
#1129=DIRECTION('ref_axis',(0.,0.,-1.));
#1130=DIRECTION('center_axis',(1.,0.,0.));
#1131=DIRECTION('ref_axis',(0.,0.,-1.));
#1132=DIRECTION('center_axis',(1.,0.,0.));
#1133=DIRECTION('ref_axis',(0.,0.,1.));
#1134=DIRECTION('center_axis',(-1.,0.,0.));
#1135=DIRECTION('ref_axis',(0.,0.,1.));
#1136=DIRECTION('',(0.,-1.,0.));
#1137=DIRECTION('center_axis',(-1.,0.,0.));
#1138=DIRECTION('ref_axis',(0.,0.,-1.));
#1139=DIRECTION('center_axis',(1.,0.,0.));
#1140=DIRECTION('ref_axis',(0.,0.,-1.));
#1141=DIRECTION('center_axis',(-1.,0.,0.));
#1142=DIRECTION('ref_axis',(0.,0.,-1.));
#1143=DIRECTION('',(-1.,0.,0.));
#1144=DIRECTION('center_axis',(1.,0.,0.));
#1145=DIRECTION('ref_axis',(0.,0.,-1.));
#1146=DIRECTION('center_axis',(-1.,0.,0.));
#1147=DIRECTION('ref_axis',(0.,0.,-1.));
#1148=DIRECTION('center_axis',(1.,0.,0.));
#1149=DIRECTION('ref_axis',(0.,0.,-1.));
#1150=DIRECTION('center_axis',(1.,0.,0.));
#1151=DIRECTION('ref_axis',(0.,0.,1.));
#1152=DIRECTION('center_axis',(-1.,0.,0.));
#1153=DIRECTION('ref_axis',(0.,0.,1.));
#1154=DIRECTION('center_axis',(-1.,0.,0.));
#1155=DIRECTION('ref_axis',(0.,0.,-1.));
#1156=DIRECTION('center_axis',(-1.,0.,0.));
#1157=DIRECTION('ref_axis',(0.,0.,-1.));
#1158=DIRECTION('center_axis',(1.,0.,0.));
#1159=DIRECTION('ref_axis',(0.,0.,-1.));
#1160=DIRECTION('center_axis',(-1.,0.,0.));
#1161=DIRECTION('ref_axis',(0.,0.,-1.));
#1162=DIRECTION('',(-1.,0.,0.));
#1163=DIRECTION('center_axis',(1.,0.,0.));
#1164=DIRECTION('ref_axis',(0.,0.,-1.));
#1165=DIRECTION('center_axis',(1.,0.,0.));
#1166=DIRECTION('ref_axis',(0.,0.,-1.));
#1167=DIRECTION('center_axis',(1.,0.,0.));
#1168=DIRECTION('ref_axis',(0.,0.,1.));
#1169=DIRECTION('center_axis',(1.,0.,0.));
#1170=DIRECTION('ref_axis',(0.,0.,-1.));
#1171=DIRECTION('center_axis',(-1.,0.,0.));
#1172=DIRECTION('ref_axis',(0.,0.,-1.));
#1173=DIRECTION('',(-1.,0.,0.));
#1174=DIRECTION('center_axis',(1.,0.,0.));
#1175=DIRECTION('ref_axis',(0.,0.,-1.));
#1176=DIRECTION('center_axis',(1.,0.,0.));
#1177=DIRECTION('ref_axis',(0.,0.,-1.));
#1178=DIRECTION('center_axis',(1.,0.,0.));
#1179=DIRECTION('ref_axis',(0.,0.,1.));
#1180=DIRECTION('center_axis',(-1.,0.,0.));
#1181=DIRECTION('ref_axis',(0.,0.,1.));
#1182=DIRECTION('center_axis',(1.,0.,0.));
#1183=DIRECTION('ref_axis',(0.,0.,1.));
#1184=DIRECTION('',(1.,0.,0.));
#1185=DIRECTION('center_axis',(-1.,0.,0.));
#1186=DIRECTION('ref_axis',(0.,0.,1.));
#1187=DIRECTION('center_axis',(1.,0.,0.));
#1188=DIRECTION('ref_axis',(0.,0.,1.));
#1189=DIRECTION('',(1.,0.,0.));
#1190=DIRECTION('center_axis',(-1.,0.,0.));
#1191=DIRECTION('ref_axis',(0.,0.,1.));
#1192=DIRECTION('center_axis',(1.,0.,0.));
#1193=DIRECTION('ref_axis',(0.,0.,1.));
#1194=DIRECTION('',(1.,0.,0.));
#1195=DIRECTION('center_axis',(-1.,0.,0.));
#1196=DIRECTION('ref_axis',(0.,0.,1.));
#1197=DIRECTION('center_axis',(1.,0.,0.));
#1198=DIRECTION('ref_axis',(0.,0.,1.));
#1199=DIRECTION('',(1.,0.,0.));
#1200=DIRECTION('center_axis',(-1.,0.,0.));
#1201=DIRECTION('ref_axis',(0.,0.,1.));
#1202=DIRECTION('center_axis',(1.,0.,0.));
#1203=DIRECTION('ref_axis',(0.,0.,1.));
#1204=DIRECTION('',(1.,0.,0.));
#1205=DIRECTION('center_axis',(-1.,0.,0.));
#1206=DIRECTION('ref_axis',(0.,0.,1.));
#1207=DIRECTION('center_axis',(1.,0.,0.));
#1208=DIRECTION('ref_axis',(0.,0.,1.));
#1209=DIRECTION('',(1.,0.,0.));
#1210=DIRECTION('center_axis',(0.,0.,-1.));
#1211=DIRECTION('ref_axis',(0.,-1.,0.));
#1212=DIRECTION('',(-1.,0.,0.));
#1213=DIRECTION('',(0.,-1.,0.));
#1214=DIRECTION('',(0.,-1.,0.));
#1215=DIRECTION('',(0.,-1.,0.));
#1216=DIRECTION('center_axis',(0.,1.,0.));
#1217=DIRECTION('ref_axis',(0.,0.,-1.));
#1218=DIRECTION('',(0.,0.,-1.));
#1219=DIRECTION('center_axis',(-1.,0.,0.));
#1220=DIRECTION('ref_axis',(0.,0.,1.));
#1221=DIRECTION('center_axis',(0.,-0.707106781186548,-0.707106781186547));
#1222=DIRECTION('ref_axis',(-1.,0.,0.));
#1223=DIRECTION('',(0.,0.707106781186547,-0.707106781186548));
#1224=DIRECTION('',(1.,0.,0.));
#1225=DIRECTION('',(-1.,0.,0.));
#1226=DIRECTION('center_axis',(0.,-1.,-1.30281574377378E-17));
#1227=DIRECTION('ref_axis',(0.,-1.30281574377378E-17,1.));
#1228=DIRECTION('',(1.,0.,0.));
#1229=DIRECTION('',(0.,-1.30281574377378E-17,1.));
#1230=DIRECTION('center_axis',(0.,-0.707106781186548,0.707106781186547));
#1231=DIRECTION('ref_axis',(1.,0.,0.));
#1232=DIRECTION('',(0.,-0.707106781186547,-0.707106781186548));
#1233=DIRECTION('',(-1.,0.,0.));
#1234=DIRECTION('center_axis',(0.,-1.76117209537682E-32,1.));
#1235=DIRECTION('ref_axis',(0.,1.,1.76117209537682E-32));
#1236=DIRECTION('',(-1.,0.,0.));
#1237=DIRECTION('',(0.,1.,1.76117209537682E-32));
#1238=DIRECTION('center_axis',(0.,0.707106781186548,-0.707106781186548));
#1239=DIRECTION('ref_axis',(-1.,0.,0.));
#1240=DIRECTION('',(0.,0.707106781186548,0.707106781186548));
#1241=DIRECTION('',(1.,0.,0.));
#1242=DIRECTION('',(-1.,0.,0.));
#1243=DIRECTION('center_axis',(0.,0.,-1.));
#1244=DIRECTION('ref_axis',(0.,-1.,0.));
#1245=DIRECTION('',(-1.,0.,0.));
#1246=DIRECTION('',(0.,-1.,0.));
#1247=DIRECTION('center_axis',(0.,0.707106781186548,0.707106781186548));
#1248=DIRECTION('ref_axis',(1.,0.,0.));
#1249=DIRECTION('',(0.,-0.707106781186548,0.707106781186548));
#1250=DIRECTION('',(1.,0.,0.));
#1251=DIRECTION('',(-1.,0.,0.));
#1252=DIRECTION('center_axis',(0.,-1.76117209537682E-32,1.));
#1253=DIRECTION('ref_axis',(0.,1.,1.76117209537682E-32));
#1254=DIRECTION('',(0.,1.,1.76117209537682E-32));
#1255=DIRECTION('',(-1.,0.,0.));
#1256=DIRECTION('center_axis',(0.,0.,-1.));
#1257=DIRECTION('ref_axis',(0.,-1.,0.));
#1258=DIRECTION('',(0.,-1.,0.));
#1259=DIRECTION('',(-1.,0.,0.));
#1260=DIRECTION('center_axis',(-1.,0.,0.));
#1261=DIRECTION('ref_axis',(0.,1.,0.));
#1262=DIRECTION('center_axis',(-1.,0.,0.));
#1263=DIRECTION('ref_axis',(0.,1.,0.));
#1264=DIRECTION('center_axis',(0.,1.,0.));
#1265=DIRECTION('ref_axis',(0.,0.,-1.));
#1266=DIRECTION('',(0.,0.,-1.));
#1267=DIRECTION('center_axis',(-1.,0.,0.));
#1268=DIRECTION('ref_axis',(0.,1.,0.));
#1269=DIRECTION('center_axis',(-1.,0.,0.));
#1270=DIRECTION('ref_axis',(0.,1.,0.));
#1271=DIRECTION('center_axis',(1.,0.,0.));
#1272=DIRECTION('ref_axis',(0.,0.,-1.));
#1273=CARTESIAN_POINT('',(0.,0.,0.));
#1274=CARTESIAN_POINT('Origin',(-0.5,4.5,-19.15));
#1275=CARTESIAN_POINT('',(0.,4.5,-3.5));
#1276=CARTESIAN_POINT('',(0.,4.5,-24.7));
#1277=CARTESIAN_POINT('',(0.,4.5,-19.15));
#1278=CARTESIAN_POINT('',(-0.5,5.,-24.2));
#1279=CARTESIAN_POINT('Origin',(-0.5,4.5,-24.7));
#1280=CARTESIAN_POINT('',(-0.5,5.,-3.99999999999999));
#1281=CARTESIAN_POINT('',(-0.5,5.,-19.15));
#1282=CARTESIAN_POINT('Origin',(-0.5,4.5,-3.5));
#1283=CARTESIAN_POINT('Origin',(-0.5,35.15,-24.7));
#1284=CARTESIAN_POINT('',(0.,45.7,-24.7));
#1285=CARTESIAN_POINT('',(0.,35.15,-24.7));
#1286=CARTESIAN_POINT('',(-0.5,45.2,-24.2));
#1287=CARTESIAN_POINT('Origin',(-0.5,45.7,-24.7));
#1288=CARTESIAN_POINT('',(-0.5,35.15,-24.2));
#1289=CARTESIAN_POINT('Origin',(-0.5,45.7,-9.05));
#1290=CARTESIAN_POINT('',(0.,45.7,-3.49999999999999));
#1291=CARTESIAN_POINT('',(0.,45.7,-9.05));
#1292=CARTESIAN_POINT('',(-0.5,45.2,-3.99999999999999));
#1293=CARTESIAN_POINT('Origin',(-0.5,45.7,-3.49999999999999));
#1294=CARTESIAN_POINT('',(-0.5,45.2,-9.05));
#1295=CARTESIAN_POINT('Origin',(-0.5,15.05,-3.5));
#1296=CARTESIAN_POINT('',(-0.5,15.05,-4.));
#1297=CARTESIAN_POINT('',(0.,15.05,-3.5));
#1298=CARTESIAN_POINT('Origin',(0.,5.00000000000001,-4.));
#1299=CARTESIAN_POINT('',(-25.,5.,-3.99999999999999));
#1300=CARTESIAN_POINT('',(0.,5.,-3.99999999999999));
#1301=CARTESIAN_POINT('',(-25.,16.5397596938197,-4.));
#1302=CARTESIAN_POINT('',(-25.,45.2,-3.99999999999999));
#1303=CARTESIAN_POINT('',(-25.,18.1038911200763,-4.));
#1304=CARTESIAN_POINT('',(-25.,45.2,-3.99999999999999));
#1305=CARTESIAN_POINT('',(-25.,32.0961088799237,-3.99999999999999));
#1306=CARTESIAN_POINT('',(-25.,45.2,-3.99999999999999));
#1307=CARTESIAN_POINT('',(-25.,33.6602403061803,-3.99999999999999));
#1308=CARTESIAN_POINT('',(-25.,45.2,-3.99999999999999));
#1309=CARTESIAN_POINT('',(-25.,45.2,-3.99999999999999));
#1310=CARTESIAN_POINT('',(-25.,45.2,-3.99999999999999));
#1311=CARTESIAN_POINT('',(0.,45.2,-3.99999999999999));
#1312=CARTESIAN_POINT('Origin',(0.,5.,-24.2));
#1313=CARTESIAN_POINT('',(-25.,5.,-24.2));
#1314=CARTESIAN_POINT('',(0.,5.,-24.2));
#1315=CARTESIAN_POINT('',(-25.,5.,-3.99999999999999));
#1316=CARTESIAN_POINT('',(-16.65,5.,-14.1));
#1317=CARTESIAN_POINT('Origin',(-15.,5.,-14.1));
#1318=CARTESIAN_POINT('',(-6.65,5.,-14.1));
#1319=CARTESIAN_POINT('Origin',(-5.,5.,-14.1));
#1320=CARTESIAN_POINT('Origin',(0.,25.1,-14.1));
#1321=CARTESIAN_POINT('',(0.,2.5,-28.2));
#1322=CARTESIAN_POINT('',(0.,3.34823646149862E-16,-25.7));
#1323=CARTESIAN_POINT('',(0.,4.,-29.7));
#1324=CARTESIAN_POINT('',(0.,19.0745355158295,-28.2));
#1325=CARTESIAN_POINT('',(0.,0.,-28.2));
#1326=CARTESIAN_POINT('',(0.,31.1254644841705,-28.2));
#1327=CARTESIAN_POINT('Origin',(0.,25.1,-14.1));
#1328=CARTESIAN_POINT('',(0.,47.7,-28.2));
#1329=CARTESIAN_POINT('',(0.,0.,-28.2));
#1330=CARTESIAN_POINT('',(0.,50.2,-25.7));
#1331=CARTESIAN_POINT('',(0.,46.2,-29.7));
#1332=CARTESIAN_POINT('',(0.,50.2,-2.5));
#1333=CARTESIAN_POINT('',(0.,50.2,-28.2));
#1334=CARTESIAN_POINT('',(0.,47.7,8.40079089494744E-31));
#1335=CARTESIAN_POINT('',(0.,46.2,1.5));
#1336=CARTESIAN_POINT('',(0.,31.1254644841705,0.));
#1337=CARTESIAN_POINT('',(0.,50.2,8.84108391879165E-31));
#1338=CARTESIAN_POINT('',(0.,19.0745355158295,0.));
#1339=CARTESIAN_POINT('Origin',(0.,25.1,-14.1));
#1340=CARTESIAN_POINT('',(0.,2.5,4.40293023844205E-32));
#1341=CARTESIAN_POINT('',(0.,50.2,8.84108391879165E-31));
#1342=CARTESIAN_POINT('',(0.,3.25703935943446E-17,-2.5));
#1343=CARTESIAN_POINT('',(0.,4.,1.5));
#1344=CARTESIAN_POINT('',(0.,0.,0.));
#1345=CARTESIAN_POINT('Origin',(-5.,67.9448665389815,-14.1));
#1346=CARTESIAN_POINT('',(-6.65,45.2,-14.1));
#1347=CARTESIAN_POINT('Origin',(-5.,45.2,-14.1));
#1348=CARTESIAN_POINT('',(-6.65,50.2,-14.1));
#1349=CARTESIAN_POINT('',(-6.65,67.9448665389815,-14.1));
#1350=CARTESIAN_POINT('Origin',(-5.,50.2,-14.1));
#1351=CARTESIAN_POINT('Origin',(-5.,67.9448665389815,-14.1));
#1352=CARTESIAN_POINT('',(-6.65,-8.88178419700125E-15,-14.1));
#1353=CARTESIAN_POINT('Origin',(-5.,0.,-14.1));
#1354=CARTESIAN_POINT('',(-6.65,67.9448665389815,-14.1));
#1355=CARTESIAN_POINT('Origin',(-15.,67.9448665389815,-14.1));
#1356=CARTESIAN_POINT('',(-16.65,45.2,-14.1));
#1357=CARTESIAN_POINT('Origin',(-15.,45.2,-14.1));
#1358=CARTESIAN_POINT('',(-16.65,50.2,-14.1));
#1359=CARTESIAN_POINT('',(-16.65,67.9448665389815,-14.1));
#1360=CARTESIAN_POINT('Origin',(-15.,50.2,-14.1));
#1361=CARTESIAN_POINT('Origin',(-15.,67.9448665389815,-14.1));
#1362=CARTESIAN_POINT('',(-16.65,-8.88178419700125E-15,-14.1));
#1363=CARTESIAN_POINT('Origin',(-15.,0.,-14.1));
#1364=CARTESIAN_POINT('',(-16.65,67.9448665389815,-14.1));
#1365=CARTESIAN_POINT('Origin',(-25.,17.321825406948,-6.32182540694798));
#1366=CARTESIAN_POINT('',(-25.,17.321825406948,-3.87182540694798));
#1367=CARTESIAN_POINT('Origin',(-25.,17.321825406948,-6.32182540694798));
#1368=CARTESIAN_POINT('Origin',(-25.,17.321825406948,-6.32182540694798));
#1369=CARTESIAN_POINT('Origin',(-26.3,17.321825406948,-6.32182540694798));
#1370=CARTESIAN_POINT('Origin',(-25.,17.321825406948,-6.32182540694798));
#1371=CARTESIAN_POINT('',(-27.6,17.321825406948,-3.87182540694798));
#1372=CARTESIAN_POINT('',(-26.3,17.321825406948,-3.87182540694798));
#1373=CARTESIAN_POINT('Origin',(-27.6,17.321825406948,-6.32182540694798));
#1374=CARTESIAN_POINT('Origin',(-27.6,17.321825406948,-6.32182540694798));
#1375=CARTESIAN_POINT('',(-27.6,17.321825406948,-7.67182540694798));
#1376=CARTESIAN_POINT('Origin',(-27.6,17.321825406948,-6.32182540694798));
#1377=CARTESIAN_POINT('Origin',(-26.3,14.1,-14.1));
#1378=CARTESIAN_POINT('',(-25.,14.1,-11.65));
#1379=CARTESIAN_POINT('Origin',(-25.,14.1,-14.1));
#1380=CARTESIAN_POINT('',(-27.6,14.1,-11.65));
#1381=CARTESIAN_POINT('',(-26.3,14.1,-11.65));
#1382=CARTESIAN_POINT('Origin',(-27.6,14.1,-14.1));
#1383=CARTESIAN_POINT('Origin',(-27.6,14.1,-14.1));
#1384=CARTESIAN_POINT('',(-27.6,14.1,-15.45));
#1385=CARTESIAN_POINT('Origin',(-27.6,14.1,-14.1));
#1386=CARTESIAN_POINT('Origin',(-25.,17.321825406948,-21.878174593052));
#1387=CARTESIAN_POINT('',(-25.,18.1038911200763,-24.2));
#1388=CARTESIAN_POINT('',(-25.,16.5397596938197,-24.2));
#1389=CARTESIAN_POINT('',(-25.,5.,-24.2));
#1390=CARTESIAN_POINT('Origin',(-25.,17.321825406948,-21.878174593052));
#1391=CARTESIAN_POINT('Origin',(-26.3,17.321825406948,-21.878174593052));
#1392=CARTESIAN_POINT('',(-25.,17.321825406948,-19.428174593052));
#1393=CARTESIAN_POINT('Origin',(-25.,17.321825406948,-21.878174593052));
#1394=CARTESIAN_POINT('',(-27.6,17.321825406948,-19.428174593052));
#1395=CARTESIAN_POINT('',(-26.3,17.321825406948,-19.428174593052));
#1396=CARTESIAN_POINT('Origin',(-27.6,17.321825406948,-21.878174593052));
#1397=CARTESIAN_POINT('Origin',(-25.,17.321825406948,-21.878174593052));
#1398=CARTESIAN_POINT('Origin',(-27.6,17.321825406948,-21.878174593052));
#1399=CARTESIAN_POINT('',(-27.6,17.321825406948,-23.228174593052));
#1400=CARTESIAN_POINT('Origin',(-27.6,17.321825406948,-21.878174593052));
#1401=CARTESIAN_POINT('Origin',(-25.,32.878174593052,-21.878174593052));
#1402=CARTESIAN_POINT('',(-25.,33.6602403061803,-24.2));
#1403=CARTESIAN_POINT('',(-25.,32.0961088799238,-24.2));
#1404=CARTESIAN_POINT('',(-25.,5.,-24.2));
#1405=CARTESIAN_POINT('Origin',(-25.,32.878174593052,-21.878174593052));
#1406=CARTESIAN_POINT('Origin',(-26.3,32.878174593052,-21.878174593052));
#1407=CARTESIAN_POINT('',(-25.,32.878174593052,-19.428174593052));
#1408=CARTESIAN_POINT('Origin',(-25.,32.878174593052,-21.878174593052));
#1409=CARTESIAN_POINT('',(-27.6,32.878174593052,-19.428174593052));
#1410=CARTESIAN_POINT('',(-26.3,32.878174593052,-19.428174593052));
#1411=CARTESIAN_POINT('Origin',(-27.6,32.878174593052,-21.878174593052));
#1412=CARTESIAN_POINT('Origin',(-25.,32.878174593052,-21.878174593052));
#1413=CARTESIAN_POINT('Origin',(-27.6,32.878174593052,-21.878174593052));
#1414=CARTESIAN_POINT('',(-27.6,32.878174593052,-23.228174593052));
#1415=CARTESIAN_POINT('Origin',(-27.6,32.878174593052,-21.878174593052));
#1416=CARTESIAN_POINT('Origin',(-25.,32.878174593052,-6.32182540694797));
#1417=CARTESIAN_POINT('',(-25.,32.878174593052,-3.87182540694797));
#1418=CARTESIAN_POINT('Origin',(-25.,32.878174593052,-6.32182540694797));
#1419=CARTESIAN_POINT('Origin',(-25.,32.878174593052,-6.32182540694797));
#1420=CARTESIAN_POINT('Origin',(-26.3,32.878174593052,-6.32182540694797));
#1421=CARTESIAN_POINT('Origin',(-25.,32.878174593052,-6.32182540694797));
#1422=CARTESIAN_POINT('',(-27.6,32.878174593052,-3.87182540694797));
#1423=CARTESIAN_POINT('',(-26.3,32.878174593052,-3.87182540694797));
#1424=CARTESIAN_POINT('Origin',(-27.6,32.878174593052,-6.32182540694797));
#1425=CARTESIAN_POINT('Origin',(-27.6,32.878174593052,-6.32182540694797));
#1426=CARTESIAN_POINT('',(-27.6,32.878174593052,-7.67182540694797));
#1427=CARTESIAN_POINT('Origin',(-27.6,32.878174593052,-6.32182540694797));
#1428=CARTESIAN_POINT('Origin',(-26.3,36.1,-14.1));
#1429=CARTESIAN_POINT('',(-25.,36.1,-11.65));
#1430=CARTESIAN_POINT('Origin',(-25.,36.1,-14.1));
#1431=CARTESIAN_POINT('',(-27.6,36.1,-11.65));
#1432=CARTESIAN_POINT('',(-26.3,36.1,-11.65));
#1433=CARTESIAN_POINT('Origin',(-27.6,36.1,-14.1));
#1434=CARTESIAN_POINT('Origin',(-27.6,36.1,-14.1));
#1435=CARTESIAN_POINT('',(-27.6,36.1,-15.45));
#1436=CARTESIAN_POINT('Origin',(-27.6,36.1,-14.1));
#1437=CARTESIAN_POINT('Origin',(33.9448665389815,17.321825406948,-21.878174593052));
#1438=CARTESIAN_POINT('',(-34.,17.321825406948,-23.228174593052));
#1439=CARTESIAN_POINT('Origin',(-34.,17.321825406948,-21.878174593052));
#1440=CARTESIAN_POINT('',(33.9448665389815,17.321825406948,-23.228174593052));
#1441=CARTESIAN_POINT('Origin',(33.9448665389815,14.1,-14.1));
#1442=CARTESIAN_POINT('',(-34.,14.1,-15.45));
#1443=CARTESIAN_POINT('Origin',(-34.,14.1,-14.1));
#1444=CARTESIAN_POINT('',(33.9448665389815,14.1,-15.45));
#1445=CARTESIAN_POINT('Origin',(33.9448665389815,17.321825406948,-6.32182540694798));
#1446=CARTESIAN_POINT('',(-34.,17.321825406948,-7.67182540694798));
#1447=CARTESIAN_POINT('Origin',(-34.,17.321825406948,-6.32182540694798));
#1448=CARTESIAN_POINT('',(33.9448665389815,17.321825406948,-7.67182540694798));
#1449=CARTESIAN_POINT('Origin',(33.9448665389815,32.878174593052,-6.32182540694797));
#1450=CARTESIAN_POINT('',(-34.,32.878174593052,-7.67182540694797));
#1451=CARTESIAN_POINT('Origin',(-34.,32.878174593052,-6.32182540694797));
#1452=CARTESIAN_POINT('',(33.9448665389815,32.878174593052,-7.67182540694797));
#1453=CARTESIAN_POINT('Origin',(33.9448665389815,36.1,-14.1));
#1454=CARTESIAN_POINT('',(-34.,36.1,-15.45));
#1455=CARTESIAN_POINT('Origin',(-34.,36.1,-14.1));
#1456=CARTESIAN_POINT('',(33.9448665389815,36.1,-15.45));
#1457=CARTESIAN_POINT('Origin',(33.9448665389815,32.878174593052,-21.878174593052));
#1458=CARTESIAN_POINT('',(-34.,32.878174593052,-23.228174593052));
#1459=CARTESIAN_POINT('Origin',(-34.,32.878174593052,-21.878174593052));
#1460=CARTESIAN_POINT('',(33.9448665389815,32.878174593052,-23.228174593052));
#1461=CARTESIAN_POINT('Origin',(0.,45.2,-24.2));
#1462=CARTESIAN_POINT('',(-25.,45.2,-24.2));
#1463=CARTESIAN_POINT('',(0.,45.2,-24.2));
#1464=CARTESIAN_POINT('',(-25.,5.,-24.2));
#1465=CARTESIAN_POINT('',(-25.,5.,-24.2));
#1466=CARTESIAN_POINT('',(-25.,5.,-24.2));
#1467=CARTESIAN_POINT('Origin',(0.,45.2,-3.99999999999999));
#1468=CARTESIAN_POINT('',(-25.,45.2,-24.2));
#1469=CARTESIAN_POINT('Origin',(-25.,25.1,-14.1));
#1470=CARTESIAN_POINT('Origin',(0.,1.25,-26.95));
#1471=CARTESIAN_POINT('',(-34.,3.34823646149862E-16,-25.7));
#1472=CARTESIAN_POINT('',(-34.,2.5,-28.2));
#1473=CARTESIAN_POINT('',(-34.,4.,-29.7));
#1474=CARTESIAN_POINT('',(0.,2.5,-28.2));
#1475=CARTESIAN_POINT('',(0.,2.77555756156289E-16,-25.7));
#1476=CARTESIAN_POINT('Origin',(0.,3.67394039744207E-16,-28.2));
#1477=CARTESIAN_POINT('',(-34.,3.25703935943446E-17,-2.5));
#1478=CARTESIAN_POINT('',(0.,0.,-2.5));
#1479=CARTESIAN_POINT('',(-34.,0.,0.));
#1480=CARTESIAN_POINT('Origin',(0.,1.25,-1.25));
#1481=CARTESIAN_POINT('',(-34.,2.5,4.40293023844205E-32));
#1482=CARTESIAN_POINT('',(-34.,4.,1.5));
#1483=CARTESIAN_POINT('',(0.,2.5,0.));
#1484=CARTESIAN_POINT('Origin',(0.,0.,-1.09476442525376E-46));
#1485=CARTESIAN_POINT('',(-34.,19.0745355158295,0.));
#1486=CARTESIAN_POINT('',(0.,19.0745355158295,0.));
#1487=CARTESIAN_POINT('',(-34.,50.2,8.84108391879165E-31));
#1488=CARTESIAN_POINT('Origin',(0.,48.95,-26.95));
#1489=CARTESIAN_POINT('',(-34.,47.7,-28.2));
#1490=CARTESIAN_POINT('',(-34.,50.2,-25.7));
#1491=CARTESIAN_POINT('',(-34.,46.2,-29.7));
#1492=CARTESIAN_POINT('',(0.,50.2,-25.7));
#1493=CARTESIAN_POINT('',(0.,47.7,-28.2));
#1494=CARTESIAN_POINT('Origin',(0.,50.2,-28.2));
#1495=CARTESIAN_POINT('',(-34.,31.1254644841705,-28.2));
#1496=CARTESIAN_POINT('',(0.,31.1254644841705,-28.2));
#1497=CARTESIAN_POINT('',(-34.,0.,-28.2));
#1498=CARTESIAN_POINT('Origin',(0.,48.95,-1.25));
#1499=CARTESIAN_POINT('',(-34.,50.2,-2.5));
#1500=CARTESIAN_POINT('',(-34.,47.7,8.40079089494744E-31));
#1501=CARTESIAN_POINT('',(-34.,46.2,1.5));
#1502=CARTESIAN_POINT('',(0.,47.7,0.));
#1503=CARTESIAN_POINT('',(0.,50.2,-2.5));
#1504=CARTESIAN_POINT('Origin',(0.,31.1254644841705,5.48172995051634E-31));
#1505=CARTESIAN_POINT('',(-34.,31.1254644841705,0.));
#1506=CARTESIAN_POINT('',(-34.,50.2,8.84108391879165E-31));
#1507=CARTESIAN_POINT('',(0.,31.1254644841705,0.));
#1508=CARTESIAN_POINT('Origin',(0.,19.0745355158295,-28.2));
#1509=CARTESIAN_POINT('',(-34.,19.0745355158295,-28.2));
#1510=CARTESIAN_POINT('',(-34.,0.,-28.2));
#1511=CARTESIAN_POINT('',(0.,19.0745355158295,-28.2));
#1512=CARTESIAN_POINT('Origin',(0.,25.1,-14.1));
#1513=CARTESIAN_POINT('Origin',(-34.,25.1,-14.1));
#1514=CARTESIAN_POINT('Origin',(0.,50.2,0.));
#1515=CARTESIAN_POINT('',(-34.,50.2,-28.2));
#1516=CARTESIAN_POINT('Origin',(0.,25.1,-14.1));
#1517=CARTESIAN_POINT('Origin',(-34.,25.1,-14.1));
#1518=CARTESIAN_POINT('Origin',(-34.,25.1,-14.1));
#1519=UNCERTAINTY_MEASURE_WITH_UNIT(LENGTH_MEASURE(0.01),#1523,
'DISTANCE_ACCURACY_VALUE',
'Maximum model space distance between geometric entities at asserted c
onnectivities');
#1520=UNCERTAINTY_MEASURE_WITH_UNIT(LENGTH_MEASURE(0.01),#1523,
'DISTANCE_ACCURACY_VALUE',
'Maximum model space distance between geometric entities at asserted c
onnectivities');
#1521=(
GEOMETRIC_REPRESENTATION_CONTEXT(3)
GLOBAL_UNCERTAINTY_ASSIGNED_CONTEXT((#1519))
GLOBAL_UNIT_ASSIGNED_CONTEXT((#1523,#1525,#1526))
REPRESENTATION_CONTEXT('','3D')
);
#1522=(
GEOMETRIC_REPRESENTATION_CONTEXT(3)
GLOBAL_UNCERTAINTY_ASSIGNED_CONTEXT((#1520))
GLOBAL_UNIT_ASSIGNED_CONTEXT((#1523,#1525,#1526))
REPRESENTATION_CONTEXT('','3D')
);
#1523=(
LENGTH_UNIT()
NAMED_UNIT(*)
SI_UNIT(.MILLI.,.METRE.)
);
#1524=(
LENGTH_UNIT()
NAMED_UNIT(*)
SI_UNIT(.CENTI.,.METRE.)
);
#1525=(
NAMED_UNIT(*)
PLANE_ANGLE_UNIT()
SI_UNIT($,.RADIAN.)
);
#1526=(
NAMED_UNIT(*)
SI_UNIT($,.STERADIAN.)
SOLID_ANGLE_UNIT()
);
#1527=SHAPE_DEFINITION_REPRESENTATION(#1528,#1529);
#1528=PRODUCT_DEFINITION_SHAPE('',$,#1531);
#1529=SHAPE_REPRESENTATION('',(#907),#1521);
#1530=PRODUCT_DEFINITION_CONTEXT('part definition',#1535,'design');
#1531=PRODUCT_DEFINITION('connectpart1','connectpart1',#1532,#1530);
#1532=PRODUCT_DEFINITION_FORMATION('',$,#1537);
#1533=PRODUCT_RELATED_PRODUCT_CATEGORY('connectpart1','connectpart1',(#1537));
#1534=APPLICATION_PROTOCOL_DEFINITION('international standard',
'automotive_design',2009,#1535);
#1535=APPLICATION_CONTEXT(
'Core Data for Automotive Mechanical Design Process');
#1536=PRODUCT_CONTEXT('part definition',#1535,'mechanical');
#1537=PRODUCT('connectpart1','connectpart1',$,(#1536));
#1538=PRESENTATION_STYLE_ASSIGNMENT((#1539));
#1539=SURFACE_STYLE_USAGE(.BOTH.,#1542);
#1540=SURFACE_STYLE_RENDERING_WITH_PROPERTIES($,#1546,(#1541));
#1541=SURFACE_STYLE_TRANSPARENT(0.);
#1542=SURFACE_SIDE_STYLE('',(#1543,#1540));
#1543=SURFACE_STYLE_FILL_AREA(#1544);
#1544=FILL_AREA_STYLE('',(#1545));
#1545=FILL_AREA_STYLE_COLOUR('',#1546);
#1546=COLOUR_RGB('',0.0196078431372549,0.0196078431372549,0.0196078431372549);
ENDSEC;
END-ISO-10303-21;
