ISO-10303-21;
HEADER;
/* Generated by software containing ST-Developer
 * from STEP Tools, Inc. (www.steptools.com) 
 */

FILE_DESCRIPTION(
/* description */ (''),
/* implementation_level */ '2;1');

FILE_NAME(
/* name */ 'framefixpart2.stp',
/* time_stamp */ '2026-05-04T17:26:41+09:00',
/* author */ ('kshau'),
/* organization */ (''),
/* preprocessor_version */ 'ST-DEVELOPER v20',
/* originating_system */ 'Autodesk Inventor 2024',
/* authorisation */ '');

FILE_SCHEMA (('AUTOMOTIVE_DESIGN { 1 0 10303 214 3 1 1 }'));
ENDSEC;

DATA;
#10=MECHANICAL_DESIGN_GEOMETRIC_PRESENTATION_REPRESENTATION('',(#13),#1256);
#11=SHAPE_REPRESENTATION_RELATIONSHIP('SRR','None',#1263,#12);
#12=ADVANCED_BREP_SHAPE_REPRESENTATION('',(#14),#1255);
#13=STYLED_ITEM('',(#1272),#14);
#14=MANIFOLD_SOLID_BREP('\X2\30BD30EA30C330C9\X0\1',#739);
#15=FACE_BOUND('',#154,.T.);
#16=FACE_BOUND('',#155,.T.);
#17=FACE_BOUND('',#157,.T.);
#18=FACE_BOUND('',#158,.T.);
#19=FACE_BOUND('',#159,.T.);
#20=FACE_BOUND('',#160,.T.);
#21=FACE_BOUND('',#162,.T.);
#22=FACE_BOUND('',#179,.T.);
#23=FACE_BOUND('',#180,.T.);
#24=FACE_BOUND('',#181,.T.);
#25=FACE_BOUND('',#182,.T.);
#26=FACE_BOUND('',#185,.T.);
#27=FACE_BOUND('',#186,.T.);
#28=FACE_BOUND('',#189,.T.);
#29=FACE_BOUND('',#190,.T.);
#30=FACE_BOUND('',#191,.T.);
#31=FACE_BOUND('',#192,.T.);
#32=FACE_BOUND('',#195,.T.);
#33=FACE_BOUND('',#196,.T.);
#34=FACE_BOUND('',#198,.T.);
#35=FACE_BOUND('',#199,.T.);
#36=FACE_BOUND('',#200,.T.);
#37=FACE_BOUND('',#201,.T.);
#38=FACE_BOUND('',#203,.T.);
#39=FACE_BOUND('',#204,.T.);
#40=FACE_BOUND('',#206,.T.);
#41=FACE_BOUND('',#207,.T.);
#42=FACE_BOUND('',#208,.T.);
#43=FACE_BOUND('',#210,.T.);
#44=FACE_BOUND('',#211,.T.);
#45=FACE_BOUND('',#212,.T.);
#46=CIRCLE('',#775,1.65);
#47=CIRCLE('',#776,1.65);
#48=CIRCLE('',#778,1.65);
#49=CIRCLE('',#779,1.65);
#50=CIRCLE('',#780,1.65);
#51=CIRCLE('',#781,1.65);
#52=CIRCLE('',#783,5.);
#53=CIRCLE('',#784,5.);
#54=CIRCLE('',#785,5.);
#55=CIRCLE('',#786,5.);
#56=CIRCLE('',#788,1.6);
#57=CIRCLE('',#789,1.6);
#58=CIRCLE('',#791,1.6);
#59=CIRCLE('',#792,1.6);
#60=CIRCLE('',#794,1.65);
#61=CIRCLE('',#795,1.65);
#62=CIRCLE('',#797,1.65);
#63=CIRCLE('',#799,1.65);
#64=CIRCLE('',#800,1.65);
#65=CIRCLE('',#802,1.65);
#66=CIRCLE('',#804,1.65);
#67=CIRCLE('',#806,1.65);
#68=CIRCLE('',#807,1.65);
#69=CIRCLE('',#809,1.65);
#70=CIRCLE('',#811,1.65);
#71=CIRCLE('',#812,1.65);
#72=CIRCLE('',#814,1.65);
#73=CIRCLE('',#816,1.65);
#74=CIRCLE('',#817,1.65);
#75=CIRCLE('',#819,1.65);
#76=CIRCLE('',#821,1.65);
#77=CIRCLE('',#822,1.65);
#78=CIRCLE('',#824,5.);
#79=CIRCLE('',#827,5.);
#80=CIRCLE('',#830,5.);
#81=CIRCLE('',#833,5.);
#82=ELLIPSE('',#767,1.41421356237308,1.);
#83=ELLIPSE('',#768,1.41421356237312,1.);
#84=ELLIPSE('',#770,1.41421356237313,1.);
#85=ELLIPSE('',#772,1.41421356237309,1.);
#86=CYLINDRICAL_SURFACE('',#766,1.);
#87=CYLINDRICAL_SURFACE('',#769,1.);
#88=CYLINDRICAL_SURFACE('',#771,1.);
#89=CYLINDRICAL_SURFACE('',#773,1.);
#90=CYLINDRICAL_SURFACE('',#787,1.6);
#91=CYLINDRICAL_SURFACE('',#790,1.6);
#92=CYLINDRICAL_SURFACE('',#793,1.65);
#93=CYLINDRICAL_SURFACE('',#796,1.65);
#94=CYLINDRICAL_SURFACE('',#798,1.65);
#95=CYLINDRICAL_SURFACE('',#801,1.65);
#96=CYLINDRICAL_SURFACE('',#803,1.65);
#97=CYLINDRICAL_SURFACE('',#805,1.65);
#98=CYLINDRICAL_SURFACE('',#808,1.65);
#99=CYLINDRICAL_SURFACE('',#810,1.65);
#100=CYLINDRICAL_SURFACE('',#813,1.65);
#101=CYLINDRICAL_SURFACE('',#815,1.65);
#102=CYLINDRICAL_SURFACE('',#818,1.65);
#103=CYLINDRICAL_SURFACE('',#820,1.65);
#104=CYLINDRICAL_SURFACE('',#823,5.);
#105=CYLINDRICAL_SURFACE('',#826,5.);
#106=CYLINDRICAL_SURFACE('',#829,5.);
#107=CYLINDRICAL_SURFACE('',#832,5.);
#108=FACE_OUTER_BOUND('',#145,.T.);
#109=FACE_OUTER_BOUND('',#146,.T.);
#110=FACE_OUTER_BOUND('',#147,.T.);
#111=FACE_OUTER_BOUND('',#148,.T.);
#112=FACE_OUTER_BOUND('',#149,.T.);
#113=FACE_OUTER_BOUND('',#150,.T.);
#114=FACE_OUTER_BOUND('',#151,.T.);
#115=FACE_OUTER_BOUND('',#152,.T.);
#116=FACE_OUTER_BOUND('',#153,.T.);
#117=FACE_OUTER_BOUND('',#156,.T.);
#118=FACE_OUTER_BOUND('',#161,.T.);
#119=FACE_OUTER_BOUND('',#163,.T.);
#120=FACE_OUTER_BOUND('',#164,.T.);
#121=FACE_OUTER_BOUND('',#165,.T.);
#122=FACE_OUTER_BOUND('',#166,.T.);
#123=FACE_OUTER_BOUND('',#167,.T.);
#124=FACE_OUTER_BOUND('',#168,.T.);
#125=FACE_OUTER_BOUND('',#169,.T.);
#126=FACE_OUTER_BOUND('',#170,.T.);
#127=FACE_OUTER_BOUND('',#171,.T.);
#128=FACE_OUTER_BOUND('',#172,.T.);
#129=FACE_OUTER_BOUND('',#173,.T.);
#130=FACE_OUTER_BOUND('',#174,.T.);
#131=FACE_OUTER_BOUND('',#175,.T.);
#132=FACE_OUTER_BOUND('',#176,.T.);
#133=FACE_OUTER_BOUND('',#177,.T.);
#134=FACE_OUTER_BOUND('',#178,.T.);
#135=FACE_OUTER_BOUND('',#183,.T.);
#136=FACE_OUTER_BOUND('',#184,.T.);
#137=FACE_OUTER_BOUND('',#187,.T.);
#138=FACE_OUTER_BOUND('',#188,.T.);
#139=FACE_OUTER_BOUND('',#193,.T.);
#140=FACE_OUTER_BOUND('',#194,.T.);
#141=FACE_OUTER_BOUND('',#197,.T.);
#142=FACE_OUTER_BOUND('',#202,.T.);
#143=FACE_OUTER_BOUND('',#205,.T.);
#144=FACE_OUTER_BOUND('',#209,.T.);
#145=EDGE_LOOP('',(#491,#492,#493,#494));
#146=EDGE_LOOP('',(#495,#496,#497,#498));
#147=EDGE_LOOP('',(#499,#500,#501,#502));
#148=EDGE_LOOP('',(#503,#504,#505,#506));
#149=EDGE_LOOP('',(#507,#508,#509,#510));
#150=EDGE_LOOP('',(#511,#512,#513,#514));
#151=EDGE_LOOP('',(#515,#516,#517,#518));
#152=EDGE_LOOP('',(#519,#520,#521,#522));
#153=EDGE_LOOP('',(#523,#524,#525,#526));
#154=EDGE_LOOP('',(#527));
#155=EDGE_LOOP('',(#528));
#156=EDGE_LOOP('',(#529,#530,#531,#532));
#157=EDGE_LOOP('',(#533));
#158=EDGE_LOOP('',(#534));
#159=EDGE_LOOP('',(#535));
#160=EDGE_LOOP('',(#536));
#161=EDGE_LOOP('',(#537,#538,#539,#540,#541,#542,#543,#544));
#162=EDGE_LOOP('',(#545,#546,#547,#548));
#163=EDGE_LOOP('',(#549,#550,#551,#552));
#164=EDGE_LOOP('',(#553,#554,#555,#556));
#165=EDGE_LOOP('',(#557,#558,#559,#560));
#166=EDGE_LOOP('',(#561,#562,#563,#564));
#167=EDGE_LOOP('',(#565,#566,#567,#568));
#168=EDGE_LOOP('',(#569,#570,#571,#572));
#169=EDGE_LOOP('',(#573,#574,#575,#576));
#170=EDGE_LOOP('',(#577,#578,#579,#580));
#171=EDGE_LOOP('',(#581,#582,#583,#584));
#172=EDGE_LOOP('',(#585,#586,#587,#588));
#173=EDGE_LOOP('',(#589,#590,#591,#592));
#174=EDGE_LOOP('',(#593,#594,#595,#596));
#175=EDGE_LOOP('',(#597,#598,#599,#600));
#176=EDGE_LOOP('',(#601,#602,#603,#604));
#177=EDGE_LOOP('',(#605,#606,#607,#608));
#178=EDGE_LOOP('',(#609,#610,#611,#612));
#179=EDGE_LOOP('',(#613));
#180=EDGE_LOOP('',(#614));
#181=EDGE_LOOP('',(#615));
#182=EDGE_LOOP('',(#616));
#183=EDGE_LOOP('',(#617,#618,#619,#620));
#184=EDGE_LOOP('',(#621,#622,#623,#624));
#185=EDGE_LOOP('',(#625));
#186=EDGE_LOOP('',(#626));
#187=EDGE_LOOP('',(#627,#628,#629,#630));
#188=EDGE_LOOP('',(#631,#632,#633,#634));
#189=EDGE_LOOP('',(#635));
#190=EDGE_LOOP('',(#636));
#191=EDGE_LOOP('',(#637));
#192=EDGE_LOOP('',(#638));
#193=EDGE_LOOP('',(#639,#640,#641,#642));
#194=EDGE_LOOP('',(#643,#644,#645,#646));
#195=EDGE_LOOP('',(#647));
#196=EDGE_LOOP('',(#648));
#197=EDGE_LOOP('',(#649,#650,#651,#652));
#198=EDGE_LOOP('',(#653));
#199=EDGE_LOOP('',(#654));
#200=EDGE_LOOP('',(#655));
#201=EDGE_LOOP('',(#656));
#202=EDGE_LOOP('',(#657,#658,#659,#660));
#203=EDGE_LOOP('',(#661));
#204=EDGE_LOOP('',(#662));
#205=EDGE_LOOP('',(#663,#664,#665,#666));
#206=EDGE_LOOP('',(#667,#668,#669,#670));
#207=EDGE_LOOP('',(#671));
#208=EDGE_LOOP('',(#672));
#209=EDGE_LOOP('',(#673,#674,#675,#676,#677,#678,#679,#680));
#210=EDGE_LOOP('',(#681,#682,#683,#684));
#211=EDGE_LOOP('',(#685));
#212=EDGE_LOOP('',(#686));
#213=LINE('',#1057,#271);
#214=LINE('',#1059,#272);
#215=LINE('',#1061,#273);
#216=LINE('',#1062,#274);
#217=LINE('',#1065,#275);
#218=LINE('',#1067,#276);
#219=LINE('',#1068,#277);
#220=LINE('',#1071,#278);
#221=LINE('',#1073,#279);
#222=LINE('',#1074,#280);
#223=LINE('',#1076,#281);
#224=LINE('',#1077,#282);
#225=LINE('',#1081,#283);
#226=LINE('',#1085,#284);
#227=LINE('',#1089,#285);
#228=LINE('',#1092,#286);
#229=LINE('',#1095,#287);
#230=LINE('',#1098,#288);
#231=LINE('',#1100,#289);
#232=LINE('',#1101,#290);
#233=LINE('',#1104,#291);
#234=LINE('',#1106,#292);
#235=LINE('',#1107,#293);
#236=LINE('',#1114,#294);
#237=LINE('',#1115,#295);
#238=LINE('',#1129,#296);
#239=LINE('',#1133,#297);
#240=LINE('',#1137,#298);
#241=LINE('',#1140,#299);
#242=LINE('',#1145,#300);
#243=LINE('',#1151,#301);
#244=LINE('',#1157,#302);
#245=LINE('',#1162,#303);
#246=LINE('',#1167,#304);
#247=LINE('',#1172,#305);
#248=LINE('',#1175,#306);
#249=LINE('',#1181,#307);
#250=LINE('',#1185,#308);
#251=LINE('',#1191,#309);
#252=LINE('',#1195,#310);
#253=LINE('',#1201,#311);
#254=LINE('',#1205,#312);
#255=LINE('',#1211,#313);
#256=LINE('',#1215,#314);
#257=LINE('',#1218,#315);
#258=LINE('',#1221,#316);
#259=LINE('',#1222,#317);
#260=LINE('',#1225,#318);
#261=LINE('',#1229,#319);
#262=LINE('',#1230,#320);
#263=LINE('',#1233,#321);
#264=LINE('',#1237,#322);
#265=LINE('',#1238,#323);
#266=LINE('',#1241,#324);
#267=LINE('',#1244,#325);
#268=LINE('',#1247,#326);
#269=LINE('',#1248,#327);
#270=LINE('',#1250,#328);
#271=VECTOR('',#843,10.);
#272=VECTOR('',#844,10.);
#273=VECTOR('',#845,10.);
#274=VECTOR('',#846,10.);
#275=VECTOR('',#849,10.);
#276=VECTOR('',#850,10.);
#277=VECTOR('',#851,10.);
#278=VECTOR('',#854,10.);
#279=VECTOR('',#855,10.);
#280=VECTOR('',#856,10.);
#281=VECTOR('',#859,10.);
#282=VECTOR('',#860,10.);
#283=VECTOR('',#863,10.);
#284=VECTOR('',#866,10.);
#285=VECTOR('',#871,10.);
#286=VECTOR('',#874,10.);
#287=VECTOR('',#877,10.);
#288=VECTOR('',#880,10.);
#289=VECTOR('',#883,10.);
#290=VECTOR('',#884,10.);
#291=VECTOR('',#887,10.);
#292=VECTOR('',#888,10.);
#293=VECTOR('',#889,10.);
#294=VECTOR('',#896,10.);
#295=VECTOR('',#897,10.);
#296=VECTOR('',#910,10.);
#297=VECTOR('',#913,10.);
#298=VECTOR('',#916,10.);
#299=VECTOR('',#919,10.);
#300=VECTOR('',#924,1.6);
#301=VECTOR('',#931,1.6);
#302=VECTOR('',#938,1.65);
#303=VECTOR('',#945,1.65);
#304=VECTOR('',#950,1.65);
#305=VECTOR('',#957,1.65);
#306=VECTOR('',#960,1.65);
#307=VECTOR('',#967,1.65);
#308=VECTOR('',#972,1.65);
#309=VECTOR('',#979,1.65);
#310=VECTOR('',#984,1.65);
#311=VECTOR('',#991,1.65);
#312=VECTOR('',#996,1.65);
#313=VECTOR('',#1003,1.65);
#314=VECTOR('',#1008,10.);
#315=VECTOR('',#1011,10.);
#316=VECTOR('',#1014,10.);
#317=VECTOR('',#1015,10.);
#318=VECTOR('',#1018,10.);
#319=VECTOR('',#1023,10.);
#320=VECTOR('',#1024,10.);
#321=VECTOR('',#1027,10.);
#322=VECTOR('',#1032,10.);
#323=VECTOR('',#1033,10.);
#324=VECTOR('',#1036,10.);
#325=VECTOR('',#1041,10.);
#326=VECTOR('',#1044,10.);
#327=VECTOR('',#1045,10.);
#328=VECTOR('',#1048,10.);
#329=VERTEX_POINT('',#1055);
#330=VERTEX_POINT('',#1056);
#331=VERTEX_POINT('',#1058);
#332=VERTEX_POINT('',#1060);
#333=VERTEX_POINT('',#1064);
#334=VERTEX_POINT('',#1066);
#335=VERTEX_POINT('',#1070);
#336=VERTEX_POINT('',#1072);
#337=VERTEX_POINT('',#1079);
#338=VERTEX_POINT('',#1080);
#339=VERTEX_POINT('',#1082);
#340=VERTEX_POINT('',#1084);
#341=VERTEX_POINT('',#1088);
#342=VERTEX_POINT('',#1090);
#343=VERTEX_POINT('',#1094);
#344=VERTEX_POINT('',#1096);
#345=VERTEX_POINT('',#1103);
#346=VERTEX_POINT('',#1105);
#347=VERTEX_POINT('',#1108);
#348=VERTEX_POINT('',#1110);
#349=VERTEX_POINT('',#1113);
#350=VERTEX_POINT('',#1116);
#351=VERTEX_POINT('',#1118);
#352=VERTEX_POINT('',#1120);
#353=VERTEX_POINT('',#1122);
#354=VERTEX_POINT('',#1125);
#355=VERTEX_POINT('',#1126);
#356=VERTEX_POINT('',#1128);
#357=VERTEX_POINT('',#1130);
#358=VERTEX_POINT('',#1132);
#359=VERTEX_POINT('',#1134);
#360=VERTEX_POINT('',#1136);
#361=VERTEX_POINT('',#1138);
#362=VERTEX_POINT('',#1142);
#363=VERTEX_POINT('',#1144);
#364=VERTEX_POINT('',#1148);
#365=VERTEX_POINT('',#1150);
#366=VERTEX_POINT('',#1154);
#367=VERTEX_POINT('',#1156);
#368=VERTEX_POINT('',#1160);
#369=VERTEX_POINT('',#1164);
#370=VERTEX_POINT('',#1166);
#371=VERTEX_POINT('',#1170);
#372=VERTEX_POINT('',#1174);
#373=VERTEX_POINT('',#1178);
#374=VERTEX_POINT('',#1180);
#375=VERTEX_POINT('',#1184);
#376=VERTEX_POINT('',#1188);
#377=VERTEX_POINT('',#1190);
#378=VERTEX_POINT('',#1194);
#379=VERTEX_POINT('',#1198);
#380=VERTEX_POINT('',#1200);
#381=VERTEX_POINT('',#1204);
#382=VERTEX_POINT('',#1208);
#383=VERTEX_POINT('',#1210);
#384=VERTEX_POINT('',#1214);
#385=VERTEX_POINT('',#1216);
#386=VERTEX_POINT('',#1220);
#387=VERTEX_POINT('',#1224);
#388=VERTEX_POINT('',#1228);
#389=VERTEX_POINT('',#1232);
#390=VERTEX_POINT('',#1236);
#391=VERTEX_POINT('',#1240);
#392=VERTEX_POINT('',#1246);
#393=EDGE_CURVE('',#329,#330,#213,.T.);
#394=EDGE_CURVE('',#329,#331,#214,.T.);
#395=EDGE_CURVE('',#332,#331,#215,.T.);
#396=EDGE_CURVE('',#330,#332,#216,.T.);
#397=EDGE_CURVE('',#333,#329,#217,.T.);
#398=EDGE_CURVE('',#333,#334,#218,.T.);
#399=EDGE_CURVE('',#331,#334,#219,.T.);
#400=EDGE_CURVE('',#335,#333,#220,.T.);
#401=EDGE_CURVE('',#335,#336,#221,.T.);
#402=EDGE_CURVE('',#334,#336,#222,.T.);
#403=EDGE_CURVE('',#330,#335,#223,.T.);
#404=EDGE_CURVE('',#336,#332,#224,.T.);
#405=EDGE_CURVE('',#337,#338,#225,.T.);
#406=EDGE_CURVE('',#338,#339,#82,.T.);
#407=EDGE_CURVE('',#339,#340,#226,.T.);
#408=EDGE_CURVE('',#337,#340,#83,.T.);
#409=EDGE_CURVE('',#338,#341,#227,.T.);
#410=EDGE_CURVE('',#341,#342,#84,.T.);
#411=EDGE_CURVE('',#342,#339,#228,.T.);
#412=EDGE_CURVE('',#341,#343,#229,.T.);
#413=EDGE_CURVE('',#343,#344,#85,.T.);
#414=EDGE_CURVE('',#344,#342,#230,.T.);
#415=EDGE_CURVE('',#340,#344,#231,.T.);
#416=EDGE_CURVE('',#343,#337,#232,.T.);
#417=EDGE_CURVE('',#345,#340,#233,.T.);
#418=EDGE_CURVE('',#346,#345,#234,.T.);
#419=EDGE_CURVE('',#346,#344,#235,.T.);
#420=EDGE_CURVE('',#347,#347,#46,.T.);
#421=EDGE_CURVE('',#348,#348,#47,.T.);
#422=EDGE_CURVE('',#349,#339,#236,.T.);
#423=EDGE_CURVE('',#345,#349,#237,.T.);
#424=EDGE_CURVE('',#350,#350,#48,.T.);
#425=EDGE_CURVE('',#351,#351,#49,.T.);
#426=EDGE_CURVE('',#352,#352,#50,.T.);
#427=EDGE_CURVE('',#353,#353,#51,.T.);
#428=EDGE_CURVE('',#354,#355,#52,.T.);
#429=EDGE_CURVE('',#354,#356,#238,.T.);
#430=EDGE_CURVE('',#357,#356,#53,.T.);
#431=EDGE_CURVE('',#357,#358,#239,.T.);
#432=EDGE_CURVE('',#359,#358,#54,.T.);
#433=EDGE_CURVE('',#359,#360,#240,.T.);
#434=EDGE_CURVE('',#361,#360,#55,.T.);
#435=EDGE_CURVE('',#361,#355,#241,.T.);
#436=EDGE_CURVE('',#362,#362,#56,.T.);
#437=EDGE_CURVE('',#362,#363,#242,.T.);
#438=EDGE_CURVE('',#363,#363,#57,.T.);
#439=EDGE_CURVE('',#364,#364,#58,.T.);
#440=EDGE_CURVE('',#364,#365,#243,.T.);
#441=EDGE_CURVE('',#365,#365,#59,.T.);
#442=EDGE_CURVE('',#366,#366,#60,.T.);
#443=EDGE_CURVE('',#366,#367,#244,.T.);
#444=EDGE_CURVE('',#367,#367,#61,.T.);
#445=EDGE_CURVE('',#368,#368,#62,.T.);
#446=EDGE_CURVE('',#368,#348,#245,.T.);
#447=EDGE_CURVE('',#369,#369,#63,.T.);
#448=EDGE_CURVE('',#369,#370,#246,.T.);
#449=EDGE_CURVE('',#370,#370,#64,.T.);
#450=EDGE_CURVE('',#371,#371,#65,.T.);
#451=EDGE_CURVE('',#371,#347,#247,.T.);
#452=EDGE_CURVE('',#353,#372,#248,.T.);
#453=EDGE_CURVE('',#372,#372,#66,.T.);
#454=EDGE_CURVE('',#373,#373,#67,.T.);
#455=EDGE_CURVE('',#373,#374,#249,.T.);
#456=EDGE_CURVE('',#374,#374,#68,.T.);
#457=EDGE_CURVE('',#352,#375,#250,.T.);
#458=EDGE_CURVE('',#375,#375,#69,.T.);
#459=EDGE_CURVE('',#376,#376,#70,.T.);
#460=EDGE_CURVE('',#376,#377,#251,.T.);
#461=EDGE_CURVE('',#377,#377,#71,.T.);
#462=EDGE_CURVE('',#351,#378,#252,.T.);
#463=EDGE_CURVE('',#378,#378,#72,.T.);
#464=EDGE_CURVE('',#379,#379,#73,.T.);
#465=EDGE_CURVE('',#379,#380,#253,.T.);
#466=EDGE_CURVE('',#380,#380,#74,.T.);
#467=EDGE_CURVE('',#350,#381,#254,.T.);
#468=EDGE_CURVE('',#381,#381,#75,.T.);
#469=EDGE_CURVE('',#382,#382,#76,.T.);
#470=EDGE_CURVE('',#382,#383,#255,.T.);
#471=EDGE_CURVE('',#383,#383,#77,.T.);
#472=EDGE_CURVE('',#355,#384,#256,.T.);
#473=EDGE_CURVE('',#384,#385,#78,.T.);
#474=EDGE_CURVE('',#385,#354,#257,.T.);
#475=EDGE_CURVE('',#386,#361,#258,.T.);
#476=EDGE_CURVE('',#386,#384,#259,.T.);
#477=EDGE_CURVE('',#360,#387,#260,.T.);
#478=EDGE_CURVE('',#387,#386,#79,.T.);
#479=EDGE_CURVE('',#388,#359,#261,.T.);
#480=EDGE_CURVE('',#388,#387,#262,.T.);
#481=EDGE_CURVE('',#358,#389,#263,.T.);
#482=EDGE_CURVE('',#389,#388,#80,.T.);
#483=EDGE_CURVE('',#390,#357,#264,.T.);
#484=EDGE_CURVE('',#390,#389,#265,.T.);
#485=EDGE_CURVE('',#356,#391,#266,.T.);
#486=EDGE_CURVE('',#391,#390,#81,.T.);
#487=EDGE_CURVE('',#385,#391,#267,.T.);
#488=EDGE_CURVE('',#392,#346,#268,.T.);
#489=EDGE_CURVE('',#392,#342,#269,.T.);
#490=EDGE_CURVE('',#349,#392,#270,.T.);
#491=ORIENTED_EDGE('',*,*,#393,.F.);
#492=ORIENTED_EDGE('',*,*,#394,.T.);
#493=ORIENTED_EDGE('',*,*,#395,.F.);
#494=ORIENTED_EDGE('',*,*,#396,.F.);
#495=ORIENTED_EDGE('',*,*,#397,.F.);
#496=ORIENTED_EDGE('',*,*,#398,.T.);
#497=ORIENTED_EDGE('',*,*,#399,.F.);
#498=ORIENTED_EDGE('',*,*,#394,.F.);
#499=ORIENTED_EDGE('',*,*,#400,.F.);
#500=ORIENTED_EDGE('',*,*,#401,.T.);
#501=ORIENTED_EDGE('',*,*,#402,.F.);
#502=ORIENTED_EDGE('',*,*,#398,.F.);
#503=ORIENTED_EDGE('',*,*,#403,.F.);
#504=ORIENTED_EDGE('',*,*,#396,.T.);
#505=ORIENTED_EDGE('',*,*,#404,.F.);
#506=ORIENTED_EDGE('',*,*,#401,.F.);
#507=ORIENTED_EDGE('',*,*,#405,.T.);
#508=ORIENTED_EDGE('',*,*,#406,.T.);
#509=ORIENTED_EDGE('',*,*,#407,.T.);
#510=ORIENTED_EDGE('',*,*,#408,.F.);
#511=ORIENTED_EDGE('',*,*,#409,.T.);
#512=ORIENTED_EDGE('',*,*,#410,.T.);
#513=ORIENTED_EDGE('',*,*,#411,.T.);
#514=ORIENTED_EDGE('',*,*,#406,.F.);
#515=ORIENTED_EDGE('',*,*,#412,.T.);
#516=ORIENTED_EDGE('',*,*,#413,.T.);
#517=ORIENTED_EDGE('',*,*,#414,.T.);
#518=ORIENTED_EDGE('',*,*,#410,.F.);
#519=ORIENTED_EDGE('',*,*,#415,.T.);
#520=ORIENTED_EDGE('',*,*,#413,.F.);
#521=ORIENTED_EDGE('',*,*,#416,.T.);
#522=ORIENTED_EDGE('',*,*,#408,.T.);
#523=ORIENTED_EDGE('',*,*,#415,.F.);
#524=ORIENTED_EDGE('',*,*,#417,.F.);
#525=ORIENTED_EDGE('',*,*,#418,.F.);
#526=ORIENTED_EDGE('',*,*,#419,.T.);
#527=ORIENTED_EDGE('',*,*,#420,.T.);
#528=ORIENTED_EDGE('',*,*,#421,.T.);
#529=ORIENTED_EDGE('',*,*,#407,.F.);
#530=ORIENTED_EDGE('',*,*,#422,.F.);
#531=ORIENTED_EDGE('',*,*,#423,.F.);
#532=ORIENTED_EDGE('',*,*,#417,.T.);
#533=ORIENTED_EDGE('',*,*,#424,.T.);
#534=ORIENTED_EDGE('',*,*,#425,.T.);
#535=ORIENTED_EDGE('',*,*,#426,.T.);
#536=ORIENTED_EDGE('',*,*,#427,.T.);
#537=ORIENTED_EDGE('',*,*,#428,.F.);
#538=ORIENTED_EDGE('',*,*,#429,.T.);
#539=ORIENTED_EDGE('',*,*,#430,.F.);
#540=ORIENTED_EDGE('',*,*,#431,.T.);
#541=ORIENTED_EDGE('',*,*,#432,.F.);
#542=ORIENTED_EDGE('',*,*,#433,.T.);
#543=ORIENTED_EDGE('',*,*,#434,.F.);
#544=ORIENTED_EDGE('',*,*,#435,.T.);
#545=ORIENTED_EDGE('',*,*,#405,.F.);
#546=ORIENTED_EDGE('',*,*,#416,.F.);
#547=ORIENTED_EDGE('',*,*,#412,.F.);
#548=ORIENTED_EDGE('',*,*,#409,.F.);
#549=ORIENTED_EDGE('',*,*,#436,.F.);
#550=ORIENTED_EDGE('',*,*,#437,.T.);
#551=ORIENTED_EDGE('',*,*,#438,.F.);
#552=ORIENTED_EDGE('',*,*,#437,.F.);
#553=ORIENTED_EDGE('',*,*,#439,.F.);
#554=ORIENTED_EDGE('',*,*,#440,.T.);
#555=ORIENTED_EDGE('',*,*,#441,.F.);
#556=ORIENTED_EDGE('',*,*,#440,.F.);
#557=ORIENTED_EDGE('',*,*,#442,.F.);
#558=ORIENTED_EDGE('',*,*,#443,.T.);
#559=ORIENTED_EDGE('',*,*,#444,.F.);
#560=ORIENTED_EDGE('',*,*,#443,.F.);
#561=ORIENTED_EDGE('',*,*,#445,.F.);
#562=ORIENTED_EDGE('',*,*,#446,.T.);
#563=ORIENTED_EDGE('',*,*,#421,.F.);
#564=ORIENTED_EDGE('',*,*,#446,.F.);
#565=ORIENTED_EDGE('',*,*,#447,.F.);
#566=ORIENTED_EDGE('',*,*,#448,.T.);
#567=ORIENTED_EDGE('',*,*,#449,.F.);
#568=ORIENTED_EDGE('',*,*,#448,.F.);
#569=ORIENTED_EDGE('',*,*,#450,.F.);
#570=ORIENTED_EDGE('',*,*,#451,.T.);
#571=ORIENTED_EDGE('',*,*,#420,.F.);
#572=ORIENTED_EDGE('',*,*,#451,.F.);
#573=ORIENTED_EDGE('',*,*,#427,.F.);
#574=ORIENTED_EDGE('',*,*,#452,.T.);
#575=ORIENTED_EDGE('',*,*,#453,.F.);
#576=ORIENTED_EDGE('',*,*,#452,.F.);
#577=ORIENTED_EDGE('',*,*,#454,.F.);
#578=ORIENTED_EDGE('',*,*,#455,.T.);
#579=ORIENTED_EDGE('',*,*,#456,.F.);
#580=ORIENTED_EDGE('',*,*,#455,.F.);
#581=ORIENTED_EDGE('',*,*,#426,.F.);
#582=ORIENTED_EDGE('',*,*,#457,.T.);
#583=ORIENTED_EDGE('',*,*,#458,.F.);
#584=ORIENTED_EDGE('',*,*,#457,.F.);
#585=ORIENTED_EDGE('',*,*,#459,.F.);
#586=ORIENTED_EDGE('',*,*,#460,.T.);
#587=ORIENTED_EDGE('',*,*,#461,.F.);
#588=ORIENTED_EDGE('',*,*,#460,.F.);
#589=ORIENTED_EDGE('',*,*,#425,.F.);
#590=ORIENTED_EDGE('',*,*,#462,.T.);
#591=ORIENTED_EDGE('',*,*,#463,.F.);
#592=ORIENTED_EDGE('',*,*,#462,.F.);
#593=ORIENTED_EDGE('',*,*,#464,.F.);
#594=ORIENTED_EDGE('',*,*,#465,.T.);
#595=ORIENTED_EDGE('',*,*,#466,.F.);
#596=ORIENTED_EDGE('',*,*,#465,.F.);
#597=ORIENTED_EDGE('',*,*,#424,.F.);
#598=ORIENTED_EDGE('',*,*,#467,.T.);
#599=ORIENTED_EDGE('',*,*,#468,.F.);
#600=ORIENTED_EDGE('',*,*,#467,.F.);
#601=ORIENTED_EDGE('',*,*,#469,.F.);
#602=ORIENTED_EDGE('',*,*,#470,.T.);
#603=ORIENTED_EDGE('',*,*,#471,.F.);
#604=ORIENTED_EDGE('',*,*,#470,.F.);
#605=ORIENTED_EDGE('',*,*,#428,.T.);
#606=ORIENTED_EDGE('',*,*,#472,.T.);
#607=ORIENTED_EDGE('',*,*,#473,.T.);
#608=ORIENTED_EDGE('',*,*,#474,.T.);
#609=ORIENTED_EDGE('',*,*,#472,.F.);
#610=ORIENTED_EDGE('',*,*,#435,.F.);
#611=ORIENTED_EDGE('',*,*,#475,.F.);
#612=ORIENTED_EDGE('',*,*,#476,.T.);
#613=ORIENTED_EDGE('',*,*,#453,.T.);
#614=ORIENTED_EDGE('',*,*,#458,.T.);
#615=ORIENTED_EDGE('',*,*,#463,.T.);
#616=ORIENTED_EDGE('',*,*,#468,.T.);
#617=ORIENTED_EDGE('',*,*,#434,.T.);
#618=ORIENTED_EDGE('',*,*,#477,.T.);
#619=ORIENTED_EDGE('',*,*,#478,.T.);
#620=ORIENTED_EDGE('',*,*,#475,.T.);
#621=ORIENTED_EDGE('',*,*,#477,.F.);
#622=ORIENTED_EDGE('',*,*,#433,.F.);
#623=ORIENTED_EDGE('',*,*,#479,.F.);
#624=ORIENTED_EDGE('',*,*,#480,.T.);
#625=ORIENTED_EDGE('',*,*,#445,.T.);
#626=ORIENTED_EDGE('',*,*,#450,.T.);
#627=ORIENTED_EDGE('',*,*,#432,.T.);
#628=ORIENTED_EDGE('',*,*,#481,.T.);
#629=ORIENTED_EDGE('',*,*,#482,.T.);
#630=ORIENTED_EDGE('',*,*,#479,.T.);
#631=ORIENTED_EDGE('',*,*,#481,.F.);
#632=ORIENTED_EDGE('',*,*,#431,.F.);
#633=ORIENTED_EDGE('',*,*,#483,.F.);
#634=ORIENTED_EDGE('',*,*,#484,.T.);
#635=ORIENTED_EDGE('',*,*,#454,.T.);
#636=ORIENTED_EDGE('',*,*,#459,.T.);
#637=ORIENTED_EDGE('',*,*,#464,.T.);
#638=ORIENTED_EDGE('',*,*,#469,.T.);
#639=ORIENTED_EDGE('',*,*,#430,.T.);
#640=ORIENTED_EDGE('',*,*,#485,.T.);
#641=ORIENTED_EDGE('',*,*,#486,.T.);
#642=ORIENTED_EDGE('',*,*,#483,.T.);
#643=ORIENTED_EDGE('',*,*,#474,.F.);
#644=ORIENTED_EDGE('',*,*,#487,.T.);
#645=ORIENTED_EDGE('',*,*,#485,.F.);
#646=ORIENTED_EDGE('',*,*,#429,.F.);
#647=ORIENTED_EDGE('',*,*,#444,.T.);
#648=ORIENTED_EDGE('',*,*,#449,.T.);
#649=ORIENTED_EDGE('',*,*,#414,.F.);
#650=ORIENTED_EDGE('',*,*,#419,.F.);
#651=ORIENTED_EDGE('',*,*,#488,.F.);
#652=ORIENTED_EDGE('',*,*,#489,.T.);
#653=ORIENTED_EDGE('',*,*,#456,.T.);
#654=ORIENTED_EDGE('',*,*,#461,.T.);
#655=ORIENTED_EDGE('',*,*,#466,.T.);
#656=ORIENTED_EDGE('',*,*,#471,.T.);
#657=ORIENTED_EDGE('',*,*,#411,.F.);
#658=ORIENTED_EDGE('',*,*,#489,.F.);
#659=ORIENTED_EDGE('',*,*,#490,.F.);
#660=ORIENTED_EDGE('',*,*,#422,.T.);
#661=ORIENTED_EDGE('',*,*,#442,.T.);
#662=ORIENTED_EDGE('',*,*,#447,.T.);
#663=ORIENTED_EDGE('',*,*,#488,.T.);
#664=ORIENTED_EDGE('',*,*,#418,.T.);
#665=ORIENTED_EDGE('',*,*,#423,.T.);
#666=ORIENTED_EDGE('',*,*,#490,.T.);
#667=ORIENTED_EDGE('',*,*,#395,.T.);
#668=ORIENTED_EDGE('',*,*,#399,.T.);
#669=ORIENTED_EDGE('',*,*,#402,.T.);
#670=ORIENTED_EDGE('',*,*,#404,.T.);
#671=ORIENTED_EDGE('',*,*,#438,.T.);
#672=ORIENTED_EDGE('',*,*,#441,.T.);
#673=ORIENTED_EDGE('',*,*,#473,.F.);
#674=ORIENTED_EDGE('',*,*,#476,.F.);
#675=ORIENTED_EDGE('',*,*,#478,.F.);
#676=ORIENTED_EDGE('',*,*,#480,.F.);
#677=ORIENTED_EDGE('',*,*,#482,.F.);
#678=ORIENTED_EDGE('',*,*,#484,.F.);
#679=ORIENTED_EDGE('',*,*,#486,.F.);
#680=ORIENTED_EDGE('',*,*,#487,.F.);
#681=ORIENTED_EDGE('',*,*,#393,.T.);
#682=ORIENTED_EDGE('',*,*,#403,.T.);
#683=ORIENTED_EDGE('',*,*,#400,.T.);
#684=ORIENTED_EDGE('',*,*,#397,.T.);
#685=ORIENTED_EDGE('',*,*,#436,.T.);
#686=ORIENTED_EDGE('',*,*,#439,.T.);
#687=PLANE('',#762);
#688=PLANE('',#763);
#689=PLANE('',#764);
#690=PLANE('',#765);
#691=PLANE('',#774);
#692=PLANE('',#777);
#693=PLANE('',#782);
#694=PLANE('',#825);
#695=PLANE('',#828);
#696=PLANE('',#831);
#697=PLANE('',#834);
#698=PLANE('',#835);
#699=PLANE('',#836);
#700=PLANE('',#837);
#701=PLANE('',#838);
#702=ADVANCED_FACE('',(#108),#687,.F.);
#703=ADVANCED_FACE('',(#109),#688,.F.);
#704=ADVANCED_FACE('',(#110),#689,.F.);
#705=ADVANCED_FACE('',(#111),#690,.F.);
#706=ADVANCED_FACE('',(#112),#86,.T.);
#707=ADVANCED_FACE('',(#113),#87,.T.);
#708=ADVANCED_FACE('',(#114),#88,.T.);
#709=ADVANCED_FACE('',(#115),#89,.T.);
#710=ADVANCED_FACE('',(#116,#15,#16),#691,.T.);
#711=ADVANCED_FACE('',(#117,#17,#18,#19,#20),#692,.T.);
#712=ADVANCED_FACE('',(#118,#21),#693,.T.);
#713=ADVANCED_FACE('',(#119),#90,.F.);
#714=ADVANCED_FACE('',(#120),#91,.F.);
#715=ADVANCED_FACE('',(#121),#92,.F.);
#716=ADVANCED_FACE('',(#122),#93,.F.);
#717=ADVANCED_FACE('',(#123),#94,.F.);
#718=ADVANCED_FACE('',(#124),#95,.F.);
#719=ADVANCED_FACE('',(#125),#96,.F.);
#720=ADVANCED_FACE('',(#126),#97,.F.);
#721=ADVANCED_FACE('',(#127),#98,.F.);
#722=ADVANCED_FACE('',(#128),#99,.F.);
#723=ADVANCED_FACE('',(#129),#100,.F.);
#724=ADVANCED_FACE('',(#130),#101,.F.);
#725=ADVANCED_FACE('',(#131),#102,.F.);
#726=ADVANCED_FACE('',(#132),#103,.F.);
#727=ADVANCED_FACE('',(#133),#104,.T.);
#728=ADVANCED_FACE('',(#134,#22,#23,#24,#25),#694,.T.);
#729=ADVANCED_FACE('',(#135),#105,.T.);
#730=ADVANCED_FACE('',(#136,#26,#27),#695,.T.);
#731=ADVANCED_FACE('',(#137),#106,.T.);
#732=ADVANCED_FACE('',(#138,#28,#29,#30,#31),#696,.T.);
#733=ADVANCED_FACE('',(#139),#107,.T.);
#734=ADVANCED_FACE('',(#140,#32,#33),#697,.T.);
#735=ADVANCED_FACE('',(#141,#34,#35,#36,#37),#698,.T.);
#736=ADVANCED_FACE('',(#142,#38,#39),#699,.T.);
#737=ADVANCED_FACE('',(#143,#40,#41,#42),#700,.T.);
#738=ADVANCED_FACE('',(#144,#43,#44,#45),#701,.F.);
#739=CLOSED_SHELL('',(#702,#703,#704,#705,#706,#707,#708,#709,#710,#711,
#712,#713,#714,#715,#716,#717,#718,#719,#720,#721,#722,#723,#724,#725,#726,
#727,#728,#729,#730,#731,#732,#733,#734,#735,#736,#737,#738));
#740=DERIVED_UNIT_ELEMENT(#743,1.);
#741=DERIVED_UNIT_ELEMENT(#1258,-3.);
#742=DIMENSIONAL_EXPONENTS(0.,1.,0.,0.,0.,0.,0.);
#743=(
CONVERSION_BASED_UNIT('gram',#745)
MASS_UNIT()
NAMED_UNIT(#742)
);
#744=(
MASS_UNIT()
NAMED_UNIT(*)
SI_UNIT(.KILO.,.GRAM.)
);
#745=MASS_MEASURE_WITH_UNIT(MASS_MEASURE(0.001),#744);
#746=DERIVED_UNIT((#740,#741));
#747=MEASURE_REPRESENTATION_ITEM('density measure',
POSITIVE_RATIO_MEASURE(1.),#746);
#748=PROPERTY_DEFINITION_REPRESENTATION(#753,#750);
#749=PROPERTY_DEFINITION_REPRESENTATION(#754,#751);
#750=REPRESENTATION('material name',(#752),#1255);
#751=REPRESENTATION('density',(#747),#1255);
#752=DESCRIPTIVE_REPRESENTATION_ITEM('\X2\4E00822C\X0\','\X2\4E00822C\X0\');
#753=PROPERTY_DEFINITION('material property','material name',#1265);
#754=PROPERTY_DEFINITION('material property','density of part',#1265);
#755=DATE_TIME_ROLE('creation_date');
#756=APPLIED_DATE_AND_TIME_ASSIGNMENT(#757,#755,(#1265));
#757=DATE_AND_TIME(#758,#759);
#758=CALENDAR_DATE(2025,28,5);
#759=LOCAL_TIME(0,0,0.,#760);
#760=COORDINATED_UNIVERSAL_TIME_OFFSET(0,0,.BEHIND.);
#761=AXIS2_PLACEMENT_3D('',#1053,#839,#840);
#762=AXIS2_PLACEMENT_3D('',#1054,#841,#842);
#763=AXIS2_PLACEMENT_3D('',#1063,#847,#848);
#764=AXIS2_PLACEMENT_3D('',#1069,#852,#853);
#765=AXIS2_PLACEMENT_3D('',#1075,#857,#858);
#766=AXIS2_PLACEMENT_3D('',#1078,#861,#862);
#767=AXIS2_PLACEMENT_3D('',#1083,#864,#865);
#768=AXIS2_PLACEMENT_3D('',#1086,#867,#868);
#769=AXIS2_PLACEMENT_3D('',#1087,#869,#870);
#770=AXIS2_PLACEMENT_3D('',#1091,#872,#873);
#771=AXIS2_PLACEMENT_3D('',#1093,#875,#876);
#772=AXIS2_PLACEMENT_3D('',#1097,#878,#879);
#773=AXIS2_PLACEMENT_3D('',#1099,#881,#882);
#774=AXIS2_PLACEMENT_3D('',#1102,#885,#886);
#775=AXIS2_PLACEMENT_3D('',#1109,#890,#891);
#776=AXIS2_PLACEMENT_3D('',#1111,#892,#893);
#777=AXIS2_PLACEMENT_3D('',#1112,#894,#895);
#778=AXIS2_PLACEMENT_3D('',#1117,#898,#899);
#779=AXIS2_PLACEMENT_3D('',#1119,#900,#901);
#780=AXIS2_PLACEMENT_3D('',#1121,#902,#903);
#781=AXIS2_PLACEMENT_3D('',#1123,#904,#905);
#782=AXIS2_PLACEMENT_3D('',#1124,#906,#907);
#783=AXIS2_PLACEMENT_3D('',#1127,#908,#909);
#784=AXIS2_PLACEMENT_3D('',#1131,#911,#912);
#785=AXIS2_PLACEMENT_3D('',#1135,#914,#915);
#786=AXIS2_PLACEMENT_3D('',#1139,#917,#918);
#787=AXIS2_PLACEMENT_3D('',#1141,#920,#921);
#788=AXIS2_PLACEMENT_3D('',#1143,#922,#923);
#789=AXIS2_PLACEMENT_3D('',#1146,#925,#926);
#790=AXIS2_PLACEMENT_3D('',#1147,#927,#928);
#791=AXIS2_PLACEMENT_3D('',#1149,#929,#930);
#792=AXIS2_PLACEMENT_3D('',#1152,#932,#933);
#793=AXIS2_PLACEMENT_3D('',#1153,#934,#935);
#794=AXIS2_PLACEMENT_3D('',#1155,#936,#937);
#795=AXIS2_PLACEMENT_3D('',#1158,#939,#940);
#796=AXIS2_PLACEMENT_3D('',#1159,#941,#942);
#797=AXIS2_PLACEMENT_3D('',#1161,#943,#944);
#798=AXIS2_PLACEMENT_3D('',#1163,#946,#947);
#799=AXIS2_PLACEMENT_3D('',#1165,#948,#949);
#800=AXIS2_PLACEMENT_3D('',#1168,#951,#952);
#801=AXIS2_PLACEMENT_3D('',#1169,#953,#954);
#802=AXIS2_PLACEMENT_3D('',#1171,#955,#956);
#803=AXIS2_PLACEMENT_3D('',#1173,#958,#959);
#804=AXIS2_PLACEMENT_3D('',#1176,#961,#962);
#805=AXIS2_PLACEMENT_3D('',#1177,#963,#964);
#806=AXIS2_PLACEMENT_3D('',#1179,#965,#966);
#807=AXIS2_PLACEMENT_3D('',#1182,#968,#969);
#808=AXIS2_PLACEMENT_3D('',#1183,#970,#971);
#809=AXIS2_PLACEMENT_3D('',#1186,#973,#974);
#810=AXIS2_PLACEMENT_3D('',#1187,#975,#976);
#811=AXIS2_PLACEMENT_3D('',#1189,#977,#978);
#812=AXIS2_PLACEMENT_3D('',#1192,#980,#981);
#813=AXIS2_PLACEMENT_3D('',#1193,#982,#983);
#814=AXIS2_PLACEMENT_3D('',#1196,#985,#986);
#815=AXIS2_PLACEMENT_3D('',#1197,#987,#988);
#816=AXIS2_PLACEMENT_3D('',#1199,#989,#990);
#817=AXIS2_PLACEMENT_3D('',#1202,#992,#993);
#818=AXIS2_PLACEMENT_3D('',#1203,#994,#995);
#819=AXIS2_PLACEMENT_3D('',#1206,#997,#998);
#820=AXIS2_PLACEMENT_3D('',#1207,#999,#1000);
#821=AXIS2_PLACEMENT_3D('',#1209,#1001,#1002);
#822=AXIS2_PLACEMENT_3D('',#1212,#1004,#1005);
#823=AXIS2_PLACEMENT_3D('',#1213,#1006,#1007);
#824=AXIS2_PLACEMENT_3D('',#1217,#1009,#1010);
#825=AXIS2_PLACEMENT_3D('',#1219,#1012,#1013);
#826=AXIS2_PLACEMENT_3D('',#1223,#1016,#1017);
#827=AXIS2_PLACEMENT_3D('',#1226,#1019,#1020);
#828=AXIS2_PLACEMENT_3D('',#1227,#1021,#1022);
#829=AXIS2_PLACEMENT_3D('',#1231,#1025,#1026);
#830=AXIS2_PLACEMENT_3D('',#1234,#1028,#1029);
#831=AXIS2_PLACEMENT_3D('',#1235,#1030,#1031);
#832=AXIS2_PLACEMENT_3D('',#1239,#1034,#1035);
#833=AXIS2_PLACEMENT_3D('',#1242,#1037,#1038);
#834=AXIS2_PLACEMENT_3D('',#1243,#1039,#1040);
#835=AXIS2_PLACEMENT_3D('',#1245,#1042,#1043);
#836=AXIS2_PLACEMENT_3D('',#1249,#1046,#1047);
#837=AXIS2_PLACEMENT_3D('',#1251,#1049,#1050);
#838=AXIS2_PLACEMENT_3D('',#1252,#1051,#1052);
#839=DIRECTION('axis',(0.,0.,1.));
#840=DIRECTION('refdir',(1.,0.,0.));
#841=DIRECTION('center_axis',(1.,0.,0.));
#842=DIRECTION('ref_axis',(0.,0.,-1.));
#843=DIRECTION('',(0.,0.,-1.));
#844=DIRECTION('',(0.,1.,0.));
#845=DIRECTION('',(0.,0.,1.));
#846=DIRECTION('',(0.,1.,0.));
#847=DIRECTION('center_axis',(0.,0.,1.));
#848=DIRECTION('ref_axis',(1.,0.,0.));
#849=DIRECTION('',(1.,0.,0.));
#850=DIRECTION('',(0.,1.,0.));
#851=DIRECTION('',(-1.,0.,0.));
#852=DIRECTION('center_axis',(-1.,0.,0.));
#853=DIRECTION('ref_axis',(0.,0.,1.));
#854=DIRECTION('',(0.,0.,1.));
#855=DIRECTION('',(0.,1.,0.));
#856=DIRECTION('',(0.,0.,-1.));
#857=DIRECTION('center_axis',(0.,0.,-1.));
#858=DIRECTION('ref_axis',(-1.,0.,0.));
#859=DIRECTION('',(-1.,0.,0.));
#860=DIRECTION('',(1.,0.,0.));
#861=DIRECTION('center_axis',(-1.10195833709693E-15,0.,-1.));
#862=DIRECTION('ref_axis',(0.707106781186548,0.707106781186548,0.));
#863=DIRECTION('',(1.10195833709693E-15,0.,1.));
#864=DIRECTION('center_axis',(-0.707106781186543,3.92523114670948E-16,-0.707106781186552));
#865=DIRECTION('ref_axis',(-0.707106781186552,3.92523114670954E-16,0.707106781186543));
#866=DIRECTION('',(-1.10195833709693E-15,0.,-1.));
#867=DIRECTION('center_axis',(0.707106781186535,0.,-0.70710678118656));
#868=DIRECTION('ref_axis',(-0.70710678118656,0.,-0.707106781186535));
#869=DIRECTION('center_axis',(-1.,0.,-6.56289472684823E-16));
#870=DIRECTION('ref_axis',(0.,0.707106781186546,-0.707106781186549));
#871=DIRECTION('',(1.,0.,6.56289472684823E-16));
#872=DIRECTION('center_axis',(-0.707106781186531,1.17756934401286E-15,0.707106781186564));
#873=DIRECTION('ref_axis',(0.707106781186564,1.17756934401281E-15,0.707106781186531));
#874=DIRECTION('',(-1.,0.,-6.56289472684823E-16));
#875=DIRECTION('center_axis',(1.43254583822601E-15,0.,1.));
#876=DIRECTION('ref_axis',(-0.707106781186549,0.707106781186546,0.));
#877=DIRECTION('',(-1.43254583822601E-15,0.,-1.));
#878=DIRECTION('center_axis',(0.707106781186547,0.,0.707106781186548));
#879=DIRECTION('ref_axis',(0.707106781186548,0.,-0.707106781186547));
#880=DIRECTION('',(1.43254583822601E-15,0.,1.));
#881=DIRECTION('center_axis',(1.,0.,0.));
#882=DIRECTION('ref_axis',(0.,0.707106781186548,0.707106781186548));
#883=DIRECTION('',(1.,0.,0.));
#884=DIRECTION('',(-1.,0.,0.));
#885=DIRECTION('center_axis',(0.,0.,1.));
#886=DIRECTION('ref_axis',(1.,0.,0.));
#887=DIRECTION('',(0.,1.,0.));
#888=DIRECTION('',(-1.,0.,0.));
#889=DIRECTION('',(0.,1.,0.));
#890=DIRECTION('center_axis',(0.,0.,-1.));
#891=DIRECTION('ref_axis',(-1.,0.,0.));
#892=DIRECTION('center_axis',(0.,0.,-1.));
#893=DIRECTION('ref_axis',(-1.,0.,0.));
#894=DIRECTION('center_axis',(1.,0.,-1.10195833709693E-15));
#895=DIRECTION('ref_axis',(-1.10195833709693E-15,0.,-1.));
#896=DIRECTION('',(0.,1.,0.));
#897=DIRECTION('',(1.10195833709693E-15,0.,1.));
#898=DIRECTION('center_axis',(-1.,0.,1.10195833709693E-15));
#899=DIRECTION('ref_axis',(-1.83697019872103E-16,0.,-1.));
#900=DIRECTION('center_axis',(-1.,0.,1.10195833709693E-15));
#901=DIRECTION('ref_axis',(-1.83697019872103E-16,0.,-1.));
#902=DIRECTION('center_axis',(-1.,0.,1.10195833709693E-15));
#903=DIRECTION('ref_axis',(-1.83697019872103E-16,0.,-1.));
#904=DIRECTION('center_axis',(-1.,0.,1.10195833709693E-15));
#905=DIRECTION('ref_axis',(-1.83697019872103E-16,0.,-1.));
#906=DIRECTION('center_axis',(0.,1.,0.));
#907=DIRECTION('ref_axis',(0.,0.,1.));
#908=DIRECTION('center_axis',(0.,-1.,0.));
#909=DIRECTION('ref_axis',(-0.707106781186547,0.,0.707106781186547));
#910=DIRECTION('',(1.,0.,0.));
#911=DIRECTION('center_axis',(0.,-1.,0.));
#912=DIRECTION('ref_axis',(0.707106781186548,0.,0.707106781186548));
#913=DIRECTION('',(-1.83697019872103E-16,0.,-1.));
#914=DIRECTION('center_axis',(0.,-1.,0.));
#915=DIRECTION('ref_axis',(0.707106781186547,0.,-0.707106781186547));
#916=DIRECTION('',(-1.,0.,0.));
#917=DIRECTION('center_axis',(0.,-1.,0.));
#918=DIRECTION('ref_axis',(-0.707106781186547,0.,-0.707106781186547));
#919=DIRECTION('',(0.,0.,1.));
#920=DIRECTION('center_axis',(0.,-1.,0.));
#921=DIRECTION('ref_axis',(1.,0.,0.));
#922=DIRECTION('center_axis',(0.,1.,0.));
#923=DIRECTION('ref_axis',(1.,0.,0.));
#924=DIRECTION('',(0.,1.,0.));
#925=DIRECTION('center_axis',(0.,-1.,0.));
#926=DIRECTION('ref_axis',(1.,0.,0.));
#927=DIRECTION('center_axis',(0.,-1.,0.));
#928=DIRECTION('ref_axis',(1.,0.,0.));
#929=DIRECTION('center_axis',(0.,1.,0.));
#930=DIRECTION('ref_axis',(1.,0.,0.));
#931=DIRECTION('',(0.,1.,0.));
#932=DIRECTION('center_axis',(0.,-1.,0.));
#933=DIRECTION('ref_axis',(1.,0.,0.));
#934=DIRECTION('center_axis',(0.,0.,-1.));
#935=DIRECTION('ref_axis',(-1.,0.,0.));
#936=DIRECTION('center_axis',(-6.56289472684823E-16,0.,1.));
#937=DIRECTION('ref_axis',(-1.,0.,0.));
#938=DIRECTION('',(0.,0.,1.));
#939=DIRECTION('center_axis',(0.,0.,-1.));
#940=DIRECTION('ref_axis',(-1.,0.,0.));
#941=DIRECTION('center_axis',(0.,0.,-1.));
#942=DIRECTION('ref_axis',(-1.,0.,0.));
#943=DIRECTION('center_axis',(0.,0.,1.));
#944=DIRECTION('ref_axis',(-1.,0.,0.));
#945=DIRECTION('',(0.,0.,1.));
#946=DIRECTION('center_axis',(0.,0.,-1.));
#947=DIRECTION('ref_axis',(-1.,0.,0.));
#948=DIRECTION('center_axis',(-6.56289472684823E-16,0.,1.));
#949=DIRECTION('ref_axis',(-1.,0.,0.));
#950=DIRECTION('',(0.,0.,1.));
#951=DIRECTION('center_axis',(0.,0.,-1.));
#952=DIRECTION('ref_axis',(-1.,0.,0.));
#953=DIRECTION('center_axis',(0.,0.,-1.));
#954=DIRECTION('ref_axis',(-1.,0.,0.));
#955=DIRECTION('center_axis',(0.,0.,1.));
#956=DIRECTION('ref_axis',(-1.,0.,0.));
#957=DIRECTION('',(0.,0.,1.));
#958=DIRECTION('center_axis',(1.,0.,-1.83697019872103E-16));
#959=DIRECTION('ref_axis',(-1.83697019872103E-16,0.,-1.));
#960=DIRECTION('',(-1.,0.,1.83697019872103E-16));
#961=DIRECTION('center_axis',(1.,0.,0.));
#962=DIRECTION('ref_axis',(-1.83697019872103E-16,0.,-1.));
#963=DIRECTION('center_axis',(1.,0.,-1.83697019872103E-16));
#964=DIRECTION('ref_axis',(-1.83697019872103E-16,0.,-1.));
#965=DIRECTION('center_axis',(-1.,0.,1.83697019872103E-16));
#966=DIRECTION('ref_axis',(-1.83697019872103E-16,0.,-1.));
#967=DIRECTION('',(-1.,0.,1.83697019872103E-16));
#968=DIRECTION('center_axis',(1.,0.,-1.43254583822601E-15));
#969=DIRECTION('ref_axis',(-1.83697019872103E-16,0.,-1.));
#970=DIRECTION('center_axis',(1.,0.,-1.83697019872103E-16));
#971=DIRECTION('ref_axis',(-1.83697019872103E-16,0.,-1.));
#972=DIRECTION('',(-1.,0.,1.83697019872103E-16));
#973=DIRECTION('center_axis',(1.,0.,0.));
#974=DIRECTION('ref_axis',(-1.83697019872103E-16,0.,-1.));
#975=DIRECTION('center_axis',(1.,0.,-1.83697019872103E-16));
#976=DIRECTION('ref_axis',(-1.83697019872103E-16,0.,-1.));
#977=DIRECTION('center_axis',(-1.,0.,1.83697019872103E-16));
#978=DIRECTION('ref_axis',(-1.83697019872103E-16,0.,-1.));
#979=DIRECTION('',(-1.,0.,1.83697019872103E-16));
#980=DIRECTION('center_axis',(1.,0.,-1.43254583822601E-15));
#981=DIRECTION('ref_axis',(-1.83697019872103E-16,0.,-1.));
#982=DIRECTION('center_axis',(1.,0.,-1.83697019872103E-16));
#983=DIRECTION('ref_axis',(-1.83697019872103E-16,0.,-1.));
#984=DIRECTION('',(-1.,0.,1.83697019872103E-16));
#985=DIRECTION('center_axis',(1.,0.,0.));
#986=DIRECTION('ref_axis',(-1.83697019872103E-16,0.,-1.));
#987=DIRECTION('center_axis',(1.,0.,-1.83697019872103E-16));
#988=DIRECTION('ref_axis',(-1.83697019872103E-16,0.,-1.));
#989=DIRECTION('center_axis',(-1.,0.,1.83697019872103E-16));
#990=DIRECTION('ref_axis',(-1.83697019872103E-16,0.,-1.));
#991=DIRECTION('',(-1.,0.,1.83697019872103E-16));
#992=DIRECTION('center_axis',(1.,0.,-1.43254583822601E-15));
#993=DIRECTION('ref_axis',(-1.83697019872103E-16,0.,-1.));
#994=DIRECTION('center_axis',(1.,0.,-1.83697019872103E-16));
#995=DIRECTION('ref_axis',(-1.83697019872103E-16,0.,-1.));
#996=DIRECTION('',(-1.,0.,1.83697019872103E-16));
#997=DIRECTION('center_axis',(1.,0.,0.));
#998=DIRECTION('ref_axis',(-1.83697019872103E-16,0.,-1.));
#999=DIRECTION('center_axis',(1.,0.,-1.83697019872103E-16));
#1000=DIRECTION('ref_axis',(-1.83697019872103E-16,0.,-1.));
#1001=DIRECTION('center_axis',(-1.,0.,1.83697019872103E-16));
#1002=DIRECTION('ref_axis',(-1.83697019872103E-16,0.,-1.));
#1003=DIRECTION('',(-1.,0.,1.83697019872103E-16));
#1004=DIRECTION('center_axis',(1.,0.,-1.43254583822601E-15));
#1005=DIRECTION('ref_axis',(-1.83697019872103E-16,0.,-1.));
#1006=DIRECTION('center_axis',(0.,1.,0.));
#1007=DIRECTION('ref_axis',(-0.707106781186547,0.,0.707106781186547));
#1008=DIRECTION('',(0.,-1.,0.));
#1009=DIRECTION('center_axis',(0.,1.,0.));
#1010=DIRECTION('ref_axis',(-0.707106781186547,0.,0.707106781186547));
#1011=DIRECTION('',(0.,1.,0.));
#1012=DIRECTION('center_axis',(-1.,0.,0.));
#1013=DIRECTION('ref_axis',(0.,0.,1.));
#1014=DIRECTION('',(0.,1.,0.));
#1015=DIRECTION('',(0.,0.,1.));
#1016=DIRECTION('center_axis',(0.,1.,0.));
#1017=DIRECTION('ref_axis',(-0.707106781186547,0.,-0.707106781186547));
#1018=DIRECTION('',(0.,-1.,0.));
#1019=DIRECTION('center_axis',(0.,1.,0.));
#1020=DIRECTION('ref_axis',(-0.707106781186547,0.,-0.707106781186547));
#1021=DIRECTION('center_axis',(0.,0.,-1.));
#1022=DIRECTION('ref_axis',(-1.,0.,0.));
#1023=DIRECTION('',(0.,1.,0.));
#1024=DIRECTION('',(-1.,0.,0.));
#1025=DIRECTION('center_axis',(0.,1.,0.));
#1026=DIRECTION('ref_axis',(0.707106781186547,0.,-0.707106781186547));
#1027=DIRECTION('',(0.,-1.,0.));
#1028=DIRECTION('center_axis',(0.,1.,0.));
#1029=DIRECTION('ref_axis',(0.707106781186547,0.,-0.707106781186547));
#1030=DIRECTION('center_axis',(1.,0.,-1.83697019872103E-16));
#1031=DIRECTION('ref_axis',(-1.83697019872103E-16,0.,-1.));
#1032=DIRECTION('',(0.,1.,0.));
#1033=DIRECTION('',(-1.83697019872103E-16,0.,-1.));
#1034=DIRECTION('center_axis',(0.,1.,0.));
#1035=DIRECTION('ref_axis',(0.707106781186548,0.,0.707106781186548));
#1036=DIRECTION('',(0.,-1.,0.));
#1037=DIRECTION('center_axis',(0.,1.,0.));
#1038=DIRECTION('ref_axis',(0.707106781186548,0.,0.707106781186548));
#1039=DIRECTION('center_axis',(0.,0.,1.));
#1040=DIRECTION('ref_axis',(1.,0.,0.));
#1041=DIRECTION('',(1.,0.,0.));
#1042=DIRECTION('center_axis',(-1.,0.,1.43254583822601E-15));
#1043=DIRECTION('ref_axis',(1.43254583822601E-15,0.,1.));
#1044=DIRECTION('',(-1.43254583822601E-15,0.,-1.));
#1045=DIRECTION('',(0.,1.,0.));
#1046=DIRECTION('center_axis',(6.56289472684823E-16,0.,-1.));
#1047=DIRECTION('ref_axis',(-1.,0.,-6.56289472684823E-16));
#1048=DIRECTION('',(1.,0.,6.56289472684823E-16));
#1049=DIRECTION('center_axis',(0.,1.,0.));
#1050=DIRECTION('ref_axis',(0.,0.,1.));
#1051=DIRECTION('center_axis',(0.,1.,0.));
#1052=DIRECTION('ref_axis',(0.,0.,1.));
#1053=CARTESIAN_POINT('',(0.,0.,0.));
#1054=CARTESIAN_POINT('Origin',(-8.00000000000001,0.,-18.5));
#1055=CARTESIAN_POINT('',(-8.00000000000001,0.,-18.5));
#1056=CARTESIAN_POINT('',(-8.00000000000001,0.,-32.5));
#1057=CARTESIAN_POINT('',(-8.00000000000001,0.,-22.));
#1058=CARTESIAN_POINT('',(-8.00000000000001,10.,-18.5));
#1059=CARTESIAN_POINT('',(-8.00000000000001,0.,-18.5));
#1060=CARTESIAN_POINT('',(-8.00000000000001,10.,-32.5));
#1061=CARTESIAN_POINT('',(-8.00000000000001,10.,-22.));
#1062=CARTESIAN_POINT('',(-8.00000000000001,0.,-32.5));
#1063=CARTESIAN_POINT('Origin',(-27.,0.,-18.5));
#1064=CARTESIAN_POINT('',(-27.,0.,-18.5));
#1065=CARTESIAN_POINT('',(-22.25,0.,-18.5));
#1066=CARTESIAN_POINT('',(-27.,10.,-18.5));
#1067=CARTESIAN_POINT('',(-27.,0.,-18.5));
#1068=CARTESIAN_POINT('',(-22.25,10.,-18.5));
#1069=CARTESIAN_POINT('Origin',(-27.,0.,-32.5));
#1070=CARTESIAN_POINT('',(-27.,0.,-32.5));
#1071=CARTESIAN_POINT('',(-27.,0.,-29.));
#1072=CARTESIAN_POINT('',(-27.,10.,-32.5));
#1073=CARTESIAN_POINT('',(-27.,0.,-32.5));
#1074=CARTESIAN_POINT('',(-27.,10.,-29.));
#1075=CARTESIAN_POINT('Origin',(-8.00000000000001,0.,-32.5));
#1076=CARTESIAN_POINT('',(-12.75,0.,-32.5));
#1077=CARTESIAN_POINT('',(-12.75,10.,-32.5));
#1078=CARTESIAN_POINT('Origin',(-28.65,49.,-15.425));
#1079=CARTESIAN_POINT('',(-28.65,50.,-46.65));
#1080=CARTESIAN_POINT('',(-28.65,50.,-4.35000000000001));
#1081=CARTESIAN_POINT('',(-28.65,50.,-15.425));
#1082=CARTESIAN_POINT('',(-27.65,49.,-5.34999999999999));
#1083=CARTESIAN_POINT('Origin',(-28.65,49.,-4.35000000000001));
#1084=CARTESIAN_POINT('',(-27.65,49.,-45.65));
#1085=CARTESIAN_POINT('',(-27.65,49.,-15.425));
#1086=CARTESIAN_POINT('Origin',(-28.65,49.,-46.65));
#1087=CARTESIAN_POINT('Origin',(-12.425,49.,-4.35));
#1088=CARTESIAN_POINT('',(-6.34999999999996,50.,-4.35));
#1089=CARTESIAN_POINT('',(-12.425,50.,-4.35));
#1090=CARTESIAN_POINT('',(-7.35000000000001,49.,-5.34999999999999));
#1091=CARTESIAN_POINT('Origin',(-6.34999999999996,49.,-4.34999999999999));
#1092=CARTESIAN_POINT('',(-12.425,49.,-5.35));
#1093=CARTESIAN_POINT('Origin',(-6.35000000000001,49.,-35.575));
#1094=CARTESIAN_POINT('',(-6.35000000000002,50.,-46.65));
#1095=CARTESIAN_POINT('',(-6.35000000000001,50.,-35.575));
#1096=CARTESIAN_POINT('',(-7.35000000000002,49.,-45.65));
#1097=CARTESIAN_POINT('Origin',(-6.35000000000002,49.,-46.65));
#1098=CARTESIAN_POINT('',(-7.35000000000001,49.,-35.575));
#1099=CARTESIAN_POINT('Origin',(-22.575,49.,-46.65));
#1100=CARTESIAN_POINT('',(-22.575,49.,-45.65));
#1101=CARTESIAN_POINT('',(-22.575,50.,-46.65));
#1102=CARTESIAN_POINT('Origin',(-27.65,10.,-45.65));
#1103=CARTESIAN_POINT('',(-27.65,10.,-45.65));
#1104=CARTESIAN_POINT('',(-27.65,10.,-45.65));
#1105=CARTESIAN_POINT('',(-7.35000000000002,10.,-45.65));
#1106=CARTESIAN_POINT('',(-22.575,10.,-45.65));
#1107=CARTESIAN_POINT('',(-7.35000000000002,10.,-45.65));
#1108=CARTESIAN_POINT('',(-15.85,20.,-45.65));
#1109=CARTESIAN_POINT('Origin',(-17.5,20.,-45.65));
#1110=CARTESIAN_POINT('',(-15.85,40.,-45.65));
#1111=CARTESIAN_POINT('Origin',(-17.5,40.,-45.65));
#1112=CARTESIAN_POINT('Origin',(-27.65,10.,-5.34999999999999));
#1113=CARTESIAN_POINT('',(-27.65,10.,-5.34999999999999));
#1114=CARTESIAN_POINT('',(-27.65,10.,-5.34999999999999));
#1115=CARTESIAN_POINT('',(-27.65,10.,-15.425));
#1116=CARTESIAN_POINT('',(-27.65,20.,-13.85));
#1117=CARTESIAN_POINT('Origin',(-27.65,20.,-15.5));
#1118=CARTESIAN_POINT('',(-27.65,40.,-13.85));
#1119=CARTESIAN_POINT('Origin',(-27.65,40.,-15.5));
#1120=CARTESIAN_POINT('',(-27.65,40.,-33.85));
#1121=CARTESIAN_POINT('Origin',(-27.65,40.,-35.5));
#1122=CARTESIAN_POINT('',(-27.65,20.,-33.85));
#1123=CARTESIAN_POINT('Origin',(-27.65,20.,-35.5));
#1124=CARTESIAN_POINT('Origin',(-17.5,50.,-25.5));
#1125=CARTESIAN_POINT('',(-30.,50.,0.));
#1126=CARTESIAN_POINT('',(-35.,50.,-5.));
#1127=CARTESIAN_POINT('Origin',(-30.,50.,-5.));
#1128=CARTESIAN_POINT('',(-5.,50.,0.));
#1129=CARTESIAN_POINT('',(-35.,50.,0.));
#1130=CARTESIAN_POINT('',(-9.18485099360515E-16,50.,-5.));
#1131=CARTESIAN_POINT('Origin',(-5.,50.,-5.));
#1132=CARTESIAN_POINT('',(-8.45006291411674E-15,50.,-46.));
#1133=CARTESIAN_POINT('',(0.,50.,0.));
#1134=CARTESIAN_POINT('',(-5.00000000000001,50.,-51.));
#1135=CARTESIAN_POINT('Origin',(-5.00000000000001,50.,-46.));
#1136=CARTESIAN_POINT('',(-30.,50.,-51.));
#1137=CARTESIAN_POINT('',(-9.36854801347725E-15,50.,-51.));
#1138=CARTESIAN_POINT('',(-35.,50.,-46.));
#1139=CARTESIAN_POINT('Origin',(-30.,50.,-46.));
#1140=CARTESIAN_POINT('',(-35.,50.,-51.));
#1141=CARTESIAN_POINT('Origin',(-17.5,79.5361553005927,-35.5));
#1142=CARTESIAN_POINT('',(-19.1,0.,-35.5));
#1143=CARTESIAN_POINT('Origin',(-17.5,0.,-35.5));
#1144=CARTESIAN_POINT('',(-19.1,10.,-35.5));
#1145=CARTESIAN_POINT('',(-19.1,79.5361553005927,-35.5));
#1146=CARTESIAN_POINT('Origin',(-17.5,10.,-35.5));
#1147=CARTESIAN_POINT('Origin',(-17.5,79.5361553005927,-15.5));
#1148=CARTESIAN_POINT('',(-19.1,0.,-15.5));
#1149=CARTESIAN_POINT('Origin',(-17.5,0.,-15.5));
#1150=CARTESIAN_POINT('',(-19.1,10.,-15.5));
#1151=CARTESIAN_POINT('',(-19.1,79.5361553005927,-15.5));
#1152=CARTESIAN_POINT('Origin',(-17.5,10.,-15.5));
#1153=CARTESIAN_POINT('Origin',(-17.5,40.,28.5361553005927));
#1154=CARTESIAN_POINT('',(-15.85,40.,-5.34999999999999));
#1155=CARTESIAN_POINT('Origin',(-17.5,40.,-5.34999999999999));
#1156=CARTESIAN_POINT('',(-15.85,40.,0.));
#1157=CARTESIAN_POINT('',(-15.85,40.,28.5361553005927));
#1158=CARTESIAN_POINT('Origin',(-17.5,40.,0.));
#1159=CARTESIAN_POINT('Origin',(-17.5,40.,28.5361553005927));
#1160=CARTESIAN_POINT('',(-15.85,40.,-51.));
#1161=CARTESIAN_POINT('Origin',(-17.5,40.,-51.));
#1162=CARTESIAN_POINT('',(-15.85,40.,28.5361553005927));
#1163=CARTESIAN_POINT('Origin',(-17.5,20.,28.5361553005927));
#1164=CARTESIAN_POINT('',(-15.85,20.,-5.34999999999999));
#1165=CARTESIAN_POINT('Origin',(-17.5,20.,-5.34999999999999));
#1166=CARTESIAN_POINT('',(-15.85,20.,0.));
#1167=CARTESIAN_POINT('',(-15.85,20.,28.5361553005927));
#1168=CARTESIAN_POINT('Origin',(-17.5,20.,0.));
#1169=CARTESIAN_POINT('Origin',(-17.5,20.,28.5361553005927));
#1170=CARTESIAN_POINT('',(-15.85,20.,-51.));
#1171=CARTESIAN_POINT('Origin',(-17.5,20.,-51.));
#1172=CARTESIAN_POINT('',(-15.85,20.,28.5361553005927));
#1173=CARTESIAN_POINT('Origin',(-79.5361553005927,20.,-35.5));
#1174=CARTESIAN_POINT('',(-35.,20.,-33.85));
#1175=CARTESIAN_POINT('',(-79.5361553005927,20.,-33.85));
#1176=CARTESIAN_POINT('Origin',(-35.,20.,-35.5));
#1177=CARTESIAN_POINT('Origin',(-79.5361553005927,20.,-35.5));
#1178=CARTESIAN_POINT('',(0.,20.,-33.85));
#1179=CARTESIAN_POINT('Origin',(-8.88178419700125E-15,20.,-35.5));
#1180=CARTESIAN_POINT('',(-7.35000000000002,20.,-33.85));
#1181=CARTESIAN_POINT('',(-79.5361553005927,20.,-33.85));
#1182=CARTESIAN_POINT('Origin',(-7.35000000000002,20.,-35.5));
#1183=CARTESIAN_POINT('Origin',(-79.5361553005927,40.,-35.5));
#1184=CARTESIAN_POINT('',(-35.,40.,-33.85));
#1185=CARTESIAN_POINT('',(-79.5361553005927,40.,-33.85));
#1186=CARTESIAN_POINT('Origin',(-35.,40.,-35.5));
#1187=CARTESIAN_POINT('Origin',(-79.5361553005927,40.,-35.5));
#1188=CARTESIAN_POINT('',(0.,40.,-33.85));
#1189=CARTESIAN_POINT('Origin',(-8.88178419700125E-15,40.,-35.5));
#1190=CARTESIAN_POINT('',(-7.35000000000002,40.,-33.85));
#1191=CARTESIAN_POINT('',(-79.5361553005927,40.,-33.85));
#1192=CARTESIAN_POINT('Origin',(-7.35000000000002,40.,-35.5));
#1193=CARTESIAN_POINT('Origin',(-79.5361553005927,40.,-15.5));
#1194=CARTESIAN_POINT('',(-35.,40.,-13.85));
#1195=CARTESIAN_POINT('',(-79.5361553005927,40.,-13.85));
#1196=CARTESIAN_POINT('Origin',(-35.,40.,-15.5));
#1197=CARTESIAN_POINT('Origin',(-79.5361553005927,40.,-15.5));
#1198=CARTESIAN_POINT('',(8.88178419700125E-15,40.,-13.85));
#1199=CARTESIAN_POINT('Origin',(0.,40.,-15.5));
#1200=CARTESIAN_POINT('',(-7.35000000000001,40.,-13.85));
#1201=CARTESIAN_POINT('',(-79.5361553005927,40.,-13.85));
#1202=CARTESIAN_POINT('Origin',(-7.35000000000001,40.,-15.5));
#1203=CARTESIAN_POINT('Origin',(-79.5361553005927,20.,-15.5));
#1204=CARTESIAN_POINT('',(-35.,20.,-13.85));
#1205=CARTESIAN_POINT('',(-79.5361553005927,20.,-13.85));
#1206=CARTESIAN_POINT('Origin',(-35.,20.,-15.5));
#1207=CARTESIAN_POINT('Origin',(-79.5361553005927,20.,-15.5));
#1208=CARTESIAN_POINT('',(8.88178419700125E-15,20.,-13.85));
#1209=CARTESIAN_POINT('Origin',(0.,20.,-15.5));
#1210=CARTESIAN_POINT('',(-7.35000000000001,20.,-13.85));
#1211=CARTESIAN_POINT('',(-79.5361553005927,20.,-13.85));
#1212=CARTESIAN_POINT('Origin',(-7.35000000000001,20.,-15.5));
#1213=CARTESIAN_POINT('Origin',(-30.,0.,-5.));
#1214=CARTESIAN_POINT('',(-35.,0.,-5.));
#1215=CARTESIAN_POINT('',(-35.,0.,-5.));
#1216=CARTESIAN_POINT('',(-30.,0.,0.));
#1217=CARTESIAN_POINT('Origin',(-30.,0.,-5.));
#1218=CARTESIAN_POINT('',(-30.,0.,0.));
#1219=CARTESIAN_POINT('Origin',(-35.,0.,-51.));
#1220=CARTESIAN_POINT('',(-35.,0.,-46.));
#1221=CARTESIAN_POINT('',(-35.,0.,-46.));
#1222=CARTESIAN_POINT('',(-35.,0.,-51.));
#1223=CARTESIAN_POINT('Origin',(-30.,0.,-46.));
#1224=CARTESIAN_POINT('',(-30.,0.,-51.));
#1225=CARTESIAN_POINT('',(-30.,0.,-51.));
#1226=CARTESIAN_POINT('Origin',(-30.,0.,-46.));
#1227=CARTESIAN_POINT('Origin',(-9.36854801347725E-15,0.,-51.));
#1228=CARTESIAN_POINT('',(-5.00000000000001,0.,-51.));
#1229=CARTESIAN_POINT('',(-5.00000000000001,0.,-51.));
#1230=CARTESIAN_POINT('',(-8.88178419700125E-15,0.,-51.));
#1231=CARTESIAN_POINT('Origin',(-5.00000000000001,0.,-46.));
#1232=CARTESIAN_POINT('',(-8.45006291411674E-15,0.,-46.));
#1233=CARTESIAN_POINT('',(-8.88178419700125E-15,0.,-46.));
#1234=CARTESIAN_POINT('Origin',(-5.00000000000001,0.,-46.));
#1235=CARTESIAN_POINT('Origin',(0.,0.,0.));
#1236=CARTESIAN_POINT('',(-9.18485099360515E-16,0.,-5.));
#1237=CARTESIAN_POINT('',(-1.11022302462516E-15,0.,-5.));
#1238=CARTESIAN_POINT('',(0.,0.,0.));
#1239=CARTESIAN_POINT('Origin',(-5.,0.,-5.));
#1240=CARTESIAN_POINT('',(-5.,0.,0.));
#1241=CARTESIAN_POINT('',(-5.,0.,0.));
#1242=CARTESIAN_POINT('Origin',(-5.,0.,-5.));
#1243=CARTESIAN_POINT('Origin',(-35.,0.,0.));
#1244=CARTESIAN_POINT('',(-35.,0.,0.));
#1245=CARTESIAN_POINT('Origin',(-7.35000000000002,10.,-45.65));
#1246=CARTESIAN_POINT('',(-7.35000000000001,10.,-5.34999999999999));
#1247=CARTESIAN_POINT('',(-7.35000000000001,10.,-35.575));
#1248=CARTESIAN_POINT('',(-7.35000000000001,10.,-5.34999999999999));
#1249=CARTESIAN_POINT('Origin',(-7.35000000000001,10.,-5.34999999999999));
#1250=CARTESIAN_POINT('',(-12.425,10.,-5.35));
#1251=CARTESIAN_POINT('Origin',(-17.5,10.,-25.5));
#1252=CARTESIAN_POINT('Origin',(-17.5,0.,-25.5));
#1253=UNCERTAINTY_MEASURE_WITH_UNIT(LENGTH_MEASURE(0.01),#1257,
'DISTANCE_ACCURACY_VALUE',
'Maximum model space distance between geometric entities at asserted c
onnectivities');
#1254=UNCERTAINTY_MEASURE_WITH_UNIT(LENGTH_MEASURE(0.01),#1257,
'DISTANCE_ACCURACY_VALUE',
'Maximum model space distance between geometric entities at asserted c
onnectivities');
#1255=(
GEOMETRIC_REPRESENTATION_CONTEXT(3)
GLOBAL_UNCERTAINTY_ASSIGNED_CONTEXT((#1253))
GLOBAL_UNIT_ASSIGNED_CONTEXT((#1257,#1259,#1260))
REPRESENTATION_CONTEXT('','3D')
);
#1256=(
GEOMETRIC_REPRESENTATION_CONTEXT(3)
GLOBAL_UNCERTAINTY_ASSIGNED_CONTEXT((#1254))
GLOBAL_UNIT_ASSIGNED_CONTEXT((#1257,#1259,#1260))
REPRESENTATION_CONTEXT('','3D')
);
#1257=(
LENGTH_UNIT()
NAMED_UNIT(*)
SI_UNIT(.MILLI.,.METRE.)
);
#1258=(
LENGTH_UNIT()
NAMED_UNIT(*)
SI_UNIT(.CENTI.,.METRE.)
);
#1259=(
NAMED_UNIT(*)
PLANE_ANGLE_UNIT()
SI_UNIT($,.RADIAN.)
);
#1260=(
NAMED_UNIT(*)
SI_UNIT($,.STERADIAN.)
SOLID_ANGLE_UNIT()
);
#1261=SHAPE_DEFINITION_REPRESENTATION(#1262,#1263);
#1262=PRODUCT_DEFINITION_SHAPE('',$,#1265);
#1263=SHAPE_REPRESENTATION('',(#761),#1255);
#1264=PRODUCT_DEFINITION_CONTEXT('part definition',#1269,'design');
#1265=PRODUCT_DEFINITION('framefixpart2','framefixpart2',#1266,#1264);
#1266=PRODUCT_DEFINITION_FORMATION('',$,#1271);
#1267=PRODUCT_RELATED_PRODUCT_CATEGORY('framefixpart2','framefixpart2',
(#1271));
#1268=APPLICATION_PROTOCOL_DEFINITION('international standard',
'automotive_design',2009,#1269);
#1269=APPLICATION_CONTEXT(
'Core Data for Automotive Mechanical Design Process');
#1270=PRODUCT_CONTEXT('part definition',#1269,'mechanical');
#1271=PRODUCT('framefixpart2','framefixpart2',$,(#1270));
#1272=PRESENTATION_STYLE_ASSIGNMENT((#1273));
#1273=SURFACE_STYLE_USAGE(.BOTH.,#1276);
#1274=SURFACE_STYLE_RENDERING_WITH_PROPERTIES($,#1280,(#1275));
#1275=SURFACE_STYLE_TRANSPARENT(0.);
#1276=SURFACE_SIDE_STYLE('',(#1277,#1274));
#1277=SURFACE_STYLE_FILL_AREA(#1278);
#1278=FILL_AREA_STYLE('',(#1279));
#1279=FILL_AREA_STYLE_COLOUR('',#1280);
#1280=COLOUR_RGB('',0.0196078431372549,0.0196078431372549,0.0196078431372549);
ENDSEC;
END-ISO-10303-21;
