ISO-10303-21;
HEADER;
/* Generated by software containing ST-Developer
 * from STEP Tools, Inc. (www.steptools.com) 
 */

FILE_DESCRIPTION(
/* description */ (''),
/* implementation_level */ '2;1');

FILE_NAME(
/* name */ 'framefixpart1_forearm.stp',
/* time_stamp */ '2026-05-04T17:28:04+09:00',
/* author */ ('kshau'),
/* organization */ (''),
/* preprocessor_version */ 'ST-DEVELOPER v20',
/* originating_system */ 'Autodesk Inventor 2024',
/* authorisation */ '');

FILE_SCHEMA (('AUTOMOTIVE_DESIGN { 1 0 10303 214 3 1 1 }'));
ENDSEC;

DATA;
#10=MECHANICAL_DESIGN_GEOMETRIC_PRESENTATION_REPRESENTATION('',(#13),#1096);
#11=SHAPE_REPRESENTATION_RELATIONSHIP('SRR','None',#1103,#12);
#12=ADVANCED_BREP_SHAPE_REPRESENTATION('',(#14),#1095);
#13=STYLED_ITEM('',(#1112),#14);
#14=MANIFOLD_SOLID_BREP('\X2\30BD30EA30C330C9\X0\1',#643);
#15=ELLIPSE('',#683,1.4142135623731,1.);
#16=ELLIPSE('',#684,1.4142135623731,1.);
#17=ELLIPSE('',#686,1.41421356237309,1.);
#18=ELLIPSE('',#688,1.41421356237309,1.);
#19=CYLINDRICAL_SURFACE('',#682,1.);
#20=CYLINDRICAL_SURFACE('',#685,1.);
#21=CYLINDRICAL_SURFACE('',#687,1.);
#22=CYLINDRICAL_SURFACE('',#689,1.);
#23=CYLINDRICAL_SURFACE('',#701,1.65);
#24=CYLINDRICAL_SURFACE('',#703,1.65);
#25=CYLINDRICAL_SURFACE('',#705,5.);
#26=CYLINDRICAL_SURFACE('',#706,5.);
#27=CYLINDRICAL_SURFACE('',#712,5.);
#28=CYLINDRICAL_SURFACE('',#713,5.);
#29=CYLINDRICAL_SURFACE('',#714,1.65);
#30=CYLINDRICAL_SURFACE('',#716,1.65);
#31=CYLINDRICAL_SURFACE('',#717,1.65);
#32=CYLINDRICAL_SURFACE('',#719,1.65);
#33=CYLINDRICAL_SURFACE('',#720,1.65);
#34=CYLINDRICAL_SURFACE('',#722,1.65);
#35=CYLINDRICAL_SURFACE('',#723,1.65);
#36=CYLINDRICAL_SURFACE('',#725,1.65);
#37=FACE_BOUND('',#123,.T.);
#38=FACE_BOUND('',#124,.T.);
#39=FACE_BOUND('',#126,.T.);
#40=FACE_BOUND('',#127,.T.);
#41=FACE_BOUND('',#129,.T.);
#42=FACE_BOUND('',#130,.T.);
#43=FACE_BOUND('',#137,.T.);
#44=FACE_BOUND('',#138,.T.);
#45=FACE_BOUND('',#139,.T.);
#46=FACE_BOUND('',#140,.T.);
#47=FACE_BOUND('',#142,.T.);
#48=FACE_BOUND('',#148,.T.);
#49=FACE_BOUND('',#149,.T.);
#50=FACE_BOUND('',#150,.T.);
#51=FACE_BOUND('',#151,.T.);
#52=FACE_BOUND('',#164,.T.);
#53=FACE_BOUND('',#165,.T.);
#54=FACE_BOUND('',#166,.T.);
#55=FACE_BOUND('',#167,.T.);
#56=FACE_BOUND('',#169,.T.);
#57=FACE_BOUND('',#170,.T.);
#58=CIRCLE('',#670,1.65);
#59=CIRCLE('',#671,1.65);
#60=CIRCLE('',#673,1.65);
#61=CIRCLE('',#674,1.65);
#62=CIRCLE('',#676,5.);
#63=CIRCLE('',#677,5.);
#64=CIRCLE('',#678,5.);
#65=CIRCLE('',#679,5.);
#66=CIRCLE('',#680,1.65);
#67=CIRCLE('',#681,1.65);
#68=CIRCLE('',#692,1.65);
#69=CIRCLE('',#693,1.65);
#70=CIRCLE('',#694,1.65);
#71=CIRCLE('',#695,1.65);
#72=CIRCLE('',#697,5.);
#73=CIRCLE('',#698,5.);
#74=CIRCLE('',#699,5.);
#75=CIRCLE('',#700,5.);
#76=CIRCLE('',#702,1.65);
#77=CIRCLE('',#704,1.65);
#78=CIRCLE('',#708,1.65);
#79=CIRCLE('',#709,1.65);
#80=CIRCLE('',#710,1.65);
#81=CIRCLE('',#711,1.65);
#82=CIRCLE('',#715,1.65);
#83=CIRCLE('',#718,1.65);
#84=CIRCLE('',#721,1.65);
#85=CIRCLE('',#724,1.65);
#86=FACE_OUTER_BOUND('',#119,.T.);
#87=FACE_OUTER_BOUND('',#120,.T.);
#88=FACE_OUTER_BOUND('',#121,.T.);
#89=FACE_OUTER_BOUND('',#122,.T.);
#90=FACE_OUTER_BOUND('',#125,.T.);
#91=FACE_OUTER_BOUND('',#128,.T.);
#92=FACE_OUTER_BOUND('',#131,.T.);
#93=FACE_OUTER_BOUND('',#132,.T.);
#94=FACE_OUTER_BOUND('',#133,.T.);
#95=FACE_OUTER_BOUND('',#134,.T.);
#96=FACE_OUTER_BOUND('',#135,.T.);
#97=FACE_OUTER_BOUND('',#136,.T.);
#98=FACE_OUTER_BOUND('',#141,.T.);
#99=FACE_OUTER_BOUND('',#143,.T.);
#100=FACE_OUTER_BOUND('',#144,.T.);
#101=FACE_OUTER_BOUND('',#145,.T.);
#102=FACE_OUTER_BOUND('',#146,.T.);
#103=FACE_OUTER_BOUND('',#147,.T.);
#104=FACE_OUTER_BOUND('',#152,.T.);
#105=FACE_OUTER_BOUND('',#153,.T.);
#106=FACE_OUTER_BOUND('',#154,.T.);
#107=FACE_OUTER_BOUND('',#155,.T.);
#108=FACE_OUTER_BOUND('',#156,.T.);
#109=FACE_OUTER_BOUND('',#157,.T.);
#110=FACE_OUTER_BOUND('',#158,.T.);
#111=FACE_OUTER_BOUND('',#159,.T.);
#112=FACE_OUTER_BOUND('',#160,.T.);
#113=FACE_OUTER_BOUND('',#161,.T.);
#114=FACE_OUTER_BOUND('',#162,.T.);
#115=FACE_OUTER_BOUND('',#163,.T.);
#116=FACE_OUTER_BOUND('',#168,.T.);
#117=FACE_OUTER_BOUND('',#171,.T.);
#118=FACE_OUTER_BOUND('',#172,.T.);
#119=EDGE_LOOP('',(#423,#424,#425,#426));
#120=EDGE_LOOP('',(#427,#428,#429,#430));
#121=EDGE_LOOP('',(#431,#432,#433,#434));
#122=EDGE_LOOP('',(#435,#436,#437,#438));
#123=EDGE_LOOP('',(#439));
#124=EDGE_LOOP('',(#440));
#125=EDGE_LOOP('',(#441,#442,#443,#444));
#126=EDGE_LOOP('',(#445));
#127=EDGE_LOOP('',(#446));
#128=EDGE_LOOP('',(#447,#448,#449,#450,#451,#452,#453,#454,#455,#456,#457,
#458));
#129=EDGE_LOOP('',(#459));
#130=EDGE_LOOP('',(#460));
#131=EDGE_LOOP('',(#461,#462,#463,#464));
#132=EDGE_LOOP('',(#465,#466,#467,#468));
#133=EDGE_LOOP('',(#469,#470,#471,#472));
#134=EDGE_LOOP('',(#473,#474,#475,#476));
#135=EDGE_LOOP('',(#477,#478,#479,#480));
#136=EDGE_LOOP('',(#481,#482,#483,#484));
#137=EDGE_LOOP('',(#485));
#138=EDGE_LOOP('',(#486));
#139=EDGE_LOOP('',(#487));
#140=EDGE_LOOP('',(#488));
#141=EDGE_LOOP('',(#489,#490,#491,#492,#493,#494,#495,#496,#497,#498,#499,
#500));
#142=EDGE_LOOP('',(#501,#502,#503,#504));
#143=EDGE_LOOP('',(#505,#506,#507,#508));
#144=EDGE_LOOP('',(#509,#510,#511,#512));
#145=EDGE_LOOP('',(#513,#514,#515,#516));
#146=EDGE_LOOP('',(#517,#518,#519,#520));
#147=EDGE_LOOP('',(#521,#522,#523,#524));
#148=EDGE_LOOP('',(#525));
#149=EDGE_LOOP('',(#526));
#150=EDGE_LOOP('',(#527));
#151=EDGE_LOOP('',(#528));
#152=EDGE_LOOP('',(#529,#530,#531,#532));
#153=EDGE_LOOP('',(#533,#534,#535,#536));
#154=EDGE_LOOP('',(#537,#538,#539,#540));
#155=EDGE_LOOP('',(#541,#542,#543,#544));
#156=EDGE_LOOP('',(#545,#546,#547,#548));
#157=EDGE_LOOP('',(#549,#550,#551,#552));
#158=EDGE_LOOP('',(#553,#554,#555,#556));
#159=EDGE_LOOP('',(#557,#558,#559,#560));
#160=EDGE_LOOP('',(#561,#562,#563,#564));
#161=EDGE_LOOP('',(#565,#566,#567,#568));
#162=EDGE_LOOP('',(#569,#570,#571,#572));
#163=EDGE_LOOP('',(#573,#574,#575,#576));
#164=EDGE_LOOP('',(#577));
#165=EDGE_LOOP('',(#578));
#166=EDGE_LOOP('',(#579));
#167=EDGE_LOOP('',(#580));
#168=EDGE_LOOP('',(#581,#582,#583,#584));
#169=EDGE_LOOP('',(#585));
#170=EDGE_LOOP('',(#586));
#171=EDGE_LOOP('',(#587,#588,#589,#590));
#172=EDGE_LOOP('',(#591,#592,#593,#594));
#173=LINE('',#921,#227);
#174=LINE('',#923,#228);
#175=LINE('',#925,#229);
#176=LINE('',#926,#230);
#177=LINE('',#930,#231);
#178=LINE('',#932,#232);
#179=LINE('',#934,#233);
#180=LINE('',#935,#234);
#181=LINE('',#937,#235);
#182=LINE('',#938,#236);
#183=LINE('',#941,#237);
#184=LINE('',#943,#238);
#185=LINE('',#944,#239);
#186=LINE('',#951,#240);
#187=LINE('',#953,#241);
#188=LINE('',#954,#242);
#189=LINE('',#963,#243);
#190=LINE('',#967,#244);
#191=LINE('',#971,#245);
#192=LINE('',#980,#246);
#193=LINE('',#984,#247);
#194=LINE('',#988,#248);
#195=LINE('',#991,#249);
#196=LINE('',#994,#250);
#197=LINE('',#996,#251);
#198=LINE('',#999,#252);
#199=LINE('',#1000,#253);
#200=LINE('',#1003,#254);
#201=LINE('',#1005,#255);
#202=LINE('',#1006,#256);
#203=LINE('',#1009,#257);
#204=LINE('',#1010,#258);
#205=LINE('',#1023,#259);
#206=LINE('',#1027,#260);
#207=LINE('',#1031,#261);
#208=LINE('',#1036,#262);
#209=LINE('',#1040,#263);
#210=LINE('',#1042,#264);
#211=LINE('',#1044,#265);
#212=LINE('',#1045,#266);
#213=LINE('',#1047,#267);
#214=LINE('',#1057,#268);
#215=LINE('',#1059,#269);
#216=LINE('',#1062,#270);
#217=LINE('',#1065,#271);
#218=LINE('',#1068,#272);
#219=LINE('',#1071,#273);
#220=LINE('',#1074,#274);
#221=LINE('',#1077,#275);
#222=LINE('',#1080,#276);
#223=LINE('',#1083,#277);
#224=LINE('',#1086,#278);
#225=LINE('',#1087,#279);
#226=LINE('',#1089,#280);
#227=VECTOR('',#735,10.);
#228=VECTOR('',#736,10.);
#229=VECTOR('',#737,10.);
#230=VECTOR('',#738,10.);
#231=VECTOR('',#741,10.);
#232=VECTOR('',#742,10.);
#233=VECTOR('',#743,10.);
#234=VECTOR('',#744,10.);
#235=VECTOR('',#747,10.);
#236=VECTOR('',#748,10.);
#237=VECTOR('',#751,10.);
#238=VECTOR('',#752,10.);
#239=VECTOR('',#753,10.);
#240=VECTOR('',#760,10.);
#241=VECTOR('',#761,10.);
#242=VECTOR('',#762,10.);
#243=VECTOR('',#771,10.);
#244=VECTOR('',#774,10.);
#245=VECTOR('',#777,10.);
#246=VECTOR('',#786,10.);
#247=VECTOR('',#789,10.);
#248=VECTOR('',#794,10.);
#249=VECTOR('',#797,10.);
#250=VECTOR('',#800,10.);
#251=VECTOR('',#801,10.);
#252=VECTOR('',#806,10.);
#253=VECTOR('',#807,10.);
#254=VECTOR('',#810,10.);
#255=VECTOR('',#811,10.);
#256=VECTOR('',#812,10.);
#257=VECTOR('',#815,10.);
#258=VECTOR('',#816,10.);
#259=VECTOR('',#829,10.);
#260=VECTOR('',#832,10.);
#261=VECTOR('',#835,10.);
#262=VECTOR('',#842,1.65);
#263=VECTOR('',#847,1.65);
#264=VECTOR('',#850,10.);
#265=VECTOR('',#853,10.);
#266=VECTOR('',#854,10.);
#267=VECTOR('',#857,10.);
#268=VECTOR('',#868,10.);
#269=VECTOR('',#871,10.);
#270=VECTOR('',#874,1.65);
#271=VECTOR('',#879,1.65);
#272=VECTOR('',#882,1.65);
#273=VECTOR('',#887,1.65);
#274=VECTOR('',#890,1.65);
#275=VECTOR('',#895,1.65);
#276=VECTOR('',#898,1.65);
#277=VECTOR('',#903,1.65);
#278=VECTOR('',#906,10.);
#279=VECTOR('',#907,10.);
#280=VECTOR('',#910,10.);
#281=VERTEX_POINT('',#919);
#282=VERTEX_POINT('',#920);
#283=VERTEX_POINT('',#922);
#284=VERTEX_POINT('',#924);
#285=VERTEX_POINT('',#928);
#286=VERTEX_POINT('',#929);
#287=VERTEX_POINT('',#931);
#288=VERTEX_POINT('',#933);
#289=VERTEX_POINT('',#940);
#290=VERTEX_POINT('',#942);
#291=VERTEX_POINT('',#945);
#292=VERTEX_POINT('',#947);
#293=VERTEX_POINT('',#950);
#294=VERTEX_POINT('',#952);
#295=VERTEX_POINT('',#955);
#296=VERTEX_POINT('',#957);
#297=VERTEX_POINT('',#960);
#298=VERTEX_POINT('',#962);
#299=VERTEX_POINT('',#964);
#300=VERTEX_POINT('',#966);
#301=VERTEX_POINT('',#968);
#302=VERTEX_POINT('',#970);
#303=VERTEX_POINT('',#973);
#304=VERTEX_POINT('',#975);
#305=VERTEX_POINT('',#978);
#306=VERTEX_POINT('',#979);
#307=VERTEX_POINT('',#981);
#308=VERTEX_POINT('',#983);
#309=VERTEX_POINT('',#987);
#310=VERTEX_POINT('',#989);
#311=VERTEX_POINT('',#993);
#312=VERTEX_POINT('',#995);
#313=VERTEX_POINT('',#1002);
#314=VERTEX_POINT('',#1004);
#315=VERTEX_POINT('',#1008);
#316=VERTEX_POINT('',#1011);
#317=VERTEX_POINT('',#1013);
#318=VERTEX_POINT('',#1015);
#319=VERTEX_POINT('',#1017);
#320=VERTEX_POINT('',#1020);
#321=VERTEX_POINT('',#1022);
#322=VERTEX_POINT('',#1024);
#323=VERTEX_POINT('',#1026);
#324=VERTEX_POINT('',#1028);
#325=VERTEX_POINT('',#1030);
#326=VERTEX_POINT('',#1034);
#327=VERTEX_POINT('',#1038);
#328=VERTEX_POINT('',#1048);
#329=VERTEX_POINT('',#1050);
#330=VERTEX_POINT('',#1052);
#331=VERTEX_POINT('',#1054);
#332=VERTEX_POINT('',#1061);
#333=VERTEX_POINT('',#1067);
#334=VERTEX_POINT('',#1073);
#335=VERTEX_POINT('',#1079);
#336=VERTEX_POINT('',#1085);
#337=EDGE_CURVE('',#281,#282,#173,.T.);
#338=EDGE_CURVE('',#283,#281,#174,.T.);
#339=EDGE_CURVE('',#284,#283,#175,.T.);
#340=EDGE_CURVE('',#282,#284,#176,.T.);
#341=EDGE_CURVE('',#285,#286,#177,.T.);
#342=EDGE_CURVE('',#287,#285,#178,.T.);
#343=EDGE_CURVE('',#288,#287,#179,.T.);
#344=EDGE_CURVE('',#288,#286,#180,.T.);
#345=EDGE_CURVE('',#286,#281,#181,.T.);
#346=EDGE_CURVE('',#283,#288,#182,.T.);
#347=EDGE_CURVE('',#289,#284,#183,.T.);
#348=EDGE_CURVE('',#290,#289,#184,.T.);
#349=EDGE_CURVE('',#290,#282,#185,.T.);
#350=EDGE_CURVE('',#291,#291,#58,.T.);
#351=EDGE_CURVE('',#292,#292,#59,.T.);
#352=EDGE_CURVE('',#285,#293,#186,.T.);
#353=EDGE_CURVE('',#294,#293,#187,.T.);
#354=EDGE_CURVE('',#287,#294,#188,.T.);
#355=EDGE_CURVE('',#295,#295,#60,.T.);
#356=EDGE_CURVE('',#296,#296,#61,.T.);
#357=EDGE_CURVE('',#297,#290,#62,.T.);
#358=EDGE_CURVE('',#298,#297,#189,.T.);
#359=EDGE_CURVE('',#299,#298,#63,.T.);
#360=EDGE_CURVE('',#300,#299,#190,.T.);
#361=EDGE_CURVE('',#301,#300,#64,.T.);
#362=EDGE_CURVE('',#302,#301,#191,.T.);
#363=EDGE_CURVE('',#293,#302,#65,.T.);
#364=EDGE_CURVE('',#303,#303,#66,.T.);
#365=EDGE_CURVE('',#304,#304,#67,.T.);
#366=EDGE_CURVE('',#305,#306,#192,.T.);
#367=EDGE_CURVE('',#306,#307,#15,.T.);
#368=EDGE_CURVE('',#307,#308,#193,.T.);
#369=EDGE_CURVE('',#308,#305,#16,.T.);
#370=EDGE_CURVE('',#306,#309,#194,.T.);
#371=EDGE_CURVE('',#309,#310,#17,.T.);
#372=EDGE_CURVE('',#310,#307,#195,.T.);
#373=EDGE_CURVE('',#311,#310,#196,.T.);
#374=EDGE_CURVE('',#309,#312,#197,.T.);
#375=EDGE_CURVE('',#312,#311,#18,.T.);
#376=EDGE_CURVE('',#312,#305,#198,.T.);
#377=EDGE_CURVE('',#308,#311,#199,.T.);
#378=EDGE_CURVE('',#308,#313,#200,.T.);
#379=EDGE_CURVE('',#313,#314,#201,.T.);
#380=EDGE_CURVE('',#311,#314,#202,.T.);
#381=EDGE_CURVE('',#307,#315,#203,.T.);
#382=EDGE_CURVE('',#315,#313,#204,.T.);
#383=EDGE_CURVE('',#316,#316,#68,.T.);
#384=EDGE_CURVE('',#317,#317,#69,.T.);
#385=EDGE_CURVE('',#318,#318,#70,.T.);
#386=EDGE_CURVE('',#319,#319,#71,.T.);
#387=EDGE_CURVE('',#320,#294,#72,.T.);
#388=EDGE_CURVE('',#320,#321,#205,.T.);
#389=EDGE_CURVE('',#322,#321,#73,.T.);
#390=EDGE_CURVE('',#322,#323,#206,.T.);
#391=EDGE_CURVE('',#324,#323,#74,.T.);
#392=EDGE_CURVE('',#324,#325,#207,.T.);
#393=EDGE_CURVE('',#289,#325,#75,.T.);
#394=EDGE_CURVE('',#326,#326,#76,.T.);
#395=EDGE_CURVE('',#326,#304,#208,.T.);
#396=EDGE_CURVE('',#327,#327,#77,.T.);
#397=EDGE_CURVE('',#327,#303,#209,.T.);
#398=EDGE_CURVE('',#325,#297,#210,.T.);
#399=EDGE_CURVE('',#323,#299,#211,.T.);
#400=EDGE_CURVE('',#298,#324,#212,.T.);
#401=EDGE_CURVE('',#300,#322,#213,.T.);
#402=EDGE_CURVE('',#328,#328,#78,.T.);
#403=EDGE_CURVE('',#329,#329,#79,.T.);
#404=EDGE_CURVE('',#330,#330,#80,.T.);
#405=EDGE_CURVE('',#331,#331,#81,.T.);
#406=EDGE_CURVE('',#321,#301,#214,.T.);
#407=EDGE_CURVE('',#302,#320,#215,.T.);
#408=EDGE_CURVE('',#296,#332,#216,.T.);
#409=EDGE_CURVE('',#332,#332,#82,.T.);
#410=EDGE_CURVE('',#319,#328,#217,.T.);
#411=EDGE_CURVE('',#295,#333,#218,.T.);
#412=EDGE_CURVE('',#333,#333,#83,.T.);
#413=EDGE_CURVE('',#318,#329,#219,.T.);
#414=EDGE_CURVE('',#291,#334,#220,.T.);
#415=EDGE_CURVE('',#334,#334,#84,.T.);
#416=EDGE_CURVE('',#317,#330,#221,.T.);
#417=EDGE_CURVE('',#292,#335,#222,.T.);
#418=EDGE_CURVE('',#335,#335,#85,.T.);
#419=EDGE_CURVE('',#316,#331,#223,.T.);
#420=EDGE_CURVE('',#310,#336,#224,.T.);
#421=EDGE_CURVE('',#336,#315,#225,.T.);
#422=EDGE_CURVE('',#314,#336,#226,.T.);
#423=ORIENTED_EDGE('',*,*,#337,.F.);
#424=ORIENTED_EDGE('',*,*,#338,.F.);
#425=ORIENTED_EDGE('',*,*,#339,.F.);
#426=ORIENTED_EDGE('',*,*,#340,.F.);
#427=ORIENTED_EDGE('',*,*,#341,.F.);
#428=ORIENTED_EDGE('',*,*,#342,.F.);
#429=ORIENTED_EDGE('',*,*,#343,.F.);
#430=ORIENTED_EDGE('',*,*,#344,.T.);
#431=ORIENTED_EDGE('',*,*,#345,.F.);
#432=ORIENTED_EDGE('',*,*,#344,.F.);
#433=ORIENTED_EDGE('',*,*,#346,.F.);
#434=ORIENTED_EDGE('',*,*,#338,.T.);
#435=ORIENTED_EDGE('',*,*,#340,.T.);
#436=ORIENTED_EDGE('',*,*,#347,.F.);
#437=ORIENTED_EDGE('',*,*,#348,.F.);
#438=ORIENTED_EDGE('',*,*,#349,.T.);
#439=ORIENTED_EDGE('',*,*,#350,.T.);
#440=ORIENTED_EDGE('',*,*,#351,.T.);
#441=ORIENTED_EDGE('',*,*,#342,.T.);
#442=ORIENTED_EDGE('',*,*,#352,.T.);
#443=ORIENTED_EDGE('',*,*,#353,.F.);
#444=ORIENTED_EDGE('',*,*,#354,.F.);
#445=ORIENTED_EDGE('',*,*,#355,.T.);
#446=ORIENTED_EDGE('',*,*,#356,.T.);
#447=ORIENTED_EDGE('',*,*,#341,.T.);
#448=ORIENTED_EDGE('',*,*,#345,.T.);
#449=ORIENTED_EDGE('',*,*,#337,.T.);
#450=ORIENTED_EDGE('',*,*,#349,.F.);
#451=ORIENTED_EDGE('',*,*,#357,.F.);
#452=ORIENTED_EDGE('',*,*,#358,.F.);
#453=ORIENTED_EDGE('',*,*,#359,.F.);
#454=ORIENTED_EDGE('',*,*,#360,.F.);
#455=ORIENTED_EDGE('',*,*,#361,.F.);
#456=ORIENTED_EDGE('',*,*,#362,.F.);
#457=ORIENTED_EDGE('',*,*,#363,.F.);
#458=ORIENTED_EDGE('',*,*,#352,.F.);
#459=ORIENTED_EDGE('',*,*,#364,.T.);
#460=ORIENTED_EDGE('',*,*,#365,.T.);
#461=ORIENTED_EDGE('',*,*,#366,.T.);
#462=ORIENTED_EDGE('',*,*,#367,.T.);
#463=ORIENTED_EDGE('',*,*,#368,.T.);
#464=ORIENTED_EDGE('',*,*,#369,.T.);
#465=ORIENTED_EDGE('',*,*,#370,.T.);
#466=ORIENTED_EDGE('',*,*,#371,.T.);
#467=ORIENTED_EDGE('',*,*,#372,.T.);
#468=ORIENTED_EDGE('',*,*,#367,.F.);
#469=ORIENTED_EDGE('',*,*,#373,.T.);
#470=ORIENTED_EDGE('',*,*,#371,.F.);
#471=ORIENTED_EDGE('',*,*,#374,.T.);
#472=ORIENTED_EDGE('',*,*,#375,.T.);
#473=ORIENTED_EDGE('',*,*,#376,.T.);
#474=ORIENTED_EDGE('',*,*,#369,.F.);
#475=ORIENTED_EDGE('',*,*,#377,.T.);
#476=ORIENTED_EDGE('',*,*,#375,.F.);
#477=ORIENTED_EDGE('',*,*,#377,.F.);
#478=ORIENTED_EDGE('',*,*,#378,.T.);
#479=ORIENTED_EDGE('',*,*,#379,.T.);
#480=ORIENTED_EDGE('',*,*,#380,.F.);
#481=ORIENTED_EDGE('',*,*,#368,.F.);
#482=ORIENTED_EDGE('',*,*,#381,.T.);
#483=ORIENTED_EDGE('',*,*,#382,.T.);
#484=ORIENTED_EDGE('',*,*,#378,.F.);
#485=ORIENTED_EDGE('',*,*,#383,.T.);
#486=ORIENTED_EDGE('',*,*,#384,.T.);
#487=ORIENTED_EDGE('',*,*,#385,.T.);
#488=ORIENTED_EDGE('',*,*,#386,.T.);
#489=ORIENTED_EDGE('',*,*,#343,.T.);
#490=ORIENTED_EDGE('',*,*,#354,.T.);
#491=ORIENTED_EDGE('',*,*,#387,.F.);
#492=ORIENTED_EDGE('',*,*,#388,.T.);
#493=ORIENTED_EDGE('',*,*,#389,.F.);
#494=ORIENTED_EDGE('',*,*,#390,.T.);
#495=ORIENTED_EDGE('',*,*,#391,.F.);
#496=ORIENTED_EDGE('',*,*,#392,.T.);
#497=ORIENTED_EDGE('',*,*,#393,.F.);
#498=ORIENTED_EDGE('',*,*,#347,.T.);
#499=ORIENTED_EDGE('',*,*,#339,.T.);
#500=ORIENTED_EDGE('',*,*,#346,.T.);
#501=ORIENTED_EDGE('',*,*,#366,.F.);
#502=ORIENTED_EDGE('',*,*,#376,.F.);
#503=ORIENTED_EDGE('',*,*,#374,.F.);
#504=ORIENTED_EDGE('',*,*,#370,.F.);
#505=ORIENTED_EDGE('',*,*,#394,.F.);
#506=ORIENTED_EDGE('',*,*,#395,.T.);
#507=ORIENTED_EDGE('',*,*,#365,.F.);
#508=ORIENTED_EDGE('',*,*,#395,.F.);
#509=ORIENTED_EDGE('',*,*,#396,.F.);
#510=ORIENTED_EDGE('',*,*,#397,.T.);
#511=ORIENTED_EDGE('',*,*,#364,.F.);
#512=ORIENTED_EDGE('',*,*,#397,.F.);
#513=ORIENTED_EDGE('',*,*,#393,.T.);
#514=ORIENTED_EDGE('',*,*,#398,.T.);
#515=ORIENTED_EDGE('',*,*,#357,.T.);
#516=ORIENTED_EDGE('',*,*,#348,.T.);
#517=ORIENTED_EDGE('',*,*,#391,.T.);
#518=ORIENTED_EDGE('',*,*,#399,.T.);
#519=ORIENTED_EDGE('',*,*,#359,.T.);
#520=ORIENTED_EDGE('',*,*,#400,.T.);
#521=ORIENTED_EDGE('',*,*,#399,.F.);
#522=ORIENTED_EDGE('',*,*,#390,.F.);
#523=ORIENTED_EDGE('',*,*,#401,.F.);
#524=ORIENTED_EDGE('',*,*,#360,.T.);
#525=ORIENTED_EDGE('',*,*,#402,.T.);
#526=ORIENTED_EDGE('',*,*,#403,.T.);
#527=ORIENTED_EDGE('',*,*,#404,.T.);
#528=ORIENTED_EDGE('',*,*,#405,.T.);
#529=ORIENTED_EDGE('',*,*,#389,.T.);
#530=ORIENTED_EDGE('',*,*,#406,.T.);
#531=ORIENTED_EDGE('',*,*,#361,.T.);
#532=ORIENTED_EDGE('',*,*,#401,.T.);
#533=ORIENTED_EDGE('',*,*,#387,.T.);
#534=ORIENTED_EDGE('',*,*,#353,.T.);
#535=ORIENTED_EDGE('',*,*,#363,.T.);
#536=ORIENTED_EDGE('',*,*,#407,.T.);
#537=ORIENTED_EDGE('',*,*,#356,.F.);
#538=ORIENTED_EDGE('',*,*,#408,.T.);
#539=ORIENTED_EDGE('',*,*,#409,.F.);
#540=ORIENTED_EDGE('',*,*,#408,.F.);
#541=ORIENTED_EDGE('',*,*,#386,.F.);
#542=ORIENTED_EDGE('',*,*,#410,.T.);
#543=ORIENTED_EDGE('',*,*,#402,.F.);
#544=ORIENTED_EDGE('',*,*,#410,.F.);
#545=ORIENTED_EDGE('',*,*,#355,.F.);
#546=ORIENTED_EDGE('',*,*,#411,.T.);
#547=ORIENTED_EDGE('',*,*,#412,.F.);
#548=ORIENTED_EDGE('',*,*,#411,.F.);
#549=ORIENTED_EDGE('',*,*,#385,.F.);
#550=ORIENTED_EDGE('',*,*,#413,.T.);
#551=ORIENTED_EDGE('',*,*,#403,.F.);
#552=ORIENTED_EDGE('',*,*,#413,.F.);
#553=ORIENTED_EDGE('',*,*,#350,.F.);
#554=ORIENTED_EDGE('',*,*,#414,.T.);
#555=ORIENTED_EDGE('',*,*,#415,.F.);
#556=ORIENTED_EDGE('',*,*,#414,.F.);
#557=ORIENTED_EDGE('',*,*,#384,.F.);
#558=ORIENTED_EDGE('',*,*,#416,.T.);
#559=ORIENTED_EDGE('',*,*,#404,.F.);
#560=ORIENTED_EDGE('',*,*,#416,.F.);
#561=ORIENTED_EDGE('',*,*,#351,.F.);
#562=ORIENTED_EDGE('',*,*,#417,.T.);
#563=ORIENTED_EDGE('',*,*,#418,.F.);
#564=ORIENTED_EDGE('',*,*,#417,.F.);
#565=ORIENTED_EDGE('',*,*,#383,.F.);
#566=ORIENTED_EDGE('',*,*,#419,.T.);
#567=ORIENTED_EDGE('',*,*,#405,.F.);
#568=ORIENTED_EDGE('',*,*,#419,.F.);
#569=ORIENTED_EDGE('',*,*,#372,.F.);
#570=ORIENTED_EDGE('',*,*,#420,.T.);
#571=ORIENTED_EDGE('',*,*,#421,.T.);
#572=ORIENTED_EDGE('',*,*,#381,.F.);
#573=ORIENTED_EDGE('',*,*,#373,.F.);
#574=ORIENTED_EDGE('',*,*,#380,.T.);
#575=ORIENTED_EDGE('',*,*,#422,.T.);
#576=ORIENTED_EDGE('',*,*,#420,.F.);
#577=ORIENTED_EDGE('',*,*,#409,.T.);
#578=ORIENTED_EDGE('',*,*,#412,.T.);
#579=ORIENTED_EDGE('',*,*,#415,.T.);
#580=ORIENTED_EDGE('',*,*,#418,.T.);
#581=ORIENTED_EDGE('',*,*,#379,.F.);
#582=ORIENTED_EDGE('',*,*,#382,.F.);
#583=ORIENTED_EDGE('',*,*,#421,.F.);
#584=ORIENTED_EDGE('',*,*,#422,.F.);
#585=ORIENTED_EDGE('',*,*,#394,.T.);
#586=ORIENTED_EDGE('',*,*,#396,.T.);
#587=ORIENTED_EDGE('',*,*,#406,.F.);
#588=ORIENTED_EDGE('',*,*,#388,.F.);
#589=ORIENTED_EDGE('',*,*,#407,.F.);
#590=ORIENTED_EDGE('',*,*,#362,.T.);
#591=ORIENTED_EDGE('',*,*,#398,.F.);
#592=ORIENTED_EDGE('',*,*,#392,.F.);
#593=ORIENTED_EDGE('',*,*,#400,.F.);
#594=ORIENTED_EDGE('',*,*,#358,.T.);
#595=PLANE('',#666);
#596=PLANE('',#667);
#597=PLANE('',#668);
#598=PLANE('',#669);
#599=PLANE('',#672);
#600=PLANE('',#675);
#601=PLANE('',#690);
#602=PLANE('',#691);
#603=PLANE('',#696);
#604=PLANE('',#707);
#605=PLANE('',#726);
#606=PLANE('',#727);
#607=PLANE('',#728);
#608=PLANE('',#729);
#609=PLANE('',#730);
#610=ADVANCED_FACE('',(#86),#595,.F.);
#611=ADVANCED_FACE('',(#87),#596,.F.);
#612=ADVANCED_FACE('',(#88),#597,.F.);
#613=ADVANCED_FACE('',(#89,#37,#38),#598,.T.);
#614=ADVANCED_FACE('',(#90,#39,#40),#599,.T.);
#615=ADVANCED_FACE('',(#91,#41,#42),#600,.F.);
#616=ADVANCED_FACE('',(#92),#19,.T.);
#617=ADVANCED_FACE('',(#93),#20,.T.);
#618=ADVANCED_FACE('',(#94),#21,.T.);
#619=ADVANCED_FACE('',(#95),#22,.T.);
#620=ADVANCED_FACE('',(#96),#601,.F.);
#621=ADVANCED_FACE('',(#97,#43,#44,#45,#46),#602,.F.);
#622=ADVANCED_FACE('',(#98,#47),#603,.T.);
#623=ADVANCED_FACE('',(#99),#23,.F.);
#624=ADVANCED_FACE('',(#100),#24,.F.);
#625=ADVANCED_FACE('',(#101),#25,.T.);
#626=ADVANCED_FACE('',(#102),#26,.T.);
#627=ADVANCED_FACE('',(#103,#48,#49,#50,#51),#604,.T.);
#628=ADVANCED_FACE('',(#104),#27,.T.);
#629=ADVANCED_FACE('',(#105),#28,.T.);
#630=ADVANCED_FACE('',(#106),#29,.F.);
#631=ADVANCED_FACE('',(#107),#30,.F.);
#632=ADVANCED_FACE('',(#108),#31,.F.);
#633=ADVANCED_FACE('',(#109),#32,.F.);
#634=ADVANCED_FACE('',(#110),#33,.F.);
#635=ADVANCED_FACE('',(#111),#34,.F.);
#636=ADVANCED_FACE('',(#112),#35,.F.);
#637=ADVANCED_FACE('',(#113),#36,.F.);
#638=ADVANCED_FACE('',(#114),#605,.F.);
#639=ADVANCED_FACE('',(#115,#52,#53,#54,#55),#606,.F.);
#640=ADVANCED_FACE('',(#116,#56,#57),#607,.F.);
#641=ADVANCED_FACE('',(#117),#608,.T.);
#642=ADVANCED_FACE('',(#118),#609,.T.);
#643=CLOSED_SHELL('',(#610,#611,#612,#613,#614,#615,#616,#617,#618,#619,
#620,#621,#622,#623,#624,#625,#626,#627,#628,#629,#630,#631,#632,#633,#634,
#635,#636,#637,#638,#639,#640,#641,#642));
#644=DERIVED_UNIT_ELEMENT(#647,1.);
#645=DERIVED_UNIT_ELEMENT(#1098,-3.);
#646=DIMENSIONAL_EXPONENTS(0.,1.,0.,0.,0.,0.,0.);
#647=(
CONVERSION_BASED_UNIT('gram',#649)
MASS_UNIT()
NAMED_UNIT(#646)
);
#648=(
MASS_UNIT()
NAMED_UNIT(*)
SI_UNIT(.KILO.,.GRAM.)
);
#649=MASS_MEASURE_WITH_UNIT(MASS_MEASURE(0.001),#648);
#650=DERIVED_UNIT((#644,#645));
#651=MEASURE_REPRESENTATION_ITEM('density measure',
POSITIVE_RATIO_MEASURE(1.),#650);
#652=PROPERTY_DEFINITION_REPRESENTATION(#657,#654);
#653=PROPERTY_DEFINITION_REPRESENTATION(#658,#655);
#654=REPRESENTATION('material name',(#656),#1095);
#655=REPRESENTATION('density',(#651),#1095);
#656=DESCRIPTIVE_REPRESENTATION_ITEM('\X2\4E00822C\X0\','\X2\4E00822C\X0\');
#657=PROPERTY_DEFINITION('material property','material name',#1105);
#658=PROPERTY_DEFINITION('material property','density of part',#1105);
#659=DATE_TIME_ROLE('creation_date');
#660=APPLIED_DATE_AND_TIME_ASSIGNMENT(#661,#659,(#1105));
#661=DATE_AND_TIME(#662,#663);
#662=CALENDAR_DATE(2025,29,5);
#663=LOCAL_TIME(0,0,0.,#664);
#664=COORDINATED_UNIVERSAL_TIME_OFFSET(0,0,.BEHIND.);
#665=AXIS2_PLACEMENT_3D('',#917,#731,#732);
#666=AXIS2_PLACEMENT_3D('',#918,#733,#734);
#667=AXIS2_PLACEMENT_3D('',#927,#739,#740);
#668=AXIS2_PLACEMENT_3D('',#936,#745,#746);
#669=AXIS2_PLACEMENT_3D('',#939,#749,#750);
#670=AXIS2_PLACEMENT_3D('',#946,#754,#755);
#671=AXIS2_PLACEMENT_3D('',#948,#756,#757);
#672=AXIS2_PLACEMENT_3D('',#949,#758,#759);
#673=AXIS2_PLACEMENT_3D('',#956,#763,#764);
#674=AXIS2_PLACEMENT_3D('',#958,#765,#766);
#675=AXIS2_PLACEMENT_3D('',#959,#767,#768);
#676=AXIS2_PLACEMENT_3D('',#961,#769,#770);
#677=AXIS2_PLACEMENT_3D('',#965,#772,#773);
#678=AXIS2_PLACEMENT_3D('',#969,#775,#776);
#679=AXIS2_PLACEMENT_3D('',#972,#778,#779);
#680=AXIS2_PLACEMENT_3D('',#974,#780,#781);
#681=AXIS2_PLACEMENT_3D('',#976,#782,#783);
#682=AXIS2_PLACEMENT_3D('',#977,#784,#785);
#683=AXIS2_PLACEMENT_3D('',#982,#787,#788);
#684=AXIS2_PLACEMENT_3D('',#985,#790,#791);
#685=AXIS2_PLACEMENT_3D('',#986,#792,#793);
#686=AXIS2_PLACEMENT_3D('',#990,#795,#796);
#687=AXIS2_PLACEMENT_3D('',#992,#798,#799);
#688=AXIS2_PLACEMENT_3D('',#997,#802,#803);
#689=AXIS2_PLACEMENT_3D('',#998,#804,#805);
#690=AXIS2_PLACEMENT_3D('',#1001,#808,#809);
#691=AXIS2_PLACEMENT_3D('',#1007,#813,#814);
#692=AXIS2_PLACEMENT_3D('',#1012,#817,#818);
#693=AXIS2_PLACEMENT_3D('',#1014,#819,#820);
#694=AXIS2_PLACEMENT_3D('',#1016,#821,#822);
#695=AXIS2_PLACEMENT_3D('',#1018,#823,#824);
#696=AXIS2_PLACEMENT_3D('',#1019,#825,#826);
#697=AXIS2_PLACEMENT_3D('',#1021,#827,#828);
#698=AXIS2_PLACEMENT_3D('',#1025,#830,#831);
#699=AXIS2_PLACEMENT_3D('',#1029,#833,#834);
#700=AXIS2_PLACEMENT_3D('',#1032,#836,#837);
#701=AXIS2_PLACEMENT_3D('',#1033,#838,#839);
#702=AXIS2_PLACEMENT_3D('',#1035,#840,#841);
#703=AXIS2_PLACEMENT_3D('',#1037,#843,#844);
#704=AXIS2_PLACEMENT_3D('',#1039,#845,#846);
#705=AXIS2_PLACEMENT_3D('',#1041,#848,#849);
#706=AXIS2_PLACEMENT_3D('',#1043,#851,#852);
#707=AXIS2_PLACEMENT_3D('',#1046,#855,#856);
#708=AXIS2_PLACEMENT_3D('',#1049,#858,#859);
#709=AXIS2_PLACEMENT_3D('',#1051,#860,#861);
#710=AXIS2_PLACEMENT_3D('',#1053,#862,#863);
#711=AXIS2_PLACEMENT_3D('',#1055,#864,#865);
#712=AXIS2_PLACEMENT_3D('',#1056,#866,#867);
#713=AXIS2_PLACEMENT_3D('',#1058,#869,#870);
#714=AXIS2_PLACEMENT_3D('',#1060,#872,#873);
#715=AXIS2_PLACEMENT_3D('',#1063,#875,#876);
#716=AXIS2_PLACEMENT_3D('',#1064,#877,#878);
#717=AXIS2_PLACEMENT_3D('',#1066,#880,#881);
#718=AXIS2_PLACEMENT_3D('',#1069,#883,#884);
#719=AXIS2_PLACEMENT_3D('',#1070,#885,#886);
#720=AXIS2_PLACEMENT_3D('',#1072,#888,#889);
#721=AXIS2_PLACEMENT_3D('',#1075,#891,#892);
#722=AXIS2_PLACEMENT_3D('',#1076,#893,#894);
#723=AXIS2_PLACEMENT_3D('',#1078,#896,#897);
#724=AXIS2_PLACEMENT_3D('',#1081,#899,#900);
#725=AXIS2_PLACEMENT_3D('',#1082,#901,#902);
#726=AXIS2_PLACEMENT_3D('',#1084,#904,#905);
#727=AXIS2_PLACEMENT_3D('',#1088,#908,#909);
#728=AXIS2_PLACEMENT_3D('',#1090,#911,#912);
#729=AXIS2_PLACEMENT_3D('',#1091,#913,#914);
#730=AXIS2_PLACEMENT_3D('',#1092,#915,#916);
#731=DIRECTION('axis',(0.,0.,1.));
#732=DIRECTION('refdir',(1.,0.,0.));
#733=DIRECTION('center_axis',(0.,4.44089209850063E-16,-1.));
#734=DIRECTION('ref_axis',(0.,-1.,-4.44089209850063E-16));
#735=DIRECTION('',(0.,1.,4.44089209850063E-16));
#736=DIRECTION('',(-1.,0.,0.));
#737=DIRECTION('',(0.,-1.,-4.44089209850063E-16));
#738=DIRECTION('',(1.,0.,0.));
#739=DIRECTION('center_axis',(0.,4.44089209850063E-16,1.));
#740=DIRECTION('ref_axis',(0.,1.,-4.44089209850063E-16));
#741=DIRECTION('',(0.,-1.,4.44089209850063E-16));
#742=DIRECTION('',(-1.,0.,0.));
#743=DIRECTION('',(0.,1.,-4.44089209850063E-16));
#744=DIRECTION('',(-1.,0.,0.));
#745=DIRECTION('center_axis',(0.,-1.,0.));
#746=DIRECTION('ref_axis',(0.,0.,1.));
#747=DIRECTION('',(0.,0.,-1.));
#748=DIRECTION('',(0.,0.,1.));
#749=DIRECTION('center_axis',(0.,1.,1.41429684665625E-16));
#750=DIRECTION('ref_axis',(0.,-1.41429684665625E-16,1.));
#751=DIRECTION('',(0.,-1.41429684665625E-16,1.));
#752=DIRECTION('',(1.,0.,0.));
#753=DIRECTION('',(0.,-1.41429684665625E-16,1.));
#754=DIRECTION('center_axis',(0.,-1.,-1.41429684665625E-16));
#755=DIRECTION('ref_axis',(1.,0.,0.));
#756=DIRECTION('center_axis',(0.,-1.,-1.41429684665625E-16));
#757=DIRECTION('ref_axis',(1.,0.,0.));
#758=DIRECTION('center_axis',(0.,1.,1.41429684665625E-16));
#759=DIRECTION('ref_axis',(0.,-1.41429684665625E-16,1.));
#760=DIRECTION('',(0.,-1.41429684665625E-16,1.));
#761=DIRECTION('',(-1.,0.,0.));
#762=DIRECTION('',(0.,-1.41429684665625E-16,1.));
#763=DIRECTION('center_axis',(0.,-1.,-1.41429684665625E-16));
#764=DIRECTION('ref_axis',(1.,0.,0.));
#765=DIRECTION('center_axis',(0.,-1.,-1.41429684665625E-16));
#766=DIRECTION('ref_axis',(1.,0.,0.));
#767=DIRECTION('center_axis',(1.,0.,0.));
#768=DIRECTION('ref_axis',(0.,0.,-1.));
#769=DIRECTION('center_axis',(1.,0.,0.));
#770=DIRECTION('ref_axis',(0.,0.707106781186547,-0.707106781186547));
#771=DIRECTION('',(0.,1.,0.));
#772=DIRECTION('center_axis',(1.,0.,0.));
#773=DIRECTION('ref_axis',(0.,-0.707106781186547,-0.707106781186547));
#774=DIRECTION('',(0.,2.8285936933125E-16,-1.));
#775=DIRECTION('center_axis',(1.,0.,0.));
#776=DIRECTION('ref_axis',(0.,-0.707106781186548,0.707106781186547));
#777=DIRECTION('',(0.,-1.,0.));
#778=DIRECTION('center_axis',(1.,0.,0.));
#779=DIRECTION('ref_axis',(0.,0.707106781186548,0.707106781186547));
#780=DIRECTION('center_axis',(1.,0.,0.));
#781=DIRECTION('ref_axis',(0.,0.,-1.));
#782=DIRECTION('center_axis',(1.,0.,0.));
#783=DIRECTION('ref_axis',(0.,0.,-1.));
#784=DIRECTION('center_axis',(0.,-6.62819716194123E-16,1.));
#785=DIRECTION('ref_axis',(0.707106781186546,0.707106781186549,0.));
#786=DIRECTION('',(0.,6.62819716194123E-16,-1.));
#787=DIRECTION('center_axis',(0.,-0.707106781186552,0.707106781186543));
#788=DIRECTION('ref_axis',(0.,-0.707106781186543,-0.707106781186552));
#789=DIRECTION('',(0.,-6.62819716194123E-16,1.));
#790=DIRECTION('center_axis',(0.,-0.707106781186551,-0.707106781186544));
#791=DIRECTION('ref_axis',(0.,0.707106781186544,-0.707106781186551));
#792=DIRECTION('center_axis',(0.,-1.,8.79384573960518E-16));
#793=DIRECTION('ref_axis',(0.707106781186548,0.,0.707106781186548));
#794=DIRECTION('',(0.,1.,-8.79384573960518E-16));
#795=DIRECTION('center_axis',(0.,-0.707106781186551,-0.707106781186544));
#796=DIRECTION('ref_axis',(0.,0.707106781186544,-0.707106781186551));
#797=DIRECTION('',(0.,-1.,8.79384573960518E-16));
#798=DIRECTION('center_axis',(0.,-2.20939905398041E-16,-1.));
#799=DIRECTION('ref_axis',(0.707106781186548,-0.707106781186548,0.));
#800=DIRECTION('',(0.,-2.20939905398041E-16,-1.));
#801=DIRECTION('',(0.,2.20939905398041E-16,1.));
#802=DIRECTION('center_axis',(0.,0.707106781186544,-0.707106781186551));
#803=DIRECTION('ref_axis',(0.,0.707106781186551,0.707106781186544));
#804=DIRECTION('center_axis',(0.,1.,0.));
#805=DIRECTION('ref_axis',(0.707106781186546,0.,-0.707106781186549));
#806=DIRECTION('',(0.,-1.,0.));
#807=DIRECTION('',(0.,1.,0.));
#808=DIRECTION('center_axis',(0.,0.,1.));
#809=DIRECTION('ref_axis',(0.,1.,0.));
#810=DIRECTION('',(-1.,0.,0.));
#811=DIRECTION('',(0.,1.,0.));
#812=DIRECTION('',(-1.,0.,0.));
#813=DIRECTION('center_axis',(0.,-1.,-6.62819716194123E-16));
#814=DIRECTION('ref_axis',(0.,-6.62819716194123E-16,1.));
#815=DIRECTION('',(-1.,0.,0.));
#816=DIRECTION('',(0.,-6.62819716194123E-16,1.));
#817=DIRECTION('center_axis',(0.,-1.,-6.62819716194123E-16));
#818=DIRECTION('ref_axis',(1.,0.,0.));
#819=DIRECTION('center_axis',(0.,-1.,-6.62819716194123E-16));
#820=DIRECTION('ref_axis',(1.,0.,0.));
#821=DIRECTION('center_axis',(0.,-1.,-6.62819716194123E-16));
#822=DIRECTION('ref_axis',(1.,0.,0.));
#823=DIRECTION('center_axis',(0.,-1.,-6.62819716194123E-16));
#824=DIRECTION('ref_axis',(1.,0.,0.));
#825=DIRECTION('center_axis',(1.,0.,0.));
#826=DIRECTION('ref_axis',(0.,0.,-1.));
#827=DIRECTION('center_axis',(-1.,0.,0.));
#828=DIRECTION('ref_axis',(0.,0.707106781186548,0.707106781186547));
#829=DIRECTION('',(0.,-1.,0.));
#830=DIRECTION('center_axis',(-1.,0.,0.));
#831=DIRECTION('ref_axis',(0.,-0.707106781186548,0.707106781186547));
#832=DIRECTION('',(0.,2.8285936933125E-16,-1.));
#833=DIRECTION('center_axis',(-1.,0.,0.));
#834=DIRECTION('ref_axis',(0.,-0.707106781186547,-0.707106781186547));
#835=DIRECTION('',(0.,1.,0.));
#836=DIRECTION('center_axis',(-1.,0.,0.));
#837=DIRECTION('ref_axis',(0.,0.707106781186547,-0.707106781186547));
#838=DIRECTION('center_axis',(1.,0.,0.));
#839=DIRECTION('ref_axis',(0.,0.,-1.));
#840=DIRECTION('center_axis',(-1.,0.,0.));
#841=DIRECTION('ref_axis',(0.,0.,-1.));
#842=DIRECTION('',(-1.,0.,0.));
#843=DIRECTION('center_axis',(1.,0.,0.));
#844=DIRECTION('ref_axis',(0.,0.,-1.));
#845=DIRECTION('center_axis',(-1.,0.,0.));
#846=DIRECTION('ref_axis',(0.,0.,-1.));
#847=DIRECTION('',(-1.,0.,0.));
#848=DIRECTION('center_axis',(1.,0.,0.));
#849=DIRECTION('ref_axis',(0.,0.707106781186547,-0.707106781186547));
#850=DIRECTION('',(-1.,0.,0.));
#851=DIRECTION('center_axis',(1.,0.,0.));
#852=DIRECTION('ref_axis',(0.,-0.707106781186547,-0.707106781186547));
#853=DIRECTION('',(-1.,0.,0.));
#854=DIRECTION('',(1.,0.,0.));
#855=DIRECTION('center_axis',(0.,-1.,-2.8285936933125E-16));
#856=DIRECTION('ref_axis',(0.,2.8285936933125E-16,-1.));
#857=DIRECTION('',(1.,0.,0.));
#858=DIRECTION('center_axis',(0.,1.,2.8285936933125E-16));
#859=DIRECTION('ref_axis',(1.,0.,0.));
#860=DIRECTION('center_axis',(0.,1.,2.8285936933125E-16));
#861=DIRECTION('ref_axis',(1.,0.,0.));
#862=DIRECTION('center_axis',(0.,1.,2.8285936933125E-16));
#863=DIRECTION('ref_axis',(1.,0.,0.));
#864=DIRECTION('center_axis',(0.,1.,2.8285936933125E-16));
#865=DIRECTION('ref_axis',(1.,0.,0.));
#866=DIRECTION('center_axis',(1.,0.,0.));
#867=DIRECTION('ref_axis',(0.,-0.707106781186548,0.707106781186547));
#868=DIRECTION('',(-1.,0.,0.));
#869=DIRECTION('center_axis',(1.,0.,0.));
#870=DIRECTION('ref_axis',(0.,0.707106781186548,0.707106781186547));
#871=DIRECTION('',(1.,0.,0.));
#872=DIRECTION('center_axis',(0.,1.,1.41429684665625E-16));
#873=DIRECTION('ref_axis',(1.,0.,0.));
#874=DIRECTION('',(0.,-1.,-1.41429684665625E-16));
#875=DIRECTION('center_axis',(0.,1.,-2.20939905398041E-16));
#876=DIRECTION('ref_axis',(1.,0.,0.));
#877=DIRECTION('center_axis',(0.,1.,1.41429684665625E-16));
#878=DIRECTION('ref_axis',(1.,0.,0.));
#879=DIRECTION('',(0.,-1.,-1.41429684665625E-16));
#880=DIRECTION('center_axis',(0.,1.,1.41429684665625E-16));
#881=DIRECTION('ref_axis',(1.,0.,0.));
#882=DIRECTION('',(0.,-1.,-1.41429684665625E-16));
#883=DIRECTION('center_axis',(0.,1.,-2.20939905398041E-16));
#884=DIRECTION('ref_axis',(1.,0.,0.));
#885=DIRECTION('center_axis',(0.,1.,1.41429684665625E-16));
#886=DIRECTION('ref_axis',(1.,0.,0.));
#887=DIRECTION('',(0.,-1.,-1.41429684665625E-16));
#888=DIRECTION('center_axis',(0.,1.,1.41429684665625E-16));
#889=DIRECTION('ref_axis',(1.,0.,0.));
#890=DIRECTION('',(0.,-1.,-1.41429684665625E-16));
#891=DIRECTION('center_axis',(0.,1.,-2.20939905398041E-16));
#892=DIRECTION('ref_axis',(1.,0.,0.));
#893=DIRECTION('center_axis',(0.,1.,1.41429684665625E-16));
#894=DIRECTION('ref_axis',(1.,0.,0.));
#895=DIRECTION('',(0.,-1.,-1.41429684665625E-16));
#896=DIRECTION('center_axis',(0.,1.,1.41429684665625E-16));
#897=DIRECTION('ref_axis',(1.,0.,0.));
#898=DIRECTION('',(0.,-1.,-1.41429684665625E-16));
#899=DIRECTION('center_axis',(0.,1.,-2.20939905398041E-16));
#900=DIRECTION('ref_axis',(1.,0.,0.));
#901=DIRECTION('center_axis',(0.,1.,1.41429684665625E-16));
#902=DIRECTION('ref_axis',(1.,0.,0.));
#903=DIRECTION('',(0.,-1.,-1.41429684665625E-16));
#904=DIRECTION('center_axis',(0.,-8.79384573960518E-16,-1.));
#905=DIRECTION('ref_axis',(0.,-1.,8.79384573960518E-16));
#906=DIRECTION('',(-1.,0.,0.));
#907=DIRECTION('',(0.,-1.,8.79384573960518E-16));
#908=DIRECTION('center_axis',(0.,1.,-2.20939905398041E-16));
#909=DIRECTION('ref_axis',(0.,-2.20939905398041E-16,-1.));
#910=DIRECTION('',(0.,-2.20939905398041E-16,-1.));
#911=DIRECTION('center_axis',(-1.,0.,0.));
#912=DIRECTION('ref_axis',(0.,0.,1.));
#913=DIRECTION('center_axis',(0.,0.,1.));
#914=DIRECTION('ref_axis',(0.,-1.,0.));
#915=DIRECTION('center_axis',(0.,0.,-1.));
#916=DIRECTION('ref_axis',(0.,1.,0.));
#917=CARTESIAN_POINT('',(0.,0.,0.));
#918=CARTESIAN_POINT('Origin',(50.,44.,-36.4));
#919=CARTESIAN_POINT('',(0.,34.,-36.4));
#920=CARTESIAN_POINT('',(0.,44.,-36.4));
#921=CARTESIAN_POINT('',(0.,33.,-36.4));
#922=CARTESIAN_POINT('',(50.,34.,-36.4));
#923=CARTESIAN_POINT('',(50.,34.,-36.4));
#924=CARTESIAN_POINT('',(50.,44.,-36.4));
#925=CARTESIAN_POINT('',(50.,33.,-36.4));
#926=CARTESIAN_POINT('',(25.,44.,-36.4));
#927=CARTESIAN_POINT('Origin',(50.,34.,-26.4));
#928=CARTESIAN_POINT('',(0.,44.,-26.4));
#929=CARTESIAN_POINT('',(0.,34.,-26.4));
#930=CARTESIAN_POINT('',(0.,28.,-26.4));
#931=CARTESIAN_POINT('',(50.,44.,-26.4));
#932=CARTESIAN_POINT('',(25.,44.,-26.4));
#933=CARTESIAN_POINT('',(50.,34.,-26.4));
#934=CARTESIAN_POINT('',(50.,28.,-26.4));
#935=CARTESIAN_POINT('',(50.,34.,-26.4));
#936=CARTESIAN_POINT('Origin',(50.,34.,-36.4));
#937=CARTESIAN_POINT('',(0.,34.,-33.9));
#938=CARTESIAN_POINT('',(50.,34.,-33.9));
#939=CARTESIAN_POINT('Origin',(0.,44.,-62.8));
#940=CARTESIAN_POINT('',(50.,44.,-57.8));
#941=CARTESIAN_POINT('',(50.,44.,-62.8));
#942=CARTESIAN_POINT('',(0.,44.,-57.8));
#943=CARTESIAN_POINT('',(0.,44.,-57.8));
#944=CARTESIAN_POINT('',(0.,44.,-62.8));
#945=CARTESIAN_POINT('',(38.35,44.,-41.4));
#946=CARTESIAN_POINT('Origin',(40.,44.,-41.4));
#947=CARTESIAN_POINT('',(18.35,44.,-41.4));
#948=CARTESIAN_POINT('Origin',(20.,44.,-41.4));
#949=CARTESIAN_POINT('Origin',(0.,44.,-62.8));
#950=CARTESIAN_POINT('',(0.,44.,-5.));
#951=CARTESIAN_POINT('',(0.,44.,-62.8));
#952=CARTESIAN_POINT('',(50.,44.,-5.));
#953=CARTESIAN_POINT('',(0.,44.,-5.));
#954=CARTESIAN_POINT('',(50.,44.,-62.8));
#955=CARTESIAN_POINT('',(18.35,44.,-21.4));
#956=CARTESIAN_POINT('Origin',(20.,44.,-21.4));
#957=CARTESIAN_POINT('',(38.35,44.,-21.4));
#958=CARTESIAN_POINT('Origin',(40.,44.,-21.4));
#959=CARTESIAN_POINT('Origin',(0.,22.,-31.4));
#960=CARTESIAN_POINT('',(0.,39.,-62.8));
#961=CARTESIAN_POINT('Origin',(0.,39.,-57.8));
#962=CARTESIAN_POINT('',(0.,5.00000000000002,-62.8));
#963=CARTESIAN_POINT('',(0.,1.77635683940025E-14,-62.8));
#964=CARTESIAN_POINT('',(0.,1.63492715473463E-14,-57.8));
#965=CARTESIAN_POINT('Origin',(0.,5.00000000000002,-57.8));
#966=CARTESIAN_POINT('',(0.,1.41429684665625E-15,-5.));
#967=CARTESIAN_POINT('',(0.,0.,0.));
#968=CARTESIAN_POINT('',(0.,5.,0.));
#969=CARTESIAN_POINT('Origin',(0.,5.,-5.));
#970=CARTESIAN_POINT('',(0.,39.,0.));
#971=CARTESIAN_POINT('',(0.,44.,0.));
#972=CARTESIAN_POINT('Origin',(0.,39.,-5.));
#973=CARTESIAN_POINT('',(0.,22.,-39.75));
#974=CARTESIAN_POINT('Origin',(0.,22.,-41.4));
#975=CARTESIAN_POINT('',(0.,22.,-19.75));
#976=CARTESIAN_POINT('Origin',(0.,22.,-21.4));
#977=CARTESIAN_POINT('Origin',(49.,10.9,-41.45));
#978=CARTESIAN_POINT('',(50.,10.9,-10.3));
#979=CARTESIAN_POINT('',(50.,10.9,-52.5));
#980=CARTESIAN_POINT('',(50.,10.9,-41.45));
#981=CARTESIAN_POINT('',(49.,11.9,-51.5));
#982=CARTESIAN_POINT('Origin',(49.,10.9,-52.5));
#983=CARTESIAN_POINT('',(49.,11.9,-11.3));
#984=CARTESIAN_POINT('',(49.,11.9,-41.45));
#985=CARTESIAN_POINT('Origin',(49.,10.9,-10.3));
#986=CARTESIAN_POINT('Origin',(49.,27.05,-52.5));
#987=CARTESIAN_POINT('',(50.,33.1,-52.5));
#988=CARTESIAN_POINT('',(50.,27.05,-52.5));
#989=CARTESIAN_POINT('',(49.,32.1,-51.5));
#990=CARTESIAN_POINT('Origin',(49.,33.1,-52.5));
#991=CARTESIAN_POINT('',(49.,27.05,-51.5));
#992=CARTESIAN_POINT('Origin',(49.,33.1,-21.35));
#993=CARTESIAN_POINT('',(49.,32.1,-11.3));
#994=CARTESIAN_POINT('',(49.,32.1,-21.35));
#995=CARTESIAN_POINT('',(50.,33.1,-10.3));
#996=CARTESIAN_POINT('',(50.,33.1,-21.35));
#997=CARTESIAN_POINT('Origin',(49.,33.1,-10.3));
#998=CARTESIAN_POINT('Origin',(49.,16.95,-10.3));
#999=CARTESIAN_POINT('',(50.,16.95,-10.3));
#1000=CARTESIAN_POINT('',(49.,16.95,-11.3));
#1001=CARTESIAN_POINT('Origin',(50.,11.9,-11.3));
#1002=CARTESIAN_POINT('',(10.,11.9,-11.3));
#1003=CARTESIAN_POINT('',(50.,11.9,-11.3));
#1004=CARTESIAN_POINT('',(10.,32.1,-11.3));
#1005=CARTESIAN_POINT('',(10.,32.1,-11.3));
#1006=CARTESIAN_POINT('',(50.,32.1,-11.3));
#1007=CARTESIAN_POINT('Origin',(50.,11.9,-51.5));
#1008=CARTESIAN_POINT('',(10.,11.9,-51.5));
#1009=CARTESIAN_POINT('',(50.,11.9,-51.5));
#1010=CARTESIAN_POINT('',(10.,11.9,-11.3));
#1011=CARTESIAN_POINT('',(18.35,11.9,-41.4));
#1012=CARTESIAN_POINT('Origin',(20.,11.9,-41.4));
#1013=CARTESIAN_POINT('',(38.35,11.9,-41.4));
#1014=CARTESIAN_POINT('Origin',(40.,11.9,-41.4));
#1015=CARTESIAN_POINT('',(18.35,11.9,-21.4));
#1016=CARTESIAN_POINT('Origin',(20.,11.9,-21.4));
#1017=CARTESIAN_POINT('',(38.35,11.9,-21.4));
#1018=CARTESIAN_POINT('Origin',(40.,11.9,-21.4));
#1019=CARTESIAN_POINT('Origin',(50.,22.,-31.4));
#1020=CARTESIAN_POINT('',(50.,39.,0.));
#1021=CARTESIAN_POINT('Origin',(50.,39.,-5.));
#1022=CARTESIAN_POINT('',(50.,5.,0.));
#1023=CARTESIAN_POINT('',(50.,44.,0.));
#1024=CARTESIAN_POINT('',(50.,1.41429684665625E-15,-5.));
#1025=CARTESIAN_POINT('Origin',(50.,5.,-5.));
#1026=CARTESIAN_POINT('',(50.,1.63492715473463E-14,-57.8));
#1027=CARTESIAN_POINT('',(50.,0.,0.));
#1028=CARTESIAN_POINT('',(50.,5.00000000000002,-62.8));
#1029=CARTESIAN_POINT('Origin',(50.,5.00000000000002,-57.8));
#1030=CARTESIAN_POINT('',(50.,39.,-62.8));
#1031=CARTESIAN_POINT('',(50.,1.77635683940025E-14,-62.8));
#1032=CARTESIAN_POINT('Origin',(50.,39.,-57.8));
#1033=CARTESIAN_POINT('Origin',(-81.541466014042,22.,-21.4));
#1034=CARTESIAN_POINT('',(10.,22.,-19.75));
#1035=CARTESIAN_POINT('Origin',(10.,22.,-21.4));
#1036=CARTESIAN_POINT('',(-81.541466014042,22.,-19.75));
#1037=CARTESIAN_POINT('Origin',(-81.541466014042,22.,-41.4));
#1038=CARTESIAN_POINT('',(10.,22.,-39.75));
#1039=CARTESIAN_POINT('Origin',(10.,22.,-41.4));
#1040=CARTESIAN_POINT('',(-81.541466014042,22.,-39.75));
#1041=CARTESIAN_POINT('Origin',(0.,39.,-57.8));
#1042=CARTESIAN_POINT('',(0.,39.,-62.8));
#1043=CARTESIAN_POINT('Origin',(0.,5.00000000000002,-57.8));
#1044=CARTESIAN_POINT('',(0.,1.60982338570648E-14,-57.8));
#1045=CARTESIAN_POINT('',(0.,5.00000000000002,-62.8));
#1046=CARTESIAN_POINT('Origin',(0.,0.,0.));
#1047=CARTESIAN_POINT('',(0.,1.11022302462516E-15,-5.));
#1048=CARTESIAN_POINT('',(38.35,-5.71564655079585E-32,-21.4));
#1049=CARTESIAN_POINT('Origin',(40.,0.,-21.4));
#1050=CARTESIAN_POINT('',(18.35,-5.71564655079585E-32,-21.4));
#1051=CARTESIAN_POINT('Origin',(20.,0.,-21.4));
#1052=CARTESIAN_POINT('',(38.35,8.88178419700125E-15,-41.4));
#1053=CARTESIAN_POINT('Origin',(40.,8.88178419700125E-15,-41.4));
#1054=CARTESIAN_POINT('',(18.35,8.88178419700125E-15,-41.4));
#1055=CARTESIAN_POINT('Origin',(20.,8.88178419700125E-15,-41.4));
#1056=CARTESIAN_POINT('Origin',(0.,5.,-5.));
#1057=CARTESIAN_POINT('',(0.,5.,0.));
#1058=CARTESIAN_POINT('Origin',(0.,39.,-5.));
#1059=CARTESIAN_POINT('',(0.,39.,0.));
#1060=CARTESIAN_POINT('Origin',(40.,-47.541466014042,-21.4));
#1061=CARTESIAN_POINT('',(38.35,32.1,-21.4));
#1062=CARTESIAN_POINT('',(38.35,-47.541466014042,-21.4));
#1063=CARTESIAN_POINT('Origin',(40.,32.1,-21.4));
#1064=CARTESIAN_POINT('Origin',(40.,-47.541466014042,-21.4));
#1065=CARTESIAN_POINT('',(38.35,-47.541466014042,-21.4));
#1066=CARTESIAN_POINT('Origin',(20.,-47.541466014042,-21.4));
#1067=CARTESIAN_POINT('',(18.35,32.1,-21.4));
#1068=CARTESIAN_POINT('',(18.35,-47.541466014042,-21.4));
#1069=CARTESIAN_POINT('Origin',(20.,32.1,-21.4));
#1070=CARTESIAN_POINT('Origin',(20.,-47.541466014042,-21.4));
#1071=CARTESIAN_POINT('',(18.35,-47.541466014042,-21.4));
#1072=CARTESIAN_POINT('Origin',(40.,-47.541466014042,-41.4));
#1073=CARTESIAN_POINT('',(38.35,32.1,-41.4));
#1074=CARTESIAN_POINT('',(38.35,-47.541466014042,-41.4));
#1075=CARTESIAN_POINT('Origin',(40.,32.1,-41.4));
#1076=CARTESIAN_POINT('Origin',(40.,-47.541466014042,-41.4));
#1077=CARTESIAN_POINT('',(38.35,-47.541466014042,-41.4));
#1078=CARTESIAN_POINT('Origin',(20.,-47.541466014042,-41.4));
#1079=CARTESIAN_POINT('',(18.35,32.1,-41.4));
#1080=CARTESIAN_POINT('',(18.35,-47.541466014042,-41.4));
#1081=CARTESIAN_POINT('Origin',(20.,32.1,-41.4));
#1082=CARTESIAN_POINT('Origin',(20.,-47.541466014042,-41.4));
#1083=CARTESIAN_POINT('',(18.35,-47.541466014042,-41.4));
#1084=CARTESIAN_POINT('Origin',(50.,32.1,-51.5));
#1085=CARTESIAN_POINT('',(10.,32.1,-51.5));
#1086=CARTESIAN_POINT('',(50.,32.1,-51.5));
#1087=CARTESIAN_POINT('',(10.,11.9,-51.5));
#1088=CARTESIAN_POINT('Origin',(50.,32.1,-11.3));
#1089=CARTESIAN_POINT('',(10.,32.1,-51.5));
#1090=CARTESIAN_POINT('Origin',(10.,22.,-31.4));
#1091=CARTESIAN_POINT('Origin',(0.,44.,0.));
#1092=CARTESIAN_POINT('Origin',(0.,1.77635683940025E-14,-62.8));
#1093=UNCERTAINTY_MEASURE_WITH_UNIT(LENGTH_MEASURE(0.01),#1097,
'DISTANCE_ACCURACY_VALUE',
'Maximum model space distance between geometric entities at asserted c
onnectivities');
#1094=UNCERTAINTY_MEASURE_WITH_UNIT(LENGTH_MEASURE(0.01),#1097,
'DISTANCE_ACCURACY_VALUE',
'Maximum model space distance between geometric entities at asserted c
onnectivities');
#1095=(
GEOMETRIC_REPRESENTATION_CONTEXT(3)
GLOBAL_UNCERTAINTY_ASSIGNED_CONTEXT((#1093))
GLOBAL_UNIT_ASSIGNED_CONTEXT((#1097,#1099,#1100))
REPRESENTATION_CONTEXT('','3D')
);
#1096=(
GEOMETRIC_REPRESENTATION_CONTEXT(3)
GLOBAL_UNCERTAINTY_ASSIGNED_CONTEXT((#1094))
GLOBAL_UNIT_ASSIGNED_CONTEXT((#1097,#1099,#1100))
REPRESENTATION_CONTEXT('','3D')
);
#1097=(
LENGTH_UNIT()
NAMED_UNIT(*)
SI_UNIT(.MILLI.,.METRE.)
);
#1098=(
LENGTH_UNIT()
NAMED_UNIT(*)
SI_UNIT(.CENTI.,.METRE.)
);
#1099=(
NAMED_UNIT(*)
PLANE_ANGLE_UNIT()
SI_UNIT($,.RADIAN.)
);
#1100=(
NAMED_UNIT(*)
SI_UNIT($,.STERADIAN.)
SOLID_ANGLE_UNIT()
);
#1101=SHAPE_DEFINITION_REPRESENTATION(#1102,#1103);
#1102=PRODUCT_DEFINITION_SHAPE('',$,#1105);
#1103=SHAPE_REPRESENTATION('',(#665),#1095);
#1104=PRODUCT_DEFINITION_CONTEXT('part definition',#1109,'design');
#1105=PRODUCT_DEFINITION('framefixpart1_forearm',
'framefixpart1_forearm',#1106,#1104);
#1106=PRODUCT_DEFINITION_FORMATION('',$,#1111);
#1107=PRODUCT_RELATED_PRODUCT_CATEGORY('framefixpart1_forearm',
'framefixpart1_forearm',(#1111));
#1108=APPLICATION_PROTOCOL_DEFINITION('international standard',
'automotive_design',2009,#1109);
#1109=APPLICATION_CONTEXT(
'Core Data for Automotive Mechanical Design Process');
#1110=PRODUCT_CONTEXT('part definition',#1109,'mechanical');
#1111=PRODUCT('framefixpart1_forearm','framefixpart1_forearm',$,(#1110));
#1112=PRESENTATION_STYLE_ASSIGNMENT((#1113));
#1113=SURFACE_STYLE_USAGE(.BOTH.,#1116);
#1114=SURFACE_STYLE_RENDERING_WITH_PROPERTIES($,#1120,(#1115));
#1115=SURFACE_STYLE_TRANSPARENT(0.);
#1116=SURFACE_SIDE_STYLE('',(#1117,#1114));
#1117=SURFACE_STYLE_FILL_AREA(#1118);
#1118=FILL_AREA_STYLE('',(#1119));
#1119=FILL_AREA_STYLE_COLOUR('',#1120);
#1120=COLOUR_RGB('',0.0196078431372549,0.0196078431372549,0.0196078431372549);
ENDSEC;
END-ISO-10303-21;
