ISO-10303-21;
HEADER;
/* Generated by software containing ST-Developer
 * from STEP Tools, Inc. (www.steptools.com) 
 */

FILE_DESCRIPTION(
/* description */ (''),
/* implementation_level */ '2;1');

FILE_NAME(
/* name */ 'framefixpart1_v2.stp',
/* time_stamp */ '2026-05-04T17:27:31+09:00',
/* author */ ('kshau'),
/* organization */ (''),
/* preprocessor_version */ 'ST-DEVELOPER v20',
/* originating_system */ 'Autodesk Inventor 2024',
/* authorisation */ '');

FILE_SCHEMA (('AUTOMOTIVE_DESIGN { 1 0 10303 214 3 1 1 }'));
ENDSEC;

DATA;
#10=MECHANICAL_DESIGN_GEOMETRIC_PRESENTATION_REPRESENTATION('',(#13),#1100);
#11=SHAPE_REPRESENTATION_RELATIONSHIP('SRR','None',#1107,#12);
#12=ADVANCED_BREP_SHAPE_REPRESENTATION('',(#14),#1099);
#13=STYLED_ITEM('',(#1116),#14);
#14=MANIFOLD_SOLID_BREP('\X2\30BD30EA30C330C9\X0\1',#647);
#15=FACE_BOUND('',#131,.T.);
#16=FACE_BOUND('',#132,.T.);
#17=FACE_BOUND('',#133,.T.);
#18=FACE_BOUND('',#134,.T.);
#19=FACE_BOUND('',#136,.T.);
#20=FACE_BOUND('',#149,.T.);
#21=FACE_BOUND('',#150,.T.);
#22=FACE_BOUND('',#151,.T.);
#23=FACE_BOUND('',#152,.T.);
#24=FACE_BOUND('',#157,.T.);
#25=FACE_BOUND('',#158,.T.);
#26=FACE_BOUND('',#159,.T.);
#27=FACE_BOUND('',#160,.T.);
#28=FACE_BOUND('',#165,.T.);
#29=FACE_BOUND('',#166,.T.);
#30=FACE_BOUND('',#167,.T.);
#31=FACE_BOUND('',#168,.T.);
#32=FACE_BOUND('',#170,.T.);
#33=FACE_BOUND('',#171,.T.);
#34=FACE_BOUND('',#172,.T.);
#35=FACE_BOUND('',#174,.T.);
#36=FACE_BOUND('',#175,.T.);
#37=FACE_BOUND('',#176,.T.);
#38=CIRCLE('',#684,1.65);
#39=CIRCLE('',#685,1.65);
#40=CIRCLE('',#686,1.65);
#41=CIRCLE('',#687,1.65);
#42=CIRCLE('',#689,5.);
#43=CIRCLE('',#690,5.);
#44=CIRCLE('',#691,5.);
#45=CIRCLE('',#692,5.);
#46=CIRCLE('',#694,2.05);
#47=CIRCLE('',#695,2.05);
#48=CIRCLE('',#697,2.05);
#49=CIRCLE('',#698,2.05);
#50=CIRCLE('',#700,1.65);
#51=CIRCLE('',#701,1.65);
#52=CIRCLE('',#703,1.65);
#53=CIRCLE('',#705,1.65);
#54=CIRCLE('',#706,1.65);
#55=CIRCLE('',#708,1.65);
#56=CIRCLE('',#710,1.65);
#57=CIRCLE('',#711,1.65);
#58=CIRCLE('',#713,1.65);
#59=CIRCLE('',#715,1.65);
#60=CIRCLE('',#716,1.65);
#61=CIRCLE('',#718,1.65);
#62=CIRCLE('',#720,5.);
#63=CIRCLE('',#723,5.);
#64=CIRCLE('',#726,5.);
#65=CIRCLE('',#729,5.);
#66=ELLIPSE('',#675,1.41421356237309,1.);
#67=ELLIPSE('',#676,1.41421356237312,1.);
#68=ELLIPSE('',#678,1.41421356237311,1.);
#69=ELLIPSE('',#680,1.41421356237308,1.);
#70=CYLINDRICAL_SURFACE('',#674,1.);
#71=CYLINDRICAL_SURFACE('',#677,1.);
#72=CYLINDRICAL_SURFACE('',#679,1.);
#73=CYLINDRICAL_SURFACE('',#681,1.);
#74=CYLINDRICAL_SURFACE('',#693,2.05);
#75=CYLINDRICAL_SURFACE('',#696,2.05);
#76=CYLINDRICAL_SURFACE('',#699,1.65);
#77=CYLINDRICAL_SURFACE('',#702,1.65);
#78=CYLINDRICAL_SURFACE('',#704,1.65);
#79=CYLINDRICAL_SURFACE('',#707,1.65);
#80=CYLINDRICAL_SURFACE('',#709,1.65);
#81=CYLINDRICAL_SURFACE('',#712,1.65);
#82=CYLINDRICAL_SURFACE('',#714,1.65);
#83=CYLINDRICAL_SURFACE('',#717,1.65);
#84=CYLINDRICAL_SURFACE('',#719,5.);
#85=CYLINDRICAL_SURFACE('',#722,5.);
#86=CYLINDRICAL_SURFACE('',#725,5.);
#87=CYLINDRICAL_SURFACE('',#728,5.);
#88=FACE_OUTER_BOUND('',#121,.T.);
#89=FACE_OUTER_BOUND('',#122,.T.);
#90=FACE_OUTER_BOUND('',#123,.T.);
#91=FACE_OUTER_BOUND('',#124,.T.);
#92=FACE_OUTER_BOUND('',#125,.T.);
#93=FACE_OUTER_BOUND('',#126,.T.);
#94=FACE_OUTER_BOUND('',#127,.T.);
#95=FACE_OUTER_BOUND('',#128,.T.);
#96=FACE_OUTER_BOUND('',#129,.T.);
#97=FACE_OUTER_BOUND('',#130,.T.);
#98=FACE_OUTER_BOUND('',#135,.T.);
#99=FACE_OUTER_BOUND('',#137,.T.);
#100=FACE_OUTER_BOUND('',#138,.T.);
#101=FACE_OUTER_BOUND('',#139,.T.);
#102=FACE_OUTER_BOUND('',#140,.T.);
#103=FACE_OUTER_BOUND('',#141,.T.);
#104=FACE_OUTER_BOUND('',#142,.T.);
#105=FACE_OUTER_BOUND('',#143,.T.);
#106=FACE_OUTER_BOUND('',#144,.T.);
#107=FACE_OUTER_BOUND('',#145,.T.);
#108=FACE_OUTER_BOUND('',#146,.T.);
#109=FACE_OUTER_BOUND('',#147,.T.);
#110=FACE_OUTER_BOUND('',#148,.T.);
#111=FACE_OUTER_BOUND('',#153,.T.);
#112=FACE_OUTER_BOUND('',#154,.T.);
#113=FACE_OUTER_BOUND('',#155,.T.);
#114=FACE_OUTER_BOUND('',#156,.T.);
#115=FACE_OUTER_BOUND('',#161,.T.);
#116=FACE_OUTER_BOUND('',#162,.T.);
#117=FACE_OUTER_BOUND('',#163,.T.);
#118=FACE_OUTER_BOUND('',#164,.T.);
#119=FACE_OUTER_BOUND('',#169,.T.);
#120=FACE_OUTER_BOUND('',#173,.T.);
#121=EDGE_LOOP('',(#427,#428,#429,#430));
#122=EDGE_LOOP('',(#431,#432,#433,#434));
#123=EDGE_LOOP('',(#435,#436,#437,#438));
#124=EDGE_LOOP('',(#439,#440,#441,#442));
#125=EDGE_LOOP('',(#443,#444,#445,#446));
#126=EDGE_LOOP('',(#447,#448,#449,#450));
#127=EDGE_LOOP('',(#451,#452,#453,#454));
#128=EDGE_LOOP('',(#455,#456,#457,#458));
#129=EDGE_LOOP('',(#459,#460,#461,#462));
#130=EDGE_LOOP('',(#463,#464,#465,#466));
#131=EDGE_LOOP('',(#467));
#132=EDGE_LOOP('',(#468));
#133=EDGE_LOOP('',(#469));
#134=EDGE_LOOP('',(#470));
#135=EDGE_LOOP('',(#471,#472,#473,#474,#475,#476,#477,#478));
#136=EDGE_LOOP('',(#479,#480,#481,#482));
#137=EDGE_LOOP('',(#483,#484,#485,#486));
#138=EDGE_LOOP('',(#487,#488,#489,#490));
#139=EDGE_LOOP('',(#491,#492,#493,#494));
#140=EDGE_LOOP('',(#495,#496,#497,#498));
#141=EDGE_LOOP('',(#499,#500,#501,#502));
#142=EDGE_LOOP('',(#503,#504,#505,#506));
#143=EDGE_LOOP('',(#507,#508,#509,#510));
#144=EDGE_LOOP('',(#511,#512,#513,#514));
#145=EDGE_LOOP('',(#515,#516,#517,#518));
#146=EDGE_LOOP('',(#519,#520,#521,#522));
#147=EDGE_LOOP('',(#523,#524,#525,#526));
#148=EDGE_LOOP('',(#527,#528,#529,#530));
#149=EDGE_LOOP('',(#531));
#150=EDGE_LOOP('',(#532));
#151=EDGE_LOOP('',(#533));
#152=EDGE_LOOP('',(#534));
#153=EDGE_LOOP('',(#535,#536,#537,#538));
#154=EDGE_LOOP('',(#539,#540,#541,#542));
#155=EDGE_LOOP('',(#543,#544,#545,#546));
#156=EDGE_LOOP('',(#547,#548,#549,#550));
#157=EDGE_LOOP('',(#551));
#158=EDGE_LOOP('',(#552));
#159=EDGE_LOOP('',(#553));
#160=EDGE_LOOP('',(#554));
#161=EDGE_LOOP('',(#555,#556,#557,#558));
#162=EDGE_LOOP('',(#559,#560,#561,#562));
#163=EDGE_LOOP('',(#563,#564,#565,#566));
#164=EDGE_LOOP('',(#567,#568,#569,#570));
#165=EDGE_LOOP('',(#571));
#166=EDGE_LOOP('',(#572));
#167=EDGE_LOOP('',(#573));
#168=EDGE_LOOP('',(#574));
#169=EDGE_LOOP('',(#575,#576,#577,#578));
#170=EDGE_LOOP('',(#579,#580,#581,#582));
#171=EDGE_LOOP('',(#583));
#172=EDGE_LOOP('',(#584));
#173=EDGE_LOOP('',(#585,#586,#587,#588,#589,#590,#591,#592));
#174=EDGE_LOOP('',(#593,#594,#595,#596));
#175=EDGE_LOOP('',(#597));
#176=EDGE_LOOP('',(#598));
#177=LINE('',#925,#231);
#178=LINE('',#927,#232);
#179=LINE('',#929,#233);
#180=LINE('',#930,#234);
#181=LINE('',#933,#235);
#182=LINE('',#935,#236);
#183=LINE('',#936,#237);
#184=LINE('',#939,#238);
#185=LINE('',#941,#239);
#186=LINE('',#942,#240);
#187=LINE('',#944,#241);
#188=LINE('',#945,#242);
#189=LINE('',#949,#243);
#190=LINE('',#953,#244);
#191=LINE('',#957,#245);
#192=LINE('',#960,#246);
#193=LINE('',#963,#247);
#194=LINE('',#966,#248);
#195=LINE('',#968,#249);
#196=LINE('',#969,#250);
#197=LINE('',#972,#251);
#198=LINE('',#974,#252);
#199=LINE('',#975,#253);
#200=LINE('',#978,#254);
#201=LINE('',#979,#255);
#202=LINE('',#993,#256);
#203=LINE('',#997,#257);
#204=LINE('',#1001,#258);
#205=LINE('',#1004,#259);
#206=LINE('',#1009,#260);
#207=LINE('',#1015,#261);
#208=LINE('',#1021,#262);
#209=LINE('',#1026,#263);
#210=LINE('',#1031,#264);
#211=LINE('',#1036,#265);
#212=LINE('',#1041,#266);
#213=LINE('',#1046,#267);
#214=LINE('',#1051,#268);
#215=LINE('',#1056,#269);
#216=LINE('',#1059,#270);
#217=LINE('',#1062,#271);
#218=LINE('',#1065,#272);
#219=LINE('',#1066,#273);
#220=LINE('',#1069,#274);
#221=LINE('',#1073,#275);
#222=LINE('',#1074,#276);
#223=LINE('',#1077,#277);
#224=LINE('',#1081,#278);
#225=LINE('',#1082,#279);
#226=LINE('',#1085,#280);
#227=LINE('',#1088,#281);
#228=LINE('',#1091,#282);
#229=LINE('',#1092,#283);
#230=LINE('',#1094,#284);
#231=VECTOR('',#739,10.);
#232=VECTOR('',#740,10.);
#233=VECTOR('',#741,10.);
#234=VECTOR('',#742,10.);
#235=VECTOR('',#745,10.);
#236=VECTOR('',#746,10.);
#237=VECTOR('',#747,10.);
#238=VECTOR('',#750,10.);
#239=VECTOR('',#751,10.);
#240=VECTOR('',#752,10.);
#241=VECTOR('',#755,10.);
#242=VECTOR('',#756,10.);
#243=VECTOR('',#759,10.);
#244=VECTOR('',#762,10.);
#245=VECTOR('',#767,10.);
#246=VECTOR('',#770,10.);
#247=VECTOR('',#773,10.);
#248=VECTOR('',#776,10.);
#249=VECTOR('',#779,10.);
#250=VECTOR('',#780,10.);
#251=VECTOR('',#783,10.);
#252=VECTOR('',#784,10.);
#253=VECTOR('',#785,10.);
#254=VECTOR('',#788,10.);
#255=VECTOR('',#789,10.);
#256=VECTOR('',#802,10.);
#257=VECTOR('',#805,10.);
#258=VECTOR('',#808,10.);
#259=VECTOR('',#811,10.);
#260=VECTOR('',#816,2.05);
#261=VECTOR('',#823,2.05);
#262=VECTOR('',#830,1.65);
#263=VECTOR('',#837,1.65);
#264=VECTOR('',#842,1.65);
#265=VECTOR('',#849,1.65);
#266=VECTOR('',#854,1.65);
#267=VECTOR('',#861,1.65);
#268=VECTOR('',#866,1.65);
#269=VECTOR('',#873,1.65);
#270=VECTOR('',#876,10.);
#271=VECTOR('',#879,10.);
#272=VECTOR('',#882,10.);
#273=VECTOR('',#883,10.);
#274=VECTOR('',#886,10.);
#275=VECTOR('',#891,10.);
#276=VECTOR('',#892,10.);
#277=VECTOR('',#895,10.);
#278=VECTOR('',#900,10.);
#279=VECTOR('',#901,10.);
#280=VECTOR('',#904,10.);
#281=VECTOR('',#909,10.);
#282=VECTOR('',#912,10.);
#283=VECTOR('',#913,10.);
#284=VECTOR('',#916,10.);
#285=VERTEX_POINT('',#923);
#286=VERTEX_POINT('',#924);
#287=VERTEX_POINT('',#926);
#288=VERTEX_POINT('',#928);
#289=VERTEX_POINT('',#932);
#290=VERTEX_POINT('',#934);
#291=VERTEX_POINT('',#938);
#292=VERTEX_POINT('',#940);
#293=VERTEX_POINT('',#947);
#294=VERTEX_POINT('',#948);
#295=VERTEX_POINT('',#950);
#296=VERTEX_POINT('',#952);
#297=VERTEX_POINT('',#956);
#298=VERTEX_POINT('',#958);
#299=VERTEX_POINT('',#962);
#300=VERTEX_POINT('',#964);
#301=VERTEX_POINT('',#971);
#302=VERTEX_POINT('',#973);
#303=VERTEX_POINT('',#977);
#304=VERTEX_POINT('',#980);
#305=VERTEX_POINT('',#982);
#306=VERTEX_POINT('',#984);
#307=VERTEX_POINT('',#986);
#308=VERTEX_POINT('',#989);
#309=VERTEX_POINT('',#990);
#310=VERTEX_POINT('',#992);
#311=VERTEX_POINT('',#994);
#312=VERTEX_POINT('',#996);
#313=VERTEX_POINT('',#998);
#314=VERTEX_POINT('',#1000);
#315=VERTEX_POINT('',#1002);
#316=VERTEX_POINT('',#1006);
#317=VERTEX_POINT('',#1008);
#318=VERTEX_POINT('',#1012);
#319=VERTEX_POINT('',#1014);
#320=VERTEX_POINT('',#1018);
#321=VERTEX_POINT('',#1020);
#322=VERTEX_POINT('',#1024);
#323=VERTEX_POINT('',#1028);
#324=VERTEX_POINT('',#1030);
#325=VERTEX_POINT('',#1034);
#326=VERTEX_POINT('',#1038);
#327=VERTEX_POINT('',#1040);
#328=VERTEX_POINT('',#1044);
#329=VERTEX_POINT('',#1048);
#330=VERTEX_POINT('',#1050);
#331=VERTEX_POINT('',#1054);
#332=VERTEX_POINT('',#1058);
#333=VERTEX_POINT('',#1060);
#334=VERTEX_POINT('',#1064);
#335=VERTEX_POINT('',#1068);
#336=VERTEX_POINT('',#1072);
#337=VERTEX_POINT('',#1076);
#338=VERTEX_POINT('',#1080);
#339=VERTEX_POINT('',#1084);
#340=VERTEX_POINT('',#1090);
#341=EDGE_CURVE('',#285,#286,#177,.T.);
#342=EDGE_CURVE('',#285,#287,#178,.T.);
#343=EDGE_CURVE('',#288,#287,#179,.T.);
#344=EDGE_CURVE('',#286,#288,#180,.T.);
#345=EDGE_CURVE('',#289,#285,#181,.T.);
#346=EDGE_CURVE('',#289,#290,#182,.T.);
#347=EDGE_CURVE('',#287,#290,#183,.T.);
#348=EDGE_CURVE('',#291,#289,#184,.T.);
#349=EDGE_CURVE('',#291,#292,#185,.T.);
#350=EDGE_CURVE('',#290,#292,#186,.T.);
#351=EDGE_CURVE('',#286,#291,#187,.T.);
#352=EDGE_CURVE('',#292,#288,#188,.T.);
#353=EDGE_CURVE('',#293,#294,#189,.T.);
#354=EDGE_CURVE('',#294,#295,#66,.T.);
#355=EDGE_CURVE('',#295,#296,#190,.T.);
#356=EDGE_CURVE('',#293,#296,#67,.T.);
#357=EDGE_CURVE('',#294,#297,#191,.T.);
#358=EDGE_CURVE('',#297,#298,#68,.T.);
#359=EDGE_CURVE('',#298,#295,#192,.T.);
#360=EDGE_CURVE('',#297,#299,#193,.T.);
#361=EDGE_CURVE('',#299,#300,#69,.T.);
#362=EDGE_CURVE('',#300,#298,#194,.T.);
#363=EDGE_CURVE('',#296,#300,#195,.T.);
#364=EDGE_CURVE('',#299,#293,#196,.T.);
#365=EDGE_CURVE('',#301,#296,#197,.T.);
#366=EDGE_CURVE('',#302,#301,#198,.T.);
#367=EDGE_CURVE('',#302,#300,#199,.T.);
#368=EDGE_CURVE('',#303,#295,#200,.T.);
#369=EDGE_CURVE('',#301,#303,#201,.T.);
#370=EDGE_CURVE('',#304,#304,#38,.T.);
#371=EDGE_CURVE('',#305,#305,#39,.T.);
#372=EDGE_CURVE('',#306,#306,#40,.T.);
#373=EDGE_CURVE('',#307,#307,#41,.T.);
#374=EDGE_CURVE('',#308,#309,#42,.T.);
#375=EDGE_CURVE('',#308,#310,#202,.T.);
#376=EDGE_CURVE('',#311,#310,#43,.T.);
#377=EDGE_CURVE('',#311,#312,#203,.T.);
#378=EDGE_CURVE('',#313,#312,#44,.T.);
#379=EDGE_CURVE('',#313,#314,#204,.T.);
#380=EDGE_CURVE('',#315,#314,#45,.T.);
#381=EDGE_CURVE('',#315,#309,#205,.T.);
#382=EDGE_CURVE('',#316,#316,#46,.T.);
#383=EDGE_CURVE('',#316,#317,#206,.T.);
#384=EDGE_CURVE('',#317,#317,#47,.T.);
#385=EDGE_CURVE('',#318,#318,#48,.T.);
#386=EDGE_CURVE('',#318,#319,#207,.T.);
#387=EDGE_CURVE('',#319,#319,#49,.T.);
#388=EDGE_CURVE('',#320,#320,#50,.T.);
#389=EDGE_CURVE('',#320,#321,#208,.T.);
#390=EDGE_CURVE('',#321,#321,#51,.T.);
#391=EDGE_CURVE('',#322,#322,#52,.T.);
#392=EDGE_CURVE('',#322,#307,#209,.T.);
#393=EDGE_CURVE('',#323,#323,#53,.T.);
#394=EDGE_CURVE('',#323,#324,#210,.T.);
#395=EDGE_CURVE('',#324,#324,#54,.T.);
#396=EDGE_CURVE('',#325,#325,#55,.T.);
#397=EDGE_CURVE('',#325,#306,#211,.T.);
#398=EDGE_CURVE('',#326,#326,#56,.T.);
#399=EDGE_CURVE('',#326,#327,#212,.T.);
#400=EDGE_CURVE('',#327,#327,#57,.T.);
#401=EDGE_CURVE('',#328,#328,#58,.T.);
#402=EDGE_CURVE('',#328,#305,#213,.T.);
#403=EDGE_CURVE('',#329,#329,#59,.T.);
#404=EDGE_CURVE('',#329,#330,#214,.T.);
#405=EDGE_CURVE('',#330,#330,#60,.T.);
#406=EDGE_CURVE('',#331,#331,#61,.T.);
#407=EDGE_CURVE('',#331,#304,#215,.T.);
#408=EDGE_CURVE('',#309,#332,#216,.T.);
#409=EDGE_CURVE('',#332,#333,#62,.T.);
#410=EDGE_CURVE('',#333,#308,#217,.T.);
#411=EDGE_CURVE('',#334,#315,#218,.T.);
#412=EDGE_CURVE('',#334,#332,#219,.T.);
#413=EDGE_CURVE('',#314,#335,#220,.T.);
#414=EDGE_CURVE('',#335,#334,#63,.T.);
#415=EDGE_CURVE('',#336,#313,#221,.T.);
#416=EDGE_CURVE('',#336,#335,#222,.T.);
#417=EDGE_CURVE('',#312,#337,#223,.T.);
#418=EDGE_CURVE('',#337,#336,#64,.T.);
#419=EDGE_CURVE('',#338,#311,#224,.T.);
#420=EDGE_CURVE('',#338,#337,#225,.T.);
#421=EDGE_CURVE('',#310,#339,#226,.T.);
#422=EDGE_CURVE('',#339,#338,#65,.T.);
#423=EDGE_CURVE('',#333,#339,#227,.T.);
#424=EDGE_CURVE('',#340,#298,#228,.T.);
#425=EDGE_CURVE('',#303,#340,#229,.T.);
#426=EDGE_CURVE('',#340,#302,#230,.T.);
#427=ORIENTED_EDGE('',*,*,#341,.F.);
#428=ORIENTED_EDGE('',*,*,#342,.T.);
#429=ORIENTED_EDGE('',*,*,#343,.F.);
#430=ORIENTED_EDGE('',*,*,#344,.F.);
#431=ORIENTED_EDGE('',*,*,#345,.F.);
#432=ORIENTED_EDGE('',*,*,#346,.T.);
#433=ORIENTED_EDGE('',*,*,#347,.F.);
#434=ORIENTED_EDGE('',*,*,#342,.F.);
#435=ORIENTED_EDGE('',*,*,#348,.F.);
#436=ORIENTED_EDGE('',*,*,#349,.T.);
#437=ORIENTED_EDGE('',*,*,#350,.F.);
#438=ORIENTED_EDGE('',*,*,#346,.F.);
#439=ORIENTED_EDGE('',*,*,#351,.F.);
#440=ORIENTED_EDGE('',*,*,#344,.T.);
#441=ORIENTED_EDGE('',*,*,#352,.F.);
#442=ORIENTED_EDGE('',*,*,#349,.F.);
#443=ORIENTED_EDGE('',*,*,#353,.T.);
#444=ORIENTED_EDGE('',*,*,#354,.T.);
#445=ORIENTED_EDGE('',*,*,#355,.T.);
#446=ORIENTED_EDGE('',*,*,#356,.F.);
#447=ORIENTED_EDGE('',*,*,#357,.T.);
#448=ORIENTED_EDGE('',*,*,#358,.T.);
#449=ORIENTED_EDGE('',*,*,#359,.T.);
#450=ORIENTED_EDGE('',*,*,#354,.F.);
#451=ORIENTED_EDGE('',*,*,#360,.T.);
#452=ORIENTED_EDGE('',*,*,#361,.T.);
#453=ORIENTED_EDGE('',*,*,#362,.T.);
#454=ORIENTED_EDGE('',*,*,#358,.F.);
#455=ORIENTED_EDGE('',*,*,#363,.T.);
#456=ORIENTED_EDGE('',*,*,#361,.F.);
#457=ORIENTED_EDGE('',*,*,#364,.T.);
#458=ORIENTED_EDGE('',*,*,#356,.T.);
#459=ORIENTED_EDGE('',*,*,#363,.F.);
#460=ORIENTED_EDGE('',*,*,#365,.F.);
#461=ORIENTED_EDGE('',*,*,#366,.F.);
#462=ORIENTED_EDGE('',*,*,#367,.T.);
#463=ORIENTED_EDGE('',*,*,#355,.F.);
#464=ORIENTED_EDGE('',*,*,#368,.F.);
#465=ORIENTED_EDGE('',*,*,#369,.F.);
#466=ORIENTED_EDGE('',*,*,#365,.T.);
#467=ORIENTED_EDGE('',*,*,#370,.T.);
#468=ORIENTED_EDGE('',*,*,#371,.T.);
#469=ORIENTED_EDGE('',*,*,#372,.T.);
#470=ORIENTED_EDGE('',*,*,#373,.T.);
#471=ORIENTED_EDGE('',*,*,#374,.F.);
#472=ORIENTED_EDGE('',*,*,#375,.T.);
#473=ORIENTED_EDGE('',*,*,#376,.F.);
#474=ORIENTED_EDGE('',*,*,#377,.T.);
#475=ORIENTED_EDGE('',*,*,#378,.F.);
#476=ORIENTED_EDGE('',*,*,#379,.T.);
#477=ORIENTED_EDGE('',*,*,#380,.F.);
#478=ORIENTED_EDGE('',*,*,#381,.T.);
#479=ORIENTED_EDGE('',*,*,#353,.F.);
#480=ORIENTED_EDGE('',*,*,#364,.F.);
#481=ORIENTED_EDGE('',*,*,#360,.F.);
#482=ORIENTED_EDGE('',*,*,#357,.F.);
#483=ORIENTED_EDGE('',*,*,#382,.F.);
#484=ORIENTED_EDGE('',*,*,#383,.T.);
#485=ORIENTED_EDGE('',*,*,#384,.F.);
#486=ORIENTED_EDGE('',*,*,#383,.F.);
#487=ORIENTED_EDGE('',*,*,#385,.F.);
#488=ORIENTED_EDGE('',*,*,#386,.T.);
#489=ORIENTED_EDGE('',*,*,#387,.F.);
#490=ORIENTED_EDGE('',*,*,#386,.F.);
#491=ORIENTED_EDGE('',*,*,#388,.F.);
#492=ORIENTED_EDGE('',*,*,#389,.T.);
#493=ORIENTED_EDGE('',*,*,#390,.F.);
#494=ORIENTED_EDGE('',*,*,#389,.F.);
#495=ORIENTED_EDGE('',*,*,#391,.F.);
#496=ORIENTED_EDGE('',*,*,#392,.T.);
#497=ORIENTED_EDGE('',*,*,#373,.F.);
#498=ORIENTED_EDGE('',*,*,#392,.F.);
#499=ORIENTED_EDGE('',*,*,#393,.F.);
#500=ORIENTED_EDGE('',*,*,#394,.T.);
#501=ORIENTED_EDGE('',*,*,#395,.F.);
#502=ORIENTED_EDGE('',*,*,#394,.F.);
#503=ORIENTED_EDGE('',*,*,#396,.F.);
#504=ORIENTED_EDGE('',*,*,#397,.T.);
#505=ORIENTED_EDGE('',*,*,#372,.F.);
#506=ORIENTED_EDGE('',*,*,#397,.F.);
#507=ORIENTED_EDGE('',*,*,#398,.F.);
#508=ORIENTED_EDGE('',*,*,#399,.T.);
#509=ORIENTED_EDGE('',*,*,#400,.F.);
#510=ORIENTED_EDGE('',*,*,#399,.F.);
#511=ORIENTED_EDGE('',*,*,#401,.F.);
#512=ORIENTED_EDGE('',*,*,#402,.T.);
#513=ORIENTED_EDGE('',*,*,#371,.F.);
#514=ORIENTED_EDGE('',*,*,#402,.F.);
#515=ORIENTED_EDGE('',*,*,#403,.F.);
#516=ORIENTED_EDGE('',*,*,#404,.T.);
#517=ORIENTED_EDGE('',*,*,#405,.F.);
#518=ORIENTED_EDGE('',*,*,#404,.F.);
#519=ORIENTED_EDGE('',*,*,#406,.F.);
#520=ORIENTED_EDGE('',*,*,#407,.T.);
#521=ORIENTED_EDGE('',*,*,#370,.F.);
#522=ORIENTED_EDGE('',*,*,#407,.F.);
#523=ORIENTED_EDGE('',*,*,#374,.T.);
#524=ORIENTED_EDGE('',*,*,#408,.T.);
#525=ORIENTED_EDGE('',*,*,#409,.T.);
#526=ORIENTED_EDGE('',*,*,#410,.T.);
#527=ORIENTED_EDGE('',*,*,#408,.F.);
#528=ORIENTED_EDGE('',*,*,#381,.F.);
#529=ORIENTED_EDGE('',*,*,#411,.F.);
#530=ORIENTED_EDGE('',*,*,#412,.T.);
#531=ORIENTED_EDGE('',*,*,#390,.T.);
#532=ORIENTED_EDGE('',*,*,#395,.T.);
#533=ORIENTED_EDGE('',*,*,#400,.T.);
#534=ORIENTED_EDGE('',*,*,#405,.T.);
#535=ORIENTED_EDGE('',*,*,#380,.T.);
#536=ORIENTED_EDGE('',*,*,#413,.T.);
#537=ORIENTED_EDGE('',*,*,#414,.T.);
#538=ORIENTED_EDGE('',*,*,#411,.T.);
#539=ORIENTED_EDGE('',*,*,#413,.F.);
#540=ORIENTED_EDGE('',*,*,#379,.F.);
#541=ORIENTED_EDGE('',*,*,#415,.F.);
#542=ORIENTED_EDGE('',*,*,#416,.T.);
#543=ORIENTED_EDGE('',*,*,#378,.T.);
#544=ORIENTED_EDGE('',*,*,#417,.T.);
#545=ORIENTED_EDGE('',*,*,#418,.T.);
#546=ORIENTED_EDGE('',*,*,#415,.T.);
#547=ORIENTED_EDGE('',*,*,#417,.F.);
#548=ORIENTED_EDGE('',*,*,#377,.F.);
#549=ORIENTED_EDGE('',*,*,#419,.F.);
#550=ORIENTED_EDGE('',*,*,#420,.T.);
#551=ORIENTED_EDGE('',*,*,#391,.T.);
#552=ORIENTED_EDGE('',*,*,#396,.T.);
#553=ORIENTED_EDGE('',*,*,#401,.T.);
#554=ORIENTED_EDGE('',*,*,#406,.T.);
#555=ORIENTED_EDGE('',*,*,#376,.T.);
#556=ORIENTED_EDGE('',*,*,#421,.T.);
#557=ORIENTED_EDGE('',*,*,#422,.T.);
#558=ORIENTED_EDGE('',*,*,#419,.T.);
#559=ORIENTED_EDGE('',*,*,#410,.F.);
#560=ORIENTED_EDGE('',*,*,#423,.T.);
#561=ORIENTED_EDGE('',*,*,#421,.F.);
#562=ORIENTED_EDGE('',*,*,#375,.F.);
#563=ORIENTED_EDGE('',*,*,#359,.F.);
#564=ORIENTED_EDGE('',*,*,#424,.F.);
#565=ORIENTED_EDGE('',*,*,#425,.F.);
#566=ORIENTED_EDGE('',*,*,#368,.T.);
#567=ORIENTED_EDGE('',*,*,#362,.F.);
#568=ORIENTED_EDGE('',*,*,#367,.F.);
#569=ORIENTED_EDGE('',*,*,#426,.F.);
#570=ORIENTED_EDGE('',*,*,#424,.T.);
#571=ORIENTED_EDGE('',*,*,#388,.T.);
#572=ORIENTED_EDGE('',*,*,#393,.T.);
#573=ORIENTED_EDGE('',*,*,#398,.T.);
#574=ORIENTED_EDGE('',*,*,#403,.T.);
#575=ORIENTED_EDGE('',*,*,#369,.T.);
#576=ORIENTED_EDGE('',*,*,#425,.T.);
#577=ORIENTED_EDGE('',*,*,#426,.T.);
#578=ORIENTED_EDGE('',*,*,#366,.T.);
#579=ORIENTED_EDGE('',*,*,#343,.T.);
#580=ORIENTED_EDGE('',*,*,#347,.T.);
#581=ORIENTED_EDGE('',*,*,#350,.T.);
#582=ORIENTED_EDGE('',*,*,#352,.T.);
#583=ORIENTED_EDGE('',*,*,#384,.T.);
#584=ORIENTED_EDGE('',*,*,#387,.T.);
#585=ORIENTED_EDGE('',*,*,#409,.F.);
#586=ORIENTED_EDGE('',*,*,#412,.F.);
#587=ORIENTED_EDGE('',*,*,#414,.F.);
#588=ORIENTED_EDGE('',*,*,#416,.F.);
#589=ORIENTED_EDGE('',*,*,#418,.F.);
#590=ORIENTED_EDGE('',*,*,#420,.F.);
#591=ORIENTED_EDGE('',*,*,#422,.F.);
#592=ORIENTED_EDGE('',*,*,#423,.F.);
#593=ORIENTED_EDGE('',*,*,#341,.T.);
#594=ORIENTED_EDGE('',*,*,#351,.T.);
#595=ORIENTED_EDGE('',*,*,#348,.T.);
#596=ORIENTED_EDGE('',*,*,#345,.T.);
#597=ORIENTED_EDGE('',*,*,#382,.T.);
#598=ORIENTED_EDGE('',*,*,#385,.T.);
#599=PLANE('',#670);
#600=PLANE('',#671);
#601=PLANE('',#672);
#602=PLANE('',#673);
#603=PLANE('',#682);
#604=PLANE('',#683);
#605=PLANE('',#688);
#606=PLANE('',#721);
#607=PLANE('',#724);
#608=PLANE('',#727);
#609=PLANE('',#730);
#610=PLANE('',#731);
#611=PLANE('',#732);
#612=PLANE('',#733);
#613=PLANE('',#734);
#614=ADVANCED_FACE('',(#88),#599,.F.);
#615=ADVANCED_FACE('',(#89),#600,.F.);
#616=ADVANCED_FACE('',(#90),#601,.F.);
#617=ADVANCED_FACE('',(#91),#602,.F.);
#618=ADVANCED_FACE('',(#92),#70,.T.);
#619=ADVANCED_FACE('',(#93),#71,.T.);
#620=ADVANCED_FACE('',(#94),#72,.T.);
#621=ADVANCED_FACE('',(#95),#73,.T.);
#622=ADVANCED_FACE('',(#96),#603,.T.);
#623=ADVANCED_FACE('',(#97,#15,#16,#17,#18),#604,.T.);
#624=ADVANCED_FACE('',(#98,#19),#605,.T.);
#625=ADVANCED_FACE('',(#99),#74,.F.);
#626=ADVANCED_FACE('',(#100),#75,.F.);
#627=ADVANCED_FACE('',(#101),#76,.F.);
#628=ADVANCED_FACE('',(#102),#77,.F.);
#629=ADVANCED_FACE('',(#103),#78,.F.);
#630=ADVANCED_FACE('',(#104),#79,.F.);
#631=ADVANCED_FACE('',(#105),#80,.F.);
#632=ADVANCED_FACE('',(#106),#81,.F.);
#633=ADVANCED_FACE('',(#107),#82,.F.);
#634=ADVANCED_FACE('',(#108),#83,.F.);
#635=ADVANCED_FACE('',(#109),#84,.T.);
#636=ADVANCED_FACE('',(#110,#20,#21,#22,#23),#606,.T.);
#637=ADVANCED_FACE('',(#111),#85,.T.);
#638=ADVANCED_FACE('',(#112),#607,.T.);
#639=ADVANCED_FACE('',(#113),#86,.T.);
#640=ADVANCED_FACE('',(#114,#24,#25,#26,#27),#608,.T.);
#641=ADVANCED_FACE('',(#115),#87,.T.);
#642=ADVANCED_FACE('',(#116),#609,.T.);
#643=ADVANCED_FACE('',(#117),#610,.T.);
#644=ADVANCED_FACE('',(#118,#28,#29,#30,#31),#611,.T.);
#645=ADVANCED_FACE('',(#119,#32,#33,#34),#612,.T.);
#646=ADVANCED_FACE('',(#120,#35,#36,#37),#613,.F.);
#647=CLOSED_SHELL('',(#614,#615,#616,#617,#618,#619,#620,#621,#622,#623,
#624,#625,#626,#627,#628,#629,#630,#631,#632,#633,#634,#635,#636,#637,#638,
#639,#640,#641,#642,#643,#644,#645,#646));
#648=DERIVED_UNIT_ELEMENT(#651,1.);
#649=DERIVED_UNIT_ELEMENT(#1102,-3.);
#650=DIMENSIONAL_EXPONENTS(0.,1.,0.,0.,0.,0.,0.);
#651=(
CONVERSION_BASED_UNIT('gram',#653)
MASS_UNIT()
NAMED_UNIT(#650)
);
#652=(
MASS_UNIT()
NAMED_UNIT(*)
SI_UNIT(.KILO.,.GRAM.)
);
#653=MASS_MEASURE_WITH_UNIT(MASS_MEASURE(0.001),#652);
#654=DERIVED_UNIT((#648,#649));
#655=MEASURE_REPRESENTATION_ITEM('density measure',
POSITIVE_RATIO_MEASURE(1.),#654);
#656=PROPERTY_DEFINITION_REPRESENTATION(#661,#658);
#657=PROPERTY_DEFINITION_REPRESENTATION(#662,#659);
#658=REPRESENTATION('material name',(#660),#1099);
#659=REPRESENTATION('density',(#655),#1099);
#660=DESCRIPTIVE_REPRESENTATION_ITEM('\X2\4E00822C\X0\','\X2\4E00822C\X0\');
#661=PROPERTY_DEFINITION('material property','material name',#1109);
#662=PROPERTY_DEFINITION('material property','density of part',#1109);
#663=DATE_TIME_ROLE('creation_date');
#664=APPLIED_DATE_AND_TIME_ASSIGNMENT(#665,#663,(#1109));
#665=DATE_AND_TIME(#666,#667);
#666=CALENDAR_DATE(2025,28,5);
#667=LOCAL_TIME(0,0,0.,#668);
#668=COORDINATED_UNIVERSAL_TIME_OFFSET(0,0,.BEHIND.);
#669=AXIS2_PLACEMENT_3D('',#921,#735,#736);
#670=AXIS2_PLACEMENT_3D('',#922,#737,#738);
#671=AXIS2_PLACEMENT_3D('',#931,#743,#744);
#672=AXIS2_PLACEMENT_3D('',#937,#748,#749);
#673=AXIS2_PLACEMENT_3D('',#943,#753,#754);
#674=AXIS2_PLACEMENT_3D('',#946,#757,#758);
#675=AXIS2_PLACEMENT_3D('',#951,#760,#761);
#676=AXIS2_PLACEMENT_3D('',#954,#763,#764);
#677=AXIS2_PLACEMENT_3D('',#955,#765,#766);
#678=AXIS2_PLACEMENT_3D('',#959,#768,#769);
#679=AXIS2_PLACEMENT_3D('',#961,#771,#772);
#680=AXIS2_PLACEMENT_3D('',#965,#774,#775);
#681=AXIS2_PLACEMENT_3D('',#967,#777,#778);
#682=AXIS2_PLACEMENT_3D('',#970,#781,#782);
#683=AXIS2_PLACEMENT_3D('',#976,#786,#787);
#684=AXIS2_PLACEMENT_3D('',#981,#790,#791);
#685=AXIS2_PLACEMENT_3D('',#983,#792,#793);
#686=AXIS2_PLACEMENT_3D('',#985,#794,#795);
#687=AXIS2_PLACEMENT_3D('',#987,#796,#797);
#688=AXIS2_PLACEMENT_3D('',#988,#798,#799);
#689=AXIS2_PLACEMENT_3D('',#991,#800,#801);
#690=AXIS2_PLACEMENT_3D('',#995,#803,#804);
#691=AXIS2_PLACEMENT_3D('',#999,#806,#807);
#692=AXIS2_PLACEMENT_3D('',#1003,#809,#810);
#693=AXIS2_PLACEMENT_3D('',#1005,#812,#813);
#694=AXIS2_PLACEMENT_3D('',#1007,#814,#815);
#695=AXIS2_PLACEMENT_3D('',#1010,#817,#818);
#696=AXIS2_PLACEMENT_3D('',#1011,#819,#820);
#697=AXIS2_PLACEMENT_3D('',#1013,#821,#822);
#698=AXIS2_PLACEMENT_3D('',#1016,#824,#825);
#699=AXIS2_PLACEMENT_3D('',#1017,#826,#827);
#700=AXIS2_PLACEMENT_3D('',#1019,#828,#829);
#701=AXIS2_PLACEMENT_3D('',#1022,#831,#832);
#702=AXIS2_PLACEMENT_3D('',#1023,#833,#834);
#703=AXIS2_PLACEMENT_3D('',#1025,#835,#836);
#704=AXIS2_PLACEMENT_3D('',#1027,#838,#839);
#705=AXIS2_PLACEMENT_3D('',#1029,#840,#841);
#706=AXIS2_PLACEMENT_3D('',#1032,#843,#844);
#707=AXIS2_PLACEMENT_3D('',#1033,#845,#846);
#708=AXIS2_PLACEMENT_3D('',#1035,#847,#848);
#709=AXIS2_PLACEMENT_3D('',#1037,#850,#851);
#710=AXIS2_PLACEMENT_3D('',#1039,#852,#853);
#711=AXIS2_PLACEMENT_3D('',#1042,#855,#856);
#712=AXIS2_PLACEMENT_3D('',#1043,#857,#858);
#713=AXIS2_PLACEMENT_3D('',#1045,#859,#860);
#714=AXIS2_PLACEMENT_3D('',#1047,#862,#863);
#715=AXIS2_PLACEMENT_3D('',#1049,#864,#865);
#716=AXIS2_PLACEMENT_3D('',#1052,#867,#868);
#717=AXIS2_PLACEMENT_3D('',#1053,#869,#870);
#718=AXIS2_PLACEMENT_3D('',#1055,#871,#872);
#719=AXIS2_PLACEMENT_3D('',#1057,#874,#875);
#720=AXIS2_PLACEMENT_3D('',#1061,#877,#878);
#721=AXIS2_PLACEMENT_3D('',#1063,#880,#881);
#722=AXIS2_PLACEMENT_3D('',#1067,#884,#885);
#723=AXIS2_PLACEMENT_3D('',#1070,#887,#888);
#724=AXIS2_PLACEMENT_3D('',#1071,#889,#890);
#725=AXIS2_PLACEMENT_3D('',#1075,#893,#894);
#726=AXIS2_PLACEMENT_3D('',#1078,#896,#897);
#727=AXIS2_PLACEMENT_3D('',#1079,#898,#899);
#728=AXIS2_PLACEMENT_3D('',#1083,#902,#903);
#729=AXIS2_PLACEMENT_3D('',#1086,#905,#906);
#730=AXIS2_PLACEMENT_3D('',#1087,#907,#908);
#731=AXIS2_PLACEMENT_3D('',#1089,#910,#911);
#732=AXIS2_PLACEMENT_3D('',#1093,#914,#915);
#733=AXIS2_PLACEMENT_3D('',#1095,#917,#918);
#734=AXIS2_PLACEMENT_3D('',#1096,#919,#920);
#735=DIRECTION('axis',(0.,0.,1.));
#736=DIRECTION('refdir',(1.,0.,0.));
#737=DIRECTION('center_axis',(0.,0.,1.));
#738=DIRECTION('ref_axis',(1.,0.,0.));
#739=DIRECTION('',(1.,0.,0.));
#740=DIRECTION('',(0.,1.,0.));
#741=DIRECTION('',(-1.,0.,0.));
#742=DIRECTION('',(0.,1.,0.));
#743=DIRECTION('center_axis',(-1.,0.,-6.34413156928661E-16));
#744=DIRECTION('ref_axis',(-6.34413156928661E-16,0.,1.));
#745=DIRECTION('',(-6.34413156928661E-16,0.,1.));
#746=DIRECTION('',(0.,1.,0.));
#747=DIRECTION('',(6.34413156928661E-16,0.,-1.));
#748=DIRECTION('center_axis',(0.,0.,-1.));
#749=DIRECTION('ref_axis',(-1.,0.,0.));
#750=DIRECTION('',(-1.,0.,0.));
#751=DIRECTION('',(0.,1.,0.));
#752=DIRECTION('',(1.,0.,0.));
#753=DIRECTION('center_axis',(1.,0.,0.));
#754=DIRECTION('ref_axis',(0.,0.,-1.));
#755=DIRECTION('',(0.,0.,-1.));
#756=DIRECTION('',(0.,0.,1.));
#757=DIRECTION('center_axis',(1.21215417080662E-15,0.,1.));
#758=DIRECTION('ref_axis',(-0.707106781186549,0.707106781186546,0.));
#759=DIRECTION('',(-1.21215417080662E-15,0.,-1.));
#760=DIRECTION('center_axis',(0.707106781186544,0.,0.707106781186551));
#761=DIRECTION('ref_axis',(0.707106781186551,0.,-0.707106781186544));
#762=DIRECTION('',(1.21215417080662E-15,0.,1.));
#763=DIRECTION('center_axis',(-0.707106781186534,1.57009245868381E-15,0.707106781186561));
#764=DIRECTION('ref_axis',(0.707106781186561,1.57009245868375E-15,0.707106781186534));
#765=DIRECTION('center_axis',(1.,0.,0.));
#766=DIRECTION('ref_axis',(0.,0.707106781186548,0.707106781186548));
#767=DIRECTION('',(-1.,0.,0.));
#768=DIRECTION('center_axis',(0.707106781186538,0.,-0.707106781186557));
#769=DIRECTION('ref_axis',(-0.707106781186557,0.,-0.707106781186538));
#770=DIRECTION('',(1.,0.,0.));
#771=DIRECTION('center_axis',(-8.81566669677543E-16,0.,-1.));
#772=DIRECTION('ref_axis',(0.707106781186548,0.707106781186548,0.));
#773=DIRECTION('',(8.81566669677543E-16,0.,1.));
#774=DIRECTION('center_axis',(-0.707106781186541,0.,-0.707106781186554));
#775=DIRECTION('ref_axis',(-0.707106781186554,0.,0.707106781186541));
#776=DIRECTION('',(-8.81566669677543E-16,0.,-1.));
#777=DIRECTION('center_axis',(-1.,0.,-6.56289472684824E-16));
#778=DIRECTION('ref_axis',(0.,0.707106781186546,-0.707106781186549));
#779=DIRECTION('',(-1.,0.,-6.56289472684824E-16));
#780=DIRECTION('',(1.,0.,6.56289472684824E-16));
#781=DIRECTION('center_axis',(6.56289472684824E-16,0.,-1.));
#782=DIRECTION('ref_axis',(-1.,0.,-6.56289472684824E-16));
#783=DIRECTION('',(0.,1.,0.));
#784=DIRECTION('',(1.,0.,6.56289472684824E-16));
#785=DIRECTION('',(0.,1.,0.));
#786=DIRECTION('center_axis',(-1.,0.,1.21215417080662E-15));
#787=DIRECTION('ref_axis',(1.21215417080662E-15,0.,1.));
#788=DIRECTION('',(0.,1.,0.));
#789=DIRECTION('',(-1.21215417080662E-15,0.,-1.));
#790=DIRECTION('center_axis',(1.,0.,-1.21215417080662E-15));
#791=DIRECTION('ref_axis',(-1.83697019872103E-16,0.,-1.));
#792=DIRECTION('center_axis',(1.,0.,-1.21215417080662E-15));
#793=DIRECTION('ref_axis',(-1.83697019872103E-16,0.,-1.));
#794=DIRECTION('center_axis',(1.,0.,-1.21215417080662E-15));
#795=DIRECTION('ref_axis',(-1.83697019872103E-16,0.,-1.));
#796=DIRECTION('center_axis',(1.,0.,-1.21215417080662E-15));
#797=DIRECTION('ref_axis',(-1.83697019872103E-16,0.,-1.));
#798=DIRECTION('center_axis',(0.,1.,0.));
#799=DIRECTION('ref_axis',(0.,0.,1.));
#800=DIRECTION('center_axis',(0.,-1.,0.));
#801=DIRECTION('ref_axis',(-0.707106781186547,0.,0.707106781186547));
#802=DIRECTION('',(1.,0.,0.));
#803=DIRECTION('center_axis',(0.,-1.,0.));
#804=DIRECTION('ref_axis',(0.707106781186548,0.,0.707106781186548));
#805=DIRECTION('',(-1.83697019872103E-16,0.,-1.));
#806=DIRECTION('center_axis',(0.,-1.,0.));
#807=DIRECTION('ref_axis',(0.707106781186547,0.,-0.707106781186548));
#808=DIRECTION('',(-1.,0.,1.64477485129653E-16));
#809=DIRECTION('center_axis',(0.,-1.,0.));
#810=DIRECTION('ref_axis',(-0.707106781186547,0.,-0.707106781186547));
#811=DIRECTION('',(0.,0.,1.));
#812=DIRECTION('center_axis',(0.,-1.,0.));
#813=DIRECTION('ref_axis',(1.,0.,0.));
#814=DIRECTION('center_axis',(0.,1.,0.));
#815=DIRECTION('ref_axis',(1.,0.,0.));
#816=DIRECTION('',(0.,1.,0.));
#817=DIRECTION('center_axis',(0.,-1.,0.));
#818=DIRECTION('ref_axis',(1.,0.,0.));
#819=DIRECTION('center_axis',(0.,-1.,0.));
#820=DIRECTION('ref_axis',(1.,0.,0.));
#821=DIRECTION('center_axis',(0.,1.,0.));
#822=DIRECTION('ref_axis',(1.,0.,0.));
#823=DIRECTION('',(0.,1.,0.));
#824=DIRECTION('center_axis',(0.,-1.,0.));
#825=DIRECTION('ref_axis',(1.,0.,0.));
#826=DIRECTION('center_axis',(1.,0.,-1.83697019872103E-16));
#827=DIRECTION('ref_axis',(-1.83697019872103E-16,0.,-1.));
#828=DIRECTION('center_axis',(-1.,0.,8.81566669677543E-16));
#829=DIRECTION('ref_axis',(-1.83697019872103E-16,0.,-1.));
#830=DIRECTION('',(-1.,0.,1.83697019872103E-16));
#831=DIRECTION('center_axis',(1.,0.,0.));
#832=DIRECTION('ref_axis',(-1.83697019872103E-16,0.,-1.));
#833=DIRECTION('center_axis',(1.,0.,-1.83697019872103E-16));
#834=DIRECTION('ref_axis',(-1.83697019872103E-16,0.,-1.));
#835=DIRECTION('center_axis',(-1.,0.,1.83697019872103E-16));
#836=DIRECTION('ref_axis',(-1.83697019872103E-16,0.,-1.));
#837=DIRECTION('',(-1.,0.,1.83697019872103E-16));
#838=DIRECTION('center_axis',(1.,0.,-1.83697019872103E-16));
#839=DIRECTION('ref_axis',(-1.83697019872103E-16,0.,-1.));
#840=DIRECTION('center_axis',(-1.,0.,8.81566669677543E-16));
#841=DIRECTION('ref_axis',(-1.83697019872103E-16,0.,-1.));
#842=DIRECTION('',(-1.,0.,1.83697019872103E-16));
#843=DIRECTION('center_axis',(1.,0.,0.));
#844=DIRECTION('ref_axis',(-1.83697019872103E-16,0.,-1.));
#845=DIRECTION('center_axis',(1.,0.,-1.83697019872103E-16));
#846=DIRECTION('ref_axis',(-1.83697019872103E-16,0.,-1.));
#847=DIRECTION('center_axis',(-1.,0.,1.83697019872103E-16));
#848=DIRECTION('ref_axis',(-1.83697019872103E-16,0.,-1.));
#849=DIRECTION('',(-1.,0.,1.83697019872103E-16));
#850=DIRECTION('center_axis',(1.,0.,-1.83697019872103E-16));
#851=DIRECTION('ref_axis',(-1.83697019872103E-16,0.,-1.));
#852=DIRECTION('center_axis',(-1.,0.,8.81566669677543E-16));
#853=DIRECTION('ref_axis',(-1.83697019872103E-16,0.,-1.));
#854=DIRECTION('',(-1.,0.,1.83697019872103E-16));
#855=DIRECTION('center_axis',(1.,0.,0.));
#856=DIRECTION('ref_axis',(-1.83697019872103E-16,0.,-1.));
#857=DIRECTION('center_axis',(1.,0.,-1.83697019872103E-16));
#858=DIRECTION('ref_axis',(-1.83697019872103E-16,0.,-1.));
#859=DIRECTION('center_axis',(-1.,0.,1.83697019872103E-16));
#860=DIRECTION('ref_axis',(-1.83697019872103E-16,0.,-1.));
#861=DIRECTION('',(-1.,0.,1.83697019872103E-16));
#862=DIRECTION('center_axis',(1.,0.,-1.83697019872103E-16));
#863=DIRECTION('ref_axis',(-1.83697019872103E-16,0.,-1.));
#864=DIRECTION('center_axis',(-1.,0.,8.81566669677543E-16));
#865=DIRECTION('ref_axis',(-1.83697019872103E-16,0.,-1.));
#866=DIRECTION('',(-1.,0.,1.83697019872103E-16));
#867=DIRECTION('center_axis',(1.,0.,0.));
#868=DIRECTION('ref_axis',(-1.83697019872103E-16,0.,-1.));
#869=DIRECTION('center_axis',(1.,0.,-1.83697019872103E-16));
#870=DIRECTION('ref_axis',(-1.83697019872103E-16,0.,-1.));
#871=DIRECTION('center_axis',(-1.,0.,1.83697019872103E-16));
#872=DIRECTION('ref_axis',(-1.83697019872103E-16,0.,-1.));
#873=DIRECTION('',(-1.,0.,1.83697019872103E-16));
#874=DIRECTION('center_axis',(0.,1.,0.));
#875=DIRECTION('ref_axis',(-0.707106781186547,0.,0.707106781186547));
#876=DIRECTION('',(0.,-1.,0.));
#877=DIRECTION('center_axis',(0.,1.,0.));
#878=DIRECTION('ref_axis',(-0.707106781186547,0.,0.707106781186547));
#879=DIRECTION('',(0.,1.,0.));
#880=DIRECTION('center_axis',(-1.,0.,0.));
#881=DIRECTION('ref_axis',(0.,0.,1.));
#882=DIRECTION('',(0.,1.,0.));
#883=DIRECTION('',(0.,0.,1.));
#884=DIRECTION('center_axis',(0.,1.,0.));
#885=DIRECTION('ref_axis',(-0.707106781186547,0.,-0.707106781186547));
#886=DIRECTION('',(0.,-1.,0.));
#887=DIRECTION('center_axis',(0.,1.,0.));
#888=DIRECTION('ref_axis',(-0.707106781186547,0.,-0.707106781186547));
#889=DIRECTION('center_axis',(-1.64477485129653E-16,0.,-1.));
#890=DIRECTION('ref_axis',(-1.,0.,1.64477485129653E-16));
#891=DIRECTION('',(0.,1.,0.));
#892=DIRECTION('',(-1.,0.,1.64477485129653E-16));
#893=DIRECTION('center_axis',(0.,1.,0.));
#894=DIRECTION('ref_axis',(0.707106781186547,0.,-0.707106781186548));
#895=DIRECTION('',(0.,-1.,0.));
#896=DIRECTION('center_axis',(0.,1.,0.));
#897=DIRECTION('ref_axis',(0.707106781186547,0.,-0.707106781186548));
#898=DIRECTION('center_axis',(1.,0.,-1.83697019872103E-16));
#899=DIRECTION('ref_axis',(-1.83697019872103E-16,0.,-1.));
#900=DIRECTION('',(0.,1.,0.));
#901=DIRECTION('',(-1.83697019872103E-16,0.,-1.));
#902=DIRECTION('center_axis',(0.,1.,0.));
#903=DIRECTION('ref_axis',(0.707106781186548,0.,0.707106781186548));
#904=DIRECTION('',(0.,-1.,0.));
#905=DIRECTION('center_axis',(0.,1.,0.));
#906=DIRECTION('ref_axis',(0.707106781186548,0.,0.707106781186548));
#907=DIRECTION('center_axis',(0.,0.,1.));
#908=DIRECTION('ref_axis',(1.,0.,0.));
#909=DIRECTION('',(1.,0.,0.));
#910=DIRECTION('center_axis',(0.,0.,1.));
#911=DIRECTION('ref_axis',(1.,0.,0.));
#912=DIRECTION('',(0.,1.,0.));
#913=DIRECTION('',(-1.,0.,0.));
#914=DIRECTION('center_axis',(1.,0.,-8.81566669677543E-16));
#915=DIRECTION('ref_axis',(-8.81566669677543E-16,0.,-1.));
#916=DIRECTION('',(8.81566669677543E-16,0.,1.));
#917=DIRECTION('center_axis',(0.,1.,0.));
#918=DIRECTION('ref_axis',(0.,0.,1.));
#919=DIRECTION('center_axis',(0.,1.,0.));
#920=DIRECTION('ref_axis',(0.,0.,1.));
#921=CARTESIAN_POINT('',(0.,0.,0.));
#922=CARTESIAN_POINT('Origin',(-36.,0.,-26.4));
#923=CARTESIAN_POINT('',(-36.,0.,-26.4));
#924=CARTESIAN_POINT('',(-18.,0.,-26.4));
#925=CARTESIAN_POINT('',(-31.5,0.,-26.4));
#926=CARTESIAN_POINT('',(-36.,10.,-26.4));
#927=CARTESIAN_POINT('',(-36.,0.,-26.4));
#928=CARTESIAN_POINT('',(-18.,10.,-26.4));
#929=CARTESIAN_POINT('',(-31.5,10.,-26.4));
#930=CARTESIAN_POINT('',(-18.,0.,-26.4));
#931=CARTESIAN_POINT('Origin',(-36.,0.,-40.4));
#932=CARTESIAN_POINT('',(-36.,0.,-40.4));
#933=CARTESIAN_POINT('',(-36.,0.,-36.9));
#934=CARTESIAN_POINT('',(-36.,10.,-40.4));
#935=CARTESIAN_POINT('',(-36.,0.,-40.4));
#936=CARTESIAN_POINT('',(-36.,10.,-36.9));
#937=CARTESIAN_POINT('Origin',(-18.,0.,-40.4));
#938=CARTESIAN_POINT('',(-18.,0.,-40.4));
#939=CARTESIAN_POINT('',(-22.5,0.,-40.4));
#940=CARTESIAN_POINT('',(-18.,10.,-40.4));
#941=CARTESIAN_POINT('',(-18.,0.,-40.4));
#942=CARTESIAN_POINT('',(-22.5,10.,-40.4));
#943=CARTESIAN_POINT('Origin',(-18.,0.,-26.4));
#944=CARTESIAN_POINT('',(-18.,0.,-29.9));
#945=CARTESIAN_POINT('',(-18.,10.,-29.9));
#946=CARTESIAN_POINT('Origin',(-15.85,49.,-43.475));
#947=CARTESIAN_POINT('',(-15.85,50.,-12.25));
#948=CARTESIAN_POINT('',(-15.85,50.,-54.55));
#949=CARTESIAN_POINT('',(-15.85,50.,-43.475));
#950=CARTESIAN_POINT('',(-16.85,49.,-53.55));
#951=CARTESIAN_POINT('Origin',(-15.85,49.,-54.55));
#952=CARTESIAN_POINT('',(-16.85,49.,-13.25));
#953=CARTESIAN_POINT('',(-16.85,49.,-43.475));
#954=CARTESIAN_POINT('Origin',(-15.85,49.,-12.25));
#955=CARTESIAN_POINT('Origin',(-32.075,49.,-54.55));
#956=CARTESIAN_POINT('',(-38.15,50.,-54.55));
#957=CARTESIAN_POINT('',(-32.075,50.,-54.55));
#958=CARTESIAN_POINT('',(-37.15,49.,-53.55));
#959=CARTESIAN_POINT('Origin',(-38.15,49.,-54.55));
#960=CARTESIAN_POINT('',(-32.075,49.,-53.55));
#961=CARTESIAN_POINT('Origin',(-38.15,49.,-23.325));
#962=CARTESIAN_POINT('',(-38.15,50.,-12.25));
#963=CARTESIAN_POINT('',(-38.15,50.,-23.325));
#964=CARTESIAN_POINT('',(-37.15,49.,-13.25));
#965=CARTESIAN_POINT('Origin',(-38.15,49.,-12.25));
#966=CARTESIAN_POINT('',(-37.15,49.,-23.325));
#967=CARTESIAN_POINT('Origin',(-21.925,49.,-12.25));
#968=CARTESIAN_POINT('',(-21.925,49.,-13.25));
#969=CARTESIAN_POINT('',(-21.925,50.,-12.25));
#970=CARTESIAN_POINT('Origin',(-16.85,10.,-13.25));
#971=CARTESIAN_POINT('',(-16.85,10.,-13.25));
#972=CARTESIAN_POINT('',(-16.85,10.,-13.25));
#973=CARTESIAN_POINT('',(-37.15,10.,-13.25));
#974=CARTESIAN_POINT('',(-21.925,10.,-13.25));
#975=CARTESIAN_POINT('',(-37.15,10.,-13.25));
#976=CARTESIAN_POINT('Origin',(-16.85,10.,-53.55));
#977=CARTESIAN_POINT('',(-16.85,10.,-53.55));
#978=CARTESIAN_POINT('',(-16.85,10.,-53.55));
#979=CARTESIAN_POINT('',(-16.85,10.,-43.475));
#980=CARTESIAN_POINT('',(-16.85,20.,-21.75));
#981=CARTESIAN_POINT('Origin',(-16.85,20.,-23.4));
#982=CARTESIAN_POINT('',(-16.85,40.,-21.75));
#983=CARTESIAN_POINT('Origin',(-16.85,40.,-23.4));
#984=CARTESIAN_POINT('',(-16.85,40.,-41.75));
#985=CARTESIAN_POINT('Origin',(-16.85,40.,-43.4));
#986=CARTESIAN_POINT('',(-16.85,20.,-41.75));
#987=CARTESIAN_POINT('Origin',(-16.85,20.,-43.4));
#988=CARTESIAN_POINT('Origin',(-27.,50.,-33.4));
#989=CARTESIAN_POINT('',(-49.,50.,0.));
#990=CARTESIAN_POINT('',(-54.,50.,-5.));
#991=CARTESIAN_POINT('Origin',(-49.,50.,-5.));
#992=CARTESIAN_POINT('',(-5.,50.,0.));
#993=CARTESIAN_POINT('',(-54.,50.,0.));
#994=CARTESIAN_POINT('',(-9.18485099360515E-16,50.,-5.));
#995=CARTESIAN_POINT('Origin',(-5.,50.,-5.));
#996=CARTESIAN_POINT('',(-1.1352475828096E-14,50.,-61.8));
#997=CARTESIAN_POINT('',(0.,50.,0.));
#998=CARTESIAN_POINT('',(-5.00000000000001,50.,-66.8));
#999=CARTESIAN_POINT('Origin',(-5.00000000000001,50.,-61.8));
#1000=CARTESIAN_POINT('',(-49.,50.,-66.8));
#1001=CARTESIAN_POINT('',(-1.22709609274565E-14,50.,-66.8));
#1002=CARTESIAN_POINT('',(-54.,50.,-61.8));
#1003=CARTESIAN_POINT('Origin',(-49.,50.,-61.8));
#1004=CARTESIAN_POINT('',(-54.,50.,-66.8));
#1005=CARTESIAN_POINT('Origin',(-27.,99.3893354440002,-23.4));
#1006=CARTESIAN_POINT('',(-29.05,0.,-23.4));
#1007=CARTESIAN_POINT('Origin',(-27.,0.,-23.4));
#1008=CARTESIAN_POINT('',(-29.05,10.,-23.4));
#1009=CARTESIAN_POINT('',(-29.05,99.3893354440002,-23.4));
#1010=CARTESIAN_POINT('Origin',(-27.,10.,-23.4));
#1011=CARTESIAN_POINT('Origin',(-27.,99.3893354440002,-43.4));
#1012=CARTESIAN_POINT('',(-29.05,0.,-43.4));
#1013=CARTESIAN_POINT('Origin',(-27.,0.,-43.4));
#1014=CARTESIAN_POINT('',(-29.05,10.,-43.4));
#1015=CARTESIAN_POINT('',(-29.05,99.3893354440002,-43.4));
#1016=CARTESIAN_POINT('Origin',(-27.,10.,-43.4));
#1017=CARTESIAN_POINT('Origin',(-99.3893354440002,20.,-43.4));
#1018=CARTESIAN_POINT('',(-37.15,20.,-41.75));
#1019=CARTESIAN_POINT('Origin',(-37.15,20.,-43.4));
#1020=CARTESIAN_POINT('',(-54.,20.,-41.75));
#1021=CARTESIAN_POINT('',(-99.3893354440002,20.,-41.75));
#1022=CARTESIAN_POINT('Origin',(-54.,20.,-43.4));
#1023=CARTESIAN_POINT('Origin',(-99.3893354440002,20.,-43.4));
#1024=CARTESIAN_POINT('',(0.,20.,-41.75));
#1025=CARTESIAN_POINT('Origin',(0.,20.,-43.4));
#1026=CARTESIAN_POINT('',(-99.3893354440002,20.,-41.75));
#1027=CARTESIAN_POINT('Origin',(-99.3893354440002,40.,-43.4));
#1028=CARTESIAN_POINT('',(-37.15,40.,-41.75));
#1029=CARTESIAN_POINT('Origin',(-37.15,40.,-43.4));
#1030=CARTESIAN_POINT('',(-54.,40.,-41.75));
#1031=CARTESIAN_POINT('',(-99.3893354440002,40.,-41.75));
#1032=CARTESIAN_POINT('Origin',(-54.,40.,-43.4));
#1033=CARTESIAN_POINT('Origin',(-99.3893354440002,40.,-43.4));
#1034=CARTESIAN_POINT('',(0.,40.,-41.75));
#1035=CARTESIAN_POINT('Origin',(0.,40.,-43.4));
#1036=CARTESIAN_POINT('',(-99.3893354440002,40.,-41.75));
#1037=CARTESIAN_POINT('Origin',(-99.3893354440002,40.,-23.4));
#1038=CARTESIAN_POINT('',(-37.15,40.,-21.75));
#1039=CARTESIAN_POINT('Origin',(-37.15,40.,-23.4));
#1040=CARTESIAN_POINT('',(-54.,40.,-21.75));
#1041=CARTESIAN_POINT('',(-99.3893354440002,40.,-21.75));
#1042=CARTESIAN_POINT('Origin',(-54.,40.,-23.4));
#1043=CARTESIAN_POINT('Origin',(-99.3893354440002,40.,-23.4));
#1044=CARTESIAN_POINT('',(0.,40.,-21.75));
#1045=CARTESIAN_POINT('Origin',(0.,40.,-23.4));
#1046=CARTESIAN_POINT('',(-99.3893354440002,40.,-21.75));
#1047=CARTESIAN_POINT('Origin',(-99.3893354440002,20.,-23.4));
#1048=CARTESIAN_POINT('',(-37.15,20.,-21.75));
#1049=CARTESIAN_POINT('Origin',(-37.15,20.,-23.4));
#1050=CARTESIAN_POINT('',(-54.,20.,-21.75));
#1051=CARTESIAN_POINT('',(-99.3893354440002,20.,-21.75));
#1052=CARTESIAN_POINT('Origin',(-54.,20.,-23.4));
#1053=CARTESIAN_POINT('Origin',(-99.3893354440002,20.,-23.4));
#1054=CARTESIAN_POINT('',(0.,20.,-21.75));
#1055=CARTESIAN_POINT('Origin',(0.,20.,-23.4));
#1056=CARTESIAN_POINT('',(-99.3893354440002,20.,-21.75));
#1057=CARTESIAN_POINT('Origin',(-49.,0.,-5.));
#1058=CARTESIAN_POINT('',(-54.,0.,-5.));
#1059=CARTESIAN_POINT('',(-54.,0.,-5.));
#1060=CARTESIAN_POINT('',(-49.,0.,0.));
#1061=CARTESIAN_POINT('Origin',(-49.,0.,-5.));
#1062=CARTESIAN_POINT('',(-49.,0.,0.));
#1063=CARTESIAN_POINT('Origin',(-54.,0.,-66.8));
#1064=CARTESIAN_POINT('',(-54.,0.,-61.8));
#1065=CARTESIAN_POINT('',(-54.,0.,-61.8));
#1066=CARTESIAN_POINT('',(-54.,0.,-66.8));
#1067=CARTESIAN_POINT('Origin',(-49.,0.,-61.8));
#1068=CARTESIAN_POINT('',(-49.,0.,-66.8));
#1069=CARTESIAN_POINT('',(-49.,0.,-66.8));
#1070=CARTESIAN_POINT('Origin',(-49.,0.,-61.8));
#1071=CARTESIAN_POINT('Origin',(-1.22709609274565E-14,0.,-66.8));
#1072=CARTESIAN_POINT('',(-5.00000000000001,0.,-66.8));
#1073=CARTESIAN_POINT('',(-5.00000000000001,0.,-66.8));
#1074=CARTESIAN_POINT('',(-8.88178419700125E-15,0.,-66.8));
#1075=CARTESIAN_POINT('Origin',(-5.00000000000001,0.,-61.8));
#1076=CARTESIAN_POINT('',(-1.1352475828096E-14,0.,-61.8));
#1077=CARTESIAN_POINT('',(-1.11022302462516E-14,0.,-61.8));
#1078=CARTESIAN_POINT('Origin',(-5.00000000000001,0.,-61.8));
#1079=CARTESIAN_POINT('Origin',(0.,0.,0.));
#1080=CARTESIAN_POINT('',(-9.18485099360515E-16,0.,-5.));
#1081=CARTESIAN_POINT('',(-1.11022302462516E-15,0.,-5.));
#1082=CARTESIAN_POINT('',(0.,0.,0.));
#1083=CARTESIAN_POINT('Origin',(-5.,0.,-5.));
#1084=CARTESIAN_POINT('',(-5.,0.,0.));
#1085=CARTESIAN_POINT('',(-5.,0.,0.));
#1086=CARTESIAN_POINT('Origin',(-5.,0.,-5.));
#1087=CARTESIAN_POINT('Origin',(-54.,0.,0.));
#1088=CARTESIAN_POINT('',(-54.,0.,0.));
#1089=CARTESIAN_POINT('Origin',(-37.15,10.,-53.55));
#1090=CARTESIAN_POINT('',(-37.15,10.,-53.55));
#1091=CARTESIAN_POINT('',(-37.15,10.,-53.55));
#1092=CARTESIAN_POINT('',(-32.075,10.,-53.55));
#1093=CARTESIAN_POINT('Origin',(-37.15,10.,-13.25));
#1094=CARTESIAN_POINT('',(-37.15,10.,-23.325));
#1095=CARTESIAN_POINT('Origin',(-27.,10.,-33.4));
#1096=CARTESIAN_POINT('Origin',(-27.,0.,-33.4));
#1097=UNCERTAINTY_MEASURE_WITH_UNIT(LENGTH_MEASURE(0.01),#1101,
'DISTANCE_ACCURACY_VALUE',
'Maximum model space distance between geometric entities at asserted c
onnectivities');
#1098=UNCERTAINTY_MEASURE_WITH_UNIT(LENGTH_MEASURE(0.01),#1101,
'DISTANCE_ACCURACY_VALUE',
'Maximum model space distance between geometric entities at asserted c
onnectivities');
#1099=(
GEOMETRIC_REPRESENTATION_CONTEXT(3)
GLOBAL_UNCERTAINTY_ASSIGNED_CONTEXT((#1097))
GLOBAL_UNIT_ASSIGNED_CONTEXT((#1101,#1103,#1104))
REPRESENTATION_CONTEXT('','3D')
);
#1100=(
GEOMETRIC_REPRESENTATION_CONTEXT(3)
GLOBAL_UNCERTAINTY_ASSIGNED_CONTEXT((#1098))
GLOBAL_UNIT_ASSIGNED_CONTEXT((#1101,#1103,#1104))
REPRESENTATION_CONTEXT('','3D')
);
#1101=(
LENGTH_UNIT()
NAMED_UNIT(*)
SI_UNIT(.MILLI.,.METRE.)
);
#1102=(
LENGTH_UNIT()
NAMED_UNIT(*)
SI_UNIT(.CENTI.,.METRE.)
);
#1103=(
NAMED_UNIT(*)
PLANE_ANGLE_UNIT()
SI_UNIT($,.RADIAN.)
);
#1104=(
NAMED_UNIT(*)
SI_UNIT($,.STERADIAN.)
SOLID_ANGLE_UNIT()
);
#1105=SHAPE_DEFINITION_REPRESENTATION(#1106,#1107);
#1106=PRODUCT_DEFINITION_SHAPE('',$,#1109);
#1107=SHAPE_REPRESENTATION('',(#669),#1099);
#1108=PRODUCT_DEFINITION_CONTEXT('part definition',#1113,'design');
#1109=PRODUCT_DEFINITION('framefixpart1_v2','framefixpart1_v2',#1110,#1108);
#1110=PRODUCT_DEFINITION_FORMATION('',$,#1115);
#1111=PRODUCT_RELATED_PRODUCT_CATEGORY('framefixpart1_v2',
'framefixpart1_v2',(#1115));
#1112=APPLICATION_PROTOCOL_DEFINITION('international standard',
'automotive_design',2009,#1113);
#1113=APPLICATION_CONTEXT(
'Core Data for Automotive Mechanical Design Process');
#1114=PRODUCT_CONTEXT('part definition',#1113,'mechanical');
#1115=PRODUCT('framefixpart1_v2','framefixpart1_v2',$,(#1114));
#1116=PRESENTATION_STYLE_ASSIGNMENT((#1117));
#1117=SURFACE_STYLE_USAGE(.BOTH.,#1120);
#1118=SURFACE_STYLE_RENDERING_WITH_PROPERTIES($,#1124,(#1119));
#1119=SURFACE_STYLE_TRANSPARENT(0.);
#1120=SURFACE_SIDE_STYLE('',(#1121,#1118));
#1121=SURFACE_STYLE_FILL_AREA(#1122);
#1122=FILL_AREA_STYLE('',(#1123));
#1123=FILL_AREA_STYLE_COLOUR('',#1124);
#1124=COLOUR_RGB('',0.0196078431372549,0.0196078431372549,0.0196078431372549);
ENDSEC;
END-ISO-10303-21;
