ISO-10303-21;
HEADER;
/* Generated by software containing ST-Developer
 * from STEP Tools, Inc. (www.steptools.com) 
 */

FILE_DESCRIPTION(
/* description */ (''),
/* implementation_level */ '2;1');

FILE_NAME(
/* name */ 'rotor_arm.stp',
/* time_stamp */ '2026-05-04T17:30:51+09:00',
/* author */ ('kshau'),
/* organization */ (''),
/* preprocessor_version */ 'ST-DEVELOPER v20',
/* originating_system */ 'Autodesk Inventor 2024',
/* authorisation */ '');

FILE_SCHEMA (('AUTOMOTIVE_DESIGN { 1 0 10303 214 3 1 1 }'));
ENDSEC;

DATA;
#10=MECHANICAL_DESIGN_GEOMETRIC_PRESENTATION_REPRESENTATION('',(#13),#542);
#11=SHAPE_REPRESENTATION_RELATIONSHIP('SRR','None',#549,#12);
#12=ADVANCED_BREP_SHAPE_REPRESENTATION('',(#14),#541);
#13=STYLED_ITEM('',(#558),#14);
#14=MANIFOLD_SOLID_BREP('\X2\30BD30EA30C330C9\X0\1',#282);
#15=CONICAL_SURFACE('',#331,2.35,0.785398163397448);
#16=FACE_BOUND('',#77,.T.);
#17=FACE_BOUND('',#81,.T.);
#18=FACE_BOUND('',#84,.T.);
#19=FACE_BOUND('',#88,.T.);
#20=FACE_BOUND('',#93,.T.);
#21=FACE_BOUND('',#94,.T.);
#22=PLANE('',#319);
#23=PLANE('',#330);
#24=PLANE('',#334);
#25=PLANE('',#340);
#26=PLANE('',#347);
#27=LINE('',#470,#37);
#28=LINE('',#472,#38);
#29=LINE('',#476,#39);
#30=LINE('',#489,#40);
#31=LINE('',#507,#41);
#32=LINE('',#514,#42);
#33=LINE('',#522,#43);
#34=LINE('',#525,#44);
#35=LINE('',#530,#45);
#36=LINE('',#533,#46);
#37=VECTOR('',#358,10.);
#38=VECTOR('',#359,10.);
#39=VECTOR('',#362,5.);
#40=VECTOR('',#379,3.1);
#41=VECTOR('',#402,3.1);
#42=VECTOR('',#411,2.35);
#43=VECTOR('',#422,1.55);
#44=VECTOR('',#425,1.55);
#45=VECTOR('',#432,10.);
#46=VECTOR('',#435,10.);
#47=CYLINDRICAL_SURFACE('',#308,5.);
#48=CYLINDRICAL_SURFACE('',#317,3.1);
#49=CYLINDRICAL_SURFACE('',#328,3.1);
#50=CYLINDRICAL_SURFACE('',#336,1.55);
#51=CYLINDRICAL_SURFACE('',#338,1.55);
#52=CYLINDRICAL_SURFACE('',#341,5.);
#53=CYLINDRICAL_SURFACE('',#343,22.838);
#54=CYLINDRICAL_SURFACE('',#345,12.838);
#55=FACE_OUTER_BOUND('',#72,.T.);
#56=FACE_OUTER_BOUND('',#73,.T.);
#57=FACE_OUTER_BOUND('',#74,.T.);
#58=FACE_OUTER_BOUND('',#75,.T.);
#59=FACE_OUTER_BOUND('',#76,.T.);
#60=FACE_OUTER_BOUND('',#78,.T.);
#61=FACE_OUTER_BOUND('',#79,.T.);
#62=FACE_OUTER_BOUND('',#80,.T.);
#63=FACE_OUTER_BOUND('',#82,.T.);
#64=FACE_OUTER_BOUND('',#83,.T.);
#65=FACE_OUTER_BOUND('',#85,.T.);
#66=FACE_OUTER_BOUND('',#86,.T.);
#67=FACE_OUTER_BOUND('',#87,.T.);
#68=FACE_OUTER_BOUND('',#89,.T.);
#69=FACE_OUTER_BOUND('',#90,.T.);
#70=FACE_OUTER_BOUND('',#91,.T.);
#71=FACE_OUTER_BOUND('',#92,.T.);
#72=EDGE_LOOP('',(#186,#187,#188,#189));
#73=EDGE_LOOP('',(#190,#191,#192,#193,#194,#195,#196,#197));
#74=EDGE_LOOP('',(#198,#199,#200,#201,#202));
#75=EDGE_LOOP('',(#203,#204,#205,#206,#207));
#76=EDGE_LOOP('',(#208,#209,#210,#211));
#77=EDGE_LOOP('',(#212));
#78=EDGE_LOOP('',(#213,#214,#215,#216,#217));
#79=EDGE_LOOP('',(#218,#219,#220,#221,#222));
#80=EDGE_LOOP('',(#223));
#81=EDGE_LOOP('',(#224));
#82=EDGE_LOOP('',(#225,#226,#227,#228));
#83=EDGE_LOOP('',(#229));
#84=EDGE_LOOP('',(#230));
#85=EDGE_LOOP('',(#231,#232,#233,#234));
#86=EDGE_LOOP('',(#235,#236,#237,#238));
#87=EDGE_LOOP('',(#239));
#88=EDGE_LOOP('',(#240));
#89=EDGE_LOOP('',(#241,#242,#243,#244));
#90=EDGE_LOOP('',(#245,#246,#247,#248,#249));
#91=EDGE_LOOP('',(#250,#251,#252,#253,#254));
#92=EDGE_LOOP('',(#255,#256,#257,#258,#259));
#93=EDGE_LOOP('',(#260));
#94=EDGE_LOOP('',(#261));
#95=CIRCLE('',#306,5.);
#96=CIRCLE('',#307,5.5);
#97=CIRCLE('',#309,5.);
#98=CIRCLE('',#310,5.);
#99=CIRCLE('',#311,5.);
#100=CIRCLE('',#313,3.6);
#101=CIRCLE('',#314,0.5);
#102=CIRCLE('',#315,3.1);
#103=CIRCLE('',#316,3.1);
#104=CIRCLE('',#318,3.1);
#105=CIRCLE('',#320,12.838);
#106=CIRCLE('',#321,5.);
#107=CIRCLE('',#322,22.838);
#108=CIRCLE('',#324,3.6);
#109=CIRCLE('',#325,0.5);
#110=CIRCLE('',#326,3.1);
#111=CIRCLE('',#327,3.1);
#112=CIRCLE('',#329,3.1);
#113=CIRCLE('',#332,3.15);
#114=CIRCLE('',#333,1.55);
#115=CIRCLE('',#335,1.55);
#116=CIRCLE('',#337,1.55);
#117=CIRCLE('',#339,1.55);
#118=CIRCLE('',#342,5.);
#119=CIRCLE('',#344,22.838);
#120=CIRCLE('',#346,12.838);
#121=B_SPLINE_CURVE_WITH_KNOTS('',3,(#450,#451,#452,#453,#454,#455),
 .UNSPECIFIED.,.F.,.F.,(4,2,4),(1.01840251846588,1.41717969222996,1.41860706905107),
 .UNSPECIFIED.);
#122=B_SPLINE_CURVE_WITH_KNOTS('',3,(#459,#460,#461,#462,#463,#464,#465,
#466),.UNSPECIFIED.,.F.,.F.,(4,2,2,4),(-0.000874450514887388,0.,0.197171741497137,
0.228793026773173),.UNSPECIFIED.);
#123=VERTEX_POINT('',#448);
#124=VERTEX_POINT('',#449);
#125=VERTEX_POINT('',#456);
#126=VERTEX_POINT('',#458);
#127=VERTEX_POINT('',#469);
#128=VERTEX_POINT('',#471);
#129=VERTEX_POINT('',#473);
#130=VERTEX_POINT('',#475);
#131=VERTEX_POINT('',#480);
#132=VERTEX_POINT('',#482);
#133=VERTEX_POINT('',#484);
#134=VERTEX_POINT('',#488);
#135=VERTEX_POINT('',#492);
#136=VERTEX_POINT('',#494);
#137=VERTEX_POINT('',#498);
#138=VERTEX_POINT('',#500);
#139=VERTEX_POINT('',#502);
#140=VERTEX_POINT('',#506);
#141=VERTEX_POINT('',#511);
#142=VERTEX_POINT('',#513);
#143=VERTEX_POINT('',#517);
#144=VERTEX_POINT('',#520);
#145=VERTEX_POINT('',#524);
#146=VERTEX_POINT('',#529);
#147=VERTEX_POINT('',#531);
#148=EDGE_CURVE('',#123,#124,#121,.T.);
#149=EDGE_CURVE('',#124,#125,#95,.T.);
#150=EDGE_CURVE('',#125,#126,#122,.T.);
#151=EDGE_CURVE('',#126,#123,#96,.T.);
#152=EDGE_CURVE('',#125,#127,#27,.T.);
#153=EDGE_CURVE('',#124,#128,#28,.T.);
#154=EDGE_CURVE('',#129,#128,#97,.T.);
#155=EDGE_CURVE('',#129,#130,#29,.T.);
#156=EDGE_CURVE('',#130,#130,#98,.T.);
#157=EDGE_CURVE('',#127,#129,#99,.T.);
#158=EDGE_CURVE('',#131,#131,#100,.T.);
#159=EDGE_CURVE('',#131,#132,#101,.T.);
#160=EDGE_CURVE('',#132,#133,#102,.T.);
#161=EDGE_CURVE('',#133,#132,#103,.T.);
#162=EDGE_CURVE('',#133,#134,#30,.T.);
#163=EDGE_CURVE('',#134,#134,#104,.T.);
#164=EDGE_CURVE('',#135,#126,#105,.T.);
#165=EDGE_CURVE('',#136,#135,#106,.T.);
#166=EDGE_CURVE('',#123,#136,#107,.T.);
#167=EDGE_CURVE('',#137,#137,#108,.T.);
#168=EDGE_CURVE('',#137,#138,#109,.T.);
#169=EDGE_CURVE('',#138,#139,#110,.T.);
#170=EDGE_CURVE('',#139,#138,#111,.T.);
#171=EDGE_CURVE('',#139,#140,#31,.T.);
#172=EDGE_CURVE('',#140,#140,#112,.T.);
#173=EDGE_CURVE('',#141,#141,#113,.T.);
#174=EDGE_CURVE('',#141,#142,#32,.T.);
#175=EDGE_CURVE('',#142,#142,#114,.T.);
#176=EDGE_CURVE('',#143,#143,#115,.T.);
#177=EDGE_CURVE('',#144,#144,#116,.T.);
#178=EDGE_CURVE('',#144,#143,#33,.T.);
#179=EDGE_CURVE('',#142,#145,#34,.T.);
#180=EDGE_CURVE('',#145,#145,#117,.T.);
#181=EDGE_CURVE('',#135,#146,#35,.T.);
#182=EDGE_CURVE('',#147,#146,#118,.T.);
#183=EDGE_CURVE('',#136,#147,#36,.T.);
#184=EDGE_CURVE('',#128,#147,#119,.T.);
#185=EDGE_CURVE('',#146,#127,#120,.T.);
#186=ORIENTED_EDGE('',*,*,#148,.T.);
#187=ORIENTED_EDGE('',*,*,#149,.T.);
#188=ORIENTED_EDGE('',*,*,#150,.T.);
#189=ORIENTED_EDGE('',*,*,#151,.T.);
#190=ORIENTED_EDGE('',*,*,#152,.F.);
#191=ORIENTED_EDGE('',*,*,#149,.F.);
#192=ORIENTED_EDGE('',*,*,#153,.T.);
#193=ORIENTED_EDGE('',*,*,#154,.F.);
#194=ORIENTED_EDGE('',*,*,#155,.T.);
#195=ORIENTED_EDGE('',*,*,#156,.F.);
#196=ORIENTED_EDGE('',*,*,#155,.F.);
#197=ORIENTED_EDGE('',*,*,#157,.F.);
#198=ORIENTED_EDGE('',*,*,#158,.T.);
#199=ORIENTED_EDGE('',*,*,#159,.T.);
#200=ORIENTED_EDGE('',*,*,#160,.T.);
#201=ORIENTED_EDGE('',*,*,#161,.T.);
#202=ORIENTED_EDGE('',*,*,#159,.F.);
#203=ORIENTED_EDGE('',*,*,#160,.F.);
#204=ORIENTED_EDGE('',*,*,#161,.F.);
#205=ORIENTED_EDGE('',*,*,#162,.T.);
#206=ORIENTED_EDGE('',*,*,#163,.T.);
#207=ORIENTED_EDGE('',*,*,#162,.F.);
#208=ORIENTED_EDGE('',*,*,#151,.F.);
#209=ORIENTED_EDGE('',*,*,#164,.F.);
#210=ORIENTED_EDGE('',*,*,#165,.F.);
#211=ORIENTED_EDGE('',*,*,#166,.F.);
#212=ORIENTED_EDGE('',*,*,#158,.F.);
#213=ORIENTED_EDGE('',*,*,#167,.T.);
#214=ORIENTED_EDGE('',*,*,#168,.T.);
#215=ORIENTED_EDGE('',*,*,#169,.T.);
#216=ORIENTED_EDGE('',*,*,#170,.T.);
#217=ORIENTED_EDGE('',*,*,#168,.F.);
#218=ORIENTED_EDGE('',*,*,#169,.F.);
#219=ORIENTED_EDGE('',*,*,#170,.F.);
#220=ORIENTED_EDGE('',*,*,#171,.T.);
#221=ORIENTED_EDGE('',*,*,#172,.T.);
#222=ORIENTED_EDGE('',*,*,#171,.F.);
#223=ORIENTED_EDGE('',*,*,#156,.T.);
#224=ORIENTED_EDGE('',*,*,#167,.F.);
#225=ORIENTED_EDGE('',*,*,#173,.F.);
#226=ORIENTED_EDGE('',*,*,#174,.T.);
#227=ORIENTED_EDGE('',*,*,#175,.F.);
#228=ORIENTED_EDGE('',*,*,#174,.F.);
#229=ORIENTED_EDGE('',*,*,#163,.F.);
#230=ORIENTED_EDGE('',*,*,#176,.F.);
#231=ORIENTED_EDGE('',*,*,#177,.F.);
#232=ORIENTED_EDGE('',*,*,#178,.T.);
#233=ORIENTED_EDGE('',*,*,#176,.T.);
#234=ORIENTED_EDGE('',*,*,#178,.F.);
#235=ORIENTED_EDGE('',*,*,#175,.T.);
#236=ORIENTED_EDGE('',*,*,#179,.T.);
#237=ORIENTED_EDGE('',*,*,#180,.F.);
#238=ORIENTED_EDGE('',*,*,#179,.F.);
#239=ORIENTED_EDGE('',*,*,#172,.F.);
#240=ORIENTED_EDGE('',*,*,#180,.T.);
#241=ORIENTED_EDGE('',*,*,#165,.T.);
#242=ORIENTED_EDGE('',*,*,#181,.T.);
#243=ORIENTED_EDGE('',*,*,#182,.F.);
#244=ORIENTED_EDGE('',*,*,#183,.F.);
#245=ORIENTED_EDGE('',*,*,#166,.T.);
#246=ORIENTED_EDGE('',*,*,#183,.T.);
#247=ORIENTED_EDGE('',*,*,#184,.F.);
#248=ORIENTED_EDGE('',*,*,#153,.F.);
#249=ORIENTED_EDGE('',*,*,#148,.F.);
#250=ORIENTED_EDGE('',*,*,#164,.T.);
#251=ORIENTED_EDGE('',*,*,#150,.F.);
#252=ORIENTED_EDGE('',*,*,#152,.T.);
#253=ORIENTED_EDGE('',*,*,#185,.F.);
#254=ORIENTED_EDGE('',*,*,#181,.F.);
#255=ORIENTED_EDGE('',*,*,#185,.T.);
#256=ORIENTED_EDGE('',*,*,#157,.T.);
#257=ORIENTED_EDGE('',*,*,#154,.T.);
#258=ORIENTED_EDGE('',*,*,#184,.T.);
#259=ORIENTED_EDGE('',*,*,#182,.T.);
#260=ORIENTED_EDGE('',*,*,#173,.T.);
#261=ORIENTED_EDGE('',*,*,#177,.T.);
#262=TOROIDAL_SURFACE('',#305,5.5,0.5);
#263=TOROIDAL_SURFACE('',#312,3.6,0.5);
#264=TOROIDAL_SURFACE('',#323,3.6,0.5);
#265=ADVANCED_FACE('',(#55),#262,.F.);
#266=ADVANCED_FACE('',(#56),#47,.T.);
#267=ADVANCED_FACE('',(#57),#263,.T.);
#268=ADVANCED_FACE('',(#58),#48,.F.);
#269=ADVANCED_FACE('',(#59,#16),#22,.F.);
#270=ADVANCED_FACE('',(#60),#264,.T.);
#271=ADVANCED_FACE('',(#61),#49,.F.);
#272=ADVANCED_FACE('',(#62,#17),#23,.T.);
#273=ADVANCED_FACE('',(#63),#15,.F.);
#274=ADVANCED_FACE('',(#64,#18),#24,.T.);
#275=ADVANCED_FACE('',(#65),#50,.F.);
#276=ADVANCED_FACE('',(#66),#51,.F.);
#277=ADVANCED_FACE('',(#67,#19),#25,.T.);
#278=ADVANCED_FACE('',(#68),#52,.T.);
#279=ADVANCED_FACE('',(#69),#53,.T.);
#280=ADVANCED_FACE('',(#70),#54,.F.);
#281=ADVANCED_FACE('',(#71,#20,#21),#26,.T.);
#282=CLOSED_SHELL('',(#265,#266,#267,#268,#269,#270,#271,#272,#273,#274,
#275,#276,#277,#278,#279,#280,#281));
#283=DERIVED_UNIT_ELEMENT(#286,1.);
#284=DERIVED_UNIT_ELEMENT(#544,-3.);
#285=DIMENSIONAL_EXPONENTS(0.,1.,0.,0.,0.,0.,0.);
#286=(
CONVERSION_BASED_UNIT('gram',#288)
MASS_UNIT()
NAMED_UNIT(#285)
);
#287=(
MASS_UNIT()
NAMED_UNIT(*)
SI_UNIT(.KILO.,.GRAM.)
);
#288=MASS_MEASURE_WITH_UNIT(MASS_MEASURE(0.001),#287);
#289=DERIVED_UNIT((#283,#284));
#290=MEASURE_REPRESENTATION_ITEM('density measure',
POSITIVE_RATIO_MEASURE(2.7),#289);
#291=PROPERTY_DEFINITION_REPRESENTATION(#296,#293);
#292=PROPERTY_DEFINITION_REPRESENTATION(#297,#294);
#293=REPRESENTATION('material name',(#295),#541);
#294=REPRESENTATION('density',(#290),#541);
#295=DESCRIPTIVE_REPRESENTATION_ITEM('\X2\30A230EB30DF30CB30A630E0\X0\ 
6061','\X2\30A230EB30DF30CB30A630E0\X0\ 6061');
#296=PROPERTY_DEFINITION('material property','material name',#551);
#297=PROPERTY_DEFINITION('material property','density of part',#551);
#298=DATE_TIME_ROLE('creation_date');
#299=APPLIED_DATE_AND_TIME_ASSIGNMENT(#300,#298,(#551));
#300=DATE_AND_TIME(#301,#302);
#301=CALENDAR_DATE(2025,26,6);
#302=LOCAL_TIME(0,0,0.,#303);
#303=COORDINATED_UNIVERSAL_TIME_OFFSET(0,0,.BEHIND.);
#304=AXIS2_PLACEMENT_3D('',#446,#348,#349);
#305=AXIS2_PLACEMENT_3D('',#447,#350,#351);
#306=AXIS2_PLACEMENT_3D('',#457,#352,#353);
#307=AXIS2_PLACEMENT_3D('',#467,#354,#355);
#308=AXIS2_PLACEMENT_3D('',#468,#356,#357);
#309=AXIS2_PLACEMENT_3D('',#474,#360,#361);
#310=AXIS2_PLACEMENT_3D('',#477,#363,#364);
#311=AXIS2_PLACEMENT_3D('',#478,#365,#366);
#312=AXIS2_PLACEMENT_3D('',#479,#367,#368);
#313=AXIS2_PLACEMENT_3D('',#481,#369,#370);
#314=AXIS2_PLACEMENT_3D('',#483,#371,#372);
#315=AXIS2_PLACEMENT_3D('',#485,#373,#374);
#316=AXIS2_PLACEMENT_3D('',#486,#375,#376);
#317=AXIS2_PLACEMENT_3D('',#487,#377,#378);
#318=AXIS2_PLACEMENT_3D('',#490,#380,#381);
#319=AXIS2_PLACEMENT_3D('',#491,#382,#383);
#320=AXIS2_PLACEMENT_3D('',#493,#384,#385);
#321=AXIS2_PLACEMENT_3D('',#495,#386,#387);
#322=AXIS2_PLACEMENT_3D('',#496,#388,#389);
#323=AXIS2_PLACEMENT_3D('',#497,#390,#391);
#324=AXIS2_PLACEMENT_3D('',#499,#392,#393);
#325=AXIS2_PLACEMENT_3D('',#501,#394,#395);
#326=AXIS2_PLACEMENT_3D('',#503,#396,#397);
#327=AXIS2_PLACEMENT_3D('',#504,#398,#399);
#328=AXIS2_PLACEMENT_3D('',#505,#400,#401);
#329=AXIS2_PLACEMENT_3D('',#508,#403,#404);
#330=AXIS2_PLACEMENT_3D('',#509,#405,#406);
#331=AXIS2_PLACEMENT_3D('',#510,#407,#408);
#332=AXIS2_PLACEMENT_3D('',#512,#409,#410);
#333=AXIS2_PLACEMENT_3D('',#515,#412,#413);
#334=AXIS2_PLACEMENT_3D('',#516,#414,#415);
#335=AXIS2_PLACEMENT_3D('',#518,#416,#417);
#336=AXIS2_PLACEMENT_3D('',#519,#418,#419);
#337=AXIS2_PLACEMENT_3D('',#521,#420,#421);
#338=AXIS2_PLACEMENT_3D('',#523,#423,#424);
#339=AXIS2_PLACEMENT_3D('',#526,#426,#427);
#340=AXIS2_PLACEMENT_3D('',#527,#428,#429);
#341=AXIS2_PLACEMENT_3D('',#528,#430,#431);
#342=AXIS2_PLACEMENT_3D('',#532,#433,#434);
#343=AXIS2_PLACEMENT_3D('',#534,#436,#437);
#344=AXIS2_PLACEMENT_3D('',#535,#438,#439);
#345=AXIS2_PLACEMENT_3D('',#536,#440,#441);
#346=AXIS2_PLACEMENT_3D('',#537,#442,#443);
#347=AXIS2_PLACEMENT_3D('',#538,#444,#445);
#348=DIRECTION('axis',(0.,0.,1.));
#349=DIRECTION('refdir',(1.,0.,0.));
#350=DIRECTION('center_axis',(0.,0.,1.));
#351=DIRECTION('ref_axis',(1.,0.,0.));
#352=DIRECTION('center_axis',(0.,0.,1.));
#353=DIRECTION('ref_axis',(0.981051687408902,0.193746191271327,0.));
#354=DIRECTION('center_axis',(0.,0.,-1.));
#355=DIRECTION('ref_axis',(0.981051687408902,0.193746191271327,0.));
#356=DIRECTION('center_axis',(0.,0.,1.));
#357=DIRECTION('ref_axis',(1.,0.,0.));
#358=DIRECTION('',(0.,0.,1.));
#359=DIRECTION('',(0.,0.,1.));
#360=DIRECTION('center_axis',(0.,0.,1.));
#361=DIRECTION('ref_axis',(1.,0.,0.));
#362=DIRECTION('',(0.,0.,-1.));
#363=DIRECTION('center_axis',(0.,0.,-1.));
#364=DIRECTION('ref_axis',(-1.,0.,0.));
#365=DIRECTION('center_axis',(0.,0.,1.));
#366=DIRECTION('ref_axis',(1.,0.,0.));
#367=DIRECTION('center_axis',(0.,0.,1.));
#368=DIRECTION('ref_axis',(1.,0.,0.));
#369=DIRECTION('center_axis',(0.,0.,-1.));
#370=DIRECTION('ref_axis',(1.,0.,0.));
#371=DIRECTION('center_axis',(0.,-1.,0.));
#372=DIRECTION('ref_axis',(-1.,0.,0.));
#373=DIRECTION('center_axis',(0.,0.,1.));
#374=DIRECTION('ref_axis',(1.,0.,0.));
#375=DIRECTION('center_axis',(0.,0.,1.));
#376=DIRECTION('ref_axis',(1.,0.,0.));
#377=DIRECTION('center_axis',(0.,0.,1.));
#378=DIRECTION('ref_axis',(-1.,0.,0.));
#379=DIRECTION('',(0.,0.,1.));
#380=DIRECTION('center_axis',(0.,0.,1.));
#381=DIRECTION('ref_axis',(-1.,0.,0.));
#382=DIRECTION('center_axis',(0.,0.,1.));
#383=DIRECTION('ref_axis',(1.,0.,0.));
#384=DIRECTION('center_axis',(0.,0.,-1.));
#385=DIRECTION('ref_axis',(-0.193746191271327,0.981051687408902,0.));
#386=DIRECTION('center_axis',(0.,0.,1.));
#387=DIRECTION('ref_axis',(1.,0.,0.));
#388=DIRECTION('center_axis',(0.,0.,1.));
#389=DIRECTION('ref_axis',(0.193746191271327,-0.981051687408902,0.));
#390=DIRECTION('center_axis',(0.,0.,1.));
#391=DIRECTION('ref_axis',(1.,0.,0.));
#392=DIRECTION('center_axis',(0.,0.,-1.));
#393=DIRECTION('ref_axis',(1.,-1.22464679914735E-16,0.));
#394=DIRECTION('center_axis',(1.22464679914735E-16,-1.,0.));
#395=DIRECTION('ref_axis',(-1.,-1.22464679914735E-16,0.));
#396=DIRECTION('center_axis',(0.,0.,1.));
#397=DIRECTION('ref_axis',(1.,-1.22464679914735E-16,0.));
#398=DIRECTION('center_axis',(0.,0.,1.));
#399=DIRECTION('ref_axis',(1.,-1.22464679914735E-16,0.));
#400=DIRECTION('center_axis',(0.,0.,1.));
#401=DIRECTION('ref_axis',(-1.,0.,0.));
#402=DIRECTION('',(0.,0.,1.));
#403=DIRECTION('center_axis',(0.,0.,1.));
#404=DIRECTION('ref_axis',(-1.,0.,0.));
#405=DIRECTION('center_axis',(0.,0.,-1.));
#406=DIRECTION('ref_axis',(-1.,0.,0.));
#407=DIRECTION('center_axis',(0.,0.,1.));
#408=DIRECTION('ref_axis',(1.,0.,0.));
#409=DIRECTION('center_axis',(0.,0.,-1.));
#410=DIRECTION('ref_axis',(1.,0.,0.));
#411=DIRECTION('',(0.707106781186547,8.65956056235493E-17,-0.707106781186548));
#412=DIRECTION('center_axis',(0.,0.,1.));
#413=DIRECTION('ref_axis',(1.,0.,0.));
#414=DIRECTION('center_axis',(0.,0.,-1.));
#415=DIRECTION('ref_axis',(-1.,0.,0.));
#416=DIRECTION('center_axis',(0.,0.,-1.));
#417=DIRECTION('ref_axis',(1.,0.,0.));
#418=DIRECTION('center_axis',(0.,0.,1.));
#419=DIRECTION('ref_axis',(1.,0.,0.));
#420=DIRECTION('center_axis',(0.,0.,-1.));
#421=DIRECTION('ref_axis',(1.,0.,0.));
#422=DIRECTION('',(0.,0.,-1.));
#423=DIRECTION('center_axis',(0.,0.,1.));
#424=DIRECTION('ref_axis',(1.,0.,0.));
#425=DIRECTION('',(0.,0.,-1.));
#426=DIRECTION('center_axis',(0.,0.,1.));
#427=DIRECTION('ref_axis',(1.,0.,0.));
#428=DIRECTION('center_axis',(0.,0.,-1.));
#429=DIRECTION('ref_axis',(-1.,0.,0.));
#430=DIRECTION('center_axis',(0.,0.,1.));
#431=DIRECTION('ref_axis',(-0.981051687408902,0.193746191271327,0.));
#432=DIRECTION('',(0.,0.,1.));
#433=DIRECTION('center_axis',(0.,0.,1.));
#434=DIRECTION('ref_axis',(1.,0.,0.));
#435=DIRECTION('',(0.,0.,1.));
#436=DIRECTION('center_axis',(0.,0.,1.));
#437=DIRECTION('ref_axis',(0.193746191271327,-0.981051687408902,0.));
#438=DIRECTION('center_axis',(0.,0.,1.));
#439=DIRECTION('ref_axis',(0.193746191271327,-0.981051687408902,0.));
#440=DIRECTION('center_axis',(0.,0.,1.));
#441=DIRECTION('ref_axis',(-0.193746191271327,0.981051687408902,0.));
#442=DIRECTION('center_axis',(0.,0.,-1.));
#443=DIRECTION('ref_axis',(-0.193746191271327,0.981051687408902,0.));
#444=DIRECTION('center_axis',(0.,0.,1.));
#445=DIRECTION('ref_axis',(1.,0.,0.));
#446=CARTESIAN_POINT('',(0.,0.,0.));
#447=CARTESIAN_POINT('Origin',(0.,0.,-0.5));
#448=CARTESIAN_POINT('',(3.47959427469285,-4.25939240778833,0.));
#449=CARTESIAN_POINT('',(0.968730956356636,-4.90525843704451,-0.5));
#450=CARTESIAN_POINT('Ctrl Pts',(3.47959427469285,-4.25939240778832,0.));
#451=CARTESIAN_POINT('Ctrl Pts',(2.79087963143778,-4.47891489886677,2.96626413934911E-15));
#452=CARTESIAN_POINT('Ctrl Pts',(1.95241720975475,-4.71051766782584,-0.219752152729912));
#453=CARTESIAN_POINT('Ctrl Pts',(0.975698597762702,-4.90388156537831,-0.49801505741168));
#454=CARTESIAN_POINT('Ctrl Pts',(0.972214856339086,-4.90457040769699,-0.499007528978472));
#455=CARTESIAN_POINT('Ctrl Pts',(0.968730956356637,-4.90525843704451,-0.5));
#456=CARTESIAN_POINT('',(-0.968730956356633,4.90525843704451,-0.5));
#457=CARTESIAN_POINT('Origin',(0.,0.,-0.5));
#458=CARTESIAN_POINT('',(0.904269581548021,5.42515405531373,0.));
#459=CARTESIAN_POINT('Ctrl Pts',(-0.968730956356633,4.90525843704451,-0.5));
#460=CARTESIAN_POINT('Ctrl Pts',(-0.966051454031495,4.90578760729788,-0.498981908894524));
#461=CARTESIAN_POINT('Ctrl Pts',(-0.963372118121954,4.90631763312284,-0.497963816856518));
#462=CARTESIAN_POINT('Ctrl Pts',(-0.356591944204263,5.02655202291495,-0.267388925308362));
#463=CARTESIAN_POINT('Ctrl Pts',(0.193236280930287,5.18057585681815,-0.0622335041840104));
#464=CARTESIAN_POINT('Ctrl Pts',(0.765222939723714,5.37555690351793,-0.00360208785938413));
#465=CARTESIAN_POINT('Ctrl Pts',(0.837730190316825,5.40112620022741,8.20195484053733E-17));
#466=CARTESIAN_POINT('Ctrl Pts',(0.90426958154802,5.42515405531373,-8.67361737988404E-18));
#467=CARTESIAN_POINT('Origin',(0.,0.,0.));
#468=CARTESIAN_POINT('Origin',(0.,0.,0.));
#469=CARTESIAN_POINT('',(-0.968730956356633,4.90525843704451,3.));
#470=CARTESIAN_POINT('',(-0.968730956356633,4.90525843704451,0.));
#471=CARTESIAN_POINT('',(0.968730956356636,-4.90525843704451,3.));
#472=CARTESIAN_POINT('',(0.968730956356636,-4.90525843704451,0.));
#473=CARTESIAN_POINT('',(-5.,-6.12323399573677E-16,3.));
#474=CARTESIAN_POINT('Origin',(0.,0.,3.));
#475=CARTESIAN_POINT('',(-5.,0.,-4.8));
#476=CARTESIAN_POINT('',(-5.,-6.12323399573677E-16,0.));
#477=CARTESIAN_POINT('Origin',(0.,0.,-4.8));
#478=CARTESIAN_POINT('Origin',(0.,0.,3.));
#479=CARTESIAN_POINT('Origin',(0.,35.,0.5));
#480=CARTESIAN_POINT('',(-3.6,35.,0.));
#481=CARTESIAN_POINT('Origin',(0.,35.,0.));
#482=CARTESIAN_POINT('',(-3.1,35.,0.5));
#483=CARTESIAN_POINT('Origin',(-3.6,35.,0.5));
#484=CARTESIAN_POINT('',(3.1,35.,0.5));
#485=CARTESIAN_POINT('Origin',(0.,35.,0.5));
#486=CARTESIAN_POINT('Origin',(0.,35.,0.5));
#487=CARTESIAN_POINT('Origin',(0.,35.,0.));
#488=CARTESIAN_POINT('',(3.1,35.,2.5));
#489=CARTESIAN_POINT('',(3.1,35.,0.));
#490=CARTESIAN_POINT('Origin',(0.,35.,2.5));
#491=CARTESIAN_POINT('Origin',(7.19097772005103,17.5,0.));
#492=CARTESIAN_POINT('',(-0.968730956356636,30.0947415629555,0.));
#493=CARTESIAN_POINT('Origin',(-3.45604455989792,17.5,0.));
#494=CARTESIAN_POINT('',(0.968730956356631,39.9052584370445,0.));
#495=CARTESIAN_POINT('Origin',(0.,35.,0.));
#496=CARTESIAN_POINT('Origin',(-3.45604455989794,17.5,0.));
#497=CARTESIAN_POINT('Origin',(0.,0.,-4.3));
#498=CARTESIAN_POINT('',(-3.6,8.81745695386095E-16,-4.8));
#499=CARTESIAN_POINT('Origin',(0.,0.,-4.8));
#500=CARTESIAN_POINT('',(-3.1,0.,-4.3));
#501=CARTESIAN_POINT('Origin',(-3.6,-4.40872847693047E-16,-4.3));
#502=CARTESIAN_POINT('',(3.1,3.7964050773568E-16,-4.3));
#503=CARTESIAN_POINT('Origin',(0.,0.,-4.3));
#504=CARTESIAN_POINT('Origin',(0.,0.,-4.3));
#505=CARTESIAN_POINT('Origin',(0.,0.,-4.8));
#506=CARTESIAN_POINT('',(3.1,3.7964050773568E-16,0.2));
#507=CARTESIAN_POINT('',(3.1,3.7964050773568E-16,-4.8));
#508=CARTESIAN_POINT('Origin',(0.,0.,0.2));
#509=CARTESIAN_POINT('Origin',(0.,0.,-4.8));
#510=CARTESIAN_POINT('Origin',(0.,0.,2.2));
#511=CARTESIAN_POINT('',(-3.15,-3.85763741731416E-16,3.));
#512=CARTESIAN_POINT('Origin',(0.,0.,3.));
#513=CARTESIAN_POINT('',(-1.55,-1.8982025386784E-16,1.4));
#514=CARTESIAN_POINT('',(-2.35,-2.87791997799628E-16,2.2));
#515=CARTESIAN_POINT('Origin',(0.,0.,1.4));
#516=CARTESIAN_POINT('Origin',(0.,35.,2.5));
#517=CARTESIAN_POINT('',(-1.55,35.,2.5));
#518=CARTESIAN_POINT('Origin',(0.,35.,2.5));
#519=CARTESIAN_POINT('Origin',(0.,35.,-48.771804595582));
#520=CARTESIAN_POINT('',(-1.55,35.,3.));
#521=CARTESIAN_POINT('Origin',(0.,35.,3.));
#522=CARTESIAN_POINT('',(-1.55,35.,-48.771804595582));
#523=CARTESIAN_POINT('Origin',(0.,0.,-48.771804595582));
#524=CARTESIAN_POINT('',(-1.55,-1.8982025386784E-16,0.199999999999996));
#525=CARTESIAN_POINT('',(-1.55,-1.8982025386784E-16,-48.771804595582));
#526=CARTESIAN_POINT('Origin',(0.,0.,0.199999999999996));
#527=CARTESIAN_POINT('Origin',(0.,0.,0.2));
#528=CARTESIAN_POINT('Origin',(0.,35.,0.));
#529=CARTESIAN_POINT('',(-0.968730956356636,30.0947415629555,3.));
#530=CARTESIAN_POINT('',(-0.968730956356636,30.0947415629555,0.));
#531=CARTESIAN_POINT('',(0.968730956356631,39.9052584370445,3.));
#532=CARTESIAN_POINT('Origin',(0.,35.,3.));
#533=CARTESIAN_POINT('',(0.968730956356631,39.9052584370445,0.));
#534=CARTESIAN_POINT('Origin',(-3.45604455989794,17.5,0.));
#535=CARTESIAN_POINT('Origin',(-3.45604455989794,17.5,3.));
#536=CARTESIAN_POINT('Origin',(-3.45604455989792,17.5,0.));
#537=CARTESIAN_POINT('Origin',(-3.45604455989792,17.5,3.));
#538=CARTESIAN_POINT('Origin',(7.19097772005103,17.5,3.));
#539=UNCERTAINTY_MEASURE_WITH_UNIT(LENGTH_MEASURE(0.01),#543,
'DISTANCE_ACCURACY_VALUE',
'Maximum model space distance between geometric entities at asserted c
onnectivities');
#540=UNCERTAINTY_MEASURE_WITH_UNIT(LENGTH_MEASURE(0.01),#543,
'DISTANCE_ACCURACY_VALUE',
'Maximum model space distance between geometric entities at asserted c
onnectivities');
#541=(
GEOMETRIC_REPRESENTATION_CONTEXT(3)
GLOBAL_UNCERTAINTY_ASSIGNED_CONTEXT((#539))
GLOBAL_UNIT_ASSIGNED_CONTEXT((#543,#545,#546))
REPRESENTATION_CONTEXT('','3D')
);
#542=(
GEOMETRIC_REPRESENTATION_CONTEXT(3)
GLOBAL_UNCERTAINTY_ASSIGNED_CONTEXT((#540))
GLOBAL_UNIT_ASSIGNED_CONTEXT((#543,#545,#546))
REPRESENTATION_CONTEXT('','3D')
);
#543=(
LENGTH_UNIT()
NAMED_UNIT(*)
SI_UNIT(.MILLI.,.METRE.)
);
#544=(
LENGTH_UNIT()
NAMED_UNIT(*)
SI_UNIT(.CENTI.,.METRE.)
);
#545=(
NAMED_UNIT(*)
PLANE_ANGLE_UNIT()
SI_UNIT($,.RADIAN.)
);
#546=(
NAMED_UNIT(*)
SI_UNIT($,.STERADIAN.)
SOLID_ANGLE_UNIT()
);
#547=SHAPE_DEFINITION_REPRESENTATION(#548,#549);
#548=PRODUCT_DEFINITION_SHAPE('',$,#551);
#549=SHAPE_REPRESENTATION('',(#304),#541);
#550=PRODUCT_DEFINITION_CONTEXT('part definition',#555,'design');
#551=PRODUCT_DEFINITION('rotor_arm','rotor_arm',#552,#550);
#552=PRODUCT_DEFINITION_FORMATION('',$,#557);
#553=PRODUCT_RELATED_PRODUCT_CATEGORY('rotor_arm','rotor_arm',(#557));
#554=APPLICATION_PROTOCOL_DEFINITION('international standard',
'automotive_design',2009,#555);
#555=APPLICATION_CONTEXT(
'Core Data for Automotive Mechanical Design Process');
#556=PRODUCT_CONTEXT('part definition',#555,'mechanical');
#557=PRODUCT('rotor_arm','rotor_arm',$,(#556));
#558=PRESENTATION_STYLE_ASSIGNMENT((#559));
#559=SURFACE_STYLE_USAGE(.BOTH.,#562);
#560=SURFACE_STYLE_RENDERING_WITH_PROPERTIES($,#566,(#561));
#561=SURFACE_STYLE_TRANSPARENT(0.);
#562=SURFACE_SIDE_STYLE('',(#563,#560));
#563=SURFACE_STYLE_FILL_AREA(#564);
#564=FILL_AREA_STYLE('',(#565));
#565=FILL_AREA_STYLE_COLOUR('',#566);
#566=COLOUR_RGB('',0.996078431372549,0.996078431372549,1.);
ENDSEC;
END-ISO-10303-21;
