ISO-10303-21;
HEADER;
/* Generated by software containing ST-Developer
 * from STEP Tools, Inc. (www.steptools.com) 
 */

FILE_DESCRIPTION(
/* description */ (''),
/* implementation_level */ '2;1');

FILE_NAME(
/* name */ 'rotor.stp',
/* time_stamp */ '2026-05-04T17:31:02+09:00',
/* author */ ('kshau'),
/* organization */ (''),
/* preprocessor_version */ 'ST-DEVELOPER v20',
/* originating_system */ 'Autodesk Inventor 2024',
/* authorisation */ '');

FILE_SCHEMA (('AUTOMOTIVE_DESIGN { 1 0 10303 214 3 1 1 }'));
ENDSEC;

DATA;
#10=MECHANICAL_DESIGN_GEOMETRIC_PRESENTATION_REPRESENTATION('',(#13),#905);
#11=SHAPE_REPRESENTATION_RELATIONSHIP('SRR','None',#912,#12);
#12=ADVANCED_BREP_SHAPE_REPRESENTATION('',(#14),#904);
#13=STYLED_ITEM('',(#921),#14);
#14=MANIFOLD_SOLID_BREP('\X2\30BD30EA30C330C9\X0\1',#508);
#15=FACE_BOUND('',#92,.T.);
#16=FACE_BOUND('',#93,.T.);
#17=FACE_BOUND('',#94,.T.);
#18=FACE_BOUND('',#95,.T.);
#19=FACE_BOUND('',#96,.T.);
#20=FACE_BOUND('',#97,.T.);
#21=FACE_BOUND('',#98,.T.);
#22=FACE_BOUND('',#99,.T.);
#23=FACE_BOUND('',#100,.T.);
#24=FACE_BOUND('',#102,.T.);
#25=FACE_BOUND('',#103,.T.);
#26=FACE_BOUND('',#104,.T.);
#27=FACE_BOUND('',#105,.T.);
#28=FACE_BOUND('',#106,.T.);
#29=FACE_BOUND('',#107,.T.);
#30=FACE_BOUND('',#108,.T.);
#31=PLANE('',#540);
#32=PLANE('',#544);
#33=PLANE('',#545);
#34=PLANE('',#549);
#35=PLANE('',#553);
#36=PLANE('',#554);
#37=PLANE('',#594);
#38=PLANE('',#595);
#39=FACE_OUTER_BOUND('',#66,.T.);
#40=FACE_OUTER_BOUND('',#67,.T.);
#41=FACE_OUTER_BOUND('',#68,.T.);
#42=FACE_OUTER_BOUND('',#69,.T.);
#43=FACE_OUTER_BOUND('',#70,.T.);
#44=FACE_OUTER_BOUND('',#71,.T.);
#45=FACE_OUTER_BOUND('',#72,.T.);
#46=FACE_OUTER_BOUND('',#73,.T.);
#47=FACE_OUTER_BOUND('',#74,.T.);
#48=FACE_OUTER_BOUND('',#75,.T.);
#49=FACE_OUTER_BOUND('',#76,.T.);
#50=FACE_OUTER_BOUND('',#77,.T.);
#51=FACE_OUTER_BOUND('',#78,.T.);
#52=FACE_OUTER_BOUND('',#79,.T.);
#53=FACE_OUTER_BOUND('',#80,.T.);
#54=FACE_OUTER_BOUND('',#81,.T.);
#55=FACE_OUTER_BOUND('',#82,.T.);
#56=FACE_OUTER_BOUND('',#83,.T.);
#57=FACE_OUTER_BOUND('',#84,.T.);
#58=FACE_OUTER_BOUND('',#85,.T.);
#59=FACE_OUTER_BOUND('',#86,.T.);
#60=FACE_OUTER_BOUND('',#87,.T.);
#61=FACE_OUTER_BOUND('',#88,.T.);
#62=FACE_OUTER_BOUND('',#89,.T.);
#63=FACE_OUTER_BOUND('',#90,.T.);
#64=FACE_OUTER_BOUND('',#91,.T.);
#65=FACE_OUTER_BOUND('',#101,.T.);
#66=EDGE_LOOP('',(#324,#325,#326,#327));
#67=EDGE_LOOP('',(#328,#329,#330,#331));
#68=EDGE_LOOP('',(#332,#333,#334,#335));
#69=EDGE_LOOP('',(#336,#337,#338,#339));
#70=EDGE_LOOP('',(#340,#341,#342,#343));
#71=EDGE_LOOP('',(#344,#345,#346,#347));
#72=EDGE_LOOP('',(#348,#349,#350,#351));
#73=EDGE_LOOP('',(#352,#353,#354,#355));
#74=EDGE_LOOP('',(#356,#357,#358,#359));
#75=EDGE_LOOP('',(#360,#361,#362,#363));
#76=EDGE_LOOP('',(#364,#365,#366,#367));
#77=EDGE_LOOP('',(#368,#369,#370,#371));
#78=EDGE_LOOP('',(#372,#373,#374,#375));
#79=EDGE_LOOP('',(#376,#377,#378,#379));
#80=EDGE_LOOP('',(#380,#381,#382,#383));
#81=EDGE_LOOP('',(#384,#385,#386,#387));
#82=EDGE_LOOP('',(#388,#389,#390,#391));
#83=EDGE_LOOP('',(#392,#393,#394,#395));
#84=EDGE_LOOP('',(#396,#397,#398,#399));
#85=EDGE_LOOP('',(#400,#401,#402,#403));
#86=EDGE_LOOP('',(#404,#405,#406,#407));
#87=EDGE_LOOP('',(#408,#409,#410,#411));
#88=EDGE_LOOP('',(#412,#413,#414,#415));
#89=EDGE_LOOP('',(#416,#417,#418,#419));
#90=EDGE_LOOP('',(#420,#421,#422,#423));
#91=EDGE_LOOP('',(#424,#425,#426,#427,#428,#429,#430,#431));
#92=EDGE_LOOP('',(#432));
#93=EDGE_LOOP('',(#433));
#94=EDGE_LOOP('',(#434,#435,#436,#437));
#95=EDGE_LOOP('',(#438,#439,#440,#441));
#96=EDGE_LOOP('',(#442));
#97=EDGE_LOOP('',(#443));
#98=EDGE_LOOP('',(#444));
#99=EDGE_LOOP('',(#445));
#100=EDGE_LOOP('',(#446));
#101=EDGE_LOOP('',(#447,#448,#449,#450,#451,#452,#453,#454));
#102=EDGE_LOOP('',(#455));
#103=EDGE_LOOP('',(#456));
#104=EDGE_LOOP('',(#457));
#105=EDGE_LOOP('',(#458));
#106=EDGE_LOOP('',(#459));
#107=EDGE_LOOP('',(#460));
#108=EDGE_LOOP('',(#461));
#109=LINE('',#764,#140);
#110=LINE('',#770,#141);
#111=LINE('',#777,#142);
#112=LINE('',#780,#143);
#113=LINE('',#783,#144);
#114=LINE('',#785,#145);
#115=LINE('',#786,#146);
#116=LINE('',#792,#147);
#117=LINE('',#794,#148);
#118=LINE('',#795,#149);
#119=LINE('',#802,#150);
#120=LINE('',#805,#151);
#121=LINE('',#808,#152);
#122=LINE('',#810,#153);
#123=LINE('',#811,#154);
#124=LINE('',#817,#155);
#125=LINE('',#819,#156);
#126=LINE('',#820,#157);
#127=LINE('',#826,#158);
#128=LINE('',#832,#159);
#129=LINE('',#838,#160);
#130=LINE('',#844,#161);
#131=LINE('',#850,#162);
#132=LINE('',#857,#163);
#133=LINE('',#860,#164);
#134=LINE('',#866,#165);
#135=LINE('',#872,#166);
#136=LINE('',#878,#167);
#137=LINE('',#884,#168);
#138=LINE('',#890,#169);
#139=LINE('',#896,#170);
#140=VECTOR('',#602,1.55);
#141=VECTOR('',#609,1.55);
#142=VECTOR('',#616,10.);
#143=VECTOR('',#619,10.);
#144=VECTOR('',#622,10.);
#145=VECTOR('',#623,10.);
#146=VECTOR('',#624,10.);
#147=VECTOR('',#631,10.);
#148=VECTOR('',#634,10.);
#149=VECTOR('',#635,10.);
#150=VECTOR('',#642,10.);
#151=VECTOR('',#645,10.);
#152=VECTOR('',#648,10.);
#153=VECTOR('',#649,10.);
#154=VECTOR('',#650,10.);
#155=VECTOR('',#657,10.);
#156=VECTOR('',#660,10.);
#157=VECTOR('',#661,10.);
#158=VECTOR('',#668,1.);
#159=VECTOR('',#675,1.);
#160=VECTOR('',#682,1.);
#161=VECTOR('',#689,1.);
#162=VECTOR('',#696,4.25);
#163=VECTOR('',#703,10.);
#164=VECTOR('',#706,10.);
#165=VECTOR('',#713,10.);
#166=VECTOR('',#720,10.);
#167=VECTOR('',#727,10.);
#168=VECTOR('',#734,10.);
#169=VECTOR('',#741,10.);
#170=VECTOR('',#748,10.);
#171=CIRCLE('',#532,1.55);
#172=CIRCLE('',#533,1.55);
#173=CIRCLE('',#535,1.55);
#174=CIRCLE('',#536,1.55);
#175=CIRCLE('',#538,10.8380000101032);
#176=CIRCLE('',#539,10.8380000101032);
#177=CIRCLE('',#542,12.838);
#178=CIRCLE('',#543,12.838);
#179=CIRCLE('',#547,10.8380000101032);
#180=CIRCLE('',#548,10.8380000101032);
#181=CIRCLE('',#551,12.838);
#182=CIRCLE('',#552,12.838);
#183=CIRCLE('',#556,1.);
#184=CIRCLE('',#557,1.);
#185=CIRCLE('',#559,1.);
#186=CIRCLE('',#560,1.);
#187=CIRCLE('',#562,1.);
#188=CIRCLE('',#563,1.);
#189=CIRCLE('',#565,1.);
#190=CIRCLE('',#566,1.);
#191=CIRCLE('',#568,4.25);
#192=CIRCLE('',#569,4.25);
#193=CIRCLE('',#571,13.7009152045764);
#194=CIRCLE('',#572,13.7009152045764);
#195=CIRCLE('',#574,10.);
#196=CIRCLE('',#575,10.);
#197=CIRCLE('',#577,24.9418503562445);
#198=CIRCLE('',#578,24.9418503562445);
#199=CIRCLE('',#580,5.);
#200=CIRCLE('',#581,5.);
#201=CIRCLE('',#583,13.7009152045764);
#202=CIRCLE('',#584,13.7009152045764);
#203=CIRCLE('',#586,10.);
#204=CIRCLE('',#587,10.);
#205=CIRCLE('',#589,24.9418503562445);
#206=CIRCLE('',#590,24.9418503562445);
#207=CIRCLE('',#592,5.);
#208=CIRCLE('',#593,5.);
#209=VERTEX_POINT('',#761);
#210=VERTEX_POINT('',#763);
#211=VERTEX_POINT('',#767);
#212=VERTEX_POINT('',#769);
#213=VERTEX_POINT('',#773);
#214=VERTEX_POINT('',#774);
#215=VERTEX_POINT('',#776);
#216=VERTEX_POINT('',#778);
#217=VERTEX_POINT('',#782);
#218=VERTEX_POINT('',#784);
#219=VERTEX_POINT('',#788);
#220=VERTEX_POINT('',#790);
#221=VERTEX_POINT('',#798);
#222=VERTEX_POINT('',#799);
#223=VERTEX_POINT('',#801);
#224=VERTEX_POINT('',#803);
#225=VERTEX_POINT('',#807);
#226=VERTEX_POINT('',#809);
#227=VERTEX_POINT('',#813);
#228=VERTEX_POINT('',#815);
#229=VERTEX_POINT('',#823);
#230=VERTEX_POINT('',#825);
#231=VERTEX_POINT('',#829);
#232=VERTEX_POINT('',#831);
#233=VERTEX_POINT('',#835);
#234=VERTEX_POINT('',#837);
#235=VERTEX_POINT('',#841);
#236=VERTEX_POINT('',#843);
#237=VERTEX_POINT('',#847);
#238=VERTEX_POINT('',#849);
#239=VERTEX_POINT('',#853);
#240=VERTEX_POINT('',#854);
#241=VERTEX_POINT('',#856);
#242=VERTEX_POINT('',#858);
#243=VERTEX_POINT('',#862);
#244=VERTEX_POINT('',#864);
#245=VERTEX_POINT('',#868);
#246=VERTEX_POINT('',#870);
#247=VERTEX_POINT('',#874);
#248=VERTEX_POINT('',#876);
#249=VERTEX_POINT('',#880);
#250=VERTEX_POINT('',#882);
#251=VERTEX_POINT('',#886);
#252=VERTEX_POINT('',#888);
#253=VERTEX_POINT('',#892);
#254=VERTEX_POINT('',#894);
#255=EDGE_CURVE('',#209,#209,#171,.T.);
#256=EDGE_CURVE('',#209,#210,#109,.T.);
#257=EDGE_CURVE('',#210,#210,#172,.T.);
#258=EDGE_CURVE('',#211,#211,#173,.T.);
#259=EDGE_CURVE('',#211,#212,#110,.T.);
#260=EDGE_CURVE('',#212,#212,#174,.T.);
#261=EDGE_CURVE('',#213,#214,#175,.T.);
#262=EDGE_CURVE('',#213,#215,#111,.T.);
#263=EDGE_CURVE('',#216,#215,#176,.T.);
#264=EDGE_CURVE('',#214,#216,#112,.T.);
#265=EDGE_CURVE('',#214,#217,#113,.T.);
#266=EDGE_CURVE('',#218,#216,#114,.T.);
#267=EDGE_CURVE('',#217,#218,#115,.T.);
#268=EDGE_CURVE('',#217,#219,#177,.T.);
#269=EDGE_CURVE('',#220,#218,#178,.T.);
#270=EDGE_CURVE('',#219,#220,#116,.T.);
#271=EDGE_CURVE('',#219,#213,#117,.T.);
#272=EDGE_CURVE('',#215,#220,#118,.T.);
#273=EDGE_CURVE('',#221,#222,#179,.T.);
#274=EDGE_CURVE('',#221,#223,#119,.T.);
#275=EDGE_CURVE('',#224,#223,#180,.T.);
#276=EDGE_CURVE('',#222,#224,#120,.T.);
#277=EDGE_CURVE('',#222,#225,#121,.T.);
#278=EDGE_CURVE('',#226,#224,#122,.T.);
#279=EDGE_CURVE('',#225,#226,#123,.T.);
#280=EDGE_CURVE('',#225,#227,#181,.T.);
#281=EDGE_CURVE('',#228,#226,#182,.T.);
#282=EDGE_CURVE('',#227,#228,#124,.T.);
#283=EDGE_CURVE('',#227,#221,#125,.T.);
#284=EDGE_CURVE('',#223,#228,#126,.T.);
#285=EDGE_CURVE('',#229,#229,#183,.T.);
#286=EDGE_CURVE('',#229,#230,#127,.T.);
#287=EDGE_CURVE('',#230,#230,#184,.T.);
#288=EDGE_CURVE('',#231,#231,#185,.T.);
#289=EDGE_CURVE('',#231,#232,#128,.T.);
#290=EDGE_CURVE('',#232,#232,#186,.T.);
#291=EDGE_CURVE('',#233,#233,#187,.T.);
#292=EDGE_CURVE('',#233,#234,#129,.T.);
#293=EDGE_CURVE('',#234,#234,#188,.T.);
#294=EDGE_CURVE('',#235,#235,#189,.T.);
#295=EDGE_CURVE('',#235,#236,#130,.T.);
#296=EDGE_CURVE('',#236,#236,#190,.T.);
#297=EDGE_CURVE('',#237,#237,#191,.T.);
#298=EDGE_CURVE('',#237,#238,#131,.T.);
#299=EDGE_CURVE('',#238,#238,#192,.T.);
#300=EDGE_CURVE('',#239,#240,#193,.T.);
#301=EDGE_CURVE('',#240,#241,#132,.T.);
#302=EDGE_CURVE('',#242,#241,#194,.T.);
#303=EDGE_CURVE('',#239,#242,#133,.T.);
#304=EDGE_CURVE('',#243,#239,#195,.T.);
#305=EDGE_CURVE('',#244,#242,#196,.T.);
#306=EDGE_CURVE('',#243,#244,#134,.T.);
#307=EDGE_CURVE('',#245,#243,#197,.T.);
#308=EDGE_CURVE('',#246,#244,#198,.T.);
#309=EDGE_CURVE('',#245,#246,#135,.T.);
#310=EDGE_CURVE('',#247,#245,#199,.T.);
#311=EDGE_CURVE('',#248,#246,#200,.T.);
#312=EDGE_CURVE('',#247,#248,#136,.T.);
#313=EDGE_CURVE('',#249,#247,#201,.T.);
#314=EDGE_CURVE('',#250,#248,#202,.T.);
#315=EDGE_CURVE('',#249,#250,#137,.T.);
#316=EDGE_CURVE('',#251,#249,#203,.T.);
#317=EDGE_CURVE('',#252,#250,#204,.T.);
#318=EDGE_CURVE('',#251,#252,#138,.T.);
#319=EDGE_CURVE('',#253,#251,#205,.T.);
#320=EDGE_CURVE('',#254,#252,#206,.T.);
#321=EDGE_CURVE('',#253,#254,#139,.T.);
#322=EDGE_CURVE('',#240,#253,#207,.T.);
#323=EDGE_CURVE('',#241,#254,#208,.T.);
#324=ORIENTED_EDGE('',*,*,#255,.F.);
#325=ORIENTED_EDGE('',*,*,#256,.T.);
#326=ORIENTED_EDGE('',*,*,#257,.F.);
#327=ORIENTED_EDGE('',*,*,#256,.F.);
#328=ORIENTED_EDGE('',*,*,#258,.F.);
#329=ORIENTED_EDGE('',*,*,#259,.T.);
#330=ORIENTED_EDGE('',*,*,#260,.F.);
#331=ORIENTED_EDGE('',*,*,#259,.F.);
#332=ORIENTED_EDGE('',*,*,#261,.F.);
#333=ORIENTED_EDGE('',*,*,#262,.T.);
#334=ORIENTED_EDGE('',*,*,#263,.F.);
#335=ORIENTED_EDGE('',*,*,#264,.F.);
#336=ORIENTED_EDGE('',*,*,#265,.F.);
#337=ORIENTED_EDGE('',*,*,#264,.T.);
#338=ORIENTED_EDGE('',*,*,#266,.F.);
#339=ORIENTED_EDGE('',*,*,#267,.F.);
#340=ORIENTED_EDGE('',*,*,#268,.F.);
#341=ORIENTED_EDGE('',*,*,#267,.T.);
#342=ORIENTED_EDGE('',*,*,#269,.F.);
#343=ORIENTED_EDGE('',*,*,#270,.F.);
#344=ORIENTED_EDGE('',*,*,#271,.F.);
#345=ORIENTED_EDGE('',*,*,#270,.T.);
#346=ORIENTED_EDGE('',*,*,#272,.F.);
#347=ORIENTED_EDGE('',*,*,#262,.F.);
#348=ORIENTED_EDGE('',*,*,#272,.T.);
#349=ORIENTED_EDGE('',*,*,#269,.T.);
#350=ORIENTED_EDGE('',*,*,#266,.T.);
#351=ORIENTED_EDGE('',*,*,#263,.T.);
#352=ORIENTED_EDGE('',*,*,#273,.F.);
#353=ORIENTED_EDGE('',*,*,#274,.T.);
#354=ORIENTED_EDGE('',*,*,#275,.F.);
#355=ORIENTED_EDGE('',*,*,#276,.F.);
#356=ORIENTED_EDGE('',*,*,#277,.F.);
#357=ORIENTED_EDGE('',*,*,#276,.T.);
#358=ORIENTED_EDGE('',*,*,#278,.F.);
#359=ORIENTED_EDGE('',*,*,#279,.F.);
#360=ORIENTED_EDGE('',*,*,#280,.F.);
#361=ORIENTED_EDGE('',*,*,#279,.T.);
#362=ORIENTED_EDGE('',*,*,#281,.F.);
#363=ORIENTED_EDGE('',*,*,#282,.F.);
#364=ORIENTED_EDGE('',*,*,#283,.F.);
#365=ORIENTED_EDGE('',*,*,#282,.T.);
#366=ORIENTED_EDGE('',*,*,#284,.F.);
#367=ORIENTED_EDGE('',*,*,#274,.F.);
#368=ORIENTED_EDGE('',*,*,#284,.T.);
#369=ORIENTED_EDGE('',*,*,#281,.T.);
#370=ORIENTED_EDGE('',*,*,#278,.T.);
#371=ORIENTED_EDGE('',*,*,#275,.T.);
#372=ORIENTED_EDGE('',*,*,#285,.F.);
#373=ORIENTED_EDGE('',*,*,#286,.T.);
#374=ORIENTED_EDGE('',*,*,#287,.F.);
#375=ORIENTED_EDGE('',*,*,#286,.F.);
#376=ORIENTED_EDGE('',*,*,#288,.F.);
#377=ORIENTED_EDGE('',*,*,#289,.T.);
#378=ORIENTED_EDGE('',*,*,#290,.F.);
#379=ORIENTED_EDGE('',*,*,#289,.F.);
#380=ORIENTED_EDGE('',*,*,#291,.F.);
#381=ORIENTED_EDGE('',*,*,#292,.T.);
#382=ORIENTED_EDGE('',*,*,#293,.F.);
#383=ORIENTED_EDGE('',*,*,#292,.F.);
#384=ORIENTED_EDGE('',*,*,#294,.F.);
#385=ORIENTED_EDGE('',*,*,#295,.T.);
#386=ORIENTED_EDGE('',*,*,#296,.F.);
#387=ORIENTED_EDGE('',*,*,#295,.F.);
#388=ORIENTED_EDGE('',*,*,#297,.F.);
#389=ORIENTED_EDGE('',*,*,#298,.T.);
#390=ORIENTED_EDGE('',*,*,#299,.F.);
#391=ORIENTED_EDGE('',*,*,#298,.F.);
#392=ORIENTED_EDGE('',*,*,#300,.T.);
#393=ORIENTED_EDGE('',*,*,#301,.T.);
#394=ORIENTED_EDGE('',*,*,#302,.F.);
#395=ORIENTED_EDGE('',*,*,#303,.F.);
#396=ORIENTED_EDGE('',*,*,#304,.T.);
#397=ORIENTED_EDGE('',*,*,#303,.T.);
#398=ORIENTED_EDGE('',*,*,#305,.F.);
#399=ORIENTED_EDGE('',*,*,#306,.F.);
#400=ORIENTED_EDGE('',*,*,#307,.T.);
#401=ORIENTED_EDGE('',*,*,#306,.T.);
#402=ORIENTED_EDGE('',*,*,#308,.F.);
#403=ORIENTED_EDGE('',*,*,#309,.F.);
#404=ORIENTED_EDGE('',*,*,#310,.T.);
#405=ORIENTED_EDGE('',*,*,#309,.T.);
#406=ORIENTED_EDGE('',*,*,#311,.F.);
#407=ORIENTED_EDGE('',*,*,#312,.F.);
#408=ORIENTED_EDGE('',*,*,#313,.T.);
#409=ORIENTED_EDGE('',*,*,#312,.T.);
#410=ORIENTED_EDGE('',*,*,#314,.F.);
#411=ORIENTED_EDGE('',*,*,#315,.F.);
#412=ORIENTED_EDGE('',*,*,#316,.T.);
#413=ORIENTED_EDGE('',*,*,#315,.T.);
#414=ORIENTED_EDGE('',*,*,#317,.F.);
#415=ORIENTED_EDGE('',*,*,#318,.F.);
#416=ORIENTED_EDGE('',*,*,#319,.T.);
#417=ORIENTED_EDGE('',*,*,#318,.T.);
#418=ORIENTED_EDGE('',*,*,#320,.F.);
#419=ORIENTED_EDGE('',*,*,#321,.F.);
#420=ORIENTED_EDGE('',*,*,#322,.T.);
#421=ORIENTED_EDGE('',*,*,#321,.T.);
#422=ORIENTED_EDGE('',*,*,#323,.F.);
#423=ORIENTED_EDGE('',*,*,#301,.F.);
#424=ORIENTED_EDGE('',*,*,#323,.T.);
#425=ORIENTED_EDGE('',*,*,#320,.T.);
#426=ORIENTED_EDGE('',*,*,#317,.T.);
#427=ORIENTED_EDGE('',*,*,#314,.T.);
#428=ORIENTED_EDGE('',*,*,#311,.T.);
#429=ORIENTED_EDGE('',*,*,#308,.T.);
#430=ORIENTED_EDGE('',*,*,#305,.T.);
#431=ORIENTED_EDGE('',*,*,#302,.T.);
#432=ORIENTED_EDGE('',*,*,#257,.T.);
#433=ORIENTED_EDGE('',*,*,#260,.T.);
#434=ORIENTED_EDGE('',*,*,#261,.T.);
#435=ORIENTED_EDGE('',*,*,#265,.T.);
#436=ORIENTED_EDGE('',*,*,#268,.T.);
#437=ORIENTED_EDGE('',*,*,#271,.T.);
#438=ORIENTED_EDGE('',*,*,#273,.T.);
#439=ORIENTED_EDGE('',*,*,#277,.T.);
#440=ORIENTED_EDGE('',*,*,#280,.T.);
#441=ORIENTED_EDGE('',*,*,#283,.T.);
#442=ORIENTED_EDGE('',*,*,#285,.T.);
#443=ORIENTED_EDGE('',*,*,#288,.T.);
#444=ORIENTED_EDGE('',*,*,#291,.T.);
#445=ORIENTED_EDGE('',*,*,#294,.T.);
#446=ORIENTED_EDGE('',*,*,#297,.T.);
#447=ORIENTED_EDGE('',*,*,#322,.F.);
#448=ORIENTED_EDGE('',*,*,#300,.F.);
#449=ORIENTED_EDGE('',*,*,#304,.F.);
#450=ORIENTED_EDGE('',*,*,#307,.F.);
#451=ORIENTED_EDGE('',*,*,#310,.F.);
#452=ORIENTED_EDGE('',*,*,#313,.F.);
#453=ORIENTED_EDGE('',*,*,#316,.F.);
#454=ORIENTED_EDGE('',*,*,#319,.F.);
#455=ORIENTED_EDGE('',*,*,#255,.T.);
#456=ORIENTED_EDGE('',*,*,#258,.T.);
#457=ORIENTED_EDGE('',*,*,#287,.T.);
#458=ORIENTED_EDGE('',*,*,#290,.T.);
#459=ORIENTED_EDGE('',*,*,#293,.T.);
#460=ORIENTED_EDGE('',*,*,#296,.T.);
#461=ORIENTED_EDGE('',*,*,#299,.T.);
#462=CYLINDRICAL_SURFACE('',#531,1.55);
#463=CYLINDRICAL_SURFACE('',#534,1.55);
#464=CYLINDRICAL_SURFACE('',#537,10.8380000101032);
#465=CYLINDRICAL_SURFACE('',#541,12.838);
#466=CYLINDRICAL_SURFACE('',#546,10.8380000101032);
#467=CYLINDRICAL_SURFACE('',#550,12.838);
#468=CYLINDRICAL_SURFACE('',#555,1.);
#469=CYLINDRICAL_SURFACE('',#558,1.);
#470=CYLINDRICAL_SURFACE('',#561,1.);
#471=CYLINDRICAL_SURFACE('',#564,1.);
#472=CYLINDRICAL_SURFACE('',#567,4.25);
#473=CYLINDRICAL_SURFACE('',#570,13.7009152045764);
#474=CYLINDRICAL_SURFACE('',#573,10.);
#475=CYLINDRICAL_SURFACE('',#576,24.9418503562445);
#476=CYLINDRICAL_SURFACE('',#579,5.);
#477=CYLINDRICAL_SURFACE('',#582,13.7009152045764);
#478=CYLINDRICAL_SURFACE('',#585,10.);
#479=CYLINDRICAL_SURFACE('',#588,24.9418503562445);
#480=CYLINDRICAL_SURFACE('',#591,5.);
#481=ADVANCED_FACE('',(#39),#462,.F.);
#482=ADVANCED_FACE('',(#40),#463,.F.);
#483=ADVANCED_FACE('',(#41),#464,.F.);
#484=ADVANCED_FACE('',(#42),#31,.T.);
#485=ADVANCED_FACE('',(#43),#465,.T.);
#486=ADVANCED_FACE('',(#44),#32,.T.);
#487=ADVANCED_FACE('',(#45),#33,.T.);
#488=ADVANCED_FACE('',(#46),#466,.F.);
#489=ADVANCED_FACE('',(#47),#34,.T.);
#490=ADVANCED_FACE('',(#48),#467,.T.);
#491=ADVANCED_FACE('',(#49),#35,.T.);
#492=ADVANCED_FACE('',(#50),#36,.T.);
#493=ADVANCED_FACE('',(#51),#468,.F.);
#494=ADVANCED_FACE('',(#52),#469,.F.);
#495=ADVANCED_FACE('',(#53),#470,.F.);
#496=ADVANCED_FACE('',(#54),#471,.F.);
#497=ADVANCED_FACE('',(#55),#472,.F.);
#498=ADVANCED_FACE('',(#56),#473,.F.);
#499=ADVANCED_FACE('',(#57),#474,.T.);
#500=ADVANCED_FACE('',(#58),#475,.T.);
#501=ADVANCED_FACE('',(#59),#476,.T.);
#502=ADVANCED_FACE('',(#60),#477,.F.);
#503=ADVANCED_FACE('',(#61),#478,.T.);
#504=ADVANCED_FACE('',(#62),#479,.T.);
#505=ADVANCED_FACE('',(#63),#480,.T.);
#506=ADVANCED_FACE('',(#64,#15,#16,#17,#18,#19,#20,#21,#22,#23),#37,.T.);
#507=ADVANCED_FACE('',(#65,#24,#25,#26,#27,#28,#29,#30),#38,.F.);
#508=CLOSED_SHELL('',(#481,#482,#483,#484,#485,#486,#487,#488,#489,#490,
#491,#492,#493,#494,#495,#496,#497,#498,#499,#500,#501,#502,#503,#504,#505,
#506,#507));
#509=DERIVED_UNIT_ELEMENT(#512,1.);
#510=DERIVED_UNIT_ELEMENT(#907,-3.);
#511=DIMENSIONAL_EXPONENTS(0.,1.,0.,0.,0.,0.,0.);
#512=(
CONVERSION_BASED_UNIT('gram',#514)
MASS_UNIT()
NAMED_UNIT(#511)
);
#513=(
MASS_UNIT()
NAMED_UNIT(*)
SI_UNIT(.KILO.,.GRAM.)
);
#514=MASS_MEASURE_WITH_UNIT(MASS_MEASURE(0.001),#513);
#515=DERIVED_UNIT((#509,#510));
#516=MEASURE_REPRESENTATION_ITEM('density measure',
POSITIVE_RATIO_MEASURE(2.7),#515);
#517=PROPERTY_DEFINITION_REPRESENTATION(#522,#519);
#518=PROPERTY_DEFINITION_REPRESENTATION(#523,#520);
#519=REPRESENTATION('material name',(#521),#904);
#520=REPRESENTATION('density',(#516),#904);
#521=DESCRIPTIVE_REPRESENTATION_ITEM('\X2\30A230EB30DF30CB30A630E0\X0\ 
6061','\X2\30A230EB30DF30CB30A630E0\X0\ 6061');
#522=PROPERTY_DEFINITION('material property','material name',#914);
#523=PROPERTY_DEFINITION('material property','density of part',#914);
#524=DATE_TIME_ROLE('creation_date');
#525=APPLIED_DATE_AND_TIME_ASSIGNMENT(#526,#524,(#914));
#526=DATE_AND_TIME(#527,#528);
#527=CALENDAR_DATE(2025,26,6);
#528=LOCAL_TIME(0,0,0.,#529);
#529=COORDINATED_UNIVERSAL_TIME_OFFSET(0,0,.BEHIND.);
#530=AXIS2_PLACEMENT_3D('',#759,#596,#597);
#531=AXIS2_PLACEMENT_3D('',#760,#598,#599);
#532=AXIS2_PLACEMENT_3D('',#762,#600,#601);
#533=AXIS2_PLACEMENT_3D('',#765,#603,#604);
#534=AXIS2_PLACEMENT_3D('',#766,#605,#606);
#535=AXIS2_PLACEMENT_3D('',#768,#607,#608);
#536=AXIS2_PLACEMENT_3D('',#771,#610,#611);
#537=AXIS2_PLACEMENT_3D('',#772,#612,#613);
#538=AXIS2_PLACEMENT_3D('',#775,#614,#615);
#539=AXIS2_PLACEMENT_3D('',#779,#617,#618);
#540=AXIS2_PLACEMENT_3D('',#781,#620,#621);
#541=AXIS2_PLACEMENT_3D('',#787,#625,#626);
#542=AXIS2_PLACEMENT_3D('',#789,#627,#628);
#543=AXIS2_PLACEMENT_3D('',#791,#629,#630);
#544=AXIS2_PLACEMENT_3D('',#793,#632,#633);
#545=AXIS2_PLACEMENT_3D('',#796,#636,#637);
#546=AXIS2_PLACEMENT_3D('',#797,#638,#639);
#547=AXIS2_PLACEMENT_3D('',#800,#640,#641);
#548=AXIS2_PLACEMENT_3D('',#804,#643,#644);
#549=AXIS2_PLACEMENT_3D('',#806,#646,#647);
#550=AXIS2_PLACEMENT_3D('',#812,#651,#652);
#551=AXIS2_PLACEMENT_3D('',#814,#653,#654);
#552=AXIS2_PLACEMENT_3D('',#816,#655,#656);
#553=AXIS2_PLACEMENT_3D('',#818,#658,#659);
#554=AXIS2_PLACEMENT_3D('',#821,#662,#663);
#555=AXIS2_PLACEMENT_3D('',#822,#664,#665);
#556=AXIS2_PLACEMENT_3D('',#824,#666,#667);
#557=AXIS2_PLACEMENT_3D('',#827,#669,#670);
#558=AXIS2_PLACEMENT_3D('',#828,#671,#672);
#559=AXIS2_PLACEMENT_3D('',#830,#673,#674);
#560=AXIS2_PLACEMENT_3D('',#833,#676,#677);
#561=AXIS2_PLACEMENT_3D('',#834,#678,#679);
#562=AXIS2_PLACEMENT_3D('',#836,#680,#681);
#563=AXIS2_PLACEMENT_3D('',#839,#683,#684);
#564=AXIS2_PLACEMENT_3D('',#840,#685,#686);
#565=AXIS2_PLACEMENT_3D('',#842,#687,#688);
#566=AXIS2_PLACEMENT_3D('',#845,#690,#691);
#567=AXIS2_PLACEMENT_3D('',#846,#692,#693);
#568=AXIS2_PLACEMENT_3D('',#848,#694,#695);
#569=AXIS2_PLACEMENT_3D('',#851,#697,#698);
#570=AXIS2_PLACEMENT_3D('',#852,#699,#700);
#571=AXIS2_PLACEMENT_3D('',#855,#701,#702);
#572=AXIS2_PLACEMENT_3D('',#859,#704,#705);
#573=AXIS2_PLACEMENT_3D('',#861,#707,#708);
#574=AXIS2_PLACEMENT_3D('',#863,#709,#710);
#575=AXIS2_PLACEMENT_3D('',#865,#711,#712);
#576=AXIS2_PLACEMENT_3D('',#867,#714,#715);
#577=AXIS2_PLACEMENT_3D('',#869,#716,#717);
#578=AXIS2_PLACEMENT_3D('',#871,#718,#719);
#579=AXIS2_PLACEMENT_3D('',#873,#721,#722);
#580=AXIS2_PLACEMENT_3D('',#875,#723,#724);
#581=AXIS2_PLACEMENT_3D('',#877,#725,#726);
#582=AXIS2_PLACEMENT_3D('',#879,#728,#729);
#583=AXIS2_PLACEMENT_3D('',#881,#730,#731);
#584=AXIS2_PLACEMENT_3D('',#883,#732,#733);
#585=AXIS2_PLACEMENT_3D('',#885,#735,#736);
#586=AXIS2_PLACEMENT_3D('',#887,#737,#738);
#587=AXIS2_PLACEMENT_3D('',#889,#739,#740);
#588=AXIS2_PLACEMENT_3D('',#891,#742,#743);
#589=AXIS2_PLACEMENT_3D('',#893,#744,#745);
#590=AXIS2_PLACEMENT_3D('',#895,#746,#747);
#591=AXIS2_PLACEMENT_3D('',#897,#749,#750);
#592=AXIS2_PLACEMENT_3D('',#898,#751,#752);
#593=AXIS2_PLACEMENT_3D('',#899,#753,#754);
#594=AXIS2_PLACEMENT_3D('',#900,#755,#756);
#595=AXIS2_PLACEMENT_3D('',#901,#757,#758);
#596=DIRECTION('axis',(0.,0.,1.));
#597=DIRECTION('refdir',(1.,0.,0.));
#598=DIRECTION('center_axis',(0.,0.,-1.));
#599=DIRECTION('ref_axis',(-1.,0.,0.));
#600=DIRECTION('center_axis',(0.,0.,1.));
#601=DIRECTION('ref_axis',(-1.,0.,0.));
#602=DIRECTION('',(0.,0.,1.));
#603=DIRECTION('center_axis',(0.,0.,-1.));
#604=DIRECTION('ref_axis',(-1.,0.,0.));
#605=DIRECTION('center_axis',(0.,0.,-1.));
#606=DIRECTION('ref_axis',(-1.,0.,0.));
#607=DIRECTION('center_axis',(0.,0.,1.));
#608=DIRECTION('ref_axis',(-1.,0.,0.));
#609=DIRECTION('',(0.,0.,1.));
#610=DIRECTION('center_axis',(0.,0.,-1.));
#611=DIRECTION('ref_axis',(-1.,0.,0.));
#612=DIRECTION('center_axis',(0.,0.,1.));
#613=DIRECTION('ref_axis',(-0.99999998087016,-0.00019560081774066,0.));
#614=DIRECTION('center_axis',(0.,0.,1.));
#615=DIRECTION('ref_axis',(-0.99999998087016,-0.00019560081774066,0.));
#616=DIRECTION('',(0.,0.,1.));
#617=DIRECTION('center_axis',(0.,0.,-1.));
#618=DIRECTION('ref_axis',(-0.99999998087016,-0.00019560081774066,0.));
#619=DIRECTION('',(0.,0.,1.));
#620=DIRECTION('center_axis',(-0.999999996284415,-8.62042292415491E-5,0.));
#621=DIRECTION('ref_axis',(8.62042292415491E-5,-0.999999996284415,0.));
#622=DIRECTION('',(-8.62042292415491E-5,0.999999996284415,0.));
#623=DIRECTION('',(8.62042292415491E-5,-0.999999996284415,0.));
#624=DIRECTION('',(0.,0.,1.));
#625=DIRECTION('center_axis',(0.,0.,1.));
#626=DIRECTION('ref_axis',(1.,0.,0.));
#627=DIRECTION('center_axis',(0.,0.,-1.));
#628=DIRECTION('ref_axis',(1.,0.,0.));
#629=DIRECTION('center_axis',(0.,0.,1.));
#630=DIRECTION('ref_axis',(1.,0.,0.));
#631=DIRECTION('',(0.,0.,1.));
#632=DIRECTION('center_axis',(8.6204229242659E-5,-0.999999996284415,0.));
#633=DIRECTION('ref_axis',(0.999999996284415,8.6204229242659E-5,0.));
#634=DIRECTION('',(-0.999999996284415,-8.6204229242659E-5,0.));
#635=DIRECTION('',(0.999999996284415,8.6204229242659E-5,0.));
#636=DIRECTION('center_axis',(0.,0.,1.));
#637=DIRECTION('ref_axis',(1.,0.,0.));
#638=DIRECTION('center_axis',(0.,0.,1.));
#639=DIRECTION('ref_axis',(0.99999998087016,0.000195600817740558,0.));
#640=DIRECTION('center_axis',(0.,0.,1.));
#641=DIRECTION('ref_axis',(0.99999998087016,0.000195600817740558,0.));
#642=DIRECTION('',(0.,0.,1.));
#643=DIRECTION('center_axis',(0.,0.,-1.));
#644=DIRECTION('ref_axis',(0.99999998087016,0.000195600817740558,0.));
#645=DIRECTION('',(0.,0.,1.));
#646=DIRECTION('center_axis',(0.999999996284415,8.6204229240994E-5,0.));
#647=DIRECTION('ref_axis',(-8.6204229240994E-5,0.999999996284415,0.));
#648=DIRECTION('',(8.6204229240994E-5,-0.999999996284415,0.));
#649=DIRECTION('',(-8.6204229240994E-5,0.999999996284415,0.));
#650=DIRECTION('',(0.,0.,1.));
#651=DIRECTION('center_axis',(0.,0.,1.));
#652=DIRECTION('ref_axis',(1.,0.,0.));
#653=DIRECTION('center_axis',(0.,0.,-1.));
#654=DIRECTION('ref_axis',(1.,0.,0.));
#655=DIRECTION('center_axis',(0.,0.,1.));
#656=DIRECTION('ref_axis',(1.,0.,0.));
#657=DIRECTION('',(0.,0.,1.));
#658=DIRECTION('center_axis',(-8.6204229242659E-5,0.999999996284415,0.));
#659=DIRECTION('ref_axis',(-0.999999996284415,-8.6204229242659E-5,0.));
#660=DIRECTION('',(0.999999996284415,8.6204229242659E-5,0.));
#661=DIRECTION('',(-0.999999996284415,-8.6204229242659E-5,0.));
#662=DIRECTION('center_axis',(0.,0.,1.));
#663=DIRECTION('ref_axis',(1.,0.,0.));
#664=DIRECTION('center_axis',(0.,0.,1.));
#665=DIRECTION('ref_axis',(1.,0.,0.));
#666=DIRECTION('center_axis',(0.,0.,-1.));
#667=DIRECTION('ref_axis',(1.,0.,0.));
#668=DIRECTION('',(0.,0.,-1.));
#669=DIRECTION('center_axis',(0.,0.,1.));
#670=DIRECTION('ref_axis',(1.,0.,0.));
#671=DIRECTION('center_axis',(0.,0.,1.));
#672=DIRECTION('ref_axis',(1.,0.,0.));
#673=DIRECTION('center_axis',(0.,0.,-1.));
#674=DIRECTION('ref_axis',(1.,0.,0.));
#675=DIRECTION('',(0.,0.,-1.));
#676=DIRECTION('center_axis',(0.,0.,1.));
#677=DIRECTION('ref_axis',(1.,0.,0.));
#678=DIRECTION('center_axis',(0.,0.,1.));
#679=DIRECTION('ref_axis',(1.,0.,0.));
#680=DIRECTION('center_axis',(0.,0.,-1.));
#681=DIRECTION('ref_axis',(1.,0.,0.));
#682=DIRECTION('',(0.,0.,-1.));
#683=DIRECTION('center_axis',(0.,0.,1.));
#684=DIRECTION('ref_axis',(1.,0.,0.));
#685=DIRECTION('center_axis',(0.,0.,1.));
#686=DIRECTION('ref_axis',(1.,0.,0.));
#687=DIRECTION('center_axis',(0.,0.,-1.));
#688=DIRECTION('ref_axis',(1.,0.,0.));
#689=DIRECTION('',(0.,0.,-1.));
#690=DIRECTION('center_axis',(0.,0.,1.));
#691=DIRECTION('ref_axis',(1.,0.,0.));
#692=DIRECTION('center_axis',(0.,0.,-1.));
#693=DIRECTION('ref_axis',(1.,0.,0.));
#694=DIRECTION('center_axis',(0.,0.,-1.));
#695=DIRECTION('ref_axis',(1.,0.,0.));
#696=DIRECTION('',(0.,0.,-1.));
#697=DIRECTION('center_axis',(0.,0.,1.));
#698=DIRECTION('ref_axis',(1.,0.,0.));
#699=DIRECTION('center_axis',(0.,0.,1.));
#700=DIRECTION('ref_axis',(-0.9741633,-0.225844780619591,0.));
#701=DIRECTION('center_axis',(0.,0.,-1.));
#702=DIRECTION('ref_axis',(-0.9741633,-0.225844780619591,0.));
#703=DIRECTION('',(0.,0.,1.));
#704=DIRECTION('center_axis',(0.,0.,-1.));
#705=DIRECTION('ref_axis',(-0.9741633,-0.225844780619591,0.));
#706=DIRECTION('',(0.,0.,1.));
#707=DIRECTION('center_axis',(0.,0.,1.));
#708=DIRECTION('ref_axis',(1.,0.,0.));
#709=DIRECTION('center_axis',(0.,0.,1.));
#710=DIRECTION('ref_axis',(1.,0.,0.));
#711=DIRECTION('center_axis',(0.,0.,1.));
#712=DIRECTION('ref_axis',(1.,0.,0.));
#713=DIRECTION('',(0.,0.,1.));
#714=DIRECTION('center_axis',(0.,0.,1.));
#715=DIRECTION('ref_axis',(-0.9741633,0.225844780619589,0.));
#716=DIRECTION('center_axis',(0.,0.,1.));
#717=DIRECTION('ref_axis',(-0.9741633,0.225844780619589,0.));
#718=DIRECTION('center_axis',(0.,0.,1.));
#719=DIRECTION('ref_axis',(-0.9741633,0.225844780619589,0.));
#720=DIRECTION('',(0.,0.,1.));
#721=DIRECTION('center_axis',(0.,0.,1.));
#722=DIRECTION('ref_axis',(1.,0.,0.));
#723=DIRECTION('center_axis',(0.,0.,1.));
#724=DIRECTION('ref_axis',(1.,0.,0.));
#725=DIRECTION('center_axis',(0.,0.,1.));
#726=DIRECTION('ref_axis',(1.,0.,0.));
#727=DIRECTION('',(0.,0.,1.));
#728=DIRECTION('center_axis',(0.,0.,1.));
#729=DIRECTION('ref_axis',(0.9741633,0.225844780619591,0.));
#730=DIRECTION('center_axis',(0.,0.,-1.));
#731=DIRECTION('ref_axis',(0.9741633,0.225844780619591,0.));
#732=DIRECTION('center_axis',(0.,0.,-1.));
#733=DIRECTION('ref_axis',(0.9741633,0.225844780619591,0.));
#734=DIRECTION('',(0.,0.,1.));
#735=DIRECTION('center_axis',(0.,0.,1.));
#736=DIRECTION('ref_axis',(1.,0.,0.));
#737=DIRECTION('center_axis',(0.,0.,1.));
#738=DIRECTION('ref_axis',(1.,0.,0.));
#739=DIRECTION('center_axis',(0.,0.,1.));
#740=DIRECTION('ref_axis',(1.,0.,0.));
#741=DIRECTION('',(0.,0.,1.));
#742=DIRECTION('center_axis',(0.,0.,1.));
#743=DIRECTION('ref_axis',(0.9741633,-0.225844780619589,0.));
#744=DIRECTION('center_axis',(0.,0.,1.));
#745=DIRECTION('ref_axis',(0.9741633,-0.225844780619589,0.));
#746=DIRECTION('center_axis',(0.,0.,1.));
#747=DIRECTION('ref_axis',(0.9741633,-0.225844780619589,0.));
#748=DIRECTION('',(0.,0.,1.));
#749=DIRECTION('center_axis',(0.,0.,1.));
#750=DIRECTION('ref_axis',(1.,0.,0.));
#751=DIRECTION('center_axis',(0.,0.,1.));
#752=DIRECTION('ref_axis',(1.,0.,0.));
#753=DIRECTION('center_axis',(0.,0.,1.));
#754=DIRECTION('ref_axis',(1.,0.,0.));
#755=DIRECTION('center_axis',(0.,0.,1.));
#756=DIRECTION('ref_axis',(1.,0.,0.));
#757=DIRECTION('center_axis',(0.,0.,1.));
#758=DIRECTION('ref_axis',(1.,0.,0.));
#759=CARTESIAN_POINT('',(0.,0.,0.));
#760=CARTESIAN_POINT('Origin',(19.4452714313144,-19.4456015325447,70.0532410704535));
#761=CARTESIAN_POINT('',(20.9952714313144,-19.4456015325447,-8.88178419700125E-15));
#762=CARTESIAN_POINT('Origin',(19.4452714313144,-19.4456015325447,0.));
#763=CARTESIAN_POINT('',(20.9952714313144,-19.4456015325447,3.));
#764=CARTESIAN_POINT('',(20.9952714313144,-19.4456015325447,70.0532410704535));
#765=CARTESIAN_POINT('Origin',(19.4452714313144,-19.4456015325447,3.));
#766=CARTESIAN_POINT('Origin',(-19.4452714313144,19.4456015325448,70.0532410704535));
#767=CARTESIAN_POINT('',(-17.8952714313144,19.4456015325448,-8.88178419700125E-15));
#768=CARTESIAN_POINT('Origin',(-19.4452714313144,19.4456015325448,0.));
#769=CARTESIAN_POINT('',(-17.8952714313144,19.4456015325448,3.));
#770=CARTESIAN_POINT('',(-17.8952714313144,19.4456015325448,70.0532410704535));
#771=CARTESIAN_POINT('Origin',(-19.4452714313144,19.4456015325448,3.));
#772=CARTESIAN_POINT('Origin',(6.97030051715716,-6.69688116961227,3.));
#773=CARTESIAN_POINT('',(17.8083003199312,-6.69476124794762,3.));
#774=CARTESIAN_POINT('',(6.96954690845763,4.14111881429025,3.));
#775=CARTESIAN_POINT('Origin',(6.97030051715716,-6.69688116961227,3.));
#776=CARTESIAN_POINT('',(17.8083003199312,-6.69476124794762,5.));
#777=CARTESIAN_POINT('',(17.8083003199312,-6.69476124794762,3.));
#778=CARTESIAN_POINT('',(6.96954690845763,4.14111881429025,5.));
#779=CARTESIAN_POINT('Origin',(6.97030051715716,-6.69688116961227,5.));
#780=CARTESIAN_POINT('',(6.96954690845763,4.14111881429025,3.));
#781=CARTESIAN_POINT('Origin',(6.9693745,6.14111879699048,3.));
#782=CARTESIAN_POINT('',(6.9693745,6.14111879699048,3.));
#783=CARTESIAN_POINT('',(6.97047738810357,-6.65277901024505,3.));
#784=CARTESIAN_POINT('',(6.9693745,6.14111879699048,5.));
#785=CARTESIAN_POINT('',(6.9693745,6.14111879699048,5.));
#786=CARTESIAN_POINT('',(6.9693745,6.14111879699048,3.));
#787=CARTESIAN_POINT('Origin',(6.97030051715716,-6.69688116961227,3.));
#788=CARTESIAN_POINT('',(19.8083003125,-6.69458883948914,3.));
#789=CARTESIAN_POINT('Origin',(6.97030051715716,-6.69688116961227,3.));
#790=CARTESIAN_POINT('',(19.8083003125,-6.69458883948914,5.));
#791=CARTESIAN_POINT('Origin',(6.97030051715716,-6.69688116961227,5.));
#792=CARTESIAN_POINT('',(19.8083003125,-6.69458883948914,3.));
#793=CARTESIAN_POINT('Origin',(17.8083003199312,-6.69476124794762,3.));
#794=CARTESIAN_POINT('',(18.6262362813631,-6.69469073840824,3.));
#795=CARTESIAN_POINT('',(17.8083003199312,-6.69476124794762,5.));
#796=CARTESIAN_POINT('Origin',(13.38883740625,-0.276821208779949,5.));
#797=CARTESIAN_POINT('Origin',(-6.97030051715716,6.69688116961228,3.));
#798=CARTESIAN_POINT('',(-17.8083003199312,6.69476124794763,3.));
#799=CARTESIAN_POINT('',(-6.96954690845763,-4.14111881429025,3.));
#800=CARTESIAN_POINT('Origin',(-6.97030051715716,6.69688116961228,3.));
#801=CARTESIAN_POINT('',(-17.8083003199312,6.69476124794763,5.));
#802=CARTESIAN_POINT('',(-17.8083003199312,6.69476124794763,3.));
#803=CARTESIAN_POINT('',(-6.96954690845763,-4.14111881429025,5.));
#804=CARTESIAN_POINT('Origin',(-6.97030051715716,6.69688116961228,5.));
#805=CARTESIAN_POINT('',(-6.96954690845763,-4.14111881429025,3.));
#806=CARTESIAN_POINT('Origin',(-6.9693745,-6.14111879699047,3.));
#807=CARTESIAN_POINT('',(-6.9693745,-6.14111879699047,3.));
#808=CARTESIAN_POINT('',(-6.96880095051645,-12.794498642426,3.));
#809=CARTESIAN_POINT('',(-6.9693745,-6.14111879699047,5.));
#810=CARTESIAN_POINT('',(-6.9693745,-6.14111879699047,5.));
#811=CARTESIAN_POINT('',(-6.9693745,-6.14111879699047,3.));
#812=CARTESIAN_POINT('Origin',(-6.97030051715716,6.69688116961228,3.));
#813=CARTESIAN_POINT('',(-19.8083003125,6.69458883948914,3.));
#814=CARTESIAN_POINT('Origin',(-6.97030051715716,6.69688116961228,3.));
#815=CARTESIAN_POINT('',(-19.8083003125,6.69458883948914,5.));
#816=CARTESIAN_POINT('Origin',(-6.97030051715716,6.69688116961228,5.));
#817=CARTESIAN_POINT('',(-19.8083003125,6.69458883948914,3.));
#818=CARTESIAN_POINT('Origin',(-17.8083003199312,6.69476124794763,3.));
#819=CARTESIAN_POINT('',(0.817358712364216,6.69636685853461,3.));
#820=CARTESIAN_POINT('',(-17.8083003199312,6.69476124794763,5.));
#821=CARTESIAN_POINT('Origin',(-13.38883740625,0.276821208779951,5.));
#822=CARTESIAN_POINT('Origin',(-1.46957615897682E-15,-8.,-66.9389489803434));
#823=CARTESIAN_POINT('',(-1.,-8.,3.));
#824=CARTESIAN_POINT('Origin',(-1.46957615897682E-15,-8.,3.));
#825=CARTESIAN_POINT('',(-1.,-8.,0.));
#826=CARTESIAN_POINT('',(-1.,-8.,-66.9389489803434));
#827=CARTESIAN_POINT('Origin',(-1.46957615897682E-15,-8.,0.));
#828=CARTESIAN_POINT('Origin',(4.89858719658941E-16,8.,-66.9389489803434));
#829=CARTESIAN_POINT('',(-1.,8.,3.));
#830=CARTESIAN_POINT('Origin',(4.89858719658941E-16,8.,3.));
#831=CARTESIAN_POINT('',(-1.,8.,0.));
#832=CARTESIAN_POINT('',(-1.,8.,-66.9389489803434));
#833=CARTESIAN_POINT('Origin',(4.89858719658941E-16,8.,0.));
#834=CARTESIAN_POINT('Origin',(-8.,0.,-66.9389489803434));
#835=CARTESIAN_POINT('',(-9.,-1.22464679914735E-16,3.));
#836=CARTESIAN_POINT('Origin',(-8.,0.,3.));
#837=CARTESIAN_POINT('',(-9.,-1.22464679914735E-16,0.));
#838=CARTESIAN_POINT('',(-9.,-1.22464679914735E-16,-66.9389489803434));
#839=CARTESIAN_POINT('Origin',(-8.,0.,0.));
#840=CARTESIAN_POINT('Origin',(8.,0.,-66.9389489803434));
#841=CARTESIAN_POINT('',(7.,-1.22464679914735E-16,3.));
#842=CARTESIAN_POINT('Origin',(8.,0.,3.));
#843=CARTESIAN_POINT('',(7.,-1.22464679914735E-16,0.));
#844=CARTESIAN_POINT('',(7.,-1.22464679914735E-16,-66.9389489803434));
#845=CARTESIAN_POINT('Origin',(8.,0.,0.));
#846=CARTESIAN_POINT('Origin',(0.,0.,3.));
#847=CARTESIAN_POINT('',(-4.25,5.20474889637625E-16,3.));
#848=CARTESIAN_POINT('Origin',(0.,0.,3.));
#849=CARTESIAN_POINT('',(-4.25,5.20474889637625E-16,0.));
#850=CARTESIAN_POINT('',(-4.25,5.20474889637625E-16,3.));
#851=CARTESIAN_POINT('Origin',(0.,0.,0.));
#852=CARTESIAN_POINT('Origin',(1.22752616260414,-23.6691056243079,0.));
#853=CARTESIAN_POINT('',(0.517923528272495,-9.98657875445148,0.));
#854=CARTESIAN_POINT('',(14.5744549313144,-20.5748254356427,0.));
#855=CARTESIAN_POINT('Origin',(1.22752616260414,-23.6691056243079,0.));
#856=CARTESIAN_POINT('',(14.5744549313144,-20.5748254356427,3.));
#857=CARTESIAN_POINT('',(14.5744549313144,-20.5748254356427,0.));
#858=CARTESIAN_POINT('',(0.517923528272495,-9.98657875445148,3.));
#859=CARTESIAN_POINT('Origin',(1.22752616260414,-23.6691056243079,3.));
#860=CARTESIAN_POINT('',(0.517923528272495,-9.98657875445148,0.));
#861=CARTESIAN_POINT('Origin',(0.,0.,0.));
#862=CARTESIAN_POINT('',(2.61814291561003E-9,-10.0000023339392,0.));
#863=CARTESIAN_POINT('Origin',(0.,0.,0.));
#864=CARTESIAN_POINT('',(2.61814347979339E-9,-10.0000023339392,3.));
#865=CARTESIAN_POINT('Origin',(0.,0.,3.));
#866=CARTESIAN_POINT('',(2.61814291561003E-9,-10.0000023339392,0.));
#867=CARTESIAN_POINT('Origin',(-0.018652680169123,14.94183871369,0.));
#868=CARTESIAN_POINT('',(-24.3160879313144,20.5748254356427,0.));
#869=CARTESIAN_POINT('Origin',(-0.018652680169123,14.94183871369,0.));
#870=CARTESIAN_POINT('',(-24.3160879313144,20.5748254356427,3.));
#871=CARTESIAN_POINT('Origin',(-0.018652680169123,14.94183871369,3.));
#872=CARTESIAN_POINT('',(-24.3160879313144,20.5748254356427,0.));
#873=CARTESIAN_POINT('Origin',(-19.4452714313144,19.4456015325448,0.));
#874=CARTESIAN_POINT('',(-14.5744549313144,20.5748254356427,0.));
#875=CARTESIAN_POINT('Origin',(-19.4452714313144,19.4456015325448,0.));
#876=CARTESIAN_POINT('',(-14.5744549313144,20.5748254356427,3.));
#877=CARTESIAN_POINT('Origin',(-19.4452714313144,19.4456015325448,3.));
#878=CARTESIAN_POINT('',(-14.5744549313144,20.5748254356427,0.));
#879=CARTESIAN_POINT('Origin',(-1.22752616260414,23.6691056243079,0.));
#880=CARTESIAN_POINT('',(-0.517923528272493,9.98657875445149,0.));
#881=CARTESIAN_POINT('Origin',(-1.22752616260414,23.6691056243079,0.));
#882=CARTESIAN_POINT('',(-0.517923528272493,9.98657875445149,3.));
#883=CARTESIAN_POINT('Origin',(-1.22752616260414,23.6691056243079,3.));
#884=CARTESIAN_POINT('',(-0.517923528272493,9.98657875445149,0.));
#885=CARTESIAN_POINT('Origin',(0.,0.,0.));
#886=CARTESIAN_POINT('',(-6.10899975526945E-9,10.0000023339379,0.));
#887=CARTESIAN_POINT('Origin',(0.,0.,0.));
#888=CARTESIAN_POINT('',(-6.10899997255387E-9,10.0000023339379,3.));
#889=CARTESIAN_POINT('Origin',(0.,0.,3.));
#890=CARTESIAN_POINT('',(-6.10899975526945E-9,10.0000023339379,0.));
#891=CARTESIAN_POINT('Origin',(0.0186526801691314,-14.94183871369,0.));
#892=CARTESIAN_POINT('',(24.3160879313144,-20.5748254356427,0.));
#893=CARTESIAN_POINT('Origin',(0.0186526801691314,-14.94183871369,0.));
#894=CARTESIAN_POINT('',(24.3160879313144,-20.5748254356427,3.));
#895=CARTESIAN_POINT('Origin',(0.0186526801691314,-14.94183871369,3.));
#896=CARTESIAN_POINT('',(24.3160879313144,-20.5748254356427,0.));
#897=CARTESIAN_POINT('Origin',(19.4452714313144,-19.4456015325447,0.));
#898=CARTESIAN_POINT('Origin',(19.4452714313144,-19.4456015325447,0.));
#899=CARTESIAN_POINT('Origin',(19.4452714313144,-19.4456015325447,3.));
#900=CARTESIAN_POINT('Origin',(19.4452714313144,-19.4456015325447,3.));
#901=CARTESIAN_POINT('Origin',(19.4452714313144,-19.4456015325447,0.));
#902=UNCERTAINTY_MEASURE_WITH_UNIT(LENGTH_MEASURE(0.01),#906,
'DISTANCE_ACCURACY_VALUE',
'Maximum model space distance between geometric entities at asserted c
onnectivities');
#903=UNCERTAINTY_MEASURE_WITH_UNIT(LENGTH_MEASURE(0.01),#906,
'DISTANCE_ACCURACY_VALUE',
'Maximum model space distance between geometric entities at asserted c
onnectivities');
#904=(
GEOMETRIC_REPRESENTATION_CONTEXT(3)
GLOBAL_UNCERTAINTY_ASSIGNED_CONTEXT((#902))
GLOBAL_UNIT_ASSIGNED_CONTEXT((#906,#908,#909))
REPRESENTATION_CONTEXT('','3D')
);
#905=(
GEOMETRIC_REPRESENTATION_CONTEXT(3)
GLOBAL_UNCERTAINTY_ASSIGNED_CONTEXT((#903))
GLOBAL_UNIT_ASSIGNED_CONTEXT((#906,#908,#909))
REPRESENTATION_CONTEXT('','3D')
);
#906=(
LENGTH_UNIT()
NAMED_UNIT(*)
SI_UNIT(.MILLI.,.METRE.)
);
#907=(
LENGTH_UNIT()
NAMED_UNIT(*)
SI_UNIT(.CENTI.,.METRE.)
);
#908=(
NAMED_UNIT(*)
PLANE_ANGLE_UNIT()
SI_UNIT($,.RADIAN.)
);
#909=(
NAMED_UNIT(*)
SI_UNIT($,.STERADIAN.)
SOLID_ANGLE_UNIT()
);
#910=SHAPE_DEFINITION_REPRESENTATION(#911,#912);
#911=PRODUCT_DEFINITION_SHAPE('',$,#914);
#912=SHAPE_REPRESENTATION('',(#530),#904);
#913=PRODUCT_DEFINITION_CONTEXT('part definition',#918,'design');
#914=PRODUCT_DEFINITION('rotor','rotor',#915,#913);
#915=PRODUCT_DEFINITION_FORMATION('',$,#920);
#916=PRODUCT_RELATED_PRODUCT_CATEGORY('rotor','rotor',(#920));
#917=APPLICATION_PROTOCOL_DEFINITION('international standard',
'automotive_design',2009,#918);
#918=APPLICATION_CONTEXT(
'Core Data for Automotive Mechanical Design Process');
#919=PRODUCT_CONTEXT('part definition',#918,'mechanical');
#920=PRODUCT('rotor','rotor',$,(#919));
#921=PRESENTATION_STYLE_ASSIGNMENT((#922));
#922=SURFACE_STYLE_USAGE(.BOTH.,#925);
#923=SURFACE_STYLE_RENDERING_WITH_PROPERTIES($,#929,(#924));
#924=SURFACE_STYLE_TRANSPARENT(0.);
#925=SURFACE_SIDE_STYLE('',(#926,#923));
#926=SURFACE_STYLE_FILL_AREA(#927);
#927=FILL_AREA_STYLE('',(#928));
#928=FILL_AREA_STYLE_COLOUR('',#929);
#929=COLOUR_RGB('',0.996078431372549,0.996078431372549,1.);
ENDSEC;
END-ISO-10303-21;
