ISO-10303-21;
HEADER;
/* Generated by software containing ST-Developer
 * from STEP Tools, Inc. (www.steptools.com) 
 */

FILE_DESCRIPTION(
/* description */ (''),
/* implementation_level */ '2;1');

FILE_NAME(
/* name */ 'servohorn_support_forR0.stp',
/* time_stamp */ '2026-05-04T17:27:04+09:00',
/* author */ ('kshau'),
/* organization */ (''),
/* preprocessor_version */ 'ST-DEVELOPER v20',
/* originating_system */ 'Autodesk Inventor 2024',
/* authorisation */ '');

FILE_SCHEMA (('AUTOMOTIVE_DESIGN { 1 0 10303 214 3 1 1 }'));
ENDSEC;

DATA;
#10=MECHANICAL_DESIGN_GEOMETRIC_PRESENTATION_REPRESENTATION('',(#13),#1688);
#11=SHAPE_REPRESENTATION_RELATIONSHIP('SRR','None',#1695,#12);
#12=ADVANCED_BREP_SHAPE_REPRESENTATION('',(#14),#1687);
#13=STYLED_ITEM('',(#1704),#14);
#14=MANIFOLD_SOLID_BREP('\X2\30BD30EA30C330C9\X0\1',#913);
#15=B_SPLINE_CURVE_WITH_KNOTS('',3,(#1461,#1462,#1463,#1464,#1465,#1466,
#1467,#1468),.UNSPECIFIED.,.F.,.F.,(4,2,2,4),(-0.238548626654619,-0.224511682898617,
-0.194516695706697,-0.191632652019347),.UNSPECIFIED.);
#16=B_SPLINE_CURVE_WITH_KNOTS('',3,(#1480,#1481,#1482,#1483,#1484,#1485,
#1486,#1487),.UNSPECIFIED.,.F.,.F.,(4,2,2,4),(-0.238548626654379,-0.224511682898402,
-0.194516695706536,-0.191632652019192),.UNSPECIFIED.);
#17=B_SPLINE_CURVE_WITH_KNOTS('',3,(#1494,#1495,#1496,#1497,#1498,#1499,
#1500,#1501),.UNSPECIFIED.,.F.,.F.,(4,2,2,4),(-0.284912154937289,-0.279172459754356,
-0.250270969233493,-0.238548626654268),.UNSPECIFIED.);
#18=B_SPLINE_CURVE_WITH_KNOTS('',3,(#1511,#1512,#1513,#1514,#1515,#1516,
#1517,#1518),.UNSPECIFIED.,.F.,.F.,(4,2,2,4),(-0.284912154937489,-0.279172459754551,
-0.250270969233658,-0.238548626654417),.UNSPECIFIED.);
#19=B_SPLINE_CURVE_WITH_KNOTS('',3,(#1533,#1534,#1535,#1536,#1537,#1538,
#1539,#1540),.UNSPECIFIED.,.F.,.F.,(4,2,2,4),(-0.238548626654542,-0.224511682898552,
-0.194516695706648,-0.191632652019299),.UNSPECIFIED.);
#20=B_SPLINE_CURVE_WITH_KNOTS('',3,(#1547,#1548,#1549,#1550,#1551,#1552,
#1553,#1554),.UNSPECIFIED.,.F.,.F.,(4,2,2,4),(-0.284912154937458,-0.279172459754522,
-0.250270969233633,-0.238548626654397),.UNSPECIFIED.);
#21=B_SPLINE_CURVE_WITH_KNOTS('',3,(#1569,#1570,#1571,#1572,#1573,#1574,
#1575,#1576),.UNSPECIFIED.,.F.,.F.,(4,2,2,4),(-0.238548626654329,-0.224511682898354,
-0.194516695706476,-0.19163265201913),.UNSPECIFIED.);
#22=B_SPLINE_CURVE_WITH_KNOTS('',3,(#1585,#1586,#1587,#1588,#1589,#1590,
#1591,#1592),.UNSPECIFIED.,.F.,.F.,(4,2,2,4),(-0.284912154937585,-0.279172459754646,
-0.25027096923374,-0.238548626654496),.UNSPECIFIED.);
#23=FACE_BOUND('',#238,.T.);
#24=FACE_BOUND('',#242,.T.);
#25=FACE_BOUND('',#243,.T.);
#26=FACE_BOUND('',#244,.T.);
#27=FACE_BOUND('',#245,.T.);
#28=FACE_BOUND('',#246,.T.);
#29=FACE_BOUND('',#269,.T.);
#30=FACE_BOUND('',#271,.T.);
#31=FACE_BOUND('',#273,.T.);
#32=FACE_BOUND('',#275,.T.);
#33=FACE_BOUND('',#277,.T.);
#34=PLANE('',#943);
#35=PLANE('',#951);
#36=PLANE('',#990);
#37=PLANE('',#993);
#38=PLANE('',#1000);
#39=PLANE('',#1008);
#40=PLANE('',#1024);
#41=PLANE('',#1028);
#42=PLANE('',#1032);
#43=PLANE('',#1036);
#44=PLANE('',#1040);
#45=PLANE('',#1043);
#46=PLANE('',#1047);
#47=PLANE('',#1051);
#48=PLANE('',#1055);
#49=LINE('',#1366,#103);
#50=LINE('',#1380,#104);
#51=LINE('',#1390,#105);
#52=LINE('',#1398,#106);
#53=LINE('',#1406,#107);
#54=LINE('',#1414,#108);
#55=LINE('',#1422,#109);
#56=LINE('',#1430,#110);
#57=LINE('',#1438,#111);
#58=LINE('',#1445,#112);
#59=LINE('',#1458,#113);
#60=LINE('',#1460,#114);
#61=LINE('',#1471,#115);
#62=LINE('',#1477,#116);
#63=LINE('',#1479,#117);
#64=LINE('',#1490,#118);
#65=LINE('',#1503,#119);
#66=LINE('',#1507,#120);
#67=LINE('',#1508,#121);
#68=LINE('',#1520,#122);
#69=LINE('',#1524,#123);
#70=LINE('',#1525,#124);
#71=LINE('',#1530,#125);
#72=LINE('',#1532,#126);
#73=LINE('',#1543,#127);
#74=LINE('',#1556,#128);
#75=LINE('',#1560,#129);
#76=LINE('',#1561,#130);
#77=LINE('',#1566,#131);
#78=LINE('',#1568,#132);
#79=LINE('',#1579,#133);
#80=LINE('',#1594,#134);
#81=LINE('',#1598,#135);
#82=LINE('',#1599,#136);
#83=LINE('',#1602,#137);
#84=LINE('',#1606,#138);
#85=LINE('',#1610,#139);
#86=LINE('',#1614,#140);
#87=LINE('',#1631,#141);
#88=LINE('',#1639,#142);
#89=LINE('',#1647,#143);
#90=LINE('',#1655,#144);
#91=LINE('',#1658,#145);
#92=LINE('',#1659,#146);
#93=LINE('',#1662,#147);
#94=LINE('',#1664,#148);
#95=LINE('',#1666,#149);
#96=LINE('',#1669,#150);
#97=LINE('',#1671,#151);
#98=LINE('',#1673,#152);
#99=LINE('',#1676,#153);
#100=LINE('',#1678,#154);
#101=LINE('',#1680,#155);
#102=LINE('',#1683,#156);
#103=VECTOR('',#1071,11.1);
#104=VECTOR('',#1090,14.);
#105=VECTOR('',#1099,10.);
#106=VECTOR('',#1106,10.);
#107=VECTOR('',#1113,10.);
#108=VECTOR('',#1120,10.);
#109=VECTOR('',#1127,10.);
#110=VECTOR('',#1134,10.);
#111=VECTOR('',#1141,10.);
#112=VECTOR('',#1148,10.);
#113=VECTOR('',#1161,10.);
#114=VECTOR('',#1162,10.);
#115=VECTOR('',#1165,10.);
#116=VECTOR('',#1172,10.);
#117=VECTOR('',#1173,10.);
#118=VECTOR('',#1176,10.);
#119=VECTOR('',#1181,10.);
#120=VECTOR('',#1186,10.);
#121=VECTOR('',#1187,10.);
#122=VECTOR('',#1190,10.);
#123=VECTOR('',#1195,10.);
#124=VECTOR('',#1196,10.);
#125=VECTOR('',#1201,10.);
#126=VECTOR('',#1202,10.);
#127=VECTOR('',#1205,10.);
#128=VECTOR('',#1210,10.);
#129=VECTOR('',#1215,10.);
#130=VECTOR('',#1216,10.);
#131=VECTOR('',#1221,10.);
#132=VECTOR('',#1222,10.);
#133=VECTOR('',#1225,10.);
#134=VECTOR('',#1232,10.);
#135=VECTOR('',#1237,10.);
#136=VECTOR('',#1238,10.);
#137=VECTOR('',#1241,1.6);
#138=VECTOR('',#1246,1.6);
#139=VECTOR('',#1251,1.6);
#140=VECTOR('',#1256,1.6);
#141=VECTOR('',#1281,10.);
#142=VECTOR('',#1290,10.);
#143=VECTOR('',#1299,10.);
#144=VECTOR('',#1308,10.);
#145=VECTOR('',#1313,10.);
#146=VECTOR('',#1314,10.);
#147=VECTOR('',#1319,10.);
#148=VECTOR('',#1322,10.);
#149=VECTOR('',#1325,10.);
#150=VECTOR('',#1330,10.);
#151=VECTOR('',#1333,10.);
#152=VECTOR('',#1336,10.);
#153=VECTOR('',#1341,10.);
#154=VECTOR('',#1344,10.);
#155=VECTOR('',#1347,10.);
#156=VECTOR('',#1352,10.);
#157=CYLINDRICAL_SURFACE('',#941,11.1);
#158=CYLINDRICAL_SURFACE('',#950,14.);
#159=CYLINDRICAL_SURFACE('',#980,2.);
#160=CYLINDRICAL_SURFACE('',#982,14.9);
#161=CYLINDRICAL_SURFACE('',#984,2.);
#162=CYLINDRICAL_SURFACE('',#986,14.9);
#163=CYLINDRICAL_SURFACE('',#988,2.);
#164=CYLINDRICAL_SURFACE('',#991,2.);
#165=CYLINDRICAL_SURFACE('',#994,2.);
#166=CYLINDRICAL_SURFACE('',#996,14.9);
#167=CYLINDRICAL_SURFACE('',#998,2.);
#168=CYLINDRICAL_SURFACE('',#1001,2.);
#169=CYLINDRICAL_SURFACE('',#1003,14.9);
#170=CYLINDRICAL_SURFACE('',#1006,2.);
#171=CYLINDRICAL_SURFACE('',#1009,1.6);
#172=CYLINDRICAL_SURFACE('',#1011,1.6);
#173=CYLINDRICAL_SURFACE('',#1013,1.6);
#174=CYLINDRICAL_SURFACE('',#1015,1.6);
#175=CYLINDRICAL_SURFACE('',#1041,2.9);
#176=CYLINDRICAL_SURFACE('',#1042,19.);
#177=CYLINDRICAL_SURFACE('',#1044,19.);
#178=CYLINDRICAL_SURFACE('',#1045,2.9);
#179=CYLINDRICAL_SURFACE('',#1046,19.);
#180=CYLINDRICAL_SURFACE('',#1048,19.);
#181=CYLINDRICAL_SURFACE('',#1049,2.9);
#182=CYLINDRICAL_SURFACE('',#1050,19.);
#183=CYLINDRICAL_SURFACE('',#1052,19.);
#184=CYLINDRICAL_SURFACE('',#1053,2.9);
#185=CYLINDRICAL_SURFACE('',#1054,19.);
#186=CYLINDRICAL_SURFACE('',#1056,19.);
#187=FACE_OUTER_BOUND('',#235,.T.);
#188=FACE_OUTER_BOUND('',#236,.T.);
#189=FACE_OUTER_BOUND('',#237,.T.);
#190=FACE_OUTER_BOUND('',#239,.T.);
#191=FACE_OUTER_BOUND('',#240,.T.);
#192=FACE_OUTER_BOUND('',#241,.T.);
#193=FACE_OUTER_BOUND('',#247,.T.);
#194=FACE_OUTER_BOUND('',#248,.T.);
#195=FACE_OUTER_BOUND('',#249,.T.);
#196=FACE_OUTER_BOUND('',#250,.T.);
#197=FACE_OUTER_BOUND('',#251,.T.);
#198=FACE_OUTER_BOUND('',#252,.T.);
#199=FACE_OUTER_BOUND('',#253,.T.);
#200=FACE_OUTER_BOUND('',#254,.T.);
#201=FACE_OUTER_BOUND('',#255,.T.);
#202=FACE_OUTER_BOUND('',#256,.T.);
#203=FACE_OUTER_BOUND('',#257,.T.);
#204=FACE_OUTER_BOUND('',#258,.T.);
#205=FACE_OUTER_BOUND('',#259,.T.);
#206=FACE_OUTER_BOUND('',#260,.T.);
#207=FACE_OUTER_BOUND('',#261,.T.);
#208=FACE_OUTER_BOUND('',#262,.T.);
#209=FACE_OUTER_BOUND('',#263,.T.);
#210=FACE_OUTER_BOUND('',#264,.T.);
#211=FACE_OUTER_BOUND('',#265,.T.);
#212=FACE_OUTER_BOUND('',#266,.T.);
#213=FACE_OUTER_BOUND('',#267,.T.);
#214=FACE_OUTER_BOUND('',#268,.T.);
#215=FACE_OUTER_BOUND('',#270,.T.);
#216=FACE_OUTER_BOUND('',#272,.T.);
#217=FACE_OUTER_BOUND('',#274,.T.);
#218=FACE_OUTER_BOUND('',#276,.T.);
#219=FACE_OUTER_BOUND('',#278,.T.);
#220=FACE_OUTER_BOUND('',#279,.T.);
#221=FACE_OUTER_BOUND('',#280,.T.);
#222=FACE_OUTER_BOUND('',#281,.T.);
#223=FACE_OUTER_BOUND('',#282,.T.);
#224=FACE_OUTER_BOUND('',#283,.T.);
#225=FACE_OUTER_BOUND('',#284,.T.);
#226=FACE_OUTER_BOUND('',#285,.T.);
#227=FACE_OUTER_BOUND('',#286,.T.);
#228=FACE_OUTER_BOUND('',#287,.T.);
#229=FACE_OUTER_BOUND('',#288,.T.);
#230=FACE_OUTER_BOUND('',#289,.T.);
#231=FACE_OUTER_BOUND('',#290,.T.);
#232=FACE_OUTER_BOUND('',#291,.T.);
#233=FACE_OUTER_BOUND('',#292,.T.);
#234=FACE_OUTER_BOUND('',#293,.T.);
#235=EDGE_LOOP('',(#592,#593,#594,#595,#596));
#236=EDGE_LOOP('',(#597,#598,#599,#600,#601));
#237=EDGE_LOOP('',(#602));
#238=EDGE_LOOP('',(#603));
#239=EDGE_LOOP('',(#604,#605,#606,#607,#608));
#240=EDGE_LOOP('',(#609,#610,#611,#612,#613));
#241=EDGE_LOOP('',(#614,#615,#616,#617,#618,#619,#620,#621,#622,#623,#624,
#625,#626,#627,#628,#629,#630,#631,#632,#633,#634,#635,#636,#637,#638,#639,
#640,#641,#642,#643,#644,#645));
#242=EDGE_LOOP('',(#646));
#243=EDGE_LOOP('',(#647));
#244=EDGE_LOOP('',(#648));
#245=EDGE_LOOP('',(#649));
#246=EDGE_LOOP('',(#650));
#247=EDGE_LOOP('',(#651,#652,#653,#654,#655));
#248=EDGE_LOOP('',(#656,#657,#658,#659));
#249=EDGE_LOOP('',(#660,#661,#662,#663,#664));
#250=EDGE_LOOP('',(#665,#666,#667,#668));
#251=EDGE_LOOP('',(#669,#670,#671,#672,#673));
#252=EDGE_LOOP('',(#674,#675,#676,#677));
#253=EDGE_LOOP('',(#678,#679,#680,#681,#682));
#254=EDGE_LOOP('',(#683,#684,#685,#686));
#255=EDGE_LOOP('',(#687,#688,#689,#690,#691));
#256=EDGE_LOOP('',(#692,#693,#694,#695));
#257=EDGE_LOOP('',(#696,#697,#698,#699,#700));
#258=EDGE_LOOP('',(#701,#702,#703,#704));
#259=EDGE_LOOP('',(#705,#706,#707,#708,#709));
#260=EDGE_LOOP('',(#710,#711,#712,#713,#714));
#261=EDGE_LOOP('',(#715,#716,#717,#718,#719));
#262=EDGE_LOOP('',(#720,#721,#722,#723));
#263=EDGE_LOOP('',(#724,#725,#726,#727));
#264=EDGE_LOOP('',(#728,#729,#730,#731));
#265=EDGE_LOOP('',(#732,#733,#734,#735));
#266=EDGE_LOOP('',(#736,#737,#738,#739));
#267=EDGE_LOOP('',(#740,#741,#742,#743,#744,#745,#746,#747,#748,#749,#750,
#751,#752,#753,#754,#755,#756,#757,#758,#759));
#268=EDGE_LOOP('',(#760,#761,#762,#763,#764,#765,#766,#767));
#269=EDGE_LOOP('',(#768));
#270=EDGE_LOOP('',(#769,#770,#771,#772,#773,#774,#775,#776));
#271=EDGE_LOOP('',(#777));
#272=EDGE_LOOP('',(#778,#779,#780,#781,#782,#783,#784,#785));
#273=EDGE_LOOP('',(#786));
#274=EDGE_LOOP('',(#787,#788,#789,#790,#791,#792,#793,#794));
#275=EDGE_LOOP('',(#795));
#276=EDGE_LOOP('',(#796));
#277=EDGE_LOOP('',(#797));
#278=EDGE_LOOP('',(#798,#799,#800,#801));
#279=EDGE_LOOP('',(#802,#803,#804,#805));
#280=EDGE_LOOP('',(#806,#807,#808,#809));
#281=EDGE_LOOP('',(#810,#811,#812,#813));
#282=EDGE_LOOP('',(#814,#815,#816,#817));
#283=EDGE_LOOP('',(#818,#819,#820,#821));
#284=EDGE_LOOP('',(#822,#823,#824,#825));
#285=EDGE_LOOP('',(#826,#827,#828,#829));
#286=EDGE_LOOP('',(#830,#831,#832,#833));
#287=EDGE_LOOP('',(#834,#835,#836,#837));
#288=EDGE_LOOP('',(#838,#839,#840,#841));
#289=EDGE_LOOP('',(#842,#843,#844,#845));
#290=EDGE_LOOP('',(#846,#847,#848,#849));
#291=EDGE_LOOP('',(#850,#851,#852,#853));
#292=EDGE_LOOP('',(#854,#855,#856,#857));
#293=EDGE_LOOP('',(#858,#859,#860,#861));
#294=CIRCLE('',#937,11.6);
#295=CIRCLE('',#938,0.5);
#296=CIRCLE('',#939,11.1);
#297=CIRCLE('',#940,11.1);
#298=CIRCLE('',#942,11.1);
#299=CIRCLE('',#944,14.);
#300=CIRCLE('',#946,14.);
#301=CIRCLE('',#947,14.);
#302=CIRCLE('',#948,0.5);
#303=CIRCLE('',#949,14.5);
#304=CIRCLE('',#952,19.);
#305=CIRCLE('',#953,2.9);
#306=CIRCLE('',#954,19.);
#307=CIRCLE('',#955,2.);
#308=CIRCLE('',#956,14.9);
#309=CIRCLE('',#957,2.);
#310=CIRCLE('',#958,19.);
#311=CIRCLE('',#959,2.9);
#312=CIRCLE('',#960,19.);
#313=CIRCLE('',#961,2.);
#314=CIRCLE('',#962,14.9);
#315=CIRCLE('',#963,2.);
#316=CIRCLE('',#964,19.);
#317=CIRCLE('',#965,2.9);
#318=CIRCLE('',#966,19.);
#319=CIRCLE('',#967,2.);
#320=CIRCLE('',#968,14.9);
#321=CIRCLE('',#969,2.);
#322=CIRCLE('',#970,19.);
#323=CIRCLE('',#971,2.9);
#324=CIRCLE('',#972,19.);
#325=CIRCLE('',#973,2.);
#326=CIRCLE('',#974,14.9);
#327=CIRCLE('',#975,2.);
#328=CIRCLE('',#976,1.6);
#329=CIRCLE('',#977,1.6);
#330=CIRCLE('',#978,1.6);
#331=CIRCLE('',#979,1.6);
#332=CIRCLE('',#981,2.);
#333=CIRCLE('',#983,14.9);
#334=CIRCLE('',#985,2.);
#335=CIRCLE('',#987,14.9);
#336=CIRCLE('',#989,2.);
#337=CIRCLE('',#992,2.);
#338=CIRCLE('',#995,2.);
#339=CIRCLE('',#997,14.9);
#340=CIRCLE('',#999,2.);
#341=CIRCLE('',#1002,2.);
#342=CIRCLE('',#1004,14.9);
#343=CIRCLE('',#1005,14.9);
#344=CIRCLE('',#1007,2.);
#345=CIRCLE('',#1010,1.6);
#346=CIRCLE('',#1012,1.6);
#347=CIRCLE('',#1014,1.6);
#348=CIRCLE('',#1016,1.6);
#349=CIRCLE('',#1018,14.);
#350=CIRCLE('',#1019,1.);
#351=CIRCLE('',#1020,15.);
#352=CIRCLE('',#1021,15.);
#353=CIRCLE('',#1022,15.);
#354=CIRCLE('',#1023,15.);
#355=CIRCLE('',#1025,19.);
#356=CIRCLE('',#1026,2.9);
#357=CIRCLE('',#1027,19.);
#358=CIRCLE('',#1029,19.);
#359=CIRCLE('',#1030,2.9);
#360=CIRCLE('',#1031,19.);
#361=CIRCLE('',#1033,19.);
#362=CIRCLE('',#1034,2.9);
#363=CIRCLE('',#1035,19.);
#364=CIRCLE('',#1037,19.);
#365=CIRCLE('',#1038,2.9);
#366=CIRCLE('',#1039,19.);
#367=VERTEX_POINT('',#1357);
#368=VERTEX_POINT('',#1359);
#369=VERTEX_POINT('',#1361);
#370=VERTEX_POINT('',#1365);
#371=VERTEX_POINT('',#1369);
#372=VERTEX_POINT('',#1372);
#373=VERTEX_POINT('',#1373);
#374=VERTEX_POINT('',#1376);
#375=VERTEX_POINT('',#1382);
#376=VERTEX_POINT('',#1383);
#377=VERTEX_POINT('',#1385);
#378=VERTEX_POINT('',#1387);
#379=VERTEX_POINT('',#1389);
#380=VERTEX_POINT('',#1391);
#381=VERTEX_POINT('',#1393);
#382=VERTEX_POINT('',#1395);
#383=VERTEX_POINT('',#1397);
#384=VERTEX_POINT('',#1399);
#385=VERTEX_POINT('',#1401);
#386=VERTEX_POINT('',#1403);
#387=VERTEX_POINT('',#1405);
#388=VERTEX_POINT('',#1407);
#389=VERTEX_POINT('',#1409);
#390=VERTEX_POINT('',#1411);
#391=VERTEX_POINT('',#1413);
#392=VERTEX_POINT('',#1415);
#393=VERTEX_POINT('',#1417);
#394=VERTEX_POINT('',#1419);
#395=VERTEX_POINT('',#1421);
#396=VERTEX_POINT('',#1423);
#397=VERTEX_POINT('',#1425);
#398=VERTEX_POINT('',#1427);
#399=VERTEX_POINT('',#1429);
#400=VERTEX_POINT('',#1431);
#401=VERTEX_POINT('',#1433);
#402=VERTEX_POINT('',#1435);
#403=VERTEX_POINT('',#1437);
#404=VERTEX_POINT('',#1439);
#405=VERTEX_POINT('',#1441);
#406=VERTEX_POINT('',#1443);
#407=VERTEX_POINT('',#1446);
#408=VERTEX_POINT('',#1448);
#409=VERTEX_POINT('',#1450);
#410=VERTEX_POINT('',#1452);
#411=VERTEX_POINT('',#1455);
#412=VERTEX_POINT('',#1456);
#413=VERTEX_POINT('',#1459);
#414=VERTEX_POINT('',#1470);
#415=VERTEX_POINT('',#1474);
#416=VERTEX_POINT('',#1475);
#417=VERTEX_POINT('',#1478);
#418=VERTEX_POINT('',#1489);
#419=VERTEX_POINT('',#1493);
#420=VERTEX_POINT('',#1502);
#421=VERTEX_POINT('',#1506);
#422=VERTEX_POINT('',#1510);
#423=VERTEX_POINT('',#1519);
#424=VERTEX_POINT('',#1523);
#425=VERTEX_POINT('',#1527);
#426=VERTEX_POINT('',#1528);
#427=VERTEX_POINT('',#1531);
#428=VERTEX_POINT('',#1542);
#429=VERTEX_POINT('',#1546);
#430=VERTEX_POINT('',#1555);
#431=VERTEX_POINT('',#1559);
#432=VERTEX_POINT('',#1563);
#433=VERTEX_POINT('',#1564);
#434=VERTEX_POINT('',#1567);
#435=VERTEX_POINT('',#1578);
#436=VERTEX_POINT('',#1580);
#437=VERTEX_POINT('',#1584);
#438=VERTEX_POINT('',#1593);
#439=VERTEX_POINT('',#1597);
#440=VERTEX_POINT('',#1601);
#441=VERTEX_POINT('',#1605);
#442=VERTEX_POINT('',#1609);
#443=VERTEX_POINT('',#1613);
#444=VERTEX_POINT('',#1617);
#445=VERTEX_POINT('',#1625);
#446=VERTEX_POINT('',#1627);
#447=VERTEX_POINT('',#1629);
#448=VERTEX_POINT('',#1633);
#449=VERTEX_POINT('',#1635);
#450=VERTEX_POINT('',#1637);
#451=VERTEX_POINT('',#1641);
#452=VERTEX_POINT('',#1643);
#453=VERTEX_POINT('',#1645);
#454=VERTEX_POINT('',#1649);
#455=VERTEX_POINT('',#1651);
#456=VERTEX_POINT('',#1653);
#457=EDGE_CURVE('',#367,#367,#294,.T.);
#458=EDGE_CURVE('',#367,#368,#295,.T.);
#459=EDGE_CURVE('',#368,#369,#296,.T.);
#460=EDGE_CURVE('',#369,#368,#297,.T.);
#461=EDGE_CURVE('',#369,#370,#49,.T.);
#462=EDGE_CURVE('',#370,#370,#298,.T.);
#463=EDGE_CURVE('',#371,#371,#299,.T.);
#464=EDGE_CURVE('',#372,#373,#300,.T.);
#465=EDGE_CURVE('',#373,#372,#301,.T.);
#466=EDGE_CURVE('',#372,#374,#302,.T.);
#467=EDGE_CURVE('',#374,#374,#303,.T.);
#468=EDGE_CURVE('',#371,#373,#50,.T.);
#469=EDGE_CURVE('',#375,#376,#304,.T.);
#470=EDGE_CURVE('',#377,#375,#305,.T.);
#471=EDGE_CURVE('',#378,#377,#306,.T.);
#472=EDGE_CURVE('',#379,#378,#51,.T.);
#473=EDGE_CURVE('',#380,#379,#307,.T.);
#474=EDGE_CURVE('',#381,#380,#308,.T.);
#475=EDGE_CURVE('',#382,#381,#309,.T.);
#476=EDGE_CURVE('',#383,#382,#52,.T.);
#477=EDGE_CURVE('',#384,#383,#310,.T.);
#478=EDGE_CURVE('',#385,#384,#311,.T.);
#479=EDGE_CURVE('',#386,#385,#312,.T.);
#480=EDGE_CURVE('',#387,#386,#53,.T.);
#481=EDGE_CURVE('',#388,#387,#313,.T.);
#482=EDGE_CURVE('',#389,#388,#314,.T.);
#483=EDGE_CURVE('',#390,#389,#315,.T.);
#484=EDGE_CURVE('',#391,#390,#54,.T.);
#485=EDGE_CURVE('',#392,#391,#316,.T.);
#486=EDGE_CURVE('',#393,#392,#317,.T.);
#487=EDGE_CURVE('',#394,#393,#318,.T.);
#488=EDGE_CURVE('',#395,#394,#55,.T.);
#489=EDGE_CURVE('',#396,#395,#319,.T.);
#490=EDGE_CURVE('',#397,#396,#320,.T.);
#491=EDGE_CURVE('',#398,#397,#321,.T.);
#492=EDGE_CURVE('',#399,#398,#56,.T.);
#493=EDGE_CURVE('',#400,#399,#322,.T.);
#494=EDGE_CURVE('',#401,#400,#323,.T.);
#495=EDGE_CURVE('',#402,#401,#324,.T.);
#496=EDGE_CURVE('',#403,#402,#57,.T.);
#497=EDGE_CURVE('',#404,#403,#325,.T.);
#498=EDGE_CURVE('',#405,#404,#326,.T.);
#499=EDGE_CURVE('',#406,#405,#327,.T.);
#500=EDGE_CURVE('',#376,#406,#58,.T.);
#501=EDGE_CURVE('',#407,#407,#328,.T.);
#502=EDGE_CURVE('',#408,#408,#329,.T.);
#503=EDGE_CURVE('',#409,#409,#330,.T.);
#504=EDGE_CURVE('',#410,#410,#331,.T.);
#505=EDGE_CURVE('',#411,#412,#332,.T.);
#506=EDGE_CURVE('',#412,#382,#59,.T.);
#507=EDGE_CURVE('',#381,#413,#60,.T.);
#508=EDGE_CURVE('',#413,#411,#15,.T.);
#509=EDGE_CURVE('',#414,#380,#61,.T.);
#510=EDGE_CURVE('',#413,#414,#333,.T.);
#511=EDGE_CURVE('',#415,#416,#334,.T.);
#512=EDGE_CURVE('',#416,#406,#62,.T.);
#513=EDGE_CURVE('',#405,#417,#63,.T.);
#514=EDGE_CURVE('',#417,#415,#16,.T.);
#515=EDGE_CURVE('',#418,#404,#64,.T.);
#516=EDGE_CURVE('',#418,#417,#335,.F.);
#517=EDGE_CURVE('',#414,#419,#17,.F.);
#518=EDGE_CURVE('',#379,#420,#65,.T.);
#519=EDGE_CURVE('',#419,#420,#336,.F.);
#520=EDGE_CURVE('',#378,#421,#66,.T.);
#521=EDGE_CURVE('',#420,#421,#67,.T.);
#522=EDGE_CURVE('',#418,#422,#18,.F.);
#523=EDGE_CURVE('',#403,#423,#68,.T.);
#524=EDGE_CURVE('',#422,#423,#337,.F.);
#525=EDGE_CURVE('',#402,#424,#69,.T.);
#526=EDGE_CURVE('',#423,#424,#70,.T.);
#527=EDGE_CURVE('',#425,#426,#338,.T.);
#528=EDGE_CURVE('',#426,#398,#71,.T.);
#529=EDGE_CURVE('',#397,#427,#72,.T.);
#530=EDGE_CURVE('',#427,#425,#19,.T.);
#531=EDGE_CURVE('',#428,#396,#73,.T.);
#532=EDGE_CURVE('',#428,#427,#339,.F.);
#533=EDGE_CURVE('',#428,#429,#20,.F.);
#534=EDGE_CURVE('',#395,#430,#74,.T.);
#535=EDGE_CURVE('',#429,#430,#340,.F.);
#536=EDGE_CURVE('',#394,#431,#75,.T.);
#537=EDGE_CURVE('',#430,#431,#76,.T.);
#538=EDGE_CURVE('',#432,#433,#341,.T.);
#539=EDGE_CURVE('',#433,#390,#77,.T.);
#540=EDGE_CURVE('',#389,#434,#78,.T.);
#541=EDGE_CURVE('',#434,#432,#21,.T.);
#542=EDGE_CURVE('',#435,#388,#79,.T.);
#543=EDGE_CURVE('',#436,#435,#342,.T.);
#544=EDGE_CURVE('',#434,#436,#343,.T.);
#545=EDGE_CURVE('',#435,#437,#22,.F.);
#546=EDGE_CURVE('',#387,#438,#80,.T.);
#547=EDGE_CURVE('',#437,#438,#344,.F.);
#548=EDGE_CURVE('',#386,#439,#81,.T.);
#549=EDGE_CURVE('',#438,#439,#82,.T.);
#550=EDGE_CURVE('',#410,#440,#83,.T.);
#551=EDGE_CURVE('',#440,#440,#345,.T.);
#552=EDGE_CURVE('',#409,#441,#84,.T.);
#553=EDGE_CURVE('',#441,#441,#346,.T.);
#554=EDGE_CURVE('',#408,#442,#85,.T.);
#555=EDGE_CURVE('',#442,#442,#347,.T.);
#556=EDGE_CURVE('',#407,#443,#86,.T.);
#557=EDGE_CURVE('',#443,#443,#348,.T.);
#558=EDGE_CURVE('',#444,#444,#349,.T.);
#559=EDGE_CURVE('',#444,#436,#350,.T.);
#560=EDGE_CURVE('',#437,#411,#351,.T.);
#561=EDGE_CURVE('',#419,#415,#352,.T.);
#562=EDGE_CURVE('',#422,#425,#353,.T.);
#563=EDGE_CURVE('',#429,#432,#354,.T.);
#564=EDGE_CURVE('',#439,#445,#355,.T.);
#565=EDGE_CURVE('',#445,#446,#356,.T.);
#566=EDGE_CURVE('',#446,#447,#357,.T.);
#567=EDGE_CURVE('',#447,#412,#87,.T.);
#568=EDGE_CURVE('',#431,#448,#358,.T.);
#569=EDGE_CURVE('',#448,#449,#359,.T.);
#570=EDGE_CURVE('',#449,#450,#360,.T.);
#571=EDGE_CURVE('',#450,#433,#88,.T.);
#572=EDGE_CURVE('',#424,#451,#361,.T.);
#573=EDGE_CURVE('',#451,#452,#362,.T.);
#574=EDGE_CURVE('',#452,#453,#363,.T.);
#575=EDGE_CURVE('',#453,#426,#89,.T.);
#576=EDGE_CURVE('',#421,#454,#364,.T.);
#577=EDGE_CURVE('',#454,#455,#365,.T.);
#578=EDGE_CURVE('',#455,#456,#366,.T.);
#579=EDGE_CURVE('',#456,#416,#90,.T.);
#580=EDGE_CURVE('',#375,#455,#91,.T.);
#581=EDGE_CURVE('',#377,#454,#92,.T.);
#582=EDGE_CURVE('',#383,#447,#93,.T.);
#583=EDGE_CURVE('',#384,#446,#94,.T.);
#584=EDGE_CURVE('',#385,#445,#95,.T.);
#585=EDGE_CURVE('',#391,#450,#96,.T.);
#586=EDGE_CURVE('',#392,#449,#97,.T.);
#587=EDGE_CURVE('',#393,#448,#98,.T.);
#588=EDGE_CURVE('',#399,#453,#99,.T.);
#589=EDGE_CURVE('',#400,#452,#100,.T.);
#590=EDGE_CURVE('',#401,#451,#101,.T.);
#591=EDGE_CURVE('',#376,#456,#102,.T.);
#592=ORIENTED_EDGE('',*,*,#457,.T.);
#593=ORIENTED_EDGE('',*,*,#458,.T.);
#594=ORIENTED_EDGE('',*,*,#459,.T.);
#595=ORIENTED_EDGE('',*,*,#460,.T.);
#596=ORIENTED_EDGE('',*,*,#458,.F.);
#597=ORIENTED_EDGE('',*,*,#459,.F.);
#598=ORIENTED_EDGE('',*,*,#460,.F.);
#599=ORIENTED_EDGE('',*,*,#461,.T.);
#600=ORIENTED_EDGE('',*,*,#462,.F.);
#601=ORIENTED_EDGE('',*,*,#461,.F.);
#602=ORIENTED_EDGE('',*,*,#463,.T.);
#603=ORIENTED_EDGE('',*,*,#457,.F.);
#604=ORIENTED_EDGE('',*,*,#464,.T.);
#605=ORIENTED_EDGE('',*,*,#465,.T.);
#606=ORIENTED_EDGE('',*,*,#466,.T.);
#607=ORIENTED_EDGE('',*,*,#467,.T.);
#608=ORIENTED_EDGE('',*,*,#466,.F.);
#609=ORIENTED_EDGE('',*,*,#463,.F.);
#610=ORIENTED_EDGE('',*,*,#468,.T.);
#611=ORIENTED_EDGE('',*,*,#464,.F.);
#612=ORIENTED_EDGE('',*,*,#465,.F.);
#613=ORIENTED_EDGE('',*,*,#468,.F.);
#614=ORIENTED_EDGE('',*,*,#469,.F.);
#615=ORIENTED_EDGE('',*,*,#470,.F.);
#616=ORIENTED_EDGE('',*,*,#471,.F.);
#617=ORIENTED_EDGE('',*,*,#472,.F.);
#618=ORIENTED_EDGE('',*,*,#473,.F.);
#619=ORIENTED_EDGE('',*,*,#474,.F.);
#620=ORIENTED_EDGE('',*,*,#475,.F.);
#621=ORIENTED_EDGE('',*,*,#476,.F.);
#622=ORIENTED_EDGE('',*,*,#477,.F.);
#623=ORIENTED_EDGE('',*,*,#478,.F.);
#624=ORIENTED_EDGE('',*,*,#479,.F.);
#625=ORIENTED_EDGE('',*,*,#480,.F.);
#626=ORIENTED_EDGE('',*,*,#481,.F.);
#627=ORIENTED_EDGE('',*,*,#482,.F.);
#628=ORIENTED_EDGE('',*,*,#483,.F.);
#629=ORIENTED_EDGE('',*,*,#484,.F.);
#630=ORIENTED_EDGE('',*,*,#485,.F.);
#631=ORIENTED_EDGE('',*,*,#486,.F.);
#632=ORIENTED_EDGE('',*,*,#487,.F.);
#633=ORIENTED_EDGE('',*,*,#488,.F.);
#634=ORIENTED_EDGE('',*,*,#489,.F.);
#635=ORIENTED_EDGE('',*,*,#490,.F.);
#636=ORIENTED_EDGE('',*,*,#491,.F.);
#637=ORIENTED_EDGE('',*,*,#492,.F.);
#638=ORIENTED_EDGE('',*,*,#493,.F.);
#639=ORIENTED_EDGE('',*,*,#494,.F.);
#640=ORIENTED_EDGE('',*,*,#495,.F.);
#641=ORIENTED_EDGE('',*,*,#496,.F.);
#642=ORIENTED_EDGE('',*,*,#497,.F.);
#643=ORIENTED_EDGE('',*,*,#498,.F.);
#644=ORIENTED_EDGE('',*,*,#499,.F.);
#645=ORIENTED_EDGE('',*,*,#500,.F.);
#646=ORIENTED_EDGE('',*,*,#501,.T.);
#647=ORIENTED_EDGE('',*,*,#502,.T.);
#648=ORIENTED_EDGE('',*,*,#503,.T.);
#649=ORIENTED_EDGE('',*,*,#504,.T.);
#650=ORIENTED_EDGE('',*,*,#467,.F.);
#651=ORIENTED_EDGE('',*,*,#505,.T.);
#652=ORIENTED_EDGE('',*,*,#506,.T.);
#653=ORIENTED_EDGE('',*,*,#475,.T.);
#654=ORIENTED_EDGE('',*,*,#507,.T.);
#655=ORIENTED_EDGE('',*,*,#508,.T.);
#656=ORIENTED_EDGE('',*,*,#507,.F.);
#657=ORIENTED_EDGE('',*,*,#474,.T.);
#658=ORIENTED_EDGE('',*,*,#509,.F.);
#659=ORIENTED_EDGE('',*,*,#510,.F.);
#660=ORIENTED_EDGE('',*,*,#511,.T.);
#661=ORIENTED_EDGE('',*,*,#512,.T.);
#662=ORIENTED_EDGE('',*,*,#499,.T.);
#663=ORIENTED_EDGE('',*,*,#513,.T.);
#664=ORIENTED_EDGE('',*,*,#514,.T.);
#665=ORIENTED_EDGE('',*,*,#513,.F.);
#666=ORIENTED_EDGE('',*,*,#498,.T.);
#667=ORIENTED_EDGE('',*,*,#515,.F.);
#668=ORIENTED_EDGE('',*,*,#516,.T.);
#669=ORIENTED_EDGE('',*,*,#517,.F.);
#670=ORIENTED_EDGE('',*,*,#509,.T.);
#671=ORIENTED_EDGE('',*,*,#473,.T.);
#672=ORIENTED_EDGE('',*,*,#518,.T.);
#673=ORIENTED_EDGE('',*,*,#519,.F.);
#674=ORIENTED_EDGE('',*,*,#518,.F.);
#675=ORIENTED_EDGE('',*,*,#472,.T.);
#676=ORIENTED_EDGE('',*,*,#520,.T.);
#677=ORIENTED_EDGE('',*,*,#521,.F.);
#678=ORIENTED_EDGE('',*,*,#522,.F.);
#679=ORIENTED_EDGE('',*,*,#515,.T.);
#680=ORIENTED_EDGE('',*,*,#497,.T.);
#681=ORIENTED_EDGE('',*,*,#523,.T.);
#682=ORIENTED_EDGE('',*,*,#524,.F.);
#683=ORIENTED_EDGE('',*,*,#523,.F.);
#684=ORIENTED_EDGE('',*,*,#496,.T.);
#685=ORIENTED_EDGE('',*,*,#525,.T.);
#686=ORIENTED_EDGE('',*,*,#526,.F.);
#687=ORIENTED_EDGE('',*,*,#527,.T.);
#688=ORIENTED_EDGE('',*,*,#528,.T.);
#689=ORIENTED_EDGE('',*,*,#491,.T.);
#690=ORIENTED_EDGE('',*,*,#529,.T.);
#691=ORIENTED_EDGE('',*,*,#530,.T.);
#692=ORIENTED_EDGE('',*,*,#529,.F.);
#693=ORIENTED_EDGE('',*,*,#490,.T.);
#694=ORIENTED_EDGE('',*,*,#531,.F.);
#695=ORIENTED_EDGE('',*,*,#532,.T.);
#696=ORIENTED_EDGE('',*,*,#533,.F.);
#697=ORIENTED_EDGE('',*,*,#531,.T.);
#698=ORIENTED_EDGE('',*,*,#489,.T.);
#699=ORIENTED_EDGE('',*,*,#534,.T.);
#700=ORIENTED_EDGE('',*,*,#535,.F.);
#701=ORIENTED_EDGE('',*,*,#534,.F.);
#702=ORIENTED_EDGE('',*,*,#488,.T.);
#703=ORIENTED_EDGE('',*,*,#536,.T.);
#704=ORIENTED_EDGE('',*,*,#537,.F.);
#705=ORIENTED_EDGE('',*,*,#538,.T.);
#706=ORIENTED_EDGE('',*,*,#539,.T.);
#707=ORIENTED_EDGE('',*,*,#483,.T.);
#708=ORIENTED_EDGE('',*,*,#540,.T.);
#709=ORIENTED_EDGE('',*,*,#541,.T.);
#710=ORIENTED_EDGE('',*,*,#540,.F.);
#711=ORIENTED_EDGE('',*,*,#482,.T.);
#712=ORIENTED_EDGE('',*,*,#542,.F.);
#713=ORIENTED_EDGE('',*,*,#543,.F.);
#714=ORIENTED_EDGE('',*,*,#544,.F.);
#715=ORIENTED_EDGE('',*,*,#545,.F.);
#716=ORIENTED_EDGE('',*,*,#542,.T.);
#717=ORIENTED_EDGE('',*,*,#481,.T.);
#718=ORIENTED_EDGE('',*,*,#546,.T.);
#719=ORIENTED_EDGE('',*,*,#547,.F.);
#720=ORIENTED_EDGE('',*,*,#546,.F.);
#721=ORIENTED_EDGE('',*,*,#480,.T.);
#722=ORIENTED_EDGE('',*,*,#548,.T.);
#723=ORIENTED_EDGE('',*,*,#549,.F.);
#724=ORIENTED_EDGE('',*,*,#504,.F.);
#725=ORIENTED_EDGE('',*,*,#550,.T.);
#726=ORIENTED_EDGE('',*,*,#551,.F.);
#727=ORIENTED_EDGE('',*,*,#550,.F.);
#728=ORIENTED_EDGE('',*,*,#503,.F.);
#729=ORIENTED_EDGE('',*,*,#552,.T.);
#730=ORIENTED_EDGE('',*,*,#553,.F.);
#731=ORIENTED_EDGE('',*,*,#552,.F.);
#732=ORIENTED_EDGE('',*,*,#502,.F.);
#733=ORIENTED_EDGE('',*,*,#554,.T.);
#734=ORIENTED_EDGE('',*,*,#555,.F.);
#735=ORIENTED_EDGE('',*,*,#554,.F.);
#736=ORIENTED_EDGE('',*,*,#501,.F.);
#737=ORIENTED_EDGE('',*,*,#556,.T.);
#738=ORIENTED_EDGE('',*,*,#557,.F.);
#739=ORIENTED_EDGE('',*,*,#556,.F.);
#740=ORIENTED_EDGE('',*,*,#558,.F.);
#741=ORIENTED_EDGE('',*,*,#559,.T.);
#742=ORIENTED_EDGE('',*,*,#543,.T.);
#743=ORIENTED_EDGE('',*,*,#545,.T.);
#744=ORIENTED_EDGE('',*,*,#560,.T.);
#745=ORIENTED_EDGE('',*,*,#508,.F.);
#746=ORIENTED_EDGE('',*,*,#510,.T.);
#747=ORIENTED_EDGE('',*,*,#517,.T.);
#748=ORIENTED_EDGE('',*,*,#561,.T.);
#749=ORIENTED_EDGE('',*,*,#514,.F.);
#750=ORIENTED_EDGE('',*,*,#516,.F.);
#751=ORIENTED_EDGE('',*,*,#522,.T.);
#752=ORIENTED_EDGE('',*,*,#562,.T.);
#753=ORIENTED_EDGE('',*,*,#530,.F.);
#754=ORIENTED_EDGE('',*,*,#532,.F.);
#755=ORIENTED_EDGE('',*,*,#533,.T.);
#756=ORIENTED_EDGE('',*,*,#563,.T.);
#757=ORIENTED_EDGE('',*,*,#541,.F.);
#758=ORIENTED_EDGE('',*,*,#544,.T.);
#759=ORIENTED_EDGE('',*,*,#559,.F.);
#760=ORIENTED_EDGE('',*,*,#560,.F.);
#761=ORIENTED_EDGE('',*,*,#547,.T.);
#762=ORIENTED_EDGE('',*,*,#549,.T.);
#763=ORIENTED_EDGE('',*,*,#564,.T.);
#764=ORIENTED_EDGE('',*,*,#565,.T.);
#765=ORIENTED_EDGE('',*,*,#566,.T.);
#766=ORIENTED_EDGE('',*,*,#567,.T.);
#767=ORIENTED_EDGE('',*,*,#505,.F.);
#768=ORIENTED_EDGE('',*,*,#551,.T.);
#769=ORIENTED_EDGE('',*,*,#563,.F.);
#770=ORIENTED_EDGE('',*,*,#535,.T.);
#771=ORIENTED_EDGE('',*,*,#537,.T.);
#772=ORIENTED_EDGE('',*,*,#568,.T.);
#773=ORIENTED_EDGE('',*,*,#569,.T.);
#774=ORIENTED_EDGE('',*,*,#570,.T.);
#775=ORIENTED_EDGE('',*,*,#571,.T.);
#776=ORIENTED_EDGE('',*,*,#538,.F.);
#777=ORIENTED_EDGE('',*,*,#557,.T.);
#778=ORIENTED_EDGE('',*,*,#562,.F.);
#779=ORIENTED_EDGE('',*,*,#524,.T.);
#780=ORIENTED_EDGE('',*,*,#526,.T.);
#781=ORIENTED_EDGE('',*,*,#572,.T.);
#782=ORIENTED_EDGE('',*,*,#573,.T.);
#783=ORIENTED_EDGE('',*,*,#574,.T.);
#784=ORIENTED_EDGE('',*,*,#575,.T.);
#785=ORIENTED_EDGE('',*,*,#527,.F.);
#786=ORIENTED_EDGE('',*,*,#555,.T.);
#787=ORIENTED_EDGE('',*,*,#561,.F.);
#788=ORIENTED_EDGE('',*,*,#519,.T.);
#789=ORIENTED_EDGE('',*,*,#521,.T.);
#790=ORIENTED_EDGE('',*,*,#576,.T.);
#791=ORIENTED_EDGE('',*,*,#577,.T.);
#792=ORIENTED_EDGE('',*,*,#578,.T.);
#793=ORIENTED_EDGE('',*,*,#579,.T.);
#794=ORIENTED_EDGE('',*,*,#511,.F.);
#795=ORIENTED_EDGE('',*,*,#553,.T.);
#796=ORIENTED_EDGE('',*,*,#558,.T.);
#797=ORIENTED_EDGE('',*,*,#462,.T.);
#798=ORIENTED_EDGE('',*,*,#470,.T.);
#799=ORIENTED_EDGE('',*,*,#580,.T.);
#800=ORIENTED_EDGE('',*,*,#577,.F.);
#801=ORIENTED_EDGE('',*,*,#581,.F.);
#802=ORIENTED_EDGE('',*,*,#471,.T.);
#803=ORIENTED_EDGE('',*,*,#581,.T.);
#804=ORIENTED_EDGE('',*,*,#576,.F.);
#805=ORIENTED_EDGE('',*,*,#520,.F.);
#806=ORIENTED_EDGE('',*,*,#506,.F.);
#807=ORIENTED_EDGE('',*,*,#567,.F.);
#808=ORIENTED_EDGE('',*,*,#582,.F.);
#809=ORIENTED_EDGE('',*,*,#476,.T.);
#810=ORIENTED_EDGE('',*,*,#477,.T.);
#811=ORIENTED_EDGE('',*,*,#582,.T.);
#812=ORIENTED_EDGE('',*,*,#566,.F.);
#813=ORIENTED_EDGE('',*,*,#583,.F.);
#814=ORIENTED_EDGE('',*,*,#478,.T.);
#815=ORIENTED_EDGE('',*,*,#583,.T.);
#816=ORIENTED_EDGE('',*,*,#565,.F.);
#817=ORIENTED_EDGE('',*,*,#584,.F.);
#818=ORIENTED_EDGE('',*,*,#479,.T.);
#819=ORIENTED_EDGE('',*,*,#584,.T.);
#820=ORIENTED_EDGE('',*,*,#564,.F.);
#821=ORIENTED_EDGE('',*,*,#548,.F.);
#822=ORIENTED_EDGE('',*,*,#539,.F.);
#823=ORIENTED_EDGE('',*,*,#571,.F.);
#824=ORIENTED_EDGE('',*,*,#585,.F.);
#825=ORIENTED_EDGE('',*,*,#484,.T.);
#826=ORIENTED_EDGE('',*,*,#485,.T.);
#827=ORIENTED_EDGE('',*,*,#585,.T.);
#828=ORIENTED_EDGE('',*,*,#570,.F.);
#829=ORIENTED_EDGE('',*,*,#586,.F.);
#830=ORIENTED_EDGE('',*,*,#486,.T.);
#831=ORIENTED_EDGE('',*,*,#586,.T.);
#832=ORIENTED_EDGE('',*,*,#569,.F.);
#833=ORIENTED_EDGE('',*,*,#587,.F.);
#834=ORIENTED_EDGE('',*,*,#487,.T.);
#835=ORIENTED_EDGE('',*,*,#587,.T.);
#836=ORIENTED_EDGE('',*,*,#568,.F.);
#837=ORIENTED_EDGE('',*,*,#536,.F.);
#838=ORIENTED_EDGE('',*,*,#528,.F.);
#839=ORIENTED_EDGE('',*,*,#575,.F.);
#840=ORIENTED_EDGE('',*,*,#588,.F.);
#841=ORIENTED_EDGE('',*,*,#492,.T.);
#842=ORIENTED_EDGE('',*,*,#493,.T.);
#843=ORIENTED_EDGE('',*,*,#588,.T.);
#844=ORIENTED_EDGE('',*,*,#574,.F.);
#845=ORIENTED_EDGE('',*,*,#589,.F.);
#846=ORIENTED_EDGE('',*,*,#494,.T.);
#847=ORIENTED_EDGE('',*,*,#589,.T.);
#848=ORIENTED_EDGE('',*,*,#573,.F.);
#849=ORIENTED_EDGE('',*,*,#590,.F.);
#850=ORIENTED_EDGE('',*,*,#495,.T.);
#851=ORIENTED_EDGE('',*,*,#590,.T.);
#852=ORIENTED_EDGE('',*,*,#572,.F.);
#853=ORIENTED_EDGE('',*,*,#525,.F.);
#854=ORIENTED_EDGE('',*,*,#512,.F.);
#855=ORIENTED_EDGE('',*,*,#579,.F.);
#856=ORIENTED_EDGE('',*,*,#591,.F.);
#857=ORIENTED_EDGE('',*,*,#500,.T.);
#858=ORIENTED_EDGE('',*,*,#469,.T.);
#859=ORIENTED_EDGE('',*,*,#591,.T.);
#860=ORIENTED_EDGE('',*,*,#578,.F.);
#861=ORIENTED_EDGE('',*,*,#580,.F.);
#862=TOROIDAL_SURFACE('',#936,11.6,0.5);
#863=TOROIDAL_SURFACE('',#945,14.5,0.5);
#864=TOROIDAL_SURFACE('',#1017,15.,1.);
#865=ADVANCED_FACE('',(#187),#862,.T.);
#866=ADVANCED_FACE('',(#188),#157,.F.);
#867=ADVANCED_FACE('',(#189,#23),#34,.T.);
#868=ADVANCED_FACE('',(#190),#863,.F.);
#869=ADVANCED_FACE('',(#191),#158,.T.);
#870=ADVANCED_FACE('',(#192,#24,#25,#26,#27,#28),#35,.F.);
#871=ADVANCED_FACE('',(#193),#159,.F.);
#872=ADVANCED_FACE('',(#194),#160,.T.);
#873=ADVANCED_FACE('',(#195),#161,.F.);
#874=ADVANCED_FACE('',(#196),#162,.T.);
#875=ADVANCED_FACE('',(#197),#163,.F.);
#876=ADVANCED_FACE('',(#198),#36,.T.);
#877=ADVANCED_FACE('',(#199),#164,.F.);
#878=ADVANCED_FACE('',(#200),#37,.T.);
#879=ADVANCED_FACE('',(#201),#165,.F.);
#880=ADVANCED_FACE('',(#202),#166,.T.);
#881=ADVANCED_FACE('',(#203),#167,.F.);
#882=ADVANCED_FACE('',(#204),#38,.T.);
#883=ADVANCED_FACE('',(#205),#168,.F.);
#884=ADVANCED_FACE('',(#206),#169,.T.);
#885=ADVANCED_FACE('',(#207),#170,.F.);
#886=ADVANCED_FACE('',(#208),#39,.T.);
#887=ADVANCED_FACE('',(#209),#171,.F.);
#888=ADVANCED_FACE('',(#210),#172,.F.);
#889=ADVANCED_FACE('',(#211),#173,.F.);
#890=ADVANCED_FACE('',(#212),#174,.F.);
#891=ADVANCED_FACE('',(#213),#864,.F.);
#892=ADVANCED_FACE('',(#214,#29),#40,.T.);
#893=ADVANCED_FACE('',(#215,#30),#41,.T.);
#894=ADVANCED_FACE('',(#216,#31),#42,.T.);
#895=ADVANCED_FACE('',(#217,#32),#43,.T.);
#896=ADVANCED_FACE('',(#218,#33),#44,.T.);
#897=ADVANCED_FACE('',(#219),#175,.T.);
#898=ADVANCED_FACE('',(#220),#176,.T.);
#899=ADVANCED_FACE('',(#221),#45,.T.);
#900=ADVANCED_FACE('',(#222),#177,.T.);
#901=ADVANCED_FACE('',(#223),#178,.T.);
#902=ADVANCED_FACE('',(#224),#179,.T.);
#903=ADVANCED_FACE('',(#225),#46,.T.);
#904=ADVANCED_FACE('',(#226),#180,.T.);
#905=ADVANCED_FACE('',(#227),#181,.T.);
#906=ADVANCED_FACE('',(#228),#182,.T.);
#907=ADVANCED_FACE('',(#229),#47,.T.);
#908=ADVANCED_FACE('',(#230),#183,.T.);
#909=ADVANCED_FACE('',(#231),#184,.T.);
#910=ADVANCED_FACE('',(#232),#185,.T.);
#911=ADVANCED_FACE('',(#233),#48,.T.);
#912=ADVANCED_FACE('',(#234),#186,.T.);
#913=CLOSED_SHELL('',(#865,#866,#867,#868,#869,#870,#871,#872,#873,#874,
#875,#876,#877,#878,#879,#880,#881,#882,#883,#884,#885,#886,#887,#888,#889,
#890,#891,#892,#893,#894,#895,#896,#897,#898,#899,#900,#901,#902,#903,#904,
#905,#906,#907,#908,#909,#910,#911,#912));
#914=DERIVED_UNIT_ELEMENT(#917,1.);
#915=DERIVED_UNIT_ELEMENT(#1690,-3.);
#916=DIMENSIONAL_EXPONENTS(0.,1.,0.,0.,0.,0.,0.);
#917=(
CONVERSION_BASED_UNIT('gram',#919)
MASS_UNIT()
NAMED_UNIT(#916)
);
#918=(
MASS_UNIT()
NAMED_UNIT(*)
SI_UNIT(.KILO.,.GRAM.)
);
#919=MASS_MEASURE_WITH_UNIT(MASS_MEASURE(0.001),#918);
#920=DERIVED_UNIT((#914,#915));
#921=MEASURE_REPRESENTATION_ITEM('density measure',
POSITIVE_RATIO_MEASURE(1.),#920);
#922=PROPERTY_DEFINITION_REPRESENTATION(#927,#924);
#923=PROPERTY_DEFINITION_REPRESENTATION(#928,#925);
#924=REPRESENTATION('material name',(#926),#1687);
#925=REPRESENTATION('density',(#921),#1687);
#926=DESCRIPTIVE_REPRESENTATION_ITEM('\X2\4E00822C\X0\','\X2\4E00822C\X0\');
#927=PROPERTY_DEFINITION('material property','material name',#1697);
#928=PROPERTY_DEFINITION('material property','density of part',#1697);
#929=DATE_TIME_ROLE('creation_date');
#930=APPLIED_DATE_AND_TIME_ASSIGNMENT(#931,#929,(#1697));
#931=DATE_AND_TIME(#932,#933);
#932=CALENDAR_DATE(2025,29,6);
#933=LOCAL_TIME(0,0,0.,#934);
#934=COORDINATED_UNIVERSAL_TIME_OFFSET(0,0,.BEHIND.);
#935=AXIS2_PLACEMENT_3D('',#1355,#1057,#1058);
#936=AXIS2_PLACEMENT_3D('',#1356,#1059,#1060);
#937=AXIS2_PLACEMENT_3D('',#1358,#1061,#1062);
#938=AXIS2_PLACEMENT_3D('',#1360,#1063,#1064);
#939=AXIS2_PLACEMENT_3D('',#1362,#1065,#1066);
#940=AXIS2_PLACEMENT_3D('',#1363,#1067,#1068);
#941=AXIS2_PLACEMENT_3D('',#1364,#1069,#1070);
#942=AXIS2_PLACEMENT_3D('',#1367,#1072,#1073);
#943=AXIS2_PLACEMENT_3D('',#1368,#1074,#1075);
#944=AXIS2_PLACEMENT_3D('',#1370,#1076,#1077);
#945=AXIS2_PLACEMENT_3D('',#1371,#1078,#1079);
#946=AXIS2_PLACEMENT_3D('',#1374,#1080,#1081);
#947=AXIS2_PLACEMENT_3D('',#1375,#1082,#1083);
#948=AXIS2_PLACEMENT_3D('',#1377,#1084,#1085);
#949=AXIS2_PLACEMENT_3D('',#1378,#1086,#1087);
#950=AXIS2_PLACEMENT_3D('',#1379,#1088,#1089);
#951=AXIS2_PLACEMENT_3D('',#1381,#1091,#1092);
#952=AXIS2_PLACEMENT_3D('',#1384,#1093,#1094);
#953=AXIS2_PLACEMENT_3D('',#1386,#1095,#1096);
#954=AXIS2_PLACEMENT_3D('',#1388,#1097,#1098);
#955=AXIS2_PLACEMENT_3D('',#1392,#1100,#1101);
#956=AXIS2_PLACEMENT_3D('',#1394,#1102,#1103);
#957=AXIS2_PLACEMENT_3D('',#1396,#1104,#1105);
#958=AXIS2_PLACEMENT_3D('',#1400,#1107,#1108);
#959=AXIS2_PLACEMENT_3D('',#1402,#1109,#1110);
#960=AXIS2_PLACEMENT_3D('',#1404,#1111,#1112);
#961=AXIS2_PLACEMENT_3D('',#1408,#1114,#1115);
#962=AXIS2_PLACEMENT_3D('',#1410,#1116,#1117);
#963=AXIS2_PLACEMENT_3D('',#1412,#1118,#1119);
#964=AXIS2_PLACEMENT_3D('',#1416,#1121,#1122);
#965=AXIS2_PLACEMENT_3D('',#1418,#1123,#1124);
#966=AXIS2_PLACEMENT_3D('',#1420,#1125,#1126);
#967=AXIS2_PLACEMENT_3D('',#1424,#1128,#1129);
#968=AXIS2_PLACEMENT_3D('',#1426,#1130,#1131);
#969=AXIS2_PLACEMENT_3D('',#1428,#1132,#1133);
#970=AXIS2_PLACEMENT_3D('',#1432,#1135,#1136);
#971=AXIS2_PLACEMENT_3D('',#1434,#1137,#1138);
#972=AXIS2_PLACEMENT_3D('',#1436,#1139,#1140);
#973=AXIS2_PLACEMENT_3D('',#1440,#1142,#1143);
#974=AXIS2_PLACEMENT_3D('',#1442,#1144,#1145);
#975=AXIS2_PLACEMENT_3D('',#1444,#1146,#1147);
#976=AXIS2_PLACEMENT_3D('',#1447,#1149,#1150);
#977=AXIS2_PLACEMENT_3D('',#1449,#1151,#1152);
#978=AXIS2_PLACEMENT_3D('',#1451,#1153,#1154);
#979=AXIS2_PLACEMENT_3D('',#1453,#1155,#1156);
#980=AXIS2_PLACEMENT_3D('',#1454,#1157,#1158);
#981=AXIS2_PLACEMENT_3D('',#1457,#1159,#1160);
#982=AXIS2_PLACEMENT_3D('',#1469,#1163,#1164);
#983=AXIS2_PLACEMENT_3D('',#1472,#1166,#1167);
#984=AXIS2_PLACEMENT_3D('',#1473,#1168,#1169);
#985=AXIS2_PLACEMENT_3D('',#1476,#1170,#1171);
#986=AXIS2_PLACEMENT_3D('',#1488,#1174,#1175);
#987=AXIS2_PLACEMENT_3D('',#1491,#1177,#1178);
#988=AXIS2_PLACEMENT_3D('',#1492,#1179,#1180);
#989=AXIS2_PLACEMENT_3D('',#1504,#1182,#1183);
#990=AXIS2_PLACEMENT_3D('',#1505,#1184,#1185);
#991=AXIS2_PLACEMENT_3D('',#1509,#1188,#1189);
#992=AXIS2_PLACEMENT_3D('',#1521,#1191,#1192);
#993=AXIS2_PLACEMENT_3D('',#1522,#1193,#1194);
#994=AXIS2_PLACEMENT_3D('',#1526,#1197,#1198);
#995=AXIS2_PLACEMENT_3D('',#1529,#1199,#1200);
#996=AXIS2_PLACEMENT_3D('',#1541,#1203,#1204);
#997=AXIS2_PLACEMENT_3D('',#1544,#1206,#1207);
#998=AXIS2_PLACEMENT_3D('',#1545,#1208,#1209);
#999=AXIS2_PLACEMENT_3D('',#1557,#1211,#1212);
#1000=AXIS2_PLACEMENT_3D('',#1558,#1213,#1214);
#1001=AXIS2_PLACEMENT_3D('',#1562,#1217,#1218);
#1002=AXIS2_PLACEMENT_3D('',#1565,#1219,#1220);
#1003=AXIS2_PLACEMENT_3D('',#1577,#1223,#1224);
#1004=AXIS2_PLACEMENT_3D('',#1581,#1226,#1227);
#1005=AXIS2_PLACEMENT_3D('',#1582,#1228,#1229);
#1006=AXIS2_PLACEMENT_3D('',#1583,#1230,#1231);
#1007=AXIS2_PLACEMENT_3D('',#1595,#1233,#1234);
#1008=AXIS2_PLACEMENT_3D('',#1596,#1235,#1236);
#1009=AXIS2_PLACEMENT_3D('',#1600,#1239,#1240);
#1010=AXIS2_PLACEMENT_3D('',#1603,#1242,#1243);
#1011=AXIS2_PLACEMENT_3D('',#1604,#1244,#1245);
#1012=AXIS2_PLACEMENT_3D('',#1607,#1247,#1248);
#1013=AXIS2_PLACEMENT_3D('',#1608,#1249,#1250);
#1014=AXIS2_PLACEMENT_3D('',#1611,#1252,#1253);
#1015=AXIS2_PLACEMENT_3D('',#1612,#1254,#1255);
#1016=AXIS2_PLACEMENT_3D('',#1615,#1257,#1258);
#1017=AXIS2_PLACEMENT_3D('',#1616,#1259,#1260);
#1018=AXIS2_PLACEMENT_3D('',#1618,#1261,#1262);
#1019=AXIS2_PLACEMENT_3D('',#1619,#1263,#1264);
#1020=AXIS2_PLACEMENT_3D('',#1620,#1265,#1266);
#1021=AXIS2_PLACEMENT_3D('',#1621,#1267,#1268);
#1022=AXIS2_PLACEMENT_3D('',#1622,#1269,#1270);
#1023=AXIS2_PLACEMENT_3D('',#1623,#1271,#1272);
#1024=AXIS2_PLACEMENT_3D('',#1624,#1273,#1274);
#1025=AXIS2_PLACEMENT_3D('',#1626,#1275,#1276);
#1026=AXIS2_PLACEMENT_3D('',#1628,#1277,#1278);
#1027=AXIS2_PLACEMENT_3D('',#1630,#1279,#1280);
#1028=AXIS2_PLACEMENT_3D('',#1632,#1282,#1283);
#1029=AXIS2_PLACEMENT_3D('',#1634,#1284,#1285);
#1030=AXIS2_PLACEMENT_3D('',#1636,#1286,#1287);
#1031=AXIS2_PLACEMENT_3D('',#1638,#1288,#1289);
#1032=AXIS2_PLACEMENT_3D('',#1640,#1291,#1292);
#1033=AXIS2_PLACEMENT_3D('',#1642,#1293,#1294);
#1034=AXIS2_PLACEMENT_3D('',#1644,#1295,#1296);
#1035=AXIS2_PLACEMENT_3D('',#1646,#1297,#1298);
#1036=AXIS2_PLACEMENT_3D('',#1648,#1300,#1301);
#1037=AXIS2_PLACEMENT_3D('',#1650,#1302,#1303);
#1038=AXIS2_PLACEMENT_3D('',#1652,#1304,#1305);
#1039=AXIS2_PLACEMENT_3D('',#1654,#1306,#1307);
#1040=AXIS2_PLACEMENT_3D('',#1656,#1309,#1310);
#1041=AXIS2_PLACEMENT_3D('',#1657,#1311,#1312);
#1042=AXIS2_PLACEMENT_3D('',#1660,#1315,#1316);
#1043=AXIS2_PLACEMENT_3D('',#1661,#1317,#1318);
#1044=AXIS2_PLACEMENT_3D('',#1663,#1320,#1321);
#1045=AXIS2_PLACEMENT_3D('',#1665,#1323,#1324);
#1046=AXIS2_PLACEMENT_3D('',#1667,#1326,#1327);
#1047=AXIS2_PLACEMENT_3D('',#1668,#1328,#1329);
#1048=AXIS2_PLACEMENT_3D('',#1670,#1331,#1332);
#1049=AXIS2_PLACEMENT_3D('',#1672,#1334,#1335);
#1050=AXIS2_PLACEMENT_3D('',#1674,#1337,#1338);
#1051=AXIS2_PLACEMENT_3D('',#1675,#1339,#1340);
#1052=AXIS2_PLACEMENT_3D('',#1677,#1342,#1343);
#1053=AXIS2_PLACEMENT_3D('',#1679,#1345,#1346);
#1054=AXIS2_PLACEMENT_3D('',#1681,#1348,#1349);
#1055=AXIS2_PLACEMENT_3D('',#1682,#1350,#1351);
#1056=AXIS2_PLACEMENT_3D('',#1684,#1353,#1354);
#1057=DIRECTION('axis',(0.,0.,1.));
#1058=DIRECTION('refdir',(1.,0.,0.));
#1059=DIRECTION('center_axis',(0.,0.,1.));
#1060=DIRECTION('ref_axis',(1.,0.,0.));
#1061=DIRECTION('center_axis',(0.,0.,-1.));
#1062=DIRECTION('ref_axis',(1.,-1.22464679914735E-16,0.));
#1063=DIRECTION('center_axis',(1.22464679914735E-16,-1.,0.));
#1064=DIRECTION('ref_axis',(-1.,-1.22464679914735E-16,0.));
#1065=DIRECTION('center_axis',(0.,0.,1.));
#1066=DIRECTION('ref_axis',(1.,-1.22464679914735E-16,0.));
#1067=DIRECTION('center_axis',(0.,0.,1.));
#1068=DIRECTION('ref_axis',(1.,-1.22464679914735E-16,0.));
#1069=DIRECTION('center_axis',(0.,0.,1.));
#1070=DIRECTION('ref_axis',(-1.,0.,0.));
#1071=DIRECTION('',(0.,0.,1.));
#1072=DIRECTION('center_axis',(0.,0.,-1.));
#1073=DIRECTION('ref_axis',(-1.,0.,0.));
#1074=DIRECTION('center_axis',(0.,0.,-1.));
#1075=DIRECTION('ref_axis',(-1.,0.,0.));
#1076=DIRECTION('center_axis',(0.,0.,-1.));
#1077=DIRECTION('ref_axis',(-1.,0.,0.));
#1078=DIRECTION('center_axis',(0.,0.,1.));
#1079=DIRECTION('ref_axis',(1.,0.,0.));
#1080=DIRECTION('center_axis',(0.,0.,1.));
#1081=DIRECTION('ref_axis',(1.,-1.22464679914735E-16,0.));
#1082=DIRECTION('center_axis',(0.,0.,1.));
#1083=DIRECTION('ref_axis',(1.,-1.22464679914735E-16,0.));
#1084=DIRECTION('center_axis',(1.22464679914735E-16,-1.,0.));
#1085=DIRECTION('ref_axis',(-1.,-1.22464679914735E-16,0.));
#1086=DIRECTION('center_axis',(0.,0.,-1.));
#1087=DIRECTION('ref_axis',(1.,-1.22464679914735E-16,0.));
#1088=DIRECTION('center_axis',(0.,0.,-1.));
#1089=DIRECTION('ref_axis',(-1.,0.,0.));
#1090=DIRECTION('',(0.,0.,1.));
#1091=DIRECTION('center_axis',(0.,0.,1.));
#1092=DIRECTION('ref_axis',(1.,0.,0.));
#1093=DIRECTION('center_axis',(0.,0.,1.));
#1094=DIRECTION('ref_axis',(1.,0.,0.));
#1095=DIRECTION('center_axis',(0.,0.,1.));
#1096=DIRECTION('ref_axis',(1.,0.,0.));
#1097=DIRECTION('center_axis',(0.,0.,1.));
#1098=DIRECTION('ref_axis',(1.,0.,0.));
#1099=DIRECTION('',(-0.707106781186547,0.707106781186548,0.));
#1100=DIRECTION('center_axis',(0.,0.,-1.));
#1101=DIRECTION('ref_axis',(-0.146552765774234,-0.98920285424372,0.));
#1102=DIRECTION('center_axis',(0.,0.,1.));
#1103=DIRECTION('ref_axis',(1.,0.,0.));
#1104=DIRECTION('center_axis',(0.,0.,-1.));
#1105=DIRECTION('ref_axis',(0.146552765774234,-0.98920285424372,0.));
#1106=DIRECTION('',(-0.707106781186548,-0.707106781186547,0.));
#1107=DIRECTION('center_axis',(0.,0.,1.));
#1108=DIRECTION('ref_axis',(1.,0.,0.));
#1109=DIRECTION('center_axis',(0.,0.,1.));
#1110=DIRECTION('ref_axis',(1.,0.,0.));
#1111=DIRECTION('center_axis',(0.,0.,1.));
#1112=DIRECTION('ref_axis',(1.,0.,0.));
#1113=DIRECTION('',(0.707106781186548,0.707106781186548,0.));
#1114=DIRECTION('center_axis',(0.,0.,-1.));
#1115=DIRECTION('ref_axis',(-0.98920285424372,0.146552765774232,0.));
#1116=DIRECTION('center_axis',(0.,0.,1.));
#1117=DIRECTION('ref_axis',(1.,0.,0.));
#1118=DIRECTION('center_axis',(0.,0.,-1.));
#1119=DIRECTION('ref_axis',(-0.98920285424372,-0.146552765774232,0.));
#1120=DIRECTION('',(-0.707106781186547,0.707106781186548,0.));
#1121=DIRECTION('center_axis',(0.,0.,1.));
#1122=DIRECTION('ref_axis',(1.,0.,0.));
#1123=DIRECTION('center_axis',(0.,0.,1.));
#1124=DIRECTION('ref_axis',(1.,0.,0.));
#1125=DIRECTION('center_axis',(0.,0.,1.));
#1126=DIRECTION('ref_axis',(1.,0.,0.));
#1127=DIRECTION('',(0.707106781186548,-0.707106781186548,0.));
#1128=DIRECTION('center_axis',(0.,0.,-1.));
#1129=DIRECTION('ref_axis',(0.146552765774234,0.98920285424372,0.));
#1130=DIRECTION('center_axis',(0.,0.,1.));
#1131=DIRECTION('ref_axis',(1.,0.,0.));
#1132=DIRECTION('center_axis',(0.,0.,-1.));
#1133=DIRECTION('ref_axis',(-0.146552765774233,0.98920285424372,0.));
#1134=DIRECTION('',(0.707106781186548,0.707106781186548,0.));
#1135=DIRECTION('center_axis',(0.,0.,1.));
#1136=DIRECTION('ref_axis',(1.,0.,0.));
#1137=DIRECTION('center_axis',(0.,0.,1.));
#1138=DIRECTION('ref_axis',(1.,0.,0.));
#1139=DIRECTION('center_axis',(0.,0.,1.));
#1140=DIRECTION('ref_axis',(1.,0.,0.));
#1141=DIRECTION('',(-0.707106781186548,-0.707106781186547,0.));
#1142=DIRECTION('center_axis',(0.,0.,-1.));
#1143=DIRECTION('ref_axis',(0.98920285424372,-0.146552765774234,0.));
#1144=DIRECTION('center_axis',(0.,0.,1.));
#1145=DIRECTION('ref_axis',(1.,0.,0.));
#1146=DIRECTION('center_axis',(0.,0.,-1.));
#1147=DIRECTION('ref_axis',(0.98920285424372,0.146552765774234,0.));
#1148=DIRECTION('',(0.707106781186548,-0.707106781186548,0.));
#1149=DIRECTION('center_axis',(0.,0.,1.));
#1150=DIRECTION('ref_axis',(-1.,0.,0.));
#1151=DIRECTION('center_axis',(0.,0.,1.));
#1152=DIRECTION('ref_axis',(-1.,0.,0.));
#1153=DIRECTION('center_axis',(0.,0.,1.));
#1154=DIRECTION('ref_axis',(-1.,0.,0.));
#1155=DIRECTION('center_axis',(0.,0.,1.));
#1156=DIRECTION('ref_axis',(-1.,0.,0.));
#1157=DIRECTION('center_axis',(0.,0.,1.));
#1158=DIRECTION('ref_axis',(0.146552765774234,-0.98920285424372,0.));
#1159=DIRECTION('center_axis',(0.,0.,1.));
#1160=DIRECTION('ref_axis',(0.146552765774234,-0.98920285424372,0.));
#1161=DIRECTION('',(0.,0.,-1.));
#1162=DIRECTION('',(0.,0.,1.));
#1163=DIRECTION('center_axis',(0.,0.,1.));
#1164=DIRECTION('ref_axis',(1.,0.,0.));
#1165=DIRECTION('',(0.,0.,-1.));
#1166=DIRECTION('center_axis',(0.,0.,1.));
#1167=DIRECTION('ref_axis',(1.,0.,0.));
#1168=DIRECTION('center_axis',(0.,0.,1.));
#1169=DIRECTION('ref_axis',(0.98920285424372,0.146552765774234,0.));
#1170=DIRECTION('center_axis',(0.,0.,1.));
#1171=DIRECTION('ref_axis',(0.98920285424372,0.146552765774234,0.));
#1172=DIRECTION('',(0.,0.,-1.));
#1173=DIRECTION('',(0.,0.,1.));
#1174=DIRECTION('center_axis',(0.,0.,1.));
#1175=DIRECTION('ref_axis',(-1.,1.22464679914735E-16,0.));
#1176=DIRECTION('',(0.,0.,-1.));
#1177=DIRECTION('center_axis',(0.,0.,1.));
#1178=DIRECTION('ref_axis',(1.,0.,0.));
#1179=DIRECTION('center_axis',(0.,0.,1.));
#1180=DIRECTION('ref_axis',(-0.146552765774234,-0.98920285424372,0.));
#1181=DIRECTION('',(0.,0.,1.));
#1182=DIRECTION('center_axis',(0.,0.,1.));
#1183=DIRECTION('ref_axis',(-0.146552765774234,-0.98920285424372,0.));
#1184=DIRECTION('center_axis',(0.707106781186548,0.707106781186547,0.));
#1185=DIRECTION('ref_axis',(-0.707106781186547,0.707106781186548,0.));
#1186=DIRECTION('',(0.,0.,1.));
#1187=DIRECTION('',(-0.707106781186547,0.707106781186548,0.));
#1188=DIRECTION('center_axis',(0.,0.,1.));
#1189=DIRECTION('ref_axis',(0.98920285424372,-0.146552765774234,0.));
#1190=DIRECTION('',(0.,0.,1.));
#1191=DIRECTION('center_axis',(0.,0.,1.));
#1192=DIRECTION('ref_axis',(0.98920285424372,-0.146552765774234,0.));
#1193=DIRECTION('center_axis',(-0.707106781186547,0.707106781186548,0.));
#1194=DIRECTION('ref_axis',(-0.707106781186548,-0.707106781186547,0.));
#1195=DIRECTION('',(0.,0.,1.));
#1196=DIRECTION('',(-0.707106781186548,-0.707106781186547,0.));
#1197=DIRECTION('center_axis',(0.,0.,1.));
#1198=DIRECTION('ref_axis',(-0.146552765774233,0.98920285424372,0.));
#1199=DIRECTION('center_axis',(0.,0.,1.));
#1200=DIRECTION('ref_axis',(-0.146552765774233,0.98920285424372,0.));
#1201=DIRECTION('',(0.,0.,-1.));
#1202=DIRECTION('',(0.,0.,1.));
#1203=DIRECTION('center_axis',(0.,0.,1.));
#1204=DIRECTION('ref_axis',(1.,0.,0.));
#1205=DIRECTION('',(0.,0.,-1.));
#1206=DIRECTION('center_axis',(0.,0.,1.));
#1207=DIRECTION('ref_axis',(1.,0.,0.));
#1208=DIRECTION('center_axis',(0.,0.,1.));
#1209=DIRECTION('ref_axis',(0.146552765774234,0.98920285424372,0.));
#1210=DIRECTION('',(0.,0.,1.));
#1211=DIRECTION('center_axis',(0.,0.,1.));
#1212=DIRECTION('ref_axis',(0.146552765774234,0.98920285424372,0.));
#1213=DIRECTION('center_axis',(-0.707106781186548,-0.707106781186548,0.));
#1214=DIRECTION('ref_axis',(0.707106781186548,-0.707106781186548,0.));
#1215=DIRECTION('',(0.,0.,1.));
#1216=DIRECTION('',(0.707106781186548,-0.707106781186548,0.));
#1217=DIRECTION('center_axis',(0.,0.,1.));
#1218=DIRECTION('ref_axis',(-0.98920285424372,-0.146552765774232,0.));
#1219=DIRECTION('center_axis',(0.,0.,1.));
#1220=DIRECTION('ref_axis',(-0.98920285424372,-0.146552765774232,0.));
#1221=DIRECTION('',(0.,0.,-1.));
#1222=DIRECTION('',(0.,0.,1.));
#1223=DIRECTION('center_axis',(0.,0.,1.));
#1224=DIRECTION('ref_axis',(1.,0.,0.));
#1225=DIRECTION('',(0.,0.,-1.));
#1226=DIRECTION('center_axis',(0.,0.,1.));
#1227=DIRECTION('ref_axis',(1.,0.,0.));
#1228=DIRECTION('center_axis',(0.,0.,1.));
#1229=DIRECTION('ref_axis',(1.,0.,0.));
#1230=DIRECTION('center_axis',(0.,0.,1.));
#1231=DIRECTION('ref_axis',(-0.98920285424372,0.146552765774232,0.));
#1232=DIRECTION('',(0.,0.,1.));
#1233=DIRECTION('center_axis',(0.,0.,1.));
#1234=DIRECTION('ref_axis',(-0.98920285424372,0.146552765774232,0.));
#1235=DIRECTION('center_axis',(0.707106781186548,-0.707106781186548,0.));
#1236=DIRECTION('ref_axis',(0.707106781186548,0.707106781186548,0.));
#1237=DIRECTION('',(0.,0.,1.));
#1238=DIRECTION('',(0.707106781186548,0.707106781186548,0.));
#1239=DIRECTION('center_axis',(0.,0.,-1.));
#1240=DIRECTION('ref_axis',(-1.,0.,0.));
#1241=DIRECTION('',(0.,0.,1.));
#1242=DIRECTION('center_axis',(0.,0.,-1.));
#1243=DIRECTION('ref_axis',(-1.,0.,0.));
#1244=DIRECTION('center_axis',(0.,0.,-1.));
#1245=DIRECTION('ref_axis',(-1.,0.,0.));
#1246=DIRECTION('',(0.,0.,1.));
#1247=DIRECTION('center_axis',(0.,0.,-1.));
#1248=DIRECTION('ref_axis',(-1.,0.,0.));
#1249=DIRECTION('center_axis',(0.,0.,-1.));
#1250=DIRECTION('ref_axis',(-1.,0.,0.));
#1251=DIRECTION('',(0.,0.,1.));
#1252=DIRECTION('center_axis',(0.,0.,-1.));
#1253=DIRECTION('ref_axis',(-1.,0.,0.));
#1254=DIRECTION('center_axis',(0.,0.,-1.));
#1255=DIRECTION('ref_axis',(-1.,0.,0.));
#1256=DIRECTION('',(0.,0.,1.));
#1257=DIRECTION('center_axis',(0.,0.,-1.));
#1258=DIRECTION('ref_axis',(-1.,0.,0.));
#1259=DIRECTION('center_axis',(0.,0.,-1.));
#1260=DIRECTION('ref_axis',(-1.,0.,0.));
#1261=DIRECTION('center_axis',(0.,0.,1.));
#1262=DIRECTION('ref_axis',(1.,0.,0.));
#1263=DIRECTION('center_axis',(-1.22464679914735E-16,-1.,0.));
#1264=DIRECTION('ref_axis',(1.,-1.22464679914735E-16,0.));
#1265=DIRECTION('center_axis',(0.,0.,1.));
#1266=DIRECTION('ref_axis',(-1.,0.,0.));
#1267=DIRECTION('center_axis',(0.,0.,1.));
#1268=DIRECTION('ref_axis',(-1.,0.,0.));
#1269=DIRECTION('center_axis',(0.,0.,1.));
#1270=DIRECTION('ref_axis',(-1.,0.,0.));
#1271=DIRECTION('center_axis',(0.,0.,1.));
#1272=DIRECTION('ref_axis',(-1.,0.,0.));
#1273=DIRECTION('center_axis',(0.,0.,1.));
#1274=DIRECTION('ref_axis',(1.,0.,0.));
#1275=DIRECTION('center_axis',(0.,0.,1.));
#1276=DIRECTION('ref_axis',(1.,0.,0.));
#1277=DIRECTION('center_axis',(0.,0.,1.));
#1278=DIRECTION('ref_axis',(1.,0.,0.));
#1279=DIRECTION('center_axis',(0.,0.,1.));
#1280=DIRECTION('ref_axis',(1.,0.,0.));
#1281=DIRECTION('',(-0.707106781186548,-0.707106781186547,0.));
#1282=DIRECTION('center_axis',(0.,0.,1.));
#1283=DIRECTION('ref_axis',(1.,0.,0.));
#1284=DIRECTION('center_axis',(0.,0.,1.));
#1285=DIRECTION('ref_axis',(1.,0.,0.));
#1286=DIRECTION('center_axis',(0.,0.,1.));
#1287=DIRECTION('ref_axis',(1.,0.,0.));
#1288=DIRECTION('center_axis',(0.,0.,1.));
#1289=DIRECTION('ref_axis',(1.,0.,0.));
#1290=DIRECTION('',(-0.707106781186547,0.707106781186548,0.));
#1291=DIRECTION('center_axis',(0.,0.,1.));
#1292=DIRECTION('ref_axis',(1.,0.,0.));
#1293=DIRECTION('center_axis',(0.,0.,1.));
#1294=DIRECTION('ref_axis',(1.,0.,0.));
#1295=DIRECTION('center_axis',(0.,0.,1.));
#1296=DIRECTION('ref_axis',(1.,0.,0.));
#1297=DIRECTION('center_axis',(0.,0.,1.));
#1298=DIRECTION('ref_axis',(1.,0.,0.));
#1299=DIRECTION('',(0.707106781186548,0.707106781186548,0.));
#1300=DIRECTION('center_axis',(0.,0.,1.));
#1301=DIRECTION('ref_axis',(1.,0.,0.));
#1302=DIRECTION('center_axis',(0.,0.,1.));
#1303=DIRECTION('ref_axis',(1.,0.,0.));
#1304=DIRECTION('center_axis',(0.,0.,1.));
#1305=DIRECTION('ref_axis',(1.,0.,0.));
#1306=DIRECTION('center_axis',(0.,0.,1.));
#1307=DIRECTION('ref_axis',(1.,0.,0.));
#1308=DIRECTION('',(0.707106781186548,-0.707106781186548,0.));
#1309=DIRECTION('center_axis',(0.,0.,1.));
#1310=DIRECTION('ref_axis',(1.,0.,0.));
#1311=DIRECTION('center_axis',(0.,0.,1.));
#1312=DIRECTION('ref_axis',(-0.707106781186547,0.707106781186548,0.));
#1313=DIRECTION('',(0.,0.,1.));
#1314=DIRECTION('',(0.,0.,1.));
#1315=DIRECTION('center_axis',(0.,0.,1.));
#1316=DIRECTION('ref_axis',(1.,0.,0.));
#1317=DIRECTION('center_axis',(-0.707106781186547,0.707106781186548,0.));
#1318=DIRECTION('ref_axis',(-0.707106781186548,-0.707106781186547,0.));
#1319=DIRECTION('',(0.,0.,1.));
#1320=DIRECTION('center_axis',(0.,0.,1.));
#1321=DIRECTION('ref_axis',(1.,0.,0.));
#1322=DIRECTION('',(0.,0.,1.));
#1323=DIRECTION('center_axis',(0.,0.,1.));
#1324=DIRECTION('ref_axis',(1.,0.,0.));
#1325=DIRECTION('',(0.,0.,1.));
#1326=DIRECTION('center_axis',(0.,0.,1.));
#1327=DIRECTION('ref_axis',(1.,0.,0.));
#1328=DIRECTION('center_axis',(0.707106781186548,0.707106781186547,0.));
#1329=DIRECTION('ref_axis',(-0.707106781186547,0.707106781186548,0.));
#1330=DIRECTION('',(0.,0.,1.));
#1331=DIRECTION('center_axis',(0.,0.,1.));
#1332=DIRECTION('ref_axis',(1.,0.,0.));
#1333=DIRECTION('',(0.,0.,1.));
#1334=DIRECTION('center_axis',(0.,0.,1.));
#1335=DIRECTION('ref_axis',(1.,0.,0.));
#1336=DIRECTION('',(0.,0.,1.));
#1337=DIRECTION('center_axis',(0.,0.,1.));
#1338=DIRECTION('ref_axis',(1.,0.,0.));
#1339=DIRECTION('center_axis',(0.707106781186548,-0.707106781186548,0.));
#1340=DIRECTION('ref_axis',(0.707106781186548,0.707106781186548,0.));
#1341=DIRECTION('',(0.,0.,1.));
#1342=DIRECTION('center_axis',(0.,0.,1.));
#1343=DIRECTION('ref_axis',(1.,0.,0.));
#1344=DIRECTION('',(0.,0.,1.));
#1345=DIRECTION('center_axis',(0.,0.,1.));
#1346=DIRECTION('ref_axis',(-0.707106781186548,-0.707106781186547,0.));
#1347=DIRECTION('',(0.,0.,1.));
#1348=DIRECTION('center_axis',(0.,0.,1.));
#1349=DIRECTION('ref_axis',(1.,0.,0.));
#1350=DIRECTION('center_axis',(-0.707106781186548,-0.707106781186548,0.));
#1351=DIRECTION('ref_axis',(0.707106781186548,-0.707106781186548,0.));
#1352=DIRECTION('',(0.,0.,1.));
#1353=DIRECTION('center_axis',(0.,0.,1.));
#1354=DIRECTION('ref_axis',(1.,0.,0.));
#1355=CARTESIAN_POINT('',(0.,0.,0.));
#1356=CARTESIAN_POINT('Origin',(0.,0.,-2.));
#1357=CARTESIAN_POINT('',(-11.6,2.84118057402186E-15,-2.5));
#1358=CARTESIAN_POINT('Origin',(0.,0.,-2.5));
#1359=CARTESIAN_POINT('',(-11.1,0.,-2.));
#1360=CARTESIAN_POINT('Origin',(-11.6,-1.42059028701093E-15,-2.));
#1361=CARTESIAN_POINT('',(11.1,1.35935794705356E-15,-2.));
#1362=CARTESIAN_POINT('Origin',(0.,0.,-2.));
#1363=CARTESIAN_POINT('Origin',(0.,0.,-2.));
#1364=CARTESIAN_POINT('Origin',(0.,0.,-2.5));
#1365=CARTESIAN_POINT('',(11.1,-1.35935794705356E-15,2.));
#1366=CARTESIAN_POINT('',(11.1,1.35935794705356E-15,-2.5));
#1367=CARTESIAN_POINT('Origin',(0.,0.,2.));
#1368=CARTESIAN_POINT('Origin',(0.,0.,-2.5));
#1369=CARTESIAN_POINT('',(14.,-1.71450551880629E-15,-2.5));
#1370=CARTESIAN_POINT('Origin',(0.,0.,-2.5));
#1371=CARTESIAN_POINT('Origin',(0.,0.,-0.5));
#1372=CARTESIAN_POINT('',(-14.,0.,-0.5));
#1373=CARTESIAN_POINT('',(14.,-1.71450551880629E-15,-0.5));
#1374=CARTESIAN_POINT('Origin',(0.,0.,-0.5));
#1375=CARTESIAN_POINT('Origin',(0.,0.,-0.5));
#1376=CARTESIAN_POINT('',(-14.5,3.55147571752732E-15,0.));
#1377=CARTESIAN_POINT('Origin',(-14.5,-1.77573785876366E-15,-0.5));
#1378=CARTESIAN_POINT('Origin',(0.,0.,0.));
#1379=CARTESIAN_POINT('Origin',(0.,0.,0.));
#1380=CARTESIAN_POINT('',(14.,-1.71450551880629E-15,0.));
#1381=CARTESIAN_POINT('Origin',(0.,0.,0.));
#1382=CARTESIAN_POINT('',(-15.3231644148407,11.2339054792071,0.));
#1383=CARTESIAN_POINT('',(-15.3282224026766,11.2270030717946,0.));
#1384=CARTESIAN_POINT('Origin',(0.,0.,0.));
#1385=CARTESIAN_POINT('',(-11.2339054792071,15.3231644148407,0.));
#1386=CARTESIAN_POINT('Origin',(-13.4350288425444,13.4350288425444,0.));
#1387=CARTESIAN_POINT('',(-11.2270030717946,15.3282224026766,0.));
#1388=CARTESIAN_POINT('Origin',(0.,0.,0.));
#1389=CARTESIAN_POINT('',(-9.38617309895564,13.4873924298376,0.));
#1390=CARTESIAN_POINT('',(15.4856385079854,-11.3844191771034,0.));
#1391=CARTESIAN_POINT('',(-7.02853237248995,13.1381023244935,0.));
#1392=CARTESIAN_POINT('Origin',(-7.97195953658256,14.9016059922107,0.));
#1393=CARTESIAN_POINT('',(7.02853237248995,13.1381023244935,0.));
#1394=CARTESIAN_POINT('Origin',(0.,0.,0.));
#1395=CARTESIAN_POINT('',(9.38617309895566,13.4873924298376,0.));
#1396=CARTESIAN_POINT('Origin',(7.97195953658256,14.9016059922107,0.));
#1397=CARTESIAN_POINT('',(11.2270030717946,15.3282224026765,0.));
#1398=CARTESIAN_POINT('',(11.3844191771034,15.4856385079854,0.));
#1399=CARTESIAN_POINT('',(11.2339054792071,15.3231644148407,0.));
#1400=CARTESIAN_POINT('Origin',(0.,0.,0.));
#1401=CARTESIAN_POINT('',(15.3231644148407,11.2339054792071,0.));
#1402=CARTESIAN_POINT('Origin',(13.4350288425444,13.4350288425444,0.));
#1403=CARTESIAN_POINT('',(15.3282224026765,11.2270030717946,0.));
#1404=CARTESIAN_POINT('Origin',(0.,0.,0.));
#1405=CARTESIAN_POINT('',(13.4873924298376,9.38617309895566,0.));
#1406=CARTESIAN_POINT('',(-11.3844191771034,-15.4856385079854,0.));
#1407=CARTESIAN_POINT('',(13.1381023244935,7.02853237248995,0.));
#1408=CARTESIAN_POINT('Origin',(14.9016059922107,7.97195953658257,0.));
#1409=CARTESIAN_POINT('',(13.1381023244935,-7.02853237248996,0.));
#1410=CARTESIAN_POINT('Origin',(0.,0.,0.));
#1411=CARTESIAN_POINT('',(13.4873924298376,-9.38617309895566,0.));
#1412=CARTESIAN_POINT('Origin',(14.9016059922107,-7.97195953658257,0.));
#1413=CARTESIAN_POINT('',(15.3282224026766,-11.2270030717946,0.));
#1414=CARTESIAN_POINT('',(15.4856385079854,-11.3844191771034,0.));
#1415=CARTESIAN_POINT('',(15.3231644148407,-11.2339054792071,0.));
#1416=CARTESIAN_POINT('Origin',(0.,0.,0.));
#1417=CARTESIAN_POINT('',(11.2339054792071,-15.3231644148407,0.));
#1418=CARTESIAN_POINT('Origin',(13.4350288425444,-13.4350288425444,0.));
#1419=CARTESIAN_POINT('',(11.2270030717946,-15.3282224026766,0.));
#1420=CARTESIAN_POINT('Origin',(0.,0.,0.));
#1421=CARTESIAN_POINT('',(9.38617309895564,-13.4873924298376,0.));
#1422=CARTESIAN_POINT('',(-15.4856385079854,11.3844191771034,0.));
#1423=CARTESIAN_POINT('',(7.02853237248994,-13.1381023244935,0.));
#1424=CARTESIAN_POINT('Origin',(7.97195953658255,-14.9016059922107,0.));
#1425=CARTESIAN_POINT('',(-7.02853237248995,-13.1381023244935,0.));
#1426=CARTESIAN_POINT('Origin',(0.,0.,0.));
#1427=CARTESIAN_POINT('',(-9.38617309895566,-13.4873924298376,0.));
#1428=CARTESIAN_POINT('Origin',(-7.97195953658257,-14.9016059922107,0.));
#1429=CARTESIAN_POINT('',(-11.2270030717946,-15.3282224026766,0.));
#1430=CARTESIAN_POINT('',(-11.3844191771034,-15.4856385079854,0.));
#1431=CARTESIAN_POINT('',(-11.2339054792071,-15.3231644148407,0.));
#1432=CARTESIAN_POINT('Origin',(0.,0.,0.));
#1433=CARTESIAN_POINT('',(-15.3231644148407,-11.2339054792071,0.));
#1434=CARTESIAN_POINT('Origin',(-13.4350288425444,-13.4350288425444,0.));
#1435=CARTESIAN_POINT('',(-15.3282224026766,-11.2270030717946,0.));
#1436=CARTESIAN_POINT('Origin',(0.,0.,0.));
#1437=CARTESIAN_POINT('',(-13.4873924298376,-9.38617309895564,0.));
#1438=CARTESIAN_POINT('',(11.3844191771034,15.4856385079854,0.));
#1439=CARTESIAN_POINT('',(-13.1381023244935,-7.02853237248994,0.));
#1440=CARTESIAN_POINT('Origin',(-14.9016059922107,-7.97195953658255,0.));
#1441=CARTESIAN_POINT('',(-13.1381023244935,7.02853237248994,0.));
#1442=CARTESIAN_POINT('Origin',(0.,0.,0.));
#1443=CARTESIAN_POINT('',(-13.4873924298376,9.38617309895565,0.));
#1444=CARTESIAN_POINT('Origin',(-14.9016059922107,7.97195953658255,0.));
#1445=CARTESIAN_POINT('',(-15.4856385079854,11.3844191771034,0.));
#1446=CARTESIAN_POINT('',(15.0350288425444,-13.4350288425444,0.));
#1447=CARTESIAN_POINT('Origin',(13.4350288425444,-13.4350288425444,0.));
#1448=CARTESIAN_POINT('',(-11.8350288425444,-13.4350288425444,0.));
#1449=CARTESIAN_POINT('Origin',(-13.4350288425444,-13.4350288425444,0.));
#1450=CARTESIAN_POINT('',(-11.8350288425444,13.4350288425444,0.));
#1451=CARTESIAN_POINT('Origin',(-13.4350288425444,13.4350288425444,0.));
#1452=CARTESIAN_POINT('',(15.0350288425444,13.4350288425444,0.));
#1453=CARTESIAN_POINT('Origin',(13.4350288425444,13.4350288425444,0.));
#1454=CARTESIAN_POINT('Origin',(7.97195953658256,14.9016059922107,0.));
#1455=CARTESIAN_POINT('',(7.58893839263583,12.9386248911072,1.));
#1456=CARTESIAN_POINT('',(9.38617309895566,13.4873924298376,1.));
#1457=CARTESIAN_POINT('Origin',(7.97195953658256,14.9016059922107,1.));
#1458=CARTESIAN_POINT('',(9.38617309895566,13.4873924298376,0.));
#1459=CARTESIAN_POINT('',(7.02853237248995,13.1381023244935,1.00501256289338));
#1460=CARTESIAN_POINT('',(7.02853237248995,13.1381023244935,0.));
#1461=CARTESIAN_POINT('Ctrl Pts',(7.02853237248995,13.1381023244935,1.00501256289338));
#1462=CARTESIAN_POINT('Ctrl Pts',(7.081433792875,13.1098014834326,1.00501256289338));
#1463=CARTESIAN_POINT('Ctrl Pts',(7.13549477814847,13.0839406705727,1.00469085184733));
#1464=CARTESIAN_POINT('Ctrl Pts',(7.30827810767221,13.0106072611463,1.00294915470803));
#1465=CARTESIAN_POINT('Ctrl Pts',(7.42968129978472,12.9723775122449,1.00052973564886));
#1466=CARTESIAN_POINT('Ctrl Pts',(7.56521320623473,12.9433656510902,1.0000240185916));
#1467=CARTESIAN_POINT('Ctrl Pts',(7.57708496075837,12.9409377585285,1.));
#1468=CARTESIAN_POINT('Ctrl Pts',(7.58893839263585,12.9386248911072,1.));
#1469=CARTESIAN_POINT('Origin',(0.,0.,0.));
#1470=CARTESIAN_POINT('',(-7.02853237248995,13.1381023244935,1.00501256289338));
#1471=CARTESIAN_POINT('',(-7.02853237248995,13.1381023244935,0.));
#1472=CARTESIAN_POINT('Origin',(0.,0.,1.00501256289338));
#1473=CARTESIAN_POINT('Origin',(-14.9016059922107,7.97195953658255,0.));
#1474=CARTESIAN_POINT('',(-12.9386248911072,7.58893839263583,1.));
#1475=CARTESIAN_POINT('',(-13.4873924298376,9.38617309895565,1.));
#1476=CARTESIAN_POINT('Origin',(-14.9016059922107,7.97195953658255,1.));
#1477=CARTESIAN_POINT('',(-13.4873924298376,9.38617309895565,0.));
#1478=CARTESIAN_POINT('',(-13.1381023244935,7.02853237248994,1.00501256289338));
#1479=CARTESIAN_POINT('',(-13.1381023244935,7.02853237248994,0.));
#1480=CARTESIAN_POINT('Ctrl Pts',(-13.1381023244935,7.02853237248994,1.00501256289338));
#1481=CARTESIAN_POINT('Ctrl Pts',(-13.1098014834326,7.08143379287499,1.00501256289338));
#1482=CARTESIAN_POINT('Ctrl Pts',(-13.0839406705727,7.13549477814846,1.00469085184733));
#1483=CARTESIAN_POINT('Ctrl Pts',(-13.0106072611463,7.30827810767222,1.00294915470803));
#1484=CARTESIAN_POINT('Ctrl Pts',(-12.9723775122449,7.42968129978473,1.00052973564886));
#1485=CARTESIAN_POINT('Ctrl Pts',(-12.9433656510903,7.56521320623472,1.0000240185916));
#1486=CARTESIAN_POINT('Ctrl Pts',(-12.9409377585285,7.57708496075836,1.));
#1487=CARTESIAN_POINT('Ctrl Pts',(-12.9386248911072,7.58893839263584,1.));
#1488=CARTESIAN_POINT('Origin',(0.,0.,0.));
#1489=CARTESIAN_POINT('',(-13.1381023244935,-7.02853237248994,1.00501256289338));
#1490=CARTESIAN_POINT('',(-13.1381023244935,-7.02853237248994,0.));
#1491=CARTESIAN_POINT('Origin',(0.,0.,1.00501256289338));
#1492=CARTESIAN_POINT('Origin',(-7.97195953658256,14.9016059922107,0.));
#1493=CARTESIAN_POINT('',(-7.58893839263583,12.9386248911072,1.));
#1494=CARTESIAN_POINT('Ctrl Pts',(-7.58893839263605,12.9386248911071,1.));
#1495=CARTESIAN_POINT('Ctrl Pts',(-7.56492777598743,12.9433098948753,1.));
#1496=CARTESIAN_POINT('Ctrl Pts',(-7.54086838671448,12.9484617018391,1.0000984478529));
#1497=CARTESIAN_POINT('Ctrl Pts',(-7.3954563266308,12.9824482828883,1.00110129810567));
#1498=CARTESIAN_POINT('Ctrl Pts',(-7.27744241232073,13.0219647429289,1.00339216442771));
#1499=CARTESIAN_POINT('Ctrl Pts',(-7.11785587187115,13.0924511546087,1.00479093213671));
#1500=CARTESIAN_POINT('Ctrl Pts',(-7.07271069103722,13.1144681089574,1.00501256289338));
#1501=CARTESIAN_POINT('Ctrl Pts',(-7.02853237248995,13.1381023244935,1.00501256289338));
#1502=CARTESIAN_POINT('',(-9.38617309895564,13.4873924298376,1.));
#1503=CARTESIAN_POINT('',(-9.38617309895565,13.4873924298376,0.));
#1504=CARTESIAN_POINT('Origin',(-7.97195953658256,14.9016059922107,1.));
#1505=CARTESIAN_POINT('Origin',(-8.28379888077006,12.385018211652,0.));
#1506=CARTESIAN_POINT('',(-11.2270030717946,15.3282224026766,1.));
#1507=CARTESIAN_POINT('',(-11.2270030717946,15.3282224026766,0.));
#1508=CARTESIAN_POINT('',(15.4856385079854,-11.3844191771034,1.));
#1509=CARTESIAN_POINT('Origin',(-14.9016059922107,-7.97195953658255,0.));
#1510=CARTESIAN_POINT('',(-12.9386248911072,-7.58893839263583,1.));
#1511=CARTESIAN_POINT('Ctrl Pts',(-12.9386248911071,-7.58893839263605,1.));
#1512=CARTESIAN_POINT('Ctrl Pts',(-12.9433098948753,-7.56492777598743,1.));
#1513=CARTESIAN_POINT('Ctrl Pts',(-12.9484617018391,-7.54086838671448,1.0000984478529));
#1514=CARTESIAN_POINT('Ctrl Pts',(-12.9824482828883,-7.39545632663078,1.00110129810567));
#1515=CARTESIAN_POINT('Ctrl Pts',(-13.0219647429289,-7.27744241232069,1.00339216442771));
#1516=CARTESIAN_POINT('Ctrl Pts',(-13.0924511546087,-7.11785587187114,1.00479093213671));
#1517=CARTESIAN_POINT('Ctrl Pts',(-13.1144681089574,-7.07271069103722,1.00501256289338));
#1518=CARTESIAN_POINT('Ctrl Pts',(-13.1381023244935,-7.02853237248994,1.00501256289338));
#1519=CARTESIAN_POINT('',(-13.4873924298376,-9.38617309895564,1.));
#1520=CARTESIAN_POINT('',(-13.4873924298376,-9.38617309895565,0.));
#1521=CARTESIAN_POINT('Origin',(-14.9016059922107,-7.97195953658255,1.));
#1522=CARTESIAN_POINT('Origin',(-12.385018211652,-8.28379888077006,0.));
#1523=CARTESIAN_POINT('',(-15.3282224026766,-11.2270030717946,1.));
#1524=CARTESIAN_POINT('',(-15.3282224026766,-11.2270030717946,0.));
#1525=CARTESIAN_POINT('',(11.3844191771034,15.4856385079854,1.));
#1526=CARTESIAN_POINT('Origin',(-7.97195953658257,-14.9016059922107,0.));
#1527=CARTESIAN_POINT('',(-7.58893839263584,-12.9386248911072,1.));
#1528=CARTESIAN_POINT('',(-9.38617309895566,-13.4873924298376,1.));
#1529=CARTESIAN_POINT('Origin',(-7.97195953658257,-14.9016059922107,1.));
#1530=CARTESIAN_POINT('',(-9.38617309895566,-13.4873924298376,0.));
#1531=CARTESIAN_POINT('',(-7.02853237248995,-13.1381023244935,1.00501256289338));
#1532=CARTESIAN_POINT('',(-7.02853237248996,-13.1381023244935,0.));
#1533=CARTESIAN_POINT('Ctrl Pts',(-7.02853237248995,-13.1381023244935,1.00501256289338));
#1534=CARTESIAN_POINT('Ctrl Pts',(-7.081433792875,-13.1098014834326,1.00501256289338));
#1535=CARTESIAN_POINT('Ctrl Pts',(-7.13549477814847,-13.0839406705727,1.00469085184733));
#1536=CARTESIAN_POINT('Ctrl Pts',(-7.30827810767226,-13.0106072611463,1.00294915470802));
#1537=CARTESIAN_POINT('Ctrl Pts',(-7.42968129978474,-12.9723775122449,1.00052973564886));
#1538=CARTESIAN_POINT('Ctrl Pts',(-7.56521320623472,-12.9433656510903,1.0000240185916));
#1539=CARTESIAN_POINT('Ctrl Pts',(-7.57708496075837,-12.9409377585285,1.));
#1540=CARTESIAN_POINT('Ctrl Pts',(-7.58893839263585,-12.9386248911072,1.));
#1541=CARTESIAN_POINT('Origin',(0.,0.,0.));
#1542=CARTESIAN_POINT('',(7.02853237248994,-13.1381023244935,1.00501256289338));
#1543=CARTESIAN_POINT('',(7.02853237248994,-13.1381023244935,0.));
#1544=CARTESIAN_POINT('Origin',(0.,0.,1.00501256289338));
#1545=CARTESIAN_POINT('Origin',(7.97195953658255,-14.9016059922107,0.));
#1546=CARTESIAN_POINT('',(7.58893839263582,-12.9386248911072,1.));
#1547=CARTESIAN_POINT('Ctrl Pts',(7.58893839263605,-12.9386248911071,1.));
#1548=CARTESIAN_POINT('Ctrl Pts',(7.56492777598742,-12.9433098948753,1.));
#1549=CARTESIAN_POINT('Ctrl Pts',(7.54086838671448,-12.9484617018391,1.0000984478529));
#1550=CARTESIAN_POINT('Ctrl Pts',(7.39545632663081,-12.9824482828883,1.00110129810567));
#1551=CARTESIAN_POINT('Ctrl Pts',(7.27744241232074,-13.0219647429289,1.00339216442771));
#1552=CARTESIAN_POINT('Ctrl Pts',(7.11785587187115,-13.0924511546087,1.00479093213671));
#1553=CARTESIAN_POINT('Ctrl Pts',(7.07271069103722,-13.1144681089574,1.00501256289338));
#1554=CARTESIAN_POINT('Ctrl Pts',(7.02853237248994,-13.1381023244935,1.00501256289338));
#1555=CARTESIAN_POINT('',(9.38617309895564,-13.4873924298376,1.));
#1556=CARTESIAN_POINT('',(9.38617309895565,-13.4873924298376,0.));
#1557=CARTESIAN_POINT('Origin',(7.97195953658255,-14.9016059922107,1.));
#1558=CARTESIAN_POINT('Origin',(8.28379888077006,-12.385018211652,0.));
#1559=CARTESIAN_POINT('',(11.2270030717946,-15.3282224026766,1.));
#1560=CARTESIAN_POINT('',(11.2270030717946,-15.3282224026766,0.));
#1561=CARTESIAN_POINT('',(-15.4856385079854,11.3844191771034,1.));
#1562=CARTESIAN_POINT('Origin',(14.9016059922107,-7.97195953658257,0.));
#1563=CARTESIAN_POINT('',(12.9386248911072,-7.58893839263584,1.));
#1564=CARTESIAN_POINT('',(13.4873924298376,-9.38617309895566,1.));
#1565=CARTESIAN_POINT('Origin',(14.9016059922107,-7.97195953658257,1.));
#1566=CARTESIAN_POINT('',(13.4873924298376,-9.38617309895566,0.));
#1567=CARTESIAN_POINT('',(13.1381023244935,-7.02853237248996,1.00501256289338));
#1568=CARTESIAN_POINT('',(13.1381023244935,-7.02853237248996,0.));
#1569=CARTESIAN_POINT('Ctrl Pts',(13.1381023244935,-7.02853237248996,1.00501256289338));
#1570=CARTESIAN_POINT('Ctrl Pts',(13.1098014834326,-7.08143379287501,1.00501256289338));
#1571=CARTESIAN_POINT('Ctrl Pts',(13.0839406705727,-7.13549477814848,1.00469085184733));
#1572=CARTESIAN_POINT('Ctrl Pts',(13.0106072611463,-7.30827810767226,1.00294915470802));
#1573=CARTESIAN_POINT('Ctrl Pts',(12.9723775122449,-7.42968129978475,1.00052973564886));
#1574=CARTESIAN_POINT('Ctrl Pts',(12.9433656510902,-7.56521320623473,1.0000240185916));
#1575=CARTESIAN_POINT('Ctrl Pts',(12.9409377585285,-7.57708496075837,1.));
#1576=CARTESIAN_POINT('Ctrl Pts',(12.9386248911072,-7.58893839263585,1.));
#1577=CARTESIAN_POINT('Origin',(0.,0.,0.));
#1578=CARTESIAN_POINT('',(13.1381023244935,7.02853237248995,1.00501256289338));
#1579=CARTESIAN_POINT('',(13.1381023244935,7.02853237248995,0.));
#1580=CARTESIAN_POINT('',(14.9,-1.82472373072956E-15,1.00501256289338));
#1581=CARTESIAN_POINT('Origin',(0.,0.,1.00501256289338));
#1582=CARTESIAN_POINT('Origin',(0.,0.,1.00501256289338));
#1583=CARTESIAN_POINT('Origin',(14.9016059922107,7.97195953658257,0.));
#1584=CARTESIAN_POINT('',(12.9386248911072,7.58893839263584,1.));
#1585=CARTESIAN_POINT('Ctrl Pts',(12.9386248911071,7.58893839263606,1.));
#1586=CARTESIAN_POINT('Ctrl Pts',(12.9433098948753,7.56492777598743,1.));
#1587=CARTESIAN_POINT('Ctrl Pts',(12.9484617018391,7.54086838671449,1.0000984478529));
#1588=CARTESIAN_POINT('Ctrl Pts',(12.9824482828883,7.39545632663081,1.00110129810567));
#1589=CARTESIAN_POINT('Ctrl Pts',(13.0219647429288,7.27744241232074,1.00339216442771));
#1590=CARTESIAN_POINT('Ctrl Pts',(13.0924511546087,7.11785587187116,1.00479093213671));
#1591=CARTESIAN_POINT('Ctrl Pts',(13.1144681089574,7.07271069103723,1.00501256289338));
#1592=CARTESIAN_POINT('Ctrl Pts',(13.1381023244935,7.02853237248995,1.00501256289338));
#1593=CARTESIAN_POINT('',(13.4873924298376,9.38617309895566,1.));
#1594=CARTESIAN_POINT('',(13.4873924298376,9.38617309895566,0.));
#1595=CARTESIAN_POINT('Origin',(14.9016059922107,7.97195953658257,1.));
#1596=CARTESIAN_POINT('Origin',(12.385018211652,8.28379888077007,0.));
#1597=CARTESIAN_POINT('',(15.3282224026765,11.2270030717946,1.));
#1598=CARTESIAN_POINT('',(15.3282224026765,11.2270030717946,0.));
#1599=CARTESIAN_POINT('',(-11.3844191771034,-15.4856385079854,1.));
#1600=CARTESIAN_POINT('Origin',(13.4350288425444,13.4350288425444,46.4210656738303));
#1601=CARTESIAN_POINT('',(15.0350288425444,13.4350288425444,0.999999999999996));
#1602=CARTESIAN_POINT('',(15.0350288425444,13.4350288425444,46.4210656738303));
#1603=CARTESIAN_POINT('Origin',(13.4350288425444,13.4350288425444,0.999999999999996));
#1604=CARTESIAN_POINT('Origin',(-13.4350288425444,13.4350288425444,46.4210656738303));
#1605=CARTESIAN_POINT('',(-11.8350288425444,13.4350288425444,0.999999999999996));
#1606=CARTESIAN_POINT('',(-11.8350288425444,13.4350288425444,46.4210656738303));
#1607=CARTESIAN_POINT('Origin',(-13.4350288425444,13.4350288425444,0.999999999999996));
#1608=CARTESIAN_POINT('Origin',(-13.4350288425444,-13.4350288425444,46.4210656738303));
#1609=CARTESIAN_POINT('',(-11.8350288425444,-13.4350288425444,0.999999999999996));
#1610=CARTESIAN_POINT('',(-11.8350288425444,-13.4350288425444,46.4210656738303));
#1611=CARTESIAN_POINT('Origin',(-13.4350288425444,-13.4350288425444,0.999999999999996));
#1612=CARTESIAN_POINT('Origin',(13.4350288425444,-13.4350288425444,46.4210656738303));
#1613=CARTESIAN_POINT('',(15.0350288425444,-13.4350288425444,0.999999999999996));
#1614=CARTESIAN_POINT('',(15.0350288425444,-13.4350288425444,46.4210656738303));
#1615=CARTESIAN_POINT('Origin',(13.4350288425444,-13.4350288425444,0.999999999999996));
#1616=CARTESIAN_POINT('Origin',(0.,0.,2.));
#1617=CARTESIAN_POINT('',(14.,0.,2.));
#1618=CARTESIAN_POINT('Origin',(0.,0.,2.));
#1619=CARTESIAN_POINT('Origin',(15.,-1.83697019872103E-15,2.));
#1620=CARTESIAN_POINT('Origin',(0.,0.,1.));
#1621=CARTESIAN_POINT('Origin',(0.,0.,1.));
#1622=CARTESIAN_POINT('Origin',(0.,0.,1.));
#1623=CARTESIAN_POINT('Origin',(0.,0.,1.));
#1624=CARTESIAN_POINT('Origin',(0.,0.,1.));
#1625=CARTESIAN_POINT('',(15.3231644148407,11.2339054792071,1.));
#1626=CARTESIAN_POINT('Origin',(0.,0.,1.));
#1627=CARTESIAN_POINT('',(11.2339054792071,15.3231644148407,1.));
#1628=CARTESIAN_POINT('Origin',(13.4350288425444,13.4350288425444,1.));
#1629=CARTESIAN_POINT('',(11.2270030717946,15.3282224026765,1.));
#1630=CARTESIAN_POINT('Origin',(0.,0.,1.));
#1631=CARTESIAN_POINT('',(11.3844191771034,15.4856385079854,1.));
#1632=CARTESIAN_POINT('Origin',(0.,0.,1.));
#1633=CARTESIAN_POINT('',(11.2339054792071,-15.3231644148407,1.));
#1634=CARTESIAN_POINT('Origin',(0.,0.,1.));
#1635=CARTESIAN_POINT('',(15.3231644148407,-11.2339054792071,1.));
#1636=CARTESIAN_POINT('Origin',(13.4350288425444,-13.4350288425444,1.));
#1637=CARTESIAN_POINT('',(15.3282224026765,-11.2270030717946,1.));
#1638=CARTESIAN_POINT('Origin',(0.,0.,1.));
#1639=CARTESIAN_POINT('',(15.4856385079854,-11.3844191771034,1.));
#1640=CARTESIAN_POINT('Origin',(0.,0.,1.));
#1641=CARTESIAN_POINT('',(-15.3231644148407,-11.2339054792071,1.));
#1642=CARTESIAN_POINT('Origin',(0.,0.,1.));
#1643=CARTESIAN_POINT('',(-11.2339054792071,-15.3231644148407,1.));
#1644=CARTESIAN_POINT('Origin',(-13.4350288425444,-13.4350288425444,1.));
#1645=CARTESIAN_POINT('',(-11.2270030717946,-15.3282224026766,1.));
#1646=CARTESIAN_POINT('Origin',(0.,0.,1.));
#1647=CARTESIAN_POINT('',(-11.3844191771034,-15.4856385079854,1.));
#1648=CARTESIAN_POINT('Origin',(0.,0.,1.));
#1649=CARTESIAN_POINT('',(-11.2339054792071,15.3231644148407,1.));
#1650=CARTESIAN_POINT('Origin',(0.,0.,1.));
#1651=CARTESIAN_POINT('',(-15.3231644148407,11.2339054792071,1.));
#1652=CARTESIAN_POINT('Origin',(-13.4350288425444,13.4350288425444,1.));
#1653=CARTESIAN_POINT('',(-15.3282224026766,11.2270030717946,1.));
#1654=CARTESIAN_POINT('Origin',(0.,0.,1.));
#1655=CARTESIAN_POINT('',(-15.4856385079854,11.3844191771034,1.));
#1656=CARTESIAN_POINT('Origin',(0.,0.,2.));
#1657=CARTESIAN_POINT('Origin',(-13.4350288425444,13.4350288425444,0.));
#1658=CARTESIAN_POINT('',(-15.3231644148407,11.2339054792071,0.));
#1659=CARTESIAN_POINT('',(-11.2339054792071,15.3231644148407,0.));
#1660=CARTESIAN_POINT('Origin',(0.,0.,0.));
#1661=CARTESIAN_POINT('Origin',(11.2270030717946,15.3282224026765,0.));
#1662=CARTESIAN_POINT('',(11.2270030717946,15.3282224026765,0.));
#1663=CARTESIAN_POINT('Origin',(0.,0.,0.));
#1664=CARTESIAN_POINT('',(11.2339054792071,15.3231644148407,0.));
#1665=CARTESIAN_POINT('Origin',(13.4350288425444,13.4350288425444,0.));
#1666=CARTESIAN_POINT('',(15.3231644148407,11.2339054792071,0.));
#1667=CARTESIAN_POINT('Origin',(0.,0.,0.));
#1668=CARTESIAN_POINT('Origin',(15.3282224026765,-11.2270030717946,0.));
#1669=CARTESIAN_POINT('',(15.3282224026766,-11.2270030717946,0.));
#1670=CARTESIAN_POINT('Origin',(0.,0.,0.));
#1671=CARTESIAN_POINT('',(15.3231644148407,-11.2339054792071,0.));
#1672=CARTESIAN_POINT('Origin',(13.4350288425444,-13.4350288425444,0.));
#1673=CARTESIAN_POINT('',(11.2339054792071,-15.3231644148407,0.));
#1674=CARTESIAN_POINT('Origin',(0.,0.,0.));
#1675=CARTESIAN_POINT('Origin',(-11.2270030717946,-15.3282224026765,0.));
#1676=CARTESIAN_POINT('',(-11.2270030717946,-15.3282224026766,0.));
#1677=CARTESIAN_POINT('Origin',(0.,0.,0.));
#1678=CARTESIAN_POINT('',(-11.2339054792071,-15.3231644148407,0.));
#1679=CARTESIAN_POINT('Origin',(-13.4350288425444,-13.4350288425444,0.));
#1680=CARTESIAN_POINT('',(-15.3231644148407,-11.2339054792071,0.));
#1681=CARTESIAN_POINT('Origin',(0.,0.,0.));
#1682=CARTESIAN_POINT('Origin',(-15.3282224026766,11.2270030717946,0.));
#1683=CARTESIAN_POINT('',(-15.3282224026766,11.2270030717946,0.));
#1684=CARTESIAN_POINT('Origin',(0.,0.,0.));
#1685=UNCERTAINTY_MEASURE_WITH_UNIT(LENGTH_MEASURE(0.01),#1689,
'DISTANCE_ACCURACY_VALUE',
'Maximum model space distance between geometric entities at asserted c
onnectivities');
#1686=UNCERTAINTY_MEASURE_WITH_UNIT(LENGTH_MEASURE(0.01),#1689,
'DISTANCE_ACCURACY_VALUE',
'Maximum model space distance between geometric entities at asserted c
onnectivities');
#1687=(
GEOMETRIC_REPRESENTATION_CONTEXT(3)
GLOBAL_UNCERTAINTY_ASSIGNED_CONTEXT((#1685))
GLOBAL_UNIT_ASSIGNED_CONTEXT((#1689,#1691,#1692))
REPRESENTATION_CONTEXT('','3D')
);
#1688=(
GEOMETRIC_REPRESENTATION_CONTEXT(3)
GLOBAL_UNCERTAINTY_ASSIGNED_CONTEXT((#1686))
GLOBAL_UNIT_ASSIGNED_CONTEXT((#1689,#1691,#1692))
REPRESENTATION_CONTEXT('','3D')
);
#1689=(
LENGTH_UNIT()
NAMED_UNIT(*)
SI_UNIT(.MILLI.,.METRE.)
);
#1690=(
LENGTH_UNIT()
NAMED_UNIT(*)
SI_UNIT(.CENTI.,.METRE.)
);
#1691=(
NAMED_UNIT(*)
PLANE_ANGLE_UNIT()
SI_UNIT($,.RADIAN.)
);
#1692=(
NAMED_UNIT(*)
SI_UNIT($,.STERADIAN.)
SOLID_ANGLE_UNIT()
);
#1693=SHAPE_DEFINITION_REPRESENTATION(#1694,#1695);
#1694=PRODUCT_DEFINITION_SHAPE('',$,#1697);
#1695=SHAPE_REPRESENTATION('',(#935),#1687);
#1696=PRODUCT_DEFINITION_CONTEXT('part definition',#1701,'design');
#1697=PRODUCT_DEFINITION('servohorn_support_forR0',
'servohorn_support_forR0',#1698,#1696);
#1698=PRODUCT_DEFINITION_FORMATION('',$,#1703);
#1699=PRODUCT_RELATED_PRODUCT_CATEGORY('servohorn_support_forR0',
'servohorn_support_forR0',(#1703));
#1700=APPLICATION_PROTOCOL_DEFINITION('international standard',
'automotive_design',2009,#1701);
#1701=APPLICATION_CONTEXT(
'Core Data for Automotive Mechanical Design Process');
#1702=PRODUCT_CONTEXT('part definition',#1701,'mechanical');
#1703=PRODUCT('servohorn_support_forR0','servohorn_support_forR0',$,(#1702));
#1704=PRESENTATION_STYLE_ASSIGNMENT((#1705));
#1705=SURFACE_STYLE_USAGE(.BOTH.,#1708);
#1706=SURFACE_STYLE_RENDERING_WITH_PROPERTIES($,#1712,(#1707));
#1707=SURFACE_STYLE_TRANSPARENT(0.);
#1708=SURFACE_SIDE_STYLE('',(#1709,#1706));
#1709=SURFACE_STYLE_FILL_AREA(#1710);
#1710=FILL_AREA_STYLE('',(#1711));
#1711=FILL_AREA_STYLE_COLOUR('',#1712);
#1712=COLOUR_RGB('',0.0196078431372549,0.0196078431372549,0.0196078431372549);
ENDSEC;
END-ISO-10303-21;
