ISO-10303-21;
HEADER;
/* Generated by software containing ST-Developer
 * from STEP Tools, Inc. (www.steptools.com) 
 */
/* OPTION: using custom renumber hook */

FILE_DESCRIPTION(
/* description */ ('STEP AP203'),
/* implementation_level */ '2;1');

FILE_NAME(
/* name */ 'WA673SA',
/* time_stamp */ '2025-06-26T16:23:18+02:00',
/* author */ ('License CC BY-ND 4.0'),
/* organization */ ('CADENAS'),
/* preprocessor_version */ 'ST-DEVELOPER v19.3',
/* originating_system */ 'PARTsolutions',
/* authorisation */ '  ');

FILE_SCHEMA (('CONFIG_CONTROL_DESIGN'));
ENDSEC;

DATA;
#10=PROPERTY_DEFINITION_REPRESENTATION(#14,#12);
#11=PROPERTY_DEFINITION_REPRESENTATION(#15,#13);
#12=REPRESENTATION('',(#16),#625);
#13=REPRESENTATION('',(#17),#625);
#14=PROPERTY_DEFINITION('pmi validation property','',#638);
#15=PROPERTY_DEFINITION('pmi validation property','',#638);
#16=VALUE_REPRESENTATION_ITEM('number of annotations',COUNT_MEASURE(0.));
#17=VALUE_REPRESENTATION_ITEM('number of views',COUNT_MEASURE(0.));
#18=VERTEX_LOOP('',#179);
#19=SPHERICAL_SURFACE('',#417,0.444);
#20=CONTEXT_DEPENDENT_SHAPE_REPRESENTATION(#44,#640);
#21=CONTEXT_DEPENDENT_SHAPE_REPRESENTATION(#45,#642);
#22=CONTEXT_DEPENDENT_SHAPE_REPRESENTATION(#46,#644);
#23=CONTEXT_DEPENDENT_SHAPE_REPRESENTATION(#47,#646);
#24=CONTEXT_DEPENDENT_SHAPE_REPRESENTATION(#48,#647);
#25=CONTEXT_DEPENDENT_SHAPE_REPRESENTATION(#49,#648);
#26=CONTEXT_DEPENDENT_SHAPE_REPRESENTATION(#50,#649);
#27=CONTEXT_DEPENDENT_SHAPE_REPRESENTATION(#51,#650);
#28=CONTEXT_DEPENDENT_SHAPE_REPRESENTATION(#52,#651);
#29=CONTEXT_DEPENDENT_SHAPE_REPRESENTATION(#53,#652);
#30=CONTEXT_DEPENDENT_SHAPE_REPRESENTATION(#54,#653);
#31=CONTEXT_DEPENDENT_SHAPE_REPRESENTATION(#55,#654);
#32=NEXT_ASSEMBLY_USAGE_OCCURRENCE('NAUO1','WA673SA Inner ring',
'WA673SA Inner ring',#655,#656,'');
#33=NEXT_ASSEMBLY_USAGE_OCCURRENCE('NAUO2','WA673SA Outer ring',
'WA673SA Outer ring',#655,#657,'');
#34=NEXT_ASSEMBLY_USAGE_OCCURRENCE('NAUO3','WA673SA Shield',
'WA673SA Shield',#655,#658,'');
#35=NEXT_ASSEMBLY_USAGE_OCCURRENCE('NAUO4','WA673SA Ball',
'WA673SA Ball',#655,#659,'');
#36=NEXT_ASSEMBLY_USAGE_OCCURRENCE('NAUO5','WA673SA Ball',
'WA673SA Ball',#655,#659,'');
#37=NEXT_ASSEMBLY_USAGE_OCCURRENCE('NAUO6','WA673SA Ball',
'WA673SA Ball',#655,#659,'');
#38=NEXT_ASSEMBLY_USAGE_OCCURRENCE('NAUO7','WA673SA Ball',
'WA673SA Ball',#655,#659,'');
#39=NEXT_ASSEMBLY_USAGE_OCCURRENCE('NAUO8','WA673SA Ball',
'WA673SA Ball',#655,#659,'');
#40=NEXT_ASSEMBLY_USAGE_OCCURRENCE('NAUO9','WA673SA Ball',
'WA673SA Ball',#655,#659,'');
#41=NEXT_ASSEMBLY_USAGE_OCCURRENCE('NAUO10','WA673SA Ball',
'WA673SA Ball',#655,#659,'');
#42=NEXT_ASSEMBLY_USAGE_OCCURRENCE('NAUO11','WA673SA Ball',
'WA673SA Ball',#655,#659,'');
#43=NEXT_ASSEMBLY_USAGE_OCCURRENCE('NAUO12','WA673SA Ball',
'WA673SA Ball',#655,#659,'');
#44=(
REPRESENTATION_RELATIONSHIP(' ',' ',#365,#364)
REPRESENTATION_RELATIONSHIP_WITH_TRANSFORMATION(#56)
SHAPE_REPRESENTATION_RELATIONSHIP()
);
#45=(
REPRESENTATION_RELATIONSHIP(' ',' ',#366,#364)
REPRESENTATION_RELATIONSHIP_WITH_TRANSFORMATION(#57)
SHAPE_REPRESENTATION_RELATIONSHIP()
);
#46=(
REPRESENTATION_RELATIONSHIP(' ',' ',#367,#364)
REPRESENTATION_RELATIONSHIP_WITH_TRANSFORMATION(#58)
SHAPE_REPRESENTATION_RELATIONSHIP()
);
#47=(
REPRESENTATION_RELATIONSHIP(' ',' ',#368,#364)
REPRESENTATION_RELATIONSHIP_WITH_TRANSFORMATION(#59)
SHAPE_REPRESENTATION_RELATIONSHIP()
);
#48=(
REPRESENTATION_RELATIONSHIP(' ',' ',#368,#364)
REPRESENTATION_RELATIONSHIP_WITH_TRANSFORMATION(#60)
SHAPE_REPRESENTATION_RELATIONSHIP()
);
#49=(
REPRESENTATION_RELATIONSHIP(' ',' ',#368,#364)
REPRESENTATION_RELATIONSHIP_WITH_TRANSFORMATION(#61)
SHAPE_REPRESENTATION_RELATIONSHIP()
);
#50=(
REPRESENTATION_RELATIONSHIP(' ',' ',#368,#364)
REPRESENTATION_RELATIONSHIP_WITH_TRANSFORMATION(#62)
SHAPE_REPRESENTATION_RELATIONSHIP()
);
#51=(
REPRESENTATION_RELATIONSHIP(' ',' ',#368,#364)
REPRESENTATION_RELATIONSHIP_WITH_TRANSFORMATION(#63)
SHAPE_REPRESENTATION_RELATIONSHIP()
);
#52=(
REPRESENTATION_RELATIONSHIP(' ',' ',#368,#364)
REPRESENTATION_RELATIONSHIP_WITH_TRANSFORMATION(#64)
SHAPE_REPRESENTATION_RELATIONSHIP()
);
#53=(
REPRESENTATION_RELATIONSHIP(' ',' ',#368,#364)
REPRESENTATION_RELATIONSHIP_WITH_TRANSFORMATION(#65)
SHAPE_REPRESENTATION_RELATIONSHIP()
);
#54=(
REPRESENTATION_RELATIONSHIP(' ',' ',#368,#364)
REPRESENTATION_RELATIONSHIP_WITH_TRANSFORMATION(#66)
SHAPE_REPRESENTATION_RELATIONSHIP()
);
#55=(
REPRESENTATION_RELATIONSHIP(' ',' ',#368,#364)
REPRESENTATION_RELATIONSHIP_WITH_TRANSFORMATION(#67)
SHAPE_REPRESENTATION_RELATIONSHIP()
);
#56=ITEM_DEFINED_TRANSFORMATION(' ',' ',#369,#386);
#57=ITEM_DEFINED_TRANSFORMATION(' ',' ',#369,#407);
#58=ITEM_DEFINED_TRANSFORMATION(' ',' ',#369,#416);
#59=ITEM_DEFINED_TRANSFORMATION(' ',' ',#369,#418);
#60=ITEM_DEFINED_TRANSFORMATION(' ',' ',#369,#419);
#61=ITEM_DEFINED_TRANSFORMATION(' ',' ',#369,#420);
#62=ITEM_DEFINED_TRANSFORMATION(' ',' ',#369,#421);
#63=ITEM_DEFINED_TRANSFORMATION(' ',' ',#369,#422);
#64=ITEM_DEFINED_TRANSFORMATION(' ',' ',#369,#423);
#65=ITEM_DEFINED_TRANSFORMATION(' ',' ',#369,#424);
#66=ITEM_DEFINED_TRANSFORMATION(' ',' ',#369,#425);
#67=ITEM_DEFINED_TRANSFORMATION(' ',' ',#369,#426);
#68=SHAPE_REPRESENTATION_RELATIONSHIP('','',#365,#72);
#69=SHAPE_REPRESENTATION_RELATIONSHIP('','',#366,#73);
#70=SHAPE_REPRESENTATION_RELATIONSHIP('','',#367,#74);
#71=SHAPE_REPRESENTATION_RELATIONSHIP('','',#368,#75);
#72=ADVANCED_BREP_SHAPE_REPRESENTATION('',(#355),#626);
#73=ADVANCED_BREP_SHAPE_REPRESENTATION('',(#356),#627);
#74=ADVANCED_BREP_SHAPE_REPRESENTATION('',(#357),#628);
#75=ADVANCED_BREP_SHAPE_REPRESENTATION('',(#358),#629);
#76=CYLINDRICAL_SURFACE('',#375,1.5);
#77=CYLINDRICAL_SURFACE('',#381,1.98);
#78=CYLINDRICAL_SURFACE('',#385,1.98);
#79=CYLINDRICAL_SURFACE('',#392,2.52);
#80=CYLINDRICAL_SURFACE('',#396,2.52);
#81=CYLINDRICAL_SURFACE('',#400,2.616);
#82=CYLINDRICAL_SURFACE('',#406,3.);
#83=CYLINDRICAL_SURFACE('',#408,2.616);
#84=CYLINDRICAL_SURFACE('',#413,1.98);
#85=TOROIDAL_SURFACE('',#373,1.58,0.0800000000000002);
#86=TOROIDAL_SURFACE('',#377,1.58,0.0800000000000006);
#87=TOROIDAL_SURFACE('',#383,2.25,0.444000000000001);
#88=TOROIDAL_SURFACE('',#387,2.92,0.0800000000000002);
#89=TOROIDAL_SURFACE('',#394,2.25,0.444);
#90=TOROIDAL_SURFACE('',#404,2.92,0.0800000000000006);
#91=ORIENTED_EDGE('',*,*,#135,.T.);
#92=ORIENTED_EDGE('',*,*,#136,.F.);
#93=ORIENTED_EDGE('',*,*,#137,.T.);
#94=ORIENTED_EDGE('',*,*,#135,.F.);
#95=ORIENTED_EDGE('',*,*,#138,.T.);
#96=ORIENTED_EDGE('',*,*,#137,.F.);
#97=ORIENTED_EDGE('',*,*,#139,.T.);
#98=ORIENTED_EDGE('',*,*,#138,.F.);
#99=ORIENTED_EDGE('',*,*,#140,.T.);
#100=ORIENTED_EDGE('',*,*,#139,.F.);
#101=ORIENTED_EDGE('',*,*,#141,.T.);
#102=ORIENTED_EDGE('',*,*,#140,.F.);
#103=ORIENTED_EDGE('',*,*,#141,.F.);
#104=ORIENTED_EDGE('',*,*,#142,.T.);
#105=ORIENTED_EDGE('',*,*,#136,.T.);
#106=ORIENTED_EDGE('',*,*,#142,.F.);
#107=ORIENTED_EDGE('',*,*,#143,.T.);
#108=ORIENTED_EDGE('',*,*,#144,.F.);
#109=ORIENTED_EDGE('',*,*,#145,.T.);
#110=ORIENTED_EDGE('',*,*,#143,.F.);
#111=ORIENTED_EDGE('',*,*,#146,.T.);
#112=ORIENTED_EDGE('',*,*,#145,.F.);
#113=ORIENTED_EDGE('',*,*,#146,.F.);
#114=ORIENTED_EDGE('',*,*,#147,.T.);
#115=ORIENTED_EDGE('',*,*,#148,.T.);
#116=ORIENTED_EDGE('',*,*,#147,.F.);
#117=ORIENTED_EDGE('',*,*,#149,.T.);
#118=ORIENTED_EDGE('',*,*,#148,.F.);
#119=ORIENTED_EDGE('',*,*,#150,.T.);
#120=ORIENTED_EDGE('',*,*,#149,.F.);
#121=ORIENTED_EDGE('',*,*,#151,.T.);
#122=ORIENTED_EDGE('',*,*,#150,.F.);
#123=ORIENTED_EDGE('',*,*,#152,.T.);
#124=ORIENTED_EDGE('',*,*,#151,.F.);
#125=ORIENTED_EDGE('',*,*,#144,.T.);
#126=ORIENTED_EDGE('',*,*,#152,.F.);
#127=ORIENTED_EDGE('',*,*,#153,.T.);
#128=ORIENTED_EDGE('',*,*,#154,.F.);
#129=ORIENTED_EDGE('',*,*,#155,.T.);
#130=ORIENTED_EDGE('',*,*,#153,.F.);
#131=ORIENTED_EDGE('',*,*,#156,.T.);
#132=ORIENTED_EDGE('',*,*,#155,.F.);
#133=ORIENTED_EDGE('',*,*,#154,.T.);
#134=ORIENTED_EDGE('',*,*,#156,.F.);
#135=EDGE_CURVE('',#157,#157,#180,.T.);
#136=EDGE_CURVE('',#158,#158,#181,.T.);
#137=EDGE_CURVE('',#159,#159,#182,.T.);
#138=EDGE_CURVE('',#160,#160,#183,.T.);
#139=EDGE_CURVE('',#161,#161,#184,.T.);
#140=EDGE_CURVE('',#162,#162,#185,.T.);
#141=EDGE_CURVE('',#163,#163,#186,.T.);
#142=EDGE_CURVE('',#164,#164,#187,.T.);
#143=EDGE_CURVE('',#165,#165,#188,.T.);
#144=EDGE_CURVE('',#166,#166,#189,.T.);
#145=EDGE_CURVE('',#167,#167,#190,.T.);
#146=EDGE_CURVE('',#168,#168,#191,.T.);
#147=EDGE_CURVE('',#169,#169,#192,.T.);
#148=EDGE_CURVE('',#170,#170,#193,.T.);
#149=EDGE_CURVE('',#171,#171,#194,.T.);
#150=EDGE_CURVE('',#172,#172,#195,.T.);
#151=EDGE_CURVE('',#173,#173,#196,.T.);
#152=EDGE_CURVE('',#174,#174,#197,.T.);
#153=EDGE_CURVE('',#175,#175,#198,.T.);
#154=EDGE_CURVE('',#176,#176,#199,.T.);
#155=EDGE_CURVE('',#177,#177,#200,.T.);
#156=EDGE_CURVE('',#178,#178,#201,.T.);
#157=VERTEX_POINT('',#546);
#158=VERTEX_POINT('',#548);
#159=VERTEX_POINT('',#551);
#160=VERTEX_POINT('',#554);
#161=VERTEX_POINT('',#557);
#162=VERTEX_POINT('',#560);
#163=VERTEX_POINT('',#563);
#164=VERTEX_POINT('',#566);
#165=VERTEX_POINT('',#571);
#166=VERTEX_POINT('',#573);
#167=VERTEX_POINT('',#576);
#168=VERTEX_POINT('',#579);
#169=VERTEX_POINT('',#582);
#170=VERTEX_POINT('',#585);
#171=VERTEX_POINT('',#588);
#172=VERTEX_POINT('',#591);
#173=VERTEX_POINT('',#594);
#174=VERTEX_POINT('',#597);
#175=VERTEX_POINT('',#602);
#176=VERTEX_POINT('',#604);
#177=VERTEX_POINT('',#607);
#178=VERTEX_POINT('',#610);
#179=VERTEX_POINT('',#614);
#180=CIRCLE('',#371,1.58);
#181=CIRCLE('',#372,1.98);
#182=CIRCLE('',#374,1.5);
#183=CIRCLE('',#376,1.5);
#184=CIRCLE('',#378,1.58);
#185=CIRCLE('',#380,1.98);
#186=CIRCLE('',#382,1.98);
#187=CIRCLE('',#384,1.98);
#188=CIRCLE('',#388,2.92);
#189=CIRCLE('',#389,3.);
#190=CIRCLE('',#391,2.52);
#191=CIRCLE('',#393,2.52);
#192=CIRCLE('',#395,2.52);
#193=CIRCLE('',#397,2.52);
#194=CIRCLE('',#399,2.616);
#195=CIRCLE('',#401,2.616);
#196=CIRCLE('',#403,2.92);
#197=CIRCLE('',#405,3.);
#198=CIRCLE('',#409,2.616);
#199=CIRCLE('',#410,2.616);
#200=CIRCLE('',#412,1.98);
#201=CIRCLE('',#414,1.98);
#202=EDGE_LOOP('',(#91));
#203=EDGE_LOOP('',(#92));
#204=EDGE_LOOP('',(#93));
#205=EDGE_LOOP('',(#94));
#206=EDGE_LOOP('',(#95));
#207=EDGE_LOOP('',(#96));
#208=EDGE_LOOP('',(#97));
#209=EDGE_LOOP('',(#98));
#210=EDGE_LOOP('',(#99));
#211=EDGE_LOOP('',(#100));
#212=EDGE_LOOP('',(#101));
#213=EDGE_LOOP('',(#102));
#214=EDGE_LOOP('',(#103));
#215=EDGE_LOOP('',(#104));
#216=EDGE_LOOP('',(#105));
#217=EDGE_LOOP('',(#106));
#218=EDGE_LOOP('',(#107));
#219=EDGE_LOOP('',(#108));
#220=EDGE_LOOP('',(#109));
#221=EDGE_LOOP('',(#110));
#222=EDGE_LOOP('',(#111));
#223=EDGE_LOOP('',(#112));
#224=EDGE_LOOP('',(#113));
#225=EDGE_LOOP('',(#114));
#226=EDGE_LOOP('',(#115));
#227=EDGE_LOOP('',(#116));
#228=EDGE_LOOP('',(#117));
#229=EDGE_LOOP('',(#118));
#230=EDGE_LOOP('',(#119));
#231=EDGE_LOOP('',(#120));
#232=EDGE_LOOP('',(#121));
#233=EDGE_LOOP('',(#122));
#234=EDGE_LOOP('',(#123));
#235=EDGE_LOOP('',(#124));
#236=EDGE_LOOP('',(#125));
#237=EDGE_LOOP('',(#126));
#238=EDGE_LOOP('',(#127));
#239=EDGE_LOOP('',(#128));
#240=EDGE_LOOP('',(#129));
#241=EDGE_LOOP('',(#130));
#242=EDGE_LOOP('',(#131));
#243=EDGE_LOOP('',(#132));
#244=EDGE_LOOP('',(#133));
#245=EDGE_LOOP('',(#134));
#246=FACE_BOUND('',#202,.T.);
#247=FACE_BOUND('',#203,.T.);
#248=FACE_BOUND('',#204,.T.);
#249=FACE_BOUND('',#205,.T.);
#250=FACE_BOUND('',#206,.T.);
#251=FACE_BOUND('',#207,.T.);
#252=FACE_BOUND('',#208,.T.);
#253=FACE_BOUND('',#209,.T.);
#254=FACE_BOUND('',#210,.T.);
#255=FACE_BOUND('',#211,.T.);
#256=FACE_BOUND('',#212,.T.);
#257=FACE_BOUND('',#213,.T.);
#258=FACE_BOUND('',#214,.T.);
#259=FACE_BOUND('',#215,.T.);
#260=FACE_BOUND('',#216,.T.);
#261=FACE_BOUND('',#217,.T.);
#262=FACE_BOUND('',#218,.T.);
#263=FACE_BOUND('',#219,.T.);
#264=FACE_BOUND('',#220,.T.);
#265=FACE_BOUND('',#221,.T.);
#266=FACE_BOUND('',#222,.T.);
#267=FACE_BOUND('',#223,.T.);
#268=FACE_BOUND('',#224,.T.);
#269=FACE_BOUND('',#225,.T.);
#270=FACE_BOUND('',#226,.T.);
#271=FACE_BOUND('',#227,.T.);
#272=FACE_BOUND('',#228,.T.);
#273=FACE_BOUND('',#229,.T.);
#274=FACE_BOUND('',#230,.T.);
#275=FACE_BOUND('',#231,.T.);
#276=FACE_BOUND('',#232,.T.);
#277=FACE_BOUND('',#233,.T.);
#278=FACE_BOUND('',#234,.T.);
#279=FACE_BOUND('',#235,.T.);
#280=FACE_BOUND('',#236,.T.);
#281=FACE_BOUND('',#237,.T.);
#282=FACE_BOUND('',#238,.T.);
#283=FACE_BOUND('',#239,.T.);
#284=FACE_BOUND('',#240,.T.);
#285=FACE_BOUND('',#241,.T.);
#286=FACE_BOUND('',#242,.T.);
#287=FACE_BOUND('',#243,.T.);
#288=FACE_BOUND('',#244,.T.);
#289=FACE_BOUND('',#245,.T.);
#290=FACE_BOUND('',#18,.T.);
#291=PLANE('',#370);
#292=PLANE('',#379);
#293=PLANE('',#390);
#294=PLANE('',#398);
#295=PLANE('',#402);
#296=PLANE('',#411);
#297=PLANE('',#415);
#298=ADVANCED_FACE('',(#246,#247),#291,.T.);
#299=ADVANCED_FACE('',(#248,#249),#85,.T.);
#300=ADVANCED_FACE('',(#250,#251),#76,.F.);
#301=ADVANCED_FACE('',(#252,#253),#86,.T.);
#302=ADVANCED_FACE('',(#254,#255),#292,.T.);
#303=ADVANCED_FACE('',(#256,#257),#77,.T.);
#304=ADVANCED_FACE('',(#258,#259),#87,.F.);
#305=ADVANCED_FACE('',(#260,#261),#78,.T.);
#306=ADVANCED_FACE('',(#262,#263),#88,.T.);
#307=ADVANCED_FACE('',(#264,#265),#293,.T.);
#308=ADVANCED_FACE('',(#266,#267),#79,.F.);
#309=ADVANCED_FACE('',(#268,#269),#89,.F.);
#310=ADVANCED_FACE('',(#270,#271),#80,.F.);
#311=ADVANCED_FACE('',(#272,#273),#294,.T.);
#312=ADVANCED_FACE('',(#274,#275),#81,.F.);
#313=ADVANCED_FACE('',(#276,#277),#295,.T.);
#314=ADVANCED_FACE('',(#278,#279),#90,.T.);
#315=ADVANCED_FACE('',(#280,#281),#82,.T.);
#316=ADVANCED_FACE('',(#282,#283),#83,.T.);
#317=ADVANCED_FACE('',(#284,#285),#296,.T.);
#318=ADVANCED_FACE('',(#286,#287),#84,.F.);
#319=ADVANCED_FACE('',(#288,#289),#297,.T.);
#320=ADVANCED_FACE('',(#290),#19,.T.);
#321=CLOSED_SHELL('',(#298,#299,#300,#301,#302,#303,#304,#305));
#322=CLOSED_SHELL('',(#306,#307,#308,#309,#310,#311,#312,#313,#314,#315));
#323=CLOSED_SHELL('',(#316,#317,#318,#319));
#324=CLOSED_SHELL('',(#320));
#325=STYLED_ITEM('',(#329),#355);
#326=STYLED_ITEM('',(#330),#356);
#327=STYLED_ITEM('',(#331),#357);
#328=STYLED_ITEM('',(#332),#358);
#329=PRESENTATION_STYLE_ASSIGNMENT((#333));
#330=PRESENTATION_STYLE_ASSIGNMENT((#334));
#331=PRESENTATION_STYLE_ASSIGNMENT((#335));
#332=PRESENTATION_STYLE_ASSIGNMENT((#336));
#333=SURFACE_STYLE_USAGE(.BOTH.,#337);
#334=SURFACE_STYLE_USAGE(.BOTH.,#338);
#335=SURFACE_STYLE_USAGE(.BOTH.,#339);
#336=SURFACE_STYLE_USAGE(.BOTH.,#340);
#337=SURFACE_SIDE_STYLE('',(#341));
#338=SURFACE_SIDE_STYLE('',(#342));
#339=SURFACE_SIDE_STYLE('',(#343));
#340=SURFACE_SIDE_STYLE('',(#344));
#341=SURFACE_STYLE_FILL_AREA(#345);
#342=SURFACE_STYLE_FILL_AREA(#346);
#343=SURFACE_STYLE_FILL_AREA(#347);
#344=SURFACE_STYLE_FILL_AREA(#348);
#345=FILL_AREA_STYLE('',(#349));
#346=FILL_AREA_STYLE('',(#350));
#347=FILL_AREA_STYLE('',(#351));
#348=FILL_AREA_STYLE('',(#352));
#349=FILL_AREA_STYLE_COLOUR('',#353);
#350=FILL_AREA_STYLE_COLOUR('',#353);
#351=FILL_AREA_STYLE_COLOUR('',#354);
#352=FILL_AREA_STYLE_COLOUR('',#353);
#353=COLOUR_RGB('',0.689999997615814,0.689999997615814,0.689999997615814);
#354=COLOUR_RGB('',0.501960813999176,0.501960813999176,0.501960813999176);
#355=MANIFOLD_SOLID_BREP('WA673SA Inner ring',#321);
#356=MANIFOLD_SOLID_BREP('WA673SA Outer ring',#322);
#357=MANIFOLD_SOLID_BREP('WA673SA Shield',#323);
#358=MANIFOLD_SOLID_BREP('WA673SA Ball',#324);
#359=SHAPE_DEFINITION_REPRESENTATION(#638,#364);
#360=SHAPE_DEFINITION_REPRESENTATION(#639,#365);
#361=SHAPE_DEFINITION_REPRESENTATION(#641,#366);
#362=SHAPE_DEFINITION_REPRESENTATION(#643,#367);
#363=SHAPE_DEFINITION_REPRESENTATION(#645,#368);
#364=SHAPE_REPRESENTATION('WA673SA',(#369,#386,#407,#416,#418,#419,#420,
#421,#422,#423,#424,#425,#426),#625);
#365=SHAPE_REPRESENTATION('WA673SA Inner ring',(#369),#626);
#366=SHAPE_REPRESENTATION('WA673SA Outer ring',(#369),#627);
#367=SHAPE_REPRESENTATION('WA673SA Shield',(#369),#628);
#368=SHAPE_REPRESENTATION('WA673SA Ball',(#369),#629);
#369=AXIS2_PLACEMENT_3D('',#543,#427,#428);
#370=AXIS2_PLACEMENT_3D('',#544,#429,#430);
#371=AXIS2_PLACEMENT_3D('',#545,#431,#432);
#372=AXIS2_PLACEMENT_3D('',#547,#433,#434);
#373=AXIS2_PLACEMENT_3D('',#549,#435,#436);
#374=AXIS2_PLACEMENT_3D('',#550,#437,#438);
#375=AXIS2_PLACEMENT_3D('',#552,#439,#440);
#376=AXIS2_PLACEMENT_3D('',#553,#441,#442);
#377=AXIS2_PLACEMENT_3D('',#555,#443,#444);
#378=AXIS2_PLACEMENT_3D('',#556,#445,#446);
#379=AXIS2_PLACEMENT_3D('',#558,#447,#448);
#380=AXIS2_PLACEMENT_3D('',#559,#449,#450);
#381=AXIS2_PLACEMENT_3D('',#561,#451,#452);
#382=AXIS2_PLACEMENT_3D('',#562,#453,#454);
#383=AXIS2_PLACEMENT_3D('',#564,#455,#456);
#384=AXIS2_PLACEMENT_3D('',#565,#457,#458);
#385=AXIS2_PLACEMENT_3D('',#567,#459,#460);
#386=AXIS2_PLACEMENT_3D('',#568,#461,#462);
#387=AXIS2_PLACEMENT_3D('',#569,#463,#464);
#388=AXIS2_PLACEMENT_3D('',#570,#465,#466);
#389=AXIS2_PLACEMENT_3D('',#572,#467,#468);
#390=AXIS2_PLACEMENT_3D('',#574,#469,#470);
#391=AXIS2_PLACEMENT_3D('',#575,#471,#472);
#392=AXIS2_PLACEMENT_3D('',#577,#473,#474);
#393=AXIS2_PLACEMENT_3D('',#578,#475,#476);
#394=AXIS2_PLACEMENT_3D('',#580,#477,#478);
#395=AXIS2_PLACEMENT_3D('',#581,#479,#480);
#396=AXIS2_PLACEMENT_3D('',#583,#481,#482);
#397=AXIS2_PLACEMENT_3D('',#584,#483,#484);
#398=AXIS2_PLACEMENT_3D('',#586,#485,#486);
#399=AXIS2_PLACEMENT_3D('',#587,#487,#488);
#400=AXIS2_PLACEMENT_3D('',#589,#489,#490);
#401=AXIS2_PLACEMENT_3D('',#590,#491,#492);
#402=AXIS2_PLACEMENT_3D('',#592,#493,#494);
#403=AXIS2_PLACEMENT_3D('',#593,#495,#496);
#404=AXIS2_PLACEMENT_3D('',#595,#497,#498);
#405=AXIS2_PLACEMENT_3D('',#596,#499,#500);
#406=AXIS2_PLACEMENT_3D('',#598,#501,#502);
#407=AXIS2_PLACEMENT_3D('',#599,#503,#504);
#408=AXIS2_PLACEMENT_3D('',#600,#505,#506);
#409=AXIS2_PLACEMENT_3D('',#601,#507,#508);
#410=AXIS2_PLACEMENT_3D('',#603,#509,#510);
#411=AXIS2_PLACEMENT_3D('',#605,#511,#512);
#412=AXIS2_PLACEMENT_3D('',#606,#513,#514);
#413=AXIS2_PLACEMENT_3D('',#608,#515,#516);
#414=AXIS2_PLACEMENT_3D('',#609,#517,#518);
#415=AXIS2_PLACEMENT_3D('',#611,#519,#520);
#416=AXIS2_PLACEMENT_3D('',#612,#521,#522);
#417=AXIS2_PLACEMENT_3D('',#613,#523,#524);
#418=AXIS2_PLACEMENT_3D('',#615,#525,#526);
#419=AXIS2_PLACEMENT_3D('',#616,#527,#528);
#420=AXIS2_PLACEMENT_3D('',#617,#529,#530);
#421=AXIS2_PLACEMENT_3D('',#618,#531,#532);
#422=AXIS2_PLACEMENT_3D('',#619,#533,#534);
#423=AXIS2_PLACEMENT_3D('',#620,#535,#536);
#424=AXIS2_PLACEMENT_3D('',#621,#537,#538);
#425=AXIS2_PLACEMENT_3D('',#622,#539,#540);
#426=AXIS2_PLACEMENT_3D('',#623,#541,#542);
#427=DIRECTION('',(0.,0.,1.));
#428=DIRECTION('',(1.,0.,0.));
#429=DIRECTION('',(-1.,0.,0.));
#430=DIRECTION('',(0.,0.,1.));
#431=DIRECTION('',(1.,0.,0.));
#432=DIRECTION('',(0.,0.,-1.));
#433=DIRECTION('',(1.,0.,0.));
#434=DIRECTION('',(0.,0.,-1.));
#435=DIRECTION('',(1.,0.,0.));
#436=DIRECTION('',(0.,0.,-1.));
#437=DIRECTION('',(1.,0.,0.));
#438=DIRECTION('',(0.,0.,-1.));
#439=DIRECTION('',(1.,0.,0.));
#440=DIRECTION('',(0.,0.,-1.));
#441=DIRECTION('',(1.,0.,0.));
#442=DIRECTION('',(0.,0.,-1.));
#443=DIRECTION('',(1.,0.,0.));
#444=DIRECTION('',(0.,0.,-1.));
#445=DIRECTION('',(1.,0.,0.));
#446=DIRECTION('',(0.,0.,-1.));
#447=DIRECTION('',(1.,0.,0.));
#448=DIRECTION('',(0.,0.,-1.));
#449=DIRECTION('',(1.,0.,0.));
#450=DIRECTION('',(0.,0.,-1.));
#451=DIRECTION('',(1.,0.,0.));
#452=DIRECTION('',(0.,0.,-1.));
#453=DIRECTION('',(1.,0.,0.));
#454=DIRECTION('',(0.,0.,-1.));
#455=DIRECTION('',(1.,0.,0.));
#456=DIRECTION('',(0.,0.,-1.));
#457=DIRECTION('',(1.,0.,0.));
#458=DIRECTION('',(0.,0.,-1.));
#459=DIRECTION('',(1.,0.,0.));
#460=DIRECTION('',(0.,0.,-1.));
#461=DIRECTION('',(0.,0.,1.));
#462=DIRECTION('',(1.,0.,0.));
#463=DIRECTION('',(1.,0.,0.));
#464=DIRECTION('',(0.,0.,-1.));
#465=DIRECTION('',(1.,0.,0.));
#466=DIRECTION('',(0.,0.,-1.));
#467=DIRECTION('',(1.,0.,0.));
#468=DIRECTION('',(0.,0.,-1.));
#469=DIRECTION('',(-1.,0.,0.));
#470=DIRECTION('',(0.,0.,1.));
#471=DIRECTION('',(1.,0.,0.));
#472=DIRECTION('',(0.,0.,-1.));
#473=DIRECTION('',(1.,0.,0.));
#474=DIRECTION('',(0.,0.,-1.));
#475=DIRECTION('',(1.,0.,0.));
#476=DIRECTION('',(0.,0.,-1.));
#477=DIRECTION('',(1.,0.,0.));
#478=DIRECTION('',(0.,0.,-1.));
#479=DIRECTION('',(1.,0.,0.));
#480=DIRECTION('',(0.,0.,-1.));
#481=DIRECTION('',(1.,0.,0.));
#482=DIRECTION('',(0.,0.,-1.));
#483=DIRECTION('',(1.,0.,0.));
#484=DIRECTION('',(0.,0.,-1.));
#485=DIRECTION('',(1.,0.,0.));
#486=DIRECTION('',(0.,0.,-1.));
#487=DIRECTION('',(1.,0.,0.));
#488=DIRECTION('',(0.,0.,-1.));
#489=DIRECTION('',(1.,0.,0.));
#490=DIRECTION('',(0.,0.,-1.));
#491=DIRECTION('',(1.,0.,0.));
#492=DIRECTION('',(0.,0.,-1.));
#493=DIRECTION('',(1.,0.,0.));
#494=DIRECTION('',(0.,0.,-1.));
#495=DIRECTION('',(1.,0.,0.));
#496=DIRECTION('',(0.,0.,-1.));
#497=DIRECTION('',(1.,0.,0.));
#498=DIRECTION('',(0.,0.,-1.));
#499=DIRECTION('',(1.,0.,0.));
#500=DIRECTION('',(0.,0.,-1.));
#501=DIRECTION('',(1.,0.,0.));
#502=DIRECTION('',(0.,0.,-1.));
#503=DIRECTION('',(0.,0.,1.));
#504=DIRECTION('',(1.,0.,0.));
#505=DIRECTION('',(1.,0.,0.));
#506=DIRECTION('',(0.,0.,-1.));
#507=DIRECTION('',(1.,0.,0.));
#508=DIRECTION('',(0.,0.,-1.));
#509=DIRECTION('',(1.,0.,0.));
#510=DIRECTION('',(0.,0.,-1.));
#511=DIRECTION('',(-1.,0.,0.));
#512=DIRECTION('',(0.,0.,1.));
#513=DIRECTION('',(1.,0.,0.));
#514=DIRECTION('',(0.,0.,-1.));
#515=DIRECTION('',(1.,0.,0.));
#516=DIRECTION('',(0.,0.,-1.));
#517=DIRECTION('',(1.,0.,0.));
#518=DIRECTION('',(0.,0.,-1.));
#519=DIRECTION('',(1.,0.,0.));
#520=DIRECTION('',(0.,0.,-1.));
#521=DIRECTION('',(0.,0.,1.));
#522=DIRECTION('',(1.,0.,0.));
#523=DIRECTION('',(1.,0.,0.));
#524=DIRECTION('',(0.,-1.,0.));
#525=DIRECTION('',(0.,0.,1.));
#526=DIRECTION('',(-1.,0.,0.));
#527=DIRECTION('',(0.,0.,1.));
#528=DIRECTION('',(-1.,0.,0.));
#529=DIRECTION('',(0.,0.,1.));
#530=DIRECTION('',(-1.,0.,0.));
#531=DIRECTION('',(0.,0.,1.));
#532=DIRECTION('',(-1.,0.,0.));
#533=DIRECTION('',(0.,0.,1.));
#534=DIRECTION('',(-1.,0.,0.));
#535=DIRECTION('',(0.,0.,1.));
#536=DIRECTION('',(-1.,0.,0.));
#537=DIRECTION('',(0.,0.,1.));
#538=DIRECTION('',(-1.,0.,0.));
#539=DIRECTION('',(0.,0.,1.));
#540=DIRECTION('',(-1.,0.,0.));
#541=DIRECTION('',(0.,0.,1.));
#542=DIRECTION('',(-1.,0.,0.));
#543=CARTESIAN_POINT('',(0.,0.,0.));
#544=CARTESIAN_POINT('',(0.,1.98,0.));
#545=CARTESIAN_POINT('',(0.,0.,0.));
#546=CARTESIAN_POINT('',(0.,0.,-1.58));
#547=CARTESIAN_POINT('',(0.,0.,0.));
#548=CARTESIAN_POINT('',(0.,0.,-1.98));
#549=CARTESIAN_POINT('',(0.0800000000000002,0.,0.));
#550=CARTESIAN_POINT('',(0.0800000000000002,0.,0.));
#551=CARTESIAN_POINT('',(0.0800000000000002,0.,-1.5));
#552=CARTESIAN_POINT('',(2.5,0.,0.));
#553=CARTESIAN_POINT('',(2.42,0.,0.));
#554=CARTESIAN_POINT('',(2.42,0.,-1.5));
#555=CARTESIAN_POINT('',(2.42,0.,0.));
#556=CARTESIAN_POINT('',(2.5,0.,0.));
#557=CARTESIAN_POINT('',(2.5,0.,-1.58));
#558=CARTESIAN_POINT('',(2.5,1.58,0.));
#559=CARTESIAN_POINT('',(2.5,0.,0.));
#560=CARTESIAN_POINT('',(2.5,0.,-1.98));
#561=CARTESIAN_POINT('',(2.5,0.,0.));
#562=CARTESIAN_POINT('',(1.60247127542539,0.,0.));
#563=CARTESIAN_POINT('',(1.60247127542539,0.,-1.98));
#564=CARTESIAN_POINT('',(1.25,0.,0.));
#565=CARTESIAN_POINT('',(0.897528724574611,0.,0.));
#566=CARTESIAN_POINT('',(0.897528724574611,0.,-1.98));
#567=CARTESIAN_POINT('',(2.5,0.,0.));
#568=CARTESIAN_POINT('',(0.,0.,0.));
#569=CARTESIAN_POINT('',(0.0800000000000003,0.,0.));
#570=CARTESIAN_POINT('',(0.,0.,0.));
#571=CARTESIAN_POINT('',(0.,0.,-2.92));
#572=CARTESIAN_POINT('',(0.0800000000000002,0.,0.));
#573=CARTESIAN_POINT('',(0.0800000000000002,0.,-3.));
#574=CARTESIAN_POINT('',(0.,2.92,0.));
#575=CARTESIAN_POINT('',(0.,0.,0.));
#576=CARTESIAN_POINT('',(0.,0.,-2.52));
#577=CARTESIAN_POINT('',(2.5,0.,0.));
#578=CARTESIAN_POINT('',(0.897528724574612,0.,0.));
#579=CARTESIAN_POINT('',(0.897528724574612,0.,-2.52));
#580=CARTESIAN_POINT('',(1.25,0.,0.));
#581=CARTESIAN_POINT('',(1.60247127542539,0.,0.));
#582=CARTESIAN_POINT('',(1.60247127542539,0.,-2.52));
#583=CARTESIAN_POINT('',(2.5,0.,0.));
#584=CARTESIAN_POINT('',(2.44375,0.,0.));
#585=CARTESIAN_POINT('',(2.44375,0.,-2.52));
#586=CARTESIAN_POINT('',(2.44375,2.52,0.));
#587=CARTESIAN_POINT('',(2.44375,0.,0.));
#588=CARTESIAN_POINT('',(2.44375,0.,-2.616));
#589=CARTESIAN_POINT('',(2.5,0.,0.));
#590=CARTESIAN_POINT('',(2.5,0.,0.));
#591=CARTESIAN_POINT('',(2.5,0.,-2.616));
#592=CARTESIAN_POINT('',(2.5,2.616,0.));
#593=CARTESIAN_POINT('',(2.5,0.,0.));
#594=CARTESIAN_POINT('',(2.5,0.,-2.92));
#595=CARTESIAN_POINT('',(2.42,0.,0.));
#596=CARTESIAN_POINT('',(2.42,0.,0.));
#597=CARTESIAN_POINT('',(2.42,0.,-3.));
#598=CARTESIAN_POINT('',(2.5,0.,0.));
#599=CARTESIAN_POINT('',(0.,0.,0.));
#600=CARTESIAN_POINT('',(-0.01375,0.,0.));
#601=CARTESIAN_POINT('',(-0.05625,0.,0.));
#602=CARTESIAN_POINT('',(-0.05625,0.,-2.616));
#603=CARTESIAN_POINT('',(-0.01375,0.,0.));
#604=CARTESIAN_POINT('',(-0.01375,0.,-2.616));
#605=CARTESIAN_POINT('',(-0.05625,2.616,0.));
#606=CARTESIAN_POINT('',(-0.05625,0.,0.));
#607=CARTESIAN_POINT('',(-0.05625,0.,-1.98));
#608=CARTESIAN_POINT('',(-0.01375,0.,0.));
#609=CARTESIAN_POINT('',(-0.01375,0.,0.));
#610=CARTESIAN_POINT('',(-0.01375,0.,-1.98));
#611=CARTESIAN_POINT('',(-0.01375,1.98,0.));
#612=CARTESIAN_POINT('',(2.5,0.,0.));
#613=CARTESIAN_POINT('',(-2.71050543121376E-17,2.71050543121376E-17,0.));
#614=CARTESIAN_POINT('',(-0.444,-8.21046289336291E-20,0.));
#615=CARTESIAN_POINT('',(1.25,2.25,0.));
#616=CARTESIAN_POINT('',(1.25,1.7235999970177,1.44627212179471));
#617=CARTESIAN_POINT('',(1.25,0.390708399750593,2.21581744427747));
#618=CARTESIAN_POINT('',(1.25,-1.125,1.94855715851499));
#619=CARTESIAN_POINT('',(1.25,-2.11430839676829,0.769545322482755));
#620=CARTESIAN_POINT('',(1.25,-2.11430839676829,-0.769545322482754));
#621=CARTESIAN_POINT('',(1.25,-1.125,-1.94855715851499));
#622=CARTESIAN_POINT('',(1.25,0.390708399750592,-2.21581744427747));
#623=CARTESIAN_POINT('',(1.25,1.7235999970177,-1.44627212179471));
#624=MECHANICAL_DESIGN_GEOMETRIC_PRESENTATION_REPRESENTATION('',(#325,#326,
#327,#328),#625);
#625=(
GEOMETRIC_REPRESENTATION_CONTEXT(3)
GLOBAL_UNCERTAINTY_ASSIGNED_CONTEXT((#630))
GLOBAL_UNIT_ASSIGNED_CONTEXT((#637,#636,#635))
REPRESENTATION_CONTEXT('WA673SA','TOP_LEVEL_ASSEMBLY_PART')
);
#626=(
GEOMETRIC_REPRESENTATION_CONTEXT(3)
GLOBAL_UNCERTAINTY_ASSIGNED_CONTEXT((#631))
GLOBAL_UNIT_ASSIGNED_CONTEXT((#637,#636,#635))
REPRESENTATION_CONTEXT('WA673SA Inner ring','COMPONENT_PART')
);
#627=(
GEOMETRIC_REPRESENTATION_CONTEXT(3)
GLOBAL_UNCERTAINTY_ASSIGNED_CONTEXT((#632))
GLOBAL_UNIT_ASSIGNED_CONTEXT((#637,#636,#635))
REPRESENTATION_CONTEXT('WA673SA Outer ring','COMPONENT_PART')
);
#628=(
GEOMETRIC_REPRESENTATION_CONTEXT(3)
GLOBAL_UNCERTAINTY_ASSIGNED_CONTEXT((#633))
GLOBAL_UNIT_ASSIGNED_CONTEXT((#637,#636,#635))
REPRESENTATION_CONTEXT('WA673SA Shield','COMPONENT_PART')
);
#629=(
GEOMETRIC_REPRESENTATION_CONTEXT(3)
GLOBAL_UNCERTAINTY_ASSIGNED_CONTEXT((#634))
GLOBAL_UNIT_ASSIGNED_CONTEXT((#637,#636,#635))
REPRESENTATION_CONTEXT('WA673SA Ball','COMPONENT_PART')
);
#630=UNCERTAINTY_MEASURE_WITH_UNIT(LENGTH_MEASURE(0.005),#637,
'DISTANCE_ACCURACY_VALUE','Maximum Tolerance applied to model');
#631=UNCERTAINTY_MEASURE_WITH_UNIT(LENGTH_MEASURE(0.005),#637,
'DISTANCE_ACCURACY_VALUE','Maximum Tolerance applied to model');
#632=UNCERTAINTY_MEASURE_WITH_UNIT(LENGTH_MEASURE(0.005),#637,
'DISTANCE_ACCURACY_VALUE','Maximum Tolerance applied to model');
#633=UNCERTAINTY_MEASURE_WITH_UNIT(LENGTH_MEASURE(0.005),#637,
'DISTANCE_ACCURACY_VALUE','Maximum Tolerance applied to model');
#634=UNCERTAINTY_MEASURE_WITH_UNIT(LENGTH_MEASURE(0.005),#637,
'DISTANCE_ACCURACY_VALUE','Maximum Tolerance applied to model');
#635=(
NAMED_UNIT(*)
SI_UNIT($,.STERADIAN.)
SOLID_ANGLE_UNIT()
);
#636=(
NAMED_UNIT(*)
PLANE_ANGLE_UNIT()
SI_UNIT($,.RADIAN.)
);
#637=(
LENGTH_UNIT()
NAMED_UNIT(*)
SI_UNIT(.MILLI.,.METRE.)
);
#638=PRODUCT_DEFINITION_SHAPE('','',#655);
#639=PRODUCT_DEFINITION_SHAPE('','',#656);
#640=PRODUCT_DEFINITION_SHAPE(' ','NAUO PRDDFN',#32);
#641=PRODUCT_DEFINITION_SHAPE('','',#657);
#642=PRODUCT_DEFINITION_SHAPE(' ','NAUO PRDDFN',#33);
#643=PRODUCT_DEFINITION_SHAPE('','',#658);
#644=PRODUCT_DEFINITION_SHAPE(' ','NAUO PRDDFN',#34);
#645=PRODUCT_DEFINITION_SHAPE('','',#659);
#646=PRODUCT_DEFINITION_SHAPE(' ','NAUO PRDDFN',#35);
#647=PRODUCT_DEFINITION_SHAPE(' ','NAUO PRDDFN',#36);
#648=PRODUCT_DEFINITION_SHAPE(' ','NAUO PRDDFN',#37);
#649=PRODUCT_DEFINITION_SHAPE(' ','NAUO PRDDFN',#38);
#650=PRODUCT_DEFINITION_SHAPE(' ','NAUO PRDDFN',#39);
#651=PRODUCT_DEFINITION_SHAPE(' ','NAUO PRDDFN',#40);
#652=PRODUCT_DEFINITION_SHAPE(' ','NAUO PRDDFN',#41);
#653=PRODUCT_DEFINITION_SHAPE(' ','NAUO PRDDFN',#42);
#654=PRODUCT_DEFINITION_SHAPE(' ','NAUO PRDDFN',#43);
#655=PRODUCT_DEFINITION('','',#665,#660);
#656=PRODUCT_DEFINITION('','',#666,#661);
#657=PRODUCT_DEFINITION('','',#667,#662);
#658=PRODUCT_DEFINITION('','',#668,#663);
#659=PRODUCT_DEFINITION('','',#669,#664);
#660=DESIGN_CONTEXT('',#691,'design');
#661=DESIGN_CONTEXT('',#691,'design');
#662=DESIGN_CONTEXT('',#691,'design');
#663=DESIGN_CONTEXT('',#691,'design');
#664=DESIGN_CONTEXT('',#691,'design');
#665=PRODUCT_DEFINITION_FORMATION_WITH_SPECIFIED_SOURCE('','',#675,
 .NOT_KNOWN.);
#666=PRODUCT_DEFINITION_FORMATION_WITH_SPECIFIED_SOURCE('','',#676,
 .NOT_KNOWN.);
#667=PRODUCT_DEFINITION_FORMATION_WITH_SPECIFIED_SOURCE('','',#677,
 .NOT_KNOWN.);
#668=PRODUCT_DEFINITION_FORMATION_WITH_SPECIFIED_SOURCE('','',#678,
 .NOT_KNOWN.);
#669=PRODUCT_DEFINITION_FORMATION_WITH_SPECIFIED_SOURCE('','',#679,
 .NOT_KNOWN.);
#670=PRODUCT_RELATED_PRODUCT_CATEGORY('','',(#675));
#671=PRODUCT_RELATED_PRODUCT_CATEGORY('','',(#676));
#672=PRODUCT_RELATED_PRODUCT_CATEGORY('','',(#677));
#673=PRODUCT_RELATED_PRODUCT_CATEGORY('','',(#678));
#674=PRODUCT_RELATED_PRODUCT_CATEGORY('','',(#679));
#675=PRODUCT('WA673SA','WA673SA','WA673SA',(#685));
#676=PRODUCT('WA673SA Inner ring','WA673SA Inner ring',
'WA673SA Inner ring',(#686));
#677=PRODUCT('WA673SA Outer ring','WA673SA Outer ring',
'WA673SA Outer ring',(#687));
#678=PRODUCT('WA673SA Shield','WA673SA Shield','WA673SA Shield',(#688));
#679=PRODUCT('WA673SA Ball','WA673SA Ball','WA673SA Ball',(#689));
#680=PRODUCT_CATEGORY('','');
#681=PRODUCT_CATEGORY('','');
#682=PRODUCT_CATEGORY('','');
#683=PRODUCT_CATEGORY('','');
#684=PRODUCT_CATEGORY('','');
#685=MECHANICAL_CONTEXT('',#691,'mechanical');
#686=MECHANICAL_CONTEXT('',#691,'mechanical');
#687=MECHANICAL_CONTEXT('',#691,'mechanical');
#688=MECHANICAL_CONTEXT('',#691,'mechanical');
#689=MECHANICAL_CONTEXT('',#691,'mechanical');
#690=APPLICATION_PROTOCOL_DEFINITION('international standard',
'config_control_design',2010,#691);
#691=APPLICATION_CONTEXT(
'configuration controlled 3D designs of mechanical parts and assemblie
s');
ENDSEC;
END-ISO-10303-21;
